<svg xmlns="http://www.w3.org/2000/svg" xmlns:xlink="http://www.w3.org/1999/xlink" version="1.1" x="0px" y="0px" viewBox="0 0 96 120" style="enable-background:new 0 0 96 96;" xml:space="preserve"><g><path d="M45.8,64L45.8,64c0.3,0.2,0.5,0.3,0.8,0.4c0.4,0.1,0.7,0.2,1.1,0.3l0.1,0l0.7,0l0-0.1c0.2,0,0.5-0.1,0.7-0.2   c0.3-0.1,0.6-0.3,0.8-0.5l0.3-0.3l19.3-19.3c0.7-0.7,1-1.5,1-2.5s-0.4-1.8-1-2.5c-1.3-1.3-3.6-1.3-4.9,0L51.5,52.8V10.7   c0-1.9-1.6-3.5-3.5-3.5s-3.5,1.6-3.5,3.5v42.1L31.2,39.5c-1.3-1.3-3.6-1.3-4.9,0c-0.7,0.7-1,1.5-1,2.5s0.4,1.8,1,2.5L45.8,64z"/><path d="M86.5,52.9c-1.9,0-3.5,1.6-3.5,3.5v13.9c0,6.3-5.2,11.5-11.5,11.5H24.5c-6.3,0-11.5-5.2-11.5-11.5V56.4   c0-1.9-1.6-3.5-3.5-3.5S6,54.5,6,56.4v13.9c0,10.2,8.3,18.5,18.5,18.5h47.1c10.2,0,18.5-8.3,18.5-18.5V56.4   C90,54.5,88.5,52.9,86.5,52.9z"/></g><text x="0" y="111" fill="#000000" font-size="5px" font-weight="bold" font-family="'Helvetica Neue', Helvetica, Arial-Unicode, Arial, Sans-serif">Created by Jony</text><text x="0" y="116" fill="#000000" font-size="5px" font-weight="bold" font-family="'Helvetica Neue', Helvetica, Arial-Unicode, Arial, Sans-serif">from the Noun Project</text></svg>