<svg xmlns="http://www.w3.org/2000/svg" xmlns:xlink="http://www.w3.org/1999/xlink" version="1.1" x="0px" y="0px" viewBox="0 0 96 120" style="enable-background:new 0 0 96 96;" xml:space="preserve"><g><path d="M46.2,63C46.2,63,46.2,63,46.2,63C46.3,63,46.3,63,46.2,63C46.3,63,46.3,63,46.2,63c0.3,0.3,0.5,0.4,0.8,0.5   s0.6,0.2,0.9,0.2h0c0,0,0,0,0,0c0,0,0,0,0,0c0,0,0,0,0,0s0,0,0,0c0,0,0,0,0,0c0,0,0,0,0,0h0c0.3,0,0.6-0.1,0.9-0.2c0,0,0,0,0,0   c0.3-0.1,0.6-0.3,0.8-0.5l0,0l0,0c0,0,0,0,0,0c0,0,0,0,0,0L69,43.7c1-1,1-2.6,0-3.5c-1-1-2.6-1-3.5,0l-15,15V10.7   c0-1.4-1.1-2.5-2.5-2.5s-2.5,1.1-2.5,2.5v44.5l-15-15c-1-1-2.6-1-3.5,0c-1,1-1,2.6,0,3.5L46.2,63z"/><path d="M86.5,53.9c-1.4,0-2.5,1.1-2.5,2.5v13.9c0,6.9-5.6,12.5-12.5,12.5H24.5c-6.9,0-12.5-5.6-12.5-12.5V56.4   c0-1.4-1.1-2.5-2.5-2.5S7,55,7,56.4v13.9c0,9.6,7.9,17.5,17.5,17.5h47.1C81.2,87.8,89,80,89,70.3V56.4C89,55,87.9,53.9,86.5,53.9z"/></g><text x="0" y="111" fill="#000000" font-size="5px" font-weight="bold" font-family="'Helvetica Neue', Helvetica, Arial-Unicode, Arial, Sans-serif">Created by Jony</text><text x="0" y="116" fill="#000000" font-size="5px" font-weight="bold" font-family="'Helvetica Neue', Helvetica, Arial-Unicode, Arial, Sans-serif">from the Noun Project</text></svg>