<svg xmlns="http://www.w3.org/2000/svg" xmlns:xlink="http://www.w3.org/1999/xlink" version="1.1" x="0px" y="0px" viewBox="0 0 96 120" style="enable-background:new 0 0 96 96;" xml:space="preserve"><g><path d="M31.2,32.4l13.3-13.3v42.1c0,1.9,1.6,3.5,3.5,3.5s3.5-1.6,3.5-3.5V19.1l13.3,13.3c1.3,1.3,3.6,1.3,4.9,0   c0.7-0.7,1-1.5,1-2.5s-0.4-1.8-1-2.5L50.5,8.2c-0.6-0.6-1.4-1-2.3-1l-0.3-0.1l-0.2,0.1c-0.8,0.1-1.6,0.4-2.2,1L26.3,27.5   c-0.7,0.7-1,1.5-1,2.5s0.4,1.8,1,2.5C27.6,33.7,29.9,33.7,31.2,32.4z"/><path d="M86.5,52.9c-1.9,0-3.5,1.6-3.5,3.5v13.9c0,6.3-5.2,11.5-11.5,11.5H24.5c-6.3,0-11.5-5.2-11.5-11.5V56.4   c0-1.9-1.6-3.5-3.5-3.5S6,54.5,6,56.4v13.9c0,10.2,8.3,18.5,18.5,18.5h47.1c10.2,0,18.5-8.3,18.5-18.5V56.4   C90,54.5,88.5,52.9,86.5,52.9z"/></g><text x="0" y="111" fill="#000000" font-size="5px" font-weight="bold" font-family="'Helvetica Neue', Helvetica, Arial-Unicode, Arial, Sans-serif">Created by Jony</text><text x="0" y="116" fill="#000000" font-size="5px" font-weight="bold" font-family="'Helvetica Neue', Helvetica, Arial-Unicode, Arial, Sans-serif">from the Noun Project</text></svg>