<svg xmlns="http://www.w3.org/2000/svg" xmlns:xlink="http://www.w3.org/1999/xlink" version="1.1" x="0px" y="0px" viewBox="0 0 96 120" style="enable-background:new 0 0 96 96;" xml:space="preserve"><g><path d="M30.5,31.7l15-15v44.5c0,1.4,1.1,2.5,2.5,2.5s2.5-1.1,2.5-2.5V16.7l15,15c1,1,2.6,1,3.5,0c1-1,1-2.6,0-3.5L49.8,8.9   c-0.5-0.5-1.1-0.7-1.8-0.7c0,0,0,0,0,0c0,0,0,0,0,0c0,0,0,0,0,0c0,0,0,0,0,0c-0.7,0-1.3,0.3-1.8,0.7L27,28.2c-1,1-1,2.6,0,3.5   C27.9,32.7,29.5,32.7,30.5,31.7z"/><path d="M86.5,53.9c-1.4,0-2.5,1.1-2.5,2.5v13.9c0,6.9-5.6,12.5-12.5,12.5H24.5c-6.9,0-12.5-5.6-12.5-12.5V56.4   c0-1.4-1.1-2.5-2.5-2.5S7,55,7,56.4v13.9c0,9.6,7.9,17.5,17.5,17.5h47.1C81.2,87.8,89,80,89,70.3V56.4C89,55,87.9,53.9,86.5,53.9z"/></g><text x="0" y="111" fill="#000000" font-size="5px" font-weight="bold" font-family="'Helvetica Neue', Helvetica, Arial-Unicode, Arial, Sans-serif">Created by Jony</text><text x="0" y="116" fill="#000000" font-size="5px" font-weight="bold" font-family="'Helvetica Neue', Helvetica, Arial-Unicode, Arial, Sans-serif">from the Noun Project</text></svg>