<svg xmlns="http://www.w3.org/2000/svg" xmlns:xlink="http://www.w3.org/1999/xlink" version="1.1" x="0px" y="0px" viewBox="0 0 512 640" enable-background="new 0 0 512 512" xml:space="preserve"><g><path d="M256,2C115.7,2,2,115.7,2,256s113.7,254,254,254c140.3,0,254-113.7,254-254S396.3,2,256,2z M256,459.2   C144,459.2,52.8,368,52.8,256S144,52.8,256,52.8c112,0,203.2,91.2,203.2,203.2S368,459.2,256,459.2z"/><path d="M350.2,314.2L291.9,256l58.2-58.2c9.9-9.9,9.9-26,0-35.9c-9.9-9.9-26-9.9-35.9,0L256,220.1l-58.2-58.2   c-9.9-9.9-26-9.9-35.9,0c-9.9,9.9-9.9,26,0,35.9l58.2,58.2l-58.2,58.2c-9.9,9.9-10.2,26.2,0,35.9c16.9,16.1,31,5,35.9,0l58.2-58.2   l58.2,58.2c14.9,14.9,31,5,35.9,0C360.1,340.2,360.1,324.2,350.2,314.2z"/></g><text x="0" y="527" fill="#000000" font-size="5px" font-weight="bold" font-family="'Helvetica Neue', Helvetica, Arial-Unicode, Arial, Sans-serif">Created by ProSymbols</text><text x="0" y="532" fill="#000000" font-size="5px" font-weight="bold" font-family="'Helvetica Neue', Helvetica, Arial-Unicode, Arial, Sans-serif">from the Noun Project</text></svg>