<svg xmlns="http://www.w3.org/2000/svg" xmlns:xlink="http://www.w3.org/1999/xlink" version="1.1" x="0px" y="0px" viewBox="0 0 500 625" enable-background="new 0 0 500 500" xml:space="preserve"><g><path d="M184.157,134.714c-0.747-0.753-1.572-1.415-2.453-2.005c-0.385-0.258-0.804-0.438-1.208-0.663   c-0.518-0.279-1.007-0.583-1.556-0.816c-0.527-0.214-1.072-0.341-1.617-0.501c-0.456-0.134-0.898-0.312-1.374-0.401   c-2.072-0.411-4.213-0.411-6.285,0c-0.476,0.089-0.92,0.267-1.375,0.401c-0.546,0.164-1.094,0.287-1.618,0.501   c-0.545,0.233-1.038,0.537-1.554,0.816c-0.403,0.225-0.823,0.405-1.21,0.663c-0.881,0.591-1.704,1.255-2.453,2.005l-51.969,51.968   c-6.269,6.261-6.269,16.427,0,22.698c3.133,3.133,7.24,4.703,11.347,4.703s8.215-1.57,11.348-4.703l24.574-24.58v169.15   c0,8.854,7.185,16.05,16.048,16.05c8.862,0,16.051-7.196,16.051-16.05V184.8l24.571,24.58c3.135,3.133,7.241,4.703,11.349,4.703   c4.106,0,8.212-1.57,11.348-4.703c6.27-6.269,6.27-16.437,0-22.698L184.157,134.714z"/><path d="M390.514,290.622c-6.268-6.269-16.425-6.269-22.692,0l-24.577,24.577V146.052c0-8.856-7.19-16.052-16.052-16.052   c-8.863,0-16.049,7.192-16.049,16.052v169.147l-24.574-24.577c-6.268-6.269-16.428-6.269-22.692,0   c-6.271,6.271-6.271,16.439,0,22.696l51.966,51.969c0.747,0.753,1.571,1.418,2.453,2.009c0.391,0.258,0.805,0.436,1.212,0.661   c0.517,0.278,1.005,0.588,1.554,0.813c0.524,0.215,1.077,0.34,1.615,0.499c0.462,0.138,0.9,0.319,1.377,0.407   c1.038,0.205,2.089,0.323,3.143,0.323c1.051,0,2.105-0.118,3.144-0.323c0.473-0.088,0.912-0.27,1.373-0.407   c0.542-0.159,1.094-0.284,1.615-0.499c0.548-0.226,1.039-0.535,1.556-0.813c0.403-0.226,0.818-0.407,1.208-0.661   c0.882-0.591,1.705-1.256,2.455-2.009l51.972-51.969C396.782,307.062,396.782,296.893,390.514,290.622z"/></g><text x="0" y="515" fill="#000000" font-size="5px" font-weight="bold" font-family="'Helvetica Neue', Helvetica, Arial-Unicode, Arial, Sans-serif">Created by kakoki</text><text x="0" y="520" fill="#000000" font-size="5px" font-weight="bold" font-family="'Helvetica Neue', Helvetica, Arial-Unicode, Arial, Sans-serif">from the Noun Project</text></svg>