<svg xmlns="http://www.w3.org/2000/svg" xmlns:xlink="http://www.w3.org/1999/xlink" version="1.1" x="0px" y="0px" viewBox="0 0 64 80" style="enable-background:new 0 0 64 64;" xml:space="preserve"><g><path d="M15.83,8.292c-0.285-0.688-0.891-1.185-1.623-1.328c-0.087-0.017-0.154-0.084-0.171-0.173   c-0.144-0.73-0.641-1.336-1.328-1.621c-0.689-0.285-1.468-0.208-2.086,0.208c-0.074,0.051-0.17,0.051-0.244,0   C9.761,4.963,8.981,4.887,8.292,5.17C7.604,5.455,7.107,6.061,6.964,6.793C6.947,6.88,6.88,6.947,6.791,6.964   C6.061,7.107,5.455,7.604,5.17,8.292S4.963,9.76,5.378,10.378c0.05,0.074,0.05,0.17,0,0.244c-0.415,0.618-0.493,1.398-0.208,2.086   s0.891,1.185,1.623,1.328c0.087,0.017,0.154,0.084,0.171,0.173c0.144,0.73,0.641,1.336,1.328,1.621   c0.689,0.284,1.467,0.208,2.086-0.208c0.074-0.05,0.17-0.051,0.244,0C10.994,15.872,11.425,16,11.858,16   c0.287,0,0.575-0.057,0.85-0.17c0.688-0.285,1.185-0.891,1.328-1.623c0.017-0.087,0.084-0.154,0.173-0.171   c0.73-0.144,1.336-0.641,1.621-1.328s0.207-1.468-0.208-2.086c-0.05-0.074-0.05-0.17,0-0.244C16.037,9.76,16.115,8.979,15.83,8.292   z M13.962,11.737c0.054,0.08,0.041,0.156,0.021,0.205c-0.021,0.05-0.064,0.112-0.158,0.131c-0.891,0.173-1.578,0.86-1.751,1.749   c-0.019,0.096-0.081,0.14-0.131,0.16c-0.049,0.021-0.125,0.034-0.205-0.021c-0.376-0.253-0.807-0.379-1.237-0.379   s-0.861,0.126-1.237,0.379c-0.081,0.056-0.155,0.041-0.205,0.021s-0.112-0.064-0.131-0.158c-0.173-0.891-0.86-1.578-1.749-1.751   c-0.096-0.019-0.14-0.081-0.16-0.131c-0.021-0.049-0.033-0.125,0.021-0.205c0.505-0.752,0.505-1.723,0-2.475   c-0.054-0.08-0.041-0.156-0.021-0.205c0.021-0.05,0.064-0.112,0.158-0.131c0.891-0.173,1.578-0.86,1.751-1.749   c0.019-0.096,0.081-0.14,0.131-0.16c0.049-0.02,0.124-0.033,0.205,0.021c0.752,0.506,1.723,0.506,2.475,0   c0.081-0.054,0.157-0.04,0.205-0.021c0.05,0.021,0.112,0.064,0.131,0.158c0.173,0.891,0.86,1.578,1.749,1.751   c0.096,0.019,0.14,0.081,0.16,0.131c0.021,0.049,0.033,0.125-0.021,0.205C13.457,10.015,13.457,10.985,13.962,11.737z"/><path d="M58.622,53.378c0.415-0.618,0.493-1.398,0.208-2.086s-0.891-1.185-1.623-1.328c-0.087-0.017-0.154-0.084-0.171-0.173   c-0.144-0.73-0.641-1.336-1.328-1.621c-0.688-0.285-1.468-0.208-2.086,0.208c-0.073,0.05-0.169,0.052-0.244,0   c-0.618-0.415-1.396-0.492-2.086-0.208c-0.688,0.285-1.185,0.891-1.328,1.623c-0.017,0.087-0.084,0.154-0.173,0.171   c-0.73,0.144-1.336,0.641-1.621,1.328s-0.207,1.468,0.208,2.086c0.05,0.074,0.05,0.17,0,0.244   c-0.415,0.618-0.493,1.398-0.208,2.086s0.891,1.185,1.623,1.328c0.087,0.017,0.154,0.084,0.171,0.173   c0.144,0.73,0.641,1.336,1.328,1.621c0.688,0.284,1.468,0.207,2.086-0.208c0.073-0.05,0.169-0.052,0.244,0   C53.994,58.872,54.425,59,54.858,59c0.287,0,0.575-0.057,0.85-0.17c0.688-0.285,1.185-0.891,1.328-1.623   c0.017-0.087,0.084-0.154,0.173-0.171c0.73-0.144,1.336-0.641,1.621-1.328s0.207-1.468-0.208-2.086   C58.572,53.548,58.572,53.452,58.622,53.378z M56.962,54.737c0.054,0.08,0.041,0.156,0.021,0.205   c-0.021,0.05-0.064,0.112-0.158,0.131c-0.891,0.173-1.578,0.86-1.751,1.749c-0.019,0.096-0.081,0.14-0.131,0.16   s-0.124,0.034-0.205-0.021c-0.376-0.253-0.807-0.379-1.237-0.379s-0.861,0.126-1.237,0.379c-0.08,0.055-0.156,0.042-0.205,0.021   c-0.05-0.021-0.112-0.064-0.131-0.158c-0.173-0.891-0.86-1.578-1.749-1.751c-0.096-0.019-0.14-0.081-0.16-0.131   c-0.021-0.049-0.033-0.125,0.021-0.205c0.505-0.752,0.505-1.723,0-2.475c-0.054-0.08-0.041-0.156-0.021-0.205   c0.021-0.05,0.064-0.112,0.158-0.131c0.891-0.173,1.578-0.86,1.751-1.749c0.019-0.096,0.081-0.14,0.131-0.16   c0.049-0.021,0.124-0.034,0.205,0.021c0.752,0.506,1.723,0.506,2.475,0c0.081-0.055,0.156-0.04,0.205-0.021   c0.05,0.021,0.112,0.064,0.131,0.158c0.173,0.891,0.86,1.578,1.749,1.751c0.096,0.019,0.14,0.081,0.16,0.131   c0.021,0.049,0.033,0.125-0.021,0.205C56.457,53.015,56.457,53.985,56.962,54.737z"/><path d="M53.5,44c-0.906,0-1.808,0.133-2.69,0.396L38.415,32l12.396-12.396c1.86,0.553,3.817,0.522,5.7-0.095   c2.827-0.929,5.07-3.172,5.999-6c0.687-2.09,0.647-4.275-0.112-6.318l-0.543-1.46l-6.647,6.647c-0.391,0.391-1.023,0.391-1.414,0   l-2.172-2.172c-0.39-0.39-0.39-1.024,0-1.414l6.647-6.647l-1.46-0.543c-2.044-0.76-4.228-0.799-6.319-0.112   c-2.827,0.929-5.07,3.172-5.999,6c-0.617,1.881-0.648,3.838-0.095,5.699L32,25.585L19.604,13.19C19.867,12.308,20,11.406,20,10.5   C20,5.262,15.738,1,10.5,1S1,5.262,1,10.5S5.262,20,10.5,20c0.906,0,1.808-0.133,2.69-0.396L25.585,32L13.189,44.396   c-1.86-0.553-3.817-0.523-5.7,0.095c-2.827,0.929-5.07,3.172-5.999,6c-0.687,2.09-0.647,4.275,0.112,6.318l0.543,1.46l6.647-6.647   c0.391-0.391,1.023-0.391,1.414,0l2.172,2.172c0.39,0.39,0.39,1.024,0,1.414l-6.647,6.647l1.46,0.543   c1.075,0.399,2.189,0.6,3.309,0.6c1.008,0,2.02-0.162,3.011-0.487c2.827-0.929,5.07-3.172,5.999-6   c0.617-1.881,0.648-3.838,0.095-5.699L32,38.415L44.396,50.81C44.133,51.692,44,52.594,44,53.5c0,5.238,4.262,9.5,9.5,9.5   s9.5-4.262,9.5-9.5S58.738,44,53.5,44z M13.713,17.299l-0.602,0.224C12.259,17.84,11.38,18,10.5,18C6.364,18,3,14.636,3,10.5   S6.364,3,10.5,3S18,6.364,18,10.5c0,0.88-0.16,1.759-0.478,2.611l-0.224,0.602L30.585,27L27,30.585L13.713,17.299z M17.299,50.287   l0.224,0.602c0.609,1.637,0.639,3.318,0.087,4.997c-0.731,2.227-2.497,3.992-4.723,4.724c-1.139,0.374-2.276,0.481-3.403,0.321   l4.31-4.31c0.566-0.566,0.879-1.32,0.879-2.121s-0.312-1.555-0.879-2.121l-2.172-2.172c-1.133-1.133-3.109-1.133-4.242,0   l-4.31,4.31c-0.159-1.126-0.053-2.265,0.321-3.402c0.731-2.227,2.497-3.992,4.723-4.724c1.679-0.551,3.361-0.523,4.998,0.087   l0.602,0.224L27,33.414L33.414,27l13.287-13.287l-0.224-0.602c-0.609-1.637-0.639-3.318-0.087-4.997   c0.731-2.227,2.497-3.992,4.723-4.724c1.139-0.373,2.277-0.481,3.403-0.321l-4.31,4.31c-0.566,0.566-0.879,1.32-0.879,2.121   s0.312,1.555,0.879,2.121l2.172,2.172c1.133,1.133,3.109,1.133,4.242,0l4.31-4.31c0.159,1.126,0.053,2.265-0.321,3.402   c-0.731,2.227-2.497,3.992-4.723,4.724c-1.679,0.551-3.36,0.523-4.998-0.087l-0.602-0.224L37,30.586L30.586,37L17.299,50.287z    M53.5,61c-4.136,0-7.5-3.364-7.5-7.5c0-0.88,0.16-1.759,0.478-2.611l0.224-0.602L33.415,37L37,33.415l13.287,13.287l0.602-0.224   C51.741,46.16,52.62,46,53.5,46c4.136,0,7.5,3.364,7.5,7.5S57.636,61,53.5,61z"/></g><text x="0" y="79" fill="#000000" font-size="5px" font-weight="bold" font-family="'Helvetica Neue', Helvetica, Arial-Unicode, Arial, Sans-serif">Created by Eucalyp</text><text x="0" y="84" fill="#000000" font-size="5px" font-weight="bold" font-family="'Helvetica Neue', Helvetica, Arial-Unicode, Arial, Sans-serif">from the Noun Project</text></svg>