<svg xmlns="http://www.w3.org/2000/svg" xmlns:xlink="http://www.w3.org/1999/xlink" version="1.1" x="0px" y="0px" viewBox="0 0 100 125" enable-background="new 0 0 100 100" xml:space="preserve"><path d="M88.587,84.848c-0.473,0-0.946-0.122-1.37-0.367L30.763,51.887c-0.848-0.49-1.37-1.394-1.37-2.373  c0-0.979,0.522-1.883,1.37-2.373l56.454-32.594c0.848-0.489,1.892-0.489,2.74,0c0.848,0.49,1.37,1.394,1.37,2.373v65.188  c0,0.979-0.522,1.883-1.37,2.373C89.533,84.726,89.06,84.848,88.587,84.848z M37.613,49.515l48.235,27.848V21.666L37.613,49.515z"/><line fill="none" stroke="#000000" stroke-width="5" stroke-linecap="round" stroke-miterlimit="10" x1="20.875" y1="14.808" x2="20.875" y2="84.221"/><text x="0" y="115" fill="#000000" font-size="5px" font-weight="bold" font-family="'Helvetica Neue', Helvetica, Arial-Unicode, Arial, Sans-serif">Created by Kathryn Olivieri</text><text x="0" y="120" fill="#000000" font-size="5px" font-weight="bold" font-family="'Helvetica Neue', Helvetica, Arial-Unicode, Arial, Sans-serif">from the Noun Project</text></svg>