<svg xmlns="http://www.w3.org/2000/svg" xmlns:xlink="http://www.w3.org/1999/xlink" version="1.1" x="0px" y="0px" viewBox="0 0 100 125" enable-background="new 0 0 100 100" xml:space="preserve"><path d="M15.983,84.906c-0.473,0-0.946-0.122-1.37-0.367c-0.848-0.49-1.37-1.394-1.37-2.373V16.978c0-0.979,0.522-1.883,1.37-2.373  c0.848-0.489,1.892-0.489,2.74,0l56.454,32.594c0.848,0.49,1.37,1.394,1.37,2.373c0,0.979-0.522,1.883-1.37,2.373L17.353,84.539  C16.929,84.784,16.456,84.906,15.983,84.906z M18.723,21.724V77.42l48.235-27.849L18.723,21.724z"/><line fill="none" stroke="#000000" stroke-width="5" stroke-linecap="round" stroke-miterlimit="10" x1="84.646" y1="14.866" x2="84.646" y2="84.278"/><text x="0" y="115" fill="#000000" font-size="5px" font-weight="bold" font-family="'Helvetica Neue', Helvetica, Arial-Unicode, Arial, Sans-serif">Created by Kathryn Olivieri</text><text x="0" y="120" fill="#000000" font-size="5px" font-weight="bold" font-family="'Helvetica Neue', Helvetica, Arial-Unicode, Arial, Sans-serif">from the Noun Project</text></svg>