<svg xmlns="http://www.w3.org/2000/svg" xmlns:xlink="http://www.w3.org/1999/xlink" version="1.1" x="0px" y="0px" viewBox="0 0 100 125" enable-background="new 0 0 100 100" xml:space="preserve"><path d="M60.416,84.848c-0.443,0-0.886-0.114-1.282-0.343L6.292,53.996c-0.794-0.458-1.282-1.305-1.282-2.221  c0-0.916,0.489-1.763,1.282-2.221l52.842-30.509c0.794-0.458,1.771-0.458,2.565,0c0.794,0.458,1.282,1.305,1.282,2.221v61.017  c0,0.916-0.489,1.763-1.282,2.221C61.302,84.734,60.859,84.848,60.416,84.848z M12.703,51.775l45.148,26.066V25.708L12.703,51.775z"/><g><path d="M93.396,19.045c-0.794-0.458-1.771-0.458-2.565,0l-23.209,13.4v5.923l21.927-12.66v52.133l-21.927-12.66v5.923l23.209,13.4   c0.397,0.229,0.839,0.343,1.282,0.343c0.443,0,0.886-0.114,1.282-0.343c0.794-0.458,1.282-1.305,1.282-2.221V21.266   C94.678,20.35,94.189,19.504,93.396,19.045z"/></g><text x="0" y="115" fill="#000000" font-size="5px" font-weight="bold" font-family="'Helvetica Neue', Helvetica, Arial-Unicode, Arial, Sans-serif">Created by Kathryn Olivieri</text><text x="0" y="120" fill="#000000" font-size="5px" font-weight="bold" font-family="'Helvetica Neue', Helvetica, Arial-Unicode, Arial, Sans-serif">from the Noun Project</text></svg>