<svg xmlns="http://www.w3.org/2000/svg" xmlns:xlink="http://www.w3.org/1999/xlink" version="1.1" x="0px" y="0px" viewBox="0 0 100 125" enable-background="new 0 0 100 100" xml:space="preserve"><path d="M37.619,84.505c-0.794-0.458-1.282-1.305-1.282-2.221V21.266c0-0.916,0.489-1.763,1.282-2.221  c0.794-0.458,1.771-0.458,2.565,0l52.842,30.509c0.794,0.458,1.282,1.305,1.282,2.221c0,0.916-0.489,1.763-1.282,2.221  L40.183,84.505c-0.397,0.229-0.839,0.343-1.282,0.343S38.016,84.734,37.619,84.505z M41.466,25.708v52.133l45.148-26.066  L41.466,25.708z"/><g><path d="M5.922,19.045c0.794-0.458,1.771-0.458,2.565,0l23.209,13.4v5.923L9.769,25.708v52.133l21.927-12.66v5.923l-23.209,13.4   c-0.397,0.229-0.839,0.343-1.282,0.343c-0.443,0-0.886-0.114-1.282-0.343C5.128,84.046,4.64,83.2,4.64,82.284V21.266   C4.64,20.35,5.128,19.504,5.922,19.045z"/></g><text x="0" y="115" fill="#000000" font-size="5px" font-weight="bold" font-family="'Helvetica Neue', Helvetica, Arial-Unicode, Arial, Sans-serif">Created by Kathryn Olivieri</text><text x="0" y="120" fill="#000000" font-size="5px" font-weight="bold" font-family="'Helvetica Neue', Helvetica, Arial-Unicode, Arial, Sans-serif">from the Noun Project</text></svg>