<?xml version="1.0" encoding="UTF-8" standalone="no"?>
<svg
   xmlns:dc="http://purl.org/dc/elements/1.1/"
   xmlns:cc="http://creativecommons.org/ns#"
   xmlns:rdf="http://www.w3.org/1999/02/22-rdf-syntax-ns#"
   xmlns:svg="http://www.w3.org/2000/svg"
   xmlns="http://www.w3.org/2000/svg"
   xmlns:sodipodi="http://sodipodi.sourceforge.net/DTD/sodipodi-0.dtd"
   xmlns:inkscape="http://www.inkscape.org/namespaces/inkscape"
   xml:space="preserve"
   enable-background="new 0 0 400 400"
   viewBox="0 0 367 250"
   height="250"
   width="367"
   y="0px"
   x="0px"
   id="Layer_1"
   version="1.1"
   inkscape:version="0.91 r13725"
   sodipodi:docname="datetime.svg"><sodipodi:namedview
     pagecolor="#ffffff"
     bordercolor="#666666"
     borderopacity="1"
     objecttolerance="10"
     gridtolerance="10"
     guidetolerance="10"
     inkscape:pageopacity="0"
     inkscape:pageshadow="2"
     inkscape:window-width="1536"
     inkscape:window-height="801"
     id="namedview9531"
     showgrid="false"
     inkscape:zoom="1.888"
     inkscape:cx="110.58132"
     inkscape:cy="214.30484"
     inkscape:window-x="-8"
     inkscape:window-y="-8"
     inkscape:window-maximized="1"
     inkscape:current-layer="Layer_1" /><metadata
     id="metadata101"><rdf:RDF><cc:Work
         rdf:about=""><dc:format>image/svg+xml</dc:format><dc:type
           rdf:resource="http://purl.org/dc/dcmitype/StillImage" /><dc:title></dc:title></cc:Work></rdf:RDF></metadata><defs
     id="defs99" /><g
     transform="translate(-25.994625,-118.13425)"
     id="g85"
     style="fill:#ffffff;fill-opacity:1"><path
       style="fill:#ffffff;fill-opacity:1"
       id="path87"
       d="m 212.338,214.682 -12.226,12.227 -9.495,9.494 -6.863,6.862 c -0.011,-0.044 -0.021,-0.076 -0.021,-0.076 0,0 -2.259,2.769 -6.391,1.66 0,0 0,0.023 0,0.037 l -17.64,-4.727 c -4.391,-1.179 -5.715,-5.671 -5.733,-5.731 l -4.74,-17.692 c -0.839,-3.141 0.553,-5.193 1.272,-6.002 l 7.223,-7.223 9.494,-9.494 12.306,-12.306 c 2.927,-2.926 -0.312,-4.452 -0.42,-4.503 -17.071,-4.231 -35.869,0.309 -49.213,13.651 -13.062,13.062 -17.685,31.353 -13.9,48.134 l -0.005,-0.001 c 0,0 1,4.635 -3.958,9.593 L 32.104,328.51 c -8.146,8.146 -8.146,21.354 10e-4,29.501 l 4.013,4.013 c 8.148,8.147 21.355,8.147 29.501,0 l 80.973,-80.972 c 3.729,-3.138 7.074,-3.115 8.138,-3.008 16.891,3.949 35.372,-0.641 48.539,-13.809 13.352,-13.351 17.889,-32.162 13.645,-49.24 -0.228,-0.416 -1.827,-3.063 -4.576,-0.313 z M 54.391,350.323 c -2.923,2.923 -7.663,2.923 -10.584,0 -2.924,-2.923 -2.924,-7.662 0,-10.585 2.921,-2.923 7.661,-2.923 10.584,0 2.923,2.922 2.923,7.662 0,10.585 z" /><path
       style="fill:#ffffff;fill-opacity:1"
       id="path89"
       d="m 390.354,186.458 -187.263,0 c -0.929,0 -1.818,0.369 -2.475,1.025 l -11.523,11.523 -17.388,-4.66 -15.938,15.939 5.833,21.77 21.77,5.834 15.938,-15.938 -4.916,-18.347 10.147,-10.147 185.814,0 c 1.933,0 3.5,-1.567 3.5,-3.5 0,-1.933 -1.566,-3.499 -3.499,-3.499 z m -212.817,40.271 c -5.858,0 -10.61,-4.75 -10.61,-10.61 0,-5.859 4.752,-10.609 10.61,-10.609 5.86,0 10.61,4.75 10.61,10.609 0,5.86 -4.75,10.609 -10.61,10.61 z" /></g><g
     style="fill:#ffffff;fill-opacity:1"
     transform="matrix(1,0,0,0.65098339,-24.709041,-126.07237)"
     id="g51"><g
       style="fill:#ffffff;fill-opacity:1"
       id="VGM4vC_2_" /><g
       id="g10702"
       transform="translate(-8.6132812,234.39598)"
       style="fill:#ffffff;fill-opacity:1"><path
         id="path53"
         transform="matrix(1,0,0,1.5361375,24.709041,193.6645)"
         d="m 14.566406,-151.58789 c -3.288,0 -5.9531248,1.70836 -5.9531248,3.81641 l 0,66.275384 c 0,2.107409 2.6653858,3.857796 5.9531248,3.816406 l 79.433594,0 0,-6.908203 -79.386719,0 0,-59.999997 355.640999,0 0,59.999997 -185.15272,0 0,6.908203 191.15235,0 -0.28711,-73.77148 -112.71289,-0.13672 z"
         style="fill:#ffffff;fill-opacity:1"
         inkscape:connector-curvature="0"
         sodipodi:nodetypes="sssscccccccccccs" /></g></g><g
     style="font-style:italic;font-variant:normal;font-weight:bold;font-stretch:normal;font-size:40px;line-height:125%;font-family:'Ubuntu Mono';-inkscape-font-specification:'Ubuntu Mono Bold Italic';letter-spacing:0px;word-spacing:0px;fill:#ffffff;fill-opacity:1;stroke:none;stroke-width:1px;stroke-linecap:butt;stroke-linejoin:miter;stroke-opacity:1"
     id="text13043"
     transform="matrix(0.89342023,0,0,0.89342023,71.508228,98.025104)"><path
       d="m -51.607626,-86.231018 q 1.6,0 2.84,0.48 1.24,0.44 2.08,1.24 0.84,0.8 1.28,1.84 0.44,1.04 0.44,2.24 0,1.76 -0.68,3.2 -0.68,1.44 -1.8,2.68 -1.08,1.2 -2.52,2.28 -1.44,1.08 -2.96,2.16 -2.32,1.6 -3.68,2.8 -1.32,1.16 -2,2.32 l 11.04,0 -0.96,4.08 -16.04,0 q 0.24,-2.12 0.92,-3.76 0.72,-1.68 1.8,-3.04 1.08,-1.36 2.48,-2.52 1.4,-1.2 3.08,-2.4 1.72,-1.24 2.92,-2.16 1.24,-0.96 2,-1.72 0.76,-0.8 1.12,-1.52 0.36,-0.72 0.36,-1.52 0,-1.08 -0.64,-1.72 -0.64,-0.68 -2.08,-0.68 -1.44,0 -3.04,0.64 -1.56,0.6 -3.08,1.76 l -1.6,-3.56 q 2.08,-1.64 4.32,-2.36 2.24,-0.76 4.4,-0.76 z"
       id="path13048"
       inkscape:connector-curvature="0"
       style="fill:#ffffff;fill-opacity:1" /><path
       d="m -31.567626,-86.231018 q 3.2,0 5,2.08 1.8,2.08 1.8,5.6 0,1.56 -0.24,3.52 -0.24,1.96 -0.8,4 -0.56,2 -1.48,3.92 -0.88,1.92 -2.2,3.44 -1.28,1.48 -3.04,2.4 -1.76,0.88 -4,0.88 -1.6,0 -2.88,-0.52 -1.24,-0.56 -2.12,-1.56 -0.88,-1.04 -1.36,-2.44 -0.48,-1.4 -0.48,-3.16 0,-1.56 0.24,-3.52 0.24,-1.96 0.8,-3.96 0.56,-2.04 1.44,-3.96 0.92,-1.92 2.2,-3.4 1.32,-1.52 3.08,-2.4 1.76,-0.92 4.04,-0.92 z m -4.52,21.72 q 1.12,0 2.04,-0.64 0.96,-0.68 1.72,-1.76 0.76,-1.12 1.32,-2.52 0.56,-1.44 0.92,-2.96 0.4,-1.56 0.56,-3.08 0.2,-1.52 0.2,-2.8 0,-1.64 -0.6,-2.72 -0.56,-1.12 -2.08,-1.12 -1.12,0 -2.08,0.68 -0.96,0.64 -1.72,1.76 -0.76,1.08 -1.32,2.52 -0.56,1.44 -0.96,2.96 -0.36,1.52 -0.56,3.04 -0.16,1.52 -0.16,2.8 0,1.64 0.6,2.76 0.6,1.08 2.12,1.08 z m 1.72,-6.56 q -1,0 -1.44,-0.52 -0.44,-0.52 -0.44,-1.28 0,-0.88 0.28,-1.52 0.28,-0.68 0.68,-1.12 0.4,-0.44 0.88,-0.64 0.48,-0.24 0.88,-0.24 1,0 1.4,0.56 0.44,0.52 0.44,1.28 0,0.88 -0.28,1.56 -0.28,0.64 -0.68,1.08 -0.4,0.4 -0.88,0.64 -0.44,0.2 -0.84,0.2 z"
       id="path13050"
       inkscape:connector-curvature="0"
       style="fill:#ffffff;fill-opacity:1" /><path
       d="m -17.487626,-64.991018 3.44,-14.32 q -1.36,0.92 -2.92,1.68 -1.56,0.76 -2.6,1.12 l -1.16,-4 q 1.08,-0.36 2.28,-0.92 1.24,-0.56 2.48,-1.24 1.24,-0.68 2.4,-1.44 1.16,-0.76 2.08,-1.56 l 3.8799997,0 -4.9599997,20.68 4.9199997,0 -0.96,4.08 -15.0399997,0 0.96,-4.08 5.2,0 z"
       id="path13052"
       inkscape:connector-curvature="0"
       style="fill:#ffffff;fill-opacity:1" /><path
       d="m 8.3923737,-86.231018 q 1.6,0 2.8400003,0.48 1.24,0.44 2.08,1.24 0.84,0.8 1.28,1.84 0.44,1.04 0.44,2.24 0,1.76 -0.68,3.2 -0.68,1.44 -1.8,2.68 -1.08,1.2 -2.52,2.28 -1.4400003,1.08 -2.9600003,2.16 -2.32,1.6 -3.68,2.8 -1.32,1.16 -2,2.32 l 11.0400003,0 -0.96,4.08 -16.0400003,0 q 0.24,-2.12 0.92,-3.76 0.72,-1.68 1.8,-3.04 1.07999996,-1.36 2.47999996,-2.52 1.40000004,-1.2 3.08000004,-2.4 1.72,-1.24 2.92,-2.16 1.24,-0.96 2,-1.72 0.76,-0.8 1.12,-1.52 0.3600003,-0.72 0.3600003,-1.52 0,-1.08 -0.6400003,-1.72 -0.64,-0.68 -2.08,-0.68 -1.44,0 -3.04,0.64 -1.56,0.6 -3.08,1.76 l -1.60000004,-3.56 q 2.08000004,-1.64 4.32000004,-2.36 2.24,-0.76 4.4,-0.76 z"
       id="path13054"
       inkscape:connector-curvature="0"
       style="fill:#ffffff;fill-opacity:1" /><path
       d="m 18.512374,-54.311018 -5.16,0 18.48,-34.56 5.16,0 -18.48,34.56 z"
       id="path13056"
       inkscape:connector-curvature="0"
       style="fill:#ffffff;fill-opacity:1" /><path
       d="m 42.512374,-64.991018 3.44,-14.32 q -1.36,0.92 -2.92,1.68 -1.56,0.76 -2.6,1.12 l -1.16,-4 q 1.08,-0.36 2.28,-0.92 1.24,-0.56 2.48,-1.24 1.24,-0.68 2.4,-1.44 1.16,-0.76 2.08,-1.56 l 3.88,0 -4.96,20.68 4.92,0 -0.96,4.08 -15.04,0 0.96,-4.08 5.2,0 z"
       id="path13058"
       inkscape:connector-curvature="0"
       style="fill:#ffffff;fill-opacity:1" /><path
       d="m 68.392374,-86.231018 q 1.6,0 2.84,0.48 1.24,0.44 2.08,1.24 0.84,0.8 1.28,1.84 0.44,1.04 0.44,2.24 0,1.76 -0.68,3.2 -0.68,1.44 -1.8,2.68 -1.08,1.2 -2.52,2.28 -1.44,1.08 -2.96,2.16 -2.32,1.6 -3.68,2.8 -1.32,1.16 -2,2.32 l 11.04,0 -0.96,4.08 -16.04,0 q 0.24,-2.12 0.92,-3.76 0.72,-1.68 1.8,-3.04 1.08,-1.36 2.48,-2.52 1.4,-1.2 3.08,-2.4 1.72,-1.24 2.92,-2.16 1.24,-0.96 2,-1.72 0.76,-0.8 1.12,-1.52 0.36,-0.72 0.36,-1.52 0,-1.08 -0.64,-1.72 -0.64,-0.68 -2.08,-0.68 -1.44,0 -3.04,0.64 -1.56,0.6 -3.08,1.76 l -1.6,-3.56 q 2.08,-1.64 4.32,-2.36 2.24,-0.76 4.4,-0.76 z"
       id="path13060"
       inkscape:connector-curvature="0"
       style="fill:#ffffff;fill-opacity:1" /><path
       d="m 78.512374,-54.311018 -5.16,0 18.48,-34.56 5.16,0 -18.48,34.56 z"
       id="path13062"
       inkscape:connector-curvature="0"
       style="fill:#ffffff;fill-opacity:1" /><path
       d="m 102.51237,-64.991018 3.44,-14.32 q -1.36,0.92 -2.92,1.68 -1.56,0.76 -2.6,1.12 l -1.159996,-4 q 1.079996,-0.36 2.279996,-0.92 1.24,-0.56 2.48,-1.24 1.24,-0.68 2.4,-1.44 1.16,-0.76 2.08,-1.56 l 3.88,0 -4.96,20.68 4.92,0 -0.96,4.08 -15.039996,0 0.96,-4.08 5.199996,0 z"
       id="path13064"
       inkscape:connector-curvature="0"
       style="fill:#ffffff;fill-opacity:1" /><path
       d="m 128.39237,-86.231018 q 1.6,0 2.84,0.48 1.24,0.44 2.08,1.24 0.84,0.8 1.28,1.84 0.44,1.04 0.44,2.24 0,1.76 -0.68,3.2 -0.68,1.44 -1.8,2.68 -1.08,1.2 -2.52,2.28 -1.44,1.08 -2.96,2.16 -2.32,1.6 -3.68,2.8 -1.32,1.16 -2,2.32 l 11.04,0 -0.96,4.08 -16.04,0 q 0.24,-2.12 0.92,-3.76 0.72,-1.68 1.8,-3.04 1.08,-1.36 2.48,-2.52 1.4,-1.2 3.08,-2.4 1.72,-1.24 2.92,-2.16 1.24,-0.96 2,-1.72 0.76,-0.8 1.12,-1.52 0.36,-0.72 0.36,-1.52 0,-1.08 -0.64,-1.72 -0.64,-0.68 -2.08,-0.68 -1.44,0 -3.04,0.64 -1.56,0.6 -3.08,1.76 l -1.6,-3.56 q 2.08,-1.64 4.32,-2.36 2.24,-0.76 4.4,-0.76 z"
       id="path13066"
       inkscape:connector-curvature="0"
       style="fill:#ffffff;fill-opacity:1" /><path
       d="m 162.51237,-64.991018 3.44,-14.32 q -1.36,0.92 -2.92,1.68 -1.56,0.76 -2.6,1.12 l -1.16,-4 q 1.08,-0.36 2.28,-0.92 1.24,-0.56 2.48,-1.24 1.24,-0.68 2.4,-1.44 1.16,-0.76 2.08,-1.56 l 3.88,0 -4.96,20.68 4.92,0 -0.96,4.08 -15.04,0 0.96,-4.08 5.2,0 z"
       id="path13068"
       inkscape:connector-curvature="0"
       style="fill:#ffffff;fill-opacity:1" /><path
       d="m 188.39237,-86.231018 q 1.6,0 2.84,0.48 1.24,0.44 2.08,1.24 0.84,0.8 1.28,1.84 0.44,1.04 0.44,2.24 0,1.76 -0.68,3.2 -0.68,1.44 -1.8,2.68 -1.08,1.2 -2.52,2.28 -1.44,1.08 -2.96,2.16 -2.32,1.6 -3.68,2.8 -1.32,1.16 -2,2.32 l 11.04,0 -0.96,4.08 -16.04,0 q 0.24,-2.12 0.92,-3.76 0.72,-1.68 1.8,-3.04 1.08,-1.36 2.48,-2.52 1.4,-1.2 3.08,-2.4 1.72,-1.24 2.92,-2.16 1.24,-0.96 2,-1.72 0.76,-0.8 1.12,-1.52 0.36,-0.72 0.36,-1.52 0,-1.08 -0.64,-1.72 -0.64,-0.68 -2.08,-0.68 -1.44,0 -3.04,0.64 -1.56,0.6 -3.08,1.76 l -1.6,-3.56 q 2.08,-1.64 4.32,-2.36 2.24,-0.76 4.4,-0.76 z"
       id="path13070"
       inkscape:connector-curvature="0"
       style="fill:#ffffff;fill-opacity:1" /><path
       d="m 204.15237,-67.591018 q 1.4,0 2.28,0.8 0.92,0.8 0.92,2.36 0,0.88 -0.32,1.64 -0.32,0.72 -0.88,1.24 -0.52,0.52 -1.24,0.8 -0.68,0.32 -1.4,0.32 -1.4,0 -2.32,-0.8 -0.88,-0.8 -0.88,-2.4 0,-0.88 0.32,-1.6 0.32,-0.72 0.84,-1.24 0.56,-0.52 1.24,-0.8 0.72,-0.32 1.44,-0.32 z m 2.88,-12.12 q 1.4,0 2.28,0.8 0.92,0.8 0.92,2.36 0,0.88 -0.32,1.64 -0.32,0.72 -0.88,1.24 -0.52,0.52 -1.24,0.84 -0.68,0.28 -1.4,0.28 -1.4,0 -2.32,-0.8 -0.88,-0.8 -0.88,-2.4 0,-0.88 0.32,-1.6 0.32,-0.72 0.84,-1.24 0.56,-0.52 1.24,-0.8 0.72,-0.32 1.44,-0.32 z"
       id="path13072"
       inkscape:connector-curvature="0"
       style="fill:#ffffff;fill-opacity:1" /><path
       d="m 229.63237,-80.271018 q -2.24,2.08 -4.64,4.64 -2.36,2.52 -4.28,4.96 l 6.6,0 2.32,-9.6 z m 5.92,-5.4 -3.6,15 2.64,0 -0.96,3.92 -2.64,0 -1.4,5.84 -4.64,0 1.36,-5.84 -10.92,0 0.88,-3.68 q 1.12,-1.56 2.8,-3.52 1.72,-1.96 3.64,-4 1.96,-2.08 4.04,-4.08 2.08,-2 4,-3.64 l 4.8,0 z"
       id="path13074"
       inkscape:connector-curvature="0"
       style="fill:#ffffff;fill-opacity:1" /><path
       d="m 255.47237,-81.871018 q -2.08,0 -4.04,0.28 -1.96,0.28 -3.64,1 -1.68,0.72 -3.04,2.04 -1.32,1.32 -2.16,3.4 1.28,-0.76 2.64,-1.04 1.4,-0.32 2.4,-0.32 1.32,0 2.44,0.44 1.16,0.4 2,1.24 0.88,0.8 1.36,2.04 0.52,1.2 0.52,2.84 0,2.32 -0.76,4.12 -0.76,1.76 -2.04,3 -1.28,1.2 -3,1.84 -1.68,0.6 -3.56,0.6 -1.64,0 -3.08,-0.56 -1.44,-0.56 -2.48,-1.64 -1.04,-1.12 -1.64,-2.72 -0.6,-1.64 -0.6,-3.76 0,-3.16 1.04,-6.16 1.08,-3.04 3.28,-5.4 2.24,-2.36 5.64,-3.76 3.44,-1.44 8.12,-1.44 0.2,0 0.56,0.04 0.4,0 0.6,0 l -0.56,3.92 z m -6.2,12.28 q 0,-0.96 -0.28,-1.56 -0.28,-0.64 -0.76,-1 -0.48,-0.36 -1.12,-0.52 -0.6,-0.16 -1.32,-0.16 -0.96,0 -1.96,0.24 -1,0.24 -1.92,0.6 -0.2,0.72 -0.32,1.48 -0.12,0.72 -0.12,1.52 0,0.92 0.2,1.76 0.24,0.84 0.68,1.48 0.44,0.6 1.08,0.96 0.68,0.36 1.6,0.36 1.92,0 3.08,-1.36 1.16,-1.4 1.16,-3.8 z"
       id="path13076"
       inkscape:connector-curvature="0"
       style="fill:#ffffff;fill-opacity:1" /><path
       d="m 264.15237,-67.591018 q 1.4,0 2.28,0.8 0.92,0.8 0.92,2.36 0,0.88 -0.32,1.64 -0.32,0.72 -0.88,1.24 -0.52,0.52 -1.24,0.8 -0.68,0.32 -1.4,0.32 -1.4,0 -2.32,-0.8 -0.88,-0.8 -0.88,-2.4 0,-0.88 0.32,-1.6 0.32,-0.72 0.84,-1.24 0.56,-0.52 1.24,-0.8 0.72,-0.32 1.44,-0.32 z m 2.88,-12.12 q 1.4,0 2.28,0.8 0.92,0.8 0.92,2.36 0,0.88 -0.32,1.64 -0.32,0.72 -0.88,1.24 -0.52,0.52 -1.24,0.84 -0.68,0.28 -1.4,0.28 -1.4,0 -2.32,-0.8 -0.88,-0.8 -0.88,-2.4 0,-0.88 0.32,-1.6 0.32,-0.72 0.84,-1.24 0.56,-0.52 1.24,-0.8 0.72,-0.32 1.44,-0.32 z"
       id="path13078"
       inkscape:connector-curvature="0"
       style="fill:#ffffff;fill-opacity:1" /><path
       d="m 289.63237,-80.271018 q -2.24,2.08 -4.64,4.64 -2.36,2.52 -4.28,4.96 l 6.6,0 2.32,-9.6 z m 5.92,-5.4 -3.6,15 2.64,0 -0.96,3.92 -2.64,0 -1.4,5.84 -4.64,0 1.36,-5.84 -10.92,0 0.88,-3.68 q 1.12,-1.56 2.8,-3.52 1.72,-1.96 3.64,-4 1.96,-2.08 4.04,-4.08 2.08,-2 4,-3.64 l 4.8,0 z"
       id="path13080"
       inkscape:connector-curvature="0"
       style="fill:#ffffff;fill-opacity:1" /><path
       d="m 296.91237,-66.031018 q 1.28,0.8 2.68,1.2 1.4,0.36 2.72,0.36 5.68,0 5.68,-4.32 0,-1.8 -2.12,-2.84 -2.08,-1.08 -6.92,-1.16 1.16,-3.4 2.2,-6.6 1.04,-3.24 1.84,-6.28 l 13,0 -0.96,4.08 -9.04,0 q -0.4,1.48 -0.84,2.88 -0.44,1.4 -0.8,2.32 2.2,0.2 3.8,0.84 1.6,0.6 2.64,1.56 1.04,0.96 1.56,2.2 0.52,1.24 0.52,2.6 0,4 -2.64,6.4 -2.64,2.4 -7.8,2.4 -1.92,0 -3.8,-0.4 -1.88,-0.4 -3.56,-1.28 l 1.84,-3.96 z"
       id="path13082"
       inkscape:connector-curvature="0"
       style="fill:#ffffff;fill-opacity:1" /></g></svg>