<?xml version="1.0" encoding="UTF-8" standalone="no"?>
<svg
   xmlns:dc="http://purl.org/dc/elements/1.1/"
   xmlns:cc="http://creativecommons.org/ns#"
   xmlns:rdf="http://www.w3.org/1999/02/22-rdf-syntax-ns#"
   xmlns:svg="http://www.w3.org/2000/svg"
   xmlns="http://www.w3.org/2000/svg"
   xmlns:sodipodi="http://sodipodi.sourceforge.net/DTD/sodipodi-0.dtd"
   xmlns:inkscape="http://www.inkscape.org/namespaces/inkscape"
   xml:space="preserve"
   enable-background="new 0 0 400 400"
   viewBox="0 0 367 250"
   height="250"
   width="367"
   y="0px"
   x="0px"
   id="Layer_1"
   version="1.1"
   inkscape:version="0.91 r13725"
   sodipodi:docname="date.svg"><sodipodi:namedview
     pagecolor="#ffffff"
     bordercolor="#666666"
     borderopacity="1"
     objecttolerance="10"
     gridtolerance="10"
     guidetolerance="10"
     inkscape:pageopacity="0"
     inkscape:pageshadow="2"
     inkscape:window-width="1536"
     inkscape:window-height="801"
     id="namedview9531"
     showgrid="false"
     inkscape:zoom="1.888"
     inkscape:cx="108.56873"
     inkscape:cy="214.30484"
     inkscape:window-x="-8"
     inkscape:window-y="-8"
     inkscape:window-maximized="1"
     inkscape:current-layer="Layer_1" /><metadata
     id="metadata101"><rdf:RDF><cc:Work
         rdf:about=""><dc:format>image/svg+xml</dc:format><dc:type
           rdf:resource="http://purl.org/dc/dcmitype/StillImage" /><dc:title></dc:title></cc:Work></rdf:RDF></metadata><defs
     id="defs99" /><g
     transform="translate(-25.994625,-118.13425)"
     id="g85"
     style="fill:#ffffff;fill-opacity:1"><path
       style="fill:#ffffff;fill-opacity:1"
       id="path87"
       d="m 212.338,214.682 -12.226,12.227 -9.495,9.494 -6.863,6.862 c -0.011,-0.044 -0.021,-0.076 -0.021,-0.076 0,0 -2.259,2.769 -6.391,1.66 0,0 0,0.023 0,0.037 l -17.64,-4.727 c -4.391,-1.179 -5.715,-5.671 -5.733,-5.731 l -4.74,-17.692 c -0.839,-3.141 0.553,-5.193 1.272,-6.002 l 7.223,-7.223 9.494,-9.494 12.306,-12.306 c 2.927,-2.926 -0.312,-4.452 -0.42,-4.503 -17.071,-4.231 -35.869,0.309 -49.213,13.651 -13.062,13.062 -17.685,31.353 -13.9,48.134 l -0.005,-0.001 c 0,0 1,4.635 -3.958,9.593 L 32.104,328.51 c -8.146,8.146 -8.146,21.354 10e-4,29.501 l 4.013,4.013 c 8.148,8.147 21.355,8.147 29.501,0 l 80.973,-80.972 c 3.729,-3.138 7.074,-3.115 8.138,-3.008 16.891,3.949 35.372,-0.641 48.539,-13.809 13.352,-13.351 17.889,-32.162 13.645,-49.24 -0.228,-0.416 -1.827,-3.063 -4.576,-0.313 z M 54.391,350.323 c -2.923,2.923 -7.663,2.923 -10.584,0 -2.924,-2.923 -2.924,-7.662 0,-10.585 2.921,-2.923 7.661,-2.923 10.584,0 2.923,2.922 2.923,7.662 0,10.585 z" /><path
       style="fill:#ffffff;fill-opacity:1"
       id="path89"
       d="m 390.354,186.458 -187.263,0 c -0.929,0 -1.818,0.369 -2.475,1.025 l -11.523,11.523 -17.388,-4.66 -15.938,15.939 5.833,21.77 21.77,5.834 15.938,-15.938 -4.916,-18.347 10.147,-10.147 185.814,0 c 1.933,0 3.5,-1.567 3.5,-3.5 0,-1.933 -1.566,-3.499 -3.499,-3.499 z m -212.817,40.271 c -5.858,0 -10.61,-4.75 -10.61,-10.61 0,-5.859 4.752,-10.609 10.61,-10.609 5.86,0 10.61,4.75 10.61,10.609 0,5.86 -4.75,10.609 -10.61,10.61 z" /></g><g
     style="fill:#ffffff;fill-opacity:1"
     transform="matrix(1,0,0,0.65098339,-24.709041,-126.07237)"
     id="g51"><g
       style="fill:#ffffff;fill-opacity:1"
       id="VGM4vC_2_" /><g
       id="g10702"
       transform="translate(-8.6132812,234.39598)"
       style="fill:#ffffff;fill-opacity:1"><path
         id="path53"
         transform="matrix(1,0,0,1.5361375,24.709041,193.6645)"
         d="m 14.566406,-151.58789 c -3.288,0 -5.9531248,1.70836 -5.9531248,3.81641 l 0,66.275384 c 0,2.107409 2.6653858,3.857796 5.9531248,3.816406 l 79.433594,0 0,-6.908203 -79.386719,0 0,-59.999997 355.640999,0 0,59.999997 -185.15272,0 0,6.908203 191.15235,0 -0.28711,-73.77148 -112.71289,-0.13672 z"
         style="fill:#ffffff;fill-opacity:1"
         inkscape:connector-curvature="0"
         sodipodi:nodetypes="sssscccccccccccs" /></g></g><g
     style="font-style:normal;font-weight:normal;font-size:40px;line-height:125%;font-family:sans-serif;letter-spacing:0px;word-spacing:0px;fill:#ffffff;fill-opacity:1;stroke:none;stroke-width:1px;stroke-linecap:butt;stroke-linejoin:miter;stroke-opacity:1"
     id="text11867"
     transform="matrix(1.2269596,0,0,1.2269596,22.020409,121.78139)"><path
       d="m 54.903999,-63.790054 12.675782,0 -1.074219,5.527343 -21.171875,0 1.09375,-5.566406 12.402344,-9.355469 q 2.03125,-1.5625 3.085937,-3.164062 1.074219,-1.601563 1.074219,-3.105469 0,-1.601562 -1.09375,-2.480469 -1.09375,-0.878906 -3.066406,-0.878906 -1.855469,0 -4.140625,0.742188 -2.285157,0.722656 -5.15625,2.246093 l 1.25,-6.191406 q 2.65625,-0.976562 5.214843,-1.445312 2.558594,-0.488282 5.058594,-0.488282 4.453125,0 7.011719,1.933594 2.558594,1.914063 2.558594,5.234375 0,2.851563 -1.5625,5.195313 -1.5625,2.34375 -6.875,6.328125 l -7.285157,5.46875 z"
       style="font-style:italic;font-variant:normal;font-weight:bold;font-stretch:normal;font-family:sans-serif;-inkscape-font-specification:'sans-serif Bold Italic';fill:#ffffff;fill-opacity:1"
       id="path11872"
       inkscape:connector-curvature="0" /><path
       d="m 84.786812,-62.813492 q 1.503906,0 2.65625,-0.898437 1.171875,-0.898438 1.953125,-2.636719 0.546875,-1.230469 0.996094,-2.792969 0.449218,-1.582031 0.839843,-3.730469 0.332032,-1.738281 0.507813,-3.203125 0.175781,-1.464843 0.175781,-2.5 0,-2.1875 -0.78125,-3.203125 -0.78125,-1.035156 -2.421875,-1.035156 -1.523437,0 -2.675781,0.878906 -1.152344,0.859375 -1.914063,2.636719 -0.585937,1.269531 -1.074218,2.890625 -0.46875,1.621094 -0.820313,3.535156 -0.332031,1.757813 -0.507812,3.261719 -0.175782,1.503906 -0.175782,2.539063 0,2.167968 0.800782,3.222656 0.800781,1.035156 2.441406,1.035156 z m 14.453125,-14.648437 q 0,3.886718 -1.074219,7.558593 -1.074219,3.671875 -3.007812,6.445313 -1.972657,2.851562 -4.765625,4.316406 -2.792969,1.445313 -6.230469,1.445313 -4.785156,0 -7.34375,-2.714844 -2.539063,-2.714844 -2.539063,-7.8125 0,-3.828125 1.054688,-7.5 1.074219,-3.691406 2.988281,-6.425781 2.011719,-2.871094 4.785156,-4.335938 2.773438,-1.464844 6.25,-1.464844 4.746094,0 7.304688,2.734375 2.578125,2.714844 2.578125,7.753907 z"
       style="font-style:italic;font-variant:normal;font-weight:bold;font-stretch:normal;font-family:sans-serif;-inkscape-font-specification:'sans-serif Bold Italic';fill:#ffffff;fill-opacity:1"
       id="path11874"
       inkscape:connector-curvature="0" /><path
       d="m 103.40009,-63.458023 6.64063,0 3.65234,-18.847656 -7.08984,1.40625 0.99609,-5.117188 7.05078,-1.40625 7.14844,0 -4.62891,23.964844 6.60157,0 -0.9961,5.195312 -20.41015,0 1.03515,-5.195312 z"
       style="font-style:italic;font-variant:normal;font-weight:bold;font-stretch:normal;font-family:sans-serif;-inkscape-font-specification:'sans-serif Bold Italic';fill:#ffffff;fill-opacity:1"
       id="path11876"
       inkscape:connector-curvature="0" /><path
       d="m 138.3415,-63.790054 12.67578,0 -1.07422,5.527343 -21.17187,0 1.09375,-5.566406 12.40234,-9.355469 q 2.03125,-1.5625 3.08594,-3.164062 1.07422,-1.601563 1.07422,-3.105469 0,-1.601562 -1.09375,-2.480469 -1.09375,-0.878906 -3.06641,-0.878906 -1.85547,0 -4.14062,0.742188 -2.28516,0.722656 -5.15625,2.246093 l 1.25,-6.191406 q 2.65625,-0.976562 5.21484,-1.445312 2.55859,-0.488282 5.05859,-0.488282 4.45313,0 7.01172,1.933594 2.5586,1.914063 2.5586,5.234375 0,2.851563 -1.5625,5.195313 -1.5625,2.34375 -6.875,6.328125 l -7.28516,5.46875 z"
       style="font-style:italic;font-variant:normal;font-weight:bold;font-stretch:normal;font-family:sans-serif;-inkscape-font-specification:'sans-serif Bold Italic';fill:#ffffff;fill-opacity:1"
       id="path11878"
       inkscape:connector-curvature="0" /><path
       d="m 169.10322,-87.422867 4.53125,0 -16.67969,32.871094 -4.53125,0 16.67969,-32.871094 z"
       style="font-style:italic;font-variant:normal;font-weight:bold;font-stretch:normal;font-family:sans-serif;-inkscape-font-specification:'sans-serif Bold Italic';fill:#ffffff;fill-opacity:1"
       id="path11880"
       inkscape:connector-curvature="0" /><path
       d="m 173.63447,-63.458023 6.64062,0 3.65235,-18.847656 -7.08985,1.40625 0.9961,-5.117188 7.05078,-1.40625 7.14844,0 -4.62891,23.964844 6.60156,0 -0.99609,5.195312 -20.41016,0 1.03516,-5.195312 z"
       style="font-style:italic;font-variant:normal;font-weight:bold;font-stretch:normal;font-family:sans-serif;-inkscape-font-specification:'sans-serif Bold Italic';fill:#ffffff;fill-opacity:1"
       id="path11882"
       inkscape:connector-curvature="0" /><path
       d="m 208.57587,-63.790054 12.67579,0 -1.07422,5.527343 -21.17188,0 1.09375,-5.566406 12.40235,-9.355469 q 2.03125,-1.5625 3.08593,-3.164062 1.07422,-1.601563 1.07422,-3.105469 0,-1.601562 -1.09375,-2.480469 -1.09375,-0.878906 -3.0664,-0.878906 -1.85547,0 -4.14063,0.742188 -2.28516,0.722656 -5.15625,2.246093 l 1.25,-6.191406 q 2.65625,-0.976562 5.21484,-1.445312 2.5586,-0.488282 5.0586,-0.488282 4.45312,0 7.01172,1.933594 2.55859,1.914063 2.55859,5.234375 0,2.851563 -1.5625,5.195313 -1.5625,2.34375 -6.875,6.328125 l -7.28516,5.46875 z"
       style="font-style:italic;font-variant:normal;font-weight:bold;font-stretch:normal;font-family:sans-serif;-inkscape-font-specification:'sans-serif Bold Italic';fill:#ffffff;fill-opacity:1"
       id="path11884"
       inkscape:connector-curvature="0" /><path
       d="m 239.33759,-87.422867 4.53125,0 -16.67968,32.871094 -4.53125,0 16.67968,-32.871094 z"
       style="font-style:italic;font-variant:normal;font-weight:bold;font-stretch:normal;font-family:sans-serif;-inkscape-font-specification:'sans-serif Bold Italic';fill:#ffffff;fill-opacity:1"
       id="path11886"
       inkscape:connector-curvature="0" /><path
       d="m 261.50556,-52.540054 0,3.710937 -20.78125,0 0,-3.710937 20.78125,0 z"
       style="font-style:italic;font-variant:normal;font-weight:bold;font-stretch:normal;font-family:sans-serif;-inkscape-font-specification:'sans-serif Bold Italic';fill:#ffffff;fill-opacity:1"
       id="path11888"
       inkscape:connector-curvature="0" /></g></svg>