<?xml version="1.0" encoding="UTF-8" standalone="no"?>
<!-- Generator: Adobe Illustrator 16.0.0, SVG Export Plug-In . SVG Version: 6.00 Build 0)  -->

<svg
   xmlns:dc="http://purl.org/dc/elements/1.1/"
   xmlns:cc="http://creativecommons.org/ns#"
   xmlns:rdf="http://www.w3.org/1999/02/22-rdf-syntax-ns#"
   xmlns:svg="http://www.w3.org/2000/svg"
   xmlns="http://www.w3.org/2000/svg"
   xmlns:sodipodi="http://sodipodi.sourceforge.net/DTD/sodipodi-0.dtd"
   xmlns:inkscape="http://www.inkscape.org/namespaces/inkscape"
   version="1.1"
   id="Layer_1"
   x="0px"
   y="0px"
   width="512px"
   height="512px"
   viewBox="0 0 512 512"
   enable-background="new 0 0 512 512"
   xml:space="preserve"
   inkscape:version="0.91 r13725"
   sodipodi:docname="static.svg"><metadata
     id="metadata4143"><rdf:RDF><cc:Work
         rdf:about=""><dc:format>image/svg+xml</dc:format><dc:type
           rdf:resource="http://purl.org/dc/dcmitype/StillImage" /><dc:title></dc:title></cc:Work></rdf:RDF></metadata><defs
     id="defs4141" /><sodipodi:namedview
     pagecolor="#ffffff"
     bordercolor="#666666"
     borderopacity="1"
     objecttolerance="10"
     gridtolerance="10"
     guidetolerance="10"
     inkscape:pageopacity="0"
     inkscape:pageshadow="2"
     inkscape:window-width="1536"
     inkscape:window-height="801"
     id="namedview4139"
     showgrid="false"
     inkscape:zoom="0.61914063"
     inkscape:cx="-66.169966"
     inkscape:cy="330.47103"
     inkscape:window-x="-8"
     inkscape:window-y="-8"
     inkscape:window-maximized="1"
     inkscape:current-layer="Layer_1" /><g
     id="g12626"
     transform="translate(5.7809049e-7,44.453996)"
     style="fill:#ffffff;fill-opacity:1"><g
       id="flowRoot11395"
       style="font-style:normal;font-variant:normal;font-weight:bold;font-stretch:normal;font-size:90px;line-height:125%;font-family:'Ubuntu Mono';-inkscape-font-specification:'Ubuntu Mono Bold';letter-spacing:0px;word-spacing:0px;fill:#ffffff;fill-opacity:1;stroke:none;stroke-width:1px;stroke-linecap:butt;stroke-linejoin:miter;stroke-opacity:1"
       transform="matrix(1.0460251,0,0,1.0460251,5.2738295,-6.7791361)"><path
         inkscape:connector-curvature="0"
         id="path12557"
         style="font-size:120px;fill:#ffffff;fill-opacity:1"
         d="m 42.894219,89.452812 q 0,3.48 -1.2,6.600001 -1.08,3 -3.24,5.399997 -2.04,2.4 -5.16,3.84 -3,1.32 -6.72,1.32 -3.84,0 -6.84,-1.32 -3,-1.44 -5.16,-3.84 -2.04,-2.399997 -3.24,-5.399997 -1.08,-3.120001 -1.08,-6.600001 0,-3.36 1.08,-6.479999 1.2,-3.120001 3.24,-5.520001 2.16,-2.399999 5.16,-3.72 3,-1.44 6.84,-1.44 3.72,0 6.72,1.44 3.12,1.320001 5.16,3.72 2.16,2.4 3.24,5.520001 1.2,3.119999 1.2,6.479999 z" /><path
         inkscape:connector-curvature="0"
         id="path12559"
         style="font-size:120px;fill:#ffffff;fill-opacity:1"
         d="m 111.17422,52.852812 0,74.279998 -14.760001,0 0,-32.759998 -19.68,0 0,32.759998 -14.76,0 0,-74.279998 14.76,0 0,29.28 19.68,0 0,-29.28 14.760001,0 z" /><path
         inkscape:connector-curvature="0"
         id="path12561"
         style="font-size:120px;fill:#ffffff;fill-opacity:1"
         d="m 120.29422,99.412812 q 0,-7.439999 2.28,-13.08 2.28,-5.639999 6,-9.359999 3.72,-3.840001 8.52,-5.760001 4.8,-1.92 9.84,-1.92 12.48,0 18.96,7.44 6.48,7.320001 6.48,21.48 0,1.44 -0.12,2.999998 0,1.56 -0.12,2.52 l -36.6,0 q 0,5.52 4.56,8.76 4.56,3.12 11.76,3.12 4.44,0 8.4,-0.96 4.08,-0.96 6.84,-1.92 l 2.04,12.6 q -3.84,1.32 -8.16,2.16 -4.32,0.96 -9.72,0.96 -7.2,0 -12.96,-1.8 -5.64,-1.92 -9.72,-5.52 -3.96,-3.72 -6.12,-9.12 -2.16,-5.4 -2.16,-12.599998 z m 37.8,-5.879999 q 0,-2.28 -0.6,-4.320001 -0.6,-2.16 -1.92,-3.84 -1.32,-1.679999 -3.36,-2.64 -2.04,-1.08 -5.04,-1.08 -2.88,0 -5.04,0.960001 -2.04,0.959999 -3.48,2.64 -1.32,1.679999 -2.16,3.84 -0.72,2.16 -0.96,4.44 l 22.56,0 z" /><path
         inkscape:connector-curvature="0"
         id="path12563"
         style="font-size:120px;fill:#ffffff;fill-opacity:1"
         d="m 206.69422,116.57281 q 2.4,0 4.68,0 2.28,-0.12 3.96,-0.36 l 0,-12.96 q -1.44,-0.24 -3.48,-0.36 -2.04,-0.24 -3.72,-0.24 -2.28,0 -4.44,0.36 -2.16,0.24 -3.84,0.96 -1.56,0.72 -2.52,2.04 -0.96,1.32 -0.96,3.48 0,3.84 2.88,5.52 2.88,1.56 7.44,1.56 z m -1.32,-47.279998 q 6.96,0 11.52,1.680001 4.68,1.56 7.44,4.56 2.76,2.879999 3.96,7.199999 1.2,4.2 1.2,9.480001 l 0,33.599997 q -3.24,0.72 -9.6,1.68 -6.36,0.96 -14.28,0.96 -5.4,0 -9.84,-0.96 -4.32,-0.96 -7.44,-3.12 -3.12,-2.28 -4.8,-5.76 -1.68,-3.6 -1.68,-8.76 0,-4.92 1.92,-8.28 1.92,-3.359998 5.16,-5.399998 3.24,-2.04 7.44,-2.88 4.2,-0.959999 8.76,-0.959999 5.76,0 10.2,0.959999 l 0,-1.8 q 0,-4.2 -2.64,-6.959999 -2.64,-2.880001 -9.12,-2.880001 -4.2,0 -8.16,0.600001 -3.84,0.599999 -6.24,1.44 l -2.04,-11.88 q 2.76,-0.960001 7.8,-1.680001 5.04,-0.84 10.44,-0.84 z" /><path
         inkscape:connector-curvature="0"
         id="path12565"
         style="font-size:120px;fill:#ffffff;fill-opacity:1"
         d="m 254.93422,98.572812 q 0,7.559998 2.76,12.359998 2.88,4.8 9.12,4.8 1.8,0 3.36,-0.12 1.56,-0.12 3.24,-0.36 l 0,-30.719997 q -1.68,-0.960001 -3.84,-1.56 -2.16,-0.72 -4.56,-0.72 -5.28,0 -7.68,4.199999 -2.4,4.200001 -2.4,12.12 z m 33.24,26.879998 q -4.08,1.32 -9.96,2.16 -5.88,0.84 -11.52,0.84 -13.2,0 -20.04,-7.8 -6.72,-7.8 -6.72,-21.359998 0,-13.8 5.64,-21.72 5.76,-8.039999 16.92,-8.039999 3,0 5.88,0.72 2.88,0.599999 5.04,1.799999 l 0,-25.68 14.76,-2.52 0,81.599998 z" /><path
         inkscape:connector-curvature="0"
         id="path12567"
         style="font-size:120px;fill:#ffffff;fill-opacity:1"
         d="m 330.65422,54.532813 q 0,4.319999 -2.76,6.839999 -2.76,2.52 -6.6,2.52 -3.84,0 -6.6,-2.52 -2.64,-2.52 -2.64,-6.839999 0,-4.440001 2.64,-6.960001 2.76,-2.52 6.6,-2.52 3.84,0 6.6,2.52 2.76,2.52 2.76,6.960001 z m 21.96,70.199997 q -4.56,2.16 -8.64,2.88 -3.96,0.84 -7.32,0.84 -5.76,0 -9.72,-1.68 -3.84,-1.68 -6.24,-4.8 -2.28,-3.24 -3.24,-7.8 -0.96,-4.56 -0.96,-10.44 l 0,-20.759997 -15.6,0 0,-12.240001 30.36,0 0,34.919998 q 0,5.04 1.8,7.56 1.92,2.4 6.24,2.4 2.04,0 4.92,-0.48 2.88,-0.6 6.48,-2.28 l 1.92,11.88 z" /><path
         inkscape:connector-curvature="0"
         id="path12569"
         style="font-size:120px;fill:#ffffff;fill-opacity:1"
         d="m 364.13422,72.532813 q 3.96,-1.080001 9.72,-2.040001 5.88,-0.959999 12.72,-0.959999 6.72,0 11.16,1.919999 4.44,1.800001 6.96,5.28 2.64,3.360001 3.72,8.160001 1.08,4.679999 1.08,10.44 l 0,31.799997 -14.76,0 0,-29.879997 q 0,-7.92 -1.8,-11.400001 -1.8,-3.479999 -7.32,-3.479999 -1.68,0 -3.36,0.119999 -1.56,0.120001 -3.36,0.36 l 0,44.279998 -14.76,0 0,-54.599997 z" /><path
         inkscape:connector-curvature="0"
         id="path12571"
         style="font-size:120px;fill:#ffffff;fill-opacity:1"
         d="m 435.53422,97.132812 q 0,6.959998 2.52,10.679998 2.52,3.6 7.92,3.6 2.4,0 4.44,-0.6 2.16,-0.6 3.84,-1.56 l 0,-27.119998 q -1.68,-0.36 -3,-0.48 -1.32,-0.119999 -2.76,-0.119999 -12.96,0 -12.96,15.599999 z m 33.6,23.159998 q 0,13.8 -6.72,20.4 -6.6,6.6 -21.36,6.6 -5.28,0 -10.2,-1.08 -4.8,-1.08 -9.24,-2.52 l 2.76,-12.48 q 3.48,1.32 7.32,2.4 3.84,1.2 9.6,1.2 3.84,0 6.36,-0.96 2.52,-0.84 3.96,-2.4 1.44,-1.56 2.04,-3.72 0.6,-2.04 0.6,-4.44 l 0,-2.28 q -3.12,1.2 -5.76,1.8 -2.52,0.6 -5.52,0.6 -11.04,0 -16.8,-6.96 -5.64,-6.96 -5.64,-19.319998 0,-13.92 7.68,-20.759999 7.68,-6.84 20.88,-6.84 9.24,0 20.04,3 l 0,47.759997 z" /></g><g
       id="flowRoot11395-0"
       style="font-style:normal;font-variant:normal;font-weight:bold;font-stretch:normal;font-size:100px;line-height:125%;font-family:'Ubuntu Mono';-inkscape-font-specification:'Ubuntu Mono Bold';letter-spacing:0px;word-spacing:0px;fill:#ffffff;fill-opacity:1;stroke:none;stroke-width:1px;stroke-linecap:butt;stroke-linejoin:miter;stroke-opacity:1"
       transform="matrix(1.0460251,0,0,1.0460251,16.658767,109.91735)"><path
         inkscape:connector-curvature="0"
         id="path12574"
         style="font-size:100px;fill:#ffffff;fill-opacity:1"
         d="m 35.174219,74.982812 q 0,2.9 -1,5.5 -0.9,2.5 -2.7,4.5 -1.7,2 -4.3,3.2 -2.5,1.100001 -5.6,1.100001 -3.2,0 -5.7,-1.100001 -2.5,-1.2 -4.3,-3.2 -1.7000002,-2 -2.7000002,-4.5 -0.9,-2.6 -0.9,-5.5 0,-2.8 0.9,-5.399999 1,-2.600001 2.7000002,-4.600001 1.8,-1.999999 4.3,-3.1 2.5,-1.2 5.7,-1.2 3.1,0 5.6,1.2 2.6,1.100001 4.3,3.1 1.8,2 2.7,4.600001 1,2.599999 1,5.399999 z" /><path
         inkscape:connector-curvature="0"
         id="path12576"
         style="font-size:100px;fill:#ffffff;fill-opacity:1"
         d="m 92.074219,44.482813 0,61.899997 -12.3,0 0,-27.299997 -16.4,0 0,27.299997 -12.3,0 0,-61.899997 12.3,0 0,24.399999 16.4,0 0,-24.399999 12.3,0 z" /><path
         inkscape:connector-curvature="0"
         id="path12578"
         style="font-size:100px;fill:#ffffff;fill-opacity:1"
         d="m 99.674219,83.282813 q 0,-6.2 1.900001,-10.900001 1.9,-4.7 5,-7.799999 3.1,-3.200001 7.1,-4.800001 4,-1.599999 8.2,-1.599999 10.4,0 15.8,6.199999 5.4,6.1 5.4,17.900001 0,1.199999 -0.1,2.5 0,1.3 -0.1,2.099999 l -30.5,0 q 0,4.6 3.8,7.3 3.8,2.600001 9.8,2.600001 3.7,0 7,-0.800001 3.4,-0.8 5.7,-1.6 l 1.7,10.499998 q -3.2,1.1 -6.8,1.8 -3.6,0.8 -8.1,0.8 -6,0 -10.8,-1.5 -4.7,-1.6 -8.1,-4.6 -3.3,-3.099997 -5.1,-7.599997 -1.800001,-4.5 -1.800001,-10.5 z m 31.500001,-4.900001 q 0,-1.9 -0.5,-3.599999 -0.5,-1.800001 -1.6,-3.200001 -1.1,-1.399999 -2.8,-2.2 -1.7,-0.9 -4.2,-0.9 -2.4,0 -4.2,0.800001 -1.7,0.8 -2.9,2.199999 -1.1,1.4 -1.8,3.2 -0.6,1.8 -0.8,3.7 l 18.8,0 z" /><path
         inkscape:connector-curvature="0"
         id="path12580"
         style="font-size:100px;fill:#ffffff;fill-opacity:1"
         d="m 171.67422,97.582813 q 2,0 3.9,0 1.9,-0.100001 3.3,-0.3 l 0,-10.800001 q -1.2,-0.199999 -2.9,-0.3 -1.7,-0.2 -3.1,-0.2 -1.9,0 -3.7,0.300001 -1.8,0.199999 -3.2,0.8 -1.3,0.599999 -2.1,1.7 -0.8,1.099999 -0.8,2.899999 0,3.2 2.4,4.600001 2.4,1.3 6.2,1.3 z m -1.1,-39.4 q 5.8,0 9.6,1.399999 3.9,1.3 6.2,3.8 2.3,2.400001 3.3,6 1,3.5 1,7.900001 l 0,27.999997 q -2.7,0.6 -8,1.4 -5.3,0.8 -11.9,0.8 -4.5,0 -8.2,-0.8 -3.6,-0.8 -6.2,-2.6 -2.6,-1.9 -4,-4.799997 -1.4,-3 -1.4,-7.300001 0,-4.1 1.6,-6.899999 1.6,-2.8 4.3,-4.5 2.7,-1.700001 6.2,-2.400001 3.5,-0.8 7.3,-0.8 4.8,0 8.5,0.8 l 0,-1.5 q 0,-3.5 -2.2,-5.8 -2.2,-2.4 -7.6,-2.4 -3.5,0 -6.8,0.5 -3.2,0.5 -5.2,1.200001 l -1.7,-9.900001 q 2.3,-0.8 6.5,-1.4 4.2,-0.699999 8.7,-0.699999 z" /><path
         inkscape:connector-curvature="0"
         id="path12582"
         style="font-size:100px;fill:#ffffff;fill-opacity:1"
         d="m 211.87422,82.582813 q 0,6.299999 2.3,10.299999 2.4,4 7.6,4 1.5,0 2.8,-0.1 1.3,-0.100001 2.7,-0.300001 l 0,-25.6 q -1.4,-0.799999 -3.2,-1.299999 -1.8,-0.600001 -3.8,-0.600001 -4.4,0 -6.4,3.5 -2,3.5 -2,10.100001 z m 27.7,22.399997 q -3.4,1.1 -8.3,1.8 -4.9,0.7 -9.6,0.7 -11,0 -16.7,-6.5 -5.6,-6.499998 -5.6,-17.799998 0,-11.5 4.7,-18.1 4.8,-6.7 14.1,-6.7 2.5,0 4.9,0.6 2.4,0.5 4.2,1.500001 l 0,-21.400001 12.3,-2.1 0,67.999998 z" /><path
         inkscape:connector-curvature="0"
         id="path12584"
         style="font-size:100px;fill:#ffffff;fill-opacity:1"
         d="m 274.97422,45.882812 q 0,3.6 -2.3,5.7 -2.3,2.1 -5.5,2.1 -3.2,0 -5.5,-2.1 -2.2,-2.1 -2.2,-5.7 0,-3.7 2.2,-5.799999 2.3,-2.100001 5.5,-2.100001 3.2,0 5.5,2.100001 2.3,2.099999 2.3,5.799999 z m 18.3,58.499998 q -3.8,1.8 -7.2,2.4 -3.3,0.7 -6.1,0.7 -4.8,0 -8.1,-1.4 -3.2,-1.4 -5.2,-4 -1.9,-2.699998 -2.7,-6.499997 -0.8,-3.8 -0.8,-8.700001 l 0,-17.299999 -13,0 0,-10.200001 25.3,0 0,29.1 q 0,4.2 1.5,6.300001 1.6,2 5.2,2 1.7,0 4.1,-0.400001 2.4,-0.5 5.4,-1.9 l 1.6,9.899998 z" /><path
         inkscape:connector-curvature="0"
         id="path12586"
         style="font-size:100px;fill:#ffffff;fill-opacity:1"
         d="m 302.87422,60.882812 q 3.3,-0.9 8.1,-1.7 4.9,-0.8 10.6,-0.8 5.6,0 9.3,1.6 3.7,1.500001 5.8,4.4 2.2,2.8 3.1,6.800001 0.9,3.9 0.9,8.699999 l 0,26.499998 -12.3,0 0,-24.899998 q 0,-6.6 -1.5,-9.5 -1.5,-2.899999 -6.1,-2.899999 -1.4,0 -2.8,0.1 -1.3,0.100001 -2.8,0.3 l 0,36.899997 -12.3,0 0,-45.499997 z" /><path
         inkscape:connector-curvature="0"
         id="path12588"
         style="font-size:100px;fill:#ffffff;fill-opacity:1"
         d="m 362.37422,81.382812 q 0,5.8 2.1,8.900001 2.1,3 6.6,3 2,0 3.7,-0.5 1.8,-0.5 3.2,-1.300001 l 0,-22.6 q -1.4,-0.299999 -2.5,-0.4 -1.1,-0.1 -2.3,-0.1 -10.8,0 -10.8,13 z m 28,19.299998 q 0,11.5 -5.6,17 -5.5,5.5 -17.8,5.5 -4.4,0 -8.5,-0.9 -4,-0.9 -7.7,-2.1 l 2.3,-10.4 q 2.9,1.1 6.1,2 3.2,1 8,1 3.2,0 5.3,-0.8 2.1,-0.7 3.3,-2 1.2,-1.3 1.7,-3.1 0.5,-1.7 0.5,-3.7 l 0,-1.9 q -2.6,1 -4.8,1.5 -2.1,0.5 -4.6,0.5 -9.2,0 -14,-5.799998 -4.7,-5.8 -4.7,-16.1 0,-11.599999 6.4,-17.299999 6.4,-5.700001 17.4,-5.700001 7.7,0 16.7,2.5 l 0,39.799998 z" /></g><g
       id="flowRoot11395-4"
       style="font-style:normal;font-variant:normal;font-weight:bold;font-stretch:normal;font-size:80px;line-height:125%;font-family:'Ubuntu Mono';-inkscape-font-specification:'Ubuntu Mono Bold';letter-spacing:0px;word-spacing:0px;fill:#ffffff;fill-opacity:1;stroke:none;stroke-width:1px;stroke-linecap:butt;stroke-linejoin:miter;stroke-opacity:1"
       transform="matrix(1.0460251,0,0,1.0460251,28.043704,216.36735)"><path
         inkscape:connector-curvature="0"
         id="path12591"
         style="font-size:80px;fill:#ffffff;fill-opacity:1"
         d="m 27.454219,60.512812 q 0,2.32 -0.8,4.4 -0.72,2 -2.16,3.6 -1.36,1.6 -3.44,2.56 -2,0.88 -4.48,0.88 -2.56,0 -4.56,-0.88 -2,-0.96 -3.4400002,-2.56 -1.36,-1.6 -2.1600001,-3.6 -0.7199999,-2.08 -0.7199999,-4.4 0,-2.24 0.7199999,-4.32 0.8000001,-2.08 2.1600001,-3.68 1.4400002,-1.6 3.4400002,-2.48 2,-0.96 4.56,-0.96 2.48,0 4.48,0.96 2.08,0.88 3.44,2.48 1.44,1.6 2.16,3.68 0.8,2.08 0.8,4.32 z" /><path
         inkscape:connector-curvature="0"
         id="path12593"
         style="font-size:80px;fill:#ffffff;fill-opacity:1"
         d="m 72.974219,36.112812 0,49.52 -9.84,0 0,-21.84 -13.12,0 0,21.84 -9.84,0 0,-49.52 9.84,0 0,19.52 13.12,0 0,-19.52 9.84,0 z" /><path
         inkscape:connector-curvature="0"
         id="path12595"
         style="font-size:80px;fill:#ffffff;fill-opacity:1"
         d="m 79.054219,67.152812 q 0,-4.96 1.52,-8.72 1.52,-3.76 4,-6.24 2.48,-2.56 5.68,-3.84 3.2,-1.28 6.56,-1.28 8.320001,0 12.640001,4.96 4.32,4.88 4.32,14.32 0,0.96 -0.08,2 0,1.04 -0.08,1.68 l -24.400001,0 q 0,3.68 3.04,5.84 3.04,2.08 7.840001,2.08 2.96,0 5.6,-0.64 2.72,-0.64 4.56,-1.28 l 1.36,8.4 q -2.56,0.88 -5.44,1.44 -2.88,0.64 -6.480001,0.64 -4.8,0 -8.64,-1.2 -3.76,-1.28 -6.48,-3.68 -2.64,-2.48 -4.08,-6.08 -1.44,-3.6 -1.44,-8.4 z m 25.200001,-3.92 q 0,-1.52 -0.4,-2.88 -0.4,-1.44 -1.28,-2.56 -0.88,-1.12 -2.24,-1.76 -1.360001,-0.72 -3.360001,-0.72 -1.92,0 -3.36,0.64 -1.36,0.64 -2.32,1.76 -0.88,1.12 -1.44,2.56 -0.48,1.44 -0.64,2.96 l 15.040001,0 z" /><path
         inkscape:connector-curvature="0"
         id="path12597"
         style="font-size:80px;fill:#ffffff;fill-opacity:1"
         d="m 136.65422,78.592812 q 1.6,0 3.12,0 1.52,-0.08 2.64,-0.24 l 0,-8.64 q -0.96,-0.16 -2.32,-0.24 -1.36,-0.16 -2.48,-0.16 -1.52,0 -2.96,0.24 -1.44,0.16 -2.56,0.64 -1.04,0.48 -1.68,1.36 -0.64,0.88 -0.64,2.32 0,2.56 1.92,3.68 1.92,1.04 4.96,1.04 z m -0.88,-31.52 q 4.64,0 7.68,1.12 3.12,1.04 4.96,3.04 1.84,1.92 2.64,4.8 0.8,2.8 0.8,6.32 l 0,22.4 q -2.16,0.48 -6.4,1.12 -4.24,0.64 -9.52,0.64 -3.6,0 -6.56,-0.64 -2.88,-0.64 -4.96,-2.08 -2.08,-1.52 -3.2,-3.84 -1.12,-2.4 -1.12,-5.84 0,-3.28 1.28,-5.52 1.28,-2.24 3.44,-3.6 2.16,-1.36 4.96,-1.92 2.8,-0.64 5.84,-0.64 3.84,0 6.8,0.64 l 0,-1.2 q 0,-2.8 -1.76,-4.64 -1.76,-1.92 -6.08,-1.92 -2.8,0 -5.44,0.4 -2.56,0.4 -4.16,0.96 l -1.36,-7.92 q 1.84,-0.64 5.2,-1.12 3.36,-0.56 6.96,-0.56 z" /><path
         inkscape:connector-curvature="0"
         id="path12599"
         style="font-size:80px;fill:#ffffff;fill-opacity:1"
         d="m 168.81422,66.592812 q 0,5.04 1.84,8.24 1.92,3.2 6.08,3.2 1.2,0 2.24,-0.08 1.04,-0.08 2.16,-0.24 l 0,-20.48 q -1.12,-0.64 -2.56,-1.04 -1.44,-0.48 -3.04,-0.48 -3.52,0 -5.12,2.8 -1.6,2.8 -1.6,8.08 z m 22.16,17.92 q -2.72,0.88 -6.64,1.44 -3.92,0.56 -7.68,0.56 -8.8,0 -13.36,-5.2 -4.48,-5.2 -4.48,-14.24 0,-9.2 3.76,-14.48 3.84,-5.36 11.28,-5.36 2,0 3.92,0.48 1.92,0.4 3.36,1.2 l 0,-17.12 9.84,-1.68 0,54.4 z" /><path
         inkscape:connector-curvature="0"
         id="path12601"
         style="font-size:80px;fill:#ffffff;fill-opacity:1"
         d="m 219.29422,37.232812 q 0,2.88 -1.84,4.56 -1.84,1.68 -4.4,1.68 -2.56,0 -4.4,-1.68 -1.76,-1.68 -1.76,-4.56 0,-2.96 1.76,-4.64 1.84,-1.68 4.4,-1.68 2.56,0 4.4,1.68 1.84,1.68 1.84,4.64 z m 14.64,46.8 q -3.04,1.44 -5.76,1.92 -2.64,0.56 -4.88,0.56 -3.84,0 -6.48,-1.12 -2.56,-1.12 -4.16,-3.2 -1.52,-2.16 -2.16,-5.2 -0.64,-3.04 -0.64,-6.96 l 0,-13.84 -10.4,0 0,-8.16 20.24,0 0,23.28 q 0,3.36 1.2,5.04 1.28,1.6 4.16,1.6 1.36,0 3.28,-0.32 1.92,-0.4 4.32,-1.52 l 1.28,7.92 z" /><path
         inkscape:connector-curvature="0"
         id="path12603"
         style="font-size:80px;fill:#ffffff;fill-opacity:1"
         d="m 241.61422,49.232812 q 2.64,-0.72 6.48,-1.36 3.92,-0.64 8.48,-0.64 4.48,0 7.44,1.28 2.96,1.2 4.64,3.52 1.76,2.24 2.48,5.44 0.72,3.12 0.72,6.96 l 0,21.2 -9.84,0 0,-19.92 q 0,-5.28 -1.2,-7.6 -1.2,-2.32 -4.88,-2.32 -1.12,0 -2.24,0.08 -1.04,0.08 -2.24,0.24 l 0,29.52 -9.84,0 0,-36.4 z" /><path
         inkscape:connector-curvature="0"
         id="path12605"
         style="font-size:80px;fill:#ffffff;fill-opacity:1"
         d="m 289.21422,65.632812 q 0,4.64 1.68,7.12 1.68,2.4 5.28,2.4 1.6,0 2.96,-0.4 1.44,-0.4 2.56,-1.04 l 0,-18.08 q -1.12,-0.24 -2,-0.32 -0.88,-0.08 -1.84,-0.08 -8.64,0 -8.64,10.4 z m 22.4,15.44 q 0,9.2 -4.48,13.6 -4.4,4.4 -14.24,4.4 -3.52,0 -6.8,-0.72 -3.2,-0.72 -6.16,-1.68 l 1.84,-8.32 q 2.32,0.88 4.88,1.6 2.56,0.8 6.4,0.8 2.56,0 4.24,-0.64 1.68,-0.56 2.64,-1.6 0.96,-1.04 1.36,-2.48 0.4,-1.36 0.4,-2.96 l 0,-1.52 q -2.08,0.8 -3.84,1.2 -1.68,0.4 -3.68,0.4 -7.36,0 -11.2,-4.64 -3.76,-4.64 -3.76,-12.88 0,-9.28 5.12,-13.84 5.12,-4.56 13.92,-4.56 6.16,0 13.36,2 l 0,31.84 z" /></g><g
       id="flowRoot11395-9"
       style="font-style:normal;font-variant:normal;font-weight:bold;font-stretch:normal;font-size:60px;line-height:125%;font-family:'Ubuntu Mono';-inkscape-font-specification:'Ubuntu Mono Bold';letter-spacing:0px;word-spacing:0px;fill:#ffffff;fill-opacity:1;stroke:none;stroke-width:1px;stroke-linecap:butt;stroke-linejoin:miter;stroke-opacity:1"
       transform="matrix(1.0460251,0,0,1.0460251,40.428642,305.58702)"><path
         inkscape:connector-curvature="0"
         id="path12608"
         style="font-size:60px;fill:#ffffff;fill-opacity:1"
         d="m 19.734219,46.042812 q 0,1.74 -0.6,3.3 -0.54,1.5 -1.62,2.7 -1.02,1.2 -2.58,1.92 -1.5,0.66 -3.36,0.66 -1.9200002,0 -3.4200002,-0.66 -1.5000001,-0.72 -2.5800001,-1.92 -1.0199999,-1.2 -1.62,-2.7 -0.54,-1.56 -0.54,-3.3 0,-1.68 0.54,-3.239999 0.6000001,-1.560001 1.62,-2.760001 1.08,-1.2 2.5800001,-1.86 1.5,-0.72 3.4200002,-0.72 1.86,0 3.36,0.72 1.56,0.66 2.58,1.86 1.08,1.2 1.62,2.760001 0.6,1.559999 0.6,3.239999 z" /><path
         inkscape:connector-curvature="0"
         id="path12610"
         style="font-size:60px;fill:#ffffff;fill-opacity:1"
         d="m 53.874219,27.742812 0,37.14 -7.38,0 0,-16.38 -9.84,0 0,16.38 -7.38,0 0,-37.14 7.38,0 0,14.64 9.84,0 0,-14.64 7.38,0 z" /><path
         inkscape:connector-curvature="0"
         id="path12612"
         style="font-size:60px;fill:#ffffff;fill-opacity:1"
         d="m 58.434219,51.022812 q 0,-3.719999 1.14,-6.54 1.14,-2.82 3,-4.679999 1.86,-1.920001 4.26,-2.880001 2.4,-0.96 4.92,-0.96 6.24,0 9.48,3.72 3.24,3.66 3.24,10.74 0,0.72 -0.06,1.5 0,0.78 -0.06,1.26 l -18.3,0 q 0,2.760001 2.28,4.38 2.28,1.560001 5.88,1.560001 2.22,0 4.2,-0.480001 2.04,-0.48 3.42,-0.96 l 1.02,6.300001 q -1.92,0.66 -4.08,1.08 -2.16,0.479999 -4.86,0.479999 -3.6,0 -6.48,-0.899999 -2.82,-0.960001 -4.86,-2.760001 -1.98,-1.86 -3.06,-4.56 -1.08,-2.7 -1.08,-6.3 z m 18.9,-2.939999 q 0,-1.14 -0.3,-2.160001 -0.3,-1.08 -0.96,-1.92 -0.66,-0.84 -1.68,-1.32 -1.02,-0.54 -2.52,-0.54 -1.44,0 -2.52,0.480001 -1.02,0.479999 -1.74,1.32 -0.66,0.839999 -1.08,1.92 -0.36,1.08 -0.48,2.22 l 11.28,0 z" /><path
         inkscape:connector-curvature="0"
         id="path12614"
         style="font-size:60px;fill:#ffffff;fill-opacity:1"
         d="m 101.63422,59.602812 q 1.2,0 2.34,0 1.14,-0.06 1.98,-0.18 l 0,-6.479999 q -0.72,-0.120001 -1.74,-0.180001 -1.02,-0.12 -1.86,-0.12 -1.14,0 -2.22,0.18 -1.080001,0.120001 -1.920001,0.480001 -0.78,0.359999 -1.26,1.019999 -0.48,0.660001 -0.48,1.74 0,1.920001 1.44,2.76 1.44,0.78 3.720001,0.78 z m -0.66,-23.64 q 3.48,0 5.76,0.840001 2.34,0.78 3.72,2.28 1.38,1.439999 1.98,3.599999 0.6,2.1 0.6,4.740001 l 0,16.8 q -1.62,0.36 -4.8,0.84 -3.18,0.479999 -7.14,0.479999 -2.700001,0 -4.920001,-0.479999 -2.16,-0.48 -3.72,-1.560001 -1.56,-1.14 -2.4,-2.879999 -0.84,-1.800001 -0.84,-4.380001 0,-2.46 0.96,-4.14 0.96,-1.68 2.58,-2.7 1.62,-1.02 3.72,-1.44 2.1,-0.479999 4.380001,-0.479999 2.88,0 5.1,0.479999 l 0,-0.9 q 0,-2.1 -1.32,-3.479999 -1.32,-1.440001 -4.56,-1.440001 -2.100001,0 -4.080001,0.300001 -1.92,0.299999 -3.12,0.719999 l -1.02,-5.939999 q 1.38,-0.480001 3.9,-0.840001 2.52,-0.42 5.220001,-0.42 z" /><path
         inkscape:connector-curvature="0"
         id="path12616"
         style="font-size:60px;fill:#ffffff;fill-opacity:1"
         d="m 125.75422,50.602812 q 0,3.78 1.38,6.18 1.44,2.4 4.56,2.4 0.9,0 1.68,-0.06 0.78,-0.06 1.62,-0.18 l 0,-15.36 q -0.84,-0.480001 -1.92,-0.78 -1.08,-0.36 -2.28,-0.36 -2.64,0 -3.84,2.099999 -1.2,2.100001 -1.2,6.06 z m 16.62,13.44 q -2.04,0.66 -4.98,1.08 -2.94,0.42 -5.76,0.42 -6.6,0 -10.02,-3.9 -3.36,-3.9 -3.36,-10.68 0,-6.9 2.82,-10.86 2.88,-4.019999 8.46,-4.019999 1.5,0 2.94,0.36 1.44,0.299999 2.52,0.899999 l 0,-12.84 7.38,-1.26 0,40.8 z" /><path
         inkscape:connector-curvature="0"
         id="path12618"
         style="font-size:60px;fill:#ffffff;fill-opacity:1"
         d="m 163.61422,28.582813 q 0,2.159999 -1.38,3.419999 -1.38,1.26 -3.3,1.26 -1.92,0 -3.3,-1.26 -1.32,-1.26 -1.32,-3.419999 0,-2.220001 1.32,-3.480001 1.38,-1.26 3.3,-1.26 1.92,0 3.3,1.26 1.38,1.26 1.38,3.480001 z m 10.98,35.099999 q -2.28,1.08 -4.32,1.44 -1.98,0.42 -3.66,0.42 -2.88,0 -4.86,-0.84 -1.92,-0.84 -3.12,-2.399999 -1.14,-1.620001 -1.62,-3.9 -0.48,-2.28 -0.48,-5.220001 l 0,-10.379999 -7.8,0 0,-6.120001 15.18,0 0,17.46 q 0,2.52 0.9,3.78 0.96,1.200001 3.12,1.200001 1.02,0 2.46,-0.240001 1.44,-0.299999 3.24,-1.14 l 0.96,5.94 z" /><path
         inkscape:connector-curvature="0"
         id="path12620"
         style="font-size:60px;fill:#ffffff;fill-opacity:1"
         d="m 180.35422,37.582813 q 1.98,-0.540001 4.86,-1.020001 2.94,-0.479999 6.36,-0.479999 3.36,0 5.58,0.959999 2.22,0.900001 3.48,2.64 1.32,1.680001 1.86,4.080001 0.54,2.339999 0.54,5.22 l 0,15.899999 -7.38,0 0,-14.939999 q 0,-3.96 -0.9,-5.700001 -0.9,-1.739999 -3.66,-1.739999 -0.84,0 -1.68,0.06 -0.78,0.06 -1.68,0.18 l 0,22.14 -7.38,0 0,-27.299999 z" /><path
         inkscape:connector-curvature="0"
         id="path12622"
         style="font-size:60px;fill:#ffffff;fill-opacity:1"
         d="m 216.05422,49.882812 q 0,3.480001 1.26,5.340001 1.26,1.799999 3.96,1.799999 1.2,0 2.22,-0.299999 1.08,-0.300001 1.92,-0.78 l 0,-13.560001 q -0.84,-0.18 -1.5,-0.24 -0.66,-0.06 -1.38,-0.06 -6.48,0 -6.48,7.799999 z m 16.8,11.58 q 0,6.900001 -3.36,10.2 -3.3,3.3 -10.68,3.3 -2.64,0 -5.1,-0.539999 -2.4,-0.540001 -4.62,-1.260001 l 1.38,-6.239999 q 1.74,0.66 3.66,1.199999 1.92,0.600001 4.8,0.600001 1.92,0 3.18,-0.480001 1.26,-0.42 1.98,-1.2 0.72,-0.78 1.02,-1.86 0.3,-1.02 0.3,-2.22 l 0,-1.14 q -1.56,0.6 -2.88,0.900001 -1.26,0.299999 -2.76,0.299999 -5.52,0 -8.4,-3.48 -2.82,-3.48 -2.82,-9.66 0,-6.96 3.84,-10.379999 3.84,-3.42 10.44,-3.42 4.62,0 10.02,1.5 l 0,23.879999 z" /></g></g></svg>