<?xml version="1.0" encoding="UTF-8" standalone="no"?>
<svg
   xmlns:dc="http://purl.org/dc/elements/1.1/"
   xmlns:cc="http://creativecommons.org/ns#"
   xmlns:rdf="http://www.w3.org/1999/02/22-rdf-syntax-ns#"
   xmlns:svg="http://www.w3.org/2000/svg"
   xmlns="http://www.w3.org/2000/svg"
   xmlns:sodipodi="http://sodipodi.sourceforge.net/DTD/sodipodi-0.dtd"
   xmlns:inkscape="http://www.inkscape.org/namespaces/inkscape"
   xml:space="preserve"
   enable-background="new 0 0 400 400"
   viewBox="0 0 367 250"
   height="250"
   width="367"
   y="0px"
   x="0px"
   id="Layer_1"
   version="1.1"
   inkscape:version="0.91 r13725"
   sodipodi:docname="text.svg"><sodipodi:namedview
     pagecolor="#ffffff"
     bordercolor="#666666"
     borderopacity="1"
     objecttolerance="10"
     gridtolerance="10"
     guidetolerance="10"
     inkscape:pageopacity="0"
     inkscape:pageshadow="2"
     inkscape:window-width="1536"
     inkscape:window-height="801"
     id="namedview9531"
     showgrid="false"
     inkscape:zoom="1.888"
     inkscape:cx="199.40559"
     inkscape:cy="214.30484"
     inkscape:window-x="-8"
     inkscape:window-y="-8"
     inkscape:window-maximized="1"
     inkscape:current-layer="Layer_1" /><metadata
     id="metadata101"><rdf:RDF><cc:Work
         rdf:about=""><dc:format>image/svg+xml</dc:format><dc:type
           rdf:resource="http://purl.org/dc/dcmitype/StillImage" /><dc:title></dc:title></cc:Work></rdf:RDF></metadata><defs
     id="defs99" /><g
     transform="translate(-25.994625,-118.13425)"
     id="g85"
     style="fill:#ffffff;fill-opacity:1"><path
       style="fill:#ffffff;fill-opacity:1"
       id="path87"
       d="m 212.338,214.682 -12.226,12.227 -9.495,9.494 -6.863,6.862 c -0.011,-0.044 -0.021,-0.076 -0.021,-0.076 0,0 -2.259,2.769 -6.391,1.66 0,0 0,0.023 0,0.037 l -17.64,-4.727 c -4.391,-1.179 -5.715,-5.671 -5.733,-5.731 l -4.74,-17.692 c -0.839,-3.141 0.553,-5.193 1.272,-6.002 l 7.223,-7.223 9.494,-9.494 12.306,-12.306 c 2.927,-2.926 -0.312,-4.452 -0.42,-4.503 -17.071,-4.231 -35.869,0.309 -49.213,13.651 -13.062,13.062 -17.685,31.353 -13.9,48.134 l -0.005,-0.001 c 0,0 1,4.635 -3.958,9.593 L 32.104,328.51 c -8.146,8.146 -8.146,21.354 10e-4,29.501 l 4.013,4.013 c 8.148,8.147 21.355,8.147 29.501,0 l 80.973,-80.972 c 3.729,-3.138 7.074,-3.115 8.138,-3.008 16.891,3.949 35.372,-0.641 48.539,-13.809 13.352,-13.351 17.889,-32.162 13.645,-49.24 -0.228,-0.416 -1.827,-3.063 -4.576,-0.313 z M 54.391,350.323 c -2.923,2.923 -7.663,2.923 -10.584,0 -2.924,-2.923 -2.924,-7.662 0,-10.585 2.921,-2.923 7.661,-2.923 10.584,0 2.923,2.922 2.923,7.662 0,10.585 z" /><path
       style="fill:#ffffff;fill-opacity:1"
       id="path89"
       d="m 390.354,186.458 -187.263,0 c -0.929,0 -1.818,0.369 -2.475,1.025 l -11.523,11.523 -17.388,-4.66 -15.938,15.939 5.833,21.77 21.77,5.834 15.938,-15.938 -4.916,-18.347 10.147,-10.147 185.814,0 c 1.933,0 3.5,-1.567 3.5,-3.5 0,-1.933 -1.566,-3.499 -3.499,-3.499 z m -212.817,40.271 c -5.858,0 -10.61,-4.75 -10.61,-10.61 0,-5.859 4.752,-10.609 10.61,-10.609 5.86,0 10.61,4.75 10.61,10.609 0,5.86 -4.75,10.609 -10.61,10.61 z" /></g><g
     style="fill:#ffffff;fill-opacity:1"
     transform="matrix(1,0,0,0.65098339,-24.709041,-126.07237)"
     id="g51"><g
       style="fill:#ffffff;fill-opacity:1"
       id="VGM4vC_2_" /><g
       id="g10702"
       transform="translate(-8.6132812,234.39598)"
       style="fill:#ffffff;fill-opacity:1"><path
         id="path53"
         transform="matrix(1,0,0,1.5361375,24.709041,193.6645)"
         d="m 14.566406,-151.58789 c -3.288,0 -5.9531248,1.70836 -5.9531248,3.81641 l 0,66.275384 c 0,2.107409 2.6653858,3.857796 5.9531248,3.816406 l 79.433594,0 0,-6.908203 -79.386719,0 0,-59.999997 355.640999,0 0,59.999997 -185.15272,0 0,6.908203 191.15235,0 -0.28711,-73.77148 -112.71289,-0.13672 z"
         style="fill:#ffffff;fill-opacity:1"
         inkscape:connector-curvature="0"
         sodipodi:nodetypes="sssscccccccccccs" /><g
         id="text10666"
         style="font-style:italic;font-variant:normal;font-weight:bold;font-stretch:normal;font-size:70.07266235px;line-height:125%;font-family:'Ubuntu Mono';-inkscape-font-specification:'Ubuntu Mono Bold Italic';letter-spacing:0px;word-spacing:0px;fill:#ffffff;fill-opacity:1;stroke:none;stroke-width:1.00020397;stroke-linecap:butt;stroke-linejoin:miter;stroke-miterlimit:4;stroke-dasharray:none;stroke-opacity:1"
         transform="matrix(0.80683544,0,0,1.2394101,1.5889831,0)"><path
           inkscape:connector-curvature="0"
           id="path10682"
           style="fill:#ffffff;fill-opacity:1;stroke:none;stroke-width:1.00020397;stroke-miterlimit:4;stroke-dasharray:none;stroke-opacity:1"
           d="m 128.73068,-12.290917 -1.68175,7.1474112 -11.49192,0 -8.68901,36.2275668 -8.618933,0 8.689013,-36.2275668 -11.421847,0 1.681744,-7.1474112 31.532703,0 z" /><path
           inkscape:connector-curvature="0"
           id="path10684"
           style="fill:#ffffff;fill-opacity:1;stroke:none;stroke-width:1.00020397;stroke-miterlimit:4;stroke-dasharray:none;stroke-opacity:1"
           d="m 135.24743,19.381926 q 0,1.261308 0.42044,2.312398 0.42043,0.981017 1.33138,1.681744 0.98102,0.700726 2.52262,1.121162 1.61167,0.350364 3.99414,0.350364 2.8029,0 5.32552,-0.560582 2.52262,-0.630654 3.71385,-1.191235 l 0.56058,6.516758 q -1.68174,0.840872 -4.69487,1.541598 -3.01312,0.7708 -6.58683,0.7708 -3.99414,0 -6.86712,-0.981018 -2.87298,-1.05109 -4.69487,-2.872979 -1.82189,-1.821889 -2.66276,-4.274432 -0.84087,-2.522616 -0.84087,-5.535741 0,-4.064214 1.33138,-7.848138 1.40145,-3.8539962 3.99414,-6.7269753 2.66276,-2.87297917 6.37662,-4.62479573 3.78392,-1.75181657 8.61893,-1.75181657 4.83502,0 7.91821,2.38247053 3.0832,2.38247057 3.0832,6.65690297 0,3.5737057 -1.75182,6.0963211 -1.75181,2.452544 -4.83501,3.994142 -3.0832,1.541599 -7.28756,2.242325 -4.13428,0.700727 -8.9693,0.700727 z M 145.47804,4.1761583 q -3.22334,0 -6.16639,2.2423252 -2.87298,2.1722526 -3.99414,7.0072665 4.41457,0 7.21748,-0.560582 2.87298,-0.560581 4.48465,-1.401453 1.61167,-0.910944 2.24233,-1.9620343 0.63065,-1.05109 0.63065,-1.9620346 0,-1.6116712 -1.19124,-2.4525432 -1.12116,-0.9109446 -3.22334,-0.9109446 z" /><path
           inkscape:connector-curvature="0"
           id="path10686"
           style="fill:#ffffff;fill-opacity:1;stroke:none;stroke-width:1.00020397;stroke-miterlimit:4;stroke-dasharray:none;stroke-opacity:1"
           d="m 173.22682,-1.8500906 4.83501,10.5108993 q 2.10218,-2.5226158 4.13429,-5.185377 2.0321,-2.73283383 3.78392,-5.3255223 l 9.10945,0 q -2.66276,3.7839237 -5.81603,7.8481381 -3.15327,3.9941418 -7.28756,8.4087195 2.45254,4.624796 4.20436,8.548865 1.82189,3.924069 3.22334,8.128429 l -8.82915,0 q -1.12117,-2.943052 -2.38247,-5.675886 -1.19124,-2.802906 -2.24233,-4.975159 l -9.24959,10.651045 -9.45981,0 14.92548,-16.747367 -7.98829,-16.1867846 9.03938,0 z" /><path
           inkscape:connector-curvature="0"
           id="path10688"
           style="fill:#ffffff;fill-opacity:1;stroke:none;stroke-width:1.00020397;stroke-miterlimit:4;stroke-dasharray:none;stroke-opacity:1"
           d="m 205.88068,5.2973209 -6.58683,0 1.75181,-7.1474115 6.51676,0 1.96204,-8.2685744 9.03937,-1.401453 -2.38247,9.6700274 12.543,0 -1.75181,7.1474115 -12.47294,0 -3.08319,12.8232971 q -0.35037,1.751817 -0.35037,2.732834 0,2.10218 1.40146,2.802906 1.47152,0.700727 3.29341,0.700727 1.89196,0 3.854,-0.420436 2.03211,-0.490509 3.92407,-1.261308 l -0.0701,7.217484 q -2.17225,0.981018 -4.83501,1.471526 -2.59269,0.490509 -5.18538,0.490509 -5.60581,0 -8.40872,-2.382471 -2.73283,-2.452543 -2.73283,-7.077338 0,-1.121163 0.14015,-2.242326 0.14014,-1.191235 0.4905,-2.522616 l 2.94306,-12.3327881 z" /><path
           inkscape:connector-curvature="0"
           id="path10690"
           style="fill:#ffffff;fill-opacity:1;stroke:none;stroke-width:1.00020397;stroke-miterlimit:4;stroke-dasharray:none;stroke-opacity:1"
           d="m 293.82187,30.173116 q -2.59269,0.981017 -4.90509,1.331381 -2.24232,0.350363 -4.20436,0.350363 -4.97516,0 -7.35763,-2.382471 -2.38247,-2.452543 -2.38247,-6.86712 0,-2.312398 0.7708,-5.395595 l 2.80291,-11.9123531 -9.10945,0 1.75182,-7.1474115 17.72838,0 -4.76494,20.1108536 q -0.42044,1.471526 -0.42044,2.592689 0,3.503633 3.57371,3.503633 1.19124,0 2.80291,-0.210218 1.61167,-0.280291 3.5737,-0.981017 l 0.14015,7.007266 z m -8.89923,-36.0173484 q -2.24233,0 -3.64378,-1.1912353 -1.33138,-1.1912352 -1.33138,-3.7138513 0,-1.33138 0.49051,-2.452543 0.49051,-1.191235 1.26131,-1.962034 0.84087,-0.7708 1.89196,-1.191236 1.05109,-0.490508 2.17225,-0.490508 2.03211,0 3.50363,1.191235 1.5416,1.191235 1.5416,3.853996 0,1.261308 -0.56058,2.3824708 -0.49051,1.1211626 -1.33138,1.8919619 -0.84087,0.7707993 -1.89196,1.2613079 -1.05109,0.420436 -2.10218,0.420436 z" /><path
           inkscape:connector-curvature="0"
           id="path10692"
           style="fill:#ffffff;fill-opacity:1;stroke:none;stroke-width:1.00020397;stroke-miterlimit:4;stroke-dasharray:none;stroke-opacity:1"
           d="m 307.34589,-0.44863739 q 2.17225,-0.70072661 5.67589,-1.40145321 3.50363,-0.7007267 7.49777,-0.7007267 5.88611,0 8.40872,2.52261588 2.59269,2.52261582 2.59269,7.00726622 0,1.1912353 -0.21022,2.5926885 -0.14014,1.4014537 -0.49051,2.9430517 l -4.55472,18.569256 -8.61894,0 4.27444,-17.448093 q 0.21021,-1.121163 0.4905,-2.312398 0.28029,-1.191235 0.28029,-2.3824706 0,-1.6116713 -0.91094,-2.8029065 -0.84087,-1.261308 -3.15327,-1.261308 -0.98102,0 -2.03211,0.210218 -1.05109,0.1401454 -2.0321,0.5605813 l -6.1664,25.4363768 -8.61894,0 7.56785,-31.53269839 z" /><path
           inkscape:connector-curvature="0"
           id="path10694"
           style="fill:#ffffff;fill-opacity:1;stroke:none;stroke-width:1.00020397;stroke-miterlimit:4;stroke-dasharray:none;stroke-opacity:1"
           d="m 354.64494,-2.5508173 q 6.51676,0 9.52988,3.36348783 3.01313,3.29341517 3.01313,8.54886477 0,4.3445047 -1.26131,8.4087197 -1.26131,4.064214 -3.854,7.217484 -2.52261,3.083197 -6.44668,4.975159 -3.92407,1.821889 -9.17952,1.821889 -1.40146,0 -2.17226,-0.07007 -0.77079,-0.07007 -1.33138,-0.210218 l -2.73283,11.141553 -8.61894,0 10.37076,-42.95454207 q 1.47152,-0.63065396 3.15327,-1.05108993 1.68174,-0.420436 3.36348,-0.7007266 1.75182,-0.2802907 3.29342,-0.3503633 1.61167,-0.1401454 2.87298,-0.1401454 z M 344.69462,24.21694 q 0.35036,0.140145 0.7708,0.140145 0.42044,0 0.91094,0 2.87298,0 5.18538,-1.121163 2.3124,-1.191235 3.854,-3.153269 1.61167,-1.962035 2.45254,-4.554723 0.84087,-2.662762 0.84087,-5.5357407 0,-1.0510899 -0.21021,-2.0321072 -0.21022,-0.9810173 -0.7708,-1.7518166 -0.56059,-0.7707993 -1.61168,-1.1912352 -1.05109,-0.4905087 -2.73283,-0.4905087 -1.40145,0 -2.38247,0.1401454 -0.91094,0.1401453 -1.68174,0.3503633 l -4.6248,19.1999097 z" /><path
           inkscape:connector-curvature="0"
           id="path10696"
           style="fill:#ffffff;fill-opacity:1;stroke:none;stroke-width:1.00020397;stroke-miterlimit:4;stroke-dasharray:none;stroke-opacity:1"
           d="m 382.25357,31.85486 q -5.67589,0 -7.91821,-2.662761 -2.24233,-2.662761 -2.24233,-7.287557 0,-3.223343 0.98102,-7.497775 l 3.92407,-16.2568576 8.61894,0 -3.71386,15.6962766 q -0.56058,2.10218 -0.84087,3.853996 -0.28029,1.681744 -0.28029,3.013125 0,3.643778 3.50364,3.643778 1.96203,0 3.08319,-0.770799 1.19124,-0.840872 2.24233,-2.032107 0.14014,-0.981018 0.21022,-1.891962 0.14014,-0.910945 0.4905,-2.10218 l 4.6248,-19.4101276 8.61894,0 -4.69487,19.4801996 q -0.28029,1.261308 -0.49051,2.522616 -0.14015,1.191236 -0.14015,2.452544 0,2.032107 0.42044,3.994141 0.42044,1.891962 1.05109,3.783924 l -7.56785,1.261308 q -0.14014,-0.280291 -0.35036,-0.700727 -0.21022,-0.420436 -0.42044,-0.910944 -0.21021,-0.490509 -0.35036,-0.840872 -0.14014,-0.420436 -0.21022,-0.630654 -1.40145,1.05109 -3.64378,2.172252 -2.24232,1.121163 -4.90508,1.121163 z" /><path
           inkscape:connector-curvature="0"
           id="path10698"
           style="fill:#ffffff;fill-opacity:1;stroke:none;stroke-width:1.00020397;stroke-miterlimit:4;stroke-dasharray:none;stroke-opacity:1"
           d="m 416.09865,5.2973209 -6.58683,0 1.75181,-7.1474115 6.51676,0 1.96204,-8.2685744 9.03937,-1.401453 -2.38247,9.6700274 12.54301,0 -1.75182,7.1474115 -12.47293,0 -3.0832,12.8232971 q -0.35036,1.751817 -0.35036,2.732834 0,2.10218 1.40145,2.802906 1.47152,0.700727 3.29341,0.700727 1.89197,0 3.854,-0.420436 2.03211,-0.490509 3.92407,-1.261308 l -0.0701,7.217484 q -2.17226,0.981018 -4.83502,1.471526 -2.59269,0.490509 -5.18537,0.490509 -5.60582,0 -8.40872,-2.382471 -2.73284,-2.452543 -2.73284,-7.077338 0,-1.121163 0.14015,-2.242326 0.14014,-1.191235 0.49051,-2.522616 l 2.94305,-12.3327881 z" /><path
           inkscape:connector-curvature="0"
           id="path10700"
           style="fill:#ffffff;fill-opacity:1;stroke:none;stroke-width:1.00020397;stroke-miterlimit:4;stroke-dasharray:none;stroke-opacity:1"
           d="m 436.27959,35.148275 31.32248,0 -1.82189,7.497775 -31.32248,0 1.82189,-7.497775 z" /></g></g></g></svg>