<?xml version="1.0" encoding="UTF-8" standalone="no"?>
<svg
   xmlns:dc="http://purl.org/dc/elements/1.1/"
   xmlns:cc="http://creativecommons.org/ns#"
   xmlns:rdf="http://www.w3.org/1999/02/22-rdf-syntax-ns#"
   xmlns:svg="http://www.w3.org/2000/svg"
   xmlns="http://www.w3.org/2000/svg"
   xmlns:sodipodi="http://sodipodi.sourceforge.net/DTD/sodipodi-0.dtd"
   xmlns:inkscape="http://www.inkscape.org/namespaces/inkscape"
   xml:space="preserve"
   enable-background="new 0 0 400 400"
   viewBox="0 0 367 250"
   height="250"
   width="367"
   y="0px"
   x="0px"
   id="Layer_1"
   version="1.1"
   inkscape:version="0.91 r13725"
   sodipodi:docname="time.svg"><sodipodi:namedview
     pagecolor="#ffffff"
     bordercolor="#666666"
     borderopacity="1"
     objecttolerance="10"
     gridtolerance="10"
     guidetolerance="10"
     inkscape:pageopacity="0"
     inkscape:pageshadow="2"
     inkscape:window-width="1536"
     inkscape:window-height="801"
     id="namedview9531"
     showgrid="false"
     inkscape:zoom="1.888"
     inkscape:cx="108.56873"
     inkscape:cy="214.30484"
     inkscape:window-x="-8"
     inkscape:window-y="-8"
     inkscape:window-maximized="1"
     inkscape:current-layer="Layer_1" /><metadata
     id="metadata101"><rdf:RDF><cc:Work
         rdf:about=""><dc:format>image/svg+xml</dc:format><dc:type
           rdf:resource="http://purl.org/dc/dcmitype/StillImage" /><dc:title></dc:title></cc:Work></rdf:RDF></metadata><defs
     id="defs99" /><g
     transform="translate(-25.994625,-118.13425)"
     id="g85"
     style="fill:#ffffff;fill-opacity:1"><path
       style="fill:#ffffff;fill-opacity:1"
       id="path87"
       d="m 212.338,214.682 -12.226,12.227 -9.495,9.494 -6.863,6.862 c -0.011,-0.044 -0.021,-0.076 -0.021,-0.076 0,0 -2.259,2.769 -6.391,1.66 0,0 0,0.023 0,0.037 l -17.64,-4.727 c -4.391,-1.179 -5.715,-5.671 -5.733,-5.731 l -4.74,-17.692 c -0.839,-3.141 0.553,-5.193 1.272,-6.002 l 7.223,-7.223 9.494,-9.494 12.306,-12.306 c 2.927,-2.926 -0.312,-4.452 -0.42,-4.503 -17.071,-4.231 -35.869,0.309 -49.213,13.651 -13.062,13.062 -17.685,31.353 -13.9,48.134 l -0.005,-0.001 c 0,0 1,4.635 -3.958,9.593 L 32.104,328.51 c -8.146,8.146 -8.146,21.354 10e-4,29.501 l 4.013,4.013 c 8.148,8.147 21.355,8.147 29.501,0 l 80.973,-80.972 c 3.729,-3.138 7.074,-3.115 8.138,-3.008 16.891,3.949 35.372,-0.641 48.539,-13.809 13.352,-13.351 17.889,-32.162 13.645,-49.24 -0.228,-0.416 -1.827,-3.063 -4.576,-0.313 z M 54.391,350.323 c -2.923,2.923 -7.663,2.923 -10.584,0 -2.924,-2.923 -2.924,-7.662 0,-10.585 2.921,-2.923 7.661,-2.923 10.584,0 2.923,2.922 2.923,7.662 0,10.585 z" /><path
       style="fill:#ffffff;fill-opacity:1"
       id="path89"
       d="m 390.354,186.458 -187.263,0 c -0.929,0 -1.818,0.369 -2.475,1.025 l -11.523,11.523 -17.388,-4.66 -15.938,15.939 5.833,21.77 21.77,5.834 15.938,-15.938 -4.916,-18.347 10.147,-10.147 185.814,0 c 1.933,0 3.5,-1.567 3.5,-3.5 0,-1.933 -1.566,-3.499 -3.499,-3.499 z m -212.817,40.271 c -5.858,0 -10.61,-4.75 -10.61,-10.61 0,-5.859 4.752,-10.609 10.61,-10.609 5.86,0 10.61,4.75 10.61,10.609 0,5.86 -4.75,10.609 -10.61,10.61 z" /></g><g
     style="fill:#ffffff;fill-opacity:1"
     transform="matrix(1,0,0,0.65098339,-24.709041,-126.07237)"
     id="g51"><g
       style="fill:#ffffff;fill-opacity:1"
       id="VGM4vC_2_" /><g
       id="g10702"
       transform="translate(-8.6132812,234.39598)"
       style="fill:#ffffff;fill-opacity:1"><path
         id="path53"
         transform="matrix(1,0,0,1.5361375,24.709041,193.6645)"
         d="m 14.566406,-151.58789 c -3.288,0 -5.9531248,1.70836 -5.9531248,3.81641 l 0,66.275384 c 0,2.107409 2.6653858,3.857796 5.9531248,3.816406 l 79.433594,0 0,-6.908203 -79.386719,0 0,-59.999997 355.640999,0 0,59.999997 -185.15272,0 0,6.908203 191.15235,0 -0.28711,-73.77148 -112.71289,-0.13672 z"
         style="fill:#ffffff;fill-opacity:1"
         inkscape:connector-curvature="0"
         sodipodi:nodetypes="sssscccccccccccs" /></g></g><g
     style="font-style:italic;font-variant:normal;font-weight:bold;font-stretch:normal;font-size:40px;line-height:125%;font-family:'Ubuntu Mono';-inkscape-font-specification:'Ubuntu Mono Bold Italic';letter-spacing:0px;word-spacing:0px;fill:#ffffff;fill-opacity:1;stroke:none;stroke-width:1px;stroke-linecap:butt;stroke-linejoin:miter;stroke-opacity:1"
     id="text12452"
     transform="matrix(1.2558607,0,0,1.2558607,7.7812596,97.166354)"><path
       d="m 37.851355,-44.863897 3.44,-14.32 q -1.36,0.92 -2.92,1.68 -1.56,0.76 -2.6,1.12 l -1.16,-4 q 1.08,-0.36 2.28,-0.92 1.24,-0.56 2.48,-1.24 1.24,-0.68 2.4,-1.44 1.16,-0.76 2.08,-1.56 l 3.88,0 -4.96,20.68 4.92,0 -0.96,4.08 -15.04,0 0.96,-4.08 5.2,0 z"
       id="path12457"
       inkscape:connector-curvature="0"
       style="fill:#ffffff;fill-opacity:1" /><path
       d="m 51.611355,-46.303897 q 0,-1.16 0.32,-2.12 0.32,-1 1,-1.88 0.68,-0.92 1.76,-1.76 1.08,-0.88 2.6,-1.84 -0.92,-0.96 -1.56,-2.04 -0.64,-1.08 -0.64,-2.56 0,-1.4 0.52,-2.76 0.52,-1.36 1.6,-2.44 1.08,-1.08 2.72,-1.72 1.64,-0.68 3.88,-0.68 1.48,0 2.72,0.44 1.28,0.4 2.2,1.16 0.92,0.72 1.44,1.8 0.56,1.04 0.56,2.36 0,0.8 -0.2,1.68 -0.2,0.84 -0.76,1.76 -0.56,0.88 -1.6,1.8 -1.04,0.92 -2.76,1.76 1.32,0.92 2.24,2.16 0.96,1.24 0.96,3.2 0,1.6 -0.64,3 -0.6,1.4 -1.8,2.48 -1.2,1.04 -3,1.64 -1.76,0.6 -4.08,0.6 -1.28,0 -2.64,-0.32 -1.32,-0.32 -2.4,-1 -1.08,-0.72 -1.76,-1.88 -0.68,-1.16 -0.68,-2.84 z m 12.24,-1.56 q 0,-1.52 -1.04,-2.4 -1.04,-0.92 -2.56,-1.72 -1.24,0.6 -2,1.24 -0.76,0.6 -1.2,1.24 -0.44,0.64 -0.6,1.28 -0.16,0.64 -0.16,1.28 0,1.4 0.96,2.12 1,0.68 2.4,0.68 0.84,0 1.6,-0.24 0.76,-0.28 1.32,-0.76 0.6,-0.48 0.92,-1.16 0.36,-0.72 0.36,-1.56 z m -4.24,-10.96 q 0,1.28 0.8,2.12 0.8,0.84 1.92,1.52 2.28,-1.08 3.04,-2.2 0.76,-1.12 0.76,-2.2 0,-1.28 -0.8,-1.92 -0.76,-0.68 -2.16,-0.68 -1.68,0 -2.64,0.96 -0.92,0.96 -0.92,2.4 z"
       id="path12459"
       inkscape:connector-curvature="0"
       style="fill:#ffffff;fill-opacity:1" /><path
       d="m 79.491355,-47.463897 q 1.4,0 2.28,0.8 0.92,0.8 0.92,2.36 0,0.88 -0.32,1.64 -0.32,0.72 -0.88,1.24 -0.52,0.52 -1.24,0.8 -0.68,0.32 -1.4,0.32 -1.4,0 -2.32,-0.8 -0.88,-0.8 -0.88,-2.4 0,-0.88 0.32,-1.6 0.32,-0.72 0.84,-1.24 0.56,-0.52 1.24,-0.8 0.72,-0.32 1.44,-0.32 z m 2.88,-12.12 q 1.4,0 2.28,0.8 0.92,0.8 0.92,2.36 0,0.88 -0.32,1.64 -0.32,0.72 -0.88,1.24 -0.52,0.52 -1.24,0.84 -0.68,0.28 -1.4,0.28 -1.4,0 -2.32,-0.8 -0.88,-0.8 -0.88,-2.4 0,-0.88 0.32,-1.6 0.32,-0.72 0.84,-1.24 0.56,-0.52 1.24,-0.8 0.72,-0.32 1.44,-0.32 z"
       id="path12461"
       inkscape:connector-curvature="0"
       style="fill:#ffffff;fill-opacity:1" /><path
       d="m 97.851355,-44.863897 3.440005,-14.32 q -1.360005,0.92 -2.920005,1.68 -1.56,0.76 -2.6,1.12 l -1.16,-4 q 1.08,-0.36 2.28,-0.92 1.24,-0.56 2.48,-1.24 1.240005,-0.68 2.400005,-1.44 1.16,-0.76 2.08,-1.56 l 3.88,0 -4.96,20.68 4.92,0 -0.96,4.08 -15.040005,0 0.96,-4.08 5.2,0 z"
       id="path12463"
       inkscape:connector-curvature="0"
       style="fill:#ffffff;fill-opacity:1" /><path
       d="m 123.73136,-66.103897 q 1.6,0 2.84,0.48 1.24,0.44 2.08,1.24 0.84,0.8 1.28,1.84 0.44,1.04 0.44,2.24 0,1.76 -0.68,3.2 -0.68,1.44 -1.8,2.68 -1.08,1.2 -2.52,2.28 -1.44,1.08 -2.96,2.16 -2.32,1.6 -3.68,2.8 -1.32,1.16 -2,2.32 l 11.04,0 -0.96,4.08 -16.04,0 q 0.24,-2.12 0.92,-3.76 0.72,-1.68 1.8,-3.04 1.08,-1.36 2.48,-2.52 1.4,-1.2 3.08,-2.4 1.72,-1.24 2.92,-2.16 1.24,-0.96 2,-1.72 0.76,-0.8 1.12,-1.52 0.36,-0.72 0.36,-1.52 0,-1.08 -0.64,-1.72 -0.64,-0.68 -2.08,-0.68 -1.44,0 -3.04,0.64 -1.56,0.6 -3.08,1.76 l -1.6,-3.56 q 2.08,-1.64 4.32,-2.36 2.24,-0.76 4.4,-0.76 z"
       id="path12465"
       inkscape:connector-curvature="0"
       style="fill:#ffffff;fill-opacity:1" /><path
       d="m 139.49136,-47.463897 q 1.4,0 2.28,0.8 0.92,0.8 0.92,2.36 0,0.88 -0.32,1.64 -0.32,0.72 -0.88,1.24 -0.52,0.52 -1.24,0.8 -0.68,0.32 -1.4,0.32 -1.4,0 -2.32,-0.8 -0.88,-0.8 -0.88,-2.4 0,-0.88 0.32,-1.6 0.32,-0.72 0.84,-1.24 0.56,-0.52 1.24,-0.8 0.72,-0.32 1.44,-0.32 z m 2.88,-12.12 q 1.4,0 2.28,0.8 0.92,0.8 0.92,2.36 0,0.88 -0.32,1.64 -0.32,0.72 -0.88,1.24 -0.52,0.52 -1.24,0.84 -0.68,0.28 -1.4,0.28 -1.4,0 -2.32,-0.8 -0.88,-0.8 -0.88,-2.4 0,-0.88 0.32,-1.6 0.32,-0.72 0.84,-1.24 0.56,-0.52 1.24,-0.8 0.72,-0.32 1.44,-0.32 z"
       id="path12467"
       inkscape:connector-curvature="0"
       style="fill:#ffffff;fill-opacity:1" /><path
       d="m 157.85136,-44.863897 3.44,-14.32 q -1.36,0.92 -2.92,1.68 -1.56,0.76 -2.6,1.12 l -1.16,-4 q 1.08,-0.36 2.28,-0.92 1.24,-0.56 2.48,-1.24 1.24,-0.68 2.4,-1.44 1.16,-0.76 2.08,-1.56 l 3.88,0 -4.96,20.68 4.92,0 -0.96,4.08 -15.04,0 0.96,-4.08 5.2,0 z"
       id="path12469"
       inkscape:connector-curvature="0"
       style="fill:#ffffff;fill-opacity:1" /><path
       d="m 183.73136,-66.103897 q 1.6,0 2.84,0.48 1.24,0.44 2.08,1.24 0.84,0.8 1.28,1.84 0.44,1.04 0.44,2.24 0,1.76 -0.68,3.2 -0.68,1.44 -1.8,2.68 -1.08,1.2 -2.52,2.28 -1.44,1.08 -2.96,2.16 -2.32,1.6 -3.68,2.8 -1.32,1.16 -2,2.32 l 11.04,0 -0.96,4.08 -16.04,0 q 0.24,-2.12 0.92,-3.76 0.72,-1.68 1.8,-3.04 1.08,-1.36 2.48,-2.52 1.4,-1.2 3.08,-2.4 1.72,-1.24 2.92,-2.16 1.24,-0.96 2,-1.72 0.76,-0.8 1.12,-1.52 0.36,-0.72 0.36,-1.52 0,-1.08 -0.64,-1.72 -0.64,-0.68 -2.08,-0.68 -1.44,0 -3.04,0.64 -1.56,0.6 -3.08,1.76 l -1.6,-3.56 q 2.08,-1.64 4.32,-2.36 2.24,-0.76 4.4,-0.76 z"
       id="path12471"
       inkscape:connector-curvature="0"
       style="fill:#ffffff;fill-opacity:1" /><path
       d="m 199.49136,-47.463897 q 1.4,0 2.28,0.8 0.92,0.8 0.92,2.36 0,0.88 -0.32,1.64 -0.32,0.72 -0.88,1.24 -0.52,0.52 -1.24,0.8 -0.68,0.32 -1.4,0.32 -1.4,0 -2.32,-0.8 -0.88,-0.8 -0.88,-2.4 0,-0.88 0.32,-1.6 0.32,-0.72 0.84,-1.24 0.56,-0.52 1.24,-0.8 0.72,-0.32 1.44,-0.32 z"
       id="path12473"
       inkscape:connector-curvature="0"
       style="fill:#ffffff;fill-opacity:1" /><path
       d="m 223.77136,-66.103897 q 3.2,0 5,2.08 1.8,2.08 1.8,5.6 0,1.56 -0.24,3.52 -0.24,1.96 -0.8,4 -0.56,2 -1.48,3.92 -0.88,1.92 -2.2,3.44 -1.28,1.48 -3.04,2.4 -1.76,0.88 -4,0.88 -1.6,0 -2.88,-0.52 -1.24,-0.56 -2.12,-1.56 -0.88,-1.04 -1.36,-2.44 -0.48,-1.4 -0.48,-3.16 0,-1.56 0.24,-3.52 0.24,-1.96 0.8,-3.96 0.56,-2.04 1.44,-3.96 0.92,-1.92 2.2,-3.4 1.32,-1.52 3.08,-2.4 1.76,-0.92 4.04,-0.92 z m -4.52,21.72 q 1.12,0 2.04,-0.64 0.96,-0.68 1.72,-1.76 0.76,-1.12 1.32,-2.52 0.56,-1.44 0.92,-2.96 0.4,-1.56 0.56,-3.08 0.2,-1.52 0.2,-2.8 0,-1.64 -0.6,-2.72 -0.56,-1.12 -2.08,-1.12 -1.12,0 -2.08,0.68 -0.96,0.64 -1.72,1.76 -0.76,1.08 -1.32,2.52 -0.56,1.44 -0.96,2.96 -0.36,1.52 -0.56,3.04 -0.16,1.52 -0.16,2.8 0,1.64 0.6,2.76 0.6,1.08 2.12,1.08 z m 1.72,-6.56 q -1,0 -1.44,-0.52 -0.44,-0.52 -0.44,-1.28 0,-0.88 0.28,-1.52 0.28,-0.68 0.68,-1.12 0.4,-0.44 0.88,-0.64 0.48,-0.24 0.88,-0.24 1,0 1.4,0.56 0.44,0.52 0.44,1.28 0,0.88 -0.28,1.56 -0.28,0.64 -0.68,1.08 -0.4,0.4 -0.88,0.64 -0.44,0.2 -0.84,0.2 z"
       id="path12475"
       inkscape:connector-curvature="0"
       style="fill:#ffffff;fill-opacity:1" /><path
       d="m 243.77136,-66.103897 q 3.2,0 5,2.08 1.8,2.08 1.8,5.6 0,1.56 -0.24,3.52 -0.24,1.96 -0.8,4 -0.56,2 -1.48,3.92 -0.88,1.92 -2.2,3.44 -1.28,1.48 -3.04,2.4 -1.76,0.88 -4,0.88 -1.6,0 -2.88,-0.52 -1.24,-0.56 -2.12,-1.56 -0.88,-1.04 -1.36,-2.44 -0.48,-1.4 -0.48,-3.16 0,-1.56 0.24,-3.52 0.24,-1.96 0.8,-3.96 0.56,-2.04 1.44,-3.96 0.92,-1.92 2.2,-3.4 1.32,-1.52 3.08,-2.4 1.76,-0.92 4.04,-0.92 z m -4.52,21.72 q 1.12,0 2.04,-0.64 0.96,-0.68 1.72,-1.76 0.76,-1.12 1.32,-2.52 0.56,-1.44 0.92,-2.96 0.4,-1.56 0.56,-3.08 0.2,-1.52 0.2,-2.8 0,-1.64 -0.6,-2.72 -0.56,-1.12 -2.08,-1.12 -1.12,0 -2.08,0.68 -0.96,0.64 -1.72,1.76 -0.76,1.08 -1.32,2.52 -0.56,1.44 -0.96,2.96 -0.36,1.52 -0.56,3.04 -0.16,1.52 -0.16,2.8 0,1.64 0.6,2.76 0.6,1.08 2.12,1.08 z m 1.72,-6.56 q -1,0 -1.44,-0.52 -0.44,-0.52 -0.44,-1.28 0,-0.88 0.28,-1.52 0.28,-0.68 0.68,-1.12 0.4,-0.44 0.88,-0.64 0.48,-0.24 0.88,-0.24 1,0 1.4,0.56 0.44,0.52 0.44,1.28 0,0.88 -0.28,1.56 -0.28,0.64 -0.68,1.08 -0.4,0.4 -0.88,0.64 -0.44,0.2 -0.84,0.2 z"
       id="path12477"
       inkscape:connector-curvature="0"
       style="fill:#ffffff;fill-opacity:1" /><path
       d="m 263.77136,-66.103897 q 3.2,0 5,2.08 1.8,2.08 1.8,5.6 0,1.56 -0.24,3.52 -0.24,1.96 -0.8,4 -0.56,2 -1.48,3.92 -0.88,1.92 -2.2,3.44 -1.28,1.48 -3.04,2.4 -1.76,0.88 -4,0.88 -1.6,0 -2.88,-0.52 -1.24,-0.56 -2.12,-1.56 -0.88,-1.04 -1.36,-2.44 -0.48,-1.4 -0.48,-3.16 0,-1.56 0.24,-3.52 0.24,-1.96 0.8,-3.96 0.56,-2.04 1.44,-3.96 0.92,-1.92 2.2,-3.4 1.32,-1.52 3.08,-2.4 1.76,-0.92 4.04,-0.92 z m -4.52,21.72 q 1.12,0 2.04,-0.64 0.96,-0.68 1.72,-1.76 0.76,-1.12 1.32,-2.52 0.56,-1.44 0.92,-2.96 0.4,-1.56 0.56,-3.08 0.2,-1.52 0.2,-2.8 0,-1.64 -0.6,-2.72 -0.56,-1.12 -2.08,-1.12 -1.12,0 -2.08,0.68 -0.96,0.64 -1.72,1.76 -0.76,1.08 -1.32,2.52 -0.56,1.44 -0.96,2.96 -0.36,1.52 -0.56,3.04 -0.16,1.52 -0.16,2.8 0,1.64 0.6,2.76 0.6,1.08 2.12,1.08 z m 1.72,-6.56 q -1,0 -1.44,-0.52 -0.44,-0.52 -0.44,-1.28 0,-0.88 0.28,-1.52 0.28,-0.68 0.68,-1.12 0.4,-0.44 0.88,-0.64 0.48,-0.24 0.88,-0.24 1,0 1.4,0.56 0.44,0.52 0.44,1.28 0,0.88 -0.28,1.56 -0.28,0.64 -0.68,1.08 -0.4,0.4 -0.88,0.64 -0.44,0.2 -0.84,0.2 z"
       id="path12479"
       inkscape:connector-curvature="0"
       style="fill:#ffffff;fill-opacity:1" /></g></svg>