<?xml version="1.0" encoding="UTF-8" standalone="no"?>
<svg
   xmlns:dc="http://purl.org/dc/elements/1.1/"
   xmlns:cc="http://creativecommons.org/ns#"
   xmlns:rdf="http://www.w3.org/1999/02/22-rdf-syntax-ns#"
   xmlns:svg="http://www.w3.org/2000/svg"
   xmlns="http://www.w3.org/2000/svg"
   xmlns:sodipodi="http://sodipodi.sourceforge.net/DTD/sodipodi-0.dtd"
   xmlns:inkscape="http://www.inkscape.org/namespaces/inkscape"
   width="100%"
   height="100%"
   viewBox="0 0 34 48"
   version="1.1"
   xml:space="preserve"
   style="fill-rule:evenodd;clip-rule:evenodd;stroke-linejoin:round;stroke-miterlimit:1.41421;"
   id="svg2"
   inkscape:version="0.91 r13725"
   sodipodi:docname="deleteCard.svg"><metadata
     id="metadata22"><rdf:RDF><cc:Work
         rdf:about=""><dc:format>image/svg+xml</dc:format><dc:type
           rdf:resource="http://purl.org/dc/dcmitype/StillImage" /><dc:title></dc:title></cc:Work></rdf:RDF></metadata><defs
     id="defs20" /><sodipodi:namedview
     pagecolor="#ffffff"
     bordercolor="#666666"
     borderopacity="1"
     objecttolerance="10"
     gridtolerance="10"
     guidetolerance="10"
     inkscape:pageopacity="0"
     inkscape:pageshadow="2"
     inkscape:window-width="1139"
     inkscape:window-height="631"
     id="namedview18"
     showgrid="false"
     inkscape:zoom="5.2444444"
     inkscape:cx="-4.2653503"
     inkscape:cy="17.125568"
     inkscape:window-x="0"
     inkscape:window-y="0"
     inkscape:window-maximized="0"
     inkscape:current-layer="g14" /><g
     transform="matrix(1,0,0,1,-0.0649771,-1.77737)"
     id="g4"
     style="fill:#808000"><g
       transform="matrix(1.71595,0,0,1.71595,-13.7741,-18.814)"
       id="g14"
       style="fill:#808000"><path
         d="M23.657,15.202C23.085,13.07 20.89,11.802 18.758,12.374L11.03,14.444C8.898,15.016 7.631,17.211 8.202,19.343L12.343,34.798C12.915,36.93 15.11,38.198 17.242,37.626L24.97,35.556C27.102,34.984 28.369,32.789 27.798,30.657L23.657,15.202ZM17.634,23.634L18.884,21.469C19.022,21.23 19.328,21.148 19.567,21.286L20.433,21.786C20.672,21.924 20.754,22.23 20.616,22.469L19.366,24.634L21.531,25.884C21.77,26.022 21.852,26.328 21.714,26.567L21.214,27.433C21.076,27.672 20.77,27.754 20.531,27.616L18.366,26.366L17.116,28.531C16.978,28.77 16.672,28.852 16.433,28.714L15.567,28.214C15.328,28.076 15.246,27.77 15.384,27.531L16.634,25.366L14.469,24.116C14.23,23.978 14.148,23.672 14.286,23.433L14.786,22.567C14.924,22.328 15.23,22.246 15.469,22.384L17.634,23.634Z"
         style="fill:#ffffff"
         id="path16" /></g></g></svg>
