<?xml version="1.0" standalone="no"?>
<!DOCTYPE svg PUBLIC "-//W3C//DTD SVG 1.1//EN" "http://www.w3.org/Graphics/SVG/1.1/DTD/svg11.dtd">
<svg width="100%" height="100%" viewBox="0 0 48 45" version="1.1" xmlns="http://www.w3.org/2000/svg" xmlns:xlink="http://www.w3.org/1999/xlink" xml:space="preserve" style="fill-rule:evenodd;clip-rule:evenodd;stroke-linejoin:round;stroke-miterlimit:1.41421;">
    <g transform="matrix(1,0,0,1,-0.0649771,-1.77737)">
        <g transform="matrix(1.71595,0,0,1.71595,-13.7741,-18.814)">
            <path d="M32,12C34.208,12 36,13.792 36,16L36,32C36,34.208 34.208,36 32,36L31.739,36C32.861,35.129 33.583,33.767 33.583,32.238L33.583,15.762C33.583,14.233 32.861,12.871 31.739,12L32,12Z" style="fill:white;"/>
        </g>
        <g transform="matrix(1.71595,0,0,1.71595,-13.7741,-18.814)">
            <path d="M28,12C30.208,12 32,13.792 32,16L32,32C32,34.208 30.208,36 28,36L27.577,36C29.162,34.866 29.962,32.827 29.428,30.834L25.192,15.025C24.829,13.668 23.919,12.602 22.763,12L28,12Z" style="fill:white;"/>
        </g>
        <g transform="matrix(1.71595,0,0,1.71595,-13.7741,-18.814)">
            <path d="M23.657,15.202C23.085,13.07 20.89,11.802 18.758,12.374L11.03,14.444C8.898,15.016 7.631,17.211 8.202,19.343L12.343,34.798C12.915,36.93 15.11,38.198 17.242,37.626L24.97,35.556C27.102,34.984 28.369,32.789 27.798,30.657L23.657,15.202ZM17.634,23.634L18.884,21.469C19.022,21.23 19.328,21.148 19.567,21.286L20.433,21.786C20.672,21.924 20.754,22.23 20.616,22.469L19.366,24.634L21.531,25.884C21.77,26.022 21.852,26.328 21.714,26.567L21.214,27.433C21.076,27.672 20.77,27.754 20.531,27.616L18.366,26.366L17.116,28.531C16.978,28.77 16.672,28.852 16.433,28.714L15.567,28.214C15.328,28.076 15.246,27.77 15.384,27.531L16.634,25.366L14.469,24.116C14.23,23.978 14.148,23.672 14.286,23.433L14.786,22.567C14.924,22.328 15.23,22.246 15.469,22.384L17.634,23.634Z" style="fill:white;"/>
        </g>
    </g>
</svg>
