<?xml version="1.0" encoding="UTF-8" standalone="no"?>
<!-- Generator: Adobe Illustrator 19.1.0, SVG Export Plug-In . SVG Version: 6.00 Build 0)  -->

<svg
   xmlns:dc="http://purl.org/dc/elements/1.1/"
   xmlns:cc="http://creativecommons.org/ns#"
   xmlns:rdf="http://www.w3.org/1999/02/22-rdf-syntax-ns#"
   xmlns:svg="http://www.w3.org/2000/svg"
   xmlns="http://www.w3.org/2000/svg"
   xmlns:sodipodi="http://sodipodi.sourceforge.net/DTD/sodipodi-0.dtd"
   xmlns:inkscape="http://www.inkscape.org/namespaces/inkscape"
   version="1.1"
   id="Layer_1"
   x="0px"
   y="0px"
   viewBox="0 0 24 23"
   xml:space="preserve"
   inkscape:version="0.91 r13725"
   sodipodi:docname="mirrorDeck.svg"
   width="24"
   height="23"><metadata
     id="metadata20"><rdf:RDF><cc:Work
         rdf:about=""><dc:format>image/svg+xml</dc:format><dc:type
           rdf:resource="http://purl.org/dc/dcmitype/StillImage" /><dc:title /></cc:Work></rdf:RDF></metadata><defs
     id="defs18" /><sodipodi:namedview
     pagecolor="#ffffff"
     bordercolor="#666666"
     borderopacity="1"
     objecttolerance="10"
     gridtolerance="10"
     guidetolerance="10"
     inkscape:pageopacity="0"
     inkscape:pageshadow="2"
     inkscape:window-width="640"
     inkscape:window-height="480"
     id="namedview16"
     showgrid="false"
     fit-margin-top="0"
     fit-margin-left="0"
     fit-margin-right="0"
     fit-margin-bottom="0"
     inkscape:zoom="4.9166667"
     inkscape:cx="12"
     inkscape:cy="12"
     inkscape:window-x="0"
     inkscape:window-y="0"
     inkscape:window-maximized="0"
     inkscape:current-layer="Layer_1" /><g
     id="duplicate_2_"
     transform="translate(-12,-13)"
     style="fill:#ffffff"><path
       d="m 26,24 0,11.5 c 0,0.275 -0.225,0.5 -0.5,0.5 l -13,0 C 12.225,36 12,35.775 12,35.5 l 0,-17 C 12,18.225 12.225,18 12.5,18 l 7.5,0 0,5.5 c 0,0.275 0.225,0.5 0.5,0.5 l 5.5,0 z m -5,-6 0,4.5 c 0,0.275 0.225,0.5 0.5,0.5 l 4.5,0 -5,-5 z m 9,0.5 0,-5.5 -7.5,0 C 22.225,13 22,13.225 22,13.5 l 0,3.586 5,5 0,8.914 8.5,0 C 35.775,31 36,30.775 36,30.5 L 36,19 30.5,19 C 30.225,19 30,18.775 30,18.5 Z m 1.5,-0.5 4.5,0 -5,-5 0,4.5 c 0,0.275 0.225,0.5 0.5,0.5 z"
       id="path14"
       inkscape:connector-curvature="0"
       style="fill:#ffffff" /></g></svg>