<?xml version="1.0" encoding="UTF-8" standalone="no"?>
<!-- Generator: Adobe Illustrator 19.1.0, SVG Export Plug-In . SVG Version: 6.00 Build 0)  -->

<svg
   xmlns:dc="http://purl.org/dc/elements/1.1/"
   xmlns:cc="http://creativecommons.org/ns#"
   xmlns:rdf="http://www.w3.org/1999/02/22-rdf-syntax-ns#"
   xmlns:svg="http://www.w3.org/2000/svg"
   xmlns="http://www.w3.org/2000/svg"
   xmlns:sodipodi="http://sodipodi.sourceforge.net/DTD/sodipodi-0.dtd"
   xmlns:inkscape="http://www.inkscape.org/namespaces/inkscape"
   version="1.1"
   id="Layer_1"
   x="0px"
   y="0px"
   viewBox="0 0 20 21.643"
   xml:space="preserve"
   inkscape:version="0.91 r13725"
   sodipodi:docname="publishDeck.svg"
   width="20"
   height="21.643"><metadata
     id="metadata30"><rdf:RDF><cc:Work
         rdf:about=""><dc:format>image/svg+xml</dc:format><dc:type
           rdf:resource="http://purl.org/dc/dcmitype/StillImage" /><dc:title /></cc:Work></rdf:RDF></metadata><defs
     id="defs28" /><sodipodi:namedview
     pagecolor="#ffffff"
     bordercolor="#666666"
     borderopacity="1"
     objecttolerance="10"
     gridtolerance="10"
     guidetolerance="10"
     inkscape:pageopacity="0"
     inkscape:pageshadow="2"
     inkscape:window-width="640"
     inkscape:window-height="480"
     id="namedview26"
     showgrid="false"
     fit-margin-top="0"
     fit-margin-left="0"
     fit-margin-right="0"
     fit-margin-bottom="0"
     inkscape:zoom="4.9166667"
     inkscape:cx="10"
     inkscape:cy="11.643"
     inkscape:window-x="0"
     inkscape:window-y="0"
     inkscape:window-maximized="0"
     inkscape:current-layer="Layer_1" /><g
     id="blackboard_2_"
     transform="translate(-14,-14)"
     style="fill:#ffffff"><path
       d="m 15,25 0,-10 c 0,-0.55 0.45,-1 1,-1 l 16,0 c 0.55,0 1,0.45 1,1 l 0,10 c 0,0.55 -0.45,1 -1,1 l -16,0 c -0.55,0 -1,-0.45 -1,-1 z m 19,2.5 0,1 c 0,0.275 -0.225,0.5 -0.5,0.5 l -6.28,0 5.105,5.105 c 0.352,0.352 0.352,0.922 0,1.273 -0.176,0.176 -0.406,0.264 -0.637,0.264 -0.231,0 -0.461,-0.088 -0.637,-0.264 L 28.673,33 l -9.22,0 -2.379,2.379 c -0.176,0.176 -0.406,0.264 -0.637,0.264 -0.23,0 -0.461,-0.088 -0.637,-0.264 -0.352,-0.352 -0.352,-0.922 0,-1.273 L 20.906,29 14.5,29 C 14.225,29 14,28.775 14,28.5 l 0,-1 C 14,27.225 14.225,27 14.5,27 l 0.5,0 18,0 0.5,0 c 0.275,0 0.5,0.225 0.5,0.5 z m -7.327,3.5 -2,-2 -1.22,0 -2,2 5.22,0 z"
       id="path24"
       inkscape:connector-curvature="0"
       style="fill:#ffffff" /></g></svg>