<?xml version="1.0" encoding="UTF-8" standalone="no"?>
<!-- Generator: Adobe Illustrator 19.1.0, SVG Export Plug-In . SVG Version: 6.00 Build 0)  -->

<svg
   xmlns:dc="http://purl.org/dc/elements/1.1/"
   xmlns:cc="http://creativecommons.org/ns#"
   xmlns:rdf="http://www.w3.org/1999/02/22-rdf-syntax-ns#"
   xmlns:svg="http://www.w3.org/2000/svg"
   xmlns="http://www.w3.org/2000/svg"
   xmlns:sodipodi="http://sodipodi.sourceforge.net/DTD/sodipodi-0.dtd"
   xmlns:inkscape="http://www.inkscape.org/namespaces/inkscape"
   version="1.1"
   id="Layer_1"
   x="0px"
   y="0px"
   viewBox="0 0 24.038227 24.03635"
   xml:space="preserve"
   inkscape:version="0.91 r13725"
   sodipodi:docname="renameDeck.svg"
   width="24.038227"
   height="24.03635"><metadata
     id="metadata44"><rdf:RDF><cc:Work
         rdf:about=""><dc:format>image/svg+xml</dc:format><dc:type
           rdf:resource="http://purl.org/dc/dcmitype/StillImage" /><dc:title /></cc:Work></rdf:RDF></metadata><defs
     id="defs42" /><sodipodi:namedview
     pagecolor="#ffffff"
     bordercolor="#666666"
     borderopacity="1"
     objecttolerance="10"
     gridtolerance="10"
     guidetolerance="10"
     inkscape:pageopacity="0"
     inkscape:pageshadow="2"
     inkscape:window-width="640"
     inkscape:window-height="480"
     id="namedview40"
     showgrid="false"
     fit-margin-top="0"
     fit-margin-left="0"
     fit-margin-right="0"
     fit-margin-bottom="0"
     inkscape:zoom="4.9166667"
     inkscape:cx="12.019101"
     inkscape:cy="12.018101"
     inkscape:window-x="0"
     inkscape:window-y="0"
     inkscape:window-maximized="0"
     inkscape:current-layer="Layer_1" /><g
     id="pencil_2_"
     transform="translate(-11.980899,-11.98175)"
     style="fill:#ffffff"><path
       d="m 29.687,14.232 0.51,0.511 3.06,3.06 0.511,0.51 0.51,-0.51 1.021,-1.019 0.509,-0.512 c 0.281,-0.279 0.282,-0.738 0,-1.02 l -3.059,-3.059 c -0.282,-0.282 -0.741,-0.281 -1.021,-10e-4 l -0.511,0.51 -1.019,1.021 -0.511,0.509 z"
       id="path34"
       inkscape:connector-curvature="0"
       style="fill:#ffffff" /><rect
       x="14.996"
       y="21.040001"
       transform="matrix(0.7071,-0.7071,0.7071,0.7071,-9.8662,24.0313)"
       width="18.158001"
       height="5.7709999"
       id="rect36"
       style="fill:#ffffff" /><path
       d="m 14.379,29.54 -2.364,6.152 c -0.101,0.262 0.03,0.393 0.292,0.292 l 6.152,-2.363 -4.08,-4.081 z"
       id="path38"
       inkscape:connector-curvature="0"
       style="fill:#ffffff" /></g></svg>