<?xml version="1.0" encoding="UTF-8" standalone="no"?>
<!-- Generator: Adobe Illustrator 19.1.0, SVG Export Plug-In . SVG Version: 6.00 Build 0)  -->

<svg
   xmlns:dc="http://purl.org/dc/elements/1.1/"
   xmlns:cc="http://creativecommons.org/ns#"
   xmlns:rdf="http://www.w3.org/1999/02/22-rdf-syntax-ns#"
   xmlns:svg="http://www.w3.org/2000/svg"
   xmlns="http://www.w3.org/2000/svg"
   xmlns:sodipodi="http://sodipodi.sourceforge.net/DTD/sodipodi-0.dtd"
   xmlns:inkscape="http://www.inkscape.org/namespaces/inkscape"
   version="1.1"
   id="Layer_1"
   x="0px"
   y="0px"
   viewBox="0 0 23.559877 23.684999"
   xml:space="preserve"
   inkscape:version="0.91 r13725"
   sodipodi:docname="unshareDeck.svg"
   width="23.559877"
   height="23.684999"><metadata
     id="metadata64"><rdf:RDF><cc:Work
         rdf:about=""><dc:format>image/svg+xml</dc:format><dc:type
           rdf:resource="http://purl.org/dc/dcmitype/StillImage" /><dc:title /></cc:Work></rdf:RDF></metadata><defs
     id="defs62" /><sodipodi:namedview
     pagecolor="#ffffff"
     bordercolor="#666666"
     borderopacity="1"
     objecttolerance="10"
     gridtolerance="10"
     guidetolerance="10"
     inkscape:pageopacity="0"
     inkscape:pageshadow="2"
     inkscape:window-width="640"
     inkscape:window-height="480"
     id="namedview60"
     showgrid="false"
     fit-margin-top="0"
     fit-margin-left="0"
     fit-margin-right="0"
     fit-margin-bottom="0"
     inkscape:zoom="4.9166667"
     inkscape:cx="11.786"
     inkscape:cy="11.777"
     inkscape:window-x="0"
     inkscape:window-y="0"
     inkscape:window-maximized="0"
     inkscape:current-layer="Layer_1" /><g
     id="wrench_1_"
     transform="translate(-12.214,-12.092)"
     style="fill:#ffffff"><path
       d="m 15.219,35.777 c -0.222,0 -0.429,-0.086 -0.584,-0.241 l -2.18,-2.18 c -0.156,-0.155 -0.241,-0.361 -0.241,-0.583 0,-0.222 0.085,-0.43 0.241,-0.584 L 24.673,19.97 24.634,19.851 c -0.854,-2.614 0.292,-5.595 2.668,-6.934 0.974,-0.548 1.947,-0.825 2.894,-0.825 0.928,0 1.822,0.269 2.664,0.803 l -5.008,2.675 3.07,4.922 4.85,-2.443 c 0.064,2.568 -1.521,4.018 -2.892,4.789 -1.013,0.568 -2.095,0.849 -2.911,0.86 -0.816,0.012 -1.362,-0.087 -1.891,-0.275 l -0.12,-0.042 -12.156,12.155 c -0.156,0.155 -0.363,0.241 -0.583,0.241 z m 0.244,-4.55 c -0.682,0 -1.236,0.555 -1.236,1.236 0,0.682 0.555,1.236 1.236,1.236 0.682,0 1.236,-0.555 1.236,-1.236 0,-0.682 -0.555,-1.236 -1.236,-1.236 z"
       id="path58"
       inkscape:connector-curvature="0"
       style="fill:#ffffff" /></g></svg>