<?xml version="1.0" encoding="UTF-8" standalone="no"?>
<!-- Generator: Adobe Illustrator 19.1.0, SVG Export Plug-In . SVG Version: 6.00 Build 0)  -->

<svg
   xmlns:dc="http://purl.org/dc/elements/1.1/"
   xmlns:cc="http://creativecommons.org/ns#"
   xmlns:rdf="http://www.w3.org/1999/02/22-rdf-syntax-ns#"
   xmlns:svg="http://www.w3.org/2000/svg"
   xmlns="http://www.w3.org/2000/svg"
   xmlns:sodipodi="http://sodipodi.sourceforge.net/DTD/sodipodi-0.dtd"
   xmlns:inkscape="http://www.inkscape.org/namespaces/inkscape"
   version="1.1"
   id="Layer_1"
   x="0px"
   y="0px"
   viewBox="0 0 24.881197 21.919394"
   xml:space="preserve"
   inkscape:version="0.91 r13725"
   sodipodi:docname="unwrap.svg"
   width="24.881197"
   height="21.919394"><metadata
     id="metadata74"><rdf:RDF><cc:Work
         rdf:about=""><dc:format>image/svg+xml</dc:format><dc:type
           rdf:resource="http://purl.org/dc/dcmitype/StillImage" /><dc:title /></cc:Work></rdf:RDF></metadata><defs
     id="defs72" /><sodipodi:namedview
     pagecolor="#ffffff"
     bordercolor="#666666"
     borderopacity="1"
     objecttolerance="10"
     gridtolerance="10"
     guidetolerance="10"
     inkscape:pageopacity="0"
     inkscape:pageshadow="2"
     inkscape:window-width="703"
     inkscape:window-height="510"
     id="namedview70"
     showgrid="false"
     fit-margin-top="0"
     fit-margin-left="0"
     fit-margin-right="0"
     fit-margin-bottom="0"
     inkscape:zoom="4.9166667"
     inkscape:cx="-17.926108"
     inkscape:cy="10.959197"
     inkscape:window-x="0"
     inkscape:window-y="0"
     inkscape:window-maximized="0"
     inkscape:current-layer="Layer_1" /><g
     id="scissors-alt_2_"
     transform="translate(-12.027803,-13.039803)"
     style="fill:#ffffff"><path
       d="M 20.814,27.047 C 20.219,26.674 19.85,26.04 19.782,25.265 l -6.297,2.985 c -1.273,0.606 -1.815,2.134 -1.209,3.406 l 0.879,1.846 c 0.606,1.273 2.133,1.815 3.406,1.209 l 1.776,-0.82 c 1.147,-0.546 1.704,-1.795 1.622,-3.061 l 0.006,-3.383 c 0.001,0.001 0.316,-0.148 0.849,-0.4 z m -3.239,5.198 -2.024,0.938 c -0.288,0.137 -0.646,0.01 -0.783,-0.278 l -1.011,-2.123 c -0.137,-0.288 -0.01,-0.646 0.278,-0.783 0,0 2.158,-1.001 3.168,-1.482 0.448,-0.213 0.799,-0.075 0.846,0.452 0.072,0.805 0.139,2.131 0.139,2.131 0.032,0.487 -0.173,0.935 -0.613,1.145 z m 7.081,-11.244 c 3.847,-1.191 9.386,-2.843 9.427,-2.854 1.001,-0.259 2.092,-0.264 2.824,1.274 -0.952,0.453 -4.311,2.045 -7.79,3.693 -1.567,-0.741 -3.115,-1.475 -4.461,-2.113 z m -4.69,-0.449 -0.006,-3.383 c 0.082,-1.266 -0.476,-2.515 -1.622,-3.061 l -1.776,-0.82 c -1.273,-0.606 -2.8,-0.064 -3.406,1.209 l -0.879,1.846 c -0.606,1.273 -0.064,2.8 1.209,3.406 l 7.547,3.578 c 0,0 0.016,1.203 0.016,1.688 0,0.485 0.193,0.891 0.636,1.04 2.627,0.883 12.346,3.783 12.4,3.797 1.001,0.259 2.092,0.264 2.824,-1.274 C 34.73,27.542 19.966,20.552 19.966,20.552 Z M 24,24 c 0,0.552 -0.448,1 -1,1 -0.552,0 -1,-0.448 -1,-1 0,-0.552 0.448,-1 1,-1 0.552,0 1,0.448 1,1 z M 14.035,18.002 C 13.747,17.865 13.62,17.507 13.757,17.219 l 1.011,-2.123 c 0.137,-0.288 0.495,-0.415 0.783,-0.278 l 2.024,0.937 c 0.441,0.21 0.645,0.658 0.614,1.147 0,0 -0.067,1.326 -0.139,2.131 -0.047,0.527 -0.398,0.665 -0.846,0.452 -1.011,-0.481 -3.169,-1.483 -3.169,-1.483 z"
       id="path68"
       inkscape:connector-curvature="0"
       style="fill:#ffffff" /></g></svg>