<?xml version="1.0" encoding="UTF-8" standalone="no"?>
<!-- Generator: Adobe Illustrator 19.1.0, SVG Export Plug-In . SVG Version: 6.00 Build 0)  -->

<svg
   xmlns:dc="http://purl.org/dc/elements/1.1/"
   xmlns:cc="http://creativecommons.org/ns#"
   xmlns:rdf="http://www.w3.org/1999/02/22-rdf-syntax-ns#"
   xmlns:svg="http://www.w3.org/2000/svg"
   xmlns="http://www.w3.org/2000/svg"
   xmlns:sodipodi="http://sodipodi.sourceforge.net/DTD/sodipodi-0.dtd"
   xmlns:inkscape="http://www.inkscape.org/namespaces/inkscape"
   version="1.1"
   id="Layer_1"
   x="0px"
   y="0px"
   viewBox="0 0 24 24.76597"
   xml:space="preserve"
   inkscape:version="0.91 r13725"
   sodipodi:docname="wrapDeck.svg"
   width="24"
   height="24.76597"><metadata
     id="metadata16"><rdf:RDF><cc:Work
         rdf:about=""><dc:format>image/svg+xml</dc:format><dc:type
           rdf:resource="http://purl.org/dc/dcmitype/StillImage" /><dc:title></dc:title></cc:Work></rdf:RDF></metadata><defs
     id="defs14" /><sodipodi:namedview
     pagecolor="#ffffff"
     bordercolor="#666666"
     borderopacity="1"
     objecttolerance="10"
     gridtolerance="10"
     guidetolerance="10"
     inkscape:pageopacity="0"
     inkscape:pageshadow="2"
     inkscape:window-width="667"
     inkscape:window-height="480"
     id="namedview12"
     showgrid="false"
     inkscape:zoom="4.9166667"
     inkscape:cx="-12"
     inkscape:cy="12"
     inkscape:window-x="704"
     inkscape:window-y="149"
     inkscape:window-maximized="0"
     inkscape:current-layer="gift_2_"
     fit-margin-top="0"
     fit-margin-left="0"
     fit-margin-right="0"
     fit-margin-bottom="0" /><g
     id="gift_2_"
     transform="translate(-12,-11.234029)"><g
       id="g4"
       style="fill:#ffffff"><path
         d="m 14,28 8,0 0,8 -8,0 0,-8 z m 12,8 8,0 0,-8 -8,0 0,8 z m 10,-18.375 0,2.958 C 36,20.858 35.775,21 35.5,21 35,21 34.5,21 34,21 l 0,3 -8,0 0,-7 -4,0 0,7 -8,0 0,-3 c -0.5,0 -1,0 -1.5,0 C 12.225,21 12,20.858 12,20.583 l 0,-2.958 C 12,17.35 12.225,17 12.5,17 c 0.532,0 1.063,0 1.596,0 -0.094,0 0.712,-3.795 0.769,-4.037 0.343,-1.227 1.591,-1.994 2.836,-1.644 0.548,0.154 1.113,0.489 1.632,0.726 1.247,0.568 2.495,1.138 3.742,1.707 0.316,0.183 0.584,0.425 0.796,0.708 0.212,-0.283 0.479,-0.524 0.794,-0.705 1.198,-0.548 2.397,-1.096 3.596,-1.644 0.494,-0.226 0.983,-0.479 1.482,-0.689 1.313,-0.555 2.764,0.183 3.142,1.543 0.054,0.242 0.859,4.035 0.76,4.035 0.618,0 1.236,0 1.855,0 0.275,0 0.5,0.35 0.5,0.625 z M 21.826,16.597 17.221,13.832 16.589,16.719 C 16.555,16.84 16.639,17 16.753,17 c 1.646,0 4.938,0 4.938,0 l 0.135,-0.403 z m 9.562,0.108 -0.63,-2.907 -4.608,2.788 0.131,0.414 c 0,0 3.284,0 4.927,0 0.122,0 0.215,-0.17 0.18,-0.295 z"
         id="path6"
         inkscape:connector-curvature="0"
         style="fill:#ffffff" /></g><g
       style="opacity:0.3;fill:#cccccc"
       id="g8"><path
         d="m 34,28 -8,0 0,8 -4,0 0,-8 -8,0 0,-4 8,0 0,-7 4,0 0,7 8,0 0,4 z"
         id="path10"
         inkscape:connector-curvature="0"
         style="fill:#cccccc" /></g></g></svg>