<svg xmlns="http://www.w3.org/2000/svg" xmlns:xlink="http://www.w3.org/1999/xlink" version="1.1" x="0px" y="0px" viewBox="0 0 100 125" enable-background="new 0 0 100 100" xml:space="preserve"><g><g><path fill="#000000" d="M67.774,66.084c1.581,1.636,1.581,4.198,0,5.779c-1.581,1.636-4.198,1.636-5.779,0l-7.905-7.851v26.879    c0,2.29-1.799,4.089-4.089,4.089c-2.235,0-4.089-1.799-4.089-4.089V64.012l-7.905,7.851c-1.581,1.636-4.144,1.636-5.779,0    c-1.581-1.581-1.581-4.144,0-5.779l4.144-4.144L47.11,51.254c0.763-0.763,1.799-1.199,2.89-1.199c1.145,0,2.181,0.436,2.89,1.199    L63.63,61.94L67.774,66.084z"/><path fill="#000000" d="M94.98,42.967c0,4.198-1.69,8.069-4.471,10.85c-2.726,2.781-6.652,4.525-10.904,4.525h-8.342    c-1.09,0-2.126-0.436-2.89-1.199c-0.709-0.709-1.199-1.745-1.199-2.89c0-2.235,1.854-4.089,4.089-4.089h8.342    c2.072,0,3.762-0.763,5.125-2.126c1.308-1.254,2.072-3.053,2.072-5.07c0-4.035-3.162-7.197-7.197-7.197    c-1.199,0-2.235,0.273-3.162,0.763c-1.199,0.654-2.562,0.654-3.707,0.055c-0.218-0.055-0.436-0.164-0.6-0.327    c-0.218-0.164-0.436-0.327-0.6-0.545c-0.218-0.164-0.382-0.382-0.491-0.6c-0.109-0.218-0.273-0.436-0.327-0.709    c-0.164-0.218-0.218-0.436-0.218-0.709c-0.055-0.273-0.109-0.6-0.109-0.927c0-0.164,0-0.382,0.055-0.545v-0.545v-0.164    c-0.109-10.195-8.287-18.319-18.483-18.319c-7.905,0-14.666,4.961-17.229,11.995c0,0.055-0.055,0.109-0.055,0.164    c-0.872,2.072-3.271,3.053-5.343,2.235c-1.363-0.6-2.781-0.872-4.416-0.872c-6.433,0-11.667,5.289-11.722,11.722    c0.055,6.488,5.289,11.722,11.722,11.722h3.762c2.29,0,4.089,1.854,4.089,4.089c0,1.145-0.436,2.181-1.199,2.89    c-0.709,0.763-1.745,1.199-2.89,1.199H24.92c-10.959,0-19.9-8.887-19.9-19.9c0-10.959,8.941-19.9,19.9-19.9    c1.254,0,2.508,0.109,3.707,0.382C33.044,10.582,41.876,5.02,51.963,5.02c7.36,0,14.066,2.999,18.864,7.796    c3.925,3.925,6.652,9.05,7.469,14.83c0.436-0.055,0.872-0.055,1.309-0.055c4.253,0,8.124,1.745,10.904,4.471    C93.289,34.843,94.98,38.714,94.98,42.967z"/></g></g><text x="0" y="115" fill="#000000" font-size="5px" font-weight="bold" font-family="'Helvetica Neue', Helvetica, Arial-Unicode, Arial, Sans-serif">Created by Pumpkin Juice</text><text x="0" y="120" fill="#000000" font-size="5px" font-weight="bold" font-family="'Helvetica Neue', Helvetica, Arial-Unicode, Arial, Sans-serif">from the Noun Project</text></svg>