<svg xmlns="http://www.w3.org/2000/svg" xmlns:xlink="http://www.w3.org/1999/xlink" version="1.1" x="0px" y="0px" viewBox="0 0 100 125" enable-background="new 0 0 100 100" xml:space="preserve"><g><g><path fill="#000000" d="M49.999,94.98c-1.09,0-2.072-0.436-2.89-1.199L32.28,78.896c-1.636-1.581-1.636-4.144,0-5.779    c1.581-1.581,4.144-1.581,5.779,0l7.851,7.905v-26.77v-0.109c0-2.29,1.854-4.089,4.089-4.089c2.29,0,4.089,1.799,4.089,4.089    v0.109v26.77l7.905-7.905c1.636-1.581,4.198-1.581,5.779,0c1.636,1.636,1.636,4.198,0,5.779L52.943,93.78h-0.055    c-0.055,0.109-0.164,0.164-0.273,0.218c-0.109,0.164-0.218,0.218-0.327,0.273c-0.218,0.164-0.436,0.273-0.709,0.382    C51.09,94.871,50.599,94.98,49.999,94.98z"/><path fill="#000000" d="M90.508,53.816c-2.726,2.781-6.597,4.525-10.904,4.525H64.884c-2.235,0-4.089-1.799-4.089-4.089    c0-2.235,1.854-4.089,4.089-4.089h14.721c2.072,0,3.762-0.763,5.125-2.126c1.308-1.254,2.072-3.053,2.072-5.07    c0-4.035-3.162-7.197-7.197-7.197c-1.199,0-2.181,0.273-3.108,0.709l-0.055,0.055c-1.199,0.654-2.562,0.654-3.707,0.055    c-0.218-0.055-0.436-0.164-0.6-0.327c-0.218-0.109-0.436-0.327-0.6-0.491c-0.164-0.164-0.327-0.382-0.436-0.6    c-0.109-0.164-0.218-0.327-0.273-0.491c-0.109-0.218-0.164-0.491-0.273-0.709c0-0.055,0-0.055,0-0.109    c-0.055-0.273-0.109-0.6-0.109-0.872c0-0.055,0-0.164,0-0.218l0.055-1.09v-0.164c-0.109-10.195-8.342-18.319-18.483-18.319    c-7.96,0-14.721,4.961-17.283,11.995c0,0.055-0.055,0.109-0.055,0.164c-0.055,0.109-0.055,0.164-0.164,0.273    c-0.109,0.273-0.273,0.545-0.491,0.763c-0.273,0.327-0.6,0.6-0.927,0.818c-0.164,0.109-0.382,0.218-0.6,0.273    c-0.981,0.491-2.126,0.545-3.162,0.109c-1.363-0.6-2.726-0.872-4.416-0.872c-6.433,0-11.667,5.289-11.722,11.722    c0.055,6.488,5.289,11.722,11.722,11.722h10.25c2.235,0,4.089,1.854,4.089,4.089c0,2.29-1.854,4.089-4.089,4.089H24.92    c-10.959,0-19.846-8.887-19.9-19.9c0.055-10.959,8.941-19.9,19.9-19.9c1.254,0,2.508,0.109,3.707,0.382    C33.098,10.582,41.93,5.02,52.017,5.02c7.306,0,14.012,2.999,18.81,7.796c3.925,3.925,6.652,9.05,7.524,14.83    c0.436-0.055,0.818-0.055,1.254-0.055c4.253,0,8.124,1.745,10.904,4.471c2.781,2.781,4.525,6.652,4.471,10.904    C94.979,47.165,93.289,51.036,90.508,53.816z"/></g></g><text x="0" y="115" fill="#000000" font-size="5px" font-weight="bold" font-family="'Helvetica Neue', Helvetica, Arial-Unicode, Arial, Sans-serif">Created by Pumpkin Juice</text><text x="0" y="120" fill="#000000" font-size="5px" font-weight="bold" font-family="'Helvetica Neue', Helvetica, Arial-Unicode, Arial, Sans-serif">from the Noun Project</text></svg>