<?xml version="1.0" encoding="UTF-8" standalone="no"?>
<svg
   xmlns:dc="http://purl.org/dc/elements/1.1/"
   xmlns:cc="http://creativecommons.org/ns#"
   xmlns:rdf="http://www.w3.org/1999/02/22-rdf-syntax-ns#"
   xmlns:svg="http://www.w3.org/2000/svg"
   xmlns="http://www.w3.org/2000/svg"
   xmlns:sodipodi="http://sodipodi.sourceforge.net/DTD/sodipodi-0.dtd"
   xmlns:inkscape="http://www.inkscape.org/namespaces/inkscape"
   xml:space="preserve"
   enable-background="new 0 0 400 400"
   viewBox="0 0 367 250"
   height="250"
   width="367"
   y="0px"
   x="0px"
   id="Layer_1"
   version="1.1"
   inkscape:version="0.91 r13725"
   sodipodi:docname="numeric.svg"><sodipodi:namedview
     pagecolor="#ffffff"
     bordercolor="#666666"
     borderopacity="1"
     objecttolerance="10"
     gridtolerance="10"
     guidetolerance="10"
     inkscape:pageopacity="0"
     inkscape:pageshadow="2"
     inkscape:window-width="1536"
     inkscape:window-height="801"
     id="namedview9531"
     showgrid="false"
     inkscape:zoom="1.888"
     inkscape:cx="108.56873"
     inkscape:cy="214.30484"
     inkscape:window-x="-8"
     inkscape:window-y="-8"
     inkscape:window-maximized="1"
     inkscape:current-layer="Layer_1" /><metadata
     id="metadata101"><rdf:RDF><cc:Work
         rdf:about=""><dc:format>image/svg+xml</dc:format><dc:type
           rdf:resource="http://purl.org/dc/dcmitype/StillImage" /><dc:title></dc:title></cc:Work></rdf:RDF></metadata><defs
     id="defs99" /><g
     transform="translate(-25.994625,-118.13425)"
     id="g85"><path
       style="fill:#333333"
       id="path87"
       d="m 212.338,214.682 -12.226,12.227 -9.495,9.494 -6.863,6.862 c -0.011,-0.044 -0.021,-0.076 -0.021,-0.076 0,0 -2.259,2.769 -6.391,1.66 0,0 0,0.023 0,0.037 l -17.64,-4.727 c -4.391,-1.179 -5.715,-5.671 -5.733,-5.731 l -4.74,-17.692 c -0.839,-3.141 0.553,-5.193 1.272,-6.002 l 7.223,-7.223 9.494,-9.494 12.306,-12.306 c 2.927,-2.926 -0.312,-4.452 -0.42,-4.503 -17.071,-4.231 -35.869,0.309 -49.213,13.651 -13.062,13.062 -17.685,31.353 -13.9,48.134 l -0.005,-0.001 c 0,0 1,4.635 -3.958,9.593 L 32.104,328.51 c -8.146,8.146 -8.146,21.354 10e-4,29.501 l 4.013,4.013 c 8.148,8.147 21.355,8.147 29.501,0 l 80.973,-80.972 c 3.729,-3.138 7.074,-3.115 8.138,-3.008 16.891,3.949 35.372,-0.641 48.539,-13.809 13.352,-13.351 17.889,-32.162 13.645,-49.24 -0.228,-0.416 -1.827,-3.063 -4.576,-0.313 z M 54.391,350.323 c -2.923,2.923 -7.663,2.923 -10.584,0 -2.924,-2.923 -2.924,-7.662 0,-10.585 2.921,-2.923 7.661,-2.923 10.584,0 2.923,2.922 2.923,7.662 0,10.585 z" /><path
       style="fill:#333333"
       id="path89"
       d="m 390.354,186.458 -187.263,0 c -0.929,0 -1.818,0.369 -2.475,1.025 l -11.523,11.523 -17.388,-4.66 -15.938,15.939 5.833,21.77 21.77,5.834 15.938,-15.938 -4.916,-18.347 10.147,-10.147 185.814,0 c 1.933,0 3.5,-1.567 3.5,-3.5 0,-1.933 -1.566,-3.499 -3.499,-3.499 z m -212.817,40.271 c -5.858,0 -10.61,-4.75 -10.61,-10.61 0,-5.859 4.752,-10.609 10.61,-10.609 5.86,0 10.61,4.75 10.61,10.609 0,5.86 -4.75,10.609 -10.61,10.61 z" /></g><g
     style="fill:#333333;fill-opacity:1"
     transform="matrix(1,0,0,0.65098339,-24.709041,-126.07237)"
     id="g51"><g
       style="fill:#333333;fill-opacity:1"
       id="VGM4vC_2_" /><g
       id="g10702"
       transform="translate(-8.6132812,234.39598)"><path
         id="path53"
         transform="matrix(1,0,0,1.5361375,24.709041,193.6645)"
         d="m 14.566406,-151.58789 c -3.288,0 -5.9531248,1.70836 -5.9531248,3.81641 l 0,66.275384 c 0,2.107409 2.6653858,3.857796 5.9531248,3.816406 l 79.433594,0 0,-6.908203 -79.386719,0 0,-59.999997 355.640999,0 0,59.999997 -185.15272,0 0,6.908203 191.15235,0 -0.28711,-73.77148 -112.71289,-0.13672 z"
         style="fill:#333333;fill-opacity:1"
         inkscape:connector-curvature="0"
         sodipodi:nodetypes="sssscccccccccccs" /></g></g><g
     style="font-style:italic;font-variant:normal;font-weight:bold;font-stretch:normal;font-size:54.82456207px;line-height:125%;font-family:'Ubuntu Mono';-inkscape-font-specification:'Ubuntu Mono Bold Italic';letter-spacing:0px;word-spacing:0px;fill:#333333;fill-opacity:1;stroke:none;stroke-width:1px;stroke-linecap:butt;stroke-linejoin:miter;stroke-opacity:1"
     id="text11278"
     transform="translate(6.3559322,76.899495)"><path
       d="m 48.079249,-30.149234 4.714913,-19.627193 q -1.864035,1.260964 -4.002193,2.302631 -2.138158,1.041667 -3.563597,1.535088 l -1.589912,-5.482456 q 1.480263,-0.493421 3.125,-1.260965 1.699561,-0.767544 3.399123,-1.699562 1.699561,-0.932017 3.289473,-1.973684 1.589913,-1.041667 2.850878,-2.138158 l 5.317982,0 -6.798246,28.344299 6.743422,0 -1.31579,5.592105 -20.614035,0 1.315789,-5.592105 7.127193,0 z"
       style="fill:#333333;fill-opacity:1"
       id="path11283"
       inkscape:connector-curvature="0" /><path
       d="m 83.550741,-59.261077 q 2.192982,0 3.892544,0.657895 1.699561,0.60307 2.850877,1.699561 1.151316,1.096492 1.754386,2.52193 0.60307,1.425439 0.60307,3.070176 0,2.412281 -0.932017,4.385965 -0.932018,1.973684 -2.467106,3.673245 -1.480263,1.644737 -3.453947,3.125 -1.973684,1.480264 -4.057018,2.960527 -3.179824,2.192982 -5.043859,3.837719 -1.809211,1.589912 -2.741228,3.179825 l 15.131579,0 -1.31579,5.592105 -21.984649,0 q 0.328947,-2.905702 1.260965,-5.153509 0.986842,-2.302631 2.467105,-4.166666 1.480263,-1.864036 3.399123,-3.453948 1.91886,-1.644737 4.221491,-3.289474 2.357456,-1.699561 4.002193,-2.960526 1.699562,-1.315789 2.741228,-2.357456 1.041667,-1.096491 1.535088,-2.083333 0.493421,-0.986843 0.493421,-2.083334 0,-1.480263 -0.877193,-2.357456 -0.877193,-0.932018 -2.850877,-0.932018 -1.973684,0 -4.166667,0.877193 -2.138158,0.822369 -4.221491,2.412281 l -2.192983,-4.879386 q 2.850878,-2.247807 5.921053,-3.234649 3.070176,-1.041667 6.030702,-1.041667 z"
       style="fill:#333333;fill-opacity:1"
       id="path11285"
       inkscape:connector-curvature="0" /><path
       d="m 112.22399,-42.429936 q 2.52193,1.151316 3.72807,3.125 1.20614,1.91886 1.20614,4.221491 0,2.028509 -0.76755,4.057018 -0.76754,1.973684 -2.52193,3.618421 -1.75438,1.589912 -4.60526,2.576754 -2.79605,0.986842 -6.85307,0.986842 -2.686403,0 -5.153508,-0.548245 -2.412281,-0.548246 -4.660088,-1.809211 l 2.302631,-5.263158 q 1.535088,0.932018 3.618421,1.535088 2.083334,0.60307 4.276314,0.60307 1.53509,0 2.9057,-0.274123 1.37062,-0.328947 2.41228,-1.041666 1.04167,-0.71272 1.64474,-1.864035 0.6579,-1.151316 0.6579,-2.850878 0,-2.247807 -1.75439,-3.289473 -1.69956,-1.041667 -4.76974,-1.041667 l -2.2478,0 1.37061,-5.317983 2.79605,0 q 1.09649,0 2.30263,-0.219298 1.26097,-0.274123 2.30264,-0.877193 1.09649,-0.657895 1.75438,-1.644737 0.71272,-1.041666 0.71272,-2.576754 0,-1.644737 -1.26096,-2.52193 -1.20614,-0.877193 -3.125,-0.877193 -1.42544,0 -3.17983,0.548246 -1.75438,0.493421 -3.50877,1.480263 l -1.69956,-4.934211 q 2.30263,-1.20614 4.82456,-1.918859 2.57675,-0.71272 4.76974,-0.71272 2.02851,0 3.78289,0.493421 1.80921,0.438597 3.125,1.370614 1.37062,0.932018 2.13816,2.357457 0.76754,1.370614 0.76754,3.289473 0,3.015351 -1.75438,5.427632 -1.75439,2.412281 -5.53728,3.892544 z"
       style="fill:#333333;fill-opacity:1"
       id="path11287"
       inkscape:connector-curvature="0" /><path
       d="m 140.07487,-51.092217 q -3.07018,2.850877 -6.35965,6.359649 -3.23465,3.453948 -5.86623,6.798246 l 9.04605,0 3.17983,-13.157895 z m 8.11403,-7.401316 -4.93421,20.559211 3.61842,0 -1.31579,5.372807 -3.61842,0 -1.91886,8.004386 -6.35965,0 1.86404,-8.004386 -14.96711,0 1.20614,-5.04386 q 1.53509,-2.138158 3.83772,-4.824561 2.35746,-2.686404 4.98904,-5.482456 2.6864,-2.850878 5.53728,-5.592106 2.85088,-2.741228 5.48246,-4.989035 l 6.57894,0 z"
       style="fill:#333333;fill-opacity:1"
       id="path11289"
       inkscape:connector-curvature="0" /><path
       d="m 150.05293,-31.574673 q 1.75439,1.096491 3.67325,1.644737 1.91886,0.493421 3.72807,0.493421 7.78509,0 7.78509,-5.921053 0,-2.467105 -2.9057,-3.892544 -2.85088,-1.480263 -9.48465,-1.589912 1.58991,-4.660088 3.01535,-9.046053 1.42544,-4.440789 2.52193,-8.607456 l 17.81798,0 -1.31579,5.592106 -12.39035,0 q -0.54825,2.028508 -1.15132,3.947368 -0.60307,1.91886 -1.09649,3.179825 3.01535,0.274122 5.20834,1.151315 2.19298,0.822369 3.61842,2.138158 1.42544,1.31579 2.13816,3.015351 0.71272,1.699562 0.71272,3.563597 0,5.482456 -3.61843,8.77193 -3.61842,3.289473 -10.69079,3.289473 -2.63157,0 -5.20833,-0.548245 -2.57675,-0.548246 -4.87939,-1.754386 l 2.52193,-5.427632 z"
       style="fill:#333333;fill-opacity:1"
       id="path11291"
       inkscape:connector-curvature="0" /><path
       d="m 202.90381,-53.285199 q -2.85088,0 -5.53728,0.383772 -2.68641,0.383771 -4.98904,1.370614 -2.30263,0.986842 -4.16666,2.796052 -1.80921,1.809211 -2.96053,4.660088 1.75439,-1.041667 3.61842,-1.425439 1.91886,-0.438596 3.28947,-0.438596 1.80922,0 3.3443,0.60307 1.58992,0.548246 2.74123,1.699561 1.20614,1.096492 1.86404,2.796053 0.71272,1.644737 0.71272,3.892544 0,3.179825 -1.04167,5.64693 -1.04167,2.412281 -2.79605,4.111842 -1.75439,1.644737 -4.11185,2.52193 -2.30263,0.822368 -4.87938,0.822368 -2.24781,0 -4.22149,-0.767543 -1.97369,-0.767544 -3.39913,-2.247808 -1.42543,-1.535087 -2.2478,-3.72807 -0.82237,-2.247807 -0.82237,-5.153509 0,-4.33114 1.42544,-8.442982 1.48026,-4.166667 4.49561,-7.401316 3.07018,-3.234649 7.73026,-5.153509 4.71492,-1.973684 11.12939,-1.973684 0.27412,0 0.76754,0.05482 0.54825,0 0.82237,0 l -0.76754,5.372808 z m -8.49781,16.83114 q 0,-1.315789 -0.38377,-2.138158 -0.38377,-0.877193 -1.04167,-1.370614 -0.65789,-0.493421 -1.53508,-0.712719 -0.82237,-0.219298 -1.80922,-0.219298 -1.31578,0 -2.6864,0.328947 -1.37061,0.328947 -2.63158,0.822368 -0.27412,0.986843 -0.43859,2.028509 -0.16448,0.986842 -0.16448,2.083334 0,1.260964 0.27412,2.41228 0.32895,1.151316 0.93202,2.028509 0.60307,0.822369 1.48027,1.31579 0.93201,0.493421 2.19298,0.493421 2.63158,0 4.22149,-1.864035 1.58991,-1.91886 1.58991,-5.208334 z"
       style="fill:#333333;fill-opacity:1"
       id="path11293"
       inkscape:connector-curvature="0" /><path
       d="m 207.07049,-24.557129 q 0.98684,-3.673246 2.79605,-7.620614 1.86403,-3.947369 4.11184,-7.675439 2.24781,-3.782895 4.71491,-7.072368 2.52193,-3.344299 4.87939,-5.811404 l -15.4057,0 1.37061,-5.756579 23.62939,0 -1.20614,4.934211 q -1.91886,1.589912 -4.49562,4.605263 -2.52193,2.960526 -5.09868,6.85307 -2.57675,3.892544 -4.82456,8.388158 -2.24781,4.495614 -3.5636,9.155702 l -6.90789,0 z"
       style="fill:#333333;fill-opacity:1"
       id="path11295"
       inkscape:connector-curvature="0" /><path
       d="m 231.41259,-32.122918 q 0,-1.589913 0.4386,-2.905702 0.43859,-1.370614 1.37061,-2.576755 0.93202,-1.260965 2.41228,-2.41228 1.48026,-1.206141 3.5636,-2.52193 -1.26097,-1.31579 -2.13816,-2.796053 -0.87719,-1.480263 -0.87719,-3.508772 0,-1.91886 0.71271,-3.782895 0.71272,-1.864035 2.19299,-3.344298 1.48026,-1.480263 3.72807,-2.357456 2.2478,-0.932018 5.31798,-0.932018 2.02851,0 3.72807,0.60307 1.75439,0.548246 3.01535,1.589913 1.26097,0.986842 1.97369,2.467105 0.76754,1.425439 0.76754,3.234649 0,1.096491 -0.27412,2.302632 -0.27413,1.151316 -1.04167,2.412281 -0.76754,1.20614 -2.19298,2.467105 -1.42544,1.260965 -3.7829,2.412281 1.80921,1.260965 3.07018,2.960526 1.31579,1.699561 1.31579,4.385965 0,2.192982 -0.8772,4.111842 -0.82236,1.91886 -2.4671,3.399123 -1.64474,1.425439 -4.11184,2.247807 -2.41228,0.822368 -5.59211,0.822368 -1.75438,0 -3.61842,-0.438596 -1.80921,-0.438597 -3.28947,-1.370614 -1.48027,-0.986842 -2.41228,-2.576755 -0.93202,-1.589912 -0.93202,-3.892543 z m 16.77631,-2.138158 q 0,-2.083334 -1.42543,-3.289474 -1.42544,-1.260965 -3.50878,-2.357456 -1.69956,0.822368 -2.74122,1.699561 -1.04167,0.822369 -1.64474,1.699562 -0.60307,0.877193 -0.82237,1.754386 -0.2193,0.877193 -0.2193,1.754386 0,1.918859 1.31579,2.905701 1.37062,0.932018 3.28948,0.932018 1.15131,0 2.19298,-0.328947 1.04166,-0.383772 1.80921,-1.041667 0.82237,-0.657895 1.26096,-1.589912 0.49342,-0.986843 0.49342,-2.138158 z m -5.8114,-15.02193 q 0,1.754386 1.09649,2.905701 1.09649,1.151316 2.63158,2.083334 3.125,-1.480263 4.16667,-3.015351 1.04166,-1.535088 1.04166,-3.015351 0,-1.754386 -1.09649,-2.631579 -1.04166,-0.932018 -2.96052,-0.932018 -2.30263,0 -3.61842,1.31579 -1.26097,1.315789 -1.26097,3.289474 z"
       style="fill:#333333;fill-opacity:1"
       id="path11297"
       inkscape:connector-curvature="0" /><path
       d="m 272.42136,-42.375112 q 1.26096,0 2.63158,-0.328947 1.42543,-0.328947 2.6864,-0.822368 0.27412,-1.041667 0.38377,-1.973685 0.16448,-0.986842 0.16448,-2.028508 0,-2.52193 -1.20614,-4.276316 -1.15132,-1.809211 -3.61843,-1.809211 -2.63157,0 -4.27631,1.699562 -1.58991,1.699561 -1.58991,5.153508 0,2.52193 1.42543,3.453948 1.42544,0.932017 3.39913,0.932017 z m -2.57676,4.989036 q -1.80921,0 -3.39912,-0.548246 -1.53509,-0.548246 -2.74123,-1.644737 -1.15131,-1.151316 -1.86403,-2.796053 -0.6579,-1.644736 -0.6579,-3.892543 0,-3.179825 1.04167,-5.592106 1.04167,-2.467105 2.79605,-4.111842 1.75439,-1.644737 4.05702,-2.467105 2.35746,-0.822369 4.93421,-0.822369 2.24781,0 4.22149,0.767544 1.97369,0.767544 3.39912,2.302632 1.48027,1.480263 2.30264,3.72807 0.82236,2.192982 0.82236,5.098684 0,4.385965 -1.48026,8.552632 -1.42544,4.111842 -4.49561,7.346491 -3.01535,3.179825 -7.67544,5.153509 -4.60527,1.973684 -11.01974,1.973684 -0.27412,0 -0.82237,-0.05482 -0.49342,0 -0.82237,-0.05482 l 0.82237,-5.317982 q 2.85088,0 5.48246,-0.383772 2.6864,-0.383772 4.98903,-1.425439 2.30264,-1.041667 4.11185,-2.850877 1.86403,-1.864035 3.01535,-4.824562 -1.75439,1.041667 -3.67325,1.480264 -1.91886,0.383772 -3.3443,0.383772 z"
       style="fill:#333333;fill-opacity:1"
       id="path11299"
       inkscape:connector-curvature="0" /><path
       d="m 297.03758,-33.712831 q 1.91886,0 3.125,1.096491 1.26097,1.096492 1.26097,3.23465 0,1.20614 -0.4386,2.247807 -0.4386,0.986842 -1.20614,1.699561 -0.71272,0.712719 -1.69956,1.096491 -0.93202,0.438597 -1.91886,0.438597 -1.91886,0 -3.17983,-1.096491 -1.20614,-1.096492 -1.20614,-3.289474 0,-1.20614 0.4386,-2.192983 0.4386,-0.986842 1.15132,-1.699561 0.76754,-0.712719 1.69956,-1.096491 0.98684,-0.438597 1.97368,-0.438597 z"
       style="fill:#333333;fill-opacity:1"
       id="path11301"
       inkscape:connector-curvature="0" /><path
       d="m 330.31609,-59.261077 q 4.38596,0 6.85307,2.850878 2.4671,2.850877 2.4671,7.675438 0,2.138158 -0.32894,4.824562 -0.32895,2.686403 -1.0965,5.482456 -0.76754,2.741228 -2.0285,5.372807 -1.20614,2.631579 -3.01536,4.714912 -1.75438,2.028509 -4.16666,3.289474 -2.41228,1.20614 -5.48246,1.20614 -2.19298,0 -3.94737,-0.712719 -1.69956,-0.767544 -2.9057,-2.138158 -1.20614,-1.425438 -1.86403,-3.344298 -0.6579,-1.91886 -0.6579,-4.331141 0,-2.138157 0.32895,-4.824561 0.32895,-2.686404 1.09649,-5.427632 0.76754,-2.796052 1.97368,-5.427631 1.26097,-2.631579 3.01536,-4.660088 1.80921,-2.083333 4.22149,-3.289474 2.41228,-1.260965 5.53728,-1.260965 z m -6.19518,29.769738 q 1.53509,0 2.79605,-0.877193 1.31579,-0.932018 2.35746,-2.412281 1.04167,-1.535088 1.80921,-3.453948 0.76755,-1.973684 1.26097,-4.057017 0.54824,-2.138158 0.76754,-4.221492 0.27412,-2.083333 0.27412,-3.837719 0,-2.247807 -0.82237,-3.72807 -0.76754,-1.535088 -2.85087,-1.535088 -1.53509,0 -2.85088,0.932018 -1.31579,0.877193 -2.35746,2.41228 -1.04166,1.480264 -1.80921,3.453948 -0.76754,1.973684 -1.31579,4.057017 -0.49342,2.083334 -0.76754,4.166667 -0.2193,2.083334 -0.2193,3.83772 0,2.247807 0.82237,3.782894 0.82237,1.480264 2.9057,1.480264 z m 2.35746,-8.991229 q -1.37062,0 -1.97369,-0.712719 -0.60307,-0.712719 -0.60307,-1.754386 0,-1.20614 0.38378,-2.083333 0.38377,-0.932018 0.93201,-1.535088 0.54825,-0.60307 1.20614,-0.877193 0.6579,-0.328947 1.20614,-0.328947 1.37062,0 1.91886,0.767543 0.60307,0.71272 0.60307,1.754386 0,1.206141 -0.38377,2.138158 -0.38377,0.877193 -0.93202,1.480264 -0.54824,0.548245 -1.20614,0.877193 -0.60307,0.274122 -1.15131,0.274122 z"
       style="fill:#333333;fill-opacity:1"
       id="path11303"
       inkscape:connector-curvature="0" /></g></svg>