<?xml version="1.0" encoding="UTF-8" standalone="no"?>
<svg
   xmlns:dc="http://purl.org/dc/elements/1.1/"
   xmlns:cc="http://creativecommons.org/ns#"
   xmlns:rdf="http://www.w3.org/1999/02/22-rdf-syntax-ns#"
   xmlns:svg="http://www.w3.org/2000/svg"
   xmlns="http://www.w3.org/2000/svg"
   xml:space="preserve"
   enable-background="new 0 0 400 400"
   viewBox="0 0 367 250"
   height="250"
   width="367"
   y="0px"
   x="0px"
   id="Layer_1"
   version="1.1"><metadata
     id="metadata101"><rdf:RDF><cc:Work
         rdf:about=""><dc:format>image/svg+xml</dc:format><dc:type
           rdf:resource="http://purl.org/dc/dcmitype/StillImage" /><dc:title></dc:title></cc:Work></rdf:RDF></metadata><defs
     id="defs99" /><g
     transform="translate(-25.994625,-118.13425)"
     id="g85"><path
       style="fill:#333333"
       id="path87"
       d="m 212.338,214.682 -12.226,12.227 -9.495,9.494 -6.863,6.862 c -0.011,-0.044 -0.021,-0.076 -0.021,-0.076 0,0 -2.259,2.769 -6.391,1.66 0,0 0,0.023 0,0.037 l -17.64,-4.727 c -4.391,-1.179 -5.715,-5.671 -5.733,-5.731 l -4.74,-17.692 c -0.839,-3.141 0.553,-5.193 1.272,-6.002 l 7.223,-7.223 9.494,-9.494 12.306,-12.306 c 2.927,-2.926 -0.312,-4.452 -0.42,-4.503 -17.071,-4.231 -35.869,0.309 -49.213,13.651 -13.062,13.062 -17.685,31.353 -13.9,48.134 l -0.005,-0.001 c 0,0 1,4.635 -3.958,9.593 L 32.104,328.51 c -8.146,8.146 -8.146,21.354 10e-4,29.501 l 4.013,4.013 c 8.148,8.147 21.355,8.147 29.501,0 l 80.973,-80.972 c 3.729,-3.138 7.074,-3.115 8.138,-3.008 16.891,3.949 35.372,-0.641 48.539,-13.809 13.352,-13.351 17.889,-32.162 13.645,-49.24 -0.228,-0.416 -1.827,-3.063 -4.576,-0.313 z M 54.391,350.323 c -2.923,2.923 -7.663,2.923 -10.584,0 -2.924,-2.923 -2.924,-7.662 0,-10.585 2.921,-2.923 7.661,-2.923 10.584,0 2.923,2.922 2.923,7.662 0,10.585 z" /><path
       style="fill:#333333"
       id="path89"
       d="m 390.354,186.458 -187.263,0 c -0.929,0 -1.818,0.369 -2.475,1.025 l -11.523,11.523 -17.388,-4.66 -15.938,15.939 5.833,21.77 21.77,5.834 15.938,-15.938 -4.916,-18.347 10.147,-10.147 185.814,0 c 1.933,0 3.5,-1.567 3.5,-3.5 0,-1.933 -1.566,-3.499 -3.499,-3.499 z m -212.817,40.271 c -5.858,0 -10.61,-4.75 -10.61,-10.61 0,-5.859 4.752,-10.609 10.61,-10.609 5.86,0 10.61,4.75 10.61,10.609 0,5.86 -4.75,10.609 -10.61,10.61 z" /><g
       transform="matrix(0.72160891,0,0,0.72160891,42.389937,37.898088)"
       style="font-style:normal;font-variant:normal;font-weight:bold;font-stretch:normal;font-size:90px;line-height:125%;font-family:'Ubuntu Mono';-inkscape-font-specification:'Ubuntu Mono Bold';letter-spacing:0px;word-spacing:0px;fill:#333333;fill-opacity:1;stroke:none;stroke-width:1px;stroke-linecap:butt;stroke-linejoin:miter;stroke-opacity:1"
       id="flowRoot11395"><g
         transform="matrix(1.6568483,0,0,1.6568483,1220.9783,23.178987)"
         id="text7223"
         style="font-style:normal;font-variant:normal;font-weight:bold;font-stretch:normal;font-size:55.4316864px;line-height:125%;font-family:'Ubuntu Mono';-inkscape-font-specification:'Ubuntu Mono Bold';letter-spacing:0px;word-spacing:0px;fill:#333333;fill-opacity:1;stroke:none;stroke-width:1px;stroke-linecap:butt;stroke-linejoin:miter;stroke-opacity:1"><path
           id="path7236"
           d="m -735.65291,87.262254 q 1.71838,0 2.82702,-0.33259 1.16406,-0.388021 1.82924,-0.99777 0.66518,-0.66518 0.88691,-1.441224 0.27716,-0.831475 0.27716,-1.66295 0,-1.053202 -0.60975,-1.884678 -0.60975,-0.831475 -1.55209,-1.441224 -0.94234,-0.66518 -2.1064,-1.164065 -1.16407,-0.554317 -2.32813,-0.99777 -1.55209,-0.554317 -3.21504,-1.274929 -1.66295,-0.720612 -3.04874,-1.829246 -1.33036,-1.108634 -2.21727,-2.716152 -0.88691,-1.662951 -0.88691,-4.101945 0,-4.822557 3.10418,-7.53871 3.1596,-2.716152 8.64734,-2.716152 3.1596,0 5.48774,0.720612 2.38356,0.720612 3.99108,1.607519 l -1.99554,5.26601 q -1.3858,-0.776044 -3.10418,-1.330361 -1.66295,-0.554317 -3.88022,-0.554317 -5.4323,0 -5.4323,3.93565 0,0.997771 0.55432,1.773814 0.55431,0.720612 1.38579,1.330361 0.8869,0.554317 1.94011,0.99777 1.10863,0.443453 2.16183,0.831475 1.60752,0.609749 3.3259,1.385792 1.77382,0.720612 3.21504,1.995541 1.49666,1.219497 2.439,3.104175 0.94233,1.829245 0.94233,4.656261 0,4.822557 -3.1596,7.483278 -3.10418,2.605289 -9.47882,2.605289 -4.26824,0 -6.8181,-0.886907 -2.54986,-0.942338 -3.82478,-1.718382 l 1.99554,-5.543169 q 1.49665,0.886907 3.54762,1.662951 2.10641,0.776043 5.09972,0.776043 z" /><path
           id="path7238"
           d="m -712.87049,71.852246 -5.93119,0 0,-5.654032 5.93119,0 0,-6.540939 6.8181,-1.108634 0,7.649573 10.92004,0 0,5.654032 -10.92004,0 0,10.53202 q 0,1.441224 0.27716,2.328131 0.27716,0.886907 0.77604,1.385792 0.49889,0.498885 1.2195,0.66518 0.72061,0.166295 1.60752,0.166295 0.94234,0 1.71838,-0.05543 0.83148,-0.05543 1.55209,-0.166295 0.77604,-0.166295 1.55209,-0.443454 0.83147,-0.277158 1.77381,-0.720612 l 0.94234,5.875759 q -1.88468,0.776044 -4.10195,1.108634 -2.16183,0.33259 -4.21281,0.33259 -2.38356,0 -4.2128,-0.388022 -1.82925,-0.388022 -3.10418,-1.496656 -1.27493,-1.108633 -1.94011,-3.104174 -0.66518,-2.050972 -0.66518,-5.321442 l 0,-10.698315 z" /><path
           id="path7240"
           d="m -679.16802,87.373118 q 1.10863,0 2.16183,0 1.05321,-0.05543 1.82925,-0.166295 l 0,-5.986622 q -0.66518,-0.110864 -1.60752,-0.166295 -0.94234,-0.110864 -1.71838,-0.110864 -1.0532,0 -2.05097,0.166295 -0.99777,0.110864 -1.77382,0.443454 -0.72061,0.33259 -1.16406,0.942338 -0.44346,0.609749 -0.44346,1.607519 0,1.773814 1.33036,2.549858 1.33036,0.720612 3.43677,0.720612 z m -0.60975,-21.840085 q 3.21504,0 5.32144,0.776044 2.16184,0.720612 3.43677,2.106404 1.27492,1.330361 1.82924,3.325901 0.55432,1.940109 0.55432,4.379104 l 0,15.520872 q -1.49666,0.33259 -4.43454,0.776043 -2.93788,0.443454 -6.59637,0.443454 -2.49442,0 -4.5454,-0.443454 -1.99554,-0.443453 -3.43676,-1.441224 -1.44122,-1.053202 -2.21727,-2.66072 -0.77604,-1.662951 -0.77604,-4.046514 0,-2.272699 0.88691,-3.824786 0.8869,-1.552087 2.38356,-2.494426 1.49665,-0.942338 3.43676,-1.33036 1.94011,-0.443454 4.04652,-0.443454 2.66072,0 4.71169,0.443454 l 0,-0.831476 q 0,-1.940109 -1.2195,-3.215037 -1.21949,-1.330361 -4.21281,-1.330361 -1.9401,0 -3.76935,0.277159 -1.77381,0.277158 -2.88245,0.66518 l -0.94234,-5.487737 q 1.27493,-0.443454 3.60306,-0.776044 2.32813,-0.388022 4.82256,-0.388022 z" /><path
           id="path7242"
           d="m -657.4388,71.852246 -5.93119,0 0,-5.654032 5.93119,0 0,-6.540939 6.8181,-1.108634 0,7.649573 10.92004,0 0,5.654032 -10.92004,0 0,10.53202 q 0,1.441224 0.27716,2.328131 0.27715,0.886907 0.77604,1.385792 0.49888,0.498885 1.2195,0.66518 0.72061,0.166295 1.60751,0.166295 0.94234,0 1.71839,-0.05543 0.83147,-0.05543 1.55208,-0.166295 0.77605,-0.166295 1.55209,-0.443454 0.83148,-0.277158 1.77382,-0.720612 l 0.94233,5.875759 q -1.88467,0.776044 -4.10194,1.108634 -2.16184,0.33259 -4.21281,0.33259 -2.38356,0 -4.21281,-0.388022 -1.82924,-0.388022 -3.10417,-1.496656 -1.27493,-1.108633 -1.94011,-3.104174 -0.66518,-2.050972 -0.66518,-5.321442 l 0,-10.698315 z" /><path
           id="path7244"
           d="m -621.90709,58.714936 q 0,1.995541 -1.27493,3.159606 -1.27493,1.164066 -3.04874,1.164066 -1.77382,0 -3.04874,-1.164066 -1.2195,-1.164065 -1.2195,-3.159606 0,-2.050972 1.2195,-3.215038 1.27492,-1.164065 3.04874,-1.164065 1.77381,0 3.04874,1.164065 1.27493,1.164066 1.27493,3.215038 z m 10.144,32.427537 q -2.10641,0.99777 -3.99108,1.33036 -1.82925,0.388022 -3.38134,0.388022 -2.66072,0 -4.48996,-0.776044 -1.77382,-0.776043 -2.88245,-2.217267 -1.0532,-1.496656 -1.49666,-3.60306 -0.44345,-2.106404 -0.44345,-4.822557 l 0,-9.589681 -7.20612,0 0,-5.654032 14.02422,0 0,16.13062 q 0,2.328131 0.83147,3.492197 0.88691,1.108633 2.88245,1.108633 0.94234,0 2.2727,-0.221726 1.33036,-0.277159 2.99331,-1.053202 l 0.88691,5.487737 z" /><path
           id="path7246"
           d="m -607.49484,79.22466 q 0,-2.827016 0.8869,-5.321442 0.88691,-2.494426 2.71616,-4.323671 1.82924,-1.884678 4.60083,-2.93788 2.82701,-1.108634 6.70723,-1.108634 2.32813,0 4.21281,0.332591 1.88468,0.33259 3.82478,1.108633 l -1.49665,5.487737 q -1.10863,-0.388022 -2.49443,-0.66518 -1.33036,-0.33259 -3.43676,-0.33259 -2.439,0 -4.10195,0.609748 -1.60752,0.554317 -2.60529,1.607519 -0.99777,0.997771 -1.44122,2.438995 -0.44345,1.441223 -0.44345,3.104174 0,3.60306 1.99554,5.654032 2.05097,2.050972 6.92896,2.050972 1.60752,0 3.3259,-0.221726 1.77381,-0.221727 3.21504,-0.720612 l 0.99777,5.5986 q -1.44123,0.554317 -3.4922,0.886907 -2.05097,0.388022 -4.82255,0.388022 -3.99109,0 -6.87353,-1.053202 -2.82702,-1.053202 -4.65627,-2.882448 -1.82924,-1.829246 -2.71615,-4.323671 -0.83147,-2.494426 -0.83147,-5.376874 z" /><path
           id="path7248"
           d="m -528.17212,57.938892 0,5.654032 -9.03536,0 0,28.658182 -6.87353,0 0,-28.658182 -9.03536,0 0,-5.654032 24.94425,0 z" /><path
           id="path7250"
           d="m -525.06793,79.446387 q 0,-3.436765 1.0532,-6.042054 1.0532,-2.605289 2.77158,-4.323672 1.71839,-1.773814 3.93565,-2.660721 2.21727,-0.886907 4.5454,-0.886907 5.7649,0 8.75821,3.436765 2.99331,3.381333 2.99331,9.922272 0,0.66518 -0.0554,1.385792 0,0.720612 -0.0554,1.164065 l -16.90666,0 q 0,2.549858 2.1064,4.046514 2.10641,1.441223 5.43231,1.441223 2.05097,0 3.88022,-0.443453 1.88468,-0.443454 3.1596,-0.886907 l 0.94234,5.820327 q -1.77381,0.609749 -3.76935,0.99777 -1.99554,0.443454 -4.48997,0.443454 -3.3259,0 -5.98662,-0.831475 -2.60529,-0.886907 -4.48997,-2.549858 -1.82924,-1.718382 -2.82701,-4.212808 -0.99777,-2.494426 -0.99777,-5.820327 z m 17.46098,-2.716153 q 0,-1.053202 -0.27716,-1.995541 -0.27716,-0.99777 -0.88691,-1.773814 -0.60975,-0.776043 -1.55209,-1.219497 -0.94233,-0.498885 -2.32813,-0.498885 -1.33036,0 -2.32813,0.443454 -0.94234,0.443453 -1.60752,1.219497 -0.60974,0.776043 -0.99777,1.773814 -0.33259,0.99777 -0.44345,2.050972 l 10.42116,0 z" /><path
           id="path7252"
           d="m -484.99082,74.346672 5.32145,-8.148458 6.92896,0 -8.42562,12.527561 q 1.33036,1.607519 2.60529,3.436764 1.27493,1.773814 2.43899,3.60306 1.16407,1.829246 2.10641,3.492196 0.94234,1.662951 1.60752,2.993311 l -7.09526,0 q -1.49666,-2.827016 -2.99331,-5.044283 -1.49666,-2.217268 -2.82702,-3.991082 -1.66295,2.217268 -2.99331,4.323672 -1.33036,2.106404 -2.71615,4.711693 l -6.92896,0 q 0.83147,-1.552087 1.88468,-3.215038 1.10863,-1.718382 2.2727,-3.436764 1.21949,-1.773814 2.49442,-3.492196 1.33036,-1.718383 2.54986,-3.27047 l -9.14623,-12.638424 7.15069,0 5.76489,8.148458 z" /><path
           id="path7254"
           d="m -463.42788,71.852246 -5.93119,0 0,-5.654032 5.93119,0 0,-6.540939 6.81809,-1.108634 0,7.649573 10.92005,0 0,5.654032 -10.92005,0 0,10.53202 q 0,1.441224 0.27716,2.328131 0.27716,0.886907 0.77605,1.385792 0.49888,0.498885 1.21949,0.66518 0.72062,0.166295 1.60752,0.166295 0.94234,0 1.71838,-0.05543 0.83148,-0.05543 1.55209,-0.166295 0.77605,-0.166295 1.55209,-0.443454 0.83147,-0.277158 1.77381,-0.720612 l 0.94234,5.875759 q -1.88468,0.776044 -4.10194,1.108634 -2.16184,0.33259 -4.21281,0.33259 -2.38356,0 -4.21281,-0.388022 -1.82925,-0.388022 -3.10417,-1.496656 -1.27493,-1.108633 -1.94011,-3.104174 -0.66518,-2.050972 -0.66518,-5.321442 l 0,-10.698315 z" /></g><flowRoot
         transform="matrix(1.3857922,0,0,1.3857922,-22.720496,-22.246244)"
         style="font-style:normal;font-weight:normal;font-size:40px;line-height:125%;font-family:sans-serif;letter-spacing:0px;word-spacing:0px;fill:#000000;fill-opacity:1;stroke:none;stroke-width:1px;stroke-linecap:butt;stroke-linejoin:miter;stroke-opacity:1"
         id="flowRoot7227"
         xml:space="preserve"><flowRegion
           id="flowRegion7229"><rect
             y="17.904062"
             x="31.160639"
             height="117.45164"
             width="347.56097"
             id="rect7231" /></flowRegion><flowPara
           id="flowPara7233" /></flowRoot></g><path
       id="path7822"
       d="m 30.488281,186.95898 a 3.50035,3.50035 0 1 0 0,7 l 86.591799,0 a 3.50035,3.50035 0 1 0 0,-7 l -86.591799,0 z"
       style="color:#000000;font-style:normal;font-variant:normal;font-weight:normal;font-stretch:normal;font-size:medium;line-height:normal;font-family:sans-serif;text-indent:0;text-align:start;text-decoration:none;text-decoration-line:none;text-decoration-style:solid;text-decoration-color:#000000;letter-spacing:normal;word-spacing:normal;text-transform:none;direction:ltr;block-progression:tb;writing-mode:lr-tb;baseline-shift:baseline;text-anchor:start;white-space:normal;clip-rule:nonzero;display:inline;overflow:visible;visibility:visible;opacity:1;isolation:auto;mix-blend-mode:normal;color-interpolation:sRGB;color-interpolation-filters:linearRGB;solid-color:#000000;solid-opacity:1;fill:#333333;fill-opacity:1;fill-rule:evenodd;stroke:none;stroke-width:7;stroke-linecap:round;stroke-linejoin:miter;stroke-miterlimit:4;stroke-dasharray:none;stroke-dashoffset:0;stroke-opacity:1;color-rendering:auto;image-rendering:auto;shape-rendering:auto;text-rendering:auto;enable-background:accumulate" /></g></svg>