<svg width="367.85837" height="346.28925" enable-background="new 0 0 400 400" version="1.1" viewBox="0 0 367.85837 346.28925" xml:space="preserve" xmlns="http://www.w3.org/2000/svg">
  <g id="g85" transform="translate(-25.994625,-21.845)">
    <path id="path87" d="m212.338 214.682-12.226 12.227-9.495 9.494-6.863 6.862c-0.011-0.044-0.021-0.076-0.021-0.076s-2.259 2.769-6.391 1.66v0.037l-17.64-4.727c-4.391-1.179-5.715-5.671-5.733-5.731l-4.74-17.692c-0.839-3.141 0.553-5.193 1.272-6.002l7.223-7.223 9.494-9.494 12.306-12.306c2.927-2.926-0.312-4.452-0.42-4.503-17.071-4.231-35.869 0.309-49.213 13.651-13.062 13.062-17.685 31.353-13.9 48.134l-5e-3 -1e-3s1 4.635-3.958 9.593l-79.924 79.925c-8.146 8.146-8.146 21.354 1e-3 29.501l4.013 4.013c8.148 8.147 21.355 8.147 29.501 0l80.973-80.972c3.729-3.138 7.074-3.115 8.138-3.008 16.891 3.949 35.372-0.641 48.539-13.809 13.352-13.351 17.889-32.162 13.645-49.24-0.228-0.416-1.827-3.063-4.576-0.313zm-157.947 135.641c-2.923 2.923-7.663 2.923-10.584 0-2.924-2.923-2.924-7.662 0-10.585 2.921-2.923 7.661-2.923 10.584 0 2.923 2.922 2.923 7.662 0 10.585z"/>
    <path id="path89" d="m390.354 186.458h-187.263c-0.929 0-1.818 0.369-2.475 1.025l-11.523 11.523-17.388-4.66-15.938 15.939 5.833 21.77 21.77 5.834 15.938-15.938-4.916-18.347 10.147-10.147h185.814c1.933 0 3.5-1.567 3.5-3.5s-1.566-3.499-3.499-3.499zm-212.817 40.271c-5.858 0-10.61-4.75-10.61-10.61 0-5.859 4.752-10.609 10.61-10.609 5.86 0 10.61 4.75 10.61 10.609 0 5.86-4.75 10.609-10.61 10.61z"/>
  </g>
  <g id="g12449" transform="matrix(.31220042 0 0 .31220042 205.71361 6.4424425)" >
    <path id="svg_1" transform="matrix(0,1,-1,0,289.80302,131.46968)" d="m-130.83331 158.21211h28.63636v43.68687h95.454543v-69.899h219.545447v69.899h47.72727v-43.68687h28.63636v104.84849h-28.63636v-43.68687h-47.72727v69.89899h-219.545447v-69.89899h-95.454543v43.68687h-28.63636v-104.84849zm152.727266 0v104.84849h76.363633v-104.84849h-76.363633zm104.999994 0v104.84849h57.27273v-104.84849h-57.27273z" />
    <path id="svg_2" transform="matrix(0,-1,1,0,-61.166656,562.50003)" d="m63.500035 259.40909h25.522724v43.68687h85.075741v-69.89899h195.67422v69.89899h42.53787v-43.68687h25.52272v104.8485h-25.52272v-43.68688h-42.53787v69.899h-195.67422v-69.899h-85.075741v43.68688h-25.522724v-104.8485zm136.121195 0v104.8485h68.06059v-104.8485h-68.06059zm93.58332 0v104.8485h51.04544v-104.8485h-51.04544z"/>
    <path id="svg_5" transform="matrix(0,1,-1,0,631.32098,-212.67902)" d="m212 156.89675h28.63637v43.68687h95.45454v-69.899h219.54544v69.899h47.72727v-43.68687h28.63637v104.84849h-28.63637v-43.68687h-47.72727v69.89899h-219.54544v-69.89899h-95.45454v43.68687h-28.63637v-104.84849zm152.72727 0v104.84849h76.36363v-104.84849h-76.36363zm104.99999 0v104.84849h57.27274v-104.84849h-57.27274z"/>
  </g>
</svg>
