<svg width="367.85837" height="346.28925" enable-background="new 0 0 400 400" version="1.1" viewBox="0 0 367.85837 346.28925" xml:space="preserve" xmlns="http://www.w3.org/2000/svg">
  <g id="g85" transform="translate(-25.994625,-21.845)" >
    <path id="path87" d="m212.338 214.682-12.226 12.227-9.495 9.494-6.863 6.862c-0.011-0.044-0.021-0.076-0.021-0.076s-2.259 2.769-6.391 1.66v0.037l-17.64-4.727c-4.391-1.179-5.715-5.671-5.733-5.731l-4.74-17.692c-0.839-3.141 0.553-5.193 1.272-6.002l7.223-7.223 9.494-9.494 12.306-12.306c2.927-2.926-0.312-4.452-0.42-4.503-17.071-4.231-35.869 0.309-49.213 13.651-13.062 13.062-17.685 31.353-13.9 48.134l-5e-3 -1e-3s1 4.635-3.958 9.593l-79.924 79.925c-8.146 8.146-8.146 21.354 1e-3 29.501l4.013 4.013c8.148 8.147 21.355 8.147 29.501 0l80.973-80.972c3.729-3.138 7.074-3.115 8.138-3.008 16.891 3.949 35.372-0.641 48.539-13.809 13.352-13.351 17.889-32.162 13.645-49.24-0.228-0.416-1.827-3.063-4.576-0.313zm-157.947 135.641c-2.923 2.923-7.663 2.923-10.584 0-2.924-2.923-2.924-7.662 0-10.585 2.921-2.923 7.661-2.923 10.584 0 2.923 2.922 2.923 7.662 0 10.585z"/>
    <path id="path89" d="m390.354 186.458h-187.263c-0.929 0-1.818 0.369-2.475 1.025l-11.523 11.523-17.388-4.66-15.938 15.939 5.833 21.77 21.77 5.834 15.938-15.938-4.916-18.347 10.147-10.147h185.814c1.933 0 3.5-1.567 3.5-3.5s-1.566-3.499-3.499-3.499zm-212.817 40.271c-5.858 0-10.61-4.75-10.61-10.61 0-5.859 4.752-10.609 10.61-10.609 5.86 0 10.61 4.75 10.61 10.609 0 5.86-4.75 10.609-10.61 10.61z"/>
  </g>
  <g id="g20416" transform="matrix(.30794293 0 0 .30794293 181.39057 -9.9447666)" stroke="currentColor" stroke-linejoin="null" stroke-linecap="null">
    <circle id="svg_2" cx="300.5" cy="302.33624" r="35"/>
    <g opacity="0.6">
      <polygon id="svg_16" points="433.50894 536.14014 167.491 536.14014 34.48204 302.84647 167.491 69.552773 433.50894 69.552773 566.51788 302.84647 566.51788 302.84647" fill="none" stroke-width="40"/>
      <g stroke-width="25">
        <line id="svg_4" x1="43.806171" x2="557.25104" y1="302.88632" y2="302.88632"/>
        <line id="svg_5" x1="428.02594" x2="169.69014" y1="81.757797" y2="532.81598"/>
        <line id="svg_8" x1="172.97406" x2="431.30988" y1="78.457382" y2="531.71582"/>
      </g>
      <g stroke-width="30">
        <line id="svg_10" x1="370.00986" x2="239.7473" y1="188.47157" y2="200.57312"/>
        <line id="svg_11" x1="239.7473" x2="134.66156" y1="200.57312" y2="305.08661"/>
        <line id="svg_18" x1="138.43199" x2="214.32726" y1="304.71988" y2="453.36127"/>
        <line id="svg_19" x1="214.32726" x2="338.87332" y1="453.36127" y2="375.12897"/>
        <line id="svg_20" x1="338.87332" x2="490.66385" y1="375.12897" y2="306.67569"/>
        <line id="svg_21" x1="490.66385" x2="368.06381" y1="306.67569" y2="191.28304"/>
      </g>
    </g>
    <circle id="svg_22" cx="482.39322" cy="302.76407" r="35"/>
    <circle id="svg_23" cx="366.60428" cy="192.74989" r="35"/>
    <circle id="svg_24" cx="342.76538" cy="373.17316" r="35"/>
    <circle id="svg_25" cx="243.03122" cy="202.03998" r="35"/>
    <circle id="svg_26" cx="213.84074" cy="449.9386" r="35"/>
    <circle id="svg_27" cx="140.86453" cy="303.25305" r="35"/>
  </g>
</svg>
