<svg width="367.85837" height="346.28925" enable-background="new 0 0 400 400" version="1.1" viewBox="0 0 367.85837 346.28925" xml:space="preserve" xmlns="http://www.w3.org/2000/svg"><g id="g85" transform="translate(-25.994625,-21.845)">
  <path id="path87" d="m212.338 214.682-12.226 12.227-9.495 9.494-6.863 6.862c-0.011-0.044-0.021-0.076-0.021-0.076s-2.259 2.769-6.391 1.66v0.037l-17.64-4.727c-4.391-1.179-5.715-5.671-5.733-5.731l-4.74-17.692c-0.839-3.141 0.553-5.193 1.272-6.002l7.223-7.223 9.494-9.494 12.306-12.306c2.927-2.926-0.312-4.452-0.42-4.503-17.071-4.231-35.869 0.309-49.213 13.651-13.062 13.062-17.685 31.353-13.9 48.134l-5e-3 -1e-3s1 4.635-3.958 9.593l-79.924 79.925c-8.146 8.146-8.146 21.354 1e-3 29.501l4.013 4.013c8.148 8.147 21.355 8.147 29.501 0l80.973-80.972c3.729-3.138 7.074-3.115 8.138-3.008 16.891 3.949 35.372-0.641 48.539-13.809 13.352-13.351 17.889-32.162 13.645-49.24-0.228-0.416-1.827-3.063-4.576-0.313zm-157.947 135.641c-2.923 2.923-7.663 2.923-10.584 0-2.924-2.923-2.924-7.662 0-10.585 2.921-2.923 7.661-2.923 10.584 0 2.923 2.922 2.923 7.662 0 10.585z"/>
  <path id="path89" d="m390.354 186.458h-187.263c-0.929 0-1.818 0.369-2.475 1.025l-11.523 11.523-17.388-4.66-15.938 15.939 5.833 21.77 21.77 5.834 15.938-15.938-4.916-18.347 10.147-10.147h185.814c1.933 0 3.5-1.567 3.5-3.5s-1.566-3.499-3.499-3.499zm-212.817 40.271c-5.858 0-10.61-4.75-10.61-10.61 0-5.859 4.752-10.609 10.61-10.609 5.86 0 10.61 4.75 10.61 10.609 0 5.86-4.75 10.609-10.61 10.61z"/>
  <path id="path6942" d="m242.04979 175.8079h145.37815v9.69187h-155.07002v-155.07002h9.69187v29.075628h9.69188v9.691876h-9.69188v19.383753h9.69188v9.691876h-9.69188v19.383757h9.69188v9.69187h-9.69188v19.38376h9.69188v9.69187h-9.69188v19.38376zm19.38376-43.61345c0-8.02608 6.50688-14.53781 14.53781-14.53781 1.50951 0 2.93421 0.29348 4.30652 0.71932l12.67334-16.90415c-1.53828-2.299703-2.44205-5.072791-2.44205-8.044865 0-8.026085 6.51173-14.537814 14.53782-14.537814 8.02608 0 14.53781 6.511729 14.53781 14.537814 0 1.514355-0.29348 2.934215-0.72416 4.306524l16.8993 12.673341c2.30939-1.53343 5.07309-2.44205 8.05455-2.44205 0.60574 0 1.17363 0.10419 1.76059 0.17991l16.86598-33.722889c-2.51776-2.612263-4.08876-6.152221-4.08876-10.070465 0-8.026084 6.51173-14.537814 14.53782-14.537814s14.53782 6.51173 14.53782 14.537814c0 8.026085-6.51173 14.537815-14.53782 14.537815-0.60574 0-1.17363-0.104188-1.76059-0.179906l-16.8566 33.722885c2.51777 2.61227 4.07937 6.15222 4.07937 10.07047 0 8.02608-6.51172 14.53781-14.53781 14.53781-8.02608 0-14.53781-6.51173-14.53781-14.53781 0-1.50497 0.29348-2.93422 0.71932-4.30653l-16.89931-12.67334c-2.30454 1.53344-5.07309 2.44205-8.0497 2.44205-1.50951 0-2.93422-0.29348-4.30168-0.71932l-12.67789 16.89446c1.53798 2.30939 2.44175 5.07309 2.44175 8.05455 0 8.02609-6.50688 14.53782-14.53781 14.53782s-14.53782-6.51173-14.53782-14.53782zm106.61063-67.843134c0 2.678593 2.16735 4.845938 4.84594 4.845938s4.84594-2.167345 4.84594-4.845938c0-2.678592-2.16735-4.845938-4.84594-4.845938s-4.84594 2.167346-4.84594 4.845938zm-29.07563 58.151264c0 2.67859 2.16735 4.84593 4.84594 4.84593s4.84594-2.16734 4.84594-4.84593c0-2.6786-2.16735-4.84594-4.84594-4.84594s-4.84594 2.16734-4.84594 4.84594zm-38.7675-29.075635c0 2.678592 2.16734 4.845938 4.84594 4.845938 2.67859 0 4.84593-2.167346 4.84593-4.845938 0-2.678593-2.16734-4.845938-4.84593-4.845938-2.6786 0-4.84594 2.167345-4.84594 4.845938zm-29.07563 38.767505c0 2.6786 2.16735 4.84594 4.84594 4.84594s4.84594-2.16734 4.84594-4.84594c0-2.67859-2.16735-4.84594-4.84594-4.84594s-4.84594 2.16735-4.84594 4.84594z" stroke="currentColor" stroke-width="0.30287114" stroke-opacity="0.7"/>
  </g>
</svg>
