<svg width="367.85837" height="346.28925" enable-background="new 0 0 400 400" version="1.1" viewBox="0 0 367.85837 346.28925" xml:space="preserve" xmlns="http://www.w3.org/2000/svg">
  <g id="g85" transform="translate(-25.994625,-21.845)">
    <path id="path87" d="m212.338 214.682-12.226 12.227-9.495 9.494-6.863 6.862c-0.011-0.044-0.021-0.076-0.021-0.076s-2.259 2.769-6.391 1.66v0.037l-17.64-4.727c-4.391-1.179-5.715-5.671-5.733-5.731l-4.74-17.692c-0.839-3.141 0.553-5.193 1.272-6.002l7.223-7.223 9.494-9.494 12.306-12.306c2.927-2.926-0.312-4.452-0.42-4.503-17.071-4.231-35.869 0.309-49.213 13.651-13.062 13.062-17.685 31.353-13.9 48.134l-5e-3 -1e-3s1 4.635-3.958 9.593l-79.924 79.925c-8.146 8.146-8.146 21.354 1e-3 29.501l4.013 4.013c8.148 8.147 21.355 8.147 29.501 0l80.973-80.972c3.729-3.138 7.074-3.115 8.138-3.008 16.891 3.949 35.372-0.641 48.539-13.809 13.352-13.351 17.889-32.162 13.645-49.24-0.228-0.416-1.827-3.063-4.576-0.313zm-157.947 135.641c-2.923 2.923-7.663 2.923-10.584 0-2.924-2.923-2.924-7.662 0-10.585 2.921-2.923 7.661-2.923 10.584 0 2.923 2.922 2.923 7.662 0 10.585z"/>
    <path id="path89" d="m390.354 186.458h-187.263c-0.929 0-1.818 0.369-2.475 1.025l-11.523 11.523-17.388-4.66-15.938 15.939 5.833 21.77 21.77 5.834 15.938-15.938-4.916-18.347 10.147-10.147h185.814c1.933 0 3.5-1.567 3.5-3.5s-1.566-3.499-3.499-3.499zm-212.817 40.271c-5.858 0-10.61-4.75-10.61-10.61 0-5.859 4.752-10.609 10.61-10.609 5.86 0 10.61 4.75 10.61 10.609 0 5.86-4.75 10.609-10.61 10.61z"/>
  </g>
  <flowRoot id="flowRoot4155" transform="matrix(.41369793 0 0 .41369793 156.16242 -12.567033)" fill="currentColor" opacity="0.6">
    <flowRegion id="flowRegion4157">
      <rect id="rect4159" x="31.97818" y="317.84677" width="455.68906" height="131.33894"/>
    </flowRegion>
    <flowPara id="flowPara4161"/>
  </flowRoot>
  <g id="g6666" transform="matrix(.3359375 0 0 .3359375 109.94013 -26.342958)">
    <rect id="rect4714" x="244.96718" y="550.68042" width="512" height="32"/>
    <rect id="rect4716" x="244.96718" y="518.68042" width="32" height="64"/>
    <rect id="rect4716-3" x="308.96716" y="518.68042" width="32" height="64"/>
    <rect id="rect4716-1" x="372.96716" y="518.68042" width="32" height="64"/>
    <rect id="rect4716-39" x="436.96716" y="518.68042" width="32" height="64"/>
    <rect id="rect4716-9" x="500.96716" y="518.68042" width="32" height="64"/>
    <rect id="rect4716-3-4" x="564.96716" y="518.68042" width="32" height="64"/>
    <rect id="rect4716-1-7" x="628.96716" y="518.68042" width="32" height="64"/>
    <rect id="rect4716-39-7" x="692.96716" y="518.68042" width="32" height="64"/>
    <g id="g5384" transform="matrix(1,0,0,1.438498,241.73689,114.10604)">
      <rect id="rect5262" x="36" y="64" width="64" height="128"/>
      <rect id="rect5264" x="60" y="17.545742" width="16" height="48.454258"/>
      <rect id="rect5264-4" x="60" y="191.54575" width="16" height="48.454258"/>
    </g>
    <g id="g5389" transform="matrix(1 0 0 .80150648 241.73689 163.18232)">
      <rect id="rect5262-5" x="127.89906" y="85.402283" width="64" height="167.96211" fill="none" stroke="currentColor" stroke-width="4" stroke-opacity="0.7"/>
      <rect id="rect5264-0" x="151.89905" y="23.418129" width="16" height="63.581871"/>
      <rect id="rect5264-4-5" x="151.89905" y="252.7683" width="16" height="63.581871"/>
    </g>
    <g id="g5394" transform="matrix(1 0 0 .53480731 236.89147 189.96374)">
      <rect id="rect5262-5-0" x="234.49841" y="111.41868" width="64" height="191.11447" stroke="currentColor" stroke-width="4.26678848" stroke-opacity="0.7"/>
      <rect id="rect5264-0-8" x="258.49841" y="-55.750973" width="16" height="168.98759"/>
      <rect id="rect5264-4-5-1" x="258.49841" y="301.85483" width="16" height="72.346169"/>
    </g>
    <rect id="rect5262-5-9" x="568.2984" y="167.74866" width="64" height="202.2276" fill="none" stroke="currentColor" stroke-width="4.38909054" stroke-opacity="0.7"/>
    <rect id="rect5264-0-0" x="592.2984" y="93.119293" width="16" height="76.553032"/>
    <rect id="rect5264-4-5-2" x="592.2984" y="369.25854" width="16" height="50.710762"/>
    <g id="g5409" transform="translate(241.73689,77.263551)">
      <rect id="rect5262-5-90" x="420.23972" y="114.77554" width="64" height="213.34073" stroke="currentColor" stroke-width="4.50807571" stroke-opacity="0.7"/>
      <rect id="rect5264-0-01" x="444.23972" y="36.045029" width="16" height="80.759895"/>
      <rect id="rect5264-4-5-7" x="444.23972" y="327.3591" width="16" height="80.759895"/>
    </g>
  </g>
</svg>
