<svg width="367.85837" height="346.28925" enable-background="new 0 0 400 400" version="1.1" viewBox="0 0 367.85837 346.28925" xml:space="preserve" xmlns="http://www.w3.org/2000/svg">
  <g id="g85" transform="translate(-25.994625,-21.845)">
    <path id="path87" d="m212.338 214.682-12.226 12.227-9.495 9.494-6.863 6.862c-0.011-0.044-0.021-0.076-0.021-0.076s-2.259 2.769-6.391 1.66v0.037l-17.64-4.727c-4.391-1.179-5.715-5.671-5.733-5.731l-4.74-17.692c-0.839-3.141 0.553-5.193 1.272-6.002l7.223-7.223 9.494-9.494 12.306-12.306c2.927-2.926-0.312-4.452-0.42-4.503-17.071-4.231-35.869 0.309-49.213 13.651-13.062 13.062-17.685 31.353-13.9 48.134l-5e-3 -1e-3s1 4.635-3.958 9.593l-79.924 79.925c-8.146 8.146-8.146 21.354 1e-3 29.501l4.013 4.013c8.148 8.147 21.355 8.147 29.501 0l80.973-80.972c3.729-3.138 7.074-3.115 8.138-3.008 16.891 3.949 35.372-0.641 48.539-13.809 13.352-13.351 17.889-32.162 13.645-49.24-0.228-0.416-1.827-3.063-4.576-0.313zm-157.947 135.641c-2.923 2.923-7.663 2.923-10.584 0-2.924-2.923-2.924-7.662 0-10.585 2.921-2.923 7.661-2.923 10.584 0 2.923 2.922 2.923 7.662 0 10.585z"/>
    <path id="path89" d="m390.354 186.458h-187.263c-0.929 0-1.818 0.369-2.475 1.025l-11.523 11.523-17.388-4.66-15.938 15.939 5.833 21.77 21.77 5.834 15.938-15.938-4.916-18.347 10.147-10.147h185.814c1.933 0 3.5-1.567 3.5-3.5s-1.566-3.499-3.499-3.499zm-212.817 40.271c-5.858 0-10.61-4.75-10.61-10.61 0-5.859 4.752-10.609 10.61-10.609 5.86 0 10.61 4.75 10.61 10.609 0 5.86-4.75 10.609-10.61 10.61z"/>
  </g>
  <rect id="rect3364" x="260.42938" y="5.0577984" width="12.751847" height="77.927956"/>
  <rect id="rect3366" x="260.42938" y="88.593201" width="12.751847" height="70.843597"/>
  <rect id="rect3370" x="211.55933" y="3.8570535" width="18.419336" height="155.85591"/>
  <rect id="rect3372" x="305.31305" y="3.71298" width="12.751847" height="38.423649"/>
  <rect id="rect3374" x="304.54456" y="49.821346" width="12.751847" height="44.57143"/>
  <rect id="rect3376" x="304.54456" y="104.38293" width="12.751847" height="54.369457"/>
  <rect id="rect3378" x="349.11597" y="4.4814434" width="12.751847" height="29.970444"/>
  <rect id="rect3380" x="348.34753" y="42.905087" width="12.751847" height="27.665024"/>
  <rect id="rect3382" x="346.81055" y="80.560272" width="12.751847" height="21.517242"/>
  <rect id="rect3384" x="347.57904" y="111.29919" width="12.751847" height="46.108376"/>
  <g fill-rule="evenodd">
    <path id="path3386" d="m230.19479 4.481441 30.93103 0.96059-0.19211 77.42365-31.12315 2.88177z" fill-opacity="0.4"/>
    <g fill-opacity="0.2">
      <path id="path3390" d="m228.48504 85.667881 32.64079 2.86529 0.048 70.891629-31.69951 0.24014z"/>
      <path id="path3392" d="m272.84504 5.057801 33.04434-1.34483-0.38424 38.37562-32.75616 6.77216z"/>
      <path id="path3394" d="m273.03716 48.668641 32.56404 1.20074-0.91257 44.5234-32.22783-11.62316z"/>
      <path id="path3396" d="m272.74898 88.725291 32.46798 15.945809 0.0961 54.08128-32.85222 0.57636z"/>
      <path id="path3398" d="m317.94479 3.809031 31.93966 0.72044-0.52833 29.82636-31.60345 7.78079z"/>
      <path id="path3400" d="m317.08026 49.917401 31.41133-6.96428 0.33621 27.52094-31.60345 4.13054z"/>
      <path id="path3402" d="m316.93617 74.796721 30.40271 5.76354-0.38423 21.469219-30.49878-7.780789z"/>
      <path id="path3404" d="m316.93617 104.33489 30.78695 7.06035 0.43226 46.01232-31.55541 1.34482z"/>
    </g>
  </g>
</svg>
