<svg width="367.85837" height="346.28925" enable-background="new 0 0 400 400" version="1.1" viewBox="0 0 367.85837 346.28925" xml:space="preserve" xmlns="http://www.w3.org/2000/svg">
  <g id="g85" transform="translate(-25.994625,-21.845)" >
    <path id="path87" d="m212.338 214.682-12.226 12.227-9.495 9.494-6.863 6.862c-0.011-0.044-0.021-0.076-0.021-0.076s-2.259 2.769-6.391 1.66v0.037l-17.64-4.727c-4.391-1.179-5.715-5.671-5.733-5.731l-4.74-17.692c-0.839-3.141 0.553-5.193 1.272-6.002l7.223-7.223 9.494-9.494 12.306-12.306c2.927-2.926-0.312-4.452-0.42-4.503-17.071-4.231-35.869 0.309-49.213 13.651-13.062 13.062-17.685 31.353-13.9 48.134l-5e-3 -1e-3s1 4.635-3.958 9.593l-79.924 79.925c-8.146 8.146-8.146 21.354 1e-3 29.501l4.013 4.013c8.148 8.147 21.355 8.147 29.501 0l80.973-80.972c3.729-3.138 7.074-3.115 8.138-3.008 16.891 3.949 35.372-0.641 48.539-13.809 13.352-13.351 17.889-32.162 13.645-49.24-0.228-0.416-1.827-3.063-4.576-0.313zm-157.947 135.641c-2.923 2.923-7.663 2.923-10.584 0-2.924-2.923-2.924-7.662 0-10.585 2.921-2.923 7.661-2.923 10.584 0 2.923 2.922 2.923 7.662 0 10.585z"/>
    <path id="path89" d="m390.354 186.458h-187.263c-0.929 0-1.818 0.369-2.475 1.025l-11.523 11.523-17.388-4.66-15.938 15.939 5.833 21.77 21.77 5.834 15.938-15.938-4.916-18.347 10.147-10.147h185.814c1.933 0 3.5-1.567 3.5-3.5s-1.566-3.499-3.499-3.499zm-212.817 40.271c-5.858 0-10.61-4.75-10.61-10.61 0-5.859 4.752-10.609 10.61-10.609 5.86 0 10.61 4.75 10.61 10.609 0 5.86-4.75 10.609-10.61 10.61z"/>
  </g>
  <path id="path3365" d="m274.31606 6.1018975a88.332672 88.332672 0 0 0 -83.00584 58.1211895 88.332672 88.332672 0 0 0 26.22696 97.878813l56.62126-67.479273-0.15163-0.18002-47.69644 56.681033a74.202706 73.992064 0 0 1 -22.03121 -81.988453 74.202706 73.992064 0 0 1 69.72765 -48.68469 74.202706 73.992064 0 0 1 69.7284 48.68469 74.202706 73.992064 0 0 1 -21.92664 81.899563l9.28637 11.06715a88.332672 88.332672 0 0 0 26.22695 -97.878813 88.332672 88.332672 0 0 0 -83.00583 -58.1211895zm47.49251 144.932852-47.49251-56.599603-0.15762 0.18748 47.54556 56.501013a74.202706 73.992064 0 0 0 0.10457 -0.0889z"  fill-opacity=".73333333"/>
  <circle id="path3388" cx="274.16159" cy="94.89814" r="6.3315372" />
  <path id="path3390" d="m274.24844 12.588147 2.39485 40.13178 2.39486 40.13178-4.72212 0.38481-4.72211 0.38482 2.32726-40.5166z" />
  <path id="path3392" d="m274.93373 69.726417-1.23542-0.61771"  fill-rule="evenodd" opacity="0.6" stroke-width=".38244995px"/>
</svg>
