<svg id="Layer_1" width="367.85837" height="346.28925" enable-background="new 0 0 400 400" version="1.1" viewBox="0 0 367.85837 346.28925" xml:space="preserve" xmlns="http://www.w3.org/2000/svg"><g id="g85" transform="translate(-25.994625,-21.845)" ><path id="path87" d="m212.338 214.682-12.226 12.227-9.495 9.494-6.863 6.862c-0.011-0.044-0.021-0.076-0.021-0.076s-2.259 2.769-6.391 1.66v0.037l-17.64-4.727c-4.391-1.179-5.715-5.671-5.733-5.731l-4.74-17.692c-0.839-3.141 0.553-5.193 1.272-6.002l7.223-7.223 9.494-9.494 12.306-12.306c2.927-2.926-0.312-4.452-0.42-4.503-17.071-4.231-35.869 0.309-49.213 13.651-13.062 13.062-17.685 31.353-13.9 48.134l-5e-3 -1e-3s1 4.635-3.958 9.593l-79.924 79.925c-8.146 8.146-8.146 21.354 1e-3 29.501l4.013 4.013c8.148 8.147 21.355 8.147 29.501 0l80.973-80.972c3.729-3.138 7.074-3.115 8.138-3.008 16.891 3.949 35.372-0.641 48.539-13.809 13.352-13.351 17.889-32.162 13.645-49.24-0.228-0.416-1.827-3.063-4.576-0.313zm-157.947 135.641c-2.923 2.923-7.663 2.923-10.584 0-2.924-2.923-2.924-7.662 0-10.585 2.921-2.923 7.661-2.923 10.584 0 2.923 2.922 2.923 7.662 0 10.585z"/><path id="path89" d="m390.354 186.458h-187.263c-0.929 0-1.818 0.369-2.475 1.025l-11.523 11.523-17.388-4.66-15.938 15.939 5.833 21.77 21.77 5.834 15.938-15.938-4.916-18.347 10.147-10.147h185.814c1.933 0 3.5-1.567 3.5-3.5s-1.566-3.499-3.499-3.499zm-212.817 40.271c-5.858 0-10.61-4.75-10.61-10.61 0-5.859 4.752-10.609 10.61-10.609 5.86 0 10.61 4.75 10.61 10.609 0 5.86-4.75 10.609-10.61 10.61z"/></g><g id="g9927" transform="matrix(.34078792 0 0 .34078792 197.08411 -4.0001027)" ><circle id="path4168" cx="278.77966" cy="296.13559" r="92.203392"/><circle id="path4170" cx="114.98305" cy="373.15256" r="49.898304"/><circle id="path4172" cx="417.62711" cy="417.62711" r="33.627117"/><circle id="path4174" cx="158.37288" cy="145.35593" r="43.389832"/><circle id="path4176" cx="316.74576" cy="95.457626" r="32.542374"/><circle id="path4178" cx="74.847458" cy="57.491524" r="29.288136"/><circle id="path4180" cx="468.61017" cy="349.28815" r="19.525423"/><circle id="path4182" cx="210.44067" cy="462.10168" r="23.864407"/><circle id="path4184" cx="441.49152" cy="218.03391" r="35.796612"/><rect id="rect4207" transform="matrix(.80269254 -.59639306 .59639306 .80269254 0 0)" x="26.913984" y="239.76898" width="26.033897" height="104.13559"/><rect id="rect4207-4" transform="matrix(.63877528 -.76939336 .76939336 .63877528 0 0)" x="-67.867439" y="472.82718" width="26.033897" height="104.13559"/><rect id="rect4207-6" transform="matrix(-.38758595 -.92183357 .92183357 -.38758595 0 0)" x="-399.83987" y="-5.2506361" width="26.033897" height="104.13559"/><rect id="rect4207-9" transform="matrix(.44838975 .89383815 -.89383815 .44838975 0 0)" x="379.25781" y="-282.46582" width="26.033897" height="104.13559"/><rect id="rect4207-5" transform="matrix(.05447599 -.99851508 .68963215 .72415986 0 0)" x="6.2988791" y="115.3349" width="22.762363" height="93.707253" fill-opacity=".50196078"/><rect id="rect4207-5-9" transform="matrix(-.96303968 -.26935956 .96550946 -.26036796 0 0)" x="-365.06281" y="-160.13791" width="34.024372" height="140.51636" fill-opacity=".50196078"/><rect id="rect4207-5-91" transform="matrix(.05447599 -.99851508 .68963215 .72415986 0 0)" x="-243.78989" y="216.88268" width="22.762363" height="93.707253" fill-opacity=".50196078"/><rect id="rect4207-5-91-9" transform="matrix(-.98610246 .1661383 .55503094 -.8318297 0 0)" x="-814.73718" y="-668.93787" width="22.762363" height="93.707253" ry="11.713407" fill-opacity=".50196078"/></g></svg>
