<svg width="367.85837" height="346.28925" enable-background="new 0 0 400 400" version="1.1" viewBox="0 0 367.85837 346.28925" xml:space="preserve" xmlns="http://www.w3.org/2000/svg">
  <g id="g85" transform="translate(-25.994625,-21.845)" >
    <path id="path87" d="m212.338 214.682-12.226 12.227-9.495 9.494-6.863 6.862c-0.011-0.044-0.021-0.076-0.021-0.076s-2.259 2.769-6.391 1.66v0.037l-17.64-4.727c-4.391-1.179-5.715-5.671-5.733-5.731l-4.74-17.692c-0.839-3.141 0.553-5.193 1.272-6.002l7.223-7.223 9.494-9.494 12.306-12.306c2.927-2.926-0.312-4.452-0.42-4.503-17.071-4.231-35.869 0.309-49.213 13.651-13.062 13.062-17.685 31.353-13.9 48.134l-5e-3 -1e-3s1 4.635-3.958 9.593l-79.924 79.925c-8.146 8.146-8.146 21.354 1e-3 29.501l4.013 4.013c8.148 8.147 21.355 8.147 29.501 0l80.973-80.972c3.729-3.138 7.074-3.115 8.138-3.008 16.891 3.949 35.372-0.641 48.539-13.809 13.352-13.351 17.889-32.162 13.645-49.24-0.228-0.416-1.827-3.063-4.576-0.313zm-157.947 135.641c-2.923 2.923-7.663 2.923-10.584 0-2.924-2.923-2.924-7.662 0-10.585 2.921-2.923 7.661-2.923 10.584 0 2.923 2.922 2.923 7.662 0 10.585z"/>
    <path id="path89" d="m390.354 186.458h-187.263c-0.929 0-1.818 0.369-2.475 1.025l-11.523 11.523-17.388-4.66-15.938 15.939 5.833 21.77 21.77 5.834 15.938-15.938-4.916-18.347 10.147-10.147h185.814c1.933 0 3.5-1.567 3.5-3.5s-1.566-3.499-3.499-3.499zm-212.817 40.271c-5.858 0-10.61-4.75-10.61-10.61 0-5.859 4.752-10.609 10.61-10.609 5.86 0 10.61 4.75 10.61 10.609 0 5.86-4.75 10.609-10.61 10.61z"/>
  </g>
  <g id="g9341" transform="matrix(.33299591 0 0 .33299591 194.45904 -1.6930744)">
    <path id="svg_2" d="m438.52316 164.80952h-369.447191l57.361841 93.46778h253.10768l58.97767-93.46778z" stroke="null"/>
    <path id="svg_3" d="m445.76955 143.19351 56.8297-83.257173c0.87194-1.035266 1.59-2.125019 2.20549-3.269261l1.43612-2.125019c3.89807-9.807782-0.41032-21.086731-9.59129-25.173307-2.35935-1.089754-4.87258-1.580143-7.28323-1.525655h-0.20516-466.02402-0.359032-0.205161c-9.745164 0.381414-17.541296 8.827004-17.541296 19.288638 0 5.884669 2.513227 11.115486 6.411292 14.657185l54.213889 81.404592h380.112708-1e-5z" stroke="null"/>
    <path id="svg_4" d="m173.93641 390.44417 61.41296 93.11609c0.79394 2.05035 1.91478 3.85066 3.17573 5.40093 1.68127 2.55044 4.06306 4.70081 7.00528 5.95103 8.40634 3.80065 18.07363-0.40007 21.57627-9.35162l64.40188-95.11644h-157.57212v1e-5z" stroke="null"/>
    <path id="svg_5" d="m375.93346 281.95749h-246.18792l38.22412 83.9863h168.66294l39.30086-83.9863z" stroke="null"/>
  </g>
</svg>
