<svg width="357.69601" height="251.48801" enable-background="new 0 0 400 400" version="1.1" viewBox="0 0 357.69601 251.48801" xml:space="preserve" xmlns="http://www.w3.org/2000/svg"><path id="path189" d="m351.196 238.489h-43.762v-234.617c0-2.138-1.734-3.872-3.871-3.872h-50.211c-2.139 0-3.873 1.734-3.873 3.872v234.616h-41.654v-177.31c0-2.138-1.734-3.872-3.873-3.872h-50.208c-2.138 0-3.875 1.734-3.875 3.872v177.311h-41.651v-120.007c0-2.138-1.735-3.874-3.873-3.874h-50.21c-2.138 0-3.871 1.735-3.871 3.874v120.006h-43.764c-3.59 0-6.5 2.91-6.5 6.5s2.91 6.5 6.5 6.5h344.696c3.59 0 6.5-2.91 6.5-6.5s-2.91-6.499-6.5-6.499z" /></svg>
