<svg width="23.559877" height="23.684999" version="1.1" viewBox="0 0 23.559877 23.684999" xml:space="preserve" xmlns="http://www.w3.org/2000/svg"><g id="wrench_1_" transform="translate(-12.214,-12.092)"><path id="path58" d="m15.219 35.777c-0.222 0-0.429-0.086-0.584-0.241l-2.18-2.18c-0.156-0.155-0.241-0.361-0.241-0.583s0.085-0.43 0.241-0.584l12.218-12.219-0.039-0.119c-0.854-2.614 0.292-5.595 2.668-6.934 0.974-0.548 1.947-0.825 2.894-0.825 0.928 0 1.822 0.269 2.664 0.803l-5.008 2.675 3.07 4.922 4.85-2.443c0.064 2.568-1.521 4.018-2.892 4.789-1.013 0.568-2.095 0.849-2.911 0.86-0.816 0.012-1.362-0.087-1.891-0.275l-0.12-0.042-12.156 12.155c-0.156 0.155-0.363 0.241-0.583 0.241zm0.244-4.55c-0.682 0-1.236 0.555-1.236 1.236 0 0.682 0.555 1.236 1.236 1.236 0.682 0 1.236-0.555 1.236-1.236 0-0.682-0.555-1.236-1.236-1.236z"/></g></svg>
