<svg width="256" height="256" version="1.1" viewBox="0 0 256 256" xmlns="http://www.w3.org/2000/svg">
 <g id="layer1" transform="translate(0,-796.36216)">
  <g id="g4688" transform="matrix(1.1874914,0,0,1.1789475,-19.998399,-142.50704)">
   <path id="path4684" transform="matrix(.74418605 0 0 .7421874 32.744186 796.36218)" d="M 128,0 C 80.503187,0 41.751409,38.608354 42,86.232422 42.25334,134.76628 126.27539,256 126.27539,256 126.27539,256 213.93023,145.08717 214,86.232422 214.05645,38.607738 175.49681,0 128,0 Z m 0,22 a 64,64 0 0 1 64,64 64,64 0 0 1 -64,64 64,64 0 0 1 -64,-64 64,64 0 0 1 64,-64 z"/>
  </g>
  <path id="path4145" d="m132 988.3622a96 31.999977 0 0 0 -96 32 96 31.999977 0 0 0 96 32 96 31.999977 0 0 0 96 -32 96 31.999977 0 0 0 -96 -32zm0 7.99999a72 23.999983 0 0 1 72 24.00001 72 23.999983 0 0 1 -72 24 72 23.999983 0 0 1 -72 -24 72 23.999983 0 0 1 72 -24.00001z"/>
 </g>
</svg>