<svg id="Layer_1" width="326.47128" height="356.00952" enable-background="new 0 0 400 400" version="1.1" viewBox="0 0 326.47128 356.00952" xml:space="preserve" xmlns="http://www.w3.org/2000/svg"><path id="path33" d="m310.336 139.9785c-0.976-0.311-1.959-0.595-3.217-0.975 0-6.294 0.136-12.444-0.032-18.587-0.233-8.524-5.304-16.09-13.06-18.488-4.152-1.283-8.723-1.664-13.104-1.674-12.581-0.027-25.162-0.08-37.743-0.128v-18.123c5e-3 -4.565 3.746-8.305 8.311-8.305h25.643c4.565 0 5.762-2.739 2.648-6.083l-60.567-65.1039998c-3.113-3.34799998-8.202-3.34799998-11.319-4e-3l-60.56 65.1039998c-3.111 3.348-1.921 6.087 2.652 6.082l25.643 5e-3c4.562 2e-3 8.306 3.739 8.302 8.309l2e-3 18.048c-16.737 0.052-33.473 0.185-50.206 0.483-12.829 0.229-21.562-2.646-26.555-14.611-0.399-0.956-1.159-1.766-1.769-2.629-4.328-6.148-10.004-9.137-17.771-9.036-21.025 0.267-42.061 0.351-63.083-0.015-11.3-0.194-19.72 3.556-24.551 14.102v254.898c4.913 7.162 10.634 12.771 20.244 12.762 84.328-0.071 168.655-0.037 252.982-0.046 8.346-1e-3 14.961-3.398 18.543-11.021 1.655-3.521 2.014-7.683 2.747-11.595 10.478-55.871 20.905-111.751 31.376-167.624 2.428-12.964-2.78-21.669-15.556-25.745zm-17.319-2.089c-6e-3 0.374-0.32 0.742-0.808 1.805h-7.776c-76.447 0-152.895-2e-3 -229.342 3e-3 -14.035 0-20.679 6.163-23.127 19.995-5.44 30.731-11.281 61.39-17.971 92.11-0.114-1.816-0.326-3.632-0.327-5.445-0.018-49.268-0.021-98.532-8e-3 -147.8 2e-3 -8.969 1.293-10.225 10.328-10.229 20.811-0.01 41.625-0.159 62.429 0.182 2.822 0.046 6.324 1.948 8.246 4.113 3.477 3.92 5.958 8.715 8.931 13.091 4.413 6.491 10.505 9.138 18.424 9.115 20.64-0.061 41.279-0.082 61.919-0.092l1e-3 13.165h59.244v-13.165c13.125 5e-3 26.25 0.012 39.376 0.014 9.958 1e-3 10.6 0.644 10.594 10.401-3e-3 4.246-0.06 8.491-0.133 12.737z" /></svg>
