<svg id="Layer_1" width="379.92999" height="379.92999" enable-background="new 0 0 400 400" version="1.1" viewBox="0 0 379.92999 379.92998" xml:space="preserve" xmlns="http://www.w3.org/2000/svg"><g id="g4133"><path id="path42" d="m368.93 0h-357.93c-6.049 0-11 4.949-11 11v355.648c0 6.051 4.951 11 11 11h357.93c6.049 0 11-4.949 11-11v-355.648c0-6.051-4.951-11-11-11zm-295.65 168.768c-3.626-1.72-6.973-2.58-10.041-2.58-1.929 0-3.51 0.522-4.741 1.568s-1.848 2.429-1.848 4.148c0 1.418 0.384 2.656 1.15 3.713 0.768 1.059 2.487 2.458 5.16 4.201 2.812 1.859 4.915 3.911 6.31 6.153 1.395 2.243 2.092 4.863 2.092 7.861 0 4.857-1.72 8.698-5.159 11.522-3.44 2.823-8.101 4.235-13.98 4.235-5.137 0-9.272-1.046-12.41-3.138v-9.552c4.485 2.51 8.646 3.765 12.48 3.765 2.603 0 4.637-0.493 6.101-1.481 1.465-0.987 2.196-2.342 2.196-4.062 0-0.999-0.156-1.877-0.471-2.632-0.313-0.755-0.762-1.459-1.342-2.109-0.581-0.65-2.022-1.836-4.323-3.556-3.207-2.302-5.462-4.579-6.763-6.833-1.303-2.255-1.953-4.684-1.953-7.286 0-2.999 0.721-5.677 2.162-8.036 1.44-2.358 3.491-4.195 6.153-5.509 2.66-1.312 5.723-1.97 9.186-1.97 5.043 0 9.657 1.151 13.841 3.452zm43.468-1.987h-17.85l-2.336 11.19h16.63l-1.918 8.855h-16.629l-2.789 13.143h17.85l-1.883 8.925h-28.482l10.772-50.969h28.518zm31.058 42.113h-28.482l10.772-50.969h10.668l-8.925 42.044h17.85zm47.199-42.113h-17.85l-2.336 11.19h16.63l-1.918 8.855h-16.629l-2.789 13.143h17.85l-1.883 8.925h-28.482l10.772-50.969h28.518zm43.154 2.719c-2.464-1.371-4.498-2.277-6.102-2.719s-3.195-0.663-4.775-0.663c-3.068 0-5.828 0.941-8.28 2.824s-4.422 4.654-5.909 8.314c-1.487 3.661-2.231 7.595-2.231 11.801 0 3.882 0.796 6.764 2.389 8.646 1.592 1.882 4.131 2.823 7.617 2.823 3.393 0 7.321-0.895 11.783-2.685v9.064c-4.625 1.79-9.273 2.685-13.944 2.685-5.904 0-10.494-1.737-13.771-5.212s-4.916-8.396-4.916-14.765c0-6.089 1.208-11.695 3.626-16.82 2.417-5.125 5.647-9.018 9.691-11.679s8.692-3.992 13.945-3.992c2.904 0 5.484 0.262 7.739 0.784 2.254 0.523 4.671 1.482 7.251 2.876zm43.608-2.58h-12.306l-8.855 41.975h-10.633l8.854-41.975h-12.271l1.918-8.994h35.211zm57.722 9.064-11.783-1.499 5.578 11.714-8.576 2.545-3.138-11.749-6.867 9.692-7.217-5.718 9.587-8.646-11.365-3.207 2.998-8.263 11.784 6.065 1.15-12.863 8.925 1.777-3.939 12.307 13.491-1.011z" /></g></svg>
