<svg width="360" height="252" enable-background="new 0 0 400 400" version="1.1" viewBox="0 0 360 252" xml:space="preserve" xmlns="http://www.w3.org/2000/svg"><g id="g85" transform="matrix(.96569245 0 0 .95891164 1.573132 -82.445046)"  shape-rendering="auto"><path id="rect5405" d="m3.7131296 147.47295a5.0005 5.0005 0 0 0 -5 5v48a5.0005 5.0005 0 0 0 5 5h48.0000004a5.0005 5.0005 0 0 0 5 -5v-48a5.0005 5.0005 0 0 0 -5 -5h-48.0000004zm5 10h38.0000004v38h-38.0000004v-38z" color="#000000" color-rendering="auto" enable-background="accumulate" image-rendering="auto" opacity=".98000004" solid-color="#000000" style="block-progression:tb;isolation:auto;mix-blend-mode:normal;text-decoration-color:#000000;text-decoration-line:none;text-decoration-style:solid;text-indent:0;text-transform:none;white-space:normal"/><path id="rect5405-1" d="m3.7131296 215.5413a5.0005 5.0005 0 0 0 -5 5v48.00001a5.0005 5.0005 0 0 0 5 5h48.0000004a5.0005 5.0005 0 0 0 5 -5v-48.00001a5.0005 5.0005 0 0 0 -5 -5h-48.0000004zm5 10h38.0000004v38.00001h-38.0000004v-38.00001z" color="#000000" color-rendering="auto" enable-background="accumulate" image-rendering="auto" opacity=".98000004" solid-color="#000000" style="block-progression:tb;isolation:auto;mix-blend-mode:normal;text-decoration-color:#000000;text-decoration-line:none;text-decoration-style:solid;text-indent:0;text-transform:none;white-space:normal"/><path id="path5424" d="m180.36547 172.40654-112.71093 0.42383 0.0293 8 112.71092-0.42383-0.0293-8z" color="#000000" color-rendering="auto" enable-background="accumulate" fill-rule="evenodd" image-rendering="auto" solid-color="#000000" style="block-progression:tb;isolation:auto;mix-blend-mode:normal;text-decoration-color:#000000;text-decoration-line:none;text-decoration-style:solid;text-indent:0;text-transform:none;white-space:normal"/><path id="path5424-5" d="m180.36547 236.40655-112.71093 0.42383 0.0293 8 112.71092-0.42383-0.0293-8z" color="#000000" color-rendering="auto" enable-background="accumulate" fill-rule="evenodd" image-rendering="auto" solid-color="#000000" style="block-progression:tb;isolation:auto;mix-blend-mode:normal;text-decoration-color:#000000;text-decoration-line:none;text-decoration-style:solid;text-indent:0;text-transform:none;white-space:normal"/><path id="path5443" d="m46.30493 215.07451-21.3125 40.05274-18.5253904-19.53516-7.25781003 6.88086 28.0859304 29.61719 27.8379-52.31837-8.82813-4.69726z" color="#000000" color-rendering="auto" enable-background="accumulate" fill-rule="evenodd" image-rendering="auto" solid-color="#000000" style="block-progression:tb;isolation:auto;mix-blend-mode:normal;text-decoration-color:#000000;text-decoration-line:none;text-decoration-style:solid;text-indent:0;text-transform:none;white-space:normal"/></g><path id="path5424-0" d="m175.75079 219.41489-108.503496 0.4132 0.02821 7.79924 108.503486-0.41318-0.0282-7.79926z" color="#000000" color-rendering="auto" enable-background="accumulate"  fill-rule="evenodd" image-rendering="auto" shape-rendering="auto" solid-color="#000000" style="block-progression:tb;isolation:auto;mix-blend-mode:normal;text-decoration-color:#000000;text-decoration-line:none;text-decoration-style:solid;text-indent:0;text-transform:none;white-space:normal"/><path id="path5424-5-1" d="m359.9718 215.51527-108.5035 0.4132 0.0282 7.79924 108.50349-0.41319-0.0282-7.79925z" color="#000000" color-rendering="auto" enable-background="accumulate"  fill-rule="evenodd" image-rendering="auto" shape-rendering="auto" solid-color="#000000" style="block-progression:tb;isolation:auto;mix-blend-mode:normal;text-decoration-color:#000000;text-decoration-line:none;text-decoration-style:solid;text-indent:0;text-transform:none;white-space:normal"/><path id="path6009" d="m28.247856 195.45542c-15.361363 1e-5 -27.9174451 12.71568-27.9174451 28.27228 0 15.55662 12.5560821 28.2723 27.9174451 28.2723 15.361362 1e-5 27.917445-12.71567 27.917445-28.2723 0-15.5566-12.556073-28.27228-27.917445-28.27228zm0 9.74906c10.158706 0 18.290739 8.2354 18.290739 18.52322 0 10.28784-8.132033 18.52325-18.290739 18.52324-10.158706 0-18.2907397-8.23541-18.2907397-18.52324 0-10.28782 8.1320337-18.52321 18.2907397-18.52322z" color="#000000" color-rendering="auto" enable-background="accumulate"  image-rendering="auto" opacity=".98000004" shape-rendering="auto" solid-color="#000000" style="block-progression:tb;isolation:auto;mix-blend-mode:normal;text-decoration-color:#000000;text-decoration-line:none;text-decoration-style:solid;text-indent:0;text-transform:none;white-space:normal"/><path id="path6009-1" d="m212.46886 195.45543c-15.36136 0-27.91744 12.71567-27.91744 28.27228 0 15.5566 12.55608 28.27228 27.91744 28.27229 15.36136 0 27.91745-12.71568 27.91745-28.27229s-12.55608-28.27229-27.91745-28.27228zm0 9.74906c10.15871-1e-5 18.29074 8.23539 18.29074 18.52322 0 10.28782-8.13203 18.52323-18.29074 18.52323-10.1587-1e-5 -18.29074-8.23542-18.29074-18.52323 0-10.28783 8.13204-18.52322 18.29074-18.52322z" color="#000000" color-rendering="auto" enable-background="accumulate"  image-rendering="auto" opacity=".98000004" shape-rendering="auto" solid-color="#000000" style="block-progression:tb;isolation:auto;mix-blend-mode:normal;text-decoration-color:#000000;text-decoration-line:none;text-decoration-style:solid;text-indent:0;text-transform:none;white-space:normal"/><path id="path6026" d="m35.949672 223.72721a7.7013641 7.7992527 0 0 1 -7.701364 7.79925 7.7013641 7.7992527 0 0 1 -7.701364 -7.79925 7.7013641 7.7992527 0 0 1 7.701364 -7.79925 7.7013641 7.7992527 0 0 1 7.701364 7.79925z"  opacity=".98000004"/><g id="flowRoot11395" transform="matrix(.70336255 0 0 .70350129 10.916616 -79.640014)" ><g id="text7223" transform="matrix(1.6568483,0,0,1.6568483,1220.9783,23.178987)"  stroke-width="1px"><path id="path7236" d="m-735.65291 87.262254q1.71838 0 2.82702-0.33259 1.16406-0.388021 1.82924-0.99777 0.66518-0.66518 0.88691-1.441224 0.27716-0.831475 0.27716-1.66295 0-1.053202-0.60975-1.884678-0.60975-0.831475-1.55209-1.441224-0.94234-0.66518-2.1064-1.164065-1.16407-0.554317-2.32813-0.99777-1.55209-0.554317-3.21504-1.274929t-3.04874-1.829246q-1.33036-1.108634-2.21727-2.716152-0.88691-1.662951-0.88691-4.101945 0-4.822557 3.10418-7.53871 3.1596-2.716152 8.64734-2.716152 3.1596 0 5.48774 0.720612 2.38356 0.720612 3.99108 1.607519l-1.99554 5.26601q-1.3858-0.776044-3.10418-1.330361-1.66295-0.554317-3.88022-0.554317-5.4323 0-5.4323 3.93565 0 0.997771 0.55432 1.773814 0.55431 0.720612 1.38579 1.330361 0.8869 0.554317 1.94011 0.99777 1.10863 0.443453 2.16183 0.831475 1.60752 0.609749 3.3259 1.385792 1.77382 0.720612 3.21504 1.995541 1.49666 1.219497 2.439 3.104175 0.94233 1.829245 0.94233 4.656261 0 4.822557-3.1596 7.483278-3.10418 2.605289-9.47882 2.605289-4.26824 0-6.8181-0.886907-2.54986-0.942338-3.82478-1.718382l1.99554-5.543169q1.49665 0.886907 3.54762 1.662951 2.10641 0.776043 5.09972 0.776043z"/><path id="path7238" d="m-712.87049 71.852246h-5.93119v-5.654032h5.93119v-6.540939l6.8181-1.108634v7.649573h10.92004v5.654032h-10.92004v10.53202q0 1.441224 0.27716 2.328131t0.77604 1.385792q0.49889 0.498885 1.2195 0.66518t1.60752 0.166295q0.94234 0 1.71838-0.05543 0.83148-0.05543 1.55209-0.166295 0.77604-0.166295 1.55209-0.443454 0.83147-0.277158 1.77381-0.720612l0.94234 5.875759q-1.88468 0.776044-4.10195 1.108634-2.16183 0.33259-4.21281 0.33259-2.38356 0-4.2128-0.388022-1.82925-0.388022-3.10418-1.496656-1.27493-1.108633-1.94011-3.104174-0.66518-2.050972-0.66518-5.321442v-10.698315z"/><path id="path7240" d="m-679.16802 87.373118q1.10863 0 2.16183 0 1.05321-0.05543 1.82925-0.166295v-5.986622q-0.66518-0.110864-1.60752-0.166295-0.94234-0.110864-1.71838-0.110864-1.0532 0-2.05097 0.166295-0.99777 0.110864-1.77382 0.443454-0.72061 0.33259-1.16406 0.942338-0.44346 0.609749-0.44346 1.607519 0 1.773814 1.33036 2.549858 1.33036 0.720612 3.43677 0.720612zm-0.60975-21.840085q3.21504 0 5.32144 0.776044 2.16184 0.720612 3.43677 2.106404 1.27492 1.330361 1.82924 3.325901 0.55432 1.940109 0.55432 4.379104v15.520872q-1.49666 0.33259-4.43454 0.776043-2.93788 0.443454-6.59637 0.443454-2.49442 0-4.5454-0.443454-1.99554-0.443453-3.43676-1.441224-1.44122-1.053202-2.21727-2.66072-0.77604-1.662951-0.77604-4.046514 0-2.272699 0.88691-3.824786 0.8869-1.552087 2.38356-2.494426 1.49665-0.942338 3.43676-1.33036 1.94011-0.443454 4.04652-0.443454 2.66072 0 4.71169 0.443454v-0.831476q0-1.940109-1.2195-3.215037-1.21949-1.330361-4.21281-1.330361-1.9401 0-3.76935 0.277159-1.77381 0.277158-2.88245 0.66518l-0.94234-5.487737q1.27493-0.443454 3.60306-0.776044 2.32813-0.388022 4.82256-0.388022z"/><path id="path7242" d="m-657.4388 71.852246h-5.93119v-5.654032h5.93119v-6.540939l6.8181-1.108634v7.649573h10.92004v5.654032h-10.92004v10.53202q0 1.441224 0.27716 2.328131 0.27715 0.886907 0.77604 1.385792 0.49888 0.498885 1.2195 0.66518 0.72061 0.166295 1.60751 0.166295 0.94234 0 1.71839-0.05543 0.83147-0.05543 1.55208-0.166295 0.77605-0.166295 1.55209-0.443454 0.83148-0.277158 1.77382-0.720612l0.94233 5.875759q-1.88467 0.776044-4.10194 1.108634-2.16184 0.33259-4.21281 0.33259-2.38356 0-4.21281-0.388022-1.82924-0.388022-3.10417-1.496656-1.27493-1.108633-1.94011-3.104174-0.66518-2.050972-0.66518-5.321442v-10.698315z"/><path id="path7244" d="m-621.90709 58.714936q0 1.995541-1.27493 3.159606-1.27493 1.164066-3.04874 1.164066-1.77382 0-3.04874-1.164066-1.2195-1.164065-1.2195-3.159606 0-2.050972 1.2195-3.215038 1.27492-1.164065 3.04874-1.164065 1.77381 0 3.04874 1.164065 1.27493 1.164066 1.27493 3.215038zm10.144 32.427537q-2.10641 0.99777-3.99108 1.33036-1.82925 0.388022-3.38134 0.388022-2.66072 0-4.48996-0.776044-1.77382-0.776043-2.88245-2.217267-1.0532-1.496656-1.49666-3.60306-0.44345-2.106404-0.44345-4.822557v-9.589681h-7.20612v-5.654032h14.02422v16.13062q0 2.328131 0.83147 3.492197 0.88691 1.108633 2.88245 1.108633 0.94234 0 2.2727-0.221726 1.33036-0.277159 2.99331-1.053202l0.88691 5.487737z"/><path id="path7246" d="m-607.49484 79.22466q0-2.827016 0.8869-5.321442 0.88691-2.494426 2.71616-4.323671 1.82924-1.884678 4.60083-2.93788 2.82701-1.108634 6.70723-1.108634 2.32813 0 4.21281 0.332591 1.88468 0.33259 3.82478 1.108633l-1.49665 5.487737q-1.10863-0.388022-2.49443-0.66518-1.33036-0.33259-3.43676-0.33259-2.439 0-4.10195 0.609748-1.60752 0.554317-2.60529 1.607519-0.99777 0.997771-1.44122 2.438995-0.44345 1.441223-0.44345 3.104174 0 3.60306 1.99554 5.654032 2.05097 2.050972 6.92896 2.050972 1.60752 0 3.3259-0.221726 1.77381-0.221727 3.21504-0.720612l0.99777 5.5986q-1.44123 0.554317-3.4922 0.886907-2.05097 0.388022-4.82255 0.388022-3.99109 0-6.87353-1.053202-2.82702-1.053202-4.65627-2.882448-1.82924-1.829246-2.71615-4.323671-0.83147-2.494426-0.83147-5.376874z"/><path id="path7248" d="m-528.17212 57.938892v5.654032h-9.03536v28.658182h-6.87353v-28.658182h-9.03536v-5.654032h24.94425z"/><path id="path7250" d="m-525.06793 79.446387q0-3.436765 1.0532-6.042054t2.77158-4.323672q1.71839-1.773814 3.93565-2.660721 2.21727-0.886907 4.5454-0.886907 5.7649 0 8.75821 3.436765 2.99331 3.381333 2.99331 9.922272 0 0.66518-0.0554 1.385792 0 0.720612-0.0554 1.164065h-16.90666q0 2.549858 2.1064 4.046514 2.10641 1.441223 5.43231 1.441223 2.05097 0 3.88022-0.443453 1.88468-0.443454 3.1596-0.886907l0.94234 5.820327q-1.77381 0.609749-3.76935 0.99777-1.99554 0.443454-4.48997 0.443454-3.3259 0-5.98662-0.831475-2.60529-0.886907-4.48997-2.549858-1.82924-1.718382-2.82701-4.212808t-0.99777-5.820327zm17.46098-2.716153q0-1.053202-0.27716-1.995541-0.27716-0.99777-0.88691-1.773814-0.60975-0.776043-1.55209-1.219497-0.94233-0.498885-2.32813-0.498885-1.33036 0-2.32813 0.443454-0.94234 0.443453-1.60752 1.219497-0.60974 0.776043-0.99777 1.773814-0.33259 0.99777-0.44345 2.050972h10.42116z"/><path id="path7252" d="m-484.99082 74.346672 5.32145-8.148458h6.92896l-8.42562 12.527561q1.33036 1.607519 2.60529 3.436764 1.27493 1.773814 2.43899 3.60306 1.16407 1.829246 2.10641 3.492196 0.94234 1.662951 1.60752 2.993311h-7.09526q-1.49666-2.827016-2.99331-5.044283-1.49666-2.217268-2.82702-3.991082-1.66295 2.217268-2.99331 4.323672t-2.71615 4.711693h-6.92896q0.83147-1.552087 1.88468-3.215038 1.10863-1.718382 2.2727-3.436764 1.21949-1.773814 2.49442-3.492196 1.33036-1.718383 2.54986-3.27047l-9.14623-12.638424h7.15069l5.76489 8.148458z"/><path id="path7254" d="m-463.42788 71.852246h-5.93119v-5.654032h5.93119v-6.540939l6.81809-1.108634v7.649573h10.92005v5.654032h-10.92005v10.53202q0 1.441224 0.27716 2.328131t0.77605 1.385792q0.49888 0.498885 1.21949 0.66518 0.72062 0.166295 1.60752 0.166295 0.94234 0 1.71838-0.05543 0.83148-0.05543 1.55209-0.166295 0.77605-0.166295 1.55209-0.443454 0.83147-0.277158 1.77381-0.720612l0.94234 5.875759q-1.88468 0.776044-4.10194 1.108634-2.16184 0.33259-4.21281 0.33259-2.38356 0-4.21281-0.388022t-3.10417-1.496656q-1.27493-1.108633-1.94011-3.104174-0.66518-2.050972-0.66518-5.321442v-10.698315z"/></g></g><g id="g51" transform="matrix(.4772293 0 0 .47732343 186.12722 11.599554)" ><path id="path53" d="m347.976 217.70044h-334.960886v-77.61289h334.960886m-96.66145-16.33955h-248.685996c-3.28799998 0-5.953 2.61732-5.953 5.8465v98.59998c0 3.2282 2.66500002 5.84552 5.953 5.84552h361.686996l-0.28814-110.08393z"/><path id="path59" d="m329.69401 208.44687h-52.946c-2.209 0-4-1.791-4-4s1.791-4 4-4h52.946c2.209 0 4 1.791 4 4s-1.791 4-4 4z"/><g id="text16716" stroke-width="1px"><path id="path16721" d="m111.33437 147.28104v9.91132h-15.838671v50.23676h-12.04905v-50.23676h-15.838671v-9.91132h43.726392z"/><path id="path16723" d="m116.77588 184.98291q0-6.02453 1.84622-10.59151 1.84623-4.56697 4.85849-7.57924 3.01226-3.10943 6.89905-4.66415 3.88679-1.55471 7.96792-1.55471 10.10566 0 15.35283 6.02452 5.24716 5.92736 5.24716 17.39339 0 1.16604-0.0972 2.42924 0 1.26321-0.0972 2.04057h-29.63677q0 4.46981 3.69245 7.09339 3.69245 2.52642 9.52263 2.52642 3.59529 0 6.80189-0.77736 3.30377-0.77736 5.53867-1.55472l1.65189 10.20283q-3.10943 1.06886-6.60754 1.74905-3.49811 0.77736-7.87075 0.77736-5.83019 0-10.49434-1.45755-4.56698-1.55471-7.87075-4.46981-3.2066-3.01226-4.95566-7.3849-1.74905-4.37264-1.74905-10.20282zm30.60847-4.76132q0-1.84623-0.48585-3.49811-0.48585-1.74906-1.55471-3.10943-1.06887-1.36038-2.72076-2.13774-1.65188-0.87453-4.08113-0.87453-2.33207 0-4.08113 0.77736-1.65188 0.77736-2.81792 2.13774-1.06887 1.36037-1.74905 3.10943-0.58302 1.74905-0.77736 3.59528h18.26791z"/><path id="path16725" d="m187.02961 176.04329 9.3283-14.28396h12.14622l-14.7698 21.96037q2.33207 2.81792 4.56698 6.02453 2.2349 3.10943 4.27547 6.31603 2.04056 3.2066 3.69245 6.1217 1.65188 2.91509 2.81792 5.24716h-12.43773q-2.62358-4.95565-5.24717-8.84245-2.62358-3.88679-4.95565-6.99622-2.9151 3.88679-5.24717 7.57924-2.33208 3.69245-4.76132 8.25943h-12.14622q1.45755-2.72075 3.30377-5.63584 1.9434-3.01227 3.98396-6.02453 2.13774-3.10943 4.37264-6.12169 2.33208-3.01227 4.46981-5.73302l-16.03301-22.15471h12.5349l10.10565 14.28396z"/><path id="path16727" d="m224.82865 171.67065h-10.39717v-9.91132h10.39717v-11.46603l11.95188-1.94339v13.40942h19.14244v9.91132h-19.14244v18.46226q0 2.52641 0.48585 4.08113 0.48585 1.55471 1.36037 2.42924 0.87453 0.87453 2.13774 1.16604t2.81792 0.29151q1.65189 0 3.01227-0.0972 1.45754-0.0972 2.72075-0.29151 1.36038-0.29151 2.72075-0.77736 1.45755-0.48585 3.10943-1.26321l1.65189 10.3q-3.30377 1.36037-7.19056 1.94339-3.78962 0.58302-7.3849 0.58302-4.1783 0-7.38491-0.68019-3.2066-0.68019-5.4415-2.62358-2.23491-1.9434-3.40094-5.44151-1.16604-3.59528-1.16604-9.3283v-18.75376z"/></g></g><g id="g16658" transform="matrix(.97471433 0 0 .96337547 3.0996058 -52.573023)" ><g id="g16159" transform="matrix(.48551098 0 0 .48551098 177.85673 131.81275)" ><path id="path53-7" d="m255.69611 138.98037v80.32774h-222.445903l-2.9e-4 -80.32774h222.446193m16.04289-17.24137h-248.686c-3.288 0-5.953 2.665-5.953 5.953v100.396c0 3.287 2.665 5.952 5.953 5.952h248.687v-112.301z"/><g id="VGM4vC_2_-8" transform="translate(215.85272,-137.27299)"><path id="rect15494" d="m61.990699 259.5663v112h103.617191c3.52483-7.1e-4 6.3821-2.85798 6.38281-6.38281v-99.23242c3.7e-4 -3.5256-2.85721-6.38406-6.38281-6.38477h-103.617191zm32.279302 35.66797 54.613279 0.30664c3.3455 0.0189 5.36264 3.71217 3.57031 6.53711l-27.5957 43.51172c-1.68414 2.65453-5.56582 2.63036-7.2168-0.0449l-27.017579-43.82227c-1.75113-2.84436 0.30634-6.50528 3.64649-6.48828z" color="#000000" color-rendering="auto" enable-background="accumulate"  image-rendering="auto" shape-rendering="auto" solid-color="#000000" style="block-progression:tb;isolation:auto;mix-blend-mode:normal;text-decoration-color:#000000;text-decoration-line:none;text-decoration-style:solid;text-indent:0;text-transform:none;white-space:normal"/></g><path id="rect15494-7" d="m329.04758 174.06368 16.767 0.0941c1.02711 6e-3 1.6464 1.13968 1.09613 2.00697l-8.47224 13.35868c-0.51706 0.81497-1.70878 0.80755-2.21565-0.0138l-8.29476-13.45401c-0.53762-0.87326 0.094-1.99721 1.11952-1.99198z" color="#000000" color-rendering="auto" enable-background="accumulate" image-rendering="auto" shape-rendering="auto" solid-color="#000000" style="block-progression:tb;isolation:auto;mix-blend-mode:normal;text-decoration-color:#000000;text-decoration-line:none;text-decoration-style:solid;text-indent:0;text-transform:none;white-space:normal"/></g></g></svg>
