<svg width="358.60736" height="332.76425" enable-background="new 0 0 400 400" version="1.1" viewBox="0 0 358.60736 332.76425" xml:space="preserve" xmlns="http://www.w3.org/2000/svg"><g id="g104" transform="translate(-21.761625,-35.37)" ><path id="path106" d="m208.105 214.682-12.226 12.227-9.495 9.494-6.863 6.862c-0.011-0.044-0.021-0.076-0.021-0.076s-2.259 2.769-6.391 1.66v0.037l-17.64-4.727c-4.391-1.179-5.715-5.671-5.733-5.731l-4.74-17.692c-0.839-3.141 0.553-5.193 1.272-6.002l7.223-7.223 9.494-9.494 12.306-12.306c2.927-2.926-0.312-4.452-0.42-4.503-17.071-4.231-35.869 0.309-49.213 13.651-13.062 13.062-17.685 31.353-13.9 48.134l-5e-3 -1e-3s1 4.635-3.958 9.593l-79.924 79.925c-8.146 8.146-8.146 21.354 1e-3 29.501l4.013 4.013c8.148 8.147 21.355 8.147 29.501 0l80.973-80.972c3.729-3.138 7.074-3.115 8.138-3.008 16.891 3.949 35.372-0.641 48.539-13.809 13.352-13.351 17.889-32.162 13.645-49.24-0.228-0.416-1.827-3.063-4.576-0.313zm-157.947 135.641c-2.923 2.923-7.663 2.923-10.584 0-2.924-2.923-2.924-7.662 0-10.585 2.921-2.923 7.661-2.923 10.584 0 2.924 2.922 2.924 7.662 0 10.585z"/><path id="path108" d="m380.369 114.414c0-43.585-35.459-79.044-79.045-79.044-43.585 0-79.044 35.459-79.044 79.044 0 18.169 6.317 35.912 17.788 49.96 1.223 1.497 3.427 1.72 4.925 0.497 1.497-1.223 1.72-3.427 0.497-4.925-10.453-12.802-16.21-28.972-16.21-45.532 0-39.726 32.318-72.044 72.044-72.044s72.045 32.319 72.045 72.044-32.319 72.044-72.045 72.044h-102.473c-0.929 0-1.818 0.369-2.475 1.025l-11.522 11.521-17.381-4.658-15.938 15.939 5.833 21.77 21.77 5.834 15.938-15.938-4.917-18.353 10.141-10.141h101.368c0.039 0 0.076-0.01 0.115-0.012 43.375-0.248 78.586-35.599 78.586-79.031zm-207.064 112.315c-5.858 0-10.61-4.75-10.61-10.61 0-5.859 4.752-10.609 10.61-10.609 5.86 0 10.61 4.75 10.61 10.609 0 5.86-4.75 10.609-10.61 10.61z"/><path id="path110" d="m359.898 114.414c0-32.35-26.224-58.574-58.574-58.574s-58.574 26.225-58.574 58.574 26.225 58.574 58.574 58.574c32.351 0 58.574-26.225 58.574-58.574zm-76.528-5.319h7.242c1.289 0 2.346-1.056 2.346-2.347v-18.773h16.732v18.773c0 1.291 1.057 2.347 2.346 2.347h7.241c1.292 0 1.627 0.772 0.75 1.718l-17.103 18.387c-0.881 0.944-2.317 0.944-3.196 0l-17.106-18.387c-0.881-0.945-0.542-1.718 0.748-1.718zm-10.141 29.118v-11.876c0-1.458 1.18-2.64 2.642-2.64 1.456 0 2.639 1.182 2.639 2.64v9.237h45.63v-9.237c0-1.458 1.183-2.64 2.642-2.64s2.64 1.182 2.64 2.64v11.876c0 1.458-1.181 2.64-2.64 2.64h-50.91c-1.463 1e-3 -2.643-1.181-2.643-2.64z"/></g></svg>
