<svg width="371.99899" height="252.85925" enable-background="new 0 0 400 400" version="1.1" viewBox="0 0 371.99899 252.85925" xml:space="preserve" xmlns="http://www.w3.org/2000/svg"><g id="g119" transform="translate(-18.263,-119.715)"><g id="g121" ><path id="path123" d="m208.106 219.122-12.226 12.227-9.495 9.494-6.863 6.862c-0.011-0.044-0.021-0.076-0.021-0.076s-2.259 2.769-6.391 1.66v0.037l-17.64-4.727c-4.391-1.179-5.715-5.671-5.733-5.731l-4.74-17.692c-0.839-3.141 0.553-5.193 1.272-6.002l7.223-7.223 9.494-9.494 12.306-12.306c2.927-2.926-0.312-4.452-0.42-4.503-17.071-4.231-35.869 0.309-49.213 13.651-13.062 13.062-17.685 31.353-13.9 48.134l-5e-3 -1e-3s1 4.635-3.958 9.593l-79.924 79.925c-8.146 8.146-8.146 21.354 1e-3 29.501l4.013 4.013c8.148 8.147 21.355 8.147 29.501 0l80.973-80.972c3.729-3.138 7.074-3.115 8.138-3.008 16.891 3.949 35.372-0.641 48.539-13.809 13.352-13.351 17.889-32.162 13.645-49.24-0.228-0.417-1.827-3.063-4.576-0.313zm-157.947 135.64c-2.923 2.923-7.663 2.923-10.584 0-2.924-2.923-2.924-7.662 0-10.585 2.921-2.923 7.661-2.923 10.584 0 2.924 2.922 2.924 7.662 0 10.585z"/><path id="path125" d="m378.237 190.898h-179.378c-0.928 0-1.818 0.369-2.475 1.025l-11.523 11.523-17.388-4.66-15.938 15.939 5.833 21.77 21.77 5.834 15.938-15.938-4.916-18.347 10.147-10.147h177.928c1.933 0 3.5-1.567 3.5-3.5s-1.565-3.499-3.498-3.499zm-204.931 40.27c-5.858 0-10.61-4.75-10.61-10.61 0-5.859 4.752-10.609 10.61-10.609 5.86 0 10.61 4.75 10.61 10.609 0 5.86-4.75 10.609-10.61 10.61z"/><path id="path127" d="m101.488 197.73c1.933 0 3.5-1.567 3.5-3.5s-1.567-3.5-3.5-3.5h-79.725c-1.933 0-3.5 1.567-3.5 3.5s1.567 3.5 3.5 3.5h79.725z"/></g><g id="g129"><g id="g131" ><path id="path133" d="m39.381 129.926c1.267 0 2.331 0.258 3.192 0.773 0.862 0.516 1.799 1.542 2.812 3.079h0.203l0.051-0.938c0.118-2.331 0.33-4.164 0.633-5.499l1.571-7.626h9.907l-8.362 39.426h-7.828l0.253-3.117h-0.203c-0.963 1.335-1.976 2.272-3.041 2.812-1.064 0.541-2.314 0.811-3.75 0.811-2.669 0-4.696-0.941-6.081-2.825-1.385-1.883-2.078-4.59-2.078-8.121 0-3.006 0.604-6.072 1.812-9.197s2.758-5.502 4.649-7.133c1.893-1.63 3.98-2.445 6.26-2.445zm-0.532 21.841c0.845 0 1.651-0.494 2.42-1.482s1.381-2.31 1.837-3.965 0.684-3.277 0.684-4.865c0-2.432-0.676-3.648-2.027-3.648-0.828 0-1.639 0.499-2.433 1.495-0.794 0.997-1.436 2.311-1.926 3.94-0.49 1.63-0.735 3.265-0.735 4.903 0 2.415 0.727 3.622 2.18 3.622z"/><path id="path135" d="m80.732 159.141h-7.829l0.253-3.117h-0.203c-0.946 1.318-1.968 2.251-3.066 2.8s-2.34 0.824-3.725 0.824c-2.669 0-4.696-0.941-6.081-2.825-1.385-1.883-2.078-4.59-2.078-8.121 0-3.023 0.616-6.106 1.85-9.248 1.233-3.142 2.791-5.515 4.675-7.12 1.883-1.604 3.965-2.407 6.246-2.407 1.419 0 2.668 0.317 3.75 0.95 1.081 0.634 2.043 1.668 2.888 3.104h0.203l1.343-3.547h7.854l-6.08 28.707zm-10.54-7.374c0.845 0 1.651-0.494 2.42-1.482s1.381-2.31 1.837-3.965 0.684-3.277 0.684-4.865c0-1.098-0.169-1.98-0.507-2.647s-0.861-1.001-1.571-1.001c-1.284 0-2.445 1.068-3.484 3.205s-1.559 4.515-1.559 7.133c1e-3 2.415 0.727 3.622 2.18 3.622z"/><path id="path137" d="m101.738 151.767c1.115 0 2.661-0.396 4.637-1.191v7.374c-2.297 1.132-5.169 1.698-8.615 1.698-2.5 0-4.396-0.536-5.688-1.609s-1.938-2.833-1.938-5.283c0-1.283 0.203-2.872 0.608-4.764l2.128-10.186h-3.902l1.039-4.814 5.523-2.229 3.471-6.081h6.538l-1.242 5.751h7.297l-1.596 7.374h-7.323l-2.128 9.705c-0.271 1.301-0.405 2.188-0.405 2.66 0 1.063 0.531 1.595 1.596 1.595z"/><path id="path139" d="m124.567 159.647c-3.582 0-6.369-1.001-8.362-3.002-1.993-2.002-2.99-4.785-2.99-8.349s0.705-6.778 2.116-9.641c1.41-2.863 3.345-5.033 5.802-6.512 2.458-1.478 5.3-2.217 8.526-2.217 3.209 0 5.735 0.727 7.576 2.179 1.841 1.453 2.762 3.387 2.762 5.802 0 3.396-1.322 6.001-3.965 7.817-2.644 1.816-6.466 2.724-11.465 2.724h-1.495v0.405c0 2.5 1.385 3.75 4.155 3.75 1.334 0 2.644-0.198 3.928-0.596 1.283-0.396 2.745-1.026 4.383-1.888v6.943c-1.892 0.963-3.657 1.634-5.296 2.014-1.638 0.382-3.53 0.571-5.675 0.571zm4.004-23.083c-1.031 0-1.994 0.587-2.889 1.761-0.896 1.174-1.436 2.504-1.622 3.991h0.735c1.841 0 3.285-0.351 4.333-1.052 1.047-0.701 1.571-1.625 1.571-2.774 0-0.541-0.169-0.997-0.507-1.368-0.338-0.372-0.879-0.558-1.621-0.558z"/><path id="path141" d="m157.203 139.529v-6.74h24.705v6.74h-24.705zm0 9.502v-6.867h24.705v6.867h-24.705z"/><path id="path143" d="m216.342 168.744h-23.539l1.444-6.233h23.564l-1.469 6.233z"/><path id="path145" d="m261.976 121.564-21.233 38.083h-8.716l21.233-38.083h8.716z"/><path id="path147" d="m290.887 168.744h-23.539l1.444-6.233h23.564l-1.469 6.233z"/><path id="path149" d="m336.521 121.564-21.233 38.083h-8.716l21.233-38.083h8.716z"/><path id="path151" d="m365.432 168.744h-23.539l1.444-6.233h23.564l-1.469 6.233z"/><path id="path153" d="m388.793 168.744h-23.539l1.444-6.233h23.564l-1.469 6.233z"/></g></g></g></svg>
