<svg width="367" height="250" enable-background="new 0 0 400 400" version="1.1" viewBox="0 0 367 250" xml:space="preserve" xmlns="http://www.w3.org/2000/svg"><g id="g85" transform="translate(-25.994625,-118.13425)" ><path id="path87" d="m212.338 214.682-12.226 12.227-9.495 9.494-6.863 6.862c-0.011-0.044-0.021-0.076-0.021-0.076s-2.259 2.769-6.391 1.66v0.037l-17.64-4.727c-4.391-1.179-5.715-5.671-5.733-5.731l-4.74-17.692c-0.839-3.141 0.553-5.193 1.272-6.002l7.223-7.223 9.494-9.494 12.306-12.306c2.927-2.926-0.312-4.452-0.42-4.503-17.071-4.231-35.869 0.309-49.213 13.651-13.062 13.062-17.685 31.353-13.9 48.134l-5e-3 -1e-3s1 4.635-3.958 9.593l-79.924 79.925c-8.146 8.146-8.146 21.354 1e-3 29.501l4.013 4.013c8.148 8.147 21.355 8.147 29.501 0l80.973-80.972c3.729-3.138 7.074-3.115 8.138-3.008 16.891 3.949 35.372-0.641 48.539-13.809 13.352-13.351 17.889-32.162 13.645-49.24-0.228-0.416-1.827-3.063-4.576-0.313zm-157.947 135.641c-2.923 2.923-7.663 2.923-10.584 0-2.924-2.923-2.924-7.662 0-10.585 2.921-2.923 7.661-2.923 10.584 0 2.923 2.922 2.923 7.662 0 10.585z"/><path id="path89" d="m390.354 186.458h-187.263c-0.929 0-1.818 0.369-2.475 1.025l-11.523 11.523-17.388-4.66-15.938 15.939 5.833 21.77 21.77 5.834 15.938-15.938-4.916-18.347 10.147-10.147h185.814c1.933 0 3.5-1.567 3.5-3.5s-1.566-3.499-3.499-3.499zm-212.817 40.271c-5.858 0-10.61-4.75-10.61-10.61 0-5.859 4.752-10.609 10.61-10.609 5.86 0 10.61 4.75 10.61 10.609 0 5.86-4.75 10.609-10.61 10.61z"/><g id="flowRoot11395" transform="matrix(.72160891 0 0 .72160891 42.389937 37.898088)" font-family="'Ubuntu Mono'" font-size="90px" font-weight="bold" letter-spacing="0px" stroke-width="1px" word-spacing="0px" style="line-height:125%"><g id="text7223" transform="matrix(1.6568483,0,0,1.6568483,1220.9783,23.178987)" ><path id="path7236" d="m-735.65291 87.262254q1.71838 0 2.82702-0.33259 1.16406-0.388021 1.82924-0.99777 0.66518-0.66518 0.88691-1.441224 0.27716-0.831475 0.27716-1.66295 0-1.053202-0.60975-1.884678-0.60975-0.831475-1.55209-1.441224-0.94234-0.66518-2.1064-1.164065-1.16407-0.554317-2.32813-0.99777-1.55209-0.554317-3.21504-1.274929t-3.04874-1.829246q-1.33036-1.108634-2.21727-2.716152-0.88691-1.662951-0.88691-4.101945 0-4.822557 3.10418-7.53871 3.1596-2.716152 8.64734-2.716152 3.1596 0 5.48774 0.720612 2.38356 0.720612 3.99108 1.607519l-1.99554 5.26601q-1.3858-0.776044-3.10418-1.330361-1.66295-0.554317-3.88022-0.554317-5.4323 0-5.4323 3.93565 0 0.997771 0.55432 1.773814 0.55431 0.720612 1.38579 1.330361 0.8869 0.554317 1.94011 0.99777 1.10863 0.443453 2.16183 0.831475 1.60752 0.609749 3.3259 1.385792 1.77382 0.720612 3.21504 1.995541 1.49666 1.219497 2.439 3.104175 0.94233 1.829245 0.94233 4.656261 0 4.822557-3.1596 7.483278-3.10418 2.605289-9.47882 2.605289-4.26824 0-6.8181-0.886907-2.54986-0.942338-3.82478-1.718382l1.99554-5.543169q1.49665 0.886907 3.54762 1.662951 2.10641 0.776043 5.09972 0.776043z"/><path id="path7238" d="m-712.87049 71.852246h-5.93119v-5.654032h5.93119v-6.540939l6.8181-1.108634v7.649573h10.92004v5.654032h-10.92004v10.53202q0 1.441224 0.27716 2.328131t0.77604 1.385792q0.49889 0.498885 1.2195 0.66518t1.60752 0.166295q0.94234 0 1.71838-0.05543 0.83148-0.05543 1.55209-0.166295 0.77604-0.166295 1.55209-0.443454 0.83147-0.277158 1.77381-0.720612l0.94234 5.875759q-1.88468 0.776044-4.10195 1.108634-2.16183 0.33259-4.21281 0.33259-2.38356 0-4.2128-0.388022-1.82925-0.388022-3.10418-1.496656-1.27493-1.108633-1.94011-3.104174-0.66518-2.050972-0.66518-5.321442v-10.698315z"/><path id="path7240" d="m-679.16802 87.373118q1.10863 0 2.16183 0 1.05321-0.05543 1.82925-0.166295v-5.986622q-0.66518-0.110864-1.60752-0.166295-0.94234-0.110864-1.71838-0.110864-1.0532 0-2.05097 0.166295-0.99777 0.110864-1.77382 0.443454-0.72061 0.33259-1.16406 0.942338-0.44346 0.609749-0.44346 1.607519 0 1.773814 1.33036 2.549858 1.33036 0.720612 3.43677 0.720612zm-0.60975-21.840085q3.21504 0 5.32144 0.776044 2.16184 0.720612 3.43677 2.106404 1.27492 1.330361 1.82924 3.325901 0.55432 1.940109 0.55432 4.379104v15.520872q-1.49666 0.33259-4.43454 0.776043-2.93788 0.443454-6.59637 0.443454-2.49442 0-4.5454-0.443454-1.99554-0.443453-3.43676-1.441224-1.44122-1.053202-2.21727-2.66072-0.77604-1.662951-0.77604-4.046514 0-2.272699 0.88691-3.824786 0.8869-1.552087 2.38356-2.494426 1.49665-0.942338 3.43676-1.33036 1.94011-0.443454 4.04652-0.443454 2.66072 0 4.71169 0.443454v-0.831476q0-1.940109-1.2195-3.215037-1.21949-1.330361-4.21281-1.330361-1.9401 0-3.76935 0.277159-1.77381 0.277158-2.88245 0.66518l-0.94234-5.487737q1.27493-0.443454 3.60306-0.776044 2.32813-0.388022 4.82256-0.388022z"/><path id="path7242" d="m-657.4388 71.852246h-5.93119v-5.654032h5.93119v-6.540939l6.8181-1.108634v7.649573h10.92004v5.654032h-10.92004v10.53202q0 1.441224 0.27716 2.328131 0.27715 0.886907 0.77604 1.385792 0.49888 0.498885 1.2195 0.66518 0.72061 0.166295 1.60751 0.166295 0.94234 0 1.71839-0.05543 0.83147-0.05543 1.55208-0.166295 0.77605-0.166295 1.55209-0.443454 0.83148-0.277158 1.77382-0.720612l0.94233 5.875759q-1.88467 0.776044-4.10194 1.108634-2.16184 0.33259-4.21281 0.33259-2.38356 0-4.21281-0.388022-1.82924-0.388022-3.10417-1.496656-1.27493-1.108633-1.94011-3.104174-0.66518-2.050972-0.66518-5.321442v-10.698315z"/><path id="path7244" d="m-621.90709 58.714936q0 1.995541-1.27493 3.159606-1.27493 1.164066-3.04874 1.164066-1.77382 0-3.04874-1.164066-1.2195-1.164065-1.2195-3.159606 0-2.050972 1.2195-3.215038 1.27492-1.164065 3.04874-1.164065 1.77381 0 3.04874 1.164065 1.27493 1.164066 1.27493 3.215038zm10.144 32.427537q-2.10641 0.99777-3.99108 1.33036-1.82925 0.388022-3.38134 0.388022-2.66072 0-4.48996-0.776044-1.77382-0.776043-2.88245-2.217267-1.0532-1.496656-1.49666-3.60306-0.44345-2.106404-0.44345-4.822557v-9.589681h-7.20612v-5.654032h14.02422v16.13062q0 2.328131 0.83147 3.492197 0.88691 1.108633 2.88245 1.108633 0.94234 0 2.2727-0.221726 1.33036-0.277159 2.99331-1.053202l0.88691 5.487737z"/><path id="path7246" d="m-607.49484 79.22466q0-2.827016 0.8869-5.321442 0.88691-2.494426 2.71616-4.323671 1.82924-1.884678 4.60083-2.93788 2.82701-1.108634 6.70723-1.108634 2.32813 0 4.21281 0.332591 1.88468 0.33259 3.82478 1.108633l-1.49665 5.487737q-1.10863-0.388022-2.49443-0.66518-1.33036-0.33259-3.43676-0.33259-2.439 0-4.10195 0.609748-1.60752 0.554317-2.60529 1.607519-0.99777 0.997771-1.44122 2.438995-0.44345 1.441223-0.44345 3.104174 0 3.60306 1.99554 5.654032 2.05097 2.050972 6.92896 2.050972 1.60752 0 3.3259-0.221726 1.77381-0.221727 3.21504-0.720612l0.99777 5.5986q-1.44123 0.554317-3.4922 0.886907-2.05097 0.388022-4.82255 0.388022-3.99109 0-6.87353-1.053202-2.82702-1.053202-4.65627-2.882448-1.82924-1.829246-2.71615-4.323671-0.83147-2.494426-0.83147-5.376874z"/><path id="path7248" d="m-528.17212 57.938892v5.654032h-9.03536v28.658182h-6.87353v-28.658182h-9.03536v-5.654032h24.94425z"/><path id="path7250" d="m-525.06793 79.446387q0-3.436765 1.0532-6.042054t2.77158-4.323672q1.71839-1.773814 3.93565-2.660721 2.21727-0.886907 4.5454-0.886907 5.7649 0 8.75821 3.436765 2.99331 3.381333 2.99331 9.922272 0 0.66518-0.0554 1.385792 0 0.720612-0.0554 1.164065h-16.90666q0 2.549858 2.1064 4.046514 2.10641 1.441223 5.43231 1.441223 2.05097 0 3.88022-0.443453 1.88468-0.443454 3.1596-0.886907l0.94234 5.820327q-1.77381 0.609749-3.76935 0.99777-1.99554 0.443454-4.48997 0.443454-3.3259 0-5.98662-0.831475-2.60529-0.886907-4.48997-2.549858-1.82924-1.718382-2.82701-4.212808t-0.99777-5.820327zm17.46098-2.716153q0-1.053202-0.27716-1.995541-0.27716-0.99777-0.88691-1.773814-0.60975-0.776043-1.55209-1.219497-0.94233-0.498885-2.32813-0.498885-1.33036 0-2.32813 0.443454-0.94234 0.443453-1.60752 1.219497-0.60974 0.776043-0.99777 1.773814-0.33259 0.99777-0.44345 2.050972h10.42116z"/><path id="path7252" d="m-484.99082 74.346672 5.32145-8.148458h6.92896l-8.42562 12.527561q1.33036 1.607519 2.60529 3.436764 1.27493 1.773814 2.43899 3.60306 1.16407 1.829246 2.10641 3.492196 0.94234 1.662951 1.60752 2.993311h-7.09526q-1.49666-2.827016-2.99331-5.044283-1.49666-2.217268-2.82702-3.991082-1.66295 2.217268-2.99331 4.323672t-2.71615 4.711693h-6.92896q0.83147-1.552087 1.88468-3.215038 1.10863-1.718382 2.2727-3.436764 1.21949-1.773814 2.49442-3.492196 1.33036-1.718383 2.54986-3.27047l-9.14623-12.638424h7.15069l5.76489 8.148458z"/><path id="path7254" d="m-463.42788 71.852246h-5.93119v-5.654032h5.93119v-6.540939l6.81809-1.108634v7.649573h10.92005v5.654032h-10.92005v10.53202q0 1.441224 0.27716 2.328131t0.77605 1.385792q0.49888 0.498885 1.21949 0.66518 0.72062 0.166295 1.60752 0.166295 0.94234 0 1.71838-0.05543 0.83148-0.05543 1.55209-0.166295 0.77605-0.166295 1.55209-0.443454 0.83147-0.277158 1.77381-0.720612l0.94234 5.875759q-1.88468 0.776044-4.10194 1.108634-2.16184 0.33259-4.21281 0.33259-2.38356 0-4.21281-0.388022t-3.10417-1.496656q-1.27493-1.108633-1.94011-3.104174-0.66518-2.050972-0.66518-5.321442v-10.698315z"/></g><flowRoot id="flowRoot7227" transform="matrix(1.3857922,0,0,1.3857922,-22.720496,-22.246244)" fill="#000000" font-family="sans-serif" font-size="40px" font-weight="normal" letter-spacing="0px" word-spacing="0px" style="line-height:125%" xml:space="preserve"><flowRegion id="flowRegion7229"><rect id="rect7231" x="31.160639" y="17.904062" width="347.56097" height="117.45164"/></flowRegion><flowPara id="flowPara7233"/></flowRoot></g><path id="path7822" d="m30.488281 186.95898a3.50035 3.50035 0 1 0 0 7h86.591799a3.50035 3.50035 0 1 0 0 -7h-86.591799z" color="#000000" color-rendering="auto" enable-background="accumulate" fill-rule="evenodd" image-rendering="auto" shape-rendering="auto" solid-color="#000000" style="block-progression:tb;isolation:auto;mix-blend-mode:normal;text-decoration-color:#000000;text-decoration-line:none;text-decoration-style:solid;text-indent:0;text-transform:none;white-space:normal"/></g></svg>
