<svg width="24.881197" height="21.919394" version="1.1" viewBox="0 0 24.881197 21.919394" xml:space="preserve" xmlns="http://www.w3.org/2000/svg"><g id="scissors-alt_2_" transform="translate(-12.027803,-13.039803)"><path id="path68" d="m20.814 27.047c-0.595-0.373-0.964-1.007-1.032-1.782l-6.297 2.985c-1.273 0.606-1.815 2.134-1.209 3.406l0.879 1.846c0.606 1.273 2.133 1.815 3.406 1.209l1.776-0.82c1.147-0.546 1.704-1.795 1.622-3.061l6e-3 -3.383c1e-3 1e-3 0.316-0.148 0.849-0.4zm-3.239 5.198-2.024 0.938c-0.288 0.137-0.646 0.01-0.783-0.278l-1.011-2.123c-0.137-0.288-0.01-0.646 0.278-0.783 0 0 2.158-1.001 3.168-1.482 0.448-0.213 0.799-0.075 0.846 0.452 0.072 0.805 0.139 2.131 0.139 2.131 0.032 0.487-0.173 0.935-0.613 1.145zm7.081-11.244c3.847-1.191 9.386-2.843 9.427-2.854 1.001-0.259 2.092-0.264 2.824 1.274-0.952 0.453-4.311 2.045-7.79 3.693-1.567-0.741-3.115-1.475-4.461-2.113zm-4.69-0.449-6e-3 -3.383c0.082-1.266-0.476-2.515-1.622-3.061l-1.776-0.82c-1.273-0.606-2.8-0.064-3.406 1.209l-0.879 1.846c-0.606 1.273-0.064 2.8 1.209 3.406l7.547 3.578s0.016 1.203 0.016 1.688 0.193 0.891 0.636 1.04c2.627 0.883 12.346 3.783 12.4 3.797 1.001 0.259 2.092 0.264 2.824-1.274-2.179-1.036-16.943-8.026-16.943-8.026zm4.034 3.448c0 0.552-0.448 1-1 1s-1-0.448-1-1 0.448-1 1-1 1 0.448 1 1zm-9.965-5.998c-0.288-0.137-0.415-0.495-0.278-0.783l1.011-2.123c0.137-0.288 0.495-0.415 0.783-0.278l2.024 0.937c0.441 0.21 0.645 0.658 0.614 1.147 0 0-0.067 1.326-0.139 2.131-0.047 0.527-0.398 0.665-0.846 0.452-1.011-0.481-3.169-1.483-3.169-1.483z"/></g></svg>
