<svg width="358.94" height="317.99399" enable-background="new 0 0 400 400" version="1.1" viewBox="0 0 358.94 317.99399" xml:space="preserve" xmlns="http://www.w3.org/2000/svg"><g id="g242" transform="translate(-20.53,-41.003)" ><g id="g4197"><path id="path246" d="m145.122 358.997h111.255v-51.175h-111.255v51.175zm7-44.175h97.255v37.175h-97.255v-37.175z"/><path id="path254" d="m22.029 358.997h111.255v-51.175h-111.255v51.175zm7-44.175h97.255v37.175h-97.255v-37.175z"/><path id="path256" d="m268.215 358.997h111.255v-51.175h-111.255v51.175zm7-44.175h97.255v37.175h-97.255v-37.175z"/></g><path id="path270" d="m368.985 41.003h-337.751c-11.387 0-10.678 10.852-10.678 10.852s-0.02-0.019-0.026-0.024v68.461h358.94v-71.009c-0.569-3.209-2.699-8.28-10.485-8.28z"/><g id="g4212"><path id="path244" d="m268.215 184.472h111.255v-51.175h-111.255v51.175zm7-44.175h97.255v37.175h-97.255v-37.175z"/><path id="path250" d="m22.029 184.472h111.255v-51.175h-111.255v51.175zm7-44.175h97.255v37.175h-97.255v-37.175z"/><path id="path4176" d="m145.122 184.472h111.255v-51.175h-111.255v51.175zm7-44.175h97.255v37.175h-97.255v-37.175z"/></g><g id="g4207" transform="translate(0 -.14927673)"><path id="path248" d="m22.029 242.79678h111.255v-51.176h-111.255v51.176zm7-44.175h97.255v37.176h-97.255v-37.176z"/><path id="path4178" d="m268.215 242.79628h111.255v-51.175h-111.255v51.175zm7-44.175h97.255v37.175h-97.255v-37.175z"/><path id="path4180" d="m145.122 242.79628h111.255v-51.175h-111.255v51.175zm7-44.175h97.255v37.175h-97.255v-37.175z"/></g><g id="g4202" transform="translate(0 -.29956818)"><path id="path252" d="m22.029 301.12157h111.255v-51.175h-111.255v51.175zm7-44.175h97.255v37.175h-97.255v-37.175z"/><path id="path4193" d="m268.215 301.12157h111.255v-51.175h-111.255v51.175zm7-44.175h97.255v37.175h-97.255v-37.175z"/><path id="path4195" d="m145.122 301.12157h111.255v-51.175h-111.255v51.175zm7-44.175h97.255v37.175h-97.255v-37.175z"/></g></g></svg>
