<svg width="367.85837" height="346.28925" enable-background="new 0 0 400 400" version="1.1" viewBox="0 0 367.85837 346.28925" xml:space="preserve" xmlns="http://www.w3.org/2000/svg">
  <path id="path87" d="m212.338 214.682-12.226 12.227-9.495 9.494-6.863 6.862c-0.011-0.044-0.021-0.076-0.021-0.076s-2.259 2.769-6.391 1.66v0.037l-17.64-4.727c-4.391-1.179-5.715-5.671-5.733-5.731l-4.74-17.692c-0.839-3.141 0.553-5.193 1.272-6.002l7.223-7.223 9.494-9.494 12.306-12.306c2.927-2.926-0.312-4.452-0.42-4.503-17.071-4.231-35.869 0.309-49.213 13.651-13.062 13.062-17.685 31.353-13.9 48.134l-5e-3 -1e-3s1 4.635-3.958 9.593l-79.924 79.925c-8.146 8.146-8.146 21.354 1e-3 29.501l4.013 4.013c8.148 8.147 21.355 8.147 29.501 0l80.973-80.972c3.729-3.138 7.074-3.115 8.138-3.008 16.891 3.949 35.372-0.641 48.539-13.809 13.352-13.351 17.889-32.162 13.645-49.24-0.228-0.416-1.827-3.063-4.576-0.313zm-157.947 135.641c-2.923 2.923-7.663 2.923-10.584 0-2.924-2.923-2.924-7.662 0-10.585 2.921-2.923 7.661-2.923 10.584 0 2.923 2.922 2.923 7.662 0 10.585z"/><path id="path89" d="m390.354 186.458h-187.263c-0.929 0-1.818 0.369-2.475 1.025l-11.523 11.523-17.388-4.66-15.938 15.939 5.833 21.77 21.77 5.834 15.938-15.938-4.916-18.347 10.147-10.147h185.814c1.933 0 3.5-1.567 3.5-3.5s-1.566-3.499-3.499-3.499zm-212.817 40.271c-5.858 0-10.61-4.75-10.61-10.61 0-5.859 4.752-10.609 10.61-10.609 5.86 0 10.61 4.75 10.61 10.609 0 5.86-4.75 10.609-10.61 10.61z" transform="translate(-25.994625,-21.845)"/>
  <path id="path4684" transform="matrix(1.2307782,0,0,1.2499998,-209.23365,796.00063)" d="m274 0.2890625c-28.71879 0-52.15031 22.9243815-52 51.2011715 0.089 16.752275 17.27421 48.030278 31.66602 71.335936a88 23.999987 0 0 0 -69.66602 23.46289 88 23.999987 0 0 0 88 24 88 23.999987 0 0 0 88 -24 88 23.999987 0 0 0 -65.82422 -23.20898c14.75956-22.04894 31.8003-51.777374 31.82422-71.589846 0.03413-28.277156-23.28121-51.2011715-52-51.2011715zm0 13.0624995a38.697393 38 0 0 1 38.69727 38 38.697393 38 0 0 1 -38.69727 38 38.697393 38 0 0 1 -38.69727 -38 38.697393 38 0 0 1 38.69727 -38zm-16.63477 115.408208c8.69984 13.75045 15.5918 23.52929 15.5918 23.52929s7.6806-9.55544 17.1875-23.28906a66 17.99999 0 0 1 47.85547 17.28906 66 17.99999 0 0 1 -66 18 66 17.99999 0 0 1 -66 -18 66 17.99999 0 0 1 51.36523 -17.52929z" transform="matrix(.81249409 0 0 .80000011 146.63062 -636.80059)"/>
  <path id="path4684-2" d="m142.37142 821.4566c-31.46394 0-57.135212 25.5079-56.970535 56.97141 0.09751 18.64022 18.925405 53.44317 34.692885 79.37532a96.411674 26.704725 0 0 0 -76.325198 26.1071 96.411674 26.704725 0 0 0 96.411668 26.70477 96.411674 26.704725 0 0 0 96.41168 -26.70477 96.411674 26.704725 0 0 0 -72.11618 -25.82458c16.17039-24.5338 34.84-57.61255 34.86621-79.65784 0.0374-31.46392-25.50659-56.97141-56.97053-56.97141zm0 14.53461a42.396368 42.282504 0 0 1 42.39623 42.2825 42.396368 42.282504 0 0 1 -42.39623 42.28251 42.396368 42.282504 0 0 1 -42.396234 -42.28251 42.396368 42.282504 0 0 1 42.396234 -42.2825zm-18.22484 128.41442c9.53143 15.30009 17.08217 26.18098 17.08217 26.18098s8.41477-10.63231 18.83041-25.91368a72.308755 20.028543 0 0 1 52.42984 19.2375 72.308755 20.028543 0 0 1 -72.30876 20.02857 72.308755 20.028543 0 0 1 -72.30875 -20.02857 72.308755 20.028543 0 0 1 56.27509 -19.5048z" transform="matrix(.6548109 0 0 .64474167 73.899146 -526.6118)"/>
  <path id="path4684-2-8" d="m320.83815 11.455962c-16.39832 0-29.77764 13.089741-29.69182 29.235687 0.0509 9.565489 9.86352 27.425122 18.08119 40.732562a50.24769 13.703908 0 0 0 -39.77905 13.39723 50.24769 13.703908 0 0 0 50.24769 13.703929 50.24769 13.703908 0 0 0 50.24769 -13.703929 50.24769 13.703908 0 0 0 -37.5854 -13.25224c8.42766-12.589873 18.15786-29.564703 18.17151-40.877552 0.0195-16.146156-13.29348-29.235687-29.69181-29.235687zm0 7.458642a22.096075 21.697865 0 0 1 22.096 21.697863 22.096075 21.697865 0 0 1 -22.096 21.697869 22.096075 21.697865 0 0 1 -22.09601 -21.697869 22.096075 21.697865 0 0 1 22.09601 -21.697863zm-9.4984 65.897667c4.96758 7.85146 8.90287 13.43515 8.90287 13.43515s4.38559-5.45613 9.814-13.29798a37.685767 10.27793 0 0 1 27.32531 9.872 37.685767 10.27793 0 0 1 -37.68577 10.277949 37.685767 10.27793 0 0 1 -37.68577 -10.277949 37.685767 10.27793 0 0 1 29.32936 -10.00917z"/>
</svg>