<svg width="359.97238" height="263.29324" enable-background="new 0 0 400 400" version="1.1" viewBox="0 0 359.97238 263.29324" xml:space="preserve" xmlns="http://www.w3.org/2000/svg"><g id="g162" transform="translate(-21.762625,-109.281)"><g id="g164" ><path id="path166" d="m208.106 219.122-12.226 12.227-9.495 9.494-6.863 6.862c-0.011-0.044-0.021-0.076-0.021-0.076s-2.259 2.769-6.391 1.66v0.037l-17.64-4.727c-4.391-1.179-5.715-5.671-5.733-5.731l-4.74-17.692c-0.839-3.141 0.553-5.193 1.272-6.002l7.223-7.223 9.494-9.494 12.306-12.306c2.927-2.926-0.312-4.452-0.42-4.503-17.071-4.231-35.869 0.309-49.213 13.651-13.062 13.062-17.685 31.353-13.9 48.134l-5e-3 -1e-3s1 4.635-3.958 9.593l-79.924 79.925c-8.146 8.146-8.146 21.354 1e-3 29.501l4.013 4.013c8.148 8.147 21.355 8.147 29.501 0l80.973-80.972c3.729-3.138 7.074-3.115 8.138-3.008 16.891 3.949 35.372-0.641 48.539-13.809 13.352-13.351 17.889-32.162 13.645-49.24-0.228-0.417-1.827-3.063-4.576-0.313zm-157.947 135.64c-2.923 2.923-7.663 2.923-10.584 0-2.924-2.923-2.924-7.662 0-10.585 2.921-2.923 7.661-2.923 10.584 0 2.924 2.922 2.924 7.662 0 10.585z"/><path id="path168" d="m378.237 190.898h-179.378c-0.928 0-1.818 0.369-2.475 1.025l-11.523 11.523-17.388-4.66-15.938 15.939 5.833 21.77 21.77 5.834 15.938-15.938-4.916-18.347 10.147-10.147h177.928c1.933 0 3.5-1.567 3.5-3.5s-1.565-3.499-3.498-3.499zm-204.931 40.27c-5.858 0-10.61-4.75-10.61-10.61 0-5.859 4.752-10.609 10.61-10.609 5.86 0 10.61 4.75 10.61 10.609 0 5.86-4.75 10.609-10.61 10.61z"/></g><g id="g170"><g id="g172" ><path id="path174" d="m185.489 141.718-8.021-19.426h11.442l4.099 11.905 8.697-11.905h12.618l-16.646 19.997 8.697 19.854h-11.619l-4.456-12.19-9.41 12.19h-12.476l17.075-20.425z"/><path id="path176" d="m233.573 133.377v-7.735h33.934v7.735h-33.934zm0 13.866v-7.806h33.934v7.806h-33.934z"/><path id="path178" d="m325.501 151.342h-6.06l-2.245 10.8h-10.444l2.245-10.8h-21.029l1.711-8.341 27.445-32.971h11.086l-6.951 32.757h6.061l-1.819 8.555zm-14.686-8.554 2.067-8.84c0.285-1.378 0.76-3.327 1.426-5.846 0.665-2.519 1.164-4.194 1.497-5.026h-0.214c-0.832 1.497-2.4 3.648-4.705 6.452l-11.157 13.26h11.086z"/><path id="path180" d="m361.608 162.143h-34.289l1.532-7.592 17.003-15.113c4.277-3.778 7.229-6.802 8.857-9.072 1.627-2.269 2.441-4.402 2.441-6.398 0-1.782-0.487-3.142-1.461-4.082-0.976-0.938-2.281-1.408-3.922-1.408-1.568 0-3.178 0.398-4.829 1.194-1.652 0.797-3.689 2.205-6.113 4.224l-5.204-7.236c3.137-2.661 6.131-4.556 8.982-5.686 2.852-1.128 5.821-1.693 8.911-1.693 4.515 0 8.091 1.165 10.729 3.493 2.637 2.329 3.956 5.406 3.956 9.232 0 2.543-0.487 4.931-1.462 7.165s-2.43 4.468-4.366 6.701c-1.937 2.234-5.104 5.145-9.499 8.733l-9.588 7.913v0.356h20.246l-1.924 9.269z"/></g></g></g></svg>
