<svg id="Layer_1" width="304.30899" height="347.76901" enable-background="new 0 0 400 400" version="1.1" viewBox="0 0 304.30899 347.76901" xml:space="preserve" xmlns="http://www.w3.org/2000/svg"><g id="g3" transform="translate(-47.845,-26.116)" ><path id="path5" d="m345.046 100.044c-0.213-1.099-0.607-2.134-1.182-3.051l-35.602-66.143c-1.569-2.916-4.613-4.734-7.925-4.734h-176.003c-2.606 0-5.083 1.129-6.793 3.097l-57.223 65.841c-7.551 5.49-12.473 14.386-12.473 24.414v224.242c0 16.639 13.536 30.175 30.174 30.175h243.962c16.637 0 30.173-13.536 30.173-30.175v-224.242c0-7.394-2.677-14.171-7.108-19.424zm-216.125-55.929h162.509v45.179h-162.509v-45.179zm190.357 45.179h-18.675v-34.694l18.675 34.694zm-199.531-35.181v35.181h-30.576l30.576-35.181zm214.407 289.597c0 6.713-5.461 12.175-12.173 12.175h-243.961c-6.713 0-12.174-5.462-12.174-12.175v-224.242c0-3.41 1.414-6.493 3.681-8.705h50.221v77.051c0 2.533 2.054 4.587 4.587 4.587s4.587-2.054 4.587-4.587v-77.051h162.508v139.529h-138.567c-2.533 0-4.587 2.054-4.587 4.587s2.054 4.587 4.587 4.587h139.502l18.83 81.854c0.489 2.123 2.377 3.56 4.466 3.56 0.34 0 0.686-0.038 1.032-0.118 2.469-0.567 4.01-3.029 3.442-5.498l-19.532-84.905v-143.596h29.871c2.267 2.212 3.68 5.295 3.68 8.705v224.242z"/><path id="path7" d="m187.339 295.078h-54.748c-0.183-0.576-0.354-1.237-0.455-1.872v-69.918c0-13.73-11.17-24.9-24.9-24.9-13.729 0-24.899 11.17-24.899 24.9v71.189c0 0.446 0.012 0.895 0.036 1.348 0.104 1.907 0.88 11.944 5.935 22.312 8.283 16.994 23.74 26.741 42.407 26.741h56.624c13.729 0 24.899-11.17 24.899-24.899 0-13.731-11.17-24.901-24.899-24.901zm0 40.626h-56.624c-15.023 0-27.475-7.868-34.161-21.587-4.281-8.781-4.934-17.194-5.021-18.786-0.015-0.285-0.022-0.569-0.022-0.854v-71.189c0-8.672 7.054-15.727 15.726-15.727s15.727 7.055 15.727 15.727v70.243c0 0.196 0.013 0.392 0.038 0.586 0.308 2.388 1.478 6.668 3.441 8.674 0.627 0.641 1.429 1.084 2.305 1.274 0.57 0.124 1.232 0.187 1.968 0.187h56.624c8.671 0 15.726 7.055 15.726 15.727-2e-3 8.67-7.056 15.725-15.727 15.725z"/><path id="path9" d="m264.622 291.499c-12.843 0-23.292 10.448-23.292 23.291s10.449 23.291 23.292 23.291 23.291-10.448 23.291-23.291-10.448-23.291-23.291-23.291zm0 37.408c-7.785 0-14.118-6.333-14.118-14.117s6.333-14.117 14.118-14.117c7.784 0 14.117 6.333 14.117 14.117s-6.333 14.117-14.117 14.117z"/></g></svg>
