<svg id="Layer_1" width="24" height="23" version="1.1" viewBox="0 0 24 23" xml:space="preserve" xmlns="http://www.w3.org/2000/svg"><g id="duplicate_2_" transform="translate(-12,-13)"><path id="path14" d="m26 24v11.5c0 0.275-0.225 0.5-0.5 0.5h-13c-0.275 0-0.5-0.225-0.5-0.5v-17c0-0.275 0.225-0.5 0.5-0.5h7.5v5.5c0 0.275 0.225 0.5 0.5 0.5h5.5zm-5-6v4.5c0 0.275 0.225 0.5 0.5 0.5h4.5l-5-5zm9 0.5v-5.5h-7.5c-0.275 0-0.5 0.225-0.5 0.5v3.586l5 5v8.914h8.5c0.275 0 0.5-0.225 0.5-0.5v-11.5h-5.5c-0.275 0-0.5-0.225-0.5-0.5zm1.5-0.5h4.5l-5-5v4.5c0 0.275 0.225 0.5 0.5 0.5z"/></g></svg>
