<svg width="367.85837" height="346.28925" enable-background="new 0 0 400 400" version="1.1" viewBox="0 0 367.85837 346.28925" xml:space="preserve" xmlns="http://www.w3.org/2000/svg">
  <g id="g85" transform="translate(-25.994625,-21.845)">
    <path id="path87" d="m212.338 214.682-12.226 12.227-9.495 9.494-6.863 6.862c-0.011-0.044-0.021-0.076-0.021-0.076s-2.259 2.769-6.391 1.66v0.037l-17.64-4.727c-4.391-1.179-5.715-5.671-5.733-5.731l-4.74-17.692c-0.839-3.141 0.553-5.193 1.272-6.002l7.223-7.223 9.494-9.494 12.306-12.306c2.927-2.926-0.312-4.452-0.42-4.503-17.071-4.231-35.869 0.309-49.213 13.651-13.062 13.062-17.685 31.353-13.9 48.134l-5e-3 -1e-3s1 4.635-3.958 9.593l-79.924 79.925c-8.146 8.146-8.146 21.354 1e-3 29.501l4.013 4.013c8.148 8.147 21.355 8.147 29.501 0l80.973-80.972c3.729-3.138 7.074-3.115 8.138-3.008 16.891 3.949 35.372-0.641 48.539-13.809 13.352-13.351 17.889-32.162 13.645-49.24-0.228-0.416-1.827-3.063-4.576-0.313zm-157.947 135.641c-2.923 2.923-7.663 2.923-10.584 0-2.924-2.923-2.924-7.662 0-10.585 2.921-2.923 7.661-2.923 10.584 0 2.923 2.922 2.923 7.662 0 10.585z"/>
    <path id="path89" d="m390.354 186.458h-187.263c-0.929 0-1.818 0.369-2.475 1.025l-11.523 11.523-17.388-4.66-15.938 15.939 5.833 21.77 21.77 5.834 15.938-15.938-4.916-18.347 10.147-10.147h185.814c1.933 0 3.5-1.567 3.5-3.5s-1.566-3.499-3.499-3.499zm-212.817 40.271c-5.858 0-10.61-4.75-10.61-10.61 0-5.859 4.752-10.609 10.61-10.609 5.86 0 10.61 4.75 10.61 10.609 0 5.86-4.75 10.609-10.61 10.61z"/>
  </g>
  <g fill-opacity="0.8">
    <path id="path7061" d="m319.19664 9.044042a46 46 0 0 0 -45.61524 40.386719 63.864407 63.864407 0 0 0 -31.43555 -8.318359 63.864407 63.864407 0 0 0 -63.86523 63.863278 63.864407 63.864407 0 0 0 63.86523 63.86525 63.864407 63.864407 0 0 0 63.86329 -63.86525 63.864407 63.864407 0 0 0 -0.33594 -5.968747 46 46 0 0 0 13.52344 2.037107 46 46 0 0 0 46 -45.999998 46 46 0 0 0 -46 -46z"/>
    <circle id="path7061-4" cx="307.84042" cy="71.484306" r="16"/>
    <path id="path7061-4-5" d="m234.21385 73.925299a27.118643 20.338984 0 0 0 -27.11914 20.337891 27.118643 20.338984 0 0 0 15.31836 18.28515 27.118643 20.338984 0 0 0 -1.75977 7.13867 27.118643 20.338984 0 0 0 27.11914 20.33985 27.118643 20.338984 0 0 0 27.11914 -20.33985 27.118643 20.338984 0 0 0 -15.32031 -18.28319 27.118643 20.338984 0 0 0 1.75977 -7.14063 27.118643 20.338984 0 0 0 -27.11719 -20.337891z"/>
  </g>
  <g stroke="currentColor" fill="none">
    <rect id="rect7127" x="178.80757" y="7.2399759" width="184.46693" height="159.86572" stroke-linecap="round" stroke-width="6.27881622"/>
    <g stroke-width="4">
      <path id="path7135" d="m292.4306 9.5146599-15.58032 67.1152201 14.38184 86.291v4.79394"/>
      <path id="path7137" d="m275.6518 79.026852-94.6804 3.595458"/>
      <path id="path7139" d="m278.04877 79.026852 82.69554 16.778805"/>
    </g>
  </g>
</svg>
