<svg width="367" height="250" enable-background="new 0 0 400 400" version="1.1" viewBox="0 0 367 250" xml:space="preserve" xmlns="http://www.w3.org/2000/svg"><g id="g85" transform="translate(-25.994625,-118.13425)" ><path id="path87" d="m212.338 214.682-12.226 12.227-9.495 9.494-6.863 6.862c-0.011-0.044-0.021-0.076-0.021-0.076s-2.259 2.769-6.391 1.66v0.037l-17.64-4.727c-4.391-1.179-5.715-5.671-5.733-5.731l-4.74-17.692c-0.839-3.141 0.553-5.193 1.272-6.002l7.223-7.223 9.494-9.494 12.306-12.306c2.927-2.926-0.312-4.452-0.42-4.503-17.071-4.231-35.869 0.309-49.213 13.651-13.062 13.062-17.685 31.353-13.9 48.134l-5e-3 -1e-3s1 4.635-3.958 9.593l-79.924 79.925c-8.146 8.146-8.146 21.354 1e-3 29.501l4.013 4.013c8.148 8.147 21.355 8.147 29.501 0l80.973-80.972c3.729-3.138 7.074-3.115 8.138-3.008 16.891 3.949 35.372-0.641 48.539-13.809 13.352-13.351 17.889-32.162 13.645-49.24-0.228-0.416-1.827-3.063-4.576-0.313zm-157.947 135.641c-2.923 2.923-7.663 2.923-10.584 0-2.924-2.923-2.924-7.662 0-10.585 2.921-2.923 7.661-2.923 10.584 0 2.923 2.922 2.923 7.662 0 10.585z"/><path id="path89" d="m390.354 186.458h-187.263c-0.929 0-1.818 0.369-2.475 1.025l-11.523 11.523-17.388-4.66-15.938 15.939 5.833 21.77 21.77 5.834 15.938-15.938-4.916-18.347 10.147-10.147h185.814c1.933 0 3.5-1.567 3.5-3.5s-1.566-3.499-3.499-3.499zm-212.817 40.271c-5.858 0-10.61-4.75-10.61-10.61 0-5.859 4.752-10.609 10.61-10.609 5.86 0 10.61 4.75 10.61 10.609 0 5.86-4.75 10.609-10.61 10.61z"/></g><g id="g51" transform="matrix(1 0 0 .65098339 -24.709041 -126.07237)" ><g id="g10702" transform="translate(-8.6132812,234.39598)" ><path id="path53" transform="matrix(1,0,0,1.5361375,24.709041,193.6645)" d="m14.566406-151.58789c-3.288 0-5.9531248 1.70836-5.9531248 3.81641v66.275384c0 2.107409 2.6653858 3.857796 5.9531248 3.816406h79.433594v-6.908203h-79.386719v-59.999997h355.640999v59.999997h-185.15272v6.908203h191.15235l-0.28711-73.77148-112.71289-0.13672z" /></g></g><g id="text13043" transform="matrix(.89342023 0 0 .89342023 71.508228 98.025104)"  stroke-width="1px"><path id="path13048" d="m-51.607626-86.231018q1.6 0 2.84 0.48 1.24 0.44 2.08 1.24t1.28 1.84 0.44 2.24q0 1.76-0.68 3.2t-1.8 2.68q-1.08 1.2-2.52 2.28t-2.96 2.16q-2.32 1.6-3.68 2.8-1.32 1.16-2 2.32h11.04l-0.96 4.08h-16.04q0.24-2.12 0.92-3.76 0.72-1.68 1.8-3.04t2.48-2.52q1.4-1.2 3.08-2.4 1.72-1.24 2.92-2.16 1.24-0.96 2-1.72 0.76-0.8 1.12-1.52t0.36-1.52q0-1.08-0.64-1.72-0.64-0.68-2.08-0.68t-3.04 0.64q-1.56 0.6-3.08 1.76l-1.6-3.56q2.08-1.64 4.32-2.36 2.24-0.76 4.4-0.76z"/><path id="path13050" d="m-31.567626-86.231018q3.2 0 5 2.08t1.8 5.6q0 1.56-0.24 3.52t-0.8 4q-0.56 2-1.48 3.92-0.88 1.92-2.2 3.44-1.28 1.48-3.04 2.4-1.76 0.88-4 0.88-1.6 0-2.88-0.52-1.24-0.56-2.12-1.56-0.88-1.04-1.36-2.44t-0.48-3.16q0-1.56 0.24-3.52t0.8-3.96q0.56-2.04 1.44-3.96 0.92-1.92 2.2-3.4 1.32-1.52 3.08-2.4 1.76-0.92 4.04-0.92zm-4.52 21.72q1.12 0 2.04-0.64 0.96-0.68 1.72-1.76 0.76-1.12 1.32-2.52 0.56-1.44 0.92-2.96 0.4-1.56 0.56-3.08 0.2-1.52 0.2-2.8 0-1.64-0.6-2.72-0.56-1.12-2.08-1.12-1.12 0-2.08 0.68-0.96 0.64-1.72 1.76-0.76 1.08-1.32 2.52t-0.96 2.96q-0.36 1.52-0.56 3.04-0.16 1.52-0.16 2.8 0 1.64 0.6 2.76 0.6 1.08 2.12 1.08zm1.72-6.56q-1 0-1.44-0.52t-0.44-1.28q0-0.88 0.28-1.52 0.28-0.68 0.68-1.12t0.88-0.64q0.48-0.24 0.88-0.24 1 0 1.4 0.56 0.44 0.52 0.44 1.28 0 0.88-0.28 1.56-0.28 0.64-0.68 1.08-0.4 0.4-0.88 0.64-0.44 0.2-0.84 0.2z"/><path id="path13052" d="m-17.487626-64.991018 3.44-14.32q-1.36 0.92-2.92 1.68t-2.6 1.12l-1.16-4q1.08-0.36 2.28-0.92 1.24-0.56 2.48-1.24t2.4-1.44 2.08-1.56h3.8799997l-4.9599997 20.68h4.9199997l-0.96 4.08h-15.0399997l0.96-4.08h5.2z"/><path id="path13054" d="m8.3923737-86.231018q1.6 0 2.8400003 0.48 1.24 0.44 2.08 1.24t1.28 1.84 0.44 2.24q0 1.76-0.68 3.2t-1.8 2.68q-1.08 1.2-2.52 2.28-1.4400003 1.08-2.9600003 2.16-2.32 1.6-3.68 2.8-1.32 1.16-2 2.32h11.0400003l-0.96 4.08h-16.0400003q0.24-2.12 0.92-3.76 0.72-1.68 1.8-3.04 1.07999996-1.36 2.47999996-2.52 1.40000004-1.2 3.08000004-2.4 1.72-1.24 2.92-2.16 1.24-0.96 2-1.72 0.76-0.8 1.12-1.52 0.3600003-0.72 0.3600003-1.52 0-1.08-0.6400003-1.72-0.64-0.68-2.08-0.68t-3.04 0.64q-1.56 0.6-3.08 1.76l-1.60000004-3.56q2.08000004-1.64 4.32000004-2.36 2.24-0.76 4.4-0.76z"/><path id="path13056" d="m18.512374-54.311018h-5.16l18.48-34.56h5.16l-18.48 34.56z"/><path id="path13058" d="m42.512374-64.991018 3.44-14.32q-1.36 0.92-2.92 1.68t-2.6 1.12l-1.16-4q1.08-0.36 2.28-0.92 1.24-0.56 2.48-1.24t2.4-1.44 2.08-1.56h3.88l-4.96 20.68h4.92l-0.96 4.08h-15.04l0.96-4.08h5.2z"/><path id="path13060" d="m68.392374-86.231018q1.6 0 2.84 0.48 1.24 0.44 2.08 1.24t1.28 1.84 0.44 2.24q0 1.76-0.68 3.2t-1.8 2.68q-1.08 1.2-2.52 2.28t-2.96 2.16q-2.32 1.6-3.68 2.8-1.32 1.16-2 2.32h11.04l-0.96 4.08h-16.04q0.24-2.12 0.92-3.76 0.72-1.68 1.8-3.04t2.48-2.52q1.4-1.2 3.08-2.4 1.72-1.24 2.92-2.16 1.24-0.96 2-1.72 0.76-0.8 1.12-1.52t0.36-1.52q0-1.08-0.64-1.72-0.64-0.68-2.08-0.68t-3.04 0.64q-1.56 0.6-3.08 1.76l-1.6-3.56q2.08-1.64 4.32-2.36 2.24-0.76 4.4-0.76z"/><path id="path13062" d="m78.512374-54.311018h-5.16l18.48-34.56h5.16l-18.48 34.56z"/><path id="path13064" d="m102.51237-64.991018 3.44-14.32q-1.36 0.92-2.92 1.68t-2.6 1.12l-1.159996-4q1.079996-0.36 2.279996-0.92 1.24-0.56 2.48-1.24t2.4-1.44 2.08-1.56h3.88l-4.96 20.68h4.92l-0.96 4.08h-15.039996l0.96-4.08h5.199996z"/><path id="path13066" d="m128.39237-86.231018q1.6 0 2.84 0.48 1.24 0.44 2.08 1.24t1.28 1.84 0.44 2.24q0 1.76-0.68 3.2t-1.8 2.68q-1.08 1.2-2.52 2.28t-2.96 2.16q-2.32 1.6-3.68 2.8-1.32 1.16-2 2.32h11.04l-0.96 4.08h-16.04q0.24-2.12 0.92-3.76 0.72-1.68 1.8-3.04t2.48-2.52q1.4-1.2 3.08-2.4 1.72-1.24 2.92-2.16 1.24-0.96 2-1.72 0.76-0.8 1.12-1.52t0.36-1.52q0-1.08-0.64-1.72-0.64-0.68-2.08-0.68t-3.04 0.64q-1.56 0.6-3.08 1.76l-1.6-3.56q2.08-1.64 4.32-2.36 2.24-0.76 4.4-0.76z"/><path id="path13068" d="m162.51237-64.991018 3.44-14.32q-1.36 0.92-2.92 1.68t-2.6 1.12l-1.16-4q1.08-0.36 2.28-0.92 1.24-0.56 2.48-1.24t2.4-1.44 2.08-1.56h3.88l-4.96 20.68h4.92l-0.96 4.08h-15.04l0.96-4.08h5.2z"/><path id="path13070" d="m188.39237-86.231018q1.6 0 2.84 0.48 1.24 0.44 2.08 1.24t1.28 1.84 0.44 2.24q0 1.76-0.68 3.2t-1.8 2.68q-1.08 1.2-2.52 2.28t-2.96 2.16q-2.32 1.6-3.68 2.8-1.32 1.16-2 2.32h11.04l-0.96 4.08h-16.04q0.24-2.12 0.92-3.76 0.72-1.68 1.8-3.04t2.48-2.52q1.4-1.2 3.08-2.4 1.72-1.24 2.92-2.16 1.24-0.96 2-1.72 0.76-0.8 1.12-1.52t0.36-1.52q0-1.08-0.64-1.72-0.64-0.68-2.08-0.68t-3.04 0.64q-1.56 0.6-3.08 1.76l-1.6-3.56q2.08-1.64 4.32-2.36 2.24-0.76 4.4-0.76z"/><path id="path13072" d="m204.15237-67.591018q1.4 0 2.28 0.8 0.92 0.8 0.92 2.36 0 0.88-0.32 1.64-0.32 0.72-0.88 1.24-0.52 0.52-1.24 0.8-0.68 0.32-1.4 0.32-1.4 0-2.32-0.8-0.88-0.8-0.88-2.4 0-0.88 0.32-1.6t0.84-1.24q0.56-0.52 1.24-0.8 0.72-0.32 1.44-0.32zm2.88-12.12q1.4 0 2.28 0.8 0.92 0.8 0.92 2.36 0 0.88-0.32 1.64-0.32 0.72-0.88 1.24-0.52 0.52-1.24 0.84-0.68 0.28-1.4 0.28-1.4 0-2.32-0.8-0.88-0.8-0.88-2.4 0-0.88 0.32-1.6t0.84-1.24q0.56-0.52 1.24-0.8 0.72-0.32 1.44-0.32z"/><path id="path13074" d="m229.63237-80.271018q-2.24 2.08-4.64 4.64-2.36 2.52-4.28 4.96h6.6l2.32-9.6zm5.92-5.4-3.6 15h2.64l-0.96 3.92h-2.64l-1.4 5.84h-4.64l1.36-5.84h-10.92l0.88-3.68q1.12-1.56 2.8-3.52 1.72-1.96 3.64-4 1.96-2.08 4.04-4.08t4-3.64h4.8z"/><path id="path13076" d="m255.47237-81.871018q-2.08 0-4.04 0.28t-3.64 1-3.04 2.04q-1.32 1.32-2.16 3.4 1.28-0.76 2.64-1.04 1.4-0.32 2.4-0.32 1.32 0 2.44 0.44 1.16 0.4 2 1.24 0.88 0.8 1.36 2.04 0.52 1.2 0.52 2.84 0 2.32-0.76 4.12-0.76 1.76-2.04 3-1.28 1.2-3 1.84-1.68 0.6-3.56 0.6-1.64 0-3.08-0.56t-2.48-1.64q-1.04-1.12-1.64-2.72-0.6-1.64-0.6-3.76 0-3.16 1.04-6.16 1.08-3.04 3.28-5.4 2.24-2.36 5.64-3.76 3.44-1.44 8.12-1.44 0.2 0 0.56 0.04 0.4 0 0.6 0l-0.56 3.92zm-6.2 12.28q0-0.96-0.28-1.56-0.28-0.64-0.76-1t-1.12-0.52q-0.6-0.16-1.32-0.16-0.96 0-1.96 0.24t-1.92 0.6q-0.2 0.72-0.32 1.48-0.12 0.72-0.12 1.52 0 0.92 0.2 1.76 0.24 0.84 0.68 1.48 0.44 0.6 1.08 0.96 0.68 0.36 1.6 0.36 1.92 0 3.08-1.36 1.16-1.4 1.16-3.8z"/><path id="path13078" d="m264.15237-67.591018q1.4 0 2.28 0.8 0.92 0.8 0.92 2.36 0 0.88-0.32 1.64-0.32 0.72-0.88 1.24-0.52 0.52-1.24 0.8-0.68 0.32-1.4 0.32-1.4 0-2.32-0.8-0.88-0.8-0.88-2.4 0-0.88 0.32-1.6t0.84-1.24q0.56-0.52 1.24-0.8 0.72-0.32 1.44-0.32zm2.88-12.12q1.4 0 2.28 0.8 0.92 0.8 0.92 2.36 0 0.88-0.32 1.64-0.32 0.72-0.88 1.24-0.52 0.52-1.24 0.84-0.68 0.28-1.4 0.28-1.4 0-2.32-0.8-0.88-0.8-0.88-2.4 0-0.88 0.32-1.6t0.84-1.24q0.56-0.52 1.24-0.8 0.72-0.32 1.44-0.32z"/><path id="path13080" d="m289.63237-80.271018q-2.24 2.08-4.64 4.64-2.36 2.52-4.28 4.96h6.6l2.32-9.6zm5.92-5.4-3.6 15h2.64l-0.96 3.92h-2.64l-1.4 5.84h-4.64l1.36-5.84h-10.92l0.88-3.68q1.12-1.56 2.8-3.52 1.72-1.96 3.64-4 1.96-2.08 4.04-4.08t4-3.64h4.8z"/><path id="path13082" d="m296.91237-66.031018q1.28 0.8 2.68 1.2 1.4 0.36 2.72 0.36 5.68 0 5.68-4.32 0-1.8-2.12-2.84-2.08-1.08-6.92-1.16 1.16-3.4 2.2-6.6 1.04-3.24 1.84-6.28h13l-0.96 4.08h-9.04q-0.4 1.48-0.84 2.88t-0.8 2.32q2.2 0.2 3.8 0.84 1.6 0.6 2.64 1.56t1.56 2.2 0.52 2.6q0 4-2.64 6.4t-7.8 2.4q-1.92 0-3.8-0.4t-3.56-1.28l1.84-3.96z"/></g></svg>
