<svg enable-background="new 0 0 100 100" version="1.1" viewBox="0 0 100 100" xml:space="preserve" xmlns="http://www.w3.org/2000/svg"><polygon id="polygon4" points="75 5 65 5 65 20 5 20 5 30 65 30 65 85 50 85 50 95 90 95 90 85 75 85 75 30 95 30 95 20 75 20" /><rect id="rect6" x="77.5" y="32.5" width="10" height="10" /><path id="path8" d="m25 40h-10l-3.5 8.5 6.3 6.3c0.3 1.3 1 2.4 1.9 3.4l2.1 2.1c0.5 0.5 0.7 1.1 0.7 1.8v0.4c0 1.4-1.1 2.5-2.5 2.5s-2.5-1.1-2.5-2.5h-5c0 4.1 3.4 7.5 7.5 7.5s7.5-3.4 7.5-7.5v-0.4c0-2-0.8-3.9-2.2-5.3l-2.1-2.1c-0.1-0.1-0.2-0.3-0.3-0.5l5.6-5.6-3.5-8.6z" /><rect id="rect10" x="17.5" y="32.5" width="5" height="5" /></svg>
