<svg width="367.85837" height="293" enable-background="new 0 0 400 400" version="1.1" viewBox="0 0 367.85837 293" xml:space="preserve" xmlns="http://www.w3.org/2000/svg"><g id="g85" transform="translate(-25.994625,-75.134246)" ><path id="path87" d="m212.338 214.682-12.226 12.227-9.495 9.494-6.863 6.862c-0.011-0.044-0.021-0.076-0.021-0.076s-2.259 2.769-6.391 1.66v0.037l-17.64-4.727c-4.391-1.179-5.715-5.671-5.733-5.731l-4.74-17.692c-0.839-3.141 0.553-5.193 1.272-6.002l7.223-7.223 9.494-9.494 12.306-12.306c2.927-2.926-0.312-4.452-0.42-4.503-17.071-4.231-35.869 0.309-49.213 13.651-13.062 13.062-17.685 31.353-13.9 48.134l-5e-3 -1e-3s1 4.635-3.958 9.593l-79.924 79.925c-8.146 8.146-8.146 21.354 1e-3 29.501l4.013 4.013c8.148 8.147 21.355 8.147 29.501 0l80.973-80.972c3.729-3.138 7.074-3.115 8.138-3.008 16.891 3.949 35.372-0.641 48.539-13.809 13.352-13.351 17.889-32.162 13.645-49.24-0.228-0.416-1.827-3.063-4.576-0.313zm-157.947 135.641c-2.923 2.923-7.663 2.923-10.584 0-2.924-2.923-2.924-7.662 0-10.585 2.921-2.923 7.661-2.923 10.584 0 2.923 2.922 2.923 7.662 0 10.585z"/><path id="path89" d="m390.354 186.458h-187.263c-0.929 0-1.818 0.369-2.475 1.025l-11.523 11.523-17.388-4.66-15.938 15.939 5.833 21.77 21.77 5.834 15.938-15.938-4.916-18.347 10.147-10.147h185.814c1.933 0 3.5-1.567 3.5-3.5s-1.566-3.499-3.499-3.499zm-212.817 40.271c-5.858 0-10.61-4.75-10.61-10.61 0-5.859 4.752-10.609 10.61-10.609 5.86 0 10.61 4.75 10.61 10.609 0 5.86-4.75 10.609-10.61 10.61z"/><g id="g16159" transform="matrix(.8400772 0 0 .8400772 67.902762 -27.413069)"><path id="path53" d="m260.46684 130.739v94.301h-296.37474l-3.63e-4 -94.301h296.375103m11.27191-9h-311.462817c-4.118003 0-7.45574 2.665-7.45574 5.953v100.396c0 3.287 3.337737 5.952 7.45574 5.952h311.464067v-112.301z"/><g id="VGM4vC_2_" transform="translate(215.85272,-137.27299)"><path id="rect15494" d="m61.990699 259.5663v112h103.617191c3.52483-7.1e-4 6.3821-2.85798 6.38281-6.38281v-99.23242c3.7e-4 -3.5256-2.85721-6.38406-6.38281-6.38477h-103.617191zm32.279302 35.66797 54.613279 0.30664c3.3455 0.0189 5.36264 3.71217 3.57031 6.53711l-27.5957 43.51172c-1.68414 2.65453-5.56582 2.63036-7.2168-0.0449l-27.017579-43.82227c-1.75113-2.84436 0.30634-6.50528 3.64649-6.48828z" color="#000000" color-rendering="auto" enable-background="accumulate"  image-rendering="auto" shape-rendering="auto" solid-color="#000000" style="block-progression:tb;isolation:auto;mix-blend-mode:normal;text-decoration-color:#000000;text-decoration-line:none;text-decoration-style:solid;text-indent:0;text-transform:none;white-space:normal"/></g><path id="rect15494-7" d="m322.6362 167.91499 29.60051 0.1662c1.81326 0.0103 2.90656 2.012 1.93511 3.54312l-14.95692 23.58345c-0.91281 1.43876-3.01669 1.42565-3.91152-0.0243l-14.64359-23.75175c-0.94912-1.54166 0.16604-3.52588 1.97641-3.51666z" color="#000000" color-rendering="auto" enable-background="accumulate" image-rendering="auto" shape-rendering="auto" solid-color="#000000" style="block-progression:tb;isolation:auto;mix-blend-mode:normal;text-decoration-color:#000000;text-decoration-line:none;text-decoration-style:solid;text-indent:0;text-transform:none;white-space:normal"/></g></g></svg>
