<svg width="350.20801" height="357.14301" enable-background="new 0 0 400 400" version="1.1" viewBox="0 0 350.20801 357.14301" xml:space="preserve" xmlns="http://www.w3.org/2000/svg"><g id="g211" transform="translate(-25.897,-20.609)" ><path id="path213" d="m25.897 377.752h350.207v-249.734h-350.207v249.734zm29.204-228.452h280.884v127.346h-280.884v-127.346zm0 152.093h280.884v51.226h-280.884v-51.226z"/><path id="path215" d="m354.847 20.609h-311.999s-16.95 0-16.95 18.008v81.4h350.207v-77.018c-1e-3 -22.39-21.258-22.39-21.258-22.39zm14.257 92.409h-336.207v-74.4c0-6.127 2.538-8.301 4.447-9.403 2.531-1.461 5.318-1.597 5.562-1.605h311.94c0.036 0 3.806 0.117 7.367 1.992 4.637 2.442 6.891 6.825 6.891 13.399v70.017z"/><rect id="rect217" x="55.101002" y="38.205002" width="56.381001" height="56.381001"/><path id="path219" d="m105.603 172.328c-8.162 0-14.802 6.64-14.802 14.802s6.64 14.802 14.802 14.802 14.802-6.64 14.802-14.802-6.64-14.802-14.802-14.802zm0 26.075c-6.216 0-11.272-5.057-11.272-11.273s5.057-11.273 11.272-11.273 11.272 5.057 11.272 11.273-5.057 11.273-11.272 11.273z"/><path id="path221" d="m105.603 178.461c-4.779 0-8.668 3.889-8.668 8.668s3.889 8.668 8.668 8.668 8.668-3.888 8.668-8.668-3.889-8.668-8.668-8.668z"/><path id="path223" d="m105.603 225.372c-8.162 0-14.802 6.64-14.802 14.802s6.64 14.803 14.802 14.803 14.802-6.641 14.802-14.803-6.64-14.802-14.802-14.802zm0 26.075c-6.216 0-11.272-5.057-11.272-11.273s5.057-11.273 11.272-11.273 11.272 5.057 11.272 11.273-5.057 11.273-11.272 11.273z"/><path id="path225" d="m105.603 231.506c-4.779 0-8.668 3.888-8.668 8.668s3.889 8.668 8.668 8.668 8.668-3.889 8.668-8.668-3.889-8.668-8.668-8.668zm0 14.204c-3.052 0-5.535-2.484-5.535-5.537s2.483-5.536 5.535-5.536 5.535 2.483 5.535 5.536-2.484 5.537-5.535 5.537z"/><path id="path227" d="m79.677 308.752c-1.933 0-3.5 1.567-3.5 3.5v25.451c0 1.933 1.567 3.5 3.5 3.5s3.5-1.567 3.5-3.5v-25.451c0-1.933-1.568-3.5-3.5-3.5z"/><path id="path229" d="m345.645 52.991c-0.322-1.142-1.364-1.931-2.551-1.931s-2.229 0.789-2.551 1.931l-6.854 24.323-6.854-24.323c-0.322-1.142-1.364-1.931-2.551-1.931s-2.229 0.789-2.551 1.931l-6.853 24.322-6.853-24.322c-0.322-1.142-1.364-1.931-2.551-1.931s-2.229 0.789-2.551 1.931l-6.853 24.322-6.853-24.322c-0.322-1.142-1.364-1.931-2.551-1.931s-2.229 0.789-2.551 1.931l-6.854 24.323-6.855-24.323c-0.322-1.142-1.364-1.931-2.551-1.931s-2.229 0.789-2.551 1.931l-6.853 24.322-6.854-24.322c-0.322-1.142-1.364-1.931-2.551-1.931s-2.229 0.789-2.551 1.931l-6.853 24.322-6.854-24.322c-0.322-1.142-1.364-1.931-2.551-1.931s-2.229 0.789-2.551 1.931l-6.853 24.322-6.853-24.322c-0.322-1.142-1.364-1.931-2.551-1.931s-2.229 0.789-2.551 1.931l-6.869 24.409-6.879-24.409c-0.322-1.142-1.364-1.931-2.551-1.931s-2.229 0.789-2.551 1.931l-6.854 24.323-6.854-24.323c-0.322-1.142-1.364-1.931-2.551-1.931s-2.229 0.789-2.551 1.931l-6.853 24.322-6.853-24.322c-0.322-1.142-1.364-1.931-2.551-1.931s-2.229 0.789-2.551 1.931l-6.853 24.322-6.853-24.322c-0.322-1.142-1.364-1.931-2.551-1.931s-2.229 0.789-2.551 1.931l-9.404 33.374c-0.396 1.409 0.424 2.872 1.832 3.269 1.41 0.399 2.873-0.424 3.27-1.832l6.854-24.323 6.853 24.323c0.322 1.142 1.364 1.931 2.551 1.931s2.229-0.789 2.551-1.931l6.853-24.322 6.853 24.322c0.322 1.142 1.364 1.931 2.551 1.931s2.229-0.789 2.551-1.931l6.853-24.323 6.854 24.323c0.322 1.142 1.364 1.931 2.551 1.931s2.229-0.789 2.551-1.931l6.854-24.323 6.854 24.323c0.329 1.168 1.393 1.932 2.55 1.932 9e-3 0 0.017-3e-3 0.025-3e-3s0.017 3e-3 0.025 3e-3c1.157 0 2.221-0.763 2.55-1.932l6.854-24.323 6.853 24.323c0.322 1.142 1.364 1.931 2.551 1.931s2.229-0.789 2.551-1.931l6.853-24.322 6.854 24.322c0.322 1.142 1.364 1.931 2.551 1.931s2.229-0.789 2.551-1.931l6.853-24.322 6.854 24.322c0.322 1.142 1.364 1.931 2.551 1.931s2.229-0.789 2.551-1.931l6.853-24.323 6.855 24.323c6e-3 0.019 0.016 0.035 0.021 0.053 0.027 0.091 0.066 0.177 0.104 0.264 0.032 0.075 0.061 0.152 0.099 0.223s0.086 0.135 0.131 0.202c0.051 0.077 0.098 0.155 0.156 0.225 0.048 0.058 0.104 0.108 0.157 0.162 0.066 0.067 0.13 0.137 0.202 0.197 0.058 0.047 0.122 0.084 0.183 0.126 0.081 0.056 0.159 0.113 0.245 0.159 0.06 0.032 0.124 0.055 0.187 0.082 0.099 0.044 0.197 0.087 0.302 0.119 0.016 5e-3 0.029 0.014 0.046 0.018 0.052 0.015 0.104 0.016 0.154 0.027 0.103 0.022 0.204 0.044 0.31 0.055 0.087 8e-3 0.172 6e-3 0.258 6e-3 0.083 0 0.166 2e-3 0.251-6e-3 0.107-0.01 0.211-0.033 0.315-0.056 0.05-0.011 0.1-0.012 0.149-0.026 0.016-4e-3 0.029-0.013 0.045-0.018 0.107-0.032 0.209-0.077 0.311-0.123 0.059-0.026 0.12-0.048 0.177-0.078 0.09-0.048 0.172-0.108 0.256-0.167 0.058-0.04 0.118-0.075 0.172-0.119 0.077-0.063 0.145-0.137 0.214-0.208 0.049-0.051 0.102-0.097 0.146-0.151 0.061-0.073 0.11-0.155 0.163-0.235 0.042-0.064 0.088-0.125 0.125-0.193 0.039-0.072 0.067-0.151 0.101-0.228 0.036-0.086 0.074-0.171 0.102-0.26 6e-3 -0.019 0.016-0.035 0.021-0.054l6.854-24.323 6.853 24.323c0.322 1.142 1.364 1.931 2.551 1.931s2.229-0.789 2.551-1.931l6.853-24.322 6.853 24.322c0.322 1.142 1.364 1.931 2.551 1.931s2.229-0.789 2.551-1.931l6.853-24.322 6.854 24.322c0.322 1.142 1.364 1.931 2.551 1.931s2.229-0.789 2.551-1.931l6.854-24.323 6.854 24.323c0.329 1.168 1.393 1.932 2.55 1.932 0.237 0 0.479-0.032 0.72-0.1 1.408-0.397 2.229-1.86 1.832-3.269l-9.415-33.37z"/><path id="path231" d="m304.619 174.572c-0.239-0.852-1.017-1.441-1.902-1.441s-1.663 0.589-1.902 1.441l-5.114 18.146-5.112-18.146c-0.24-0.852-1.018-1.441-1.903-1.441s-1.663 0.589-1.902 1.441l-5.114 18.146-5.111-18.146c-0.24-0.852-1.018-1.441-1.903-1.441s-1.663 0.589-1.902 1.441l-5.114 18.146-5.111-18.146c-0.24-0.852-1.018-1.441-1.903-1.441s-1.663 0.589-1.903 1.441l-5.113 18.147-5.115-18.147c-0.24-0.853-1.018-1.441-1.902-1.441-0.886 0-1.663 0.589-1.903 1.441l-5.112 18.146-5.114-18.146c-0.239-0.852-1.017-1.441-1.902-1.441s-1.663 0.589-1.903 1.441l-5.112 18.146-5.112-18.146c-0.24-0.852-1.018-1.441-1.903-1.441s-1.663 0.589-1.903 1.441l-5.112 18.146-5.112-18.146c-0.24-0.852-1.018-1.441-1.903-1.441s-1.663 0.589-1.902 1.441l-5.132 18.213-5.133-18.213c-0.239-0.852-1.017-1.441-1.902-1.441s-1.663 0.589-1.902 1.441l-5.114 18.147-5.114-18.147c-0.239-0.852-1.017-1.441-1.902-1.441s-1.663 0.589-1.903 1.441l-5.112 18.146-5.112-18.146c-0.24-0.852-1.018-1.441-1.903-1.441s-1.663 0.589-1.903 1.441l-5.111 18.146-5.114-18.146c-0.239-0.852-1.017-1.441-1.902-1.441s-1.663 0.589-1.903 1.441l-7.016 24.899c-0.296 1.051 0.316 2.143 1.367 2.439 0.18 0.05 0.359 0.075 0.537 0.075 0.863 0 1.656-0.57 1.902-1.441l5.112-18.146 5.114 18.146c0.239 0.852 1.017 1.441 1.902 1.441s1.663-0.589 1.903-1.441l5.111-18.146 5.112 18.146c0.24 0.852 1.018 1.441 1.903 1.441s1.663-0.589 1.903-1.441l5.112-18.146 5.114 18.146c0.239 0.852 1.017 1.441 1.902 1.441s1.663-0.589 1.902-1.441l5.114-18.147 5.114 18.147c0.23 0.82 0.95 1.365 1.751 1.428 0.057 6e-3 0.113 4e-3 0.17 5e-3 0.057 0 0.112 1e-3 0.17-5e-3 0.801-0.062 1.52-0.607 1.75-1.428l5.114-18.146 5.112 18.146c0.24 0.852 1.018 1.441 1.903 1.441s1.663-0.589 1.903-1.441l5.112-18.146 5.112 18.146c0.24 0.852 1.018 1.441 1.903 1.441s1.663-0.589 1.903-1.441l5.112-18.146 5.114 18.146c0.239 0.852 1.017 1.441 1.902 1.441s1.663-0.589 1.903-1.441l5.112-18.147 5.116 18.147c3e-3 9e-3 9e-3 0.015 0.011 0.023 0.055 0.185 0.139 0.357 0.244 0.519 0.021 0.032 0.042 0.062 0.064 0.093 0.109 0.148 0.235 0.283 0.384 0.396 0.021 0.016 0.043 0.026 0.063 0.041 0.135 0.095 0.284 0.173 0.445 0.233 0.033 0.013 0.064 0.028 0.099 0.039 0.019 6e-3 0.036 0.017 0.056 0.022 0.162 0.045 0.325 0.062 0.486 0.067 0.017 0 0.032 8e-3 0.049 8e-3 0.027 0 0.056-0.01 0.083-0.012 0.129-5e-3 0.255-0.022 0.378-0.052 0.025-6e-3 0.051-3e-3 0.076-0.011 0.014-4e-3 0.025-0.011 0.039-0.016 0.07-0.021 0.137-0.051 0.204-0.08 0.054-0.023 0.108-0.043 0.158-0.07 0.059-0.032 0.112-0.071 0.167-0.108 0.051-0.035 0.104-0.066 0.15-0.104 0.053-0.043 0.098-0.093 0.146-0.141 0.041-0.042 0.085-0.081 0.122-0.125 0.044-0.053 0.079-0.112 0.117-0.169 0.033-0.049 0.068-0.096 0.097-0.148 0.029-0.055 0.051-0.114 0.075-0.172 0.027-0.063 0.055-0.125 0.075-0.191 5e-3 -0.015 0.013-0.027 0.017-0.042l5.112-18.146 5.111 18.146c0.24 0.852 1.018 1.441 1.903 1.441s1.663-0.589 1.902-1.441l5.114-18.146 5.111 18.146c0.24 0.852 1.018 1.441 1.903 1.441s1.663-0.589 1.902-1.441l5.114-18.146 5.112 18.146c0.24 0.852 1.018 1.441 1.903 1.441s1.663-0.589 1.902-1.441l5.114-18.147 5.115 18.147c0.245 0.872 1.038 1.441 1.901 1.441 0.178 0 0.358-0.024 0.537-0.075 1.051-0.296 1.663-1.388 1.366-2.439l-7.016-24.899z"/><path id="path233" d="m304.619 227.188c-0.239-0.852-1.017-1.441-1.902-1.441s-1.663 0.589-1.902 1.441l-5.114 18.146-5.112-18.146c-0.24-0.852-1.018-1.441-1.903-1.441s-1.663 0.589-1.902 1.441l-5.114 18.146-5.111-18.146c-0.24-0.852-1.018-1.441-1.903-1.441s-1.663 0.589-1.902 1.441l-5.114 18.146-5.111-18.146c-0.24-0.852-1.018-1.441-1.903-1.441s-1.663 0.589-1.903 1.441l-5.113 18.147-5.115-18.147c-0.24-0.853-1.018-1.441-1.902-1.441-0.886 0-1.663 0.589-1.903 1.441l-5.112 18.146-5.114-18.146c-0.239-0.852-1.017-1.441-1.902-1.441s-1.663 0.589-1.903 1.441l-5.112 18.146-5.112-18.146c-0.24-0.852-1.018-1.441-1.903-1.441s-1.663 0.589-1.903 1.441l-5.112 18.146-5.112-18.146c-0.24-0.852-1.018-1.441-1.903-1.441s-1.663 0.589-1.902 1.441l-5.132 18.213-5.133-18.213c-0.239-0.852-1.017-1.441-1.902-1.441s-1.663 0.589-1.902 1.441l-5.114 18.147-5.114-18.147c-0.239-0.852-1.017-1.441-1.902-1.441s-1.663 0.589-1.903 1.441l-5.112 18.146-5.112-18.146c-0.24-0.852-1.018-1.441-1.903-1.441s-1.663 0.589-1.903 1.441l-5.111 18.146-5.114-18.146c-0.239-0.852-1.017-1.441-1.902-1.441s-1.663 0.589-1.903 1.441l-7.016 24.899c-0.296 1.051 0.316 2.143 1.367 2.439 0.18 0.05 0.359 0.075 0.537 0.075 0.863 0 1.656-0.57 1.902-1.441l5.112-18.146 5.114 18.146c0.239 0.852 1.017 1.441 1.902 1.441s1.663-0.589 1.903-1.441l5.111-18.146 5.112 18.146c0.24 0.852 1.018 1.441 1.903 1.441s1.663-0.589 1.903-1.441l5.112-18.146 5.114 18.146c0.239 0.852 1.017 1.441 1.902 1.441s1.663-0.589 1.902-1.441l5.114-18.147 5.114 18.147c0.23 0.82 0.95 1.365 1.751 1.428 0.058 5e-3 0.113 4e-3 0.17 4e-3s0.112 1e-3 0.169-4e-3c0.802-0.062 1.521-0.608 1.751-1.428l5.114-18.146 5.112 18.146c0.24 0.852 1.018 1.441 1.903 1.441s1.663-0.589 1.903-1.441l5.112-18.146 5.112 18.146c0.24 0.852 1.018 1.441 1.903 1.441s1.663-0.589 1.903-1.441l5.112-18.146 5.114 18.146c0.239 0.852 1.017 1.441 1.902 1.441s1.663-0.589 1.903-1.441l5.112-18.147 5.116 18.147c3e-3 9e-3 9e-3 0.015 0.011 0.023 0.055 0.185 0.139 0.357 0.244 0.519 0.021 0.032 0.042 0.062 0.064 0.093 0.109 0.148 0.235 0.283 0.384 0.396 0.021 0.016 0.043 0.026 0.063 0.041 0.135 0.095 0.284 0.173 0.445 0.233 0.033 0.013 0.064 0.028 0.099 0.039 0.019 6e-3 0.036 0.017 0.056 0.022 0.163 0.046 0.326 0.063 0.487 0.067 0.017 0 0.031 8e-3 0.048 8e-3 0.026 0 0.054-0.01 0.081-0.011 0.131-5e-3 0.259-0.023 0.384-0.053 0.023-6e-3 0.048-3e-3 0.072-0.01 0.014-4e-3 0.024-0.011 0.038-0.015 0.072-0.022 0.142-0.053 0.21-0.083 0.052-0.022 0.104-0.041 0.152-0.067 0.061-0.032 0.115-0.073 0.171-0.111 0.05-0.034 0.102-0.064 0.147-0.102 0.053-0.043 0.098-0.093 0.146-0.141 0.041-0.042 0.085-0.081 0.122-0.126 0.043-0.052 0.078-0.11 0.116-0.167 0.033-0.05 0.069-0.097 0.098-0.15 0.029-0.054 0.051-0.113 0.075-0.171 0.027-0.063 0.055-0.125 0.075-0.191 5e-3 -0.015 0.013-0.027 0.017-0.042l5.112-18.146 5.111 18.146c0.24 0.852 1.018 1.441 1.903 1.441s1.663-0.589 1.902-1.441l5.114-18.146 5.111 18.146c0.24 0.852 1.018 1.441 1.903 1.441s1.663-0.589 1.902-1.441l5.114-18.146 5.112 18.146c0.24 0.852 1.018 1.441 1.903 1.441s1.663-0.589 1.902-1.441l5.114-18.147 5.115 18.147c0.245 0.872 1.038 1.441 1.901 1.441 0.178 0 0.358-0.024 0.537-0.075 1.051-0.296 1.663-1.388 1.366-2.439l-7.016-24.9z"/></g></svg>
