<svg width="367" height="250" enable-background="new 0 0 400 400" version="1.1" viewBox="0 0 367 250" xml:space="preserve" xmlns="http://www.w3.org/2000/svg"><g id="g85" transform="translate(-25.994625,-118.13425)" ><path id="path87" d="m212.338 214.682-12.226 12.227-9.495 9.494-6.863 6.862c-0.011-0.044-0.021-0.076-0.021-0.076s-2.259 2.769-6.391 1.66v0.037l-17.64-4.727c-4.391-1.179-5.715-5.671-5.733-5.731l-4.74-17.692c-0.839-3.141 0.553-5.193 1.272-6.002l7.223-7.223 9.494-9.494 12.306-12.306c2.927-2.926-0.312-4.452-0.42-4.503-17.071-4.231-35.869 0.309-49.213 13.651-13.062 13.062-17.685 31.353-13.9 48.134l-5e-3 -1e-3s1 4.635-3.958 9.593l-79.924 79.925c-8.146 8.146-8.146 21.354 1e-3 29.501l4.013 4.013c8.148 8.147 21.355 8.147 29.501 0l80.973-80.972c3.729-3.138 7.074-3.115 8.138-3.008 16.891 3.949 35.372-0.641 48.539-13.809 13.352-13.351 17.889-32.162 13.645-49.24-0.228-0.416-1.827-3.063-4.576-0.313zm-157.947 135.641c-2.923 2.923-7.663 2.923-10.584 0-2.924-2.923-2.924-7.662 0-10.585 2.921-2.923 7.661-2.923 10.584 0 2.923 2.922 2.923 7.662 0 10.585z"/><path id="path89" d="m390.354 186.458h-187.263c-0.929 0-1.818 0.369-2.475 1.025l-11.523 11.523-17.388-4.66-15.938 15.939 5.833 21.77 21.77 5.834 15.938-15.938-4.916-18.347 10.147-10.147h185.814c1.933 0 3.5-1.567 3.5-3.5s-1.566-3.499-3.499-3.499zm-212.817 40.271c-5.858 0-10.61-4.75-10.61-10.61 0-5.859 4.752-10.609 10.61-10.609 5.86 0 10.61 4.75 10.61 10.609 0 5.86-4.75 10.609-10.61 10.61z"/></g><g id="g51" transform="matrix(1 0 0 .65098339 -24.709041 -126.07237)" ><g id="g10702" transform="translate(-8.6132812,234.39598)"><path id="path53" transform="matrix(1,0,0,1.5361375,24.709041,193.6645)" d="m14.566406-151.58789c-3.288 0-5.9531248 1.70836-5.9531248 3.81641v66.275384c0 2.107409 2.6653858 3.857796 5.9531248 3.816406h79.433594v-6.908203h-79.386719v-59.999997h355.640999v59.999997h-185.15272v6.908203h191.15235l-0.28711-73.77148-112.71289-0.13672z" /></g></g><g id="text11278" transform="translate(6.3559322,76.899495)"  stroke-width="1px"><path id="path11283" d="m48.079249-30.149234 4.714913-19.627193q-1.864035 1.260964-4.002193 2.302631t-3.563597 1.535088l-1.589912-5.482456q1.480263-0.493421 3.125-1.260965 1.699561-0.767544 3.399123-1.699562 1.699561-0.932017 3.289473-1.973684 1.589913-1.041667 2.850878-2.138158h5.317982l-6.798246 28.344299h6.743422l-1.31579 5.592105h-20.614035l1.315789-5.592105h7.127193z"/><path id="path11285" d="m83.550741-59.261077q2.192982 0 3.892544 0.657895 1.699561 0.60307 2.850877 1.699561 1.151316 1.096492 1.754386 2.52193 0.60307 1.425439 0.60307 3.070176 0 2.412281-0.932017 4.385965-0.932018 1.973684-2.467106 3.673245-1.480263 1.644737-3.453947 3.125-1.973684 1.480264-4.057018 2.960527-3.179824 2.192982-5.043859 3.837719-1.809211 1.589912-2.741228 3.179825h15.131579l-1.31579 5.592105h-21.984649q0.328947-2.905702 1.260965-5.153509 0.986842-2.302631 2.467105-4.166666 1.480263-1.864036 3.399123-3.453948 1.91886-1.644737 4.221491-3.289474 2.357456-1.699561 4.002193-2.960526 1.699562-1.315789 2.741228-2.357456 1.041667-1.096491 1.535088-2.083333 0.493421-0.986843 0.493421-2.083334 0-1.480263-0.877193-2.357456-0.877193-0.932018-2.850877-0.932018t-4.166667 0.877193q-2.138158 0.822369-4.221491 2.412281l-2.192983-4.879386q2.850878-2.247807 5.921053-3.234649 3.070176-1.041667 6.030702-1.041667z"/><path id="path11287" d="m112.22399-42.429936q2.52193 1.151316 3.72807 3.125 1.20614 1.91886 1.20614 4.221491 0 2.028509-0.76755 4.057018-0.76754 1.973684-2.52193 3.618421-1.75438 1.589912-4.60526 2.576754-2.79605 0.986842-6.85307 0.986842-2.686403 0-5.153508-0.548245-2.412281-0.548246-4.660088-1.809211l2.302631-5.263158q1.535088 0.932018 3.618421 1.535088 2.083334 0.60307 4.276314 0.60307 1.53509 0 2.9057-0.274123 1.37062-0.328947 2.41228-1.041666 1.04167-0.71272 1.64474-1.864035 0.6579-1.151316 0.6579-2.850878 0-2.247807-1.75439-3.289473-1.69956-1.041667-4.76974-1.041667h-2.2478l1.37061-5.317983h2.79605q1.09649 0 2.30263-0.219298 1.26097-0.274123 2.30264-0.877193 1.09649-0.657895 1.75438-1.644737 0.71272-1.041666 0.71272-2.576754 0-1.644737-1.26096-2.52193-1.20614-0.877193-3.125-0.877193-1.42544 0-3.17983 0.548246-1.75438 0.493421-3.50877 1.480263l-1.69956-4.934211q2.30263-1.20614 4.82456-1.918859 2.57675-0.71272 4.76974-0.71272 2.02851 0 3.78289 0.493421 1.80921 0.438597 3.125 1.370614 1.37062 0.932018 2.13816 2.357457 0.76754 1.370614 0.76754 3.289473 0 3.015351-1.75438 5.427632-1.75439 2.412281-5.53728 3.892544z"/><path id="path11289" d="m140.07487-51.092217q-3.07018 2.850877-6.35965 6.359649-3.23465 3.453948-5.86623 6.798246h9.04605l3.17983-13.157895zm8.11403-7.401316-4.93421 20.559211h3.61842l-1.31579 5.372807h-3.61842l-1.91886 8.004386h-6.35965l1.86404-8.004386h-14.96711l1.20614-5.04386q1.53509-2.138158 3.83772-4.824561 2.35746-2.686404 4.98904-5.482456 2.6864-2.850878 5.53728-5.592106t5.48246-4.989035h6.57894z"/><path id="path11291" d="m150.05293-31.574673q1.75439 1.096491 3.67325 1.644737 1.91886 0.493421 3.72807 0.493421 7.78509 0 7.78509-5.921053 0-2.467105-2.9057-3.892544-2.85088-1.480263-9.48465-1.589912 1.58991-4.660088 3.01535-9.046053 1.42544-4.440789 2.52193-8.607456h17.81798l-1.31579 5.592106h-12.39035q-0.54825 2.028508-1.15132 3.947368t-1.09649 3.179825q3.01535 0.274122 5.20834 1.151315 2.19298 0.822369 3.61842 2.138158 1.42544 1.31579 2.13816 3.015351 0.71272 1.699562 0.71272 3.563597 0 5.482456-3.61843 8.77193-3.61842 3.289473-10.69079 3.289473-2.63157 0-5.20833-0.548245-2.57675-0.548246-4.87939-1.754386l2.52193-5.427632z"/><path id="path11293" d="m202.90381-53.285199q-2.85088 0-5.53728 0.383772-2.68641 0.383771-4.98904 1.370614-2.30263 0.986842-4.16666 2.796052-1.80921 1.809211-2.96053 4.660088 1.75439-1.041667 3.61842-1.425439 1.91886-0.438596 3.28947-0.438596 1.80922 0 3.3443 0.60307 1.58992 0.548246 2.74123 1.699561 1.20614 1.096492 1.86404 2.796053 0.71272 1.644737 0.71272 3.892544 0 3.179825-1.04167 5.64693-1.04167 2.412281-2.79605 4.111842-1.75439 1.644737-4.11185 2.52193-2.30263 0.822368-4.87938 0.822368-2.24781 0-4.22149-0.767543-1.97369-0.767544-3.39913-2.247808-1.42543-1.535087-2.2478-3.72807-0.82237-2.247807-0.82237-5.153509 0-4.33114 1.42544-8.442982 1.48026-4.166667 4.49561-7.401316 3.07018-3.234649 7.73026-5.153509 4.71492-1.973684 11.12939-1.973684 0.27412 0 0.76754 0.05482 0.54825 0 0.82237 0l-0.76754 5.372808zm-8.49781 16.83114q0-1.315789-0.38377-2.138158-0.38377-0.877193-1.04167-1.370614-0.65789-0.493421-1.53508-0.712719-0.82237-0.219298-1.80922-0.219298-1.31578 0-2.6864 0.328947-1.37061 0.328947-2.63158 0.822368-0.27412 0.986843-0.43859 2.028509-0.16448 0.986842-0.16448 2.083334 0 1.260964 0.27412 2.41228 0.32895 1.151316 0.93202 2.028509 0.60307 0.822369 1.48027 1.31579 0.93201 0.493421 2.19298 0.493421 2.63158 0 4.22149-1.864035 1.58991-1.91886 1.58991-5.208334z"/><path id="path11295" d="m207.07049-24.557129q0.98684-3.673246 2.79605-7.620614 1.86403-3.947369 4.11184-7.675439 2.24781-3.782895 4.71491-7.072368 2.52193-3.344299 4.87939-5.811404h-15.4057l1.37061-5.756579h23.62939l-1.20614 4.934211q-1.91886 1.589912-4.49562 4.605263-2.52193 2.960526-5.09868 6.85307t-4.82456 8.388158-3.5636 9.155702h-6.90789z"/><path id="path11297" d="m231.41259-32.122918q0-1.589913 0.4386-2.905702 0.43859-1.370614 1.37061-2.576755 0.93202-1.260965 2.41228-2.41228 1.48026-1.206141 3.5636-2.52193-1.26097-1.31579-2.13816-2.796053t-0.87719-3.508772q0-1.91886 0.71271-3.782895 0.71272-1.864035 2.19299-3.344298 1.48026-1.480263 3.72807-2.357456 2.2478-0.932018 5.31798-0.932018 2.02851 0 3.72807 0.60307 1.75439 0.548246 3.01535 1.589913 1.26097 0.986842 1.97369 2.467105 0.76754 1.425439 0.76754 3.234649 0 1.096491-0.27412 2.302632-0.27413 1.151316-1.04167 2.412281-0.76754 1.20614-2.19298 2.467105t-3.7829 2.412281q1.80921 1.260965 3.07018 2.960526 1.31579 1.699561 1.31579 4.385965 0 2.192982-0.8772 4.111842-0.82236 1.91886-2.4671 3.399123-1.64474 1.425439-4.11184 2.247807-2.41228 0.822368-5.59211 0.822368-1.75438 0-3.61842-0.438596-1.80921-0.438597-3.28947-1.370614-1.48027-0.986842-2.41228-2.576755-0.93202-1.589912-0.93202-3.892543zm16.77631-2.138158q0-2.083334-1.42543-3.289474-1.42544-1.260965-3.50878-2.357456-1.69956 0.822368-2.74122 1.699561-1.04167 0.822369-1.64474 1.699562t-0.82237 1.754386-0.2193 1.754386q0 1.918859 1.31579 2.905701 1.37062 0.932018 3.28948 0.932018 1.15131 0 2.19298-0.328947 1.04166-0.383772 1.80921-1.041667 0.82237-0.657895 1.26096-1.589912 0.49342-0.986843 0.49342-2.138158zm-5.8114-15.02193q0 1.754386 1.09649 2.905701 1.09649 1.151316 2.63158 2.083334 3.125-1.480263 4.16667-3.015351 1.04166-1.535088 1.04166-3.015351 0-1.754386-1.09649-2.631579-1.04166-0.932018-2.96052-0.932018-2.30263 0-3.61842 1.31579-1.26097 1.315789-1.26097 3.289474z"/><path id="path11299" d="m272.42136-42.375112q1.26096 0 2.63158-0.328947 1.42543-0.328947 2.6864-0.822368 0.27412-1.041667 0.38377-1.973685 0.16448-0.986842 0.16448-2.028508 0-2.52193-1.20614-4.276316-1.15132-1.809211-3.61843-1.809211-2.63157 0-4.27631 1.699562-1.58991 1.699561-1.58991 5.153508 0 2.52193 1.42543 3.453948 1.42544 0.932017 3.39913 0.932017zm-2.57676 4.989036q-1.80921 0-3.39912-0.548246-1.53509-0.548246-2.74123-1.644737-1.15131-1.151316-1.86403-2.796053-0.6579-1.644736-0.6579-3.892543 0-3.179825 1.04167-5.592106 1.04167-2.467105 2.79605-4.111842 1.75439-1.644737 4.05702-2.467105 2.35746-0.822369 4.93421-0.822369 2.24781 0 4.22149 0.767544 1.97369 0.767544 3.39912 2.302632 1.48027 1.480263 2.30264 3.72807 0.82236 2.192982 0.82236 5.098684 0 4.385965-1.48026 8.552632-1.42544 4.111842-4.49561 7.346491-3.01535 3.179825-7.67544 5.153509-4.60527 1.973684-11.01974 1.973684-0.27412 0-0.82237-0.05482-0.49342 0-0.82237-0.05482l0.82237-5.317982q2.85088 0 5.48246-0.383772 2.6864-0.383772 4.98903-1.425439 2.30264-1.041667 4.11185-2.850877 1.86403-1.864035 3.01535-4.824562-1.75439 1.041667-3.67325 1.480264-1.91886 0.383772-3.3443 0.383772z"/><path id="path11301" d="m297.03758-33.712831q1.91886 0 3.125 1.096491 1.26097 1.096492 1.26097 3.23465 0 1.20614-0.4386 2.247807-0.4386 0.986842-1.20614 1.699561-0.71272 0.712719-1.69956 1.096491-0.93202 0.438597-1.91886 0.438597-1.91886 0-3.17983-1.096491-1.20614-1.096492-1.20614-3.289474 0-1.20614 0.4386-2.192983 0.4386-0.986842 1.15132-1.699561 0.76754-0.712719 1.69956-1.096491 0.98684-0.438597 1.97368-0.438597z"/><path id="path11303" d="m330.31609-59.261077q4.38596 0 6.85307 2.850878 2.4671 2.850877 2.4671 7.675438 0 2.138158-0.32894 4.824562-0.32895 2.686403-1.0965 5.482456-0.76754 2.741228-2.0285 5.372807-1.20614 2.631579-3.01536 4.714912-1.75438 2.028509-4.16666 3.289474-2.41228 1.20614-5.48246 1.20614-2.19298 0-3.94737-0.712719-1.69956-0.767544-2.9057-2.138158-1.20614-1.425438-1.86403-3.344298-0.6579-1.91886-0.6579-4.331141 0-2.138157 0.32895-4.824561t1.09649-5.427632q0.76754-2.796052 1.97368-5.427631 1.26097-2.631579 3.01536-4.660088 1.80921-2.083333 4.22149-3.289474 2.41228-1.260965 5.53728-1.260965zm-6.19518 29.769738q1.53509 0 2.79605-0.877193 1.31579-0.932018 2.35746-2.412281 1.04167-1.535088 1.80921-3.453948 0.76755-1.973684 1.26097-4.057017 0.54824-2.138158 0.76754-4.221492 0.27412-2.083333 0.27412-3.837719 0-2.247807-0.82237-3.72807-0.76754-1.535088-2.85087-1.535088-1.53509 0-2.85088 0.932018-1.31579 0.877193-2.35746 2.41228-1.04166 1.480264-1.80921 3.453948-0.76754 1.973684-1.31579 4.057017-0.49342 2.083334-0.76754 4.166667-0.2193 2.083334-0.2193 3.83772 0 2.247807 0.82237 3.782894 0.82237 1.480264 2.9057 1.480264zm2.35746-8.991229q-1.37062 0-1.97369-0.712719t-0.60307-1.754386q0-1.20614 0.38378-2.083333 0.38377-0.932018 0.93201-1.535088 0.54825-0.60307 1.20614-0.877193 0.6579-0.328947 1.20614-0.328947 1.37062 0 1.91886 0.767543 0.60307 0.71272 0.60307 1.754386 0 1.206141-0.38377 2.138158-0.38377 0.877193-0.93202 1.480264-0.54824 0.548245-1.20614 0.877193-0.60307 0.274122-1.15131 0.274122z"/></g></svg>
