<svg clip-rule="evenodd" fill-rule="evenodd" stroke-linejoin="round" stroke-miterlimit="1.41421" version="1.1" viewBox="0 0 34 48" xml:space="preserve" xmlns="http://www.w3.org/2000/svg"><g id="g4" transform="translate(-.0649771 -1.77737)"><g id="g14" transform="matrix(1.71595,0,0,1.71595,-13.7741,-18.814)"><path id="path16" d="m23.657 15.202c-0.572-2.132-2.767-3.4-4.899-2.828l-7.728 2.07c-2.132 0.572-3.399 2.767-2.828 4.899l4.141 15.455c0.572 2.132 2.767 3.4 4.899 2.828l7.728-2.07c2.132-0.572 3.399-2.767 2.828-4.899l-4.141-15.455zm-6.023 8.432l1.25-2.165c0.138-0.239 0.444-0.321 0.683-0.183l0.866 0.5c0.239 0.138 0.321 0.444 0.183 0.683l-1.25 2.165 2.165 1.25c0.239 0.138 0.321 0.444 0.183 0.683l-0.5 0.866c-0.138 0.239-0.444 0.321-0.683 0.183l-2.165-1.25-1.25 2.165c-0.138 0.239-0.444 0.321-0.683 0.183l-0.866-0.5c-0.239-0.138-0.321-0.444-0.183-0.683l1.25-2.165-2.165-1.25c-0.239-0.138-0.321-0.444-0.183-0.683l0.5-0.866c0.138-0.239 0.444-0.321 0.683-0.183l2.165 1.25z"/></g></g></svg>
