<svg width="24.038227" height="24.03635" version="1.1" viewBox="0 0 24.038227 24.03635" xml:space="preserve" xmlns="http://www.w3.org/2000/svg"><g id="pencil_2_" transform="translate(-11.980899,-11.98175)"><path id="path34" d="m29.687 14.232 0.51 0.511 3.06 3.06 0.511 0.51 0.51-0.51 1.021-1.019 0.509-0.512c0.281-0.279 0.282-0.738 0-1.02l-3.059-3.059c-0.282-0.282-0.741-0.281-1.021-1e-3l-0.511 0.51-1.019 1.021-0.511 0.509z"/><rect id="rect36" transform="matrix(.7071 -.7071 .7071 .7071 -9.8662 24.0313)" x="14.996" y="21.040001" width="18.158001" height="5.7709999"/><path id="path38" d="m14.379 29.54-2.364 6.152c-0.101 0.262 0.03 0.393 0.292 0.292l6.152-2.363-4.08-4.081z"/></g></svg>
