<svg width="323.79199" height="323.79199" enable-background="new 0 0 400 400" version="1.1" viewBox="0 0 323.79199 323.79199" xml:space="preserve" xmlns="http://www.w3.org/2000/svg"><g id="g198" transform="translate(-38.104,-38.104)" ><path id="path200" d="m200 47.104c40.84 0 79.235 15.904 108.113 44.782 28.879 28.878 44.782 67.273 44.782 108.113s-15.903 79.235-44.782 108.113c-28.878 28.88-67.273 44.784-108.113 44.784s-79.235-15.904-108.113-44.782c-28.879-28.879-44.783-67.274-44.783-108.114s15.903-79.235 44.782-108.113c28.879-28.879 67.274-44.783 108.114-44.783m0-9c-89.413 0-161.896 72.483-161.896 161.896s72.483 161.896 161.896 161.896 161.896-72.484 161.896-161.896-72.483-161.896-161.896-161.896z"/><path id="path202" d="m200 74.473c-69.327 0-125.527 56.2-125.527 125.527 0 69.326 56.2 125.527 125.527 125.527 69.328 0 125.527-56.201 125.527-125.527 0-69.327-56.199-125.527-125.527-125.527zm-38.478 114.129h15.521c2.763 0 5.029-2.264 5.029-5.03v-40.233h35.856v40.233c0 2.767 2.265 5.03 5.026 5.03h15.52c2.77 0 3.486 1.656 1.606 3.682l-36.654 39.403c-1.888 2.023-4.966 2.023-6.849 0l-36.662-39.403c-1.882-2.026-1.155-3.682 1.607-3.682zm98.69 62.401c0 3.126-2.53 5.659-5.657 5.659h-109.105c-3.132 0-5.66-2.533-5.66-5.659v-25.452c0-3.126 2.528-5.657 5.66-5.657 3.122 0 5.657 2.531 5.657 5.657v19.795h97.787v-19.795c0-3.126 2.533-5.657 5.66-5.657s5.657 2.531 5.657 5.657v25.452z"/></g></svg>
