<svg width="20" height="21.643" version="1.1" viewBox="0 0 20 21.643" xml:space="preserve" xmlns="http://www.w3.org/2000/svg"><g id="blackboard_2_" transform="translate(-14,-14)"><path id="path24" d="m15 25v-10c0-0.55 0.45-1 1-1h16c0.55 0 1 0.45 1 1v10c0 0.55-0.45 1-1 1h-16c-0.55 0-1-0.45-1-1zm19 2.5v1c0 0.275-0.225 0.5-0.5 0.5h-6.28l5.105 5.105c0.352 0.352 0.352 0.922 0 1.273-0.176 0.176-0.406 0.264-0.637 0.264s-0.461-0.088-0.637-0.264l-2.378-2.378h-9.22l-2.379 2.379c-0.176 0.176-0.406 0.264-0.637 0.264-0.23 0-0.461-0.088-0.637-0.264-0.352-0.352-0.352-0.922 0-1.273l5.106-5.106h-6.406c-0.275 0-0.5-0.225-0.5-0.5v-1c0-0.275 0.225-0.5 0.5-0.5h0.5 18 0.5c0.275 0 0.5 0.225 0.5 0.5zm-7.327 3.5-2-2h-1.22l-2 2h5.22z"/></g></svg>
