<svg width="24" height="24.76597" version="1.1" viewBox="0 0 24 24.76597" xml:space="preserve" xmlns="http://www.w3.org/2000/svg"><g id="gift_2_" transform="translate(-12,-11.234029)"><g id="g4"><path id="path6" d="m14 28h8v8h-8v-8zm12 8h8v-8h-8v8zm10-18.375v2.958c0 0.275-0.225 0.417-0.5 0.417h-1.5v3h-8v-7h-4v7h-8v-3h-1.5c-0.275 0-0.5-0.142-0.5-0.417v-2.958c0-0.275 0.225-0.625 0.5-0.625h1.596c-0.094 0 0.712-3.795 0.769-4.037 0.343-1.227 1.591-1.994 2.836-1.644 0.548 0.154 1.113 0.489 1.632 0.726 1.247 0.568 2.495 1.138 3.742 1.707 0.316 0.183 0.584 0.425 0.796 0.708 0.212-0.283 0.479-0.524 0.794-0.705 1.198-0.548 2.397-1.096 3.596-1.644 0.494-0.226 0.983-0.479 1.482-0.689 1.313-0.555 2.764 0.183 3.142 1.543 0.054 0.242 0.859 4.035 0.76 4.035h1.855c0.275 0 0.5 0.35 0.5 0.625zm-14.174-1.028-4.605-2.765-0.632 2.887c-0.034 0.121 0.05 0.281 0.164 0.281h4.938l0.135-0.403zm9.562 0.108-0.63-2.907-4.608 2.788 0.131 0.414h4.927c0.122 0 0.215-0.17 0.18-0.295z"/></g><g id="g8" opacity=".3"><path id="path10" d="m34 28h-8v8h-4v-8h-8v-4h8v-7h4v7h8v4z"/></g></g></svg>
