<svg id="Layer_1" width="256.77374" height="263.44699" enable-background="new 0 0 400 400" version="1.1" viewBox="0 0 256.77374 263.44699" xml:space="preserve" xmlns="http://www.w3.org/2000/svg"><g id="g279" transform="translate(-26.00225,-121.014)" ><path id="path285" d="m190.604 121.014c-50.824 0-92.172 41.348-92.172 92.172 0 23.875 9.125 45.658 24.07 62.047l-14.741 14.741c-6.241-1.769-13.229-0.206-18.142 4.707l-58.198 58.199c-7.225 7.225-7.225 18.938 0 26.162 3.612 3.612 8.347 5.419 13.082 5.419s9.469-1.807 13.082-5.419l58.199-58.199c4.913-4.913 6.476-11.9 4.707-18.142l15.393-15.393c15.314 11.336 34.248 18.049 54.721 18.049 50.824 0 92.171-41.348 92.171-92.172s-41.348-92.171-92.172-92.171zm0 161.343c-38.142 0-69.172-31.03-69.172-69.172s31.03-69.172 69.172-69.172c38.141 0 69.171 31.03 69.171 69.172s-31.029 69.172-69.171 69.172z" /></g></svg>
