<svg width="32px" height="32px" enable-background="new 0 0 452.025 452.025" version="1.1" viewBox="0 0 452.025 452.025" xml:space="preserve" xmlns="http://www.w3.org/2000/svg">
  <path d="m147.912 363.325c-4.7-4.7-12.3-4.7-17 0s-4.7 12.3 0 17l13.6 13.6h-55.2c-35.9 0-65-29.2-65-65v-40.3c0-6.6-5.4-12-12-12s-12 5.4-12 12v40.3c0 49.1 39.9 89 89 89h55.2l-13.6 13.6c-4.7 4.7-4.7 12.3 0 17 2.3 2.3 5.4 3.5 8.5 3.5s6.1-1.2 8.5-3.5l34.1-34.1c4.7-4.7 4.7-12.3 0-17l-34.1-34.1z"/>
  <path d="m210.312 0.025h-197.1c-6.6 0-12 5.4-12 12v197.1c0 6.6 5.4 12 12 12h197.1c6.6 0 12-5.4 12-12v-197.1c0-6.6-5.3-12-12-12zm-12 197.1h-173.1v-173.1h173.1v173.1z"/>
  <path d="m362.612 34.125h-55.2l13.6-13.6c4.7-4.7 4.7-12.3 0-17s-12.3-4.7-17 0l-34 34.1c-4.7 4.7-4.7 12.3 0 17l34.1 34.1c2.3 2.3 5.4 3.5 8.5 3.5s6.1-1.2 8.5-3.5c4.7-4.7 4.7-12.3 0-17l-13.6-13.6h55.2c35.9 0 65 29.2 65 65v40.3c0 6.6 5.4 12 12 12s12-5.4 12-12v-40.3c0-49.1-40-89-89.1-89z"/>
  <path d="m438.812 428.025c-3.2 0-6.3 1.3-8.5 3.5s-3.5 5.3-3.5 8.5c0 3.1 1.3 6.3 3.5 8.5s5.3 3.5 8.5 3.5 6.3-1.3 8.5-3.5 3.5-5.3 3.5-8.5-1.3-6.3-3.5-8.5c-2.3-2.2-5.4-3.5-8.5-3.5z"/>
  <path d="m389.512 428.025c-6.6 0-12 5.4-12 12s5.4 12 12 12 12-5.4 12-12-5.4-12-12-12z"/>
  <path d="m290.912 428.025c-6.6 0-12 5.4-12 12s5.4 12 12 12 12-5.4 12-12-5.3-12-12-12z"/>
  <path d="m340.212 428.025c-6.6 0-12 5.4-12 12s5.4 12 12 12 12-5.4 12-12-5.4-12-12-12z"/>
  <path d="m241.713 428.025c-3.2 0-6.3 1.3-8.5 3.5s-3.5 5.3-3.5 8.5c0 3.1 1.3 6.3 3.5 8.5s5.3 3.5 8.5 3.5c3.1 0 6.3-1.3 8.5-3.5s3.5-5.3 3.5-8.5-1.3-6.3-3.5-8.5-5.401-3.5-8.5-3.5z"/>
  <path d="m241.713 378.725c-6.6 0-12 5.4-12 12s5.4 12 12 12 12-5.4 12-12-5.401-12-12-12z"/>
  <path d="m241.713 329.425c-6.6 0-12 5.4-12 12s5.4 12 12 12 12-5.4 12-12-5.401-12-12-12z"/>
  <path d="m241.713 280.125c-6.6 0-12 5.4-12 12s5.4 12 12 12 12-5.4 12-12-5.401-12-12-12z"/>
  <path d="m241.713 230.925c-3.2 0-6.3 1.3-8.5 3.5s-3.5 5.3-3.5 8.5 1.3 6.3 3.5 8.5 5.3 3.5 8.5 3.5c3.1 0 6.3-1.3 8.5-3.5s3.5-5.3 3.5-8.5c0-3.1-1.3-6.3-3.5-8.5-2.301-2.3-5.401-3.5-8.5-3.5z"/>
  <path d="m389.512 230.925c-6.6 0-12 5.4-12 12s5.4 12 12 12 12-5.4 12-12-5.4-12-12-12z"/>
  <path d="m340.212 230.925c-6.6 0-12 5.4-12 12s5.4 12 12 12 12-5.4 12-12-5.4-12-12-12z"/>
  <path d="m290.912 230.925c-6.6 0-12 5.4-12 12s5.4 12 12 12 12-5.4 12-12-5.3-12-12-12z"/>
  <path d="m438.812 230.925c-3.2 0-6.3 1.3-8.5 3.5s-3.5 5.3-3.5 8.5 1.3 6.3 3.5 8.5 5.3 3.5 8.5 3.5 6.3-1.3 8.5-3.5 3.5-5.3 3.5-8.5c0-3.1-1.3-6.3-3.5-8.5-2.3-2.2-5.4-3.5-8.5-3.5z"/>
  <path d="m438.812 280.125c-6.6 0-12 5.4-12 12s5.4 12 12 12 12-5.4 12-12-5.4-12-12-12z"/>
  <path d="m438.812 378.725c-6.6 0-12 5.4-12 12s5.4 12 12 12 12-5.4 12-12-5.4-12-12-12z"/>
  <path d="m438.812 329.425c-6.6 0-12 5.4-12 12s5.4 12 12 12 12-5.4 12-12-5.4-12-12-12z"/>
</svg>
