<?xml version="1.0" encoding="UTF-8" standalone="no"?>
<!DOCTYPE svg PUBLIC "-//W3C//DTD SVG 1.1//EN" "http://www.w3.org/Graphics/SVG/1.1/DTD/svg11.dtd">
<svg width="50%" height="50%" viewBox="0 0 150 150" version="1.1" xmlns="http://www.w3.org/2000/svg" xmlns:xlink="http://www.w3.org/1999/xlink" xml:space="preserve">
          <g transform="matrix(1.30435,0,0,1.30435,0,2.07958)">
            <path d="M99.8,29.5C104.9,39.2 100,58.4 100,58.4C100,58.4 84.9,37.7 74.4,33.1C77.852,36.228 83.493,54.792 81.5,55C81.5,55 31.1,26 0,0C27.8,25 61.6,75.7 61.6,75.7C61.664,74.411 50.777,72.645 38,74.2C41.8,76.1 46.3,79.4 50.8,83.4C53.5,86.6 56,90.7 57.5,96C62.2,112.8 78.3,111.8 78.3,111.8L79.6,103.3C83.4,87.7 94.6,75 109.4,69.2L115,67.3C115,67.2 109.8,43.3 99.8,29.5L99.8,29.5Z"/>
          </g>
        </svg>