<?xml version="1.0" encoding="UTF-8" standalone="no"?>
<!-- Generator: Adobe Illustrator 16.0.0, SVG Export Plug-In . SVG Version: 6.00 Build 0)  -->

<svg
   xmlns:dc="http://purl.org/dc/elements/1.1/"
   xmlns:cc="http://creativecommons.org/ns#"
   xmlns:rdf="http://www.w3.org/1999/02/22-rdf-syntax-ns#"
   xmlns:svg="http://www.w3.org/2000/svg"
   xmlns="http://www.w3.org/2000/svg"
   xmlns:sodipodi="http://sodipodi.sourceforge.net/DTD/sodipodi-0.dtd"
   xmlns:inkscape="http://www.inkscape.org/namespaces/inkscape"
   version="1.1"
   id="Layer_1"
   x="0px"
   y="0px"
   width="304.30899"
   height="347.76901"
   viewBox="0 0 304.30899 347.76901"
   enable-background="new 0 0 400 400"
   xml:space="preserve"
   inkscape:version="0.91 r13725"
   sodipodi:docname="cache.svg"><metadata
     id="metadata15"><rdf:RDF><cc:Work
         rdf:about=""><dc:format>image/svg+xml</dc:format><dc:type
           rdf:resource="http://purl.org/dc/dcmitype/StillImage" /><dc:title></dc:title></cc:Work></rdf:RDF></metadata><defs
     id="defs13" /><sodipodi:namedview
     pagecolor="#ffffff"
     bordercolor="#666666"
     borderopacity="1"
     objecttolerance="10"
     gridtolerance="10"
     guidetolerance="10"
     inkscape:pageopacity="0"
     inkscape:pageshadow="2"
     inkscape:window-width="640"
     inkscape:window-height="480"
     id="namedview11"
     showgrid="false"
     fit-margin-top="0"
     fit-margin-left="0"
     fit-margin-right="0"
     fit-margin-bottom="0"
     inkscape:zoom="0.59"
     inkscape:cx="152.155"
     inkscape:cy="173.885"
     inkscape:window-x="0"
     inkscape:window-y="0"
     inkscape:window-maximized="0"
     inkscape:current-layer="Layer_1" /><g
     id="g3"
     transform="translate(-47.845,-26.116)"><path
       d="m 345.046,100.044 c -0.213,-1.099 -0.607,-2.134 -1.182,-3.051 L 308.262,30.85 c -1.569,-2.916 -4.613,-4.734 -7.925,-4.734 l -176.003,0 c -2.606,0 -5.083,1.129 -6.793,3.097 L 60.318,95.054 c -7.551,5.49 -12.473,14.386 -12.473,24.414 l 0,224.242 c 0,16.639 13.536,30.175 30.174,30.175 l 243.962,0 c 16.637,0 30.173,-13.536 30.173,-30.175 l 0,-224.242 c 0,-7.394 -2.677,-14.171 -7.108,-19.424 z m -216.125,-55.929 162.509,0 0,45.179 -162.509,0 0,-45.179 z m 190.357,45.179 -18.675,0 0,-34.694 18.675,34.694 z m -199.531,-35.181 0,35.181 -30.576,0 30.576,-35.181 z M 334.154,343.71 c 0,6.713 -5.461,12.175 -12.173,12.175 l -243.961,0 c -6.713,0 -12.174,-5.462 -12.174,-12.175 l 0,-224.242 c 0,-3.41 1.414,-6.493 3.681,-8.705 l 50.221,0 0,77.051 c 0,2.533 2.054,4.587 4.587,4.587 2.533,0 4.587,-2.054 4.587,-4.587 l 0,-77.051 162.508,0 0,139.529 -138.567,0 c -2.533,0 -4.587,2.054 -4.587,4.587 0,2.533 2.054,4.587 4.587,4.587 l 139.502,0 18.83,81.854 c 0.489,2.123 2.377,3.56 4.466,3.56 0.34,0 0.686,-0.038 1.032,-0.118 2.469,-0.567 4.01,-3.029 3.442,-5.498 l -19.532,-84.905 0,-143.596 29.871,0 c 2.267,2.212 3.68,5.295 3.68,8.705 l 0,224.242 z"
       id="path5"
       inkscape:connector-curvature="0"
       style="fill:#ffffff" /><path
       d="m 187.339,295.078 -54.748,0 c -0.183,-0.576 -0.354,-1.237 -0.455,-1.872 l 0,-69.918 c 0,-13.73 -11.17,-24.9 -24.9,-24.9 -13.729,0 -24.899,11.17 -24.899,24.9 l 0,71.189 c 0,0.446 0.012,0.895 0.036,1.348 0.104,1.907 0.88,11.944 5.935,22.312 8.283,16.994 23.74,26.741 42.407,26.741 l 56.624,0 c 13.729,0 24.899,-11.17 24.899,-24.899 0,-13.731 -11.17,-24.901 -24.899,-24.901 z m 0,40.626 -56.624,0 c -15.023,0 -27.475,-7.868 -34.161,-21.587 -4.281,-8.781 -4.934,-17.194 -5.021,-18.786 -0.015,-0.285 -0.022,-0.569 -0.022,-0.854 l 0,-71.189 c 0,-8.672 7.054,-15.727 15.726,-15.727 8.672,0 15.727,7.055 15.727,15.727 l 0,70.243 c 0,0.196 0.013,0.392 0.038,0.586 0.308,2.388 1.478,6.668 3.441,8.674 0.627,0.641 1.429,1.084 2.305,1.274 0.57,0.124 1.232,0.187 1.968,0.187 l 56.624,0 c 8.671,0 15.726,7.055 15.726,15.727 -0.002,8.67 -7.056,15.725 -15.727,15.725 z"
       id="path7"
       inkscape:connector-curvature="0"
       style="fill:#ffffff" /><path
       d="m 264.622,291.499 c -12.843,0 -23.292,10.448 -23.292,23.291 0,12.843 10.449,23.291 23.292,23.291 12.843,0 23.291,-10.448 23.291,-23.291 0,-12.843 -10.448,-23.291 -23.291,-23.291 z m 0,37.408 c -7.785,0 -14.118,-6.333 -14.118,-14.117 0,-7.784 6.333,-14.117 14.118,-14.117 7.784,0 14.117,6.333 14.117,14.117 0,7.784 -6.333,14.117 -14.117,14.117 z"
       id="path9"
       inkscape:connector-curvature="0"
       style="fill:#ffffff" /></g></svg>