<?xml version="1.0" encoding="UTF-8" standalone="no"?>
<!-- Generator: Adobe Illustrator 16.0.0, SVG Export Plug-In . SVG Version: 6.00 Build 0)  -->

<svg
   xmlns:dc="http://purl.org/dc/elements/1.1/"
   xmlns:cc="http://creativecommons.org/ns#"
   xmlns:rdf="http://www.w3.org/1999/02/22-rdf-syntax-ns#"
   xmlns:svg="http://www.w3.org/2000/svg"
   xmlns="http://www.w3.org/2000/svg"
   xmlns:sodipodi="http://sodipodi.sourceforge.net/DTD/sodipodi-0.dtd"
   xmlns:inkscape="http://www.inkscape.org/namespaces/inkscape"
   version="1.1"
   id="Layer_1"
   x="0px"
   y="0px"
   width="296.311"
   height="334.24701"
   viewBox="0 0 296.311 334.24701"
   enable-background="new 0 0 400 400"
   xml:space="preserve"
   inkscape:version="0.91 r13725"
   sodipodi:docname="draftboard.svg"><metadata
     id="metadata30"><rdf:RDF><cc:Work
         rdf:about=""><dc:format>image/svg+xml</dc:format><dc:type
           rdf:resource="http://purl.org/dc/dcmitype/StillImage" /><dc:title></dc:title></cc:Work></rdf:RDF></metadata><defs
     id="defs28" /><sodipodi:namedview
     pagecolor="#ffffff"
     bordercolor="#666666"
     borderopacity="1"
     objecttolerance="10"
     gridtolerance="10"
     guidetolerance="10"
     inkscape:pageopacity="0"
     inkscape:pageshadow="2"
     inkscape:window-width="640"
     inkscape:window-height="480"
     id="namedview26"
     showgrid="false"
     fit-margin-top="0"
     fit-margin-left="0"
     fit-margin-right="0"
     fit-margin-bottom="0"
     inkscape:zoom="0.59"
     inkscape:cx="158.918"
     inkscape:cy="175.381"
     inkscape:window-x="0"
     inkscape:window-y="0"
     inkscape:window-maximized="0"
     inkscape:current-layer="Layer_1" /><g
     id="g18"
     transform="translate(-41.082,-41.134)"><path
       d="m 329.893,67.415 -22.087,0 0,-18.781 c 0,-4.143 -3.357,-7.5 -7.5,-7.5 l -162.872,0 c -4.142,0 -7.5,3.357 -7.5,7.5 l 0,30.882 -79.852,0 c -4.971,0 -9,4.029 -9,9 l 0,277.865 c 0,4.971 4.029,9 9,9 l 175.85,0 c 2.399,0 4.699,-0.958 6.389,-2.661 11.517,-11.605 23.014,-23.23 34.511,-34.855 16.055,-16.232 32.656,-33.018 49.033,-49.468 1.68,-1.687 2.622,-3.97 2.622,-6.35 l 0,-67.505 11.406,0 c 4.143,0 7.5,-3.357 7.5,-7.5 l 0,-132.127 c 0,-4.143 -3.358,-7.5 -7.5,-7.5 z m -184.959,-11.281 147.872,0 0,11.281 -125.783,0 c -4.142,0 -7.5,3.357 -7.5,7.5 l 0,98.346 -14.589,0 0,-117.127 z M 269.22,309.629 c -9.315,9.421 -18.835,19.048 -28.371,28.67 l 0,-43.57 43.108,0 c -4.914,4.965 -9.826,9.933 -14.737,14.9 z m 31.266,-32.9 -68.638,0 c -4.971,0 -9,4.029 -9,9 l 0,70.979 c -0.222,0.224 -0.444,0.448 -0.666,0.673 l -163.1,0 0,-259.865 70.852,0 0,83.245 c 0,4.143 3.358,7.5 7.5,7.5 l 22.089,0 0,18.781 c 0,4.143 3.358,7.5 7.5,7.5 l 133.463,0 0,62.187 z m 21.907,-77.187 -147.87,0 0,-18.771 c 0,-0.003 0,-0.007 0,-0.01 0,-0.003 0,-0.007 0,-0.01 l 0,-98.336 147.87,0 0,117.127 z"
       id="path20"
       inkscape:connector-curvature="0"
       style="fill:#ffffff" /><path
       d="m 149.603,238.784 0,-35.8 -30.858,0 0,-88.287 c 0,-1.104 -0.896,-2 -2,-2 -1.104,0 -2,0.896 -2,2 l 0,19.488 -26.859,0 0,-19.488 c 0,-1.104 -0.896,-2 -2,-2 -1.104,0 -2,0.896 -2,2 l 0,19.488 -12.133,0 c -1.104,0 -2,0.896 -2,2 0,1.104 0.896,2 2,2 l 12.133,0 0,28.999 -12.133,0 c -1.104,0 -2,0.896 -2,2 0,1.104 0.896,2 2,2 l 12.133,0 0,31.8 -12.133,0 c -1.104,0 -2,0.896 -2,2 0,1.104 0.896,2 2,2 l 12.133,0 0,31.8 -12.133,0 c -1.104,0 -2,0.896 -2,2 0,1.104 0.896,2 2,2 l 12.133,0 0,31.8 -12.133,0 c -1.104,0 -2,0.896 -2,2 0,1.104 0.896,2 2,2 l 12.133,0 0,31.8 -12.133,0 c -1.104,0 -2,0.896 -2,2 0,1.104 0.896,2 2,2 l 12.133,0 0,25.134 c 0,1.104 0.896,2 2,2 1.104,0 2,-0.896 2,-2 l 0,-25.134 26.858,0 0,25.134 c 0,1.104 0.896,2 2,2 1.104,0 2,-0.896 2,-2 l 0,-25.134 26.858,0 0,25.134 c 0,1.104 0.896,2 2,2 1.104,0 2,-0.896 2,-2 l 0,-25.134 26.858,0 0,25.134 c 0,1.104 0.896,2 2,2 1.104,0 2,-0.896 2,-2 l 0,-25.134 26.859,0 0,25.134 c 0,1.104 0.896,2 2,2 1.104,0 2,-0.896 2,-2 l 0,-96.733 27.977,0 0,26.257 c 0,1.104 0.896,2 2,2 1.104,0 2,-0.896 2,-2 l 0,-26.257 29.037,0 0,26.257 c 0,1.104 0.896,2 2,2 1.104,0 2,-0.896 2,-2 l 0,-26.257 10.25,0 c 1.104,0 2,-0.896 2,-2 0,-1.104 -0.896,-2 -2,-2 l -10.25,0 0,-11.677 c 0,-1.104 -0.896,-2 -2,-2 -1.104,0 -2,0.896 -2,2 l 0,11.677 -29.037,0 0,-11.677 c 0,-1.104 -0.896,-2 -2,-2 -1.104,0 -2,0.896 -2,2 l 0,11.677 -27.976,0 0,-11.677 c 0,-1.104 -0.896,-2 -2,-2 -1.104,0 -2,0.896 -2,2 l 0,11.677 -26.859,0 0,-11.677 c 0,-1.104 -0.896,-2 -2,-2 -1.104,0 -2,0.896 -2,2 l 0,11.677 -26.858,0 z m 26.858,4 0,31.8 -26.858,0 0,-31.8 26.858,0 z m -30.858,31.8 -26.858,0 0,-31.8 26.858,0 0,31.8 z m 0,-67.6 0,31.8 -26.858,0 0,-31.8 26.858,0 z m -57.717,-68.798 26.858,0 0,28.999 -26.858,0 0,-28.999 z m 0,32.999 26.858,0 0,31.8 -26.858,0 0,-31.8 z m 0,35.799 26.858,0 0,31.8 -26.858,0 0,-31.8 z m 0,35.8 26.858,0 0,31.8 -26.858,0 0,-31.8 z m 0,67.6 0,-31.8 26.858,0 0,31.8 -26.858,0 z m 30.859,0 0,-31.8 26.858,0 0,31.8 -26.858,0 z m 30.858,0 0,-31.8 26.858,0 0,31.8 -26.858,0 z m 30.858,0 0,-31.8 26.859,0 0,31.8 -26.859,0 z m 26.859,-67.6 0,31.8 -26.859,0 0,-31.8 26.859,0 z"
       id="path22"
       inkscape:connector-curvature="0"
       style="fill:#ffffff" /><path
       d="m 283.498,94.078 0,21.79 0,18.845 0,2.945 0,18.846 0,21.79 c 0,0.137 0.024,0.267 0.06,0.392 l -21.414,0 c 0.035,-0.125 0.06,-0.255 0.06,-0.392 l 0,-21.79 0,-18.846 0,-21.79 c 0,-0.812 -0.66,-1.473 -1.473,-1.473 l -19.092,0 c -0.812,0 -1.475,0.66 -1.475,1.473 l 0,21.79 0,18.846 0,21.79 c 0,0.137 0.024,0.267 0.06,0.392 l -21.414,0 c 0.035,-0.125 0.06,-0.255 0.06,-0.392 l 0,-40.636 c 0,-0.813 -0.658,-1.473 -1.471,-1.473 l -19.093,0 c -0.812,0 -1.472,0.659 -1.472,1.473 l 0,40.636 c 0,0.137 0.025,0.267 0.06,0.392 l -11.572,0 c -1.104,0 -2,0.896 -2,2 0,1.104 0.896,2 2,2 l 124.166,0 c 1.104,0 2,-0.896 2,-2 0,-1.104 -0.896,-2 -2,-2 l -4.011,0 c 0.035,-0.125 0.06,-0.255 0.06,-0.392 l 0,-21.79 0,-18.846 0,-2.945 0,-18.845 0,-21.79 c 0,-0.813 -0.66,-1.473 -1.473,-1.473 l -19.094,0 c -0.815,0 -1.472,0.66 -1.472,1.473 z"
       id="path24"
       inkscape:connector-curvature="0"
       style="fill:#ffffff" /></g></svg>