<?xml version="1.0" encoding="UTF-8" standalone="no"?>
<!-- Generator: Adobe Illustrator 16.0.0, SVG Export Plug-In . SVG Version: 6.00 Build 0)  -->

<svg
   xmlns:dc="http://purl.org/dc/elements/1.1/"
   xmlns:cc="http://creativecommons.org/ns#"
   xmlns:rdf="http://www.w3.org/1999/02/22-rdf-syntax-ns#"
   xmlns:svg="http://www.w3.org/2000/svg"
   xmlns="http://www.w3.org/2000/svg"
   xmlns:sodipodi="http://sodipodi.sourceforge.net/DTD/sodipodi-0.dtd"
   xmlns:inkscape="http://www.inkscape.org/namespaces/inkscape"
   version="1.1"
   id="Layer_1"
   x="0px"
   y="0px"
   width="367.10199"
   height="112.30102"
   viewBox="0 0 367.10199 112.30102"
   enable-background="new 0 0 400 400"
   xml:space="preserve"
   inkscape:version="0.91 r13725"
   sodipodi:docname="search.svg"><metadata
     id="metadata82"><rdf:RDF><cc:Work
         rdf:about=""><dc:format>image/svg+xml</dc:format><dc:type
           rdf:resource="http://purl.org/dc/dcmitype/StillImage" /><dc:title></dc:title></cc:Work></rdf:RDF></metadata><defs
     id="defs80" /><sodipodi:namedview
     pagecolor="#ffffff"
     bordercolor="#666666"
     borderopacity="1"
     objecttolerance="10"
     gridtolerance="10"
     guidetolerance="10"
     inkscape:pageopacity="0"
     inkscape:pageshadow="2"
     inkscape:window-width="1154"
     inkscape:window-height="927"
     id="namedview78"
     showgrid="false"
     fit-margin-top="0"
     fit-margin-left="0"
     fit-margin-right="0"
     fit-margin-bottom="0"
     inkscape:zoom="1.668772"
     inkscape:cx="167.90705"
     inkscape:cy="35.680688"
     inkscape:window-x="0"
     inkscape:window-y="0"
     inkscape:window-maximized="0"
     inkscape:current-layer="Layer_1" /><g
     id="g51"
     transform="translate(-17.1,-121.739)"
     style="fill:#ffffff"><path
       d="m 262.739,130.739 0,94.301 -236.639,0 0,-94.301 236.639,0 m 9,-9 -248.686,0 c -3.288,0 -5.953,2.665 -5.953,5.953 l 0,100.396 c 0,3.287 2.665,5.952 5.953,5.952 l 248.687,0 0,-112.301 -0.001,0 z"
       id="path53"
       inkscape:connector-curvature="0"
       style="fill:#ffffff" /><g
       id="g55"
       style="fill:#ffffff"><path
         d="m 324.808,148.759 c -12.169,0 -22.069,9.9 -22.069,22.069 0,12.169 9.9,22.069 22.069,22.069 12.169,0 22.069,-9.9 22.069,-22.069 0,-12.169 -9.9,-22.069 -22.069,-22.069 z"
         id="path57"
         inkscape:connector-curvature="0"
         style="fill:#ffffff" /></g><path
       d="m 98.503,207.734 -52.946,0 c -2.209,0 -4,-1.791 -4,-4 0,-2.209 1.791,-4 4,-4 l 52.946,0 c 2.209,0 4,1.791 4,4 0,2.209 -1.791,4 -4,4 z"
       id="path59"
       inkscape:connector-curvature="0"
       style="fill:#ffffff" /><g
       id="VGM4vC_2_"
       style="fill:#ffffff"><g
         id="g62"
         style="fill:#ffffff"><g
           id="g64"
           style="fill:#ffffff"><g
             id="g68"
             style="fill:#ffffff"><g
               id="g74"
               style="fill:#ffffff"><path
                 d="m 378.25,121.739 -99.511,0 0,112.301 c 38.4355,4e-5 -21.26321,0 99.51,0 3.288,0 5.953,-2.665 5.953,-5.952 l 0,-100.396 c 10e-4,-3.288 -2.664,-5.953 -5.952,-5.953 z m -14.567,92.963 c -0.878,0.879 -2.03,1.318 -3.182,1.318 -1.152,0 -2.304,-0.439 -3.182,-1.318 l -16.981,-16.981 c -4.573,2.65 -9.875,4.177 -15.53,4.177 -17.132,0 -31.069,-13.938 -31.069,-31.069 0,-17.131 13.938,-31.069 31.069,-31.069 17.131,0 31.069,13.938 31.069,31.069 0,8.22 -3.214,15.698 -8.444,21.261 l 16.25,16.25 c 1.757,1.756 1.757,4.605 0,6.362 z"
                 id="path76"
                 inkscape:connector-curvature="0"
                 style="fill:#ffffff"
                 sodipodi:nodetypes="scccscscsccssssccc" /></g></g></g></g></g></g></svg>