<?xml version="1.0" encoding="UTF-8" standalone="no"?>
<!-- Generator: Adobe Illustrator 16.0.0, SVG Export Plug-In . SVG Version: 6.00 Build 0)  -->

<svg
   xmlns:dc="http://purl.org/dc/elements/1.1/"
   xmlns:cc="http://creativecommons.org/ns#"
   xmlns:rdf="http://www.w3.org/1999/02/22-rdf-syntax-ns#"
   xmlns:svg="http://www.w3.org/2000/svg"
   xmlns="http://www.w3.org/2000/svg"
   xmlns:sodipodi="http://sodipodi.sourceforge.net/DTD/sodipodi-0.dtd"
   xmlns:inkscape="http://www.inkscape.org/namespaces/inkscape"
   version="1.1"
   id="Layer_1"
   x="0px"
   y="0px"
   width="256.77374"
   height="263.44699"
   viewBox="0 0 256.77374 263.44699"
   enable-background="new 0 0 400 400"
   xml:space="preserve"
   inkscape:version="0.91 r13725"
   sodipodi:docname="search.svg"><metadata
     id="metadata301"><rdf:RDF><cc:Work
         rdf:about=""><dc:format>image/svg+xml</dc:format><dc:type
           rdf:resource="http://purl.org/dc/dcmitype/StillImage" /><dc:title></dc:title></cc:Work></rdf:RDF></metadata><defs
     id="defs299" /><sodipodi:namedview
     pagecolor="#333333"
     bordercolor="#666666"
     borderopacity="1"
     objecttolerance="10"
     gridtolerance="10"
     guidetolerance="10"
     inkscape:pageopacity="0"
     inkscape:pageshadow="2"
     inkscape:window-width="1072"
     inkscape:window-height="521"
     id="namedview297"
     showgrid="false"
     fit-margin-top="0"
     fit-margin-left="0"
     fit-margin-right="0"
     fit-margin-bottom="0"
     inkscape:zoom="0.59"
     inkscape:cx="-73.459877"
     inkscape:cy="184.461"
     inkscape:window-x="0"
     inkscape:window-y="0"
     inkscape:window-maximized="0"
     inkscape:current-layer="g279" /><g
     id="g279"
     style="fill:#333333"
     transform="translate(-26.00225,-121.014)"><path
       d="m 190.604,121.014 c -50.824,0 -92.172,41.348 -92.172,92.172 0,23.875 9.125,45.658 24.07,62.047 l -14.741,14.741 c -6.241,-1.769 -13.229,-0.206 -18.142,4.707 L 31.421,352.88 c -7.225,7.225 -7.225,18.938 0,26.162 3.612,3.612 8.347,5.419 13.082,5.419 4.735,0 9.469,-1.807 13.082,-5.419 l 58.199,-58.199 c 4.913,-4.913 6.476,-11.9 4.707,-18.142 l 15.393,-15.393 c 15.314,11.336 34.248,18.049 54.721,18.049 50.824,0 92.171,-41.348 92.171,-92.172 0,-50.824 -41.348,-92.171 -92.172,-92.171 z m 0,161.343 c -38.142,0 -69.172,-31.03 -69.172,-69.172 0,-38.142 31.03,-69.172 69.172,-69.172 38.141,0 69.171,31.03 69.171,69.172 0,38.142 -31.029,69.172 -69.171,69.172 z"
       id="path285"
       style="fill:#ffffff"
       inkscape:connector-curvature="0" /></g></svg>