<?xml version="1.0" encoding="UTF-8" standalone="no"?>
<!-- Generator: Adobe Illustrator 16.0.0, SVG Export Plug-In . SVG Version: 6.00 Build 0)  -->

<svg
   xmlns:dc="http://purl.org/dc/elements/1.1/"
   xmlns:cc="http://creativecommons.org/ns#"
   xmlns:rdf="http://www.w3.org/1999/02/22-rdf-syntax-ns#"
   xmlns:svg="http://www.w3.org/2000/svg"
   xmlns="http://www.w3.org/2000/svg"
   xmlns:sodipodi="http://sodipodi.sourceforge.net/DTD/sodipodi-0.dtd"
   xmlns:inkscape="http://www.inkscape.org/namespaces/inkscape"
   version="1.1"
   id="Layer_1"
   x="0px"
   y="0px"
   width="371.99899"
   height="252.85925"
   viewBox="0 0 371.99899 252.85925"
   enable-background="new 0 0 400 400"
   xml:space="preserve"
   inkscape:version="0.91 r13725"
   sodipodi:docname="setupMarkdown.svg"><metadata
     id="metadata159"><rdf:RDF><cc:Work
         rdf:about=""><dc:format>image/svg+xml</dc:format><dc:type
           rdf:resource="http://purl.org/dc/dcmitype/StillImage" /><dc:title></dc:title></cc:Work></rdf:RDF></metadata><defs
     id="defs157" /><sodipodi:namedview
     pagecolor="#ffffff"
     bordercolor="#666666"
     borderopacity="1"
     objecttolerance="10"
     gridtolerance="10"
     guidetolerance="10"
     inkscape:pageopacity="0"
     inkscape:pageshadow="2"
     inkscape:window-width="640"
     inkscape:window-height="480"
     id="namedview155"
     showgrid="false"
     fit-margin-top="0"
     fit-margin-left="0"
     fit-margin-right="0"
     fit-margin-bottom="0"
     inkscape:zoom="0.59"
     inkscape:cx="181.737"
     inkscape:cy="172.57425"
     inkscape:window-x="0"
     inkscape:window-y="0"
     inkscape:window-maximized="0"
     inkscape:current-layer="Layer_1" /><g
     id="g119"
     transform="translate(-18.263,-119.715)"><g
       id="g121"><path
         d="m 208.106,219.122 -12.226,12.227 -9.495,9.494 -6.863,6.862 c -0.011,-0.044 -0.021,-0.076 -0.021,-0.076 0,0 -2.259,2.769 -6.391,1.66 0,0 0,0.023 0,0.037 l -17.64,-4.727 c -4.391,-1.179 -5.715,-5.671 -5.733,-5.731 l -4.74,-17.692 c -0.839,-3.141 0.553,-5.193 1.272,-6.002 l 7.223,-7.223 9.494,-9.494 12.306,-12.306 c 2.927,-2.926 -0.312,-4.452 -0.42,-4.503 -17.071,-4.231 -35.869,0.309 -49.213,13.651 -13.062,13.062 -17.685,31.353 -13.9,48.134 l -0.005,-0.001 c 0,0 1,4.635 -3.958,9.593 L 27.872,332.95 c -8.146,8.146 -8.146,21.354 0.001,29.501 l 4.013,4.013 c 8.148,8.147 21.355,8.147 29.501,0 l 80.973,-80.972 c 3.729,-3.138 7.074,-3.115 8.138,-3.008 16.891,3.949 35.372,-0.641 48.539,-13.809 13.352,-13.351 17.889,-32.162 13.645,-49.24 -0.228,-0.417 -1.827,-3.063 -4.576,-0.313 z M 50.159,354.762 c -2.923,2.923 -7.663,2.923 -10.584,0 -2.924,-2.923 -2.924,-7.662 0,-10.585 2.921,-2.923 7.661,-2.923 10.584,0 2.924,2.922 2.924,7.662 0,10.585 z"
         id="path123"
         inkscape:connector-curvature="0"
         style="fill:#ffffff" /><path
         d="m 378.237,190.898 -179.378,0 c -0.928,0 -1.818,0.369 -2.475,1.025 l -11.523,11.523 -17.388,-4.66 -15.938,15.939 5.833,21.77 21.77,5.834 15.938,-15.938 -4.916,-18.347 10.147,-10.147 177.928,0 c 1.933,0 3.5,-1.567 3.5,-3.5 0,-1.933 -1.565,-3.499 -3.498,-3.499 z m -204.931,40.27 c -5.858,0 -10.61,-4.75 -10.61,-10.61 0,-5.859 4.752,-10.609 10.61,-10.609 5.86,0 10.61,4.75 10.61,10.609 0,5.86 -4.75,10.609 -10.61,10.61 z"
         id="path125"
         inkscape:connector-curvature="0"
         style="fill:#ffffff" /><path
         d="m 101.488,197.73 c 1.933,0 3.5,-1.567 3.5,-3.5 0,-1.933 -1.567,-3.5 -3.5,-3.5 l -79.725,0 c -1.933,0 -3.5,1.567 -3.5,3.5 0,1.933 1.567,3.5 3.5,3.5 l 79.725,0 z"
         id="path127"
         inkscape:connector-curvature="0"
         style="fill:#ffffff" /></g><g
       id="g129"><g
         id="g131"><path
           d="m 39.381,129.926 c 1.267,0 2.331,0.258 3.192,0.773 0.862,0.516 1.799,1.542 2.812,3.079 l 0.203,0 0.051,-0.938 c 0.118,-2.331 0.33,-4.164 0.633,-5.499 l 1.571,-7.626 9.907,0 -8.362,39.426 -7.828,0 0.253,-3.117 -0.203,0 c -0.963,1.335 -1.976,2.272 -3.041,2.812 -1.064,0.541 -2.314,0.811 -3.75,0.811 -2.669,0 -4.696,-0.941 -6.081,-2.825 -1.385,-1.883 -2.078,-4.59 -2.078,-8.121 0,-3.006 0.604,-6.072 1.812,-9.197 1.208,-3.125 2.758,-5.502 4.649,-7.133 1.893,-1.63 3.98,-2.445 6.26,-2.445 z m -0.532,21.841 c 0.845,0 1.651,-0.494 2.42,-1.482 0.769,-0.988 1.381,-2.31 1.837,-3.965 0.456,-1.655 0.684,-3.277 0.684,-4.865 0,-2.432 -0.676,-3.648 -2.027,-3.648 -0.828,0 -1.639,0.499 -2.433,1.495 -0.794,0.997 -1.436,2.311 -1.926,3.94 -0.49,1.63 -0.735,3.265 -0.735,4.903 0,2.415 0.727,3.622 2.18,3.622 z"
           id="path133"
           inkscape:connector-curvature="0"
           style="fill:#ffffff" /><path
           d="m 80.732,159.141 -7.829,0 0.253,-3.117 -0.203,0 c -0.946,1.318 -1.968,2.251 -3.066,2.8 -1.098,0.549 -2.34,0.824 -3.725,0.824 -2.669,0 -4.696,-0.941 -6.081,-2.825 -1.385,-1.883 -2.078,-4.59 -2.078,-8.121 0,-3.023 0.616,-6.106 1.85,-9.248 1.233,-3.142 2.791,-5.515 4.675,-7.12 1.883,-1.604 3.965,-2.407 6.246,-2.407 1.419,0 2.668,0.317 3.75,0.95 1.081,0.634 2.043,1.668 2.888,3.104 l 0.203,0 1.343,-3.547 7.854,0 -6.08,28.707 z m -10.54,-7.374 c 0.845,0 1.651,-0.494 2.42,-1.482 0.769,-0.988 1.381,-2.31 1.837,-3.965 0.456,-1.655 0.684,-3.277 0.684,-4.865 0,-1.098 -0.169,-1.98 -0.507,-2.647 -0.338,-0.667 -0.861,-1.001 -1.571,-1.001 -1.284,0 -2.445,1.068 -3.484,3.205 -1.039,2.137 -1.559,4.515 -1.559,7.133 0.001,2.415 0.727,3.622 2.18,3.622 z"
           id="path135"
           inkscape:connector-curvature="0"
           style="fill:#ffffff" /><path
           d="m 101.738,151.767 c 1.115,0 2.661,-0.396 4.637,-1.191 l 0,7.374 c -2.297,1.132 -5.169,1.698 -8.615,1.698 -2.5,0 -4.396,-0.536 -5.688,-1.609 -1.292,-1.073 -1.938,-2.833 -1.938,-5.283 0,-1.283 0.203,-2.872 0.608,-4.764 l 2.128,-10.186 -3.902,0 1.039,-4.814 5.523,-2.229 3.471,-6.081 6.538,0 -1.242,5.751 7.297,0 -1.596,7.374 -7.323,0 -2.128,9.705 c -0.271,1.301 -0.405,2.188 -0.405,2.66 0,1.063 0.531,1.595 1.596,1.595 z"
           id="path137"
           inkscape:connector-curvature="0"
           style="fill:#ffffff" /><path
           d="m 124.567,159.647 c -3.582,0 -6.369,-1.001 -8.362,-3.002 -1.993,-2.002 -2.99,-4.785 -2.99,-8.349 0,-3.564 0.705,-6.778 2.116,-9.641 1.41,-2.863 3.345,-5.033 5.802,-6.512 2.458,-1.478 5.3,-2.217 8.526,-2.217 3.209,0 5.735,0.727 7.576,2.179 1.841,1.453 2.762,3.387 2.762,5.802 0,3.396 -1.322,6.001 -3.965,7.817 -2.644,1.816 -6.466,2.724 -11.465,2.724 l -1.495,0 0,0.405 c 0,2.5 1.385,3.75 4.155,3.75 1.334,0 2.644,-0.198 3.928,-0.596 1.283,-0.396 2.745,-1.026 4.383,-1.888 l 0,6.943 c -1.892,0.963 -3.657,1.634 -5.296,2.014 -1.638,0.382 -3.53,0.571 -5.675,0.571 z m 4.004,-23.083 c -1.031,0 -1.994,0.587 -2.889,1.761 -0.896,1.174 -1.436,2.504 -1.622,3.991 l 0.735,0 c 1.841,0 3.285,-0.351 4.333,-1.052 1.047,-0.701 1.571,-1.625 1.571,-2.774 0,-0.541 -0.169,-0.997 -0.507,-1.368 -0.338,-0.372 -0.879,-0.558 -1.621,-0.558 z"
           id="path139"
           inkscape:connector-curvature="0"
           style="fill:#ffffff" /><path
           d="m 157.203,139.529 0,-6.74 24.705,0 0,6.74 -24.705,0 z m 0,9.502 0,-6.867 24.705,0 0,6.867 -24.705,0 z"
           id="path141"
           inkscape:connector-curvature="0"
           style="fill:#ffffff" /><path
           d="m 216.342,168.744 -23.539,0 1.444,-6.233 23.564,0 -1.469,6.233 z"
           id="path143"
           inkscape:connector-curvature="0"
           style="fill:#ffffff" /><path
           d="m 261.976,121.564 -21.233,38.083 -8.716,0 21.233,-38.083 8.716,0 z"
           id="path145"
           inkscape:connector-curvature="0"
           style="fill:#ffffff" /><path
           d="m 290.887,168.744 -23.539,0 1.444,-6.233 23.564,0 -1.469,6.233 z"
           id="path147"
           inkscape:connector-curvature="0"
           style="fill:#ffffff" /><path
           d="m 336.521,121.564 -21.233,38.083 -8.716,0 21.233,-38.083 8.716,0 z"
           id="path149"
           inkscape:connector-curvature="0"
           style="fill:#ffffff" /><path
           d="m 365.432,168.744 -23.539,0 1.444,-6.233 23.564,0 -1.469,6.233 z"
           id="path151"
           inkscape:connector-curvature="0"
           style="fill:#ffffff" /><path
           d="m 388.793,168.744 -23.539,0 1.444,-6.233 23.564,0 -1.469,6.233 z"
           id="path153"
           inkscape:connector-curvature="0"
           style="fill:#ffffff" /></g></g></g></svg>