<?xml version="1.0" encoding="UTF-8" standalone="no"?>
<!-- Generator: Adobe Illustrator 16.0.0, SVG Export Plug-In . SVG Version: 6.00 Build 0)  -->

<svg
   xmlns:dc="http://purl.org/dc/elements/1.1/"
   xmlns:cc="http://creativecommons.org/ns#"
   xmlns:rdf="http://www.w3.org/1999/02/22-rdf-syntax-ns#"
   xmlns:svg="http://www.w3.org/2000/svg"
   xmlns="http://www.w3.org/2000/svg"
   xmlns:sodipodi="http://sodipodi.sourceforge.net/DTD/sodipodi-0.dtd"
   xmlns:inkscape="http://www.inkscape.org/namespaces/inkscape"
   version="1.1"
   id="Layer_1"
   x="0px"
   y="0px"
   width="360"
   height="252"
   viewBox="0 0 360 252"
   enable-background="new 0 0 400 400"
   xml:space="preserve"
   inkscape:version="0.91 r13725"
   sodipodi:docname="setupFormInput.svg"><metadata
     id="metadata101"><rdf:RDF><cc:Work
         rdf:about=""><dc:format>image/svg+xml</dc:format><dc:type
           rdf:resource="http://purl.org/dc/dcmitype/StillImage" /><dc:title></dc:title></cc:Work></rdf:RDF></metadata><defs
     id="defs99" /><sodipodi:namedview
     pagecolor="#ffffff"
     bordercolor="#666666"
     borderopacity="1"
     objecttolerance="10"
     gridtolerance="10"
     guidetolerance="10"
     inkscape:pageopacity="0"
     inkscape:pageshadow="2"
     inkscape:window-width="1536"
     inkscape:window-height="801"
     id="namedview97"
     showgrid="false"
     fit-margin-top="0"
     fit-margin-left="0"
     fit-margin-right="0"
     fit-margin-bottom="0"
     inkscape:zoom="1.668772"
     inkscape:cx="213.269"
     inkscape:cy="167.51791"
     inkscape:window-x="-8"
     inkscape:window-y="-8"
     inkscape:window-maximized="1"
     inkscape:current-layer="Layer_1" /><g
     id="g85"
     transform="matrix(0.96569245,0,0,0.95891164,1.573132,-82.445046)"
     style="fill:#ffffff;fill-opacity:1"><path
       style="color:#000000;font-style:normal;font-variant:normal;font-weight:normal;font-stretch:normal;font-size:medium;line-height:normal;font-family:sans-serif;text-indent:0;text-align:start;text-decoration:none;text-decoration-line:none;text-decoration-style:solid;text-decoration-color:#000000;letter-spacing:normal;word-spacing:normal;text-transform:none;direction:ltr;block-progression:tb;writing-mode:lr-tb;baseline-shift:baseline;text-anchor:start;white-space:normal;clip-rule:nonzero;display:inline;overflow:visible;visibility:visible;opacity:0.98000004;isolation:auto;mix-blend-mode:normal;color-interpolation:sRGB;color-interpolation-filters:linearRGB;solid-color:#000000;solid-opacity:1;fill:#ffffff;fill-opacity:1;fill-rule:nonzero;stroke:none;stroke-width:10;stroke-linecap:butt;stroke-linejoin:round;stroke-miterlimit:4;stroke-dasharray:none;stroke-dashoffset:0;stroke-opacity:1;color-rendering:auto;image-rendering:auto;shape-rendering:auto;text-rendering:auto;enable-background:accumulate"
       d="m 3.7131296,147.47295 a 5.0005,5.0005 0 0 0 -5,5 l 0,48 a 5.0005,5.0005 0 0 0 5,5 l 48.0000004,0 a 5.0005,5.0005 0 0 0 5,-5 l 0,-48 a 5.0005,5.0005 0 0 0 -5,-5 l -48.0000004,0 z m 5,10 38.0000004,0 0,38 -38.0000004,0 0,-38 z"
       id="rect5405"
       inkscape:connector-curvature="0" /><path
       style="color:#000000;font-style:normal;font-variant:normal;font-weight:normal;font-stretch:normal;font-size:medium;line-height:normal;font-family:sans-serif;text-indent:0;text-align:start;text-decoration:none;text-decoration-line:none;text-decoration-style:solid;text-decoration-color:#000000;letter-spacing:normal;word-spacing:normal;text-transform:none;direction:ltr;block-progression:tb;writing-mode:lr-tb;baseline-shift:baseline;text-anchor:start;white-space:normal;clip-rule:nonzero;display:inline;overflow:visible;visibility:visible;opacity:0.98000004;isolation:auto;mix-blend-mode:normal;color-interpolation:sRGB;color-interpolation-filters:linearRGB;solid-color:#000000;solid-opacity:1;fill:#ffffff;fill-opacity:1;fill-rule:nonzero;stroke:none;stroke-width:10;stroke-linecap:butt;stroke-linejoin:round;stroke-miterlimit:4;stroke-dasharray:none;stroke-dashoffset:0;stroke-opacity:1;color-rendering:auto;image-rendering:auto;shape-rendering:auto;text-rendering:auto;enable-background:accumulate"
       d="m 3.7131296,215.5413 a 5.0005,5.0005 0 0 0 -5,5 l 0,48.00001 a 5.0005,5.0005 0 0 0 5,5 l 48.0000004,0 a 5.0005,5.0005 0 0 0 5,-5 l 0,-48.00001 a 5.0005,5.0005 0 0 0 -5,-5 l -48.0000004,0 z m 5,10 38.0000004,0 0,38.00001 -38.0000004,0 0,-38.00001 z"
       id="rect5405-1"
       inkscape:connector-curvature="0" /><path
       style="color:#000000;font-style:normal;font-variant:normal;font-weight:normal;font-stretch:normal;font-size:medium;line-height:normal;font-family:sans-serif;text-indent:0;text-align:start;text-decoration:none;text-decoration-line:none;text-decoration-style:solid;text-decoration-color:#000000;letter-spacing:normal;word-spacing:normal;text-transform:none;direction:ltr;block-progression:tb;writing-mode:lr-tb;baseline-shift:baseline;text-anchor:start;white-space:normal;clip-rule:nonzero;display:inline;overflow:visible;visibility:visible;opacity:1;isolation:auto;mix-blend-mode:normal;color-interpolation:sRGB;color-interpolation-filters:linearRGB;solid-color:#000000;solid-opacity:1;fill:#ffffff;fill-opacity:1;fill-rule:evenodd;stroke:none;stroke-width:8;stroke-linecap:round;stroke-linejoin:miter;stroke-miterlimit:4;stroke-dasharray:none;stroke-dashoffset:0;stroke-opacity:1;color-rendering:auto;image-rendering:auto;shape-rendering:auto;text-rendering:auto;enable-background:accumulate"
       d="m 180.36547,172.40654 -112.71093,0.42383 0.0293,8 112.71092,-0.42383 -0.0293,-8 z"
       id="path5424"
       inkscape:connector-curvature="0" /><path
       style="color:#000000;font-style:normal;font-variant:normal;font-weight:normal;font-stretch:normal;font-size:medium;line-height:normal;font-family:sans-serif;text-indent:0;text-align:start;text-decoration:none;text-decoration-line:none;text-decoration-style:solid;text-decoration-color:#000000;letter-spacing:normal;word-spacing:normal;text-transform:none;direction:ltr;block-progression:tb;writing-mode:lr-tb;baseline-shift:baseline;text-anchor:start;white-space:normal;clip-rule:nonzero;display:inline;overflow:visible;visibility:visible;opacity:1;isolation:auto;mix-blend-mode:normal;color-interpolation:sRGB;color-interpolation-filters:linearRGB;solid-color:#000000;solid-opacity:1;fill:#ffffff;fill-opacity:1;fill-rule:evenodd;stroke:none;stroke-width:8;stroke-linecap:round;stroke-linejoin:miter;stroke-miterlimit:4;stroke-dasharray:none;stroke-dashoffset:0;stroke-opacity:1;color-rendering:auto;image-rendering:auto;shape-rendering:auto;text-rendering:auto;enable-background:accumulate"
       d="m 180.36547,236.40655 -112.71093,0.42383 0.0293,8 112.71092,-0.42383 -0.0293,-8 z"
       id="path5424-5"
       inkscape:connector-curvature="0" /><path
       style="color:#000000;font-style:normal;font-variant:normal;font-weight:normal;font-stretch:normal;font-size:medium;line-height:normal;font-family:sans-serif;text-indent:0;text-align:start;text-decoration:none;text-decoration-line:none;text-decoration-style:solid;text-decoration-color:#000000;letter-spacing:normal;word-spacing:normal;text-transform:none;direction:ltr;block-progression:tb;writing-mode:lr-tb;baseline-shift:baseline;text-anchor:start;white-space:normal;clip-rule:nonzero;display:inline;overflow:visible;visibility:visible;opacity:1;isolation:auto;mix-blend-mode:normal;color-interpolation:sRGB;color-interpolation-filters:linearRGB;solid-color:#000000;solid-opacity:1;fill:#ffffff;fill-opacity:1;fill-rule:evenodd;stroke:none;stroke-width:10;stroke-linecap:butt;stroke-linejoin:miter;stroke-miterlimit:4;stroke-dasharray:none;stroke-dashoffset:0;stroke-opacity:1;color-rendering:auto;image-rendering:auto;shape-rendering:auto;text-rendering:auto;enable-background:accumulate"
       d="m 46.30493,215.07451 -21.3125,40.05274 -18.5253904,-19.53516 -7.25781003,6.88086 28.08593043,29.61719 27.8379,-52.31837 -8.82813,-4.69726 z"
       id="path5443"
       inkscape:connector-curvature="0" /></g><path
     style="color:#000000;font-style:normal;font-variant:normal;font-weight:normal;font-stretch:normal;font-size:medium;line-height:normal;font-family:sans-serif;text-indent:0;text-align:start;text-decoration:none;text-decoration-line:none;text-decoration-style:solid;text-decoration-color:#000000;letter-spacing:normal;word-spacing:normal;text-transform:none;direction:ltr;block-progression:tb;writing-mode:lr-tb;baseline-shift:baseline;text-anchor:start;white-space:normal;clip-rule:nonzero;display:inline;overflow:visible;visibility:visible;opacity:1;isolation:auto;mix-blend-mode:normal;color-interpolation:sRGB;color-interpolation-filters:linearRGB;solid-color:#000000;solid-opacity:1;fill:#ffffff;fill-opacity:1;fill-rule:evenodd;stroke:none;stroke-width:8;stroke-linecap:round;stroke-linejoin:miter;stroke-miterlimit:4;stroke-dasharray:none;stroke-dashoffset:0;stroke-opacity:1;color-rendering:auto;image-rendering:auto;shape-rendering:auto;text-rendering:auto;enable-background:accumulate"
     d="m 175.75079,219.41489 -108.503496,0.4132 0.02821,7.79924 108.503486,-0.41318 -0.0282,-7.79926 z"
     id="path5424-0"
     inkscape:connector-curvature="0" /><path
     style="color:#000000;font-style:normal;font-variant:normal;font-weight:normal;font-stretch:normal;font-size:medium;line-height:normal;font-family:sans-serif;text-indent:0;text-align:start;text-decoration:none;text-decoration-line:none;text-decoration-style:solid;text-decoration-color:#000000;letter-spacing:normal;word-spacing:normal;text-transform:none;direction:ltr;block-progression:tb;writing-mode:lr-tb;baseline-shift:baseline;text-anchor:start;white-space:normal;clip-rule:nonzero;display:inline;overflow:visible;visibility:visible;opacity:1;isolation:auto;mix-blend-mode:normal;color-interpolation:sRGB;color-interpolation-filters:linearRGB;solid-color:#000000;solid-opacity:1;fill:#ffffff;fill-opacity:1;fill-rule:evenodd;stroke:none;stroke-width:8;stroke-linecap:round;stroke-linejoin:miter;stroke-miterlimit:4;stroke-dasharray:none;stroke-dashoffset:0;stroke-opacity:1;color-rendering:auto;image-rendering:auto;shape-rendering:auto;text-rendering:auto;enable-background:accumulate"
     d="m 359.9718,215.51527 -108.5035,0.4132 0.0282,7.79924 108.50349,-0.41319 -0.0282,-7.79925 z"
     id="path5424-5-1"
     inkscape:connector-curvature="0" /><path
     style="color:#000000;font-style:normal;font-variant:normal;font-weight:normal;font-stretch:normal;font-size:medium;line-height:normal;font-family:sans-serif;text-indent:0;text-align:start;text-decoration:none;text-decoration-line:none;text-decoration-style:solid;text-decoration-color:#000000;letter-spacing:normal;word-spacing:normal;text-transform:none;direction:ltr;block-progression:tb;writing-mode:lr-tb;baseline-shift:baseline;text-anchor:start;white-space:normal;clip-rule:nonzero;display:inline;overflow:visible;visibility:visible;opacity:0.98000004;isolation:auto;mix-blend-mode:normal;color-interpolation:sRGB;color-interpolation-filters:linearRGB;solid-color:#000000;solid-opacity:1;fill:#ffffff;fill-opacity:1;fill-rule:nonzero;stroke:none;stroke-width:10;stroke-linecap:round;stroke-linejoin:round;stroke-miterlimit:4;stroke-dasharray:none;stroke-dashoffset:0;stroke-opacity:1;color-rendering:auto;image-rendering:auto;shape-rendering:auto;text-rendering:auto;enable-background:accumulate"
     d="m 28.247856,195.45542 c -15.361363,1e-5 -27.91744508,12.71568 -27.91744508,28.27228 0,15.55662 12.55608208,28.2723 27.91744508,28.2723 15.361362,1e-5 27.917445,-12.71567 27.917445,-28.2723 0,-15.5566 -12.556073,-28.27228 -27.917445,-28.27228 z m 0,9.74906 c 10.158706,0 18.290739,8.2354 18.290739,18.52322 0,10.28784 -8.132033,18.52325 -18.290739,18.52324 -10.158706,0 -18.2907397,-8.23541 -18.2907397,-18.52324 0,-10.28782 8.1320337,-18.52321 18.2907397,-18.52322 z"
     id="path6009"
     inkscape:connector-curvature="0" /><path
     style="color:#000000;font-style:normal;font-variant:normal;font-weight:normal;font-stretch:normal;font-size:medium;line-height:normal;font-family:sans-serif;text-indent:0;text-align:start;text-decoration:none;text-decoration-line:none;text-decoration-style:solid;text-decoration-color:#000000;letter-spacing:normal;word-spacing:normal;text-transform:none;direction:ltr;block-progression:tb;writing-mode:lr-tb;baseline-shift:baseline;text-anchor:start;white-space:normal;clip-rule:nonzero;display:inline;overflow:visible;visibility:visible;opacity:0.98000004;isolation:auto;mix-blend-mode:normal;color-interpolation:sRGB;color-interpolation-filters:linearRGB;solid-color:#000000;solid-opacity:1;fill:#ffffff;fill-opacity:1;fill-rule:nonzero;stroke:none;stroke-width:10;stroke-linecap:round;stroke-linejoin:round;stroke-miterlimit:4;stroke-dasharray:none;stroke-dashoffset:0;stroke-opacity:1;color-rendering:auto;image-rendering:auto;shape-rendering:auto;text-rendering:auto;enable-background:accumulate"
     d="m 212.46886,195.45543 c -15.36136,0 -27.91744,12.71567 -27.91744,28.27228 0,15.5566 12.55608,28.27228 27.91744,28.27229 15.36136,0 27.91745,-12.71568 27.91745,-28.27229 0,-15.55661 -12.55608,-28.27229 -27.91745,-28.27228 z m 0,9.74906 c 10.15871,-1e-5 18.29074,8.23539 18.29074,18.52322 0,10.28782 -8.13203,18.52323 -18.29074,18.52323 -10.1587,-1e-5 -18.29074,-8.23542 -18.29074,-18.52323 0,-10.28783 8.13204,-18.52322 18.29074,-18.52322 z"
     id="path6009-1"
     inkscape:connector-curvature="0" /><path
     inkscape:connector-curvature="0"
     style="opacity:0.98000004;fill:#ffffff;fill-opacity:1;stroke:none;stroke-width:10;stroke-linecap:round;stroke-linejoin:round;stroke-miterlimit:4;stroke-dasharray:none;stroke-opacity:1"
     d="m 35.949672,223.72721 a 7.7013641,7.7992527 0 0 1 -7.701364,7.79925 7.7013641,7.7992527 0 0 1 -7.701364,-7.79925 7.7013641,7.7992527 0 0 1 7.701364,-7.79925 7.7013641,7.7992527 0 0 1 7.701364,7.79925 z"
     id="path6026" /><g
     transform="matrix(0.70336255,0,0,0.70350129,10.916616,-79.640014)"
     style="font-style:normal;font-variant:normal;font-weight:bold;font-stretch:normal;font-size:90px;line-height:125%;font-family:'Ubuntu Mono';-inkscape-font-specification:'Ubuntu Mono Bold';letter-spacing:0px;word-spacing:0px;fill:#ffffff;fill-opacity:1;stroke:none;stroke-width:1px;stroke-linecap:butt;stroke-linejoin:miter;stroke-opacity:1"
     id="flowRoot11395"><g
       transform="matrix(1.6568483,0,0,1.6568483,1220.9783,23.178987)"
       id="text7223"
       style="font-style:normal;font-variant:normal;font-weight:bold;font-stretch:normal;font-size:55.4316864px;line-height:125%;font-family:'Ubuntu Mono';-inkscape-font-specification:'Ubuntu Mono Bold';letter-spacing:0px;word-spacing:0px;fill:#ffffff;fill-opacity:1;stroke:none;stroke-width:1px;stroke-linecap:butt;stroke-linejoin:miter;stroke-opacity:1"><path
         inkscape:connector-curvature="0"
         id="path7236"
         d="m -735.65291,87.262254 q 1.71838,0 2.82702,-0.33259 1.16406,-0.388021 1.82924,-0.99777 0.66518,-0.66518 0.88691,-1.441224 0.27716,-0.831475 0.27716,-1.66295 0,-1.053202 -0.60975,-1.884678 -0.60975,-0.831475 -1.55209,-1.441224 -0.94234,-0.66518 -2.1064,-1.164065 -1.16407,-0.554317 -2.32813,-0.99777 -1.55209,-0.554317 -3.21504,-1.274929 -1.66295,-0.720612 -3.04874,-1.829246 -1.33036,-1.108634 -2.21727,-2.716152 -0.88691,-1.662951 -0.88691,-4.101945 0,-4.822557 3.10418,-7.53871 3.1596,-2.716152 8.64734,-2.716152 3.1596,0 5.48774,0.720612 2.38356,0.720612 3.99108,1.607519 l -1.99554,5.26601 q -1.3858,-0.776044 -3.10418,-1.330361 -1.66295,-0.554317 -3.88022,-0.554317 -5.4323,0 -5.4323,3.93565 0,0.997771 0.55432,1.773814 0.55431,0.720612 1.38579,1.330361 0.8869,0.554317 1.94011,0.99777 1.10863,0.443453 2.16183,0.831475 1.60752,0.609749 3.3259,1.385792 1.77382,0.720612 3.21504,1.995541 1.49666,1.219497 2.439,3.104175 0.94233,1.829245 0.94233,4.656261 0,4.822557 -3.1596,7.483278 -3.10418,2.605289 -9.47882,2.605289 -4.26824,0 -6.8181,-0.886907 -2.54986,-0.942338 -3.82478,-1.718382 l 1.99554,-5.543169 q 1.49665,0.886907 3.54762,1.662951 2.10641,0.776043 5.09972,0.776043 z"
         style="fill:#ffffff;fill-opacity:1" /><path
         inkscape:connector-curvature="0"
         id="path7238"
         d="m -712.87049,71.852246 -5.93119,0 0,-5.654032 5.93119,0 0,-6.540939 6.8181,-1.108634 0,7.649573 10.92004,0 0,5.654032 -10.92004,0 0,10.53202 q 0,1.441224 0.27716,2.328131 0.27716,0.886907 0.77604,1.385792 0.49889,0.498885 1.2195,0.66518 0.72061,0.166295 1.60752,0.166295 0.94234,0 1.71838,-0.05543 0.83148,-0.05543 1.55209,-0.166295 0.77604,-0.166295 1.55209,-0.443454 0.83147,-0.277158 1.77381,-0.720612 l 0.94234,5.875759 q -1.88468,0.776044 -4.10195,1.108634 -2.16183,0.33259 -4.21281,0.33259 -2.38356,0 -4.2128,-0.388022 -1.82925,-0.388022 -3.10418,-1.496656 -1.27493,-1.108633 -1.94011,-3.104174 -0.66518,-2.050972 -0.66518,-5.321442 l 0,-10.698315 z"
         style="fill:#ffffff;fill-opacity:1" /><path
         inkscape:connector-curvature="0"
         id="path7240"
         d="m -679.16802,87.373118 q 1.10863,0 2.16183,0 1.05321,-0.05543 1.82925,-0.166295 l 0,-5.986622 q -0.66518,-0.110864 -1.60752,-0.166295 -0.94234,-0.110864 -1.71838,-0.110864 -1.0532,0 -2.05097,0.166295 -0.99777,0.110864 -1.77382,0.443454 -0.72061,0.33259 -1.16406,0.942338 -0.44346,0.609749 -0.44346,1.607519 0,1.773814 1.33036,2.549858 1.33036,0.720612 3.43677,0.720612 z m -0.60975,-21.840085 q 3.21504,0 5.32144,0.776044 2.16184,0.720612 3.43677,2.106404 1.27492,1.330361 1.82924,3.325901 0.55432,1.940109 0.55432,4.379104 l 0,15.520872 q -1.49666,0.33259 -4.43454,0.776043 -2.93788,0.443454 -6.59637,0.443454 -2.49442,0 -4.5454,-0.443454 -1.99554,-0.443453 -3.43676,-1.441224 -1.44122,-1.053202 -2.21727,-2.66072 -0.77604,-1.662951 -0.77604,-4.046514 0,-2.272699 0.88691,-3.824786 0.8869,-1.552087 2.38356,-2.494426 1.49665,-0.942338 3.43676,-1.33036 1.94011,-0.443454 4.04652,-0.443454 2.66072,0 4.71169,0.443454 l 0,-0.831476 q 0,-1.940109 -1.2195,-3.215037 -1.21949,-1.330361 -4.21281,-1.330361 -1.9401,0 -3.76935,0.277159 -1.77381,0.277158 -2.88245,0.66518 l -0.94234,-5.487737 q 1.27493,-0.443454 3.60306,-0.776044 2.32813,-0.388022 4.82256,-0.388022 z"
         style="fill:#ffffff;fill-opacity:1" /><path
         inkscape:connector-curvature="0"
         id="path7242"
         d="m -657.4388,71.852246 -5.93119,0 0,-5.654032 5.93119,0 0,-6.540939 6.8181,-1.108634 0,7.649573 10.92004,0 0,5.654032 -10.92004,0 0,10.53202 q 0,1.441224 0.27716,2.328131 0.27715,0.886907 0.77604,1.385792 0.49888,0.498885 1.2195,0.66518 0.72061,0.166295 1.60751,0.166295 0.94234,0 1.71839,-0.05543 0.83147,-0.05543 1.55208,-0.166295 0.77605,-0.166295 1.55209,-0.443454 0.83148,-0.277158 1.77382,-0.720612 l 0.94233,5.875759 q -1.88467,0.776044 -4.10194,1.108634 -2.16184,0.33259 -4.21281,0.33259 -2.38356,0 -4.21281,-0.388022 -1.82924,-0.388022 -3.10417,-1.496656 -1.27493,-1.108633 -1.94011,-3.104174 -0.66518,-2.050972 -0.66518,-5.321442 l 0,-10.698315 z"
         style="fill:#ffffff;fill-opacity:1" /><path
         inkscape:connector-curvature="0"
         id="path7244"
         d="m -621.90709,58.714936 q 0,1.995541 -1.27493,3.159606 -1.27493,1.164066 -3.04874,1.164066 -1.77382,0 -3.04874,-1.164066 -1.2195,-1.164065 -1.2195,-3.159606 0,-2.050972 1.2195,-3.215038 1.27492,-1.164065 3.04874,-1.164065 1.77381,0 3.04874,1.164065 1.27493,1.164066 1.27493,3.215038 z m 10.144,32.427537 q -2.10641,0.99777 -3.99108,1.33036 -1.82925,0.388022 -3.38134,0.388022 -2.66072,0 -4.48996,-0.776044 -1.77382,-0.776043 -2.88245,-2.217267 -1.0532,-1.496656 -1.49666,-3.60306 -0.44345,-2.106404 -0.44345,-4.822557 l 0,-9.589681 -7.20612,0 0,-5.654032 14.02422,0 0,16.13062 q 0,2.328131 0.83147,3.492197 0.88691,1.108633 2.88245,1.108633 0.94234,0 2.2727,-0.221726 1.33036,-0.277159 2.99331,-1.053202 l 0.88691,5.487737 z"
         style="fill:#ffffff;fill-opacity:1" /><path
         inkscape:connector-curvature="0"
         id="path7246"
         d="m -607.49484,79.22466 q 0,-2.827016 0.8869,-5.321442 0.88691,-2.494426 2.71616,-4.323671 1.82924,-1.884678 4.60083,-2.93788 2.82701,-1.108634 6.70723,-1.108634 2.32813,0 4.21281,0.332591 1.88468,0.33259 3.82478,1.108633 l -1.49665,5.487737 q -1.10863,-0.388022 -2.49443,-0.66518 -1.33036,-0.33259 -3.43676,-0.33259 -2.439,0 -4.10195,0.609748 -1.60752,0.554317 -2.60529,1.607519 -0.99777,0.997771 -1.44122,2.438995 -0.44345,1.441223 -0.44345,3.104174 0,3.60306 1.99554,5.654032 2.05097,2.050972 6.92896,2.050972 1.60752,0 3.3259,-0.221726 1.77381,-0.221727 3.21504,-0.720612 l 0.99777,5.5986 q -1.44123,0.554317 -3.4922,0.886907 -2.05097,0.388022 -4.82255,0.388022 -3.99109,0 -6.87353,-1.053202 -2.82702,-1.053202 -4.65627,-2.882448 -1.82924,-1.829246 -2.71615,-4.323671 -0.83147,-2.494426 -0.83147,-5.376874 z"
         style="fill:#ffffff;fill-opacity:1" /><path
         inkscape:connector-curvature="0"
         id="path7248"
         d="m -528.17212,57.938892 0,5.654032 -9.03536,0 0,28.658182 -6.87353,0 0,-28.658182 -9.03536,0 0,-5.654032 24.94425,0 z"
         style="fill:#ffffff;fill-opacity:1" /><path
         inkscape:connector-curvature="0"
         id="path7250"
         d="m -525.06793,79.446387 q 0,-3.436765 1.0532,-6.042054 1.0532,-2.605289 2.77158,-4.323672 1.71839,-1.773814 3.93565,-2.660721 2.21727,-0.886907 4.5454,-0.886907 5.7649,0 8.75821,3.436765 2.99331,3.381333 2.99331,9.922272 0,0.66518 -0.0554,1.385792 0,0.720612 -0.0554,1.164065 l -16.90666,0 q 0,2.549858 2.1064,4.046514 2.10641,1.441223 5.43231,1.441223 2.05097,0 3.88022,-0.443453 1.88468,-0.443454 3.1596,-0.886907 l 0.94234,5.820327 q -1.77381,0.609749 -3.76935,0.99777 -1.99554,0.443454 -4.48997,0.443454 -3.3259,0 -5.98662,-0.831475 -2.60529,-0.886907 -4.48997,-2.549858 -1.82924,-1.718382 -2.82701,-4.212808 -0.99777,-2.494426 -0.99777,-5.820327 z m 17.46098,-2.716153 q 0,-1.053202 -0.27716,-1.995541 -0.27716,-0.99777 -0.88691,-1.773814 -0.60975,-0.776043 -1.55209,-1.219497 -0.94233,-0.498885 -2.32813,-0.498885 -1.33036,0 -2.32813,0.443454 -0.94234,0.443453 -1.60752,1.219497 -0.60974,0.776043 -0.99777,1.773814 -0.33259,0.99777 -0.44345,2.050972 l 10.42116,0 z"
         style="fill:#ffffff;fill-opacity:1" /><path
         inkscape:connector-curvature="0"
         id="path7252"
         d="m -484.99082,74.346672 5.32145,-8.148458 6.92896,0 -8.42562,12.527561 q 1.33036,1.607519 2.60529,3.436764 1.27493,1.773814 2.43899,3.60306 1.16407,1.829246 2.10641,3.492196 0.94234,1.662951 1.60752,2.993311 l -7.09526,0 q -1.49666,-2.827016 -2.99331,-5.044283 -1.49666,-2.217268 -2.82702,-3.991082 -1.66295,2.217268 -2.99331,4.323672 -1.33036,2.106404 -2.71615,4.711693 l -6.92896,0 q 0.83147,-1.552087 1.88468,-3.215038 1.10863,-1.718382 2.2727,-3.436764 1.21949,-1.773814 2.49442,-3.492196 1.33036,-1.718383 2.54986,-3.27047 l -9.14623,-12.638424 7.15069,0 5.76489,8.148458 z"
         style="fill:#ffffff;fill-opacity:1" /><path
         inkscape:connector-curvature="0"
         id="path7254"
         d="m -463.42788,71.852246 -5.93119,0 0,-5.654032 5.93119,0 0,-6.540939 6.81809,-1.108634 0,7.649573 10.92005,0 0,5.654032 -10.92005,0 0,10.53202 q 0,1.441224 0.27716,2.328131 0.27716,0.886907 0.77605,1.385792 0.49888,0.498885 1.21949,0.66518 0.72062,0.166295 1.60752,0.166295 0.94234,0 1.71838,-0.05543 0.83148,-0.05543 1.55209,-0.166295 0.77605,-0.166295 1.55209,-0.443454 0.83147,-0.277158 1.77381,-0.720612 l 0.94234,5.875759 q -1.88468,0.776044 -4.10194,1.108634 -2.16184,0.33259 -4.21281,0.33259 -2.38356,0 -4.21281,-0.388022 -1.82925,-0.388022 -3.10417,-1.496656 -1.27493,-1.108633 -1.94011,-3.104174 -0.66518,-2.050972 -0.66518,-5.321442 l 0,-10.698315 z"
         style="fill:#ffffff;fill-opacity:1" /></g><g
       transform="matrix(1.3857922,0,0,1.3857922,-22.720496,-22.246244)"
       style="font-style:normal;font-weight:normal;font-size:40px;line-height:125%;font-family:sans-serif;letter-spacing:0px;word-spacing:0px;fill:#ffffff;fill-opacity:1;stroke:none;stroke-width:1px;stroke-linecap:butt;stroke-linejoin:miter;stroke-opacity:1"
       id="flowRoot7227" /></g><g
     style="fill:#ffffff;fill-opacity:1"
     transform="matrix(0.4772293,0,0,0.47732343,186.12722,11.599554)"
     id="g51"><path
       inkscape:connector-curvature="0"
       style="fill:#ffffff;fill-opacity:1"
       id="path53"
       d="m 347.976,217.70044 -334.960886,0 0,-77.61289 334.960886,0 m -96.66145,-16.33955 -248.685996,0 c -3.28799998,0 -5.953,2.61732 -5.953,5.8465 l 0,98.59998 c 0,3.2282 2.66500002,5.84552 5.953,5.84552 l 361.686996,0 -0.28814,-110.08393 z"
       sodipodi:nodetypes="cccccssssccc" /><path
       inkscape:connector-curvature="0"
       style="fill:#ffffff;fill-opacity:1"
       id="path59"
       d="m 329.69401,208.44687 -52.946,0 c -2.209,0 -4,-1.791 -4,-4 0,-2.209 1.791,-4 4,-4 l 52.946,0 c 2.209,0 4,1.791 4,4 0,2.209 -1.791,4 -4,4 z" /><g
       style="fill:#ffffff;fill-opacity:1"
       id="VGM4vC_2_" /><g
       id="text16716"
       style="font-style:normal;font-weight:normal;font-size:97.16976166px;line-height:125%;font-family:sans-serif;letter-spacing:0px;word-spacing:0px;fill:#ffffff;fill-opacity:1;stroke:none;stroke-width:1px;stroke-linecap:butt;stroke-linejoin:miter;stroke-opacity:1"><path
         inkscape:connector-curvature="0"
         id="path16721"
         style="font-style:normal;font-variant:normal;font-weight:bold;font-stretch:normal;font-family:'Ubuntu Mono';-inkscape-font-specification:'Ubuntu Mono Bold';fill:#ffffff;fill-opacity:1"
         d="m 111.33437,147.28104 0,9.91132 -15.838671,0 0,50.23676 -12.04905,0 0,-50.23676 -15.838671,0 0,-9.91132 43.726392,0 z" /><path
         inkscape:connector-curvature="0"
         id="path16723"
         style="font-style:normal;font-variant:normal;font-weight:bold;font-stretch:normal;font-family:'Ubuntu Mono';-inkscape-font-specification:'Ubuntu Mono Bold';fill:#ffffff;fill-opacity:1"
         d="m 116.77588,184.98291 q 0,-6.02453 1.84622,-10.59151 1.84623,-4.56697 4.85849,-7.57924 3.01226,-3.10943 6.89905,-4.66415 3.88679,-1.55471 7.96792,-1.55471 10.10566,0 15.35283,6.02452 5.24716,5.92736 5.24716,17.39339 0,1.16604 -0.0972,2.42924 0,1.26321 -0.0972,2.04057 l -29.63677,0 q 0,4.46981 3.69245,7.09339 3.69245,2.52642 9.52263,2.52642 3.59529,0 6.80189,-0.77736 3.30377,-0.77736 5.53867,-1.55472 l 1.65189,10.20283 q -3.10943,1.06886 -6.60754,1.74905 -3.49811,0.77736 -7.87075,0.77736 -5.83019,0 -10.49434,-1.45755 -4.56698,-1.55471 -7.87075,-4.46981 -3.2066,-3.01226 -4.95566,-7.3849 -1.74905,-4.37264 -1.74905,-10.20282 z m 30.60847,-4.76132 q 0,-1.84623 -0.48585,-3.49811 -0.48585,-1.74906 -1.55471,-3.10943 -1.06887,-1.36038 -2.72076,-2.13774 -1.65188,-0.87453 -4.08113,-0.87453 -2.33207,0 -4.08113,0.77736 -1.65188,0.77736 -2.81792,2.13774 -1.06887,1.36037 -1.74905,3.10943 -0.58302,1.74905 -0.77736,3.59528 l 18.26791,0 z" /><path
         inkscape:connector-curvature="0"
         id="path16725"
         style="font-style:normal;font-variant:normal;font-weight:bold;font-stretch:normal;font-family:'Ubuntu Mono';-inkscape-font-specification:'Ubuntu Mono Bold';fill:#ffffff;fill-opacity:1"
         d="m 187.02961,176.04329 9.3283,-14.28396 12.14622,0 -14.7698,21.96037 q 2.33207,2.81792 4.56698,6.02453 2.2349,3.10943 4.27547,6.31603 2.04056,3.2066 3.69245,6.1217 1.65188,2.91509 2.81792,5.24716 l -12.43773,0 q -2.62358,-4.95565 -5.24717,-8.84245 -2.62358,-3.88679 -4.95565,-6.99622 -2.9151,3.88679 -5.24717,7.57924 -2.33208,3.69245 -4.76132,8.25943 l -12.14622,0 q 1.45755,-2.72075 3.30377,-5.63584 1.9434,-3.01227 3.98396,-6.02453 2.13774,-3.10943 4.37264,-6.12169 2.33208,-3.01227 4.46981,-5.73302 l -16.03301,-22.15471 12.5349,0 10.10565,14.28396 z" /><path
         inkscape:connector-curvature="0"
         id="path16727"
         style="font-style:normal;font-variant:normal;font-weight:bold;font-stretch:normal;font-family:'Ubuntu Mono';-inkscape-font-specification:'Ubuntu Mono Bold';fill:#ffffff;fill-opacity:1"
         d="m 224.82865,171.67065 -10.39717,0 0,-9.91132 10.39717,0 0,-11.46603 11.95188,-1.94339 0,13.40942 19.14244,0 0,9.91132 -19.14244,0 0,18.46226 q 0,2.52641 0.48585,4.08113 0.48585,1.55471 1.36037,2.42924 0.87453,0.87453 2.13774,1.16604 1.26321,0.29151 2.81792,0.29151 1.65189,0 3.01227,-0.0972 1.45754,-0.0972 2.72075,-0.29151 1.36038,-0.29151 2.72075,-0.77736 1.45755,-0.48585 3.10943,-1.26321 l 1.65189,10.3 q -3.30377,1.36037 -7.19056,1.94339 -3.78962,0.58302 -7.3849,0.58302 -4.1783,0 -7.38491,-0.68019 -3.2066,-0.68019 -5.4415,-2.62358 -2.23491,-1.9434 -3.40094,-5.44151 -1.16604,-3.59528 -1.16604,-9.3283 l 0,-18.75376 z" /></g></g><g
     id="g16658"
     transform="matrix(0.97471433,0,0,0.96337547,3.0996058,-52.573023)"
     style="fill:#ffffff;fill-opacity:1"><g
       transform="matrix(0.48551098,0,0,0.48551098,177.85673,131.81275)"
       id="g16159"
       style="fill:#ffffff;fill-opacity:1"><path
         style="fill:#ffffff;fill-opacity:1"
         inkscape:connector-curvature="0"
         id="path53-7"
         d="m 255.69611,138.98037 0,80.32774 -222.445903,0 -2.9e-4,-80.32774 222.446193,0 M 271.739,121.739 l -248.686,0 c -3.288,0 -5.953,2.665 -5.953,5.953 l 0,100.396 c 0,3.287 2.665,5.952 5.953,5.952 l 248.687,0 0,-112.301 z"
         sodipodi:nodetypes="ccccccssssccc" /><g
         transform="translate(215.85272,-137.27299)"
         style="fill:#ffffff;fill-opacity:1"
         id="VGM4vC_2_-8"><path
           inkscape:connector-curvature="0"
           id="rect15494"
           d="m 61.990699,259.5663 0,112 103.617191,0 c 3.52483,-7.1e-4 6.3821,-2.85798 6.38281,-6.38281 l 0,-99.23242 c 3.7e-4,-3.5256 -2.85721,-6.38406 -6.38281,-6.38477 l -103.617191,0 z m 32.279302,35.66797 54.613279,0.30664 c 3.3455,0.0189 5.36264,3.71217 3.57031,6.53711 l -27.5957,43.51172 c -1.68414,2.65453 -5.56582,2.63036 -7.2168,-0.0449 L 90.623511,301.72257 c -1.75113,-2.84436 0.30634,-6.50528 3.64649,-6.48828 z"
           style="color:#000000;font-style:normal;font-variant:normal;font-weight:normal;font-stretch:normal;font-size:medium;line-height:normal;font-family:sans-serif;text-indent:0;text-align:start;text-decoration:none;text-decoration-line:none;text-decoration-style:solid;text-decoration-color:#000000;letter-spacing:normal;word-spacing:normal;text-transform:none;direction:ltr;block-progression:tb;writing-mode:lr-tb;baseline-shift:baseline;text-anchor:start;white-space:normal;clip-rule:nonzero;display:inline;overflow:visible;visibility:visible;opacity:1;isolation:auto;mix-blend-mode:normal;color-interpolation:sRGB;color-interpolation-filters:linearRGB;solid-color:#000000;solid-opacity:1;fill:#ffffff;fill-opacity:1;fill-rule:nonzero;stroke:none;stroke-width:12.76691246;stroke-linecap:butt;stroke-linejoin:round;stroke-miterlimit:4;stroke-dasharray:none;stroke-dashoffset:0;stroke-opacity:1;color-rendering:auto;image-rendering:auto;shape-rendering:auto;text-rendering:auto;enable-background:accumulate" /></g><path
         sodipodi:nodetypes="cccccccc"
         inkscape:connector-curvature="0"
         id="rect15494-7"
         d="m 329.04758,174.06368 16.767,0.0941 c 1.02711,0.006 1.6464,1.13968 1.09613,2.00697 l -8.47224,13.35868 c -0.51706,0.81497 -1.70878,0.80755 -2.21565,-0.0138 l -8.29476,-13.45401 c -0.53762,-0.87326 0.094,-1.99721 1.11952,-1.99198 z"
         style="color:#000000;font-style:normal;font-variant:normal;font-weight:normal;font-stretch:normal;font-size:medium;line-height:normal;font-family:sans-serif;text-indent:0;text-align:start;text-decoration:none;text-decoration-line:none;text-decoration-style:solid;text-decoration-color:#000000;letter-spacing:normal;word-spacing:normal;text-transform:none;direction:ltr;block-progression:tb;writing-mode:lr-tb;baseline-shift:baseline;text-anchor:start;white-space:normal;clip-rule:nonzero;display:inline;overflow:visible;visibility:visible;opacity:1;isolation:auto;mix-blend-mode:normal;color-interpolation:sRGB;color-interpolation-filters:linearRGB;solid-color:#000000;solid-opacity:1;fill:#ffffff;fill-opacity:1;fill-rule:nonzero;stroke:none;stroke-width:12.76691246;stroke-linecap:butt;stroke-linejoin:round;stroke-miterlimit:4;stroke-dasharray:none;stroke-dashoffset:0;stroke-opacity:1;color-rendering:auto;image-rendering:auto;shape-rendering:auto;text-rendering:auto;enable-background:accumulate" /></g></g></svg>