<?xml version="1.0" encoding="UTF-8" standalone="no"?>
<!-- Generator: Adobe Illustrator 16.0.0, SVG Export Plug-In . SVG Version: 6.00 Build 0)  -->

<svg
   xmlns:dc="http://purl.org/dc/elements/1.1/"
   xmlns:cc="http://creativecommons.org/ns#"
   xmlns:rdf="http://www.w3.org/1999/02/22-rdf-syntax-ns#"
   xmlns:svg="http://www.w3.org/2000/svg"
   xmlns="http://www.w3.org/2000/svg"
   xmlns:sodipodi="http://sodipodi.sourceforge.net/DTD/sodipodi-0.dtd"
   xmlns:inkscape="http://www.inkscape.org/namespaces/inkscape"
   version="1.1"
   id="Layer_1"
   x="0px"
   y="0px"
   width="357.69601"
   height="251.48801"
   viewBox="0 0 357.69601 251.48801"
   enable-background="new 0 0 400 400"
   xml:space="preserve"
   inkscape:version="0.91 r13725"
   sodipodi:docname="showChart.svg"><metadata
     id="metadata195"><rdf:RDF><cc:Work
         rdf:about=""><dc:format>image/svg+xml</dc:format><dc:type
           rdf:resource="http://purl.org/dc/dcmitype/StillImage" /><dc:title></dc:title></cc:Work></rdf:RDF></metadata><defs
     id="defs193" /><sodipodi:namedview
     pagecolor="#ffffff"
     bordercolor="#666666"
     borderopacity="1"
     objecttolerance="10"
     gridtolerance="10"
     guidetolerance="10"
     inkscape:pageopacity="0"
     inkscape:pageshadow="2"
     inkscape:window-width="640"
     inkscape:window-height="480"
     id="namedview191"
     showgrid="false"
     fit-margin-top="0"
     fit-margin-left="0"
     fit-margin-right="0"
     fit-margin-bottom="0"
     inkscape:zoom="0.59"
     inkscape:cx="178.848"
     inkscape:cy="116.265"
     inkscape:window-x="0"
     inkscape:window-y="0"
     inkscape:window-maximized="0"
     inkscape:current-layer="Layer_1" /><path
     d="m 351.196,238.489 -43.762,0 0,-234.617 C 307.434,1.734 305.7,0 303.563,0 l -50.211,0 c -2.139,0 -3.873,1.734 -3.873,3.872 l 0,234.616 -41.654,0 0,-177.31 c 0,-2.138 -1.734,-3.872 -3.873,-3.872 l -50.208,0 c -2.138,0 -3.875,1.734 -3.875,3.872 l 0,177.311 -41.651,0 0,-120.007 c 0,-2.138 -1.735,-3.874 -3.873,-3.874 l -50.21,0 c -2.138,0 -3.871,1.735 -3.871,3.874 l 0,120.006 -43.764,0 c -3.59,0 -6.5,2.91 -6.5,6.5 0,3.59 2.91,6.5 6.5,6.5 l 344.696,0 c 3.59,0 6.5,-2.91 6.5,-6.5 0,-3.59 -2.91,-6.499 -6.5,-6.499 z"
     id="path189"
     style="fill:#ffffff"
     inkscape:connector-curvature="0" /></svg>