<?xml version="1.0" encoding="UTF-8" standalone="no"?>
<svg
   xmlns:dc="http://purl.org/dc/elements/1.1/"
   xmlns:cc="http://creativecommons.org/ns#"
   xmlns:rdf="http://www.w3.org/1999/02/22-rdf-syntax-ns#"
   xmlns:svg="http://www.w3.org/2000/svg"
   xmlns="http://www.w3.org/2000/svg"
   xmlns:sodipodi="http://sodipodi.sourceforge.net/DTD/sodipodi-0.dtd"
   xmlns:inkscape="http://www.inkscape.org/namespaces/inkscape"
   version="1.1"
   x="0px"
   y="0px"
   viewBox="0 0 100 100"
   enable-background="new 0 0 100 100"
   xml:space="preserve"
   id="svg2"
   inkscape:version="0.91 r13725"
   sodipodi:docname="structureEditor.svg"><metadata
     id="metadata16"><rdf:RDF><cc:Work
         rdf:about=""><dc:format>image/svg+xml</dc:format><dc:type
           rdf:resource="http://purl.org/dc/dcmitype/StillImage" /><dc:title></dc:title></cc:Work></rdf:RDF></metadata><defs
     id="defs14" /><sodipodi:namedview
     pagecolor="#ffffff"
     bordercolor="#666666"
     borderopacity="1"
     objecttolerance="10"
     gridtolerance="10"
     guidetolerance="10"
     inkscape:pageopacity="0"
     inkscape:pageshadow="2"
     inkscape:window-width="1027"
     inkscape:window-height="991"
     id="namedview12"
     showgrid="false"
     inkscape:zoom="2.36"
     inkscape:cx="50"
     inkscape:cy="63.845171"
     inkscape:window-x="0"
     inkscape:window-y="0"
     inkscape:window-maximized="0"
     inkscape:current-layer="svg2" /><polygon
     points="75,5 65,5 65,20 5,20 5,30 65,30 65,85 50,85 50,95 90,95 90,85 75,85 75,30 95,30 95,20 75,20 "
     id="polygon4"
     style="fill:#ffffff;fill-opacity:1" /><rect
     x="77.5"
     y="32.5"
     width="10"
     height="10"
     id="rect6"
     style="fill:#ffffff;fill-opacity:1" /><path
     d="M25,40H15l-3.5,8.5l6.3,6.3c0.3,1.3,1,2.4,1.9,3.4l2.1,2.1c0.5,0.5,0.7,1.1,0.7,1.8v0.4c0,1.4-1.1,2.5-2.5,2.5  s-2.5-1.1-2.5-2.5h-5c0,4.1,3.4,7.5,7.5,7.5s7.5-3.4,7.5-7.5v-0.4c0-2-0.8-3.9-2.2-5.3l-2.1-2.1c-0.1-0.1-0.2-0.3-0.3-0.5l5.6-5.6  L25,40z"
     id="path8"
     style="fill:#ffffff;fill-opacity:1" /><rect
     x="17.5"
     y="32.5"
     width="5"
     height="5"
     id="rect10"
     style="fill:#ffffff;fill-opacity:1" /></svg>