<svg xmlns="http://www.w3.org/2000/svg" xmlns:xlink="http://www.w3.org/1999/xlink" version="1.1" x="0px" y="0px" viewBox="0 0 100 125" style="enable-background:new 0 0 100 100;" xml:space="preserve"><style type="text/css">
	.st0{display:none;}
	.st1{display:inline;fill:none;stroke:#EC008C;stroke-width:0.25;stroke-miterlimit:10;}
</style><g><g><path d="M31.6,2.5h-23c-1,0-1.8,0.8-1.8,1.9v1.4c0,0,0,0.1,0,0.1v86.7c0,0,0,0.1,0,0.1v3.2c0,1,0.8,1.9,1.8,1.9h23    c1,0,1.8-0.8,1.8-1.9v-6.9c0-1-0.8-1.9-1.8-1.9H17.5V13.1h14.1c1,0,1.8-0.8,1.8-1.9V4.3C33.4,3.3,32.6,2.5,31.6,2.5z"/><path d="M93.1,7.6C93.1,7.6,93.1,7.5,93.1,7.6l0-3.3c0-1-0.8-1.9-1.8-1.9h-23c-1,0-1.8,0.8-1.8,1.9v6.9c0,1,0.8,1.9,1.8,1.9h14.1    v73.9H68.4c-1,0-1.8,0.8-1.8,1.9v6.9c0,1,0.8,1.9,1.8,1.9h23c1,0,1.8-0.8,1.8-1.9v-1.4c0,0,0-0.1,0-0.1V7.6z"/></g></g><g class="st0"><rect x="2.5" y="2.5" class="st1" width="95" height="95"/></g><text x="0" y="115" fill="#000000" font-size="5px" font-weight="bold" font-family="'Helvetica Neue', Helvetica, Arial-Unicode, Arial, Sans-serif">Created by Kervin Markle</text><text x="0" y="120" fill="#000000" font-size="5px" font-weight="bold" font-family="'Helvetica Neue', Helvetica, Arial-Unicode, Arial, Sans-serif">from the Noun Project</text></svg>