<svg xmlns:dc="http://purl.org/dc/elements/1.1/" xmlns:cc="http://creativecommons.org/ns#" xmlns:rdf="http://www.w3.org/1999/02/22-rdf-syntax-ns#" xmlns:svg="http://www.w3.org/2000/svg" xmlns="http://www.w3.org/2000/svg" xmlns:sodipodi="http://sodipodi.sourceforge.net/DTD/sodipodi-0.dtd" xmlns:inkscape="http://www.inkscape.org/namespaces/inkscape" version="1.1" x="0px" y="0px" viewBox="0 0 100 125"><g transform="translate(0,-952.36218)"><path style="text-indent:0;text-transform:none;direction:ltr;block-progression:tb;baseline-shift:baseline;color:#000000;enable-background:accumulate;" d="m 43.843749,955.36217 c -1.30854,-0.005 -2.54443,1.10114 -2.875,2.15625 l -2.625,9.1875 c -1.84429,0.60599 -3.61316,1.31975 -5.3125,2.1875 l -8.34375,-4.625 c -1.13284,-0.63531 -2.67736,-0.42042 -3.59375,0.5 l -8.65625,8.68749 c -0.90648,0.9121 -1.12038,2.4361 -0.5,3.5625 l 4.625,8.375 c -0.85904,1.6842 -1.58536,3.4548 -2.1875,5.2813 l -9.1874996,2.625 c -1.25395,0.3528 -2.1953701,1.6036 -2.1875001,2.9062 l 0,12.31249 c 0.006,1.2923 0.9435901,2.525 2.1875001,2.875 l 9.1562496,2.5938 c 0.60386,1.8403 1.35422,3.6164 2.21875,5.3125 l -4.625,8.375 c -0.62038,1.1264 -0.40648,2.6504 0.5,3.5625 l 8.65625,8.6875 c 0.91639,0.9204 2.46091,1.1353 3.59375,0.5 l 8.34375,-4.625 c 1.70047,0.8683 3.46689,1.6125 5.3125,2.2187 l 2.625,9.1563 c 0.35006,1.2439 1.58278,2.1819 2.875,2.1875 l 12.3125,0 c 1.29222,-0.01 2.52494,-0.9436 2.875,-2.1875 l 2.625,-9.1563 c 1.84561,-0.6062 3.61203,-1.3504 5.3125,-2.2187 l 8.34375,4.625 c 1.13284,0.6353 2.67736,0.4204 3.59375,-0.5 l 8.65625,-8.6875 c 0.90648,-0.9121 1.12038,-2.4361 0.5,-3.5625 l -4.625,-8.375 c 0.86452,-1.6961 1.6149,-3.4722 2.21875,-5.3125 l 9.15625,-2.5938 c 1.24391,-0.35 2.18185,-1.5827 2.1875,-2.875 l 0,-12.31249 c 0.008,-1.3026 -0.93355,-2.5534 -2.1875,-2.9062 l -9.1875,-2.625 c -0.60214,-1.8265 -1.32847,-3.5971 -2.1875,-5.2813 l 4.625,-8.375 c 0.62038,-1.1264 0.40648,-2.6504 -0.5,-3.5625 l -8.65625,-8.68749 c -0.91639,-0.92042 -2.46091,-1.13531 -3.59375,-0.5 l -8.34375,4.625 c -1.69934,-0.86775 -3.46821,-1.58151 -5.3125,-2.1875 l -2.625,-9.1875 c -0.36132,-1.23251 -1.59062,-2.15448 -2.875,-2.15625 l -12.3125,0 z m 2.25,6 7.8125,0 2.40625,8.46875 c 0.27467,0.995 1.09875,1.81908 2.09375,2.09375 2.52705,0.69618 4.90929,1.69034 7.15625,2.96874 0.88689,0.5104 2.03996,0.5227 2.9375,0.031 l 7.75,-4.31249 5.5,5.49999 -4.3125,7.7188 c -0.5009,0.8922 -0.5009,2.0452 0,2.9375 1.27843,2.2469 2.30382,4.6604 3,7.1875 0.26916,0.9877 1.07889,1.8097 2.0625,2.0937 l 8.5,2.4063 0,7.78119 -8.5,2.4375 c -0.97639,0.2785 -1.78407,1.0862 -2.0625,2.0625 -0.69618,2.5271 -1.72157,4.9406 -3,7.1875 -0.5009,0.8923 -0.5009,2.0453 0,2.9375 l 4.3125,7.75 -5.5,5.4688 -7.75,-4.3125 c -0.89754,-0.4915 -2.05061,-0.4792 -2.9375,0.031 -2.24696,1.2784 -4.6292,2.3038 -7.15625,3 -0.98777,0.2692 -1.80976,1.0789 -2.09375,2.0625 l -2.40625,8.5 -7.8125,0 -2.40625,-8.5 c -0.28399,-0.9836 -1.10598,-1.7933 -2.09375,-2.0625 -2.52704,-0.6962 -4.90929,-1.7216 -7.15625,-3 -0.88689,-0.5104 -2.03996,-0.5227 -2.9375,-0.031 l -7.75,4.3125 -5.5,-5.4688 4.3125,-7.75 c 0.5009,-0.8922 0.5009,-2.0452 0,-2.9375 -1.27844,-2.2469 -2.3038,-4.6604 -3,-7.1875 -0.27843,-0.9763 -1.08611,-1.784 -2.0625,-2.0625 l -8.4999997,-2.4375 0,-7.78119 8.4999997,-2.4063 c 0.98361,-0.284 1.79334,-1.106 2.0625,-2.0937 0.6962,-2.5271 1.72156,-4.9406 3,-7.1875 0.5009,-0.8923 0.5009,-2.0453 0,-2.9375 l -4.3125,-7.7187 5.5,-5.50004 7.75,4.31254 c 0.89754,0.4914 2.05061,0.4791 2.9375,-0.031 2.24696,-1.2785 4.62921,-2.27261 7.15625,-2.96879 0.995,-0.27467 1.81908,-1.09875 2.09375,-2.09375 l 2.40625,-8.4688 z m 3.90625,18.00004 c -12.66702,0 -23,10.333 -23,22.99999 0,12.6669 10.33298,23 23,23 12.66702,0 23,-10.3331 23,-23 0,-12.66699 -10.33298,-22.99999 -23,-22.99999 z m 0,6 c 9.42434,0 17,7.5757 17,16.99999 0,9.4243 -7.57566,17 -17,17 -9.42434,0 -17,-7.5757 -17,-17 0,-9.42429 7.57566,-16.99999 17,-16.99999 z" fill="#000000" fill-opacity="1" stroke="none" marker="none" visibility="visible" display="inline" overflow="visible"/></g><text x="0" y="115" fill="#000000" font-size="5px" font-weight="bold" font-family="'Helvetica Neue', Helvetica, Arial-Unicode, Arial, Sans-serif">Created by il Capitano</text><text x="0" y="120" fill="#000000" font-size="5px" font-weight="bold" font-family="'Helvetica Neue', Helvetica, Arial-Unicode, Arial, Sans-serif">from the Noun Project</text></svg>