<svg xmlns:dc="http://purl.org/dc/elements/1.1/" xmlns:cc="http://creativecommons.org/ns#" xmlns:rdf="http://www.w3.org/1999/02/22-rdf-syntax-ns#" xmlns:svg="http://www.w3.org/2000/svg" xmlns="http://www.w3.org/2000/svg" xmlns:sodipodi="http://sodipodi.sourceforge.net/DTD/sodipodi-0.dtd" xmlns:inkscape="http://www.inkscape.org/namespaces/inkscape" version="1.1" x="0px" y="0px" viewBox="0 0 100 125"><g transform="translate(0,-952.36218)"><path d="m 45.67373,966.2161 c 6.02618,6.02616 6.85243,15.35072 2.497009,22.29599 l 35.686762,35.68681 c 1.562018,1.5621 1.562123,4.0947 -9e-6,5.6568 l -12.727943,12.728 c -1.561978,1.5619 -4.09471,1.5621 -5.656847,0 -1.56202,-1.5621 -1.562016,-4.0948 4e-5,-5.657 l 9.899464,-9.8994 -7.071065,-7.0711 -9.899465,9.8995 c -1.562029,1.562 -4.094711,1.5621 -5.656898,10e-5 -1.562018,-1.5621 -1.561973,-4.0949 5e-6,-5.6569 l 9.899517,-9.8995 -20.130445,-20.13042 c -6.945249,4.35542 -16.269799,3.52912 -22.295995,-2.49698 -6.99588,-6.99597 -6.99589,-18.45999 1.3e-5,-25.45589 6.995917,-6.99592 18.459955,-6.99592 25.455857,-10e-6 z m -5.656849,5.65684 c -3.93873,-3.93872 -10.203486,-3.93864 -14.142153,2e-5 -3.938725,3.93872 -3.938718,10.2034 -4e-6,14.14214 3.938711,3.93875 10.203425,3.9387 14.14214,0 3.938668,-3.93867 3.938739,-10.20343 1.7e-5,-14.14216 z" style="text-indent:0;text-transform:none;direction:ltr;block-progression:tb;baseline-shift:baseline;color:#000000;enable-background:accumulate;" fill="#000000" fill-opacity="1" stroke="none" marker="none" visibility="visible" display="inline" overflow="visible"/></g><text x="0" y="115" fill="#000000" font-size="5px" font-weight="bold" font-family="'Helvetica Neue', Helvetica, Arial-Unicode, Arial, Sans-serif">Created by il Capitano</text><text x="0" y="120" fill="#000000" font-size="5px" font-weight="bold" font-family="'Helvetica Neue', Helvetica, Arial-Unicode, Arial, Sans-serif">from the Noun Project</text></svg>