<svg xmlns:dc="http://purl.org/dc/elements/1.1/" xmlns:cc="http://creativecommons.org/ns#" xmlns:rdf="http://www.w3.org/1999/02/22-rdf-syntax-ns#" xmlns:svg="http://www.w3.org/2000/svg" xmlns="http://www.w3.org/2000/svg" xmlns:sodipodi="http://sodipodi.sourceforge.net/DTD/sodipodi-0.dtd" xmlns:inkscape="http://www.inkscape.org/namespaces/inkscape" version="1.1" x="0px" y="0px" viewBox="0 0 100 125"><g transform="translate(0,-952.3622)"><path style="text-indent:0;text-transform:none;direction:ltr;block-progression:tb;baseline-shift:baseline;color:#000000;enable-background:accumulate;" d="m 68.937502,956.36221 c -1.00542,0.062 -1.63201,0.70501 -1.9375,1.4375 l -1.28125,4.4375 c -0.72787,0.25454 -1.44253,0.54004 -2.125,0.875 l -4,-2.25 c -0.75951,-0.42598 -1.7964,-0.27786 -2.40625,0.34375 l -4.34375,4.34378 c -0.5977,0.6129 -0.73131,1.6283 -0.3125,2.375 l 2.25,4.0625 c -0.3326,0.6806 -0.65361,1.3681 -0.90625,2.0937 l -4.4375,1.2813 c -0.81835,0.2399 -1.43188,1.0535 -1.4375,1.9062 l 0,6.1563 c -0.008,0.8632 0.60914,1.6947 1.4375,1.9375 l 4.4375,1.25 c 0.25266,0.7256 0.57368,1.4132 0.90625,2.0937 l -2.25,4.0625 c -0.41881,0.7467 -0.2852,1.7621 0.3125,2.375 l 4.34375,4.3438 c 0.60985,0.62156 1.64674,0.76966 2.40625,0.3437 l 4,-2.25 c 0.69278,0.3402 1.41662,0.6491 2.15625,0.9063 l 1.25,4.40616 c 0.23143,0.8398 1.06644,1.4728 1.9375,1.4688 l 6.125,0 c 0.87106,0 1.70607,-0.629 1.9375,-1.4688 l 1.25,-4.40616 c 0.73963,-0.2572 1.46346,-0.5661 2.15625,-0.9063 l 4,2.25 c 0.75951,0.42596 1.7964,0.27786 2.40625,-0.3437 l 4.34375,-4.3438 c 0.5977,-0.6129 0.73131,-1.6283 0.3125,-2.375 l -2.25,-4.0625 c 0.33258,-0.6805 0.65359,-1.3681 0.90625,-2.0937 l 4.4375,-1.25 c 0.82836,-0.2428 1.44529,-1.0743 1.4375,-1.9375 l 0,-6.1563 c -0.006,-0.8527 -0.61915,-1.6663 -1.4375,-1.9062 l -4.4375,-1.2813 c -0.25264,-0.7256 -0.57364,-1.4131 -0.90625,-2.0937 l 2.25,-4.0625 c 0.41881,-0.7467 0.2852,-1.7621 -0.3125,-2.375 l -4.34375,-4.34378 c -0.60985,-0.62161 -1.64674,-0.76973 -2.40625,-0.34375 l -4,2.25 c -0.68247,-0.33496 -1.39713,-0.62046 -2.125,-0.875 l -1.28125,-4.4375 c -0.24281,-0.82836 -1.07432,-1.44529 -1.9375,-1.4375 l -6.125,0 z m 1.5,4 3.125,0 1.125,3.87503 c 0.18562,0.6509 0.72407,1.1894 1.375,1.375 1.22168,0.3366 2.37937,0.8176 3.46875,1.4375 0.59192,0.3472 1.36613,0.3595 1.96875,0.031 l 3.53125,-1.9688 2.21875,2.1875 -1.96875,3.5625 c -0.32653,0.5899 -0.32653,1.3477 0,1.9375 0.61973,1.0891 1.13218,2.2471 1.46875,3.4688 0.17632,0.6623 0.71683,1.2151 1.375,1.4062 l 3.875,1.125 0,3.125 -3.875,1.0938 c -0.65817,0.1911 -1.19868,0.7439 -1.375,1.4062 -0.33654,1.2217 -0.84886,2.3793 -1.46875,3.4688 -0.33767,0.5973 -0.33767,1.3714 0,1.9687 l 1.96875,3.5313 -2.1875,2.1875 -3.5625,-1.9687 c -0.60262,-0.3283 -1.37683,-0.3159 -1.96875,0.031 -1.08947,0.6199 -2.2473,1.101 -3.46875,1.4375 -0.65093,0.1856 -1.18938,0.724 -1.375,1.375 l -1.125,3.90616 -3.125,0 -1.125,-3.90616 c -0.18562,-0.651 -0.72407,-1.1894 -1.375,-1.375 -1.22145,-0.3365 -2.37927,-0.8176 -3.46875,-1.4375 -0.59192,-0.3472 -1.36613,-0.3595 -1.96875,-0.031 l -3.5625,1.9687 -2.1875,-2.1875 1.96875,-3.5312 c 0.33767,-0.5973 0.33767,-1.3715 0,-1.9688 -0.61989,-1.0895 -1.13222,-2.2471 -1.46875,-3.4687 -0.17632,-0.6623 -0.71683,-1.2151 -1.375,-1.4063 l -3.875,-1.0937 0,-3.125 3.875,-1.125 c 0.65817,-0.1912 1.19868,-0.744 1.375,-1.4063 0.33655,-1.2216 0.84903,-2.3797 1.46875,-3.4687 0.32653,-0.5899 0.32653,-1.3477 0,-1.9375 l -1.96875,-3.5625 2.21875,-2.1875 3.53125,1.9687 c 0.60262,0.3283 1.37683,0.316 1.96875,-0.031 1.08938,-0.6199 2.24707,-1.1008 3.46875,-1.4375 0.65093,-0.1856 1.18938,-0.724 1.375,-1.375 l 1.125,-3.87503 z m 1.5625,11.00003 c -4.94688,0 -9,4.0531 -9,9 0,4.9468 4.05312,9 9,9 4.94688,0 9,-4.0532 9,-9 0,-4.9469 -4.05312,-9 -9,-9 z m 0,4 c 2.7851,0 5,2.2149 5,5 0,2.7851 -2.2149,5 -5,5 -2.7851,0 -5,-2.2149 -5,-5 0,-2.7851 2.2149,-5 5,-5 z m -43.625,17 c -1.00542,0.062 -1.5925,0.6969 -1.9375,1.4375 l -1.53125,5.4062 c -0.97526,0.3296 -1.90603,0.7345 -2.8125,1.18746 l -4.9375,-2.74996 c -0.75951,-0.426 -1.7964,-0.2778 -2.40625,0.3438 l -5.125,5.12496 c -0.5977,0.6129 -0.73131,1.6283 -0.3125,2.375 l 2.71875,4.9062 c -0.45622,0.9095 -0.85556,1.8649 -1.1875,2.8438 l -5.40625,1.5625 c -0.81835,0.2399 -1.43188,1.0535 -1.4375,1.9062 l 0,7.2813 c -0.008,0.8632 0.60914,1.6947 1.4375,1.9375 l 5.40625,1.5312 c 0.3327,0.9845 0.72914,1.9294 1.1875,2.8438 l -2.71875,4.9062 c -0.41881,0.7467 -0.2852,1.7621 0.3125,2.375 l 5.125,5.125 c 0.60985,0.6216 1.64674,0.7698 2.40625,0.3438 l 4.90625,-2.7188 c 0.91284,0.4575 1.86102,0.824 2.84375,1.1563 l 1.53125,5.4062 c 0.23143,0.8398 1.06644,1.4728 1.9375,1.4688 l 7.25,0 c 0.87106,0 1.70607,-0.629 1.9375,-1.4688 l 1.53125,-5.4062 c 0.98273,-0.3323 1.93091,-0.6988 2.84375,-1.1563 l 4.90625,2.7188 c 0.75951,0.426 1.7964,0.2778 2.40625,-0.3438 l 5.125,-5.125 c 0.5977,-0.6129 0.73131,-1.6283 0.3125,-2.375 l -2.71875,-4.9062 c 0.45836,-0.9144 0.8548,-1.8593 1.1875,-2.8438 l 5.40625,-1.5312 c 0.82836,-0.2428 1.44529,-1.0743 1.4375,-1.9375 l 0,-7.2813 c -0.006,-0.8527 -0.61915,-1.6663 -1.4375,-1.9062 l -5.40625,-1.5625 c -0.33194,-0.9789 -0.73128,-1.9343 -1.1875,-2.8438 l 2.71875,-4.9062 c 0.41881,-0.7467 0.2852,-1.7621 -0.3125,-2.375 l -5.125,-5.12496 c -0.60985,-0.6216 -1.64674,-0.7698 -2.40625,-0.3438 l -4.9375,2.74996 c -0.90647,-0.45296 -1.83724,-0.85786 -2.8125,-1.18746 l -1.53125,-5.4062 c -0.24281,-0.8284 -1.07432,-1.4453 -1.9375,-1.4375 l -7.25,0 z m 1.5,4 4.25,0 1.375,4.84366 c 0.19116,0.6582 0.74395,1.1987 1.40625,1.375 1.47419,0.4061 2.87522,1.0034 4.1875,1.75 0.59729,0.3377 1.37146,0.3377 1.96875,0 l 4.40625,-2.4687 3,3 -2.46875,4.4375 c -0.32825,0.6026 -0.31593,1.3768 0.0312,1.9687 0.74663,1.3123 1.31261,2.7133 1.71875,4.1875 0.19116,0.6582 0.74395,1.1987 1.40625,1.375 l 4.8438,1.4063 0,4.2187 -4.84375,1.4063 c -0.66956,0.1818 -1.22447,0.7367 -1.40625,1.4062 -0.40614,1.4742 -0.97212,2.844 -1.71875,4.1563 -0.3472,0.5919 -0.35954,1.3661 -0.0312,1.9687 l 2.46875,4.4375 -3,3 -4.4063,-2.4687 c -0.59729,-0.3377 -1.37146,-0.3377 -1.96875,0 -1.31228,0.7466 -2.71331,1.3439 -4.1875,1.75 -0.6623,0.1763 -1.21509,0.7168 -1.40625,1.375 l -1.375,4.875 -4.25,0 -1.375,-4.875 c -0.19116,-0.6582 -0.74395,-1.1987 -1.40625,-1.375 -1.4742,-0.4061 -2.8752,-1.0034 -4.1875,-1.75 -0.59729,-0.3377 -1.37146,-0.3377 -1.96875,0 l -4.40625,2.4687 -3,-3 2.46875,-4.4375 c 0.32825,-0.6026 0.31593,-1.3768 -0.0312,-1.9687 -0.74663,-1.3123 -1.31261,-2.6821 -1.71875,-4.1563 -0.18178,-0.6695 -0.73669,-1.2244 -1.40625,-1.4062 l -4.8438,-1.4063 0,-4.2187 4.84375,-1.4063 c 0.6623,-0.1763 1.21509,-0.7168 1.40625,-1.375 0.40614,-1.4742 0.97212,-2.8752 1.71875,-4.1875 0.3472,-0.5919 0.35954,-1.3661 0.0312,-1.9687 l -2.46875,-4.4375 3,-3 4.40625,2.4687 c 0.59729,0.3377 1.37146,0.3377 1.96875,0 1.31229,-0.7466 2.7133,-1.3439 4.1875,-1.75 0.6623,-0.1763 1.21509,-0.7168 1.40625,-1.375 l 1.37505,-4.84366 z m 2.125,12.99996 c -6.05145,0 -11,4.9486 -11,11 0,6.0514 4.94855,11 11,11 6.05145,0 11,-4.9486 11,-11 0,-6.0514 -4.94855,-11 -11,-11 z m 0,4 c 3.88967,0 7,3.1103 7,7 0,3.8896 -3.11033,7 -7,7 -3.88967,0 -7,-3.1104 -7,-7 0,-3.8897 3.11033,-7 7,-7 z" fill="#000000" fill-opacity="1" stroke="none" marker="none" visibility="visible" display="inline" overflow="visible"/></g><text x="0" y="115" fill="#000000" font-size="5px" font-weight="bold" font-family="'Helvetica Neue', Helvetica, Arial-Unicode, Arial, Sans-serif">Created by il Capitano</text><text x="0" y="120" fill="#000000" font-size="5px" font-weight="bold" font-family="'Helvetica Neue', Helvetica, Arial-Unicode, Arial, Sans-serif">from the Noun Project</text></svg>