<?xml version="1.0" encoding="iso-8859-1"?>
<svg version="1.1" id="Layer_1" xmlns="http://www.w3.org/2000/svg" xmlns:xlink="http://www.w3.org/1999/xlink" x="0px" y="0px"
	 viewBox="0 0 512 512" style="enable-background:new 0 0 512 512;" xml:space="preserve">
<g>
	<g>
		<path d="M382.047,145.031l126.828-126.82c1.938-1.93,3.125-4.602,3.125-7.547C512,4.773,507.219,0,501.328,0
			c-2.938,0-5.609,1.195-7.531,3.125L360.75,136.164c-32.781-12.188-68.031-18.828-104.75-18.828
			C150.562,117.336,57.219,172.023,0,256c32.891,48.281,77.734,86.875,129.938,110.969L3.125,493.797
			C1.188,495.719,0,498.391,0,501.328C0,507.234,4.781,512,10.656,512c2.953,0,5.625-1.203,7.562-3.125L151.25,375.828
			c32.781,12.188,68.031,18.844,104.75,18.844c105.438,0,198.781-54.688,256-138.672
			C479.109,207.719,434.266,169.125,382.047,145.031z M344.016,152.898l-1.984,1.992c-1.219-1.305-2.453-2.578-3.719-3.828
			C340.219,151.648,342.125,152.266,344.016,152.898z M352,234.664c0,25.648-9.984,49.758-28.125,67.883
			c-18.125,18.125-42.234,28.125-67.875,28.125c-16.812,0-32.969-4.297-47.219-12.375L339.64,187.453
			C347.703,201.695,352,217.852,352,234.664z M256,138.664c25.641,0,49.75,9.992,67.875,28.117c1.047,1.047,2.062,2.117,3.062,3.203
			L191.312,305.609c-1.078-1-2.156-2.016-3.188-3.062C169.984,284.422,160,260.312,160,234.664c0-25.641,9.984-49.75,28.125-67.883
			C206.25,148.656,230.359,138.664,256,138.664z M146.11,350.798c-8.798-3.751-17.438-7.97-25.86-12.642
			c-20.219-11.172-39.219-24.891-56.516-40.766C50.078,284.828,37.5,270.953,26.234,256c11.266-14.961,23.844-28.836,37.5-41.383
			c17.297-15.875,36.297-29.594,56.516-40.773c17.062-9.445,34.984-17.078,53.438-22.781
			c-21.609,21.281-35.016,50.875-35.016,83.602c0,33.992,14.453,64.602,37.547,86.039L146.11,350.798z M448.266,297.391
			c-17.297,15.875-36.297,29.594-56.516,40.766c-20.516,11.359-42.312,20.109-64.734,26.016
			c-23.094,6.078-46.984,9.156-71.016,9.156s-47.922-3.078-71.016-9.156c-5.719-1.5-11.391-3.188-17.016-5.062l25.281-25.281
			C211.406,345.328,232.922,352,256,352c64.797,0,117.328-52.531,117.328-117.336c0-23.07-6.672-44.586-18.172-62.734l10.734-10.734
			c8.812,3.766,17.438,7.984,25.859,12.648c20.219,11.18,39.219,24.898,56.516,40.773c13.656,12.547,26.234,26.422,37.5,41.383
			C474.5,270.953,461.922,284.828,448.266,297.391z"/>
	</g>
</g>
<g>
	<g>
		<path d="M256,160c-41.234,0-74.672,33.43-74.672,74.664c0,5.891,4.781,10.664,10.672,10.664s10.672-4.773,10.672-10.664
			c0-29.406,23.922-53.328,53.328-53.328c5.891,0,10.672-4.781,10.672-10.672S261.891,160,256,160z"/>
	</g>
</g>
</svg>
