<?xml version="1.0" encoding="iso-8859-1"?>
<svg version="1.1" id="Layer_1" xmlns="http://www.w3.org/2000/svg" xmlns:xlink="http://www.w3.org/1999/xlink" x="0px" y="0px"
	 viewBox="0 0 512 512" style="enable-background:new 0 0 512 512;" xml:space="preserve">
<g>
	<g>
		<path d="M256,117.332c-105.445,0-198.789,54.688-256,138.664c57.211,83.984,150.555,138.672,256,138.672
			c105.453,0,198.797-54.688,256-138.672C454.797,172.02,361.453,117.332,256,117.332z M256,138.66
			c25.641,0,49.75,9.992,67.875,28.117C342.016,184.91,352,209.02,352,234.66c0,25.648-9.984,49.758-28.125,67.883
			c-18.125,18.125-42.234,28.125-67.875,28.125s-49.75-10-67.891-28.125C169.984,284.418,160,260.309,160,234.66
			c0-25.64,9.984-49.75,28.109-67.883C206.25,148.652,230.359,138.66,256,138.66z M448.266,297.387
			c-17.281,15.875-36.297,29.594-56.5,40.766c-20.531,11.359-42.312,20.109-64.75,26.016c-23.094,6.078-46.984,9.156-71.016,9.156
			s-47.922-3.078-71.016-9.156c-22.438-5.906-44.211-14.656-64.742-26.016c-20.211-11.172-39.219-24.891-56.508-40.766
			c-13.656-12.562-26.227-26.438-37.5-41.391c11.273-14.961,23.844-28.836,37.5-41.383c17.289-15.875,36.297-29.594,56.508-40.773
			c17.062-9.445,34.992-17.086,53.445-22.781c-21.609,21.281-35.023,50.875-35.023,83.602c0,64.805,52.539,117.336,117.336,117.336
			s117.328-52.531,117.328-117.336c0-32.727-13.406-62.32-35.016-83.602c18.453,5.695,36.391,13.336,53.453,22.781
			c20.203,11.18,39.219,24.898,56.5,40.773c13.656,12.547,26.234,26.422,37.5,41.383C474.5,270.949,461.922,284.824,448.266,297.387
			z"/>
	</g>
</g>
<g>
	<g>
		<path d="M256,159.996c-41.234,0-74.672,33.43-74.672,74.664c0,5.891,4.781,10.664,10.672,10.664s10.672-4.773,10.672-10.664
			c0-29.406,23.922-53.328,53.328-53.328c5.891,0,10.672-4.781,10.672-10.672S261.891,159.996,256,159.996z"/>
	</g>
</g>
</svg>
