<svg xmlns="http://www.w3.org/2000/svg" xmlns:xlink="http://www.w3.org/1999/xlink" version="1.1" x="0px" y="0px" viewBox="0 0 100 125" enable-background="new 0 0 100 100" xml:space="preserve"><path d="M88.78,26.6L73.4,11.22c-1.125-1.126-3.117-1.126-4.242,0L57.978,22.401c-1.172,1.171-1.172,3.071,0,4.242l15.379,15.379  c0.586,0.586,1.354,0.879,2.121,0.879s1.535-0.293,2.121-0.878L88.78,30.842c0.563-0.563,0.879-1.326,0.879-2.122  C89.659,27.925,89.343,27.162,88.78,26.6z M75.478,35.659L64.341,24.522l6.938-6.939l11.137,11.137L75.478,35.659z M55.723,28.897  c-1.125-1.126-3.117-1.126-4.242,0L15.109,65.27c-0.418,0.417-0.703,0.949-0.819,1.527L10.4,86.065  c-0.199,0.985,0.108,2.004,0.819,2.715c0.568,0.568,1.333,0.879,2.121,0.879c0.197,0,0.396-0.02,0.594-0.059l19.269-3.889  c0.578-0.117,1.11-0.402,1.527-0.82L71.103,48.52c1.172-1.171,1.172-3.071,0-4.242L55.723,28.897z M31.128,80.009l-13.952,2.816  l2.816-13.953l4.751-4.751L35.88,75.257L31.128,80.009z M40.123,71.014L28.986,59.878l24.615-24.617l11.138,11.137L40.123,71.014z"/><text x="0" y="115" fill="#000000" font-size="5px" font-weight="bold" font-family="'Helvetica Neue', Helvetica, Arial-Unicode, Arial, Sans-serif">Created by Thengakola</text><text x="0" y="120" fill="#000000" font-size="5px" font-weight="bold" font-family="'Helvetica Neue', Helvetica, Arial-Unicode, Arial, Sans-serif">from the Noun Project</text></svg>