<svg xmlns:dc="http://purl.org/dc/elements/1.1/" xmlns:cc="http://creativecommons.org/ns#" xmlns:rdf="http://www.w3.org/1999/02/22-rdf-syntax-ns#" xmlns:svg="http://www.w3.org/2000/svg" xmlns="http://www.w3.org/2000/svg" xmlns:sodipodi="http://sodipodi.sourceforge.net/DTD/sodipodi-0.dtd" xmlns:inkscape="http://www.inkscape.org/namespaces/inkscape" version="1.1" x="0px" y="0px" viewBox="0 0 1110.5699 1388.506125" enable-background="new 0 0 2000 2000" xml:space="preserve"><path style="" d="M 555.45244,0 C 407.0744,0 267.607,57.725 162.761,162.618 57.868,267.511 0,407.022 0,555.40099 c 0,148.378 57.731,287.889 162.669,392.78 104.799,104.89301 244.3094,162.62401 392.68744,162.62401 148.389,-0.02 287.819,-57.801 392.78,-162.72001 216.57796,-216.528 216.57796,-568.88999 0,-785.46699 C 843.33944,57.772 703.78344,0 555.45244,0 Z m -0.1,94.326 0.1,0 c 123.192,0 238.976,47.966 325.993,134.983 179.74296,179.79 179.74296,472.30099 0,652.08899 -87.158,87.111 -203.04,135.07501 -326.185,135.07501 -123.14604,0 -238.93004,-47.91901 -325.99444,-134.98301 -87.017,-87.064 -135.03,-202.897 -135.03,-326.089 C 94.236,432.20799 142.198,316.42 229.357,229.309 316.4214,142.292 432.2124,94.326 555.35644,94.326 Z m 2.218,197.523 c -36.457,0 -68.43504,7.499 -95.79204,22.497 -27.354,14.999 -48.156,33.865 -62.447,56.693 -14.289,22.828 -21.457,45.37 -21.457,67.58399 0,10.753 4.432,20.753 13.44,29.996 9.007,9.245 20.096,13.865 33.161,13.865 22.214,0 37.303,-13.204 45.321,-39.664 8.348,-25.27999 18.678,-44.42899 30.84504,-57.39799 12.169,-12.969 31.129,-19.478 56.833,-19.478 22.026,0 39.996,6.46 53.908,19.29 13.915,12.875 20.896,28.674 20.896,47.39699 0,9.575 -2.265,18.488 -6.887,26.649 -4.481,8.205 -10.094,15.611 -16.839,22.308 -6.65,6.65 -17.45,16.556 -32.447,29.667 -17.027,14.952 -30.657,27.876 -40.702,38.772 -10.047,10.894 -18.157,23.485 -24.242,37.917 -6.084,14.432 -9.106,31.408 -9.106,51.077 0,15.705 4.152,27.497 12.453,35.469 8.253,7.971 18.58,11.932 30.749,11.932 23.393,0 37.308,-12.171 41.742,-36.507 2.595,-11.461 4.53,-19.476 5.803,-24.052 1.273,-4.575 3.111,-9.149 5.423,-13.724 2.31,-4.575 5.942,-9.576 10.706,-15.095 4.764,-5.517 11.224,-11.883 19.149,-19.145 28.768,-25.752 48.768,-44.052 59.9,-54.946 11.035,-10.849 20.607,-23.773 28.719,-38.772 8.113,-14.95 12.075,-32.401 12.075,-52.305 0,-25.23199 -6.978,-48.62499 -21.175,-70.17999 -14.15,-21.553 -34.244,-38.58 -60.229,-51.079 -25.894,-12.498 -55.888,-18.768 -89.8,-18.768 z m -8.347,426.50499 c -15.046,0 -27.641,4.997 -37.97,15.091 -10.328,10.092 -15.46804,22.452 -15.46804,37.213 0,16.651 5.32904,29.573 16.03504,38.818 10.611,9.243 23.112,13.865 37.403,13.865 13.724,0 25.94,-4.718 36.458,-14.058 10.518,-9.337 15.75,-22.212 15.75,-38.625 0,-14.761 -4.952,-27.168 -14.999,-37.213 -10.139,-10.094 -22.447,-15.091 -37.209,-15.091 z" fill="#000000"/><text x="0" y="1125.8049" fill="#000000" font-size="5px" font-weight="bold" font-family="'Helvetica Neue', Helvetica, Arial-Unicode, Arial, Sans-serif">Created by logan</text><text x="0" y="1130.8049" fill="#000000" font-size="5px" font-weight="bold" font-family="'Helvetica Neue', Helvetica, Arial-Unicode, Arial, Sans-serif">from the Noun Project</text></svg>