<svg xmlns="http://www.w3.org/2000/svg" xmlns:xlink="http://www.w3.org/1999/xlink" version="1.1" x="0px" y="0px" viewBox="0 0 24 30" enable-background="new 0 0 24 24" xml:space="preserve"><g><path d="M10.805,17.322c-0.027,0-0.056-0.001-0.084-0.002c0.305,0.536,0.876,0.817,1.516,0.817c1.156,0,2.53-0.921,2.932-2.906   l-0.658-0.658C12.444,14.729,12.879,17.322,10.805,17.322z"/><polygon points="17.008,13.471 16.273,12.736 14.87,14.222 15.522,14.874  "/><path d="M21.043,10.779l-5.132,4.838c-0.556,2.285-2.284,3.327-3.675,3.327c-1.025,0-1.88-0.479-2.23-1.251   c-0.077-0.171-0.25-0.709-0.25-0.709l-0.115-0.36l0.376-0.035c0,0,0.766-0.074,0.788-0.074c0.549,0,0.75-0.247,1.181-0.957   c0.401-0.657,0.946-1.549,2.172-1.757l4.178-4.422c-0.544-0.201-1.104-0.38-1.687-0.516c-1.027-0.24-2.055-0.352-3.061-0.352   c-7.563,0-13.856,6.311-9.013,11.893c1.366,1.575,5.145,3.215,8.218,3.215c0.976,0,1.88-0.165,2.613-0.551   c0.479-0.253,0.497-0.879,0.063-1.482c-0.546-0.761-1.466-1.459-0.951-2.247c0.175-0.269,0.482-0.357,0.879-0.357   c0.795,0,1.947,0.358,3.118,0.358c0.012,0,0.023,0,0.035,0c1.902-0.012,4.119-0.811,4.815-3.224   C23.983,13.972,22.916,12.125,21.043,10.779z M4.957,13.887c0-0.567,0.652-1.028,1.456-1.028s1.456,0.461,1.456,1.028   s-0.652,1.027-1.456,1.027S4.957,14.454,4.957,13.887z M6.389,18.684c-1.027,0-1.861-0.587-1.861-1.313   c0-0.726,0.834-1.313,1.861-1.313c1.029,0,1.862,0.588,1.862,1.313C8.251,18.097,7.418,18.684,6.389,18.684z M7.48,11.606   c0-0.46,0.528-0.832,1.18-0.832s1.181,0.372,1.181,0.832c0,0.461-0.529,0.834-1.181,0.834S7.48,12.067,7.48,11.606z M10.457,10.234   c0-0.369,0.424-0.668,0.945-0.668c0.524,0,0.948,0.299,0.948,0.668c0,0.37-0.424,0.669-0.948,0.669   C10.881,10.903,10.457,10.604,10.457,10.234z"/><path d="M23.771,5.973c-0.152-0.153-0.353-0.229-0.553-0.229s-0.399,0.076-0.553,0.229l-6.047,6.398l0.755,0.754l6.397-6.046   C24.076,6.773,24.077,6.278,23.771,5.973z"/><path d="M21.334,2.825v3.412l0.965-1.021l0.006-0.005l0.005-0.005c0.141-0.142,0.313-0.233,0.497-0.296V1.354   c0-0.537-0.437-0.973-0.973-0.973H5.862c-0.537,0-0.973,0.436-0.973,0.973v0.499h15.472C20.898,1.853,21.334,2.288,21.334,2.825z"/><path d="M18.891,5.27v3.533l1.471-1.557V3.798c0-0.537-0.435-0.973-0.972-0.973H3.418c-0.538,0-0.974,0.436-0.974,0.973v0.498   h15.473C18.455,4.296,18.891,4.732,18.891,5.27z"/><path d="M2.204,13.439c1.677-3.671,6.357-6.234,11.384-6.234c1.133,0,2.263,0.13,3.358,0.386c0.323,0.075,0.647,0.167,0.971,0.265   V6.242c0-0.537-0.435-0.973-0.973-0.973H0.973C0.436,5.27,0,5.705,0,6.242v10.085C0,16.864,0.436,17.3,0.973,17.3h0.676   C1.448,16.018,1.624,14.712,2.204,13.439z"/></g><text x="0" y="39" fill="#000000" font-size="5px" font-weight="bold" font-family="'Helvetica Neue', Helvetica, Arial-Unicode, Arial, Sans-serif">Created by Rflor</text><text x="0" y="44" fill="#000000" font-size="5px" font-weight="bold" font-family="'Helvetica Neue', Helvetica, Arial-Unicode, Arial, Sans-serif">from the Noun Project</text></svg>