<?xml version="1.0" encoding="iso-8859-1"?>
<!-- Generator: Adobe Illustrator 19.0.0, SVG Export Plug-In . SVG Version: 6.00 Build 0)  -->
<svg version="1.1" id="Layer_1" xmlns="http://www.w3.org/2000/svg" xmlns:xlink="http://www.w3.org/1999/xlink" x="0px" y="0px"
	 viewBox="0 0 295.239 295.239" style="enable-background:new 0 0 295.239 295.239;" xml:space="preserve">
<g>
	<g>
		<g>
			<path d="M69.631,44.657c1.975-2.943,2.346-6.662,0.989-9.933c-1.357-3.276-4.243-5.643-7.729-6.324
				c-0.414-0.081-0.733-0.4-0.814-0.824c-0.686-3.476-3.052-6.362-6.324-7.719c-3.281-1.357-6.99-0.99-9.933,0.99
				c-0.352,0.243-0.81,0.243-1.162,0c-2.938-1.976-6.652-2.338-9.933-0.99c-3.276,1.357-5.643,4.243-6.324,7.729
				c-0.081,0.414-0.4,0.733-0.824,0.814c-3.476,0.681-6.362,3.048-7.719,6.324s-0.986,6.99,0.99,9.933
				c0.238,0.352,0.238,0.81,0,1.162c-1.976,2.943-2.348,6.657-0.99,9.933c1.357,3.276,4.243,5.643,7.729,6.324
				c0.414,0.081,0.733,0.4,0.814,0.824c0.686,3.476,3.052,6.362,6.324,7.719c3.281,1.352,6.986,0.99,9.933-0.99
				c0.352-0.238,0.81-0.243,1.162,0c1.771,1.19,3.824,1.8,5.886,1.8c1.367,0,2.738-0.271,4.048-0.81
				c3.276-1.357,5.643-4.243,6.324-7.729c0.081-0.414,0.4-0.733,0.824-0.814c3.476-0.686,6.362-3.052,7.719-6.324
				c1.357-3.272,0.986-6.99-0.99-9.933C69.393,45.467,69.393,45.009,69.631,44.657z M61.725,51.129
				c0.257,0.381,0.195,0.743,0.1,0.976c-0.1,0.238-0.305,0.533-0.752,0.624c-4.243,0.824-7.514,4.095-8.338,8.329
				c-0.09,0.457-0.386,0.667-0.624,0.762c-0.233,0.1-0.595,0.162-0.976-0.1c-1.79-1.205-3.843-1.805-5.89-1.805
				c-2.048,0-4.1,0.6-5.89,1.805c-0.386,0.267-0.738,0.195-0.976,0.1c-0.238-0.095-0.533-0.305-0.624-0.752
				c-0.824-4.243-4.095-7.514-8.329-8.338c-0.457-0.09-0.667-0.386-0.762-0.624c-0.1-0.233-0.157-0.595,0.1-0.976
				c2.405-3.581,2.405-8.205,0-11.786c-0.257-0.381-0.195-0.743-0.1-0.976c0.1-0.238,0.305-0.533,0.752-0.624
				c4.243-0.824,7.514-4.095,8.338-8.329c0.09-0.457,0.386-0.667,0.624-0.762c0.233-0.095,0.59-0.157,0.976,0.1
				c3.581,2.41,8.205,2.41,11.786,0c0.386-0.257,0.748-0.19,0.976-0.1c0.238,0.1,0.533,0.305,0.624,0.752
				c0.824,4.243,4.095,7.514,8.329,8.338c0.457,0.09,0.667,0.386,0.762,0.624c0.1,0.233,0.157,0.595-0.1,0.976
				C59.32,42.929,59.32,47.548,61.725,51.129z"/>
			<path d="M274.392,250.581c-0.239-0.352-0.239-0.81-0.001-1.162c1.976-2.943,2.348-6.657,0.99-9.933
				c-1.357-3.276-4.243-5.643-7.729-6.324c-0.414-0.081-0.733-0.4-0.814-0.824c-0.686-3.476-3.052-6.362-6.324-7.719
				c-3.276-1.357-6.99-0.99-9.933,0.99c-0.348,0.238-0.805,0.248-1.162,0c-2.943-1.976-6.648-2.343-9.933-0.99
				c-3.276,1.357-5.643,4.243-6.324,7.729c-0.081,0.414-0.4,0.733-0.824,0.814c-3.476,0.686-6.362,3.052-7.719,6.324
				c-1.357,3.271-0.986,6.99,0.99,9.933c0.238,0.352,0.238,0.81,0,1.162c-1.976,2.943-2.348,6.657-0.99,9.933
				c1.357,3.276,4.243,5.643,7.729,6.324c0.414,0.081,0.733,0.4,0.814,0.824c0.686,3.476,3.052,6.362,6.324,7.719
				c3.276,1.352,6.99,0.986,9.933-0.99c0.348-0.238,0.805-0.248,1.162,0c1.771,1.19,3.824,1.8,5.886,1.8
				c1.367,0,2.738-0.271,4.048-0.81c3.276-1.357,5.643-4.243,6.324-7.729c0.081-0.414,0.4-0.733,0.824-0.814
				c3.476-0.686,6.362-3.052,7.719-6.324C276.739,257.242,276.367,253.524,274.392,250.581z M266.487,255.89
				c0.257,0.381,0.195,0.743,0.1,0.976c-0.1,0.238-0.305,0.533-0.752,0.624c-4.243,0.824-7.514,4.095-8.338,8.329
				c-0.09,0.457-0.386,0.667-0.624,0.762c-0.238,0.095-0.59,0.162-0.976-0.1c-1.79-1.205-3.843-1.805-5.89-1.805
				s-4.1,0.6-5.89,1.805c-0.381,0.262-0.743,0.2-0.976,0.1c-0.238-0.1-0.533-0.305-0.624-0.752
				c-0.824-4.243-4.095-7.514-8.329-8.338c-0.457-0.09-0.667-0.386-0.762-0.624c-0.1-0.233-0.157-0.595,0.1-0.976
				c2.405-3.581,2.405-8.205,0-11.786c-0.257-0.381-0.195-0.743-0.1-0.976c0.1-0.238,0.305-0.533,0.752-0.624
				c4.243-0.824,7.514-4.095,8.338-8.329c0.09-0.457,0.386-0.667,0.624-0.762c0.233-0.1,0.59-0.162,0.976,0.1
				c3.581,2.41,8.205,2.41,11.786,0c0.386-0.262,0.743-0.19,0.976-0.1c0.238,0.1,0.533,0.305,0.624,0.752
				c0.824,4.243,4.095,7.514,8.329,8.338c0.457,0.09,0.667,0.386,0.762,0.624c0.1,0.233,0.157,0.595-0.1,0.976
				C264.081,247.69,264.081,252.31,266.487,255.89z"/>
			<path d="M250.001,204.762c-4.314,0-8.61,0.633-12.81,1.886l-59.024-59.029l59.029-59.029c8.857,2.633,18.176,2.486,27.143-0.452
				c13.462-4.424,24.143-15.105,28.567-28.571c3.271-9.952,3.081-20.357-0.533-30.086l-2.586-6.952l-31.652,31.652
				c-1.862,1.862-4.871,1.862-6.733,0l-10.343-10.343c-1.857-1.857-1.857-4.876,0-6.733l31.652-31.653l-6.952-2.586
				c-9.733-3.619-20.133-3.805-30.09-0.533c-13.462,4.424-24.143,15.105-28.567,28.571c-2.938,8.957-3.086,18.276-0.452,27.138
				l-59.029,59.029l-59.03-59.023c1.252-4.2,1.886-8.495,1.886-12.81C90.477,20.295,70.182,0,45.238,0
				C20.295,0,0.001,20.295,0.001,45.238s20.295,45.238,45.238,45.238c4.314,0,8.61-0.633,12.81-1.886l59.024,59.029l-59.029,59.029
				c-8.857-2.633-18.176-2.49-27.143,0.452c-13.462,4.424-24.143,15.105-28.567,28.571c-3.271,9.952-3.081,20.357,0.533,30.086
				l2.586,6.952l31.652-31.652c1.862-1.862,4.871-1.862,6.733,0L54.182,251.4c1.857,1.857,1.857,4.876,0,6.733l-31.652,31.652
				l6.952,2.586c5.119,1.9,10.424,2.857,15.757,2.857c4.8,0,9.619-0.771,14.338-2.319c13.462-4.424,24.143-15.105,28.567-28.571
				c2.938-8.957,3.086-18.276,0.452-27.138l59.024-59.033l59.029,59.024c-1.252,4.2-1.886,8.495-1.886,12.81
				c0,24.943,20.295,45.238,45.238,45.238s45.238-20.295,45.238-45.238S274.943,204.762,250.001,204.762z M60.539,77.614
				l-2.867,1.067c-4.057,1.51-8.243,2.271-12.433,2.271c-19.695,0-35.714-16.019-35.714-35.714S25.544,9.524,45.238,9.524
				c19.695,0,35.714,16.019,35.714,35.714c0,4.19-0.762,8.376-2.276,12.433l-1.067,2.867l63.271,63.271L123.81,140.88L60.539,77.614
				z M140.886,171.429L77.615,234.7l1.067,2.867c2.9,7.795,3.043,15.8,0.414,23.795c-3.481,10.605-11.89,19.01-22.49,22.495
				c-5.424,1.781-10.838,2.29-16.205,1.529l20.524-20.524c2.695-2.695,4.186-6.286,4.186-10.1c0-3.814-1.49-7.405-4.186-10.1
				l-10.343-10.343c-5.395-5.395-14.805-5.395-20.2,0L9.857,254.843c-0.757-5.362-0.252-10.786,1.529-16.2
				c3.481-10.605,11.89-19.01,22.49-22.495c7.995-2.624,16.005-2.49,23.8,0.414l2.867,1.067l63.267-63.276l30.543-30.543
				l63.271-63.271l-1.067-2.867c-2.9-7.795-3.043-15.8-0.414-23.795c3.481-10.605,11.89-19.01,22.49-22.495
				c5.424-1.776,10.843-2.29,16.205-1.529l-20.524,20.524c-2.695,2.695-4.186,6.286-4.186,10.1c0,3.814,1.49,7.405,4.186,10.1
				l10.343,10.343c5.395,5.395,14.805,5.395,20.2,0l20.524-20.524c0.757,5.362,0.252,10.786-1.529,16.2
				c-3.481,10.605-11.89,19.01-22.49,22.495c-7.995,2.624-16,2.49-23.8-0.414l-2.867-1.067l-63.267,63.276L140.886,171.429z
				 M250.001,285.714c-19.695,0-35.714-16.019-35.714-35.714c0-4.19,0.762-8.376,2.276-12.433l1.067-2.867l-63.271-63.271
				l17.071-17.071l63.271,63.271l2.867-1.067c4.057-1.514,8.243-2.276,12.433-2.276c19.695,0,35.714,16.019,35.714,35.714
				S269.695,285.714,250.001,285.714z"/>
		</g>
	</g>
</g>
<g>
</g>
<g>
</g>
<g>
</g>
<g>
</g>
<g>
</g>
<g>
</g>
<g>
</g>
<g>
</g>
<g>
</g>
<g>
</g>
<g>
</g>
<g>
</g>
<g>
</g>
<g>
</g>
<g>
</g>
</svg>
