<?xml version="1.0" encoding="utf-8"?>
<!-- Generator: Adobe Illustrator 18.1.1, SVG Export Plug-In . SVG Version: 6.00 Build 0)  -->
<!DOCTYPE svg PUBLIC "-//W3C//DTD SVG 1.1//EN" "http://www.w3.org/Graphics/SVG/1.1/DTD/svg11.dtd">
<svg version="1.1" id="Layer_1" xmlns="http://www.w3.org/2000/svg" xmlns:xlink="http://www.w3.org/1999/xlink" x="0px" y="0px"
	 viewBox="0 0 944.8 212" enable-background="new 0 0 944.8 212" xml:space="preserve">
<polygon fill="#FFFFFF" points="336.4,81.7 305.6,212 327.4,212 347.1,128.7 347.1,128.7 366.8,212 388.5,212 357.7,81.7 "/>
<polygon fill="#FFFFFF" points="501.7,81.7 481.8,166 461.8,81.7 440.6,81.7 409.8,212 431.5,212 451.2,128.7 451.2,128.7 
	470.9,212 470.9,212 492.6,212 492.7,212 512.4,128.7 532,212 553.8,212 523,81.7 "/>
<path fill="#FFFFFF" d="M222.7,174.8V81.7h-21.3v93.1c0,20.5,18.5,37.2,41.3,37.2h41.7v-19.2h-41.7
	C231.6,192.8,222.7,184.7,222.7,174.8z"/>
<path fill="#FFFFFF" d="M139.1,137.3L139.1,137.3l-0.6,0c-11,0-20-8.1-20-18v-0.4c0-10,9-18,20-18v0.1h32.5V81.7h-32.5v-0.1
	c-22.7,0-41.1,16.6-41.2,37h0v0.7h0c0.1,20.4,18.4,37,41.1,37.1v0h0.6c11,0,20,8.1,20,18v0.4c0,10-9,18-20,18h-33.1V212h33.1
	c22.7,0,41.1-16.5,41.2-36.9h0v-0.9h0C180,153.8,161.7,137.4,139.1,137.3z"/>
<path fill="#FF8500" d="M636.7,174.8L636.7,174.8c0,10-9,18-20,18h-20.4v-92h20.4c11,0,20,8.1,20,18H658c0-20.5-18.5-37.2-41.3-37.2
	h-41.6v0.1v19.1v92V212h21.3h20.4c22.8,0,41.3-16.6,41.3-37.2v-55.9h-21.3V174.8z"/>
<polygon fill="#FF8500" points="770.6,100.8 801.4,100.8 801.4,212 822.7,212 822.7,100.8 853.5,100.8 853.5,81.6 770.6,81.6 "/>
<polygon fill="#FF8500" points="710.1,81.7 679.2,212 701,212 720.7,128.7 720.7,128.7 740.4,212 762.1,212 731.3,81.7 "/>
<polygon fill="#FF8500" points="923.1,212 944.8,212 914,81.7 892.7,81.7 861.9,212 883.7,212 903.4,128.7 903.4,128.7 "/>
<path fill="#FF8500" d="M99.8,29.5c5.1,9.7,0.2,28.9,0.2,28.9S84.9,37.7,74.4,33.1c1.8,3.3,7.1,21.9,7.1,21.9S31.1,26,0,0
	c27.8,25,61.6,75.7,61.6,75.7S50.7,74.2,38,74.2c3.8,1.9,8.3,5.2,12.8,9.2c2.7,3.2,5.2,7.3,6.7,12.6c4.7,16.8,20.8,15.8,20.8,15.8
	l1.3-8.5c3.8-15.6,15-28.3,29.8-34.1l5.6-1.9C115,67.2,109.8,43.3,99.8,29.5z"/>
</svg>
