<?xml version="1.0" encoding="UTF-8" standalone="no"?>
<!-- Generator: Adobe Illustrator 16.0.0, SVG Export Plug-In . SVG Version: 6.00 Build 0)  -->

<svg
   xmlns:dc="http://purl.org/dc/elements/1.1/"
   xmlns:cc="http://creativecommons.org/ns#"
   xmlns:rdf="http://www.w3.org/1999/02/22-rdf-syntax-ns#"
   xmlns:svg="http://www.w3.org/2000/svg"
   xmlns="http://www.w3.org/2000/svg"
   xmlns:sodipodi="http://sodipodi.sourceforge.net/DTD/sodipodi-0.dtd"
   xmlns:inkscape="http://www.inkscape.org/namespaces/inkscape"
   version="1.1"
   id="Layer_1"
   x="0px"
   y="0px"
   width="326.47128"
   height="356.00952"
   viewBox="0 0 326.47128 356.00952"
   enable-background="new 0 0 400 400"
   xml:space="preserve"
   inkscape:version="0.91 r13725"
   sodipodi:docname="open.svg"><metadata
     id="metadata39"><rdf:RDF><cc:Work
         rdf:about=""><dc:format>image/svg+xml</dc:format><dc:type
           rdf:resource="http://purl.org/dc/dcmitype/StillImage" /><dc:title></dc:title></cc:Work></rdf:RDF></metadata><defs
     id="defs37" /><sodipodi:namedview
     pagecolor="#333333"
     bordercolor="#666666"
     borderopacity="1"
     objecttolerance="10"
     gridtolerance="10"
     guidetolerance="10"
     inkscape:pageopacity="0"
     inkscape:pageshadow="2"
     inkscape:window-width="640"
     inkscape:window-height="480"
     id="namedview35"
     showgrid="false"
     fit-margin-top="0"
     fit-margin-left="0"
     fit-margin-right="0"
     fit-margin-bottom="0"
     inkscape:zoom="0.59"
     inkscape:cx="158.91"
     inkscape:cy="174.92501"
     inkscape:window-x="0"
     inkscape:window-y="0"
     inkscape:window-maximized="0"
     inkscape:current-layer="Layer_1" /><path
     d="m 310.336,139.9785 c -0.976,-0.311 -1.959,-0.595 -3.217,-0.975 0,-6.294 0.136,-12.444 -0.032,-18.587 -0.233,-8.524 -5.304,-16.09 -13.06,-18.488 -4.152,-1.283 -8.723,-1.664 -13.104,-1.674 -12.581,-0.027 -25.162,-0.08 -37.743,-0.128 l 0,-18.123 c 0.005,-4.565 3.746,-8.305 8.311,-8.305 l 25.643,0 c 4.565,0 5.762,-2.739 2.648,-6.083 L 219.215,2.5115002 c -3.113,-3.34799998 -8.202,-3.34799998 -11.319,-0.004 L 147.336,67.6115 c -3.111,3.348 -1.921,6.087 2.652,6.082 l 25.643,0.005 c 4.562,0.002 8.306,3.739 8.302,8.309 l 0.002,18.048 c -16.737,0.052 -33.473,0.185 -50.206,0.483 -12.829,0.229 -21.562,-2.646 -26.555,-14.611 -0.399,-0.956 -1.159,-1.766 -1.769,-2.629 -4.328,-6.148 -10.004,-9.137 -17.771,-9.036 -21.025,0.267 -42.061,0.351 -63.083,-0.015 -11.3,-0.194 -19.72,3.556 -24.551,14.102 0,84.965 0,169.933 0,254.898 4.913,7.162 10.634,12.771 20.244,12.762 84.328,-0.071 168.655,-0.037 252.982,-0.046 8.346,-0.001 14.961,-3.398 18.543,-11.021 1.655,-3.521 2.014,-7.683 2.747,-11.595 10.478,-55.871 20.905,-111.751 31.376,-167.624 2.428,-12.964 -2.78,-21.669 -15.556,-25.745 z m -17.319,-2.089 c -0.006,0.374 -0.32,0.742 -0.808,1.805 -2.386,0 -5.08,0 -7.776,0 -76.447,0 -152.895,-0.002 -229.342,0.003 -14.035,0 -20.679,6.163 -23.127,19.995 -5.44,30.731 -11.281,61.39 -17.971,92.11 -0.114,-1.816 -0.326,-3.632 -0.327,-5.445 -0.018,-49.268 -0.021,-98.532 -0.008,-147.8 0.002,-8.969 1.293,-10.225 10.328,-10.229 20.811,-0.01 41.625,-0.159 62.429,0.182 2.822,0.046 6.324,1.948 8.246,4.113 3.477,3.92 5.958,8.715 8.931,13.091 4.413,6.491 10.505,9.138 18.424,9.115 20.64,-0.061 41.279,-0.082 61.919,-0.092 l 0.001,13.165 59.244,0 0,-13.165 c 13.125,0.005 26.25,0.012 39.376,0.014 9.958,0.001 10.6,0.644 10.594,10.401 -0.003,4.246 -0.06,8.491 -0.133,12.737 z"
     id="path33"
     inkscape:connector-curvature="0"
     style="fill:#333333" /></svg>
