<?xml version="1.0" encoding="UTF-8" standalone="no"?>
<!-- Generator: Adobe Illustrator 16.0.0, SVG Export Plug-In . SVG Version: 6.00 Build 0)  -->

<svg
   xmlns:dc="http://purl.org/dc/elements/1.1/"
   xmlns:cc="http://creativecommons.org/ns#"
   xmlns:rdf="http://www.w3.org/1999/02/22-rdf-syntax-ns#"
   xmlns:svg="http://www.w3.org/2000/svg"
   xmlns="http://www.w3.org/2000/svg"
   xmlns:sodipodi="http://sodipodi.sourceforge.net/DTD/sodipodi-0.dtd"
   xmlns:inkscape="http://www.inkscape.org/namespaces/inkscape"
   version="1.1"
   id="Layer_1"
   x="0px"
   y="0px"
   width="379.92999"
   height="379.92999"
   viewBox="0 0 379.92999 379.92998"
   enable-background="new 0 0 400 400"
   xml:space="preserve"
   inkscape:version="0.91 r13725"
   sodipodi:docname="query.svg"><metadata
     id="metadata48"><rdf:RDF><cc:Work
         rdf:about=""><dc:format>image/svg+xml</dc:format><dc:type
           rdf:resource="http://purl.org/dc/dcmitype/StillImage" /><dc:title></dc:title></cc:Work></rdf:RDF></metadata><defs
     id="defs46" /><sodipodi:namedview
     pagecolor="#333333"
     bordercolor="#666666"
     borderopacity="1"
     objecttolerance="10"
     gridtolerance="10"
     guidetolerance="10"
     inkscape:pageopacity="0"
     inkscape:pageshadow="2"
     inkscape:window-width="1206"
     inkscape:window-height="856"
     id="namedview44"
     showgrid="false"
     fit-margin-top="0"
     fit-margin-left="0"
     fit-margin-right="0"
     fit-margin-bottom="0"
     inkscape:zoom="0.59"
     inkscape:cx="189.965"
     inkscape:cy="233.41722"
     inkscape:window-x="0"
     inkscape:window-y="0"
     inkscape:window-maximized="0"
     inkscape:current-layer="Layer_1" /><g
     id="g4133"><path
       sodipodi:nodetypes="ssssssssscssscccscsccscsccccsccsccccccccccccccccccccccccccccccccccccssscscsccssscsscccccccccccccccccccccccccccc"
       style="fill:#333333"
       inkscape:connector-curvature="0"
       id="path42"
       d="M 368.93,0 11,0 C 4.951,0 0,4.949 0,11 l 0,355.648 c 0,6.051 4.951,11 11,11 l 357.93,0 c 6.049,0 11,-4.949 11,-11 L 379.93,11 c 0,-6.051 -4.951,-11 -11,-11 z M 73.28,168.768 c -3.626,-1.72 -6.973,-2.58 -10.041,-2.58 -1.929,0 -3.51,0.522 -4.741,1.568 -1.231,1.046 -1.848,2.429 -1.848,4.148 0,1.418 0.384,2.656 1.15,3.713 0.768,1.059 2.487,2.458 5.16,4.201 2.812,1.859 4.915,3.911 6.31,6.153 1.395,2.243 2.092,4.863 2.092,7.861 0,4.857 -1.72,8.698 -5.159,11.522 -3.44,2.823 -8.101,4.235 -13.98,4.235 -5.137,0 -9.272,-1.046 -12.41,-3.138 l 0,-9.552 c 4.485,2.51 8.646,3.765 12.48,3.765 2.603,0 4.637,-0.493 6.101,-1.481 1.465,-0.987 2.196,-2.342 2.196,-4.062 0,-0.999 -0.156,-1.877 -0.471,-2.632 -0.313,-0.755 -0.762,-1.459 -1.342,-2.109 -0.581,-0.65 -2.022,-1.836 -4.323,-3.556 -3.207,-2.302 -5.462,-4.579 -6.763,-6.833 -1.303,-2.255 -1.953,-4.684 -1.953,-7.286 0,-2.999 0.721,-5.677 2.162,-8.036 1.44,-2.358 3.491,-4.195 6.153,-5.509 2.66,-1.312 5.723,-1.97 9.186,-1.97 5.043,0 9.657,1.151 13.841,3.452 z m 43.468,-1.987 -17.85,0 -2.336,11.19 16.63,0 -1.918,8.855 -16.629,0 -2.789,13.143 17.85,0 -1.883,8.925 -28.482,0 10.772,-50.969 28.518,0 z m 31.058,42.113 -28.482,0 10.772,-50.969 10.668,0 -8.925,42.044 17.85,0 z m 47.199,-42.113 -17.85,0 -2.336,11.19 16.63,0 -1.918,8.855 -16.629,0 -2.789,13.143 17.85,0 -1.883,8.925 -28.482,0 10.772,-50.969 28.518,0 z m 43.154,2.719 c -2.464,-1.371 -4.498,-2.277 -6.102,-2.719 -1.604,-0.442 -3.195,-0.663 -4.775,-0.663 -3.068,0 -5.828,0.941 -8.28,2.824 -2.452,1.883 -4.422,4.654 -5.909,8.314 -1.487,3.661 -2.231,7.595 -2.231,11.801 0,3.882 0.796,6.764 2.389,8.646 1.592,1.882 4.131,2.823 7.617,2.823 3.393,0 7.321,-0.895 11.783,-2.685 l 0,9.064 c -4.625,1.79 -9.273,2.685 -13.944,2.685 -5.904,0 -10.494,-1.737 -13.771,-5.212 -3.277,-3.475 -4.916,-8.396 -4.916,-14.765 0,-6.089 1.208,-11.695 3.626,-16.82 2.417,-5.125 5.647,-9.018 9.691,-11.679 4.044,-2.661 8.692,-3.992 13.945,-3.992 2.904,0 5.484,0.262 7.739,0.784 2.254,0.523 4.671,1.482 7.251,2.876 z m 43.608,-2.58 -12.306,0 -8.855,41.975 -10.633,0 8.854,-41.975 -12.271,0 1.918,-8.994 35.211,0 z m 57.722,9.064 -11.783,-1.499 5.578,11.714 -8.576,2.545 -3.138,-11.749 -6.867,9.692 -7.217,-5.718 9.587,-8.646 -11.365,-3.207 2.998,-8.263 11.784,6.065 1.15,-12.863 8.925,1.777 -3.939,12.307 13.491,-1.011 z" /></g></svg>