<?xml version="1.0" encoding="UTF-8" standalone="no"?>
<!-- Generator: Adobe Illustrator 16.0.0, SVG Export Plug-In . SVG Version: 6.00 Build 0)  -->

<svg
   xmlns:dc="http://purl.org/dc/elements/1.1/"
   xmlns:cc="http://creativecommons.org/ns#"
   xmlns:rdf="http://www.w3.org/1999/02/22-rdf-syntax-ns#"
   xmlns:svg="http://www.w3.org/2000/svg"
   xmlns="http://www.w3.org/2000/svg"
   xmlns:sodipodi="http://sodipodi.sourceforge.net/DTD/sodipodi-0.dtd"
   xmlns:inkscape="http://www.inkscape.org/namespaces/inkscape"
   version="1.1"
   id="Layer_1"
   x="0px"
   y="0px"
   width="358.60736"
   height="332.76425"
   viewBox="0 0 358.60736 332.76425"
   enable-background="new 0 0 400 400"
   xml:space="preserve"
   inkscape:version="0.91 r13725"
   sodipodi:docname="setupDownload.svg"><metadata
     id="metadata116"><rdf:RDF><cc:Work
         rdf:about=""><dc:format>image/svg+xml</dc:format><dc:type
           rdf:resource="http://purl.org/dc/dcmitype/StillImage" /><dc:title></dc:title></cc:Work></rdf:RDF></metadata><defs
     id="defs114" /><sodipodi:namedview
     pagecolor="#333333"
     bordercolor="#666666"
     borderopacity="1"
     objecttolerance="10"
     gridtolerance="10"
     guidetolerance="10"
     inkscape:pageopacity="0"
     inkscape:pageshadow="2"
     inkscape:window-width="640"
     inkscape:window-height="480"
     id="namedview112"
     showgrid="false"
     fit-margin-top="0"
     fit-margin-left="0"
     fit-margin-right="0"
     fit-margin-bottom="0"
     inkscape:zoom="0.59"
     inkscape:cx="178.23838"
     inkscape:cy="168.13425"
     inkscape:window-x="0"
     inkscape:window-y="0"
     inkscape:window-maximized="0"
     inkscape:current-layer="Layer_1" /><g
     id="g104"
     transform="translate(-21.761625,-35.37)"><path
       d="m 208.105,214.682 -12.226,12.227 -9.495,9.494 -6.863,6.862 c -0.011,-0.044 -0.021,-0.076 -0.021,-0.076 0,0 -2.259,2.769 -6.391,1.66 0,0 0,0.023 0,0.037 l -17.64,-4.727 c -4.391,-1.179 -5.715,-5.671 -5.733,-5.731 l -4.74,-17.692 c -0.839,-3.141 0.553,-5.193 1.272,-6.002 l 7.223,-7.223 9.494,-9.494 12.306,-12.306 c 2.927,-2.926 -0.312,-4.452 -0.42,-4.503 -17.071,-4.231 -35.869,0.309 -49.213,13.651 -13.062,13.062 -17.685,31.353 -13.9,48.134 l -0.005,-0.001 c 0,0 1,4.635 -3.958,9.593 L 27.871,328.51 c -8.146,8.146 -8.146,21.354 0.001,29.501 l 4.013,4.013 c 8.148,8.147 21.355,8.147 29.501,0 l 80.973,-80.972 c 3.729,-3.138 7.074,-3.115 8.138,-3.008 16.891,3.949 35.372,-0.641 48.539,-13.809 13.352,-13.351 17.889,-32.162 13.645,-49.24 -0.228,-0.416 -1.827,-3.063 -4.576,-0.313 z M 50.158,350.323 c -2.923,2.923 -7.663,2.923 -10.584,0 -2.924,-2.923 -2.924,-7.662 0,-10.585 2.921,-2.923 7.661,-2.923 10.584,0 2.924,2.922 2.924,7.662 0,10.585 z"
       id="path106"
       inkscape:connector-curvature="0"
       style="fill:#333333" /><path
       d="m 380.369,114.414 c 0,-43.585 -35.459,-79.044 -79.045,-79.044 -43.585,0 -79.044,35.459 -79.044,79.044 0,18.169 6.317,35.912 17.788,49.96 1.223,1.497 3.427,1.72 4.925,0.497 1.497,-1.223 1.72,-3.427 0.497,-4.925 -10.453,-12.802 -16.21,-28.972 -16.21,-45.532 0,-39.726 32.318,-72.044 72.044,-72.044 39.726,0 72.045,32.319 72.045,72.044 0,39.725 -32.319,72.044 -72.045,72.044 l -102.473,0 c -0.929,0 -1.818,0.369 -2.475,1.025 l -11.522,11.521 -17.381,-4.658 -15.938,15.939 5.833,21.77 21.77,5.834 15.938,-15.938 -4.917,-18.353 10.141,-10.141 101.368,0 c 0.039,0 0.076,-0.01 0.115,-0.012 43.375,-0.248 78.586,-35.599 78.586,-79.031 z M 173.305,226.729 c -5.858,0 -10.61,-4.75 -10.61,-10.61 0,-5.859 4.752,-10.609 10.61,-10.609 5.86,0 10.61,4.75 10.61,10.609 0,5.86 -4.75,10.609 -10.61,10.61 z"
       id="path108"
       inkscape:connector-curvature="0"
       style="fill:#333333" /><path
       d="m 359.898,114.414 c 0,-32.35 -26.224,-58.574 -58.574,-58.574 -32.35,0 -58.574,26.225 -58.574,58.574 0,32.349 26.225,58.574 58.574,58.574 32.351,0 58.574,-26.225 58.574,-58.574 z m -76.528,-5.319 7.242,0 c 1.289,0 2.346,-1.056 2.346,-2.347 l 0,-18.773 16.732,0 0,18.773 c 0,1.291 1.057,2.347 2.346,2.347 l 7.241,0 c 1.292,0 1.627,0.772 0.75,1.718 L 302.924,129.2 c -0.881,0.944 -2.317,0.944 -3.196,0 l -17.106,-18.387 c -0.881,-0.945 -0.542,-1.718 0.748,-1.718 z m -10.141,29.118 0,-11.876 c 0,-1.458 1.18,-2.64 2.642,-2.64 1.456,0 2.639,1.182 2.639,2.64 l 0,9.237 45.63,0 0,-9.237 c 0,-1.458 1.183,-2.64 2.642,-2.64 1.459,0 2.64,1.182 2.64,2.64 l 0,11.876 c 0,1.458 -1.181,2.64 -2.64,2.64 l -50.91,0 c -1.463,0.001 -2.643,-1.181 -2.643,-2.64 z"
       id="path110"
       inkscape:connector-curvature="0"
       style="fill:#333333" /></g></svg>
