<?xml version="1.0" encoding="UTF-8" standalone="no"?>
<svg
   xmlns:dc="http://purl.org/dc/elements/1.1/"
   xmlns:cc="http://creativecommons.org/ns#"
   xmlns:rdf="http://www.w3.org/1999/02/22-rdf-syntax-ns#"
   xmlns:svg="http://www.w3.org/2000/svg"
   xmlns="http://www.w3.org/2000/svg"
   version="1.1"
   id="Layer_1"
   x="0px"
   y="0px"
   width="360"
   height="360"
   viewBox="0 0 360 360"
   enable-background="new 0 0 400 400"
   xml:space="preserve"><metadata
     id="metadata101"><rdf:RDF><cc:Work
         rdf:about=""><dc:format>image/svg+xml</dc:format><dc:type
           rdf:resource="http://purl.org/dc/dcmitype/StillImage" /><dc:title></dc:title></cc:Work></rdf:RDF></metadata><defs
     id="defs99" /><g
     id="g85"
     transform="translate(-25.994625,-8.13425)"><path
       d="m 208.35724,217.96012 -11.96482,11.9658 -9.29217,9.29119 -6.71638,6.71541 c -0.0108,-0.0431 -0.0206,-0.0744 -0.0206,-0.0744 0,0 -2.21074,2.70985 -6.25447,1.62454 0,0 0,0.0225 0,0.0362 l -17.26316,-4.62602 c -4.2972,-1.15381 -5.59292,-5.54985 -5.61053,-5.60857 l -4.63874,-17.31405 c -0.82108,-3.07391 0.54118,-5.08207 1.24482,-5.87379 l 7.0687,-7.0687 9.29119,-9.29118 12.04311,-12.04311 c 2.86447,-2.8635 -0.30534,-4.3569 -0.41103,-4.40681 -16.70632,-4.14061 -35.10275,0.3024 -48.16169,13.35938 -12.78296,12.78297 -17.3072,30.68322 -13.60306,47.10574 l -0.005,-9.8e-4 c 0,0 0.97864,4.53599 -3.87345,9.38807 l -78.216622,78.2176 c -7.971981,7.97198 -7.971981,20.89783 9.79e-4,28.87079 l 3.927272,3.92727 c 7.973939,7.97296 20.898804,7.97296 28.870785,0 l 79.243216,-79.24224 c 3.64934,-3.07096 6.92288,-3.04845 7.96415,-2.94374 16.53017,3.86464 34.61637,-0.6273 47.50209,-13.514 13.06676,-13.06579 17.50684,-31.47494 13.3535,-48.18811 -0.22312,-0.40712 -1.78797,-2.99757 -4.47824,-0.30632 z M 53.784382,350.70349 c -2.860557,2.86056 -7.499299,2.86056 -10.357899,0 -2.861536,-2.86055 -2.861536,-7.49832 0,-10.35888 2.8586,-2.86055 7.497342,-2.86055 10.357899,0 2.860558,2.85958 2.860558,7.49833 0,10.35888 z"
       id="path87"
       style="fill:#333333" /><path
       d="m 382.57037,190.33906 -183.26259,0 c -0.90916,0 -1.77916,0.36112 -2.42213,1.0031 l -11.27684,11.27684 -17.01655,-4.56045 -15.59752,15.5985 5.70839,21.30494 21.30494,5.70937 15.59752,-15.59752 -4.81098,-17.95506 9.93024,-9.93024 181.84454,0 c 1.89171,0 3.42523,-1.53352 3.42523,-3.42523 0,-1.8917 -1.53254,-3.42425 -3.42425,-3.42425 z m -208.27069,39.41071 c -5.73286,0 -10.38335,-4.64853 -10.38335,-10.38334 0,-5.73384 4.65049,-10.38237 10.38335,-10.38237 5.73481,0 10.38334,4.64853 10.38334,10.38237 0,5.73481 -4.64853,10.38236 -10.38334,10.38334 z"
       id="path89"
       style="fill:#333333" /><g
       id="flowRoot11395"
       style="font-style:normal;font-variant:normal;font-weight:bold;font-stretch:normal;font-size:90px;line-height:125%;font-family:'Ubuntu Mono';-inkscape-font-specification:'Ubuntu Mono Bold';letter-spacing:0px;word-spacing:0px;fill:#333333;fill-opacity:1;stroke:none;stroke-width:1px;stroke-linecap:butt;stroke-linejoin:miter;stroke-opacity:1"
       transform="matrix(0.72160891,0,0,0.72160891,36.982338,-72.185919)"><g
         style="font-style:normal;font-variant:normal;font-weight:bold;font-stretch:normal;font-size:55.4316864px;line-height:125%;font-family:'Ubuntu Mono';-inkscape-font-specification:'Ubuntu Mono Bold';letter-spacing:0px;word-spacing:0px;fill:#333333;fill-opacity:1;stroke:none;stroke-width:1px;stroke-linecap:butt;stroke-linejoin:miter;stroke-opacity:1"
         id="text7223"
         transform="matrix(1.6568483,0,0,1.6568483,1220.9783,23.178987)"><path
           d="m -735.65291,87.262254 q 1.71838,0 2.82702,-0.33259 1.16406,-0.388021 1.82924,-0.99777 0.66518,-0.66518 0.88691,-1.441224 0.27716,-0.831475 0.27716,-1.66295 0,-1.053202 -0.60975,-1.884678 -0.60975,-0.831475 -1.55209,-1.441224 -0.94234,-0.66518 -2.1064,-1.164065 -1.16407,-0.554317 -2.32813,-0.99777 -1.55209,-0.554317 -3.21504,-1.274929 -1.66295,-0.720612 -3.04874,-1.829246 -1.33036,-1.108634 -2.21727,-2.716152 -0.88691,-1.662951 -0.88691,-4.101945 0,-4.822557 3.10418,-7.53871 3.1596,-2.716152 8.64734,-2.716152 3.1596,0 5.48774,0.720612 2.38356,0.720612 3.99108,1.607519 l -1.99554,5.26601 q -1.3858,-0.776044 -3.10418,-1.330361 -1.66295,-0.554317 -3.88022,-0.554317 -5.4323,0 -5.4323,3.93565 0,0.997771 0.55432,1.773814 0.55431,0.720612 1.38579,1.330361 0.8869,0.554317 1.94011,0.99777 1.10863,0.443453 2.16183,0.831475 1.60752,0.609749 3.3259,1.385792 1.77382,0.720612 3.21504,1.995541 1.49666,1.219497 2.439,3.104175 0.94233,1.829245 0.94233,4.656261 0,4.822557 -3.1596,7.483278 -3.10418,2.605289 -9.47882,2.605289 -4.26824,0 -6.8181,-0.886907 -2.54986,-0.942338 -3.82478,-1.718382 l 1.99554,-5.543169 q 1.49665,0.886907 3.54762,1.662951 2.10641,0.776043 5.09972,0.776043 z"
           id="path7236" /><path
           d="m -712.87049,71.852246 -5.93119,0 0,-5.654032 5.93119,0 0,-6.540939 6.8181,-1.108634 0,7.649573 10.92004,0 0,5.654032 -10.92004,0 0,10.53202 q 0,1.441224 0.27716,2.328131 0.27716,0.886907 0.77604,1.385792 0.49889,0.498885 1.2195,0.66518 0.72061,0.166295 1.60752,0.166295 0.94234,0 1.71838,-0.05543 0.83148,-0.05543 1.55209,-0.166295 0.77604,-0.166295 1.55209,-0.443454 0.83147,-0.277158 1.77381,-0.720612 l 0.94234,5.875759 q -1.88468,0.776044 -4.10195,1.108634 -2.16183,0.33259 -4.21281,0.33259 -2.38356,0 -4.2128,-0.388022 -1.82925,-0.388022 -3.10418,-1.496656 -1.27493,-1.108633 -1.94011,-3.104174 -0.66518,-2.050972 -0.66518,-5.321442 l 0,-10.698315 z"
           id="path7238" /><path
           d="m -679.16802,87.373118 q 1.10863,0 2.16183,0 1.05321,-0.05543 1.82925,-0.166295 l 0,-5.986622 q -0.66518,-0.110864 -1.60752,-0.166295 -0.94234,-0.110864 -1.71838,-0.110864 -1.0532,0 -2.05097,0.166295 -0.99777,0.110864 -1.77382,0.443454 -0.72061,0.33259 -1.16406,0.942338 -0.44346,0.609749 -0.44346,1.607519 0,1.773814 1.33036,2.549858 1.33036,0.720612 3.43677,0.720612 z m -0.60975,-21.840085 q 3.21504,0 5.32144,0.776044 2.16184,0.720612 3.43677,2.106404 1.27492,1.330361 1.82924,3.325901 0.55432,1.940109 0.55432,4.379104 l 0,15.520872 q -1.49666,0.33259 -4.43454,0.776043 -2.93788,0.443454 -6.59637,0.443454 -2.49442,0 -4.5454,-0.443454 -1.99554,-0.443453 -3.43676,-1.441224 -1.44122,-1.053202 -2.21727,-2.66072 -0.77604,-1.662951 -0.77604,-4.046514 0,-2.272699 0.88691,-3.824786 0.8869,-1.552087 2.38356,-2.494426 1.49665,-0.942338 3.43676,-1.33036 1.94011,-0.443454 4.04652,-0.443454 2.66072,0 4.71169,0.443454 l 0,-0.831476 q 0,-1.940109 -1.2195,-3.215037 -1.21949,-1.330361 -4.21281,-1.330361 -1.9401,0 -3.76935,0.277159 -1.77381,0.277158 -2.88245,0.66518 l -0.94234,-5.487737 q 1.27493,-0.443454 3.60306,-0.776044 2.32813,-0.388022 4.82256,-0.388022 z"
           id="path7240" /><path
           d="m -657.4388,71.852246 -5.93119,0 0,-5.654032 5.93119,0 0,-6.540939 6.8181,-1.108634 0,7.649573 10.92004,0 0,5.654032 -10.92004,0 0,10.53202 q 0,1.441224 0.27716,2.328131 0.27715,0.886907 0.77604,1.385792 0.49888,0.498885 1.2195,0.66518 0.72061,0.166295 1.60751,0.166295 0.94234,0 1.71839,-0.05543 0.83147,-0.05543 1.55208,-0.166295 0.77605,-0.166295 1.55209,-0.443454 0.83148,-0.277158 1.77382,-0.720612 l 0.94233,5.875759 q -1.88467,0.776044 -4.10194,1.108634 -2.16184,0.33259 -4.21281,0.33259 -2.38356,0 -4.21281,-0.388022 -1.82924,-0.388022 -3.10417,-1.496656 -1.27493,-1.108633 -1.94011,-3.104174 -0.66518,-2.050972 -0.66518,-5.321442 l 0,-10.698315 z"
           id="path7242" /><path
           d="m -621.90709,58.714936 q 0,1.995541 -1.27493,3.159606 -1.27493,1.164066 -3.04874,1.164066 -1.77382,0 -3.04874,-1.164066 -1.2195,-1.164065 -1.2195,-3.159606 0,-2.050972 1.2195,-3.215038 1.27492,-1.164065 3.04874,-1.164065 1.77381,0 3.04874,1.164065 1.27493,1.164066 1.27493,3.215038 z m 10.144,32.427537 q -2.10641,0.99777 -3.99108,1.33036 -1.82925,0.388022 -3.38134,0.388022 -2.66072,0 -4.48996,-0.776044 -1.77382,-0.776043 -2.88245,-2.217267 -1.0532,-1.496656 -1.49666,-3.60306 -0.44345,-2.106404 -0.44345,-4.822557 l 0,-9.589681 -7.20612,0 0,-5.654032 14.02422,0 0,16.13062 q 0,2.328131 0.83147,3.492197 0.88691,1.108633 2.88245,1.108633 0.94234,0 2.2727,-0.221726 1.33036,-0.277159 2.99331,-1.053202 l 0.88691,5.487737 z"
           id="path7244" /><path
           d="m -607.49484,79.22466 q 0,-2.827016 0.8869,-5.321442 0.88691,-2.494426 2.71616,-4.323671 1.82924,-1.884678 4.60083,-2.93788 2.82701,-1.108634 6.70723,-1.108634 2.32813,0 4.21281,0.332591 1.88468,0.33259 3.82478,1.108633 l -1.49665,5.487737 q -1.10863,-0.388022 -2.49443,-0.66518 -1.33036,-0.33259 -3.43676,-0.33259 -2.439,0 -4.10195,0.609748 -1.60752,0.554317 -2.60529,1.607519 -0.99777,0.997771 -1.44122,2.438995 -0.44345,1.441223 -0.44345,3.104174 0,3.60306 1.99554,5.654032 2.05097,2.050972 6.92896,2.050972 1.60752,0 3.3259,-0.221726 1.77381,-0.221727 3.21504,-0.720612 l 0.99777,5.5986 q -1.44123,0.554317 -3.4922,0.886907 -2.05097,0.388022 -4.82255,0.388022 -3.99109,0 -6.87353,-1.053202 -2.82702,-1.053202 -4.65627,-2.882448 -1.82924,-1.829246 -2.71615,-4.323671 -0.83147,-2.494426 -0.83147,-5.376874 z"
           id="path7246" /><path
           d="m -528.17212,57.938892 0,5.654032 -9.03536,0 0,28.658182 -6.87353,0 0,-28.658182 -9.03536,0 0,-5.654032 24.94425,0 z"
           id="path7248" /><path
           d="m -525.06793,79.446387 q 0,-3.436765 1.0532,-6.042054 1.0532,-2.605289 2.77158,-4.323672 1.71839,-1.773814 3.93565,-2.660721 2.21727,-0.886907 4.5454,-0.886907 5.7649,0 8.75821,3.436765 2.99331,3.381333 2.99331,9.922272 0,0.66518 -0.0554,1.385792 0,0.720612 -0.0554,1.164065 l -16.90666,0 q 0,2.549858 2.1064,4.046514 2.10641,1.441223 5.43231,1.441223 2.05097,0 3.88022,-0.443453 1.88468,-0.443454 3.1596,-0.886907 l 0.94234,5.820327 q -1.77381,0.609749 -3.76935,0.99777 -1.99554,0.443454 -4.48997,0.443454 -3.3259,0 -5.98662,-0.831475 -2.60529,-0.886907 -4.48997,-2.549858 -1.82924,-1.718382 -2.82701,-4.212808 -0.99777,-2.494426 -0.99777,-5.820327 z m 17.46098,-2.716153 q 0,-1.053202 -0.27716,-1.995541 -0.27716,-0.99777 -0.88691,-1.773814 -0.60975,-0.776043 -1.55209,-1.219497 -0.94233,-0.498885 -2.32813,-0.498885 -1.33036,0 -2.32813,0.443454 -0.94234,0.443453 -1.60752,1.219497 -0.60974,0.776043 -0.99777,1.773814 -0.33259,0.99777 -0.44345,2.050972 l 10.42116,0 z"
           id="path7250" /><path
           d="m -484.99082,74.346672 5.32145,-8.148458 6.92896,0 -8.42562,12.527561 q 1.33036,1.607519 2.60529,3.436764 1.27493,1.773814 2.43899,3.60306 1.16407,1.829246 2.10641,3.492196 0.94234,1.662951 1.60752,2.993311 l -7.09526,0 q -1.49666,-2.827016 -2.99331,-5.044283 -1.49666,-2.217268 -2.82702,-3.991082 -1.66295,2.217268 -2.99331,4.323672 -1.33036,2.106404 -2.71615,4.711693 l -6.92896,0 q 0.83147,-1.552087 1.88468,-3.215038 1.10863,-1.718382 2.2727,-3.436764 1.21949,-1.773814 2.49442,-3.492196 1.33036,-1.718383 2.54986,-3.27047 l -9.14623,-12.638424 7.15069,0 5.76489,8.148458 z"
           id="path7252" /><path
           d="m -463.42788,71.852246 -5.93119,0 0,-5.654032 5.93119,0 0,-6.540939 6.81809,-1.108634 0,7.649573 10.92005,0 0,5.654032 -10.92005,0 0,10.53202 q 0,1.441224 0.27716,2.328131 0.27716,0.886907 0.77605,1.385792 0.49888,0.498885 1.21949,0.66518 0.72062,0.166295 1.60752,0.166295 0.94234,0 1.71838,-0.05543 0.83148,-0.05543 1.55209,-0.166295 0.77605,-0.166295 1.55209,-0.443454 0.83147,-0.277158 1.77381,-0.720612 l 0.94234,5.875759 q -1.88468,0.776044 -4.10194,1.108634 -2.16184,0.33259 -4.21281,0.33259 -2.38356,0 -4.21281,-0.388022 -1.82925,-0.388022 -3.10417,-1.496656 -1.27493,-1.108633 -1.94011,-3.104174 -0.66518,-2.050972 -0.66518,-5.321442 l 0,-10.698315 z"
           id="path7254" /></g><flowRoot
         xml:space="preserve"
         id="flowRoot7227"
         style="font-style:normal;font-weight:normal;font-size:40px;line-height:125%;font-family:sans-serif;letter-spacing:0px;word-spacing:0px;fill:#000000;fill-opacity:1;stroke:none;stroke-width:1px;stroke-linecap:butt;stroke-linejoin:miter;stroke-opacity:1"
         transform="matrix(1.3857922,0,0,1.3857922,-22.720496,-22.246244)"><flowRegion
           id="flowRegion7229"><rect
             id="rect7231"
             width="347.56097"
             height="117.45164"
             x="31.160639"
             y="17.904062" /></flowRegion><flowPara
           id="flowPara7233" /></flowRoot></g><path
       style="color:#000000;font-style:normal;font-variant:normal;font-weight:normal;font-stretch:normal;font-size:medium;line-height:normal;font-family:sans-serif;text-indent:0;text-align:start;text-decoration:none;text-decoration-line:none;text-decoration-style:solid;text-decoration-color:#000000;letter-spacing:normal;word-spacing:normal;text-transform:none;direction:ltr;block-progression:tb;writing-mode:lr-tb;baseline-shift:baseline;text-anchor:start;white-space:normal;clip-rule:nonzero;display:inline;overflow:visible;visibility:visible;opacity:1;isolation:auto;mix-blend-mode:normal;color-interpolation:sRGB;color-interpolation-filters:linearRGB;solid-color:#000000;solid-opacity:1;fill:#333333;fill-opacity:1;fill-rule:evenodd;stroke:none;stroke-width:7;stroke-linecap:round;stroke-linejoin:miter;stroke-miterlimit:4;stroke-dasharray:none;stroke-dashoffset:0;stroke-opacity:1;color-rendering:auto;image-rendering:auto;shape-rendering:auto;text-rendering:auto;enable-background:accumulate"
       d="m 30.392285,190.82934 a 3.4255738,3.4255738 0 1 0 0,6.85046 l 84.741985,0 a 3.4255738,3.4255738 0 1 0 0,-6.85046 l -84.741985,0 z"
       id="path7822" /><path
       id="path5424-0"
       d="m 132.96259,95.519212 -39.989613,0.41358 0.01039,7.806398 39.989611,-0.41356 -0.0104,-7.806418 z"
       style="color:#000000;font-style:normal;font-variant:normal;font-weight:normal;font-stretch:normal;font-size:medium;line-height:normal;font-family:sans-serif;text-indent:0;text-align:start;text-decoration:none;text-decoration-line:none;text-decoration-style:solid;text-decoration-color:#000000;letter-spacing:normal;word-spacing:normal;text-transform:none;direction:ltr;block-progression:tb;writing-mode:lr-tb;baseline-shift:baseline;text-anchor:start;white-space:normal;clip-rule:nonzero;display:inline;overflow:visible;visibility:visible;opacity:1;isolation:auto;mix-blend-mode:normal;color-interpolation:sRGB;color-interpolation-filters:linearRGB;solid-color:#000000;solid-opacity:1;fill:#333333;fill-opacity:1;fill-rule:evenodd;stroke:none;stroke-width:8;stroke-linecap:round;stroke-linejoin:miter;stroke-miterlimit:4;stroke-dasharray:none;stroke-dashoffset:0;stroke-opacity:1;color-rendering:auto;image-rendering:auto;shape-rendering:auto;text-rendering:auto;enable-background:accumulate" /><path
       id="path5424-5-1"
       d="m 256.96253,91.61601 -39.98955,0.413579 0.0104,7.806406 39.98958,-0.41357 -0.0104,-7.806415 z"
       style="color:#000000;font-style:normal;font-variant:normal;font-weight:normal;font-stretch:normal;font-size:medium;line-height:normal;font-family:sans-serif;text-indent:0;text-align:start;text-decoration:none;text-decoration-line:none;text-decoration-style:solid;text-decoration-color:#000000;letter-spacing:normal;word-spacing:normal;text-transform:none;direction:ltr;block-progression:tb;writing-mode:lr-tb;baseline-shift:baseline;text-anchor:start;white-space:normal;clip-rule:nonzero;display:inline;overflow:visible;visibility:visible;opacity:1;isolation:auto;mix-blend-mode:normal;color-interpolation:sRGB;color-interpolation-filters:linearRGB;solid-color:#000000;solid-opacity:1;fill:#333333;fill-opacity:1;fill-rule:evenodd;stroke:none;stroke-width:8;stroke-linecap:round;stroke-linejoin:miter;stroke-miterlimit:4;stroke-dasharray:none;stroke-dashoffset:0;stroke-opacity:1;color-rendering:auto;image-rendering:auto;shape-rendering:auto;text-rendering:auto;enable-background:accumulate" /><path
       id="path6009"
       d="m 53.937722,71.537731 c -15.375482,1e-5 -27.943097,12.727362 -27.943097,28.298254 0,15.570905 12.567615,28.298265 27.943097,28.298265 15.375469,1e-5 27.943084,-12.72735 27.943084,-28.298265 0,-15.570892 -12.567605,-28.298254 -27.943084,-28.298254 z m 0,9.758016 c 10.168033,0 18.30753,8.242966 18.30753,18.540238 0,10.297285 -8.139497,18.540255 -18.30753,18.540245 -10.168042,0 -18.307543,-8.24297 -18.307543,-18.540245 0,-10.297272 8.139501,-18.540228 18.307543,-18.540238 z"
       style="color:#000000;font-style:normal;font-variant:normal;font-weight:normal;font-stretch:normal;font-size:medium;line-height:normal;font-family:sans-serif;text-indent:0;text-align:start;text-decoration:none;text-decoration-line:none;text-decoration-style:solid;text-decoration-color:#000000;letter-spacing:normal;word-spacing:normal;text-transform:none;direction:ltr;block-progression:tb;writing-mode:lr-tb;baseline-shift:baseline;text-anchor:start;white-space:normal;clip-rule:nonzero;display:inline;overflow:visible;visibility:visible;opacity:0.98000004;isolation:auto;mix-blend-mode:normal;color-interpolation:sRGB;color-interpolation-filters:linearRGB;solid-color:#000000;solid-opacity:1;fill:#333333;fill-opacity:1;fill-rule:nonzero;stroke:none;stroke-width:10;stroke-linecap:round;stroke-linejoin:round;stroke-miterlimit:4;stroke-dasharray:none;stroke-dashoffset:0;stroke-opacity:1;color-rendering:auto;image-rendering:auto;shape-rendering:auto;text-rendering:auto;enable-background:accumulate" /><path
       id="path6009-1"
       d="m 177.93771,71.537741 c -15.37547,0 -27.94309,12.727352 -27.94309,28.298254 0,15.570885 12.56762,28.298245 27.94309,28.298255 15.37546,0 27.94309,-12.72736 27.94309,-28.298255 0,-15.570902 -12.56763,-28.298264 -27.9431,-28.298254 z m 0,9.758016 c 10.16803,-10e-6 18.30753,8.242956 18.30753,18.540238 0,10.297265 -8.13948,18.540235 -18.30752,18.540235 -10.16804,-1e-5 -18.30755,-8.24298 -18.30755,-18.540235 0,-10.297282 8.13951,-18.540238 18.30755,-18.540238 z"
       style="color:#000000;font-style:normal;font-variant:normal;font-weight:normal;font-stretch:normal;font-size:medium;line-height:normal;font-family:sans-serif;text-indent:0;text-align:start;text-decoration:none;text-decoration-line:none;text-decoration-style:solid;text-decoration-color:#000000;letter-spacing:normal;word-spacing:normal;text-transform:none;direction:ltr;block-progression:tb;writing-mode:lr-tb;baseline-shift:baseline;text-anchor:start;white-space:normal;clip-rule:nonzero;display:inline;overflow:visible;visibility:visible;opacity:0.98000004;isolation:auto;mix-blend-mode:normal;color-interpolation:sRGB;color-interpolation-filters:linearRGB;solid-color:#000000;solid-opacity:1;fill:#333333;fill-opacity:1;fill-rule:nonzero;stroke:none;stroke-width:10;stroke-linecap:round;stroke-linejoin:round;stroke-miterlimit:4;stroke-dasharray:none;stroke-dashoffset:0;stroke-opacity:1;color-rendering:auto;image-rendering:auto;shape-rendering:auto;text-rendering:auto;enable-background:accumulate" /><path
       id="path6026"
       d="m 61.646608,99.835494 a 7.7084393,7.8064178 0 0 1 -7.708435,7.806406 7.7084393,7.8064178 0 0 1 -7.708445,-7.806406 7.7084393,7.8064178 0 0 1 7.708445,-7.806415 7.7084393,7.8064178 0 0 1 7.708435,7.806415 z"
       style="opacity:0.98000004;fill:#333333;fill-opacity:1;stroke:none;stroke-width:10;stroke-linecap:round;stroke-linejoin:round;stroke-miterlimit:4;stroke-dasharray:none;stroke-opacity:1" /><path
       id="path5424-5-1-6"
       d="m 380.96253,91.61601 -39.98956,0.41358 0.0104,7.80641 39.98958,-0.41357 -0.0104,-7.80642 z"
       style="color:#000000;font-style:normal;font-variant:normal;font-weight:normal;font-stretch:normal;font-size:medium;line-height:normal;font-family:sans-serif;text-indent:0;text-align:start;text-decoration:none;text-decoration-line:none;text-decoration-style:solid;text-decoration-color:#000000;letter-spacing:normal;word-spacing:normal;text-transform:none;direction:ltr;block-progression:tb;writing-mode:lr-tb;baseline-shift:baseline;text-anchor:start;white-space:normal;clip-rule:nonzero;display:inline;overflow:visible;visibility:visible;opacity:1;isolation:auto;mix-blend-mode:normal;color-interpolation:sRGB;color-interpolation-filters:linearRGB;solid-color:#000000;solid-opacity:1;fill:#333333;fill-opacity:1;fill-rule:evenodd;stroke:none;stroke-width:8;stroke-linecap:round;stroke-linejoin:miter;stroke-miterlimit:4;stroke-dasharray:none;stroke-dashoffset:0;stroke-opacity:1;color-rendering:auto;image-rendering:auto;shape-rendering:auto;text-rendering:auto;enable-background:accumulate" /><path
       id="path6009-1-8"
       d="m 301.93771,71.53774 c -15.37547,0 -27.94309,12.72735 -27.94309,28.29826 0,15.57088 12.56762,28.29824 27.94309,28.29825 15.37545,0 27.94308,-12.72736 27.94308,-28.29825 0,-15.57091 -12.56763,-28.29827 -27.9431,-28.29826 z m 0,9.75802 c 10.16803,-1e-5 18.30752,8.24295 18.30752,18.54024 0,10.29726 -8.13949,18.54023 -18.30752,18.54023 -10.16805,-1e-5 -18.30755,-8.24298 -18.30755,-18.54023 0,-10.29729 8.1395,-18.54024 18.30755,-18.54024 z"
       style="color:#000000;font-style:normal;font-variant:normal;font-weight:normal;font-stretch:normal;font-size:medium;line-height:normal;font-family:sans-serif;text-indent:0;text-align:start;text-decoration:none;text-decoration-line:none;text-decoration-style:solid;text-decoration-color:#000000;letter-spacing:normal;word-spacing:normal;text-transform:none;direction:ltr;block-progression:tb;writing-mode:lr-tb;baseline-shift:baseline;text-anchor:start;white-space:normal;clip-rule:nonzero;display:inline;overflow:visible;visibility:visible;opacity:0.98000004;isolation:auto;mix-blend-mode:normal;color-interpolation:sRGB;color-interpolation-filters:linearRGB;solid-color:#000000;solid-opacity:1;fill:#333333;fill-opacity:1;fill-rule:nonzero;stroke:none;stroke-width:10;stroke-linecap:round;stroke-linejoin:round;stroke-miterlimit:4;stroke-dasharray:none;stroke-dashoffset:0;stroke-opacity:1;color-rendering:auto;image-rendering:auto;shape-rendering:auto;text-rendering:auto;enable-background:accumulate" /><g
       id="g51"
       transform="matrix(0.97921713,0,0,0.63745408,1.7991089,1.3299269)"
       style="fill:#333333;fill-opacity:1"><g
         id="VGM4vC_2_"
         style="fill:#333333;fill-opacity:1" /><g
         transform="translate(-8.6132812,234.39598)"
         id="g10702"><path
           style="fill:#333333;fill-opacity:1"
           d="m 14.566406,-142.45241 c -3.288,0 -5.9531248,1.70836 -5.9531248,3.81641 l 0,57.139904 c 0,2.107409 2.6653858,3.857796 5.9531248,3.816406 l 79.433594,0 0,-6.908203 -79.386719,0 0,-50.864517 355.640999,0 0,50.864517 -185.15272,0 0,6.908203 191.15235,0 -0.28711,-64.636 -112.71289,-0.13672 z"
           transform="matrix(1,0,0,1.5361375,24.709041,193.6645)"
           id="path53" /><g
           transform="matrix(0.65870218,0,0,1.0118571,76.582573,8.021703)"
           style="font-style:italic;font-variant:normal;font-weight:bold;font-stretch:normal;font-size:70.07266235px;line-height:125%;font-family:'Ubuntu Mono';-inkscape-font-specification:'Ubuntu Mono Bold Italic';letter-spacing:0px;word-spacing:0px;fill:#333333;fill-opacity:1;stroke:none;stroke-width:1.00020397;stroke-linecap:butt;stroke-linejoin:miter;stroke-miterlimit:4;stroke-dasharray:none;stroke-opacity:1"
           id="text10666"><path
             d="m 128.73068,-12.290917 -1.68175,7.1474112 -11.49192,0 -8.68901,36.2275668 -8.618933,0 8.689013,-36.2275668 -11.421847,0 1.681744,-7.1474112 31.532703,0 z"
             style="fill:#333333;fill-opacity:1;stroke:none;stroke-width:1.00020397;stroke-miterlimit:4;stroke-dasharray:none;stroke-opacity:1"
             id="path10682" /><path
             d="m 135.24743,19.381926 q 0,1.261308 0.42044,2.312398 0.42043,0.981017 1.33138,1.681744 0.98102,0.700726 2.52262,1.121162 1.61167,0.350364 3.99414,0.350364 2.8029,0 5.32552,-0.560582 2.52262,-0.630654 3.71385,-1.191235 l 0.56058,6.516758 q -1.68174,0.840872 -4.69487,1.541598 -3.01312,0.7708 -6.58683,0.7708 -3.99414,0 -6.86712,-0.981018 -2.87298,-1.05109 -4.69487,-2.872979 -1.82189,-1.821889 -2.66276,-4.274432 -0.84087,-2.522616 -0.84087,-5.535741 0,-4.064214 1.33138,-7.848138 1.40145,-3.8539962 3.99414,-6.7269753 2.66276,-2.87297917 6.37662,-4.62479573 3.78392,-1.75181657 8.61893,-1.75181657 4.83502,0 7.91821,2.38247053 3.0832,2.38247057 3.0832,6.65690297 0,3.5737057 -1.75182,6.0963211 -1.75181,2.452544 -4.83501,3.994142 -3.0832,1.541599 -7.28756,2.242325 -4.13428,0.700727 -8.9693,0.700727 z M 145.47804,4.1761583 q -3.22334,0 -6.16639,2.2423252 -2.87298,2.1722526 -3.99414,7.0072665 4.41457,0 7.21748,-0.560582 2.87298,-0.560581 4.48465,-1.401453 1.61167,-0.910944 2.24233,-1.9620343 0.63065,-1.05109 0.63065,-1.9620346 0,-1.6116712 -1.19124,-2.4525432 -1.12116,-0.9109446 -3.22334,-0.9109446 z"
             style="fill:#333333;fill-opacity:1;stroke:none;stroke-width:1.00020397;stroke-miterlimit:4;stroke-dasharray:none;stroke-opacity:1"
             id="path10684" /><path
             d="m 173.22682,-1.8500906 4.83501,10.5108993 q 2.10218,-2.5226158 4.13429,-5.185377 2.0321,-2.73283383 3.78392,-5.3255223 l 9.10945,0 q -2.66276,3.7839237 -5.81603,7.8481381 -3.15327,3.9941418 -7.28756,8.4087195 2.45254,4.624796 4.20436,8.548865 1.82189,3.924069 3.22334,8.128429 l -8.82915,0 q -1.12117,-2.943052 -2.38247,-5.675886 -1.19124,-2.802906 -2.24233,-4.975159 l -9.24959,10.651045 -9.45981,0 14.92548,-16.747367 -7.98829,-16.1867846 9.03938,0 z"
             style="fill:#333333;fill-opacity:1;stroke:none;stroke-width:1.00020397;stroke-miterlimit:4;stroke-dasharray:none;stroke-opacity:1"
             id="path10686" /><path
             d="m 205.88068,5.2973209 -6.58683,0 1.75181,-7.1474115 6.51676,0 1.96204,-8.2685744 9.03937,-1.401453 -2.38247,9.6700274 12.543,0 -1.75181,7.1474115 -12.47294,0 -3.08319,12.8232971 q -0.35037,1.751817 -0.35037,2.732834 0,2.10218 1.40146,2.802906 1.47152,0.700727 3.29341,0.700727 1.89196,0 3.854,-0.420436 2.03211,-0.490509 3.92407,-1.261308 l -0.0701,7.217484 q -2.17225,0.981018 -4.83501,1.471526 -2.59269,0.490509 -5.18538,0.490509 -5.60581,0 -8.40872,-2.382471 -2.73283,-2.452543 -2.73283,-7.077338 0,-1.121163 0.14015,-2.242326 0.14014,-1.191235 0.4905,-2.522616 l 2.94306,-12.3327881 z"
             style="fill:#333333;fill-opacity:1;stroke:none;stroke-width:1.00020397;stroke-miterlimit:4;stroke-dasharray:none;stroke-opacity:1"
             id="path10688" /><path
             d="m 293.82187,30.173116 q -2.59269,0.981017 -4.90509,1.331381 -2.24232,0.350363 -4.20436,0.350363 -4.97516,0 -7.35763,-2.382471 -2.38247,-2.452543 -2.38247,-6.86712 0,-2.312398 0.7708,-5.395595 l 2.80291,-11.9123531 -9.10945,0 1.75182,-7.1474115 17.72838,0 -4.76494,20.1108536 q -0.42044,1.471526 -0.42044,2.592689 0,3.503633 3.57371,3.503633 1.19124,0 2.80291,-0.210218 1.61167,-0.280291 3.5737,-0.981017 l 0.14015,7.007266 z m -8.89923,-36.0173484 q -2.24233,0 -3.64378,-1.1912353 -1.33138,-1.1912352 -1.33138,-3.7138513 0,-1.33138 0.49051,-2.452543 0.49051,-1.191235 1.26131,-1.962034 0.84087,-0.7708 1.89196,-1.191236 1.05109,-0.490508 2.17225,-0.490508 2.03211,0 3.50363,1.191235 1.5416,1.191235 1.5416,3.853996 0,1.261308 -0.56058,2.3824708 -0.49051,1.1211626 -1.33138,1.8919619 -0.84087,0.7707993 -1.89196,1.2613079 -1.05109,0.420436 -2.10218,0.420436 z"
             style="fill:#333333;fill-opacity:1;stroke:none;stroke-width:1.00020397;stroke-miterlimit:4;stroke-dasharray:none;stroke-opacity:1"
             id="path10690" /><path
             d="m 307.34589,-0.44863739 q 2.17225,-0.70072661 5.67589,-1.40145321 3.50363,-0.7007267 7.49777,-0.7007267 5.88611,0 8.40872,2.52261588 2.59269,2.52261582 2.59269,7.00726622 0,1.1912353 -0.21022,2.5926885 -0.14014,1.4014537 -0.49051,2.9430517 l -4.55472,18.569256 -8.61894,0 4.27444,-17.448093 q 0.21021,-1.121163 0.4905,-2.312398 0.28029,-1.191235 0.28029,-2.3824706 0,-1.6116713 -0.91094,-2.8029065 -0.84087,-1.261308 -3.15327,-1.261308 -0.98102,0 -2.03211,0.210218 -1.05109,0.1401454 -2.0321,0.5605813 l -6.1664,25.4363768 -8.61894,0 7.56785,-31.53269839 z"
             style="fill:#333333;fill-opacity:1;stroke:none;stroke-width:1.00020397;stroke-miterlimit:4;stroke-dasharray:none;stroke-opacity:1"
             id="path10692" /><path
             d="m 354.64494,-2.5508173 q 6.51676,0 9.52988,3.36348783 3.01313,3.29341517 3.01313,8.54886477 0,4.3445047 -1.26131,8.4087197 -1.26131,4.064214 -3.854,7.217484 -2.52261,3.083197 -6.44668,4.975159 -3.92407,1.821889 -9.17952,1.821889 -1.40146,0 -2.17226,-0.07007 -0.77079,-0.07007 -1.33138,-0.210218 l -2.73283,11.141553 -8.61894,0 10.37076,-42.95454207 q 1.47152,-0.63065396 3.15327,-1.05108993 1.68174,-0.420436 3.36348,-0.7007266 1.75182,-0.2802907 3.29342,-0.3503633 1.61167,-0.1401454 2.87298,-0.1401454 z M 344.69462,24.21694 q 0.35036,0.140145 0.7708,0.140145 0.42044,0 0.91094,0 2.87298,0 5.18538,-1.121163 2.3124,-1.191235 3.854,-3.153269 1.61167,-1.962035 2.45254,-4.554723 0.84087,-2.662762 0.84087,-5.5357407 0,-1.0510899 -0.21021,-2.0321072 -0.21022,-0.9810173 -0.7708,-1.7518166 -0.56059,-0.7707993 -1.61168,-1.1912352 -1.05109,-0.4905087 -2.73283,-0.4905087 -1.40145,0 -2.38247,0.1401454 -0.91094,0.1401453 -1.68174,0.3503633 l -4.6248,19.1999097 z"
             style="fill:#333333;fill-opacity:1;stroke:none;stroke-width:1.00020397;stroke-miterlimit:4;stroke-dasharray:none;stroke-opacity:1"
             id="path10694" /><path
             d="m 382.25357,31.85486 q -5.67589,0 -7.91821,-2.662761 -2.24233,-2.662761 -2.24233,-7.287557 0,-3.223343 0.98102,-7.497775 l 3.92407,-16.2568576 8.61894,0 -3.71386,15.6962766 q -0.56058,2.10218 -0.84087,3.853996 -0.28029,1.681744 -0.28029,3.013125 0,3.643778 3.50364,3.643778 1.96203,0 3.08319,-0.770799 1.19124,-0.840872 2.24233,-2.032107 0.14014,-0.981018 0.21022,-1.891962 0.14014,-0.910945 0.4905,-2.10218 l 4.6248,-19.4101276 8.61894,0 -4.69487,19.4801996 q -0.28029,1.261308 -0.49051,2.522616 -0.14015,1.191236 -0.14015,2.452544 0,2.032107 0.42044,3.994141 0.42044,1.891962 1.05109,3.783924 l -7.56785,1.261308 q -0.14014,-0.280291 -0.35036,-0.700727 -0.21022,-0.420436 -0.42044,-0.910944 -0.21021,-0.490509 -0.35036,-0.840872 -0.14014,-0.420436 -0.21022,-0.630654 -1.40145,1.05109 -3.64378,2.172252 -2.24232,1.121163 -4.90508,1.121163 z"
             style="fill:#333333;fill-opacity:1;stroke:none;stroke-width:1.00020397;stroke-miterlimit:4;stroke-dasharray:none;stroke-opacity:1"
             id="path10696" /><path
             d="m 416.09865,5.2973209 -6.58683,0 1.75181,-7.1474115 6.51676,0 1.96204,-8.2685744 9.03937,-1.401453 -2.38247,9.6700274 12.54301,0 -1.75182,7.1474115 -12.47293,0 -3.0832,12.8232971 q -0.35036,1.751817 -0.35036,2.732834 0,2.10218 1.40145,2.802906 1.47152,0.700727 3.29341,0.700727 1.89197,0 3.854,-0.420436 2.03211,-0.490509 3.92407,-1.261308 l -0.0701,7.217484 q -2.17226,0.981018 -4.83502,1.471526 -2.59269,0.490509 -5.18537,0.490509 -5.60582,0 -8.40872,-2.382471 -2.73284,-2.452543 -2.73284,-7.077338 0,-1.121163 0.14015,-2.242326 0.14014,-1.191235 0.49051,-2.522616 l 2.94305,-12.3327881 z"
             style="fill:#333333;fill-opacity:1;stroke:none;stroke-width:1.00020397;stroke-miterlimit:4;stroke-dasharray:none;stroke-opacity:1"
             id="path10698" /><path
             d="m 436.27959,35.148275 31.32248,0 -1.82189,7.497775 -31.32248,0 1.82189,-7.497775 z"
             style="fill:#333333;fill-opacity:1;stroke:none;stroke-width:1.00020397;stroke-miterlimit:4;stroke-dasharray:none;stroke-opacity:1"
             id="path10700" /></g></g></g></g></svg>