<?xml version="1.0" encoding="UTF-8" standalone="no"?>
<!-- Generator: Adobe Illustrator 16.0.0, SVG Export Plug-In . SVG Version: 6.00 Build 0)  -->

<svg
   xmlns:dc="http://purl.org/dc/elements/1.1/"
   xmlns:cc="http://creativecommons.org/ns#"
   xmlns:rdf="http://www.w3.org/1999/02/22-rdf-syntax-ns#"
   xmlns:svg="http://www.w3.org/2000/svg"
   xmlns="http://www.w3.org/2000/svg"
   xmlns:sodipodi="http://sodipodi.sourceforge.net/DTD/sodipodi-0.dtd"
   xmlns:inkscape="http://www.inkscape.org/namespaces/inkscape"
   version="1.1"
   id="Layer_1"
   x="0px"
   y="0px"
   width="359.97238"
   height="263.29324"
   viewBox="0 0 359.97238 263.29324"
   enable-background="new 0 0 400 400"
   xml:space="preserve"
   inkscape:version="0.91 r13725"
   sodipodi:docname="setupVariables.svg"><metadata
     id="metadata186"><rdf:RDF><cc:Work
         rdf:about=""><dc:format>image/svg+xml</dc:format><dc:type
           rdf:resource="http://purl.org/dc/dcmitype/StillImage" /><dc:title></dc:title></cc:Work></rdf:RDF></metadata><defs
     id="defs184" /><sodipodi:namedview
     pagecolor="#333333"
     bordercolor="#666666"
     borderopacity="1"
     objecttolerance="10"
     gridtolerance="10"
     guidetolerance="10"
     inkscape:pageopacity="0"
     inkscape:pageshadow="2"
     inkscape:window-width="640"
     inkscape:window-height="480"
     id="namedview182"
     showgrid="false"
     fit-margin-top="0"
     fit-margin-left="0"
     fit-margin-right="0"
     fit-margin-bottom="0"
     inkscape:zoom="0.59"
     inkscape:cx="178.23738"
     inkscape:cy="172.57425"
     inkscape:window-x="0"
     inkscape:window-y="0"
     inkscape:window-maximized="0"
     inkscape:current-layer="Layer_1" /><g
     id="g162"
     transform="translate(-21.762625,-109.281)"><g
       id="g164"><path
         d="m 208.106,219.122 -12.226,12.227 -9.495,9.494 -6.863,6.862 c -0.011,-0.044 -0.021,-0.076 -0.021,-0.076 0,0 -2.259,2.769 -6.391,1.66 0,0 0,0.023 0,0.037 l -17.64,-4.727 c -4.391,-1.179 -5.715,-5.671 -5.733,-5.731 l -4.74,-17.692 c -0.839,-3.141 0.553,-5.193 1.272,-6.002 l 7.223,-7.223 9.494,-9.494 12.306,-12.306 c 2.927,-2.926 -0.312,-4.452 -0.42,-4.503 -17.071,-4.231 -35.869,0.309 -49.213,13.651 -13.062,13.062 -17.685,31.353 -13.9,48.134 l -0.005,-0.001 c 0,0 1,4.635 -3.958,9.593 L 27.872,332.95 c -8.146,8.146 -8.146,21.354 0.001,29.501 l 4.013,4.013 c 8.148,8.147 21.355,8.147 29.501,0 l 80.973,-80.972 c 3.729,-3.138 7.074,-3.115 8.138,-3.008 16.891,3.949 35.372,-0.641 48.539,-13.809 13.352,-13.351 17.889,-32.162 13.645,-49.24 -0.228,-0.417 -1.827,-3.063 -4.576,-0.313 z M 50.159,354.762 c -2.923,2.923 -7.663,2.923 -10.584,0 -2.924,-2.923 -2.924,-7.662 0,-10.585 2.921,-2.923 7.661,-2.923 10.584,0 2.924,2.922 2.924,7.662 0,10.585 z"
         id="path166"
         inkscape:connector-curvature="0"
         style="fill:#333333" /><path
         d="m 378.237,190.898 -179.378,0 c -0.928,0 -1.818,0.369 -2.475,1.025 l -11.523,11.523 -17.388,-4.66 -15.938,15.939 5.833,21.77 21.77,5.834 15.938,-15.938 -4.916,-18.347 10.147,-10.147 177.928,0 c 1.933,0 3.5,-1.567 3.5,-3.5 0,-1.933 -1.565,-3.499 -3.498,-3.499 z m -204.931,40.27 c -5.858,0 -10.61,-4.75 -10.61,-10.61 0,-5.859 4.752,-10.609 10.61,-10.609 5.86,0 10.61,4.75 10.61,10.609 0,5.86 -4.75,10.609 -10.61,10.61 z"
         id="path168"
         inkscape:connector-curvature="0"
         style="fill:#333333" /></g><g
       id="g170"><g
         id="g172"><path
           d="m 185.489,141.718 -8.021,-19.426 11.442,0 4.099,11.905 8.697,-11.905 12.618,0 -16.646,19.997 8.697,19.854 -11.619,0 -4.456,-12.19 -9.41,12.19 -12.476,0 17.075,-20.425 z"
           id="path174"
           inkscape:connector-curvature="0"
           style="fill:#333333" /><path
           d="m 233.573,133.377 0,-7.735 33.934,0 0,7.735 -33.934,0 z m 0,13.866 0,-7.806 33.934,0 0,7.806 -33.934,0 z"
           id="path176"
           inkscape:connector-curvature="0"
           style="fill:#333333" /><path
           d="m 325.501,151.342 -6.06,0 -2.245,10.8 -10.444,0 2.245,-10.8 -21.029,0 1.711,-8.341 27.445,-32.971 11.086,0 -6.951,32.757 6.061,0 -1.819,8.555 z m -14.686,-8.554 2.067,-8.84 c 0.285,-1.378 0.76,-3.327 1.426,-5.846 0.665,-2.519 1.164,-4.194 1.497,-5.026 l -0.214,0 c -0.832,1.497 -2.4,3.648 -4.705,6.452 l -11.157,13.26 11.086,0 z"
           id="path178"
           inkscape:connector-curvature="0"
           style="fill:#333333" /><path
           d="m 361.608,162.143 -34.289,0 1.532,-7.592 17.003,-15.113 c 4.277,-3.778 7.229,-6.802 8.857,-9.072 1.627,-2.269 2.441,-4.402 2.441,-6.398 0,-1.782 -0.487,-3.142 -1.461,-4.082 -0.976,-0.938 -2.281,-1.408 -3.922,-1.408 -1.568,0 -3.178,0.398 -4.829,1.194 -1.652,0.797 -3.689,2.205 -6.113,4.224 l -5.204,-7.236 c 3.137,-2.661 6.131,-4.556 8.982,-5.686 2.852,-1.128 5.821,-1.693 8.911,-1.693 4.515,0 8.091,1.165 10.729,3.493 2.637,2.329 3.956,5.406 3.956,9.232 0,2.543 -0.487,4.931 -1.462,7.165 -0.975,2.234 -2.43,4.468 -4.366,6.701 -1.937,2.234 -5.104,5.145 -9.499,8.733 l -9.588,7.913 0,0.356 20.246,0 -1.924,9.269 z"
           id="path180"
           inkscape:connector-curvature="0"
           style="fill:#333333" /></g></g></g></svg>
