<?xml version="1.0" encoding="UTF-8" standalone="no"?>
<!-- Generator: Adobe Illustrator 16.0.0, SVG Export Plug-In . SVG Version: 6.00 Build 0)  -->

<svg
   xmlns:dc="http://purl.org/dc/elements/1.1/"
   xmlns:cc="http://creativecommons.org/ns#"
   xmlns:rdf="http://www.w3.org/1999/02/22-rdf-syntax-ns#"
   xmlns:svg="http://www.w3.org/2000/svg"
   xmlns="http://www.w3.org/2000/svg"
   xmlns:sodipodi="http://sodipodi.sourceforge.net/DTD/sodipodi-0.dtd"
   xmlns:inkscape="http://www.inkscape.org/namespaces/inkscape"
   version="1.1"
   id="Layer_1"
   x="0px"
   y="0px"
   width="323.79199"
   height="323.79199"
   viewBox="0 0 323.79199 323.79199"
   enable-background="new 0 0 400 400"
   xml:space="preserve"
   inkscape:version="0.91 r13725"
   sodipodi:docname="showDownload.svg"><metadata
     id="metadata208"><rdf:RDF><cc:Work
         rdf:about=""><dc:format>image/svg+xml</dc:format><dc:type
           rdf:resource="http://purl.org/dc/dcmitype/StillImage" /><dc:title></dc:title></cc:Work></rdf:RDF></metadata><defs
     id="defs206" /><sodipodi:namedview
     pagecolor="#333333"
     bordercolor="#666666"
     borderopacity="1"
     objecttolerance="10"
     gridtolerance="10"
     guidetolerance="10"
     inkscape:pageopacity="0"
     inkscape:pageshadow="2"
     inkscape:window-width="640"
     inkscape:window-height="480"
     id="namedview204"
     showgrid="false"
     fit-margin-top="0"
     fit-margin-left="0"
     fit-margin-right="0"
     fit-margin-bottom="0"
     inkscape:zoom="0.59"
     inkscape:cx="161.896"
     inkscape:cy="161.896"
     inkscape:window-x="0"
     inkscape:window-y="0"
     inkscape:window-maximized="0"
     inkscape:current-layer="Layer_1" /><g
     id="g198"
     style="fill:#333333"
     transform="translate(-38.104,-38.104)"><path
       d="m 200,47.104 c 40.84,0 79.235,15.904 108.113,44.782 28.879,28.878 44.782,67.273 44.782,108.113 0,40.84 -15.903,79.235 -44.782,108.113 -28.878,28.88 -67.273,44.784 -108.113,44.784 -40.84,0 -79.235,-15.904 -108.113,-44.782 C 63.008,279.235 47.104,240.84 47.104,200 47.104,159.16 63.007,120.765 91.886,91.887 120.765,63.008 159.16,47.104 200,47.104 m 0,-9 c -89.413,0 -161.896,72.483 -161.896,161.896 0,89.413 72.483,161.896 161.896,161.896 89.413,0 161.896,-72.484 161.896,-161.896 C 361.896,110.588 289.413,38.104 200,38.104 l 0,0 z"
       id="path200"
       style="fill:#333333"
       inkscape:connector-curvature="0" /><path
       d="m 200,74.473 c -69.327,0 -125.527,56.2 -125.527,125.527 0,69.326 56.2,125.527 125.527,125.527 69.328,0 125.527,-56.201 125.527,-125.527 C 325.527,130.673 269.328,74.473 200,74.473 Z m -38.478,114.129 15.521,0 c 2.763,0 5.029,-2.264 5.029,-5.03 l 0,-40.233 35.856,0 0,40.233 c 0,2.767 2.265,5.03 5.026,5.03 l 15.52,0 c 2.77,0 3.486,1.656 1.606,3.682 l -36.654,39.403 c -1.888,2.023 -4.966,2.023 -6.849,0 l -36.662,-39.403 c -1.882,-2.026 -1.155,-3.682 1.607,-3.682 z m 98.69,62.401 c 0,3.126 -2.53,5.659 -5.657,5.659 l -109.105,0 c -3.132,0 -5.66,-2.533 -5.66,-5.659 l 0,-25.452 c 0,-3.126 2.528,-5.657 5.66,-5.657 3.122,0 5.657,2.531 5.657,5.657 l 0,19.795 97.787,0 0,-19.795 c 0,-3.126 2.533,-5.657 5.66,-5.657 3.127,0 5.657,2.531 5.657,5.657 l 0,25.452 z"
       id="path202"
       style="fill:#333333"
       inkscape:connector-curvature="0" /></g></svg>
