<?xml version="1.0" encoding="UTF-8" standalone="no"?>
<!-- Generator: Adobe Illustrator 16.0.0, SVG Export Plug-In . SVG Version: 6.00 Build 0)  -->

<svg
   xmlns:dc="http://purl.org/dc/elements/1.1/"
   xmlns:cc="http://creativecommons.org/ns#"
   xmlns:rdf="http://www.w3.org/1999/02/22-rdf-syntax-ns#"
   xmlns:svg="http://www.w3.org/2000/svg"
   xmlns="http://www.w3.org/2000/svg"
   xmlns:sodipodi="http://sodipodi.sourceforge.net/DTD/sodipodi-0.dtd"
   xmlns:inkscape="http://www.inkscape.org/namespaces/inkscape"
   version="1.1"
   id="Layer_1"
   x="0px"
   y="0px"
   width="358.94"
   height="317.99399"
   viewBox="0 0 358.94 317.99399"
   enable-background="new 0 0 400 400"
   xml:space="preserve"
   inkscape:version="0.91 r13725"
   sodipodi:docname="table.svg"><metadata
     id="metadata276"><rdf:RDF><cc:Work
         rdf:about=""><dc:format>image/svg+xml</dc:format><dc:type
           rdf:resource="http://purl.org/dc/dcmitype/StillImage" /><dc:title></dc:title></cc:Work></rdf:RDF></metadata><defs
     id="defs274" /><sodipodi:namedview
     pagecolor="#ffffff"
     bordercolor="#666666"
     borderopacity="1"
     objecttolerance="10"
     gridtolerance="10"
     guidetolerance="10"
     inkscape:pageopacity="0"
     inkscape:pageshadow="2"
     inkscape:window-width="1239"
     inkscape:window-height="992"
     id="namedview272"
     showgrid="false"
     fit-margin-top="0"
     fit-margin-left="0"
     fit-margin-right="0"
     fit-margin-bottom="0"
     inkscape:zoom="1.18"
     inkscape:cx="139.93207"
     inkscape:cy="107.53265"
     inkscape:window-x="0"
     inkscape:window-y="0"
     inkscape:window-maximized="0"
     inkscape:current-layer="g242" /><g
     id="g242"
     style="fill:#00ffff"
     transform="translate(-20.53,-41.003)"><g
       id="g4197"
       style="fill:#333333;fill-opacity:1"><path
         inkscape:connector-curvature="0"
         style="fill:#333333;fill-opacity:1"
         id="path246"
         d="m 145.122,358.997 111.255,0 0,-51.175 -111.255,0 0,51.175 z m 7,-44.175 97.255,0 0,37.175 -97.255,0 0,-37.175 z" /><path
         inkscape:connector-curvature="0"
         style="fill:#333333;fill-opacity:1"
         id="path254"
         d="m 22.029,358.997 111.255,0 0,-51.175 -111.255,0 0,51.175 z m 7,-44.175 97.255,0 0,37.175 -97.255,0 0,-37.175 z" /><path
         inkscape:connector-curvature="0"
         style="fill:#333333;fill-opacity:1"
         id="path256"
         d="m 268.215,358.997 111.255,0 0,-51.175 -111.255,0 0,51.175 z m 7,-44.175 97.255,0 0,37.175 -97.255,0 0,-37.175 z" /></g><path
       d="m 368.985,41.003 -337.751,0 c -11.387,0 -10.678,10.852 -10.678,10.852 0,0 -0.02,-0.019 -0.026,-0.024 l 0,68.461 358.94,0 0,-71.009 c -0.569,-3.209 -2.699,-8.28 -10.485,-8.28 z"
       id="path270"
       style="fill:#333333;fill-opacity:1"
       inkscape:connector-curvature="0" /><g
       id="g4212"
       style="fill:#333333;fill-opacity:1"><path
         inkscape:connector-curvature="0"
         style="fill:#333333;fill-opacity:1"
         id="path244"
         d="m 268.215,184.472 111.255,0 0,-51.175 -111.255,0 0,51.175 z m 7,-44.175 97.255,0 0,37.175 -97.255,0 0,-37.175 z" /><path
         inkscape:connector-curvature="0"
         style="fill:#333333;fill-opacity:1"
         id="path250"
         d="m 22.029,184.472 111.255,0 0,-51.175 -111.255,0 0,51.175 z m 7,-44.175 97.255,0 0,37.175 -97.255,0 0,-37.175 z" /><path
         d="m 145.122,184.472 111.255,0 0,-51.175 -111.255,0 0,51.175 z m 7,-44.175 97.255,0 0,37.175 -97.255,0 0,-37.175 z"
         id="path4176"
         style="fill:#333333;fill-opacity:1"
         inkscape:connector-curvature="0" /></g><g
       id="g4207"
       transform="translate(0,-0.14927673)"
       style="fill:#333333;fill-opacity:1"><path
         inkscape:connector-curvature="0"
         style="fill:#333333;fill-opacity:1"
         id="path248"
         d="m 22.029,242.79678 111.255,0 0,-51.176 -111.255,0 0,51.176 z m 7,-44.175 97.255,0 0,37.176 -97.255,0 0,-37.176 z" /><path
         d="m 268.215,242.79628 111.255,0 0,-51.175 -111.255,0 0,51.175 z m 7,-44.175 97.255,0 0,37.175 -97.255,0 0,-37.175 z"
         id="path4178"
         style="fill:#333333;fill-opacity:1"
         inkscape:connector-curvature="0" /><path
         inkscape:connector-curvature="0"
         style="fill:#333333;fill-opacity:1"
         id="path4180"
         d="m 145.122,242.79628 111.255,0 0,-51.175 -111.255,0 0,51.175 z m 7,-44.175 97.255,0 0,37.175 -97.255,0 0,-37.175 z" /></g><g
       id="g4202"
       transform="translate(0,-0.29956818)"
       style="fill:#333333;fill-opacity:1"><path
         inkscape:connector-curvature="0"
         style="fill:#333333;fill-opacity:1"
         id="path252"
         d="m 22.029,301.12157 111.255,0 0,-51.175 -111.255,0 0,51.175 z m 7,-44.175 97.255,0 0,37.175 -97.255,0 0,-37.175 z" /><path
         inkscape:connector-curvature="0"
         style="fill:#333333;fill-opacity:1"
         id="path4193"
         d="m 268.215,301.12157 111.255,0 0,-51.175 -111.255,0 0,51.175 z m 7,-44.175 97.255,0 0,37.175 -97.255,0 0,-37.175 z" /><path
         d="m 145.122,301.12157 111.255,0 0,-51.175 -111.255,0 0,51.175 z m 7,-44.175 97.255,0 0,37.175 -97.255,0 0,-37.175 z"
         id="path4195"
         style="fill:#333333;fill-opacity:1"
         inkscape:connector-curvature="0" /></g></g></svg>