<?xml version="1.0" encoding="UTF-8" standalone="no"?>
<!-- Generator: Adobe Illustrator 16.0.0, SVG Export Plug-In . SVG Version: 6.00 Build 0)  -->

<svg
   xmlns:dc="http://purl.org/dc/elements/1.1/"
   xmlns:cc="http://creativecommons.org/ns#"
   xmlns:rdf="http://www.w3.org/1999/02/22-rdf-syntax-ns#"
   xmlns:svg="http://www.w3.org/2000/svg"
   xmlns="http://www.w3.org/2000/svg"
   xmlns:sodipodi="http://sodipodi.sourceforge.net/DTD/sodipodi-0.dtd"
   xmlns:inkscape="http://www.inkscape.org/namespaces/inkscape"
   version="1.1"
   id="Layer_1"
   x="0px"
   y="0px"
   width="375.60782"
   height="369.69196"
   viewBox="0 0 375.60782 369.69196"
   enable-background="new 0 0 400 400"
   xml:space="preserve"
   inkscape:version="0.91 r13725"
   sodipodi:docname="troubleshoot.svg"><metadata
     id="metadata301"><rdf:RDF><cc:Work
         rdf:about=""><dc:format>image/svg+xml</dc:format><dc:type
           rdf:resource="http://purl.org/dc/dcmitype/StillImage" /><dc:title></dc:title></cc:Work></rdf:RDF></metadata><defs
     id="defs299" /><sodipodi:namedview
     pagecolor="#333333"
     bordercolor="#666666"
     borderopacity="1"
     objecttolerance="10"
     gridtolerance="10"
     guidetolerance="10"
     inkscape:pageopacity="0"
     inkscape:pageshadow="2"
     inkscape:window-width="667"
     inkscape:window-height="480"
     id="namedview297"
     showgrid="false"
     fit-margin-top="0"
     fit-margin-left="0"
     fit-margin-right="0"
     fit-margin-bottom="0"
     inkscape:zoom="0.59"
     inkscape:cx="173.99775"
     inkscape:cy="184.461"
     inkscape:window-x="0"
     inkscape:window-y="0"
     inkscape:window-maximized="0"
     inkscape:current-layer="g279" /><g
     id="g279"
     style="fill:#333333"
     transform="translate(-8.363491,-14.769046)"><path
       d="m 251.374,99.251 c 6.712,1.796 12.408,1.634 16.827,0.796 1.961,3.525 4.437,6.87 7.41,9.927 -2.276,2.493 -6.017,5.481 -11.875,7.428 -0.738,0.245 -1.377,0.65 -1.892,1.165 -1.251,1.251 -1.767,3.147 -1.171,4.942 0.841,2.531 3.576,3.902 6.107,3.062 7.881,-2.617 13.011,-6.772 16.223,-10.392 2.639,1.788 5.409,3.264 8.255,4.436 0.163,2.631 -0.129,9.429 -6.18,17.002 -1.665,2.084 -1.326,5.124 0.758,6.789 2.087,1.666 5.132,1.33 6.79,-0.759 6.244,-7.812 7.93,-15.328 8.241,-20.287 12.226,2.022 24.727,-1.315 33.627,-10.216 8.899,-8.899 12.237,-21.401 10.216,-33.627 4.959,-0.311 12.475,-1.997 20.287,-8.24 2.086,-1.661 2.424,-4.705 0.758,-6.79 -1.665,-2.084 -4.704,-2.423 -6.789,-0.758 -7.568,6.047 -14.366,6.343 -17.001,6.179 -1.172,-2.845 -2.647,-5.615 -4.436,-8.255 3.619,-3.212 7.774,-8.342 10.391,-16.222 0.841,-2.531 -0.529,-5.267 -3.062,-6.107 -1.795,-0.596 -3.69,-0.081 -4.942,1.171 -0.515,0.515 -0.92,1.153 -1.165,1.892 -1.954,5.883 -4.927,9.611 -7.419,11.881 -3.06,-2.978 -6.406,-5.454 -9.935,-7.417 0.837,-4.419 1,-10.115 -0.796,-16.827 -0.688,-2.576 -3.337,-4.107 -5.914,-3.418 -0.85,0.228 -1.586,0.667 -2.165,1.246 -1.181,1.181 -1.717,2.941 -1.254,4.669 1.098,4.104 1.23,7.613 0.945,10.479 -11.115,-3.274 -22.934,-2.021 -32.428,3.917 l 38.752,42.631 c 2.01,2.211 1.847,5.632 -0.363,7.642 -2.077,1.887 -5.237,1.842 -7.277,-0.001 L 268.265,58.438 c -5.937,9.494 -7.19,21.312 -3.918,32.426 -2.864,0.286 -6.374,0.153 -10.478,-0.944 -1.728,-0.463 -3.488,0.073 -4.668,1.253 -0.58,0.58 -1.02,1.316 -1.247,2.165 -0.688,2.576 0.842,5.224 3.42,5.913 z"
       id="path281"
       style="fill:#333333"
       inkscape:connector-curvature="0" /><path
       d="m 338.788,117.437 c -5.204,5.205 -11.643,8.503 -18.534,9.948 0.32,0.369 0.637,0.74 0.987,1.092 7.893,7.893 20.692,7.893 28.586,-0.001 7.894,-7.894 7.894,-20.693 0,-28.586 -0.351,-0.351 -0.722,-0.667 -1.091,-0.987 -1.445,6.892 -4.744,13.329 -9.948,18.534 z"
       id="path283"
       style="fill:#333333"
       inkscape:connector-curvature="0" /><path
       d="m 190.604,121.014 c -50.824,0 -92.172,41.348 -92.172,92.172 0,23.875 9.125,45.658 24.07,62.047 l -14.741,14.741 c -6.241,-1.769 -13.229,-0.206 -18.142,4.707 L 31.421,352.88 c -7.225,7.225 -7.225,18.938 0,26.162 3.612,3.612 8.347,5.419 13.082,5.419 4.735,0 9.469,-1.807 13.082,-5.419 l 58.199,-58.199 c 4.913,-4.913 6.476,-11.9 4.707,-18.142 l 15.393,-15.393 c 15.314,11.336 34.248,18.049 54.721,18.049 50.824,0 92.171,-41.348 92.171,-92.172 0,-50.824 -41.348,-92.171 -92.172,-92.171 z m 0,161.343 c -38.142,0 -69.172,-31.03 -69.172,-69.172 0,-38.142 31.03,-69.172 69.172,-69.172 38.141,0 69.171,31.03 69.171,69.172 0,38.142 -31.029,69.172 -69.171,69.172 z"
       id="path285"
       style="fill:#333333"
       inkscape:connector-curvature="0" /><path
       d="m 246.911,189.287 c -6.711,-1.027 -13.49,-1.955 -20.332,-2.785 -11.643,-11.471 -23.683,-22.977 -36.08,-34.485 -10.09,0.017 -19.606,2.502 -27.999,6.862 8.797,8.021 17.431,16.044 25.87,24.058 -16.356,-1.069 -33.035,-1.588 -49.986,-1.575 -4.394,7.183 -7.332,15.342 -8.442,24.064 29.482,-0.339 58.104,0.975 85.639,3.961 10.322,10.277 20.313,20.518 29.949,30.694 3.994,-8.123 6.246,-17.25 6.246,-26.896 0,-8.475 -1.735,-16.552 -4.865,-23.898 z"
       id="path287"
       style="fill:#333333"
       inkscape:connector-curvature="0" /><path
       d="m 381.33,235.83 c -31.931,-14.492 -56.143,-22.725 -90.869,-30.59 0.207,2.621 0.315,5.271 0.315,7.945 0,0.453 -0.011,0.903 -0.017,1.354 32.863,7.566 56.252,15.598 86.851,29.485 0.604,0.273 1.235,0.403 1.857,0.403 1.711,0 3.347,-0.981 4.101,-2.642 1.027,-2.261 0.025,-4.928 -2.238,-5.955 z"
       id="path289"
       style="fill:#333333"
       inkscape:connector-curvature="0" /><path
       d="m 281.649,254.937 c -1.346,2.924 -2.828,5.771 -4.439,8.535 33.988,38.146 62.811,75.348 85.829,110.811 0.862,1.328 2.305,2.051 3.779,2.051 0.839,0 1.689,-0.235 2.445,-0.727 2.085,-1.353 2.678,-4.14 1.325,-6.225 -23.777,-36.633 -53.657,-75.068 -88.939,-114.445 z"
       id="path291"
       style="fill:#333333"
       inkscape:connector-curvature="0" /><path
       d="m 10.181,22.883 c 0.639,0.476 59.936,44.627 128.5,104.666 2.725,-1.657 5.535,-3.188 8.421,-4.586 C 77.208,61.568 16.196,16.141 15.547,15.658 c -1.997,-1.484 -4.815,-1.067 -6.296,0.93 -1.482,1.995 -1.065,4.813 0.93,6.295 z"
       id="path293"
       style="fill:#333333"
       inkscape:connector-curvature="0" /><path
       d="m 93.094,190.214 c -53.61,3.372 -80.425,12.153 -81.659,12.565 -2.355,0.789 -3.625,3.336 -2.838,5.691 0.629,1.885 2.385,3.076 4.269,3.076 0.471,0 0.951,-0.074 1.422,-0.231 0.289,-0.096 26.187,-8.531 77.104,-11.965 0.429,-3.091 0.997,-6.14 1.702,-9.136 z"
       id="path295"
       style="fill:#333333"
       inkscape:connector-curvature="0" /></g></svg>