<svg xmlns:dc="http://purl.org/dc/elements/1.1/" xmlns:cc="http://creativecommons.org/ns#" xmlns:rdf="http://www.w3.org/1999/02/22-rdf-syntax-ns#" xmlns:svg="http://www.w3.org/2000/svg" xmlns="http://www.w3.org/2000/svg" xmlns:sodipodi="http://sodipodi.sourceforge.net/DTD/sodipodi-0.dtd" xmlns:inkscape="http://www.inkscape.org/namespaces/inkscape" version="1.1" x="0px" y="0px" viewBox="0 0 100 125"><g transform="translate(0,-952.36218)"><path style="font-size:medium;font-style:normal;font-variant:normal;font-weight:normal;font-stretch:normal;text-indent:0;text-align:start;text-decoration:none;line-height:normal;letter-spacing:normal;word-spacing:normal;text-transform:none;direction:ltr;block-progression:tb;writing-mode:lr-tb;text-anchor:start;baseline-shift:baseline;opacity:1;color:#000000;fill:#000000;fill-opacity:1;stroke:none;stroke-width:6;marker:none;visibility:visible;display:inline;overflow:visible;enable-background:accumulate;font-family:Sans;-inkscape-font-specification:Sans" d="M 50 25 C 31.772352 25 15.593975 34.16591 5.5625 48.25 A 3.0003 3.0003 0 0 0 5.5625 51.71875 C 15.593973 65.80305 31.772354 75 50 75 C 68.227645 75 84.406026 65.80305 94.4375 51.71875 A 3.0003 3.0003 0 0 0 94.4375 48.25 C 84.406024 34.16591 68.227647 25 50 25 z M 50 31 C 65.43884 31 79.122742 38.41419 88.15625 50 C 79.122521 61.5749 65.430305 69 50 69 C 34.569694 69 20.877478 61.5749 11.84375 50 C 20.877257 38.41419 34.561159 31 50 31 z M 50 35 C 41.751262 35 35 41.75124 35 50 C 35 58.2487 41.751262 65 50 65 C 58.248738 65 65 58.2487 65 50 C 65 41.75124 58.248738 35 50 35 z M 50 41 C 55.006097 41 59 44.99388 59 50 C 59 55.0061 55.006097 59 50 59 C 44.993903 59 41 55.0061 41 50 C 41 44.99388 44.993903 41 50 41 z " transform="translate(0,952.36218)"/></g><text x="0" y="115" fill="#000000" font-size="5px" font-weight="bold" font-family="'Helvetica Neue', Helvetica, Arial-Unicode, Arial, Sans-serif">Created by bezier master</text><text x="0" y="120" fill="#000000" font-size="5px" font-weight="bold" font-family="'Helvetica Neue', Helvetica, Arial-Unicode, Arial, Sans-serif">from the Noun Project</text></svg>