<svg xmlns:dc="http://purl.org/dc/elements/1.1/" xmlns:cc="http://creativecommons.org/ns#" xmlns:rdf="http://www.w3.org/1999/02/22-rdf-syntax-ns#" xmlns:svg="http://www.w3.org/2000/svg" xmlns="http://www.w3.org/2000/svg" xmlns:sodipodi="http://sodipodi.sourceforge.net/DTD/sodipodi-0.dtd" xmlns:inkscape="http://www.inkscape.org/namespaces/inkscape" version="1.1" x="0px" y="0px" viewBox="0 0 100 125"><g transform="translate(0,-952.36218)"><path style="font-size:medium;font-style:normal;font-variant:normal;font-weight:normal;font-stretch:normal;text-indent:0;text-align:start;text-decoration:none;line-height:normal;letter-spacing:normal;word-spacing:normal;text-transform:none;direction:ltr;block-progression:tb;writing-mode:lr-tb;text-anchor:start;baseline-shift:baseline;opacity:1;color:#000000;fill:#000000;fill-opacity:1;stroke:none;stroke-width:4;marker:none;visibility:visible;display:inline;overflow:visible;enable-background:accumulate;font-family:Sans;-inkscape-font-specification:Sans" d="m 86.75,10.96875 c -0.436739,0.0631 -0.850501,0.275568 -1.15625,0.59375 l -74,74 c -0.768362,0.73073 -0.789358,2.102008 -0.04373,2.855921 0.745628,0.753913 2.117054,0.74807 2.85623,-0.01217 L 32,70.8125 C 37.637824,72.869395 43.686393,74 50,74 c 17.892689,0 33.768622,-9.00525 43.625,-22.84375 0.489035,-0.676442 0.489035,-1.667308 0,-2.34375 C 88.079388,41.026515 80.615007,34.814985 71.96875,30.84375 l 16.4375,-16.4375 c 0.615143,-0.577741 0.79892,-1.565931 0.432611,-2.326195 C 88.472551,11.31979 87.585183,10.847697 86.75,10.96875 z M 50,26 c -17.892692,0 -33.768621,8.97424 -43.625,22.8125 -0.4890345,0.676442 -0.4890345,1.667308 0,2.34375 4.724594,6.6334 10.856287,12.140927 17.90625,16.09375 L 27.25,64.28125 C 20.746183,60.813772 15.051572,55.932471 10.5625,50 19.762644,37.83309 33.969986,30 50,30 c 3.563225,0 7.026869,0.42061 10.375,1.15625 l 3.3125,-3.3125 C 59.309617,26.663246 54.734442,26 50,26 z m 18.9375,7.875 C 77.045701,37.328257 84.088393,42.92597 89.4375,50 80.236993,62.1588 66.023635,70 50,70 44.828454,70 39.84177,69.173769 35.15625,67.65625 L 41.625,61.1875 C 43.962142,62.951018 46.855416,64 50,64 57.708298,64 64,57.7083 64,50 64,46.855407 62.951018,43.962139 61.1875,41.625 z M 50,36 c -7.708298,0 -14,6.29168 -14,14 0,1.654595 0.280934,3.24291 0.8125,4.71875 l 3.3125,-3.3125 C 40.061178,50.947262 40,50.477319 40,50 c 0,-5.54656 4.453463,-10 10,-10 0.477322,0 0.94726,0.06118 1.40625,0.125 l 3.3125,-3.3125 C 53.24291,36.280935 51.654595,36 50,36 z m 8.34375,8.46875 C 59.390767,46.050559 60,47.953648 60,50 c 0,5.5465 -4.453463,10 -10,10 -2.046343,0 -3.949439,-0.609233 -5.53125,-1.65625 z" transform="translate(0,952.36218)"/></g><text x="0" y="115" fill="#000000" font-size="5px" font-weight="bold" font-family="'Helvetica Neue', Helvetica, Arial-Unicode, Arial, Sans-serif">Created by bezier master</text><text x="0" y="120" fill="#000000" font-size="5px" font-weight="bold" font-family="'Helvetica Neue', Helvetica, Arial-Unicode, Arial, Sans-serif">from the Noun Project</text></svg>