<svg xmlns:dc="http://purl.org/dc/elements/1.1/" xmlns:cc="http://creativecommons.org/ns#" xmlns:rdf="http://www.w3.org/1999/02/22-rdf-syntax-ns#" xmlns:svg="http://www.w3.org/2000/svg" xmlns="http://www.w3.org/2000/svg" xmlns:sodipodi="http://sodipodi.sourceforge.net/DTD/sodipodi-0.dtd" xmlns:inkscape="http://www.inkscape.org/namespaces/inkscape" version="1.1" x="0px" y="0px" viewBox="0 0 100 125"><g transform="translate(0,-952.36218)"><path style="font-size:medium;font-style:normal;font-variant:normal;font-weight:normal;font-stretch:normal;text-indent:0;text-align:start;text-decoration:none;line-height:normal;letter-spacing:normal;word-spacing:normal;text-transform:none;direction:ltr;block-progression:tb;writing-mode:lr-tb;text-anchor:start;baseline-shift:baseline;opacity:1;color:#000000;fill:#000000;fill-opacity:1;stroke:none;stroke-width:4;marker:none;visibility:visible;display:inline;overflow:visible;enable-background:accumulate;font-family:Sans;-inkscape-font-specification:Sans" d="M 50 26 C 32.107308 26 16.231379 34.97424 6.375 48.8125 A 2.0002 2.0002 0 0 0 6.375 51.15625 C 16.231377 64.99475 32.10731 74 50 74 C 67.892689 74 83.768622 64.99475 93.625 51.15625 A 2.0002 2.0002 0 0 0 93.625 48.8125 C 83.768621 34.97424 67.892691 26 50 26 z M 50 30 C 66.030013 30 80.237355 37.83309 89.4375 50 C 80.236993 62.1588 66.023635 70 50 70 C 33.976364 70 19.763006 62.1588 10.5625 50 C 19.762644 37.83309 33.969986 30 50 30 z M 50 36 C 42.291702 36 36 42.29168 36 50 C 36 57.7083 42.291702 64 50 64 C 57.708298 64 64 57.7083 64 50 C 64 42.29168 57.708298 36 50 36 z M 50 40 C 55.546537 40 60 44.45344 60 50 C 60 55.5465 55.546537 60 50 60 C 44.453463 60 40 55.5465 40 50 C 40 44.45344 44.453463 40 50 40 z " transform="translate(0,952.36218)"/></g><text x="0" y="115" fill="#000000" font-size="5px" font-weight="bold" font-family="'Helvetica Neue', Helvetica, Arial-Unicode, Arial, Sans-serif">Created by bezier master</text><text x="0" y="120" fill="#000000" font-size="5px" font-weight="bold" font-family="'Helvetica Neue', Helvetica, Arial-Unicode, Arial, Sans-serif">from the Noun Project</text></svg>