<svg xmlns:dc="http://purl.org/dc/elements/1.1/" xmlns:cc="http://creativecommons.org/ns#" xmlns:rdf="http://www.w3.org/1999/02/22-rdf-syntax-ns#" xmlns:svg="http://www.w3.org/2000/svg" xmlns="http://www.w3.org/2000/svg" xmlns:sodipodi="http://sodipodi.sourceforge.net/DTD/sodipodi-0.dtd" xmlns:inkscape="http://www.inkscape.org/namespaces/inkscape" version="1.1" x="0px" y="0px" viewBox="0 0 100 125"><g transform="translate(0,-952.36218)"><path style="font-size:medium;font-style:normal;font-variant:normal;font-weight:normal;font-stretch:normal;text-indent:0;text-align:start;text-decoration:none;line-height:normal;letter-spacing:normal;word-spacing:normal;text-transform:none;direction:ltr;block-progression:tb;writing-mode:lr-tb;text-anchor:start;baseline-shift:baseline;opacity:1;color:#000000;fill:#000000;fill-opacity:1;stroke:none;stroke-width:6;marker:none;visibility:visible;display:inline;overflow:visible;enable-background:accumulate;font-family:Sans;-inkscape-font-specification:Sans" d="M 86.65625 9.96875 A 3.0003 3.0003 0 0 0 84.875 10.875 L 67.71875 28.03125 L 67.6875 28.03125 L 62.9375 32.8125 L 62.90625 32.8125 L 30.84375 64.90625 L 30.8125 64.90625 L 26.3125 69.4375 L 26.28125 69.4375 L 10.875 84.875 A 3.0003 3.0003 0 1 0 15.125 89.09375 L 32.25 71.96875 C 37.817492 73.93487 43.790452 75 50 75 C 68.227645 75 84.406026 65.80305 94.4375 51.71875 C 95.150164 50.712766 95.150164 49.255984 94.4375 48.25 C 89.071233 40.715816 81.944014 34.592449 73.6875 30.53125 L 89.125 15.09375 A 3.0003 3.0003 0 0 0 86.65625 9.96875 z M 50 25 C 31.772352 25 15.593975 34.16591 5.5625 48.25 C 4.849836 49.255984 4.849836 50.712766 5.5625 51.71875 C 9.7123171 57.54514 14.911417 62.526455 20.875 66.375 L 25.25 62 C 20.120295 58.862903 15.583757 54.792065 11.84375 50 C 20.877257 38.41419 34.561159 31 50 31 C 51.995098 31 53.944763 31.134373 55.875 31.375 L 61.09375 26.15625 C 57.508847 25.397936 53.800182 25 50 25 z M 50 35 C 41.751262 35 35 41.75124 35 50 C 35 50.71287 35.05879 51.406639 35.15625 52.09375 L 52.09375 35.15625 C 51.406636 35.058794 50.712874 35 50 35 z M 69.15625 35.0625 C 76.60563 38.359292 83.107392 43.524652 88.15625 50 C 79.122521 61.5749 65.430305 69 50 69 C 45.506535 69 41.184788 68.340449 37.0625 67.15625 L 41.71875 62.5 C 44.10045 64.082546 46.945658 65 50 65 C 58.248738 65 65 58.2487 65 50 C 65 46.948006 64.08031 44.09934 62.5 41.71875 L 69.15625 35.0625 z M 58.125 46.09375 C 58.680156 47.270726 59 48.602297 59 50 C 59 55.0061 55.006097 59 50 59 C 48.600738 59 47.271722 58.681328 46.09375 58.125 L 58.125 46.09375 z " transform="translate(0,952.36218)"/></g><text x="0" y="115" fill="#000000" font-size="5px" font-weight="bold" font-family="'Helvetica Neue', Helvetica, Arial-Unicode, Arial, Sans-serif">Created by bezier master</text><text x="0" y="120" fill="#000000" font-size="5px" font-weight="bold" font-family="'Helvetica Neue', Helvetica, Arial-Unicode, Arial, Sans-serif">from the Noun Project</text></svg>