<?xml version='1.0' encoding='iso-8859-1'?>
<svg version="1.1" xmlns="http://www.w3.org/2000/svg" viewBox="0 0 244.487 244.487" xmlns:xlink="http://www.w3.org/1999/xlink" enable-background="new 0 0 244.487 244.487">
  <g>
    <g>
      <path d="m241.877,230.131l-72.929-72.929c13.973-16.67 22.465-38.004 22.465-61.061 0-52.204-43.503-95.707-95.707-95.707s-95.706,43.504-95.706,95.708 43.503,95.707 95.707,95.707c22.621,0 43.573-8.179 60.104-21.682l72.145,72.145c1.74,1.74 3.48,1.74 6.96,1.74s5.22,0 6.96-1.74c3.482-3.48 3.482-8.7 0.001-12.181zm-146.17-55.683c-43.503,0-78.305-34.802-78.305-78.305s34.802-78.305 78.305-78.305 78.305,34.802 78.305,78.305-34.802,78.305-78.305,78.305z"/>
      <path d="m121.809,87.442h-17.401v-17.401c0-5.22-3.48-8.701-8.701-8.701-5.22,0-8.701,3.48-8.701,8.701v17.401h-17.401c-5.22,0-8.701,3.48-8.701,8.701s3.48,8.701 8.701,8.701h17.401v17.401c0,5.22 3.48,8.701 8.701,8.701 5.22,0 8.701-3.48 8.701-8.701v-17.401h17.401c5.22,0 8.701-3.48 8.701-8.701 0-5.221-3.481-8.701-8.701-8.701z"/>
    </g>
  </g>
</svg>
