<svg xmlns:dc="http://purl.org/dc/elements/1.1/" xmlns:cc="http://creativecommons.org/ns#" xmlns:rdf="http://www.w3.org/1999/02/22-rdf-syntax-ns#" xmlns:svg="http://www.w3.org/2000/svg" xmlns="http://www.w3.org/2000/svg" xmlns:sodipodi="http://sodipodi.sourceforge.net/DTD/sodipodi-0.dtd" xmlns:inkscape="http://www.inkscape.org/namespaces/inkscape" version="1.1" x="0px" y="0px" viewBox="0 0 100 125"><g transform="translate(0,-952.36218)"><path style="text-indent:0;text-transform:none;direction:ltr;block-progression:tb;baseline-shift:baseline;color:#000000;enable-background:accumulate;" d="m 50,964.36218 c -9.19122,0 -17.53952,1.5856 -23.84375,4.3438 -3.15211,1.3789 -5.8136,3.0261 -7.8125,5.0937 -1.9989,2.0676 -3.34375,4.703 -3.34375,7.5625 l 0,42.00002 c 0,2.8592 1.34539,5.4637 3.34375,7.5312 1.99836,2.0678 4.66121,3.7147 7.8125,5.0938 6.30259,2.7582 14.65505,4.375 23.84375,4.375 9.1887,0 17.50559,-1.6172 23.8125,-4.375 3.15345,-1.3789 5.81222,-3.0263 7.8125,-5.0938 2.00028,-2.0673 3.375,-4.6708 3.375,-7.5312 l 0,-42.00002 c 0,-2.8595 -1.34485,-5.4949 -3.34375,-7.5625 -1.9989,-2.0676 -4.66039,-3.7148 -7.8125,-5.0937 -6.30423,-2.7582 -14.65253,-4.3438 -23.84375,-4.3438 z m 0,6 c 8.48189,0 16.16,1.5349 21.4375,3.8438 2.63875,1.1543 4.66657,2.4989 5.90625,3.7812 1.23968,1.2823 1.65625,2.3685 1.65625,3.375 0,1.0066 -0.41657,2.0614 -1.65625,3.3438 -1.23968,1.2822 -3.2675,2.6267 -5.90625,3.7812 -5.27749,2.3089 -12.95561,3.875 -21.4375,3.875 -8.48189,0 -16.16001,-1.5661 -21.4375,-3.875 -2.63874,-1.1545 -4.66657,-2.499 -5.90625,-3.7812 C 21.41657,983.42358 21,982.36878 21,981.36218 c 0,-1.0065 0.41657,-2.0927 1.65625,-3.375 1.23968,-1.2823 3.2675,-2.6269 5.90625,-3.7812 5.2775,-2.3089 12.95561,-3.8438 21.4375,-3.8438 z m -29,20.7812 c 1.515,1.0708 3.23995,2.0054 5.15625,2.8438 6.30423,2.7581 14.65253,4.375 23.84375,4.375 9.19122,0 17.53952,-1.6169 23.84375,-4.375 1.91631,-0.8384 3.64125,-1.773 5.15625,-2.8438 l 0,4.2188 c 0,1.0065 -0.41657,2.0614 -1.65625,3.3438 -1.23968,1.2822 -3.2675,2.62672 -5.90625,3.78122 -5.27749,2.3089 -12.95561,3.875 -21.4375,3.875 -8.48189,0 -16.16001,-1.5661 -21.4375,-3.875 -2.63875,-1.1545 -4.66657,-2.49902 -5.90625,-3.78122 C 21.41657,997.42358 21,996.36868 21,995.36218 l 0,-4.2188 z m 0,14.00002 c 1.515,1.0708 3.23995,2.0054 5.15625,2.8438 6.30423,2.7581 14.65253,4.375 23.84375,4.375 9.19122,0 17.53952,-1.6169 23.84375,-4.375 1.9163,-0.8384 3.64125,-1.773 5.15625,-2.8438 l 0,4.2188 c 0,1.0065 -0.41657,2.0614 -1.65625,3.3438 -1.23968,1.2822 -3.2675,2.6267 -5.90625,3.7812 -5.27749,2.3089 -12.95561,3.875 -21.4375,3.875 -8.48189,0 -16.16001,-1.5661 -21.4375,-3.875 -2.63875,-1.1545 -4.66657,-2.499 -5.90625,-3.7812 C 21.41657,1011.4236 21,1010.3687 21,1009.3622 l 0,-4.2188 z m 0,14 c 1.515,1.0708 3.23995,2.0054 5.15625,2.8438 6.30423,2.7581 14.65253,4.375 23.84375,4.375 9.19122,0 17.53952,-1.6169 23.84375,-4.375 1.9163,-0.8384 3.64125,-1.773 5.15625,-2.8438 l 0,4.2188 c 0,1.0056 -0.4466,2.0611 -1.6875,3.3438 -1.2409,1.2824 -3.26582,2.6266 -5.90625,3.7812 -5.28087,2.3092 -12.92709,3.875 -21.40625,3.875 -8.47917,0 -16.1618,-1.5662 -21.4375,-3.875 -2.63785,-1.1544 -4.66699,-2.499 -5.90625,-3.7812 C 21.41699,1025.4236 21,1024.369 21,1023.3622 l 0,-4.2188 z" fill="#000000" fill-opacity="1" stroke="none" marker="none" visibility="visible" display="inline" overflow="visible"/></g><text x="0" y="115" fill="#000000" font-size="5px" font-weight="bold" font-family="'Helvetica Neue', Helvetica, Arial-Unicode, Arial, Sans-serif">Created by Rockicon</text><text x="0" y="120" fill="#000000" font-size="5px" font-weight="bold" font-family="'Helvetica Neue', Helvetica, Arial-Unicode, Arial, Sans-serif">from the Noun Project</text></svg>