<svg xmlns:dc="http://purl.org/dc/elements/1.1/" xmlns:cc="http://creativecommons.org/ns#" xmlns:rdf="http://www.w3.org/1999/02/22-rdf-syntax-ns#" xmlns:svg="http://www.w3.org/2000/svg" xmlns="http://www.w3.org/2000/svg" xmlns:sodipodi="http://sodipodi.sourceforge.net/DTD/sodipodi-0.dtd" xmlns:inkscape="http://www.inkscape.org/namespaces/inkscape" version="1.1" x="0px" y="0px" viewBox="0 0 100 125"><g transform="translate(0,-952.36218)"><path style="text-indent:0;text-transform:none;direction:ltr;block-progression:tb;baseline-shift:baseline;color:#000000;enable-background:accumulate;" d="m 44,962.36218 c -9.073001,0 -17.304401,1.56677 -23.4375,4.25 -3.06655,1.34162 -5.62764,2.96955 -7.5,4.90625 -1.87236,1.9367 -3.0625005,4.29311 -3.0625005,6.84375 l 0,14 0,14.00002 0,14 c 0,2.5505 1.1906605,4.8758 3.0625005,6.8125 1.87184,1.9367 4.43428,3.5644 7.5,4.9063 6.131439,2.683 14.367049,4.2812 23.4375,4.2812 5.88517,0 11.41427,-0.6718 16.25,-1.875 2.79112,4.7051 7.901539,7.875 13.75,7.875 8.81286,0 16,-7.1871 16,-16 0,-7.4292 -5.116701,-13.6818 -12,-15.4688 l 0,-4.5312 0,-14.00002 0,-14 c 0,-2.55064 -1.19014,-4.90705 -3.0625,-6.84375 -1.872361,-1.9367 -4.43345,-3.56463 -7.5,-4.90625 -6.133111,-2.68323 -14.364501,-4.25 -23.4375,-4.25 z m 0,4 c 8.60011,0 16.36388,1.52248 21.8125,3.90625 2.72431,1.19188 4.88379,2.61809 6.25,4.03125 1.366209,1.41316 1.9375,2.74716 1.9375,4.0625 0,1.31537 -0.571291,2.61807 -1.9375,4.03125 -1.36621,1.41318 -3.52569,2.83936 -6.25,4.03125 -5.448621,2.38378 -13.21239,3.9375 -21.8125,3.9375 -8.600111,0 -16.36389,-1.55372 -21.8125,-3.9375 -2.724311,-1.19189 -4.883791,-2.61807 -6.25,-4.03125 C 14.57129,980.98025 14,979.67755 14,978.36218 c 0,-1.31534 0.57129,-2.64934 1.9375,-4.0625 1.366209,-1.41316 3.525689,-2.83937 6.25,-4.03125 5.448619,-2.38377 13.212389,-3.90625 21.8125,-3.90625 z m -30,19.71875 c 1.75511,1.54706 3.983029,2.87148 6.5625,4 6.13311,2.68324 14.364499,4.28125 23.4375,4.28125 9.072999,0 17.304389,-1.59801 23.4375,-4.28125 2.57947,-1.12852 4.807389,-2.45294 6.5625,-4 l 0,6.28125 c 0,1.31535 -0.571291,2.61808 -1.9375,4.03125 -1.36621,1.41317 -3.52569,2.83936 -6.25,4.03127 -5.448621,2.3838 -13.21239,3.9375 -21.8125,3.9375 -8.600111,0 -16.363881,-1.5537 -21.8125,-3.9375 -2.724311,-1.19191 -4.883791,-2.6181 -6.25,-4.03127 C 14.57129,994.98027 14,993.67753 14,992.36218 l 0,-6.28125 z m 0,13.99997 c 1.75511,1.5471 3.983029,2.8715 6.5625,4 6.13311,2.6833 14.364499,4.2813 23.4375,4.2813 9.072999,0 17.304389,-1.598 23.4375,-4.2813 2.57947,-1.1285 4.807389,-2.4529 6.5625,-4 l 0,6.2813 c 0,1.3154 -0.571291,2.6181 -1.9375,4.0312 -0.0384,0.04 -0.0853,0.085 -0.125,0.125 -3.9382,0.5132 -7.433161,2.4661 -9.9375,5.3125 -5.00983,1.5702 -11.236011,2.5313 -18,2.5313 -8.600111,0 -16.363881,-1.5537 -21.8125,-3.9375 -2.724311,-1.1919 -4.883791,-2.6181 -6.25,-4.0313 C 14.57129,1008.9803 14,1007.6776 14,1006.3622 l 0,-6.2813 z m 0,14 c 1.75511,1.5471 3.983029,2.8714 6.5625,4.0001 6.13311,2.683 14.364499,4.2812 23.4375,4.2812 5.410449,0 10.48985,-0.5933 15.03125,-1.625 -0.66255,1.7529 -1.03125,3.6449 -1.03125,5.625 0,1.518 0.226929,2.9819 0.625,4.375 -4.323351,1.0196 -9.311561,1.625 -14.625,1.625 -8.59742,0 -16.396901,-1.5538 -21.84375,-3.9375 -2.72342,-1.1919 -4.85298,-2.6181 -6.21875,-4.0313 C 14.57173,1022.9804 14,1021.6777 14,1020.3622 l 0,-6.2813 z m 60,0.2813 c 6.651099,0 12,5.3489 12,12 0,6.6511 -5.348901,12 -12,12 -6.651111,0 -12,-5.3489 -12,-12 0,-6.6511 5.348889,-12 12,-12 z m 0,3 c -1.104601,0 -2,0.8954 -2,2 l 0,5 -5,0 c -1.10457,0 -2,0.8954 -2,2 0,1.1046 0.89543,2 2,2 l 5,0 0,5 c 0,1.1046 0.895399,2 2,2 1.1046,0 2,-0.8954 2,-2 l 0,-5 5,0 c 1.104569,0 2,-0.8954 2,-2 0,-1.1046 -0.895431,-2 -2,-2 l -5,0 0,-5 c 0,-1.1046 -0.8954,-2 -2,-2 z" fill="#000000" fill-opacity="1" stroke="none" marker="none" visibility="visible" display="inline" overflow="visible"/></g><text x="0" y="115" fill="#000000" font-size="5px" font-weight="bold" font-family="'Helvetica Neue', Helvetica, Arial-Unicode, Arial, Sans-serif">Created by Rockicon</text><text x="0" y="120" fill="#000000" font-size="5px" font-weight="bold" font-family="'Helvetica Neue', Helvetica, Arial-Unicode, Arial, Sans-serif">from the Noun Project</text></svg>