<svg xmlns:dc="http://purl.org/dc/elements/1.1/" xmlns:cc="http://creativecommons.org/ns#" xmlns:rdf="http://www.w3.org/1999/02/22-rdf-syntax-ns#" xmlns:svg="http://www.w3.org/2000/svg" xmlns="http://www.w3.org/2000/svg" xmlns:sodipodi="http://sodipodi.sourceforge.net/DTD/sodipodi-0.dtd" xmlns:inkscape="http://www.inkscape.org/namespaces/inkscape" version="1.1" x="0px" y="0px" viewBox="0 0 100 125"><g transform="translate(0,-952.36218)"><path style="text-indent:0;text-transform:none;direction:ltr;block-progression:tb;baseline-shift:baseline;color:#000000;enable-background:accumulate;" d="m 44,961.36218 c -9.19122,0 -17.53953,1.5856 -23.84375,4.3438 -3.15211,1.3789 -5.8136,3.0261 -7.8125,5.0937 -1.9989,2.0676 -3.3437502,4.703 -3.3437502,7.5625 l 0,42.00002 c 0,2.8592 1.3453902,5.4639 3.3437502,7.5312 1.99836,2.068 4.6612,3.7147 7.8125,5.0938 6.30259,2.7582 14.65505,4.375 23.84375,4.375 5.68074,0 11.00594,-0.6272 15.75,-1.75 3.03941,4.6608 8.29912,7.75 14.25,7.75 9.3533,0 17,-7.6467 17,-17 0,-7.61 -5.07543,-14.0675 -12,-16.2188 l 0,-31.78122 c 0,-2.8595 -1.34485,-5.4949 -3.34375,-7.5625 -1.9989,-2.0676 -4.66039,-3.7148 -7.8125,-5.0937 -6.30423,-2.7582 -14.65253,-4.3438 -23.84375,-4.3438 z m 0,6 c 8.48189,0 16.16,1.5349 21.4375,3.8438 2.63875,1.1541 4.66657,2.4989 5.90625,3.7812 1.23968,1.2823 1.65625,2.3685 1.65625,3.375 0,1.0066 -0.41657,2.0613 -1.65625,3.3438 -1.23968,1.2822 -3.2675,2.6267 -5.90625,3.7812 -5.27749,2.3089 -12.95561,3.875 -21.4375,3.875 -8.48189,0 -16.16001,-1.5661 -21.4375,-3.875 -2.63874,-1.1545 -4.66657,-2.499 -5.90625,-3.7812 C 15.41657,980.42348 15,979.36878 15,978.36218 c 0,-1.0065 0.41657,-2.0927 1.65625,-3.375 1.23968,-1.2823 3.2675,-2.6271 5.90625,-3.7812 5.2775,-2.3089 12.95561,-3.8438 21.4375,-3.8438 z m -29,20.7812 c 1.515,1.0708 3.23995,2.0054 5.15625,2.8438 6.30423,2.7581 14.65253,4.375 23.84375,4.375 9.19122,0 17.53952,-1.6169 23.84375,-4.375 1.91631,-0.8384 3.64125,-1.773 5.15625,-2.8438 l 0,4.2188 c 0,1.0065 -0.41657,2.0613 -1.65625,3.3438 -1.23968,1.2822 -3.2675,2.6267 -5.90625,3.7812 -5.27749,2.30892 -12.95561,3.87502 -21.4375,3.87502 -8.48189,0 -16.16001,-1.5661 -21.4375,-3.87502 -2.63875,-1.1545 -4.66657,-2.499 -5.90625,-3.7812 C 15.41657,994.42348 15,993.36868 15,992.36218 l 0,-4.2188 z m 0,14.00002 c 1.515,1.0708 3.23995,2.0054 5.15625,2.8438 6.30423,2.7581 14.65253,4.375 23.84375,4.375 9.19122,0 17.53952,-1.6169 23.84375,-4.375 1.9163,-0.8384 3.64125,-1.773 5.15625,-2.8438 l 0,4.2188 c 0,0.9743 -0.41299,1.9912 -1.5625,3.2188 -3.92555,0.6038 -7.40409,2.5581 -9.96875,5.375 -4.85562,1.4883 -10.9197,2.4062 -17.46875,2.4062 -8.48189,0 -16.16001,-1.5661 -21.4375,-3.875 -2.63875,-1.1545 -4.66657,-2.499 -5.90625,-3.7812 C 15.41657,1008.4235 15,1007.3687 15,1006.3622 l 0,-4.2188 z m 59,13.2188 c 6.1107,0 11,4.8893 11,11 0,6.1107 -4.8893,11 -11,11 -6.1107,0 -11,-4.8893 -11,-11 0,-6.1107 4.8893,-11 11,-11 z m -59,0.7812 c 1.515,1.0708 3.23995,2.0054 5.15625,2.8438 6.30423,2.7581 14.65253,4.375 23.84375,4.375 4.83304,0 9.40983,-0.4795 13.59375,-1.3125 -0.3668,1.3841 -0.59375,2.8168 -0.59375,4.3125 0,1.2482 0.14802,2.4517 0.40625,3.625 -4.00954,0.8676 -8.56584,1.375 -13.40625,1.375 -8.47917,0 -16.1618,-1.5662 -21.4375,-3.875 -2.63785,-1.1544 -4.66699,-2.499 -5.90625,-3.7812 C 15.41699,1022.4235 15,1021.369 15,1020.3622 l 0,-4.2188 z m 59,0.2188 c -1.6569,0 -3,1.3431 -3,3 l 0,4 -4,0 c -1.65685,0 -3,1.3432 -3,3 0,1.6569 1.34315,3 3,3 l 4,0 0,4 c 0,1.6568 1.3431,3 3,3 1.6568,0 3,-1.3432 3,-3 l 0,-4 4,0 c 1.65685,0 3,-1.3431 3,-3 0,-1.6568 -1.34315,-3 -3,-3 l -4,0 0,-4 c 0,-1.6569 -1.3432,-3 -3,-3 z" fill="#000000" fill-opacity="1" stroke="none" marker="none" visibility="visible" display="inline" overflow="visible"/></g><text x="0" y="115" fill="#000000" font-size="5px" font-weight="bold" font-family="'Helvetica Neue', Helvetica, Arial-Unicode, Arial, Sans-serif">Created by Rockicon</text><text x="0" y="120" fill="#000000" font-size="5px" font-weight="bold" font-family="'Helvetica Neue', Helvetica, Arial-Unicode, Arial, Sans-serif">from the Noun Project</text></svg>