<svg xmlns:dc="http://purl.org/dc/elements/1.1/" xmlns:cc="http://creativecommons.org/ns#" xmlns:rdf="http://www.w3.org/1999/02/22-rdf-syntax-ns#" xmlns:svg="http://www.w3.org/2000/svg" xmlns="http://www.w3.org/2000/svg" xmlns:sodipodi="http://sodipodi.sourceforge.net/DTD/sodipodi-0.dtd" xmlns:inkscape="http://www.inkscape.org/namespaces/inkscape" version="1.1" x="0px" y="0px" viewBox="0 0 100 125"><g transform="translate(0,-952.36218)"><path style="text-indent:0;text-transform:none;direction:ltr;block-progression:tb;baseline-shift:baseline;color:#000000;enable-background:accumulate;" d="m 11,966.36216 c -3.84341,0 -7,3.15659 -7,7 l 0,52.00004 c 0,3.8434 3.15659,7 7,7 l 56.53125,0 c 2.93676,3.6483 7.43899,6 12.46875,6 8.81286,0 16,-7.1871 16,-16 0,-5.0298 -2.35173,-9.532 -6,-12.4688 l 0,-22.53124 c 0,-3.8434 -3.15659,-7 -7,-7 l -34.9375,0 -5.40625,-8.125 c -0.75678,-1.13517 -1.60282,-2.47755 -2.78125,-3.65625 -1.17843,-1.1787 -2.84133,-2.21875 -4.875,-2.21875 l -24,0 z m 0,4 24,0 c 0.73634,0 1.31756,0.28614 2.0625,1.03125 0.74494,0.74511 1.5015,1.89288 2.28125,3.0625 l 6,9 A 2.0001995,2.0001995 0 0 0 47,984.36216 l 36,0 c 1.69661,0 3,1.3034 3,3 l 0,20.15624 c -1.85402,-0.754 -3.88057,-1.1562 -6,-1.1562 -8.81287,0 -16,7.1871 -16,16 0,2.1194 0.40225,4.146 1.15625,6 l -54.15625,0 c -1.69661,0 -3,-1.3034 -3,-3 l 0,-52.00004 c 0,-1.69661 1.30339,-3 3,-3 z m 69,40.00004 c 6.6511,0 12,5.3489 12,12 0,6.6511 -5.3489,12 -12,12 -6.65111,0 -12,-5.3489 -12,-12 0,-6.6511 5.34889,-12 12,-12 z m 0,3 c -1.1046,0 -2,0.8954 -2,2 l 0,5 -5,0 c -1.10457,0 -2,0.8954 -2,2 0,1.1046 0.89543,2 2,2 l 5,0 0,5 c 0,1.1046 0.8954,2 2,2 1.1046,0 2,-0.8954 2,-2 l 0,-5 5,0 c 1.10457,0 2,-0.8954 2,-2 0,-1.1046 -0.89543,-2 -2,-2 l -5,0 0,-5 c 0,-1.1046 -0.8954,-2 -2,-2 z" fill="#000000" fill-opacity="1" stroke="none" marker="none" visibility="visible" display="inline" overflow="visible"/></g><text x="0" y="115" fill="#000000" font-size="5px" font-weight="bold" font-family="'Helvetica Neue', Helvetica, Arial-Unicode, Arial, Sans-serif">Created by Rockicon</text><text x="0" y="120" fill="#000000" font-size="5px" font-weight="bold" font-family="'Helvetica Neue', Helvetica, Arial-Unicode, Arial, Sans-serif">from the Noun Project</text></svg>