<svg xmlns:dc="http://purl.org/dc/elements/1.1/" xmlns:cc="http://creativecommons.org/ns#" xmlns:rdf="http://www.w3.org/1999/02/22-rdf-syntax-ns#" xmlns:svg="http://www.w3.org/2000/svg" xmlns="http://www.w3.org/2000/svg" xmlns:sodipodi="http://sodipodi.sourceforge.net/DTD/sodipodi-0.dtd" xmlns:inkscape="http://www.inkscape.org/namespaces/inkscape" version="1.1" x="0px" y="0px" viewBox="0 0 100 125"><g transform="translate(0,-952.36218)"><path style="text-indent:0;text-transform:none;direction:ltr;block-progression:tb;baseline-shift:baseline;color:#000000;enable-background:accumulate;" d="m 13,967.375 c -4.3801053,0 -8,3.61989 -8,8 l 0,14 0,22 0,18 c 0,4.3801 3.6198875,8 8,8 l 74,0 c 4.380112,0 8,-3.6199 8,-8 l 0,-40 c 0,-4.3801 -3.619888,-8 -8,-8 l -34.375,0 -5.125,-7.6875 c -0.751045,-1.12656 -1.61945,-2.52541 -2.90625,-3.8125 -1.2868,-1.28709 -3.235749,-2.5 -5.59375,-2.5 l -26,0 z m 0,6 26,0 c 0.412009,0 0.707185,0.11329 1.34375,0.75 0.636565,0.63671 1.370765,1.72802 2.15625,2.90625 l 6,9 A 3.0003,3.0003 0 0 0 51,987.375 l 36,0 c 1.159908,0 2,0.8401 2,2 l 0,40 c 0,1.1599 -0.840092,2 -2,2 l -74,0 c -1.159908,0 -2,-0.8401 -2,-2 l 0,-18 0,-22 0,-14 c 0,-1.15991 0.840085,-2 2,-2 z" fill="#000000" fill-opacity="1" stroke="none" marker="none" visibility="visible" display="inline" overflow="visible"/></g><text x="0" y="115" fill="#000000" font-size="5px" font-weight="bold" font-family="'Helvetica Neue', Helvetica, Arial-Unicode, Arial, Sans-serif">Created by Rockicon</text><text x="0" y="120" fill="#000000" font-size="5px" font-weight="bold" font-family="'Helvetica Neue', Helvetica, Arial-Unicode, Arial, Sans-serif">from the Noun Project</text></svg>