<svg xmlns:dc="http://purl.org/dc/elements/1.1/" xmlns:cc="http://creativecommons.org/ns#" xmlns:rdf="http://www.w3.org/1999/02/22-rdf-syntax-ns#" xmlns:svg="http://www.w3.org/2000/svg" xmlns="http://www.w3.org/2000/svg" xmlns:sodipodi="http://sodipodi.sourceforge.net/DTD/sodipodi-0.dtd" xmlns:inkscape="http://www.inkscape.org/namespaces/inkscape" version="1.1" x="0px" y="0px" viewBox="0 0 100 125"><g transform="translate(0,-952.36218)"><path style="text-indent:0;text-transform:none;direction:ltr;block-progression:tb;baseline-shift:baseline;color:#000000;enable-background:accumulate;" d="m 11,965.36216 c -4.38011,0 -8,3.6199 -8,8 l 0,52.00004 c 0,4.3801 3.61989,8 8,8 l 56.09375,0 c 3.12394,3.6636 7.74095,6 12.90625,6 9.3533,0 17,-7.6467 17,-17 0,-5.1653 -2.33636,-9.7823 -6,-12.9062 l 0,-22.09384 c 0,-4.3801 -3.61989,-8 -8,-8 l -34.375,0 c -2.78806,-3.5998 -5.10346,-8.5269 -8.03125,-11.5 -1.2868,-1.2871 -3.23575,-2.5 -5.59375,-2.5 l -24,0 z m 0,6 24,0 c 0.41201,0 0.70718,0.1133 1.34375,0.75 2.91522,3.6962 5.41465,7.7939 8.15625,11.9062 0.54409,0.8217 1.51452,1.3433 2.5,1.3438 l 36,0 c 1.15991,0 2,0.8401 2,2 l 0,18.78124 c -1.58624,-0.4927 -3.25674,-0.7812 -5,-0.7812 -9.3533,0 -17,7.6467 -17,17 0,1.7433 0.28846,3.4138 0.78125,5 l -52.78125,0 c -1.15991,0 -2,-0.8401 -2,-2 l 0,-52.00004 c 0,-1.1599 0.84008,-2 2,-2 z m 69,40.00004 c 6.1107,0 11,4.8893 11,11 0,6.1107 -4.8893,11 -11,11 -6.1107,0 -11,-4.8893 -11,-11 0,-6.1107 4.8893,-11 11,-11 z m 0,1 c -1.6569,0 -3,1.3431 -3,3 l 0,4 -4,0 c -1.65685,0 -3,1.3432 -3,3 0,1.6569 1.34315,3 3,3 l 4,0 0,4 c 0,1.6568 1.3431,3 3,3 1.6568,0 3,-1.3432 3,-3 l 0,-4 4,0 c 1.65685,0 3,-1.3431 3,-3 0,-1.6568 -1.34315,-3 -3,-3 l -4,0 0,-4 c 0,-1.6569 -1.3432,-3 -3,-3 z" fill="#000000" fill-opacity="1" stroke="none" marker="none" visibility="visible" display="inline" overflow="visible"/></g><text x="0" y="115" fill="#000000" font-size="5px" font-weight="bold" font-family="'Helvetica Neue', Helvetica, Arial-Unicode, Arial, Sans-serif">Created by Rockicon</text><text x="0" y="120" fill="#000000" font-size="5px" font-weight="bold" font-family="'Helvetica Neue', Helvetica, Arial-Unicode, Arial, Sans-serif">from the Noun Project</text></svg>