<svg xmlns:dc="http://purl.org/dc/elements/1.1/" xmlns:cc="http://creativecommons.org/ns#" xmlns:rdf="http://www.w3.org/1999/02/22-rdf-syntax-ns#" xmlns:svg="http://www.w3.org/2000/svg" xmlns="http://www.w3.org/2000/svg" xmlns:sodipodi="http://sodipodi.sourceforge.net/DTD/sodipodi-0.dtd" xmlns:inkscape="http://www.inkscape.org/namespaces/inkscape" version="1.1" x="0px" y="0px" viewBox="0 0 100 125"><g transform="translate(0,-952.36218)"><path style="text-indent:0;text-transform:none;direction:ltr;block-progression:tb;baseline-shift:baseline;color:#000000;enable-background:accumulate;" d="m 13,968.375 c -3.8434066,0 -7,3.15659 -7,7 l 0,14 0,22 0,18 c 0,3.8434 3.1565886,7 7,7 l 74,0 c 3.843411,0 7,-3.1566 7,-7 l 0,-40 c 0,-3.8434 -3.156589,-7 -7,-7 l -34.9375,0 -5.40625,-8.125 C 45.899465,973.11483 45.053428,971.77245 43.875,970.59375 42.696572,969.41505 41.033669,968.375 39,968.375 l -26,0 z m 0,4 26,0 c 0.736341,0 1.317563,0.28614 2.0625,1.03125 0.744937,0.74511 1.501505,1.89288 2.28125,3.0625 l 6,9 A 2.0001995,2.0001995 0 0 0 51,986.375 l 36,0 c 1.696609,0 3,1.3034 3,3 l 0,40 c 0,1.6966 -1.303391,3 -3,3 l -74,0 c -1.696609,0 -3,-1.3034 -3,-3 l 0,-18 0,-22 0,-14 c 0,-1.69661 1.303387,-3 3,-3 z" fill="#000000" fill-opacity="1" stroke="none" marker="none" visibility="visible" display="inline" overflow="visible"/></g><text x="0" y="115" fill="#000000" font-size="5px" font-weight="bold" font-family="'Helvetica Neue', Helvetica, Arial-Unicode, Arial, Sans-serif">Created by Rockicon</text><text x="0" y="120" fill="#000000" font-size="5px" font-weight="bold" font-family="'Helvetica Neue', Helvetica, Arial-Unicode, Arial, Sans-serif">from the Noun Project</text></svg>