<svg xmlns:dc="http://purl.org/dc/elements/1.1/" xmlns:cc="http://creativecommons.org/ns#" xmlns:rdf="http://www.w3.org/1999/02/22-rdf-syntax-ns#" xmlns:svg="http://www.w3.org/2000/svg" xmlns="http://www.w3.org/2000/svg" xmlns:sodipodi="http://sodipodi.sourceforge.net/DTD/sodipodi-0.dtd" xmlns:inkscape="http://www.inkscape.org/namespaces/inkscape" version="1.1" x="0px" y="0px" viewBox="0 0 100 125"><g transform="translate(0,-952.36218)"><path style="font-size:medium;font-style:normal;font-variant:normal;font-weight:normal;font-stretch:normal;text-indent:0;text-align:start;text-decoration:none;line-height:normal;letter-spacing:normal;word-spacing:normal;text-transform:none;direction:ltr;block-progression:tb;writing-mode:lr-tb;text-anchor:start;baseline-shift:baseline;opacity:1;color:#000000;fill:#000000;fill-opacity:1;stroke:none;stroke-width:4;marker:none;visibility:visible;display:inline;overflow:visible;enable-background:accumulate;font-family:Sans;-inkscape-font-specification:Sans" d="M 49.78125 17 A 2.0002 2.0002 0 0 0 48.59375 17.5625 L 39.59375 26.5625 A 2.0002 2.0002 0 1 0 42.40625 29.40625 L 48 23.8125 L 48 37 A 2.0002 2.0002 0 1 0 52 37 L 52 23.8125 L 57.59375 29.40625 A 2.0002 2.0002 0 1 0 60.40625 26.5625 L 51.40625 17.5625 A 2.0002 2.0002 0 0 0 49.78125 17 z M 27.75 38.96875 A 2.0002 2.0002 0 0 0 26.59375 39.5625 L 17.59375 48.5625 A 2.0002 2.0002 0 0 0 17.59375 51.40625 L 26.59375 60.40625 A 2.0002 2.0002 0 1 0 29.40625 57.5625 L 23.8125 52 L 37 52 A 2.0002 2.0002 0 1 0 37 48 L 23.8125 48 L 29.40625 42.40625 A 2.0002 2.0002 0 0 0 27.75 38.96875 z M 71.78125 38.96875 A 2.0002 2.0002 0 0 0 70.59375 42.40625 L 76.1875 48 L 63 48 A 2.0002 2.0002 0 0 0 62.8125 48 A 2.0021961 2.0021961 0 1 0 63 52 L 76.1875 52 L 70.59375 57.5625 A 2.0002 2.0002 0 1 0 73.40625 60.40625 L 82.40625 51.40625 A 2.0002 2.0002 0 0 0 82.40625 48.5625 L 73.40625 39.5625 A 2.0002 2.0002 0 0 0 71.78125 38.96875 z M 49.78125 60.96875 A 2.0002 2.0002 0 0 0 48 63 L 48 76.15625 L 42.40625 70.5625 A 2.0002 2.0002 0 0 0 40.78125 69.96875 A 2.0002 2.0002 0 0 0 39.59375 73.40625 L 48.59375 82.40625 A 2.0002 2.0002 0 0 0 51.40625 82.40625 L 60.40625 73.40625 A 2.0002 2.0002 0 1 0 57.59375 70.5625 L 52 76.15625 L 52 63 A 2.0002 2.0002 0 0 0 49.78125 60.96875 z " transform="translate(0,952.36218)"/></g><text x="0" y="115" fill="#000000" font-size="5px" font-weight="bold" font-family="'Helvetica Neue', Helvetica, Arial-Unicode, Arial, Sans-serif">Created by amy morgan</text><text x="0" y="120" fill="#000000" font-size="5px" font-weight="bold" font-family="'Helvetica Neue', Helvetica, Arial-Unicode, Arial, Sans-serif">from the Noun Project</text></svg>