<svg xmlns="http://www.w3.org/2000/svg" xmlns:xlink="http://www.w3.org/1999/xlink" version="1.1" x="0px" y="0px" viewBox="0 0 100 125" enable-background="new 0 0 100 100" xml:space="preserve"><g><path d="M71.166,47.5H52.5V28.834c0-1.381-1.119-2.5-2.5-2.5s-2.5,1.119-2.5,2.5V47.5H28.834c-1.381,0-2.5,1.119-2.5,2.5   s1.119,2.5,2.5,2.5H47.5v18.666c0,1.381,1.119,2.5,2.5,2.5s2.5-1.119,2.5-2.5V52.5h18.666c1.381,0,2.5-1.119,2.5-2.5   S72.547,47.5,71.166,47.5z"/><path d="M50,7.833C26.749,7.833,7.833,26.749,7.833,50S26.749,92.167,50,92.167S92.167,73.251,92.167,50S73.251,7.833,50,7.833z    M50,87.167c-20.494,0-37.167-16.673-37.167-37.167S29.506,12.833,50,12.833S87.167,29.506,87.167,50S70.494,87.167,50,87.167z"/></g><text x="0" y="115" fill="#000000" font-size="5px" font-weight="bold" font-family="'Helvetica Neue', Helvetica, Arial-Unicode, Arial, Sans-serif">Created by Andrey Krylov</text><text x="0" y="120" fill="#000000" font-size="5px" font-weight="bold" font-family="'Helvetica Neue', Helvetica, Arial-Unicode, Arial, Sans-serif">from the Noun Project</text></svg>