<?xml version="1.0" encoding="iso-8859-1"?>
<!-- Generator: Adobe Illustrator 19.0.0, SVG Export Plug-In . SVG Version: 6.00 Build 0)  -->
<svg version="1.1" id="Layer_1" xmlns="http://www.w3.org/2000/svg" xmlns:xlink="http://www.w3.org/1999/xlink" x="0px" y="0px"
	 viewBox="0 0 330 330" style="enable-background:new 0 0 330 330;" xml:space="preserve">
<path id="XMLID_19_" d="M79.393,325.606C82.206,328.42,86.021,330,90,330c3.978,0,7.794-1.58,10.606-4.394l75-75
	c5.858-5.857,5.858-15.355,0-21.213c-5.858-5.857-15.356-5.857-21.213,0L105,278.787V15c0-8.284-6.716-15-15-15S75,6.716,75,15
	v263.787l-49.393-49.394c-5.857-5.858-15.354-5.858-21.213,0c-5.858,5.857-5.858,15.355,0,21.213L79.393,325.606z"/>
<path id="XMLID_20_" d="M229.393,4.394l-75,75c-5.858,5.857-5.858,15.355,0,21.213c5.857,5.857,15.355,5.857,21.213,0L225,51.213
	V315c0,8.284,6.716,15,15,15c8.284,0,15-6.716,15-15V51.213l49.394,49.394C307.322,103.535,311.161,105,315,105
	s7.678-1.465,10.607-4.394c5.858-5.857,5.858-15.355,0-21.213l-75-75C244.749-1.464,235.251-1.464,229.393,4.394z"/>
<g>
</g>
<g>
</g>
<g>
</g>
<g>
</g>
<g>
</g>
<g>
</g>
<g>
</g>
<g>
</g>
<g>
</g>
<g>
</g>
<g>
</g>
<g>
</g>
<g>
</g>
<g>
</g>
<g>
</g>
</svg>
