<svg xmlns="http://www.w3.org/2000/svg" xmlns:xlink="http://www.w3.org/1999/xlink" version="1.1" x="0px" y="0px" viewBox="0 0 100 125" enable-background="new 0 0 100 100" xml:space="preserve"><path d="M91.258,89.58c-27.523,0-55.045,0-82.568,0c-0.057-0.016-0.114-0.039-0.172-0.046c-1.69-0.19-3.083-1.416-3.481-3.065  c-0.045-0.186-0.081-0.373-0.12-0.56c0-0.262,0-0.523,0-0.785c0.119-0.637,0.315-1.24,0.643-1.81  C17.964,61.84,30.365,40.362,42.767,18.885c1.222-2.116,2.446-4.23,3.666-6.348c0.523-0.908,1.267-1.552,2.262-1.881  c0.354-0.116,0.73-0.16,1.095-0.236c0.123,0,0.246,0,0.368,0c0.042,0.012,0.083,0.03,0.125,0.035  c1.501,0.142,2.575,0.907,3.322,2.203c10.246,17.754,20.496,35.506,30.747,53.256c3.382,5.856,6.776,11.706,10.151,17.565  c0.214,0.372,0.333,0.802,0.47,1.214c0.067,0.203,0.076,0.426,0.111,0.641c0,0.104,0,0.209,0,0.313  c-0.015,0.086-0.036,0.17-0.044,0.256c-0.159,1.633-1.269,3-2.84,3.475C91.894,89.471,91.571,89.514,91.258,89.58z M15.997,81.444  c22.674,0,45.302,0,67.969,0C72.633,61.817,61.316,42.22,49.981,22.591C38.642,42.229,27.329,61.822,15.997,81.444z"/><path fill-rule="evenodd" clip-rule="evenodd" d="M54.033,49.726c0,3.031,0.01,6.062-0.005,9.093  c-0.009,1.836-1.298,3.438-3.069,3.869c-2.591,0.632-5.025-1.291-5.028-3.989c-0.006-5.981-0.004-11.965,0.004-17.948  c0-0.371,0.049-0.752,0.143-1.112c0.479-1.845,2.269-3.13,4.134-2.993c1.978,0.145,3.539,1.595,3.779,3.519  c0.03,0.242,0.042,0.488,0.043,0.73c0.002,2.944,0.002,5.887,0.002,8.831H54.033z"/><path fill-rule="evenodd" clip-rule="evenodd" d="M49.979,66.392c2.804,0.001,5.065,2.26,5.063,5.061c0,2.784-2.29,5.07-5.072,5.064  c-2.778-0.007-5.062-2.304-5.055-5.088C44.92,68.651,47.192,66.392,49.979,66.392z"/><text x="0" y="115" fill="#000000" font-size="5px" font-weight="bold" font-family="'Helvetica Neue', Helvetica, Arial-Unicode, Arial, Sans-serif">Created by Alexandr Cherkinsky</text><text x="0" y="120" fill="#000000" font-size="5px" font-weight="bold" font-family="'Helvetica Neue', Helvetica, Arial-Unicode, Arial, Sans-serif">from the Noun Project</text></svg>