<?xml version="1.0" encoding="UTF-8" standalone="no"?>
<svg
   xmlns:dc="http://purl.org/dc/elements/1.1/"
   xmlns:cc="http://creativecommons.org/ns#"
   xmlns:rdf="http://www.w3.org/1999/02/22-rdf-syntax-ns#"
   xmlns:svg="http://www.w3.org/2000/svg"
   xmlns="http://www.w3.org/2000/svg"
   xmlns:sodipodi="http://sodipodi.sourceforge.net/DTD/sodipodi-0.dtd"
   xmlns:inkscape="http://www.inkscape.org/namespaces/inkscape"
   version="1.1"
   x="0px"
   y="0px"
   viewBox="0 0 96.171997 96.172997"
   enable-background="new 0 0 100 100"
   xml:space="preserve"
   id="svg2"
   inkscape:version="0.91 r13725"
   sodipodi:docname="array.svg"
   width="96.171997"
   height="96.172997"><metadata
     id="metadata20"><rdf:RDF><cc:Work
         rdf:about=""><dc:format>image/svg+xml</dc:format><dc:type
           rdf:resource="http://purl.org/dc/dcmitype/StillImage" /><dc:title /></cc:Work></rdf:RDF></metadata><defs
     id="defs18" /><sodipodi:namedview
     pagecolor="#ffffff"
     bordercolor="#666666"
     borderopacity="1"
     objecttolerance="10"
     gridtolerance="10"
     guidetolerance="10"
     inkscape:pageopacity="0"
     inkscape:pageshadow="2"
     inkscape:window-width="1679"
     inkscape:window-height="976"
     id="namedview16"
     showgrid="false"
     inkscape:zoom="5.6568543"
     inkscape:cx="54.714588"
     inkscape:cy="53.717389"
     inkscape:window-x="0"
     inkscape:window-y="0"
     inkscape:window-maximized="0"
     inkscape:current-layer="g4201"
     fit-margin-top="0"
     fit-margin-left="0"
     fit-margin-right="0"
     fit-margin-bottom="0" /><path
     d="M 85.806,0 10.366,0 C 4.65,0 0,4.65 0,10.367 l 0,75.44 c 0,5.716 4.65,10.366 10.366,10.366 l 75.44,0 c 5.716,0 10.366,-4.65 10.366,-10.366 l 0,-75.44 C 96.172,4.65 91.522,0 85.806,0 Z m 4.959,10.366 0,34.747 -39.976,0 0,-39.707 35.017,0 c 2.735,0 4.959,2.225 4.959,4.96 z m -80.399,-4.96 35.016,0 0,39.707 -39.975,0 0,-34.747 c 0,-2.735 2.225,-4.96 4.959,-4.96 z m -4.959,80.401 0,-35.286 39.975,0 0,40.246 -35.016,0 c -2.734,0 -4.959,-2.225 -4.959,-4.96 z m 80.399,4.96 -35.017,0 0,-40.246 39.976,0 0,35.286 c 0,2.735 -2.224,4.96 -4.959,4.96 z"
     id="path4"
     inkscape:connector-curvature="0"
     style="fill:#ffffff" /><g
     id="g4201"
     transform="translate(-194.08594,-12.913918)"><g
       transform="matrix(0,0.83183205,-0.83183205,0,257.8834,101.50997)"
       id="g4870"
       style="fill:#ffffff"><path
         inkscape:connector-curvature="0"
         d="m -23.195107,5.3728117 c 1.444,0.88 3.33,0.423 4.209,-1.02 0.879,-1.444 0.424,-3.327 -1.022,-4.20799996 -1.441,-0.88 -3.325,-0.423 -4.204,1.02099996 -0.881,1.444 -0.424,3.327 1.017,4.207 z"
         id="path4218"
         style="fill:#ffffff" /></g><g
       id="g4220"
       transform="matrix(0,0.83183205,-0.83183205,0,267.1334,101.50997)"
       style="fill:#ffffff"><path
         id="path4222"
         d="m -23.195107,5.3728117 c 1.444,0.88 3.33,0.423 4.209,-1.02 0.879,-1.444 0.424,-3.327 -1.022,-4.20799996 -1.441,-0.88 -3.325,-0.423 -4.204,1.02099996 -0.881,1.444 -0.424,3.327 1.017,4.207 z"
         inkscape:connector-curvature="0"
         style="fill:#ffffff" /></g><g
       transform="matrix(0,0.83183205,-0.83183205,0,276.3834,101.50997)"
       id="g4224"
       style="fill:#ffffff"><path
         inkscape:connector-curvature="0"
         d="m -23.195107,5.3728117 c 1.444,0.88 3.33,0.423 4.209,-1.02 0.879,-1.444 0.424,-3.327 -1.022,-4.20799996 -1.441,-0.88 -3.325,-0.423 -4.204,1.02099996 -0.881,1.444 -0.424,3.327 1.017,4.207 z"
         id="path4226"
         style="fill:#ffffff" /></g></g></svg>