<svg id="svg2" width="96.171997" height="96.172997" enable-background="new 0 0 100 100" version="1.1" viewBox="0 0 96.171997 96.172997" xml:space="preserve" xmlns="http://www.w3.org/2000/svg"><path id="path4" d="m85.806 0h-75.44c-5.716 0-10.366 4.65-10.366 10.367v75.44c0 5.716 4.65 10.366 10.366 10.366h75.44c5.716 0 10.366-4.65 10.366-10.366v-75.44c0-5.717-4.65-10.367-10.366-10.367zm4.959 10.366v34.747h-39.976v-39.707h35.017c2.735 0 4.959 2.225 4.959 4.96zm-80.399-4.96h35.016v39.707h-39.975v-34.747c0-2.735 2.225-4.96 4.959-4.96zm-4.959 80.401v-35.286h39.975v40.246h-35.016c-2.734 0-4.959-2.225-4.959-4.96zm80.399 4.96h-35.017v-40.246h39.976v35.286c0 2.735-2.224 4.96-4.959 4.96z" fill="#fff"/><g id="g4201" transform="translate(-194.08594,-12.913918)" fill="#fff"><g id="g4870" transform="matrix(0 .83183205 -.83183205 0 257.8834 101.50997)"><path id="path4218" d="m-23.195107 5.3728117c1.444 0.88 3.33 0.423 4.209-1.02 0.879-1.444 0.424-3.327-1.022-4.20799996-1.441-0.88-3.325-0.423-4.204 1.02099996-0.881 1.444-0.424 3.327 1.017 4.207z" fill="#fff"/></g><g id="g4220" transform="matrix(0 .83183205 -.83183205 0 267.1334 101.50997)"><path id="path4222" d="m-23.195107 5.3728117c1.444 0.88 3.33 0.423 4.209-1.02 0.879-1.444 0.424-3.327-1.022-4.20799996-1.441-0.88-3.325-0.423-4.204 1.02099996-0.881 1.444-0.424 3.327 1.017 4.207z" fill="#fff"/></g><g id="g4224" transform="matrix(0 .83183205 -.83183205 0 276.3834 101.50997)"><path id="path4226" d="m-23.195107 5.3728117c1.444 0.88 3.33 0.423 4.209-1.02 0.879-1.444 0.424-3.327-1.022-4.20799996-1.441-0.88-3.325-0.423-4.204 1.02099996-0.881 1.444-0.424 3.327 1.017 4.207z" fill="#fff"/></g></g></svg>
