<svg id="svg2" width="96.171875" height="96.173828" enable-background="new 0 0 100 100" version="1.1" viewBox="0 0 96.171875 96.173828" xml:space="preserve" xmlns="http://www.w3.org/2000/svg"><path id="path8" d="m58.201385 34.002706c-1.013153 0.07139-1.97274 0.629104-2.518723 1.574773l-11.581093 18.34873-1.52449-1.965608c-1.070789-1.380549-2.80797-2.030666-4.322053-1.156509-1.514083 0.874155-2.2273 2.939219-1.15651 4.319768l4.248915 5.478563c0.764926 0.986204 1.869171 1.588744 2.989554 1.540489 1.250074 0.189978 2.543205-0.379431 3.213542-1.540489l13.6107-21.861685c0.873571-1.51307 0.35656-3.446197-1.15651-4.319768-0.5674-0.327591-1.19544-0.461091-1.803332-0.418264z" fill="#fff"/><path id="path4-5" d="m10.365237 1.09375e-6c-5.7159997 0-10.3652398 4.65018701-10.3652398 10.3671869v75.439449c0 5.716 4.64924005 10.36719 10.3652398 10.36719h75.441401c5.716 0 10.36524-4.65119 10.36524-10.36719v-75.439449c0-5.7169999-4.64924-10.3671869-10.36524-10.3671869zm0 5.40625001h75.441401c2.735 0 4.95899 2.223984 4.95899 4.9589839v32.835942h2e-3v16.80468h-2e-3v25.80078c0 2.735-2.22399 4.96094-4.95899 4.96094h-75.4414c-2.7340008 0-4.9589908-2.22594-4.9589908-4.96094v-75.441402c0-2.7349999 2.22499-4.9589839 4.9589908-4.9589839z" fill="#fff"/></svg>
