<?xml version="1.0" encoding="UTF-8" standalone="no"?>
<svg
   xmlns:dc="http://purl.org/dc/elements/1.1/"
   xmlns:cc="http://creativecommons.org/ns#"
   xmlns:rdf="http://www.w3.org/1999/02/22-rdf-syntax-ns#"
   xmlns:svg="http://www.w3.org/2000/svg"
   xmlns="http://www.w3.org/2000/svg"
   xmlns:sodipodi="http://sodipodi.sourceforge.net/DTD/sodipodi-0.dtd"
   xmlns:inkscape="http://www.inkscape.org/namespaces/inkscape"
   version="1.1"
   x="0px"
   y="0px"
   viewBox="0 0 96.171875 96.173828"
   enable-background="new 0 0 100 100"
   xml:space="preserve"
   id="svg2"
   inkscape:version="0.91 r13725"
   sodipodi:docname="bool.svg"
   width="96.171875"
   height="96.173828"><metadata
     id="metadata20"><rdf:RDF><cc:Work
         rdf:about=""><dc:format>image/svg+xml</dc:format><dc:type
           rdf:resource="http://purl.org/dc/dcmitype/StillImage" /><dc:title /></cc:Work></rdf:RDF></metadata><defs
     id="defs18" /><sodipodi:namedview
     pagecolor="#ffffff"
     bordercolor="#666666"
     borderopacity="1"
     objecttolerance="10"
     gridtolerance="10"
     guidetolerance="10"
     inkscape:pageopacity="0"
     inkscape:pageshadow="2"
     inkscape:window-width="1460"
     inkscape:window-height="915"
     id="namedview16"
     showgrid="false"
     inkscape:zoom="1.4142136"
     inkscape:cx="163.54511"
     inkscape:cy="-4.6398851"
     inkscape:window-x="96"
     inkscape:window-y="144"
     inkscape:window-maximized="0"
     inkscape:current-layer="svg2"
     fit-margin-top="0"
     fit-margin-left="0"
     fit-margin-right="0"
     fit-margin-bottom="0" /><path
     d="m 58.201385,34.002706 c -1.013153,0.07139 -1.97274,0.629104 -2.518723,1.574773 l -11.581093,18.34873 -1.52449,-1.965608 c -1.070789,-1.380549 -2.80797,-2.030666 -4.322053,-1.156509 -1.514083,0.874155 -2.2273,2.939219 -1.15651,4.319768 l 4.248915,5.478563 c 0.764926,0.986204 1.869171,1.588744 2.989554,1.540489 1.250074,0.189978 2.543205,-0.379431 3.213542,-1.540489 l 13.6107,-21.861685 c 0.873571,-1.51307 0.35656,-3.446197 -1.15651,-4.319768 -0.5674,-0.327591 -1.19544,-0.461091 -1.803332,-0.418264 z"
     id="path8"
     inkscape:connector-curvature="0"
     sodipodi:nodetypes="scccscccccss"
     style="fill:#ffffff" /><path
     sodipodi:nodetypes="sssssssssccsccccsccssc"
     inkscape:connector-curvature="0"
     id="path4-5"
     d="M 10.365237,1.09375e-6 C 4.6492373,1.09375e-6 -2.75e-6,4.6501881 -2.75e-6,10.367188 l 0,75.439449 c 0,5.716 4.64924005,10.36719 10.36523975,10.36719 l 75.441401,0 c 5.716,0 10.36524,-4.65119 10.36524,-10.36719 l 0,-75.439449 C 96.171878,4.6501881 91.522638,1.09375e-6 85.806638,1.09375e-6 Z m 0,5.40625000625 75.441401,0 c 2.735,0 4.95899,2.223984 4.95899,4.9589839 l 0,32.835942 0.002,0 0,16.80468 -0.002,0 0,25.80078 c 0,2.735 -2.22399,4.96094 -4.95899,4.96094 l -75.4414,0 c -2.7340008,0 -4.9589908,-2.22594 -4.9589908,-4.96094 l 0,-75.441402 c 0,-2.7349999 2.22499,-4.9589839 4.9589908,-4.9589839 z"
     style="fill:#ffffff" /></svg>