<svg id="svg2" width="96.171875" height="96.173828" enable-background="new 0 0 100 100" version="1.1" viewBox="0 0 96.171875 96.173828" xml:space="preserve" xmlns="http://www.w3.org/2000/svg"><path id="path4" d="m10.365235 0c-5.7160008 0-10.365235 4.6501872-10.365235 10.367187v75.439453c0 5.716 4.6492342 10.367188 10.365235 10.367188h75.441405c5.716 0 10.365235-4.651188 10.365235-10.367188v-75.439453c0-5.7169998-4.649235-10.367187-10.365235-10.367187zm0 5.40625h75.441405c2.735 0 4.958985 2.2239839 4.958985 4.958984v32.835937h2e-3v16.804688h-2e-3v25.800781c0 2.735-2.223985 4.960938-4.958985 4.960938h-75.441405c-2.7340008 0-4.958985-2.225938-4.958985-4.960938v-75.441406c0-2.7350001 2.2249842-4.958984 4.958985-4.958984z" fill="#fff"/><g id="g4829" transform="translate(-1.9140625,-1.3265859)" fill="#fff"><path id="path4813" d="m22.3685 34.117h6.928v6.928c0 1.493 1.21 2.703 2.703 2.703s2.704-1.21 2.704-2.703v-6.928h6.927c1.493 0 2.704-1.21 2.704-2.703s-1.21-2.704-2.704-2.704h-6.927v-6.927c0-1.493-1.21-2.704-2.704-2.704-1.493 0-2.703 1.21-2.703 2.704v6.927h-6.928c-1.493 0-2.703 1.21-2.703 2.704s1.21 2.703 2.703 2.703z"/><path id="path4815" d="m58.369 34.117h19.262c1.493 0 2.703-1.21 2.703-2.703s-1.21-2.704-2.703-2.704h-19.262c-1.493 0-2.703 1.21-2.703 2.704s1.21 2.703 2.703 2.703z"/><path id="path4817" d="m35.8225 67.4135 4.898-4.898c1.056-1.056 1.056-2.767 0-3.823-1.055-1.056-2.769-1.056-3.823 0l-4.898 4.898-4.898-4.898c-1.055-1.056-2.768-1.056-3.823 0-1.056 1.057-1.056 2.768 0 3.823l4.899 4.898-4.899 4.898c-1.056 1.056-1.056 2.767 0 3.823 0.527 0.527 1.22 0.792 1.912 0.792 0.691 0 1.384-0.265 1.911-0.792l4.898-4.898 4.898 4.898c0.527 0.527 1.22 0.792 1.912 0.792s1.384-0.265 1.912-0.792c1.056-1.057 1.056-2.768 0-3.823l-4.899-4.898z"/><g id="g4837" transform="translate(-5.777,-5.536)"><path id="path4819" d="m83.408 65.203h-19.262c-1.493 0-2.703 1.211-2.703 2.703 0 1.493 1.21 2.703 2.703 2.703h19.262c1.493 0 2.703-1.21 2.703-2.703 0-1.492-1.21-2.703-2.703-2.703z"/><path id="path4821" d="m83.408 75.289h-19.262c-1.493 0-2.703 1.211-2.703 2.703 0 1.493 1.21 2.704 2.703 2.704h19.262c1.493 0 2.703-1.211 2.703-2.704 0-1.492-1.21-2.703-2.703-2.703z"/></g></g></svg>
