<?xml version="1.0" encoding="UTF-8" standalone="no"?>
<svg
   xmlns:dc="http://purl.org/dc/elements/1.1/"
   xmlns:cc="http://creativecommons.org/ns#"
   xmlns:rdf="http://www.w3.org/1999/02/22-rdf-syntax-ns#"
   xmlns:svg="http://www.w3.org/2000/svg"
   xmlns="http://www.w3.org/2000/svg"
   xmlns:sodipodi="http://sodipodi.sourceforge.net/DTD/sodipodi-0.dtd"
   xmlns:inkscape="http://www.inkscape.org/namespaces/inkscape"
   version="1.1"
   x="0px"
   y="0px"
   viewBox="0 0 96.171875 96.173828"
   enable-background="new 0 0 100 100"
   xml:space="preserve"
   id="svg2"
   inkscape:version="0.91 r13725"
   sodipodi:docname="calc.svg"
   width="96.171875"
   height="96.173828"><metadata
     id="metadata20"><rdf:RDF><cc:Work
         rdf:about=""><dc:format>image/svg+xml</dc:format><dc:type
           rdf:resource="http://purl.org/dc/dcmitype/StillImage" /><dc:title /></cc:Work></rdf:RDF></metadata><defs
     id="defs18" /><sodipodi:namedview
     pagecolor="#ffffff"
     bordercolor="#666666"
     borderopacity="1"
     objecttolerance="10"
     gridtolerance="10"
     guidetolerance="10"
     inkscape:pageopacity="0"
     inkscape:pageshadow="2"
     inkscape:window-width="1324"
     inkscape:window-height="1046"
     id="namedview16"
     showgrid="false"
     inkscape:zoom="1"
     inkscape:cx="-135.10175"
     inkscape:cy="59.901257"
     inkscape:window-x="162"
     inkscape:window-y="27"
     inkscape:window-maximized="0"
     inkscape:current-layer="svg2"
     fit-margin-top="0"
     fit-margin-left="0"
     fit-margin-right="0"
     fit-margin-bottom="0" /><path
     d="M 10.365235,0 C 4.6492342,0 0,4.6501872 0,10.367187 L 0,85.80664 c 0,5.716 4.6492342,10.367188 10.365235,10.367188 l 75.441405,0 c 5.716,0 10.365235,-4.651188 10.365235,-10.367188 l 0,-75.439453 C 96.171875,4.6501872 91.52264,0 85.80664,0 Z m 0,5.40625 75.441405,0 c 2.735,0 4.958985,2.2239839 4.958985,4.958984 l 0,32.835937 0.002,0 0,16.804688 -0.002,0 0,25.800781 c 0,2.735 -2.223985,4.960938 -4.958985,4.960938 l -75.441405,0 c -2.7340008,0 -4.958985,-2.225938 -4.958985,-4.960938 l 0,-75.441406 c 0,-2.7350001 2.2249842,-4.958984 4.958985,-4.958984 z"
     id="path4"
     inkscape:connector-curvature="0"
     sodipodi:nodetypes="sssssssssccsccccsccssc"
     style="fill:#ffffff" /><g
     id="g4829"
     transform="translate(-1.9140625,-1.3265859)"
     style="fill:#ffffff"><path
       id="path4813"
       d="m 22.3685,34.117 6.928,0 0,6.928 c 0,1.493 1.21,2.703 2.703,2.703 1.493,0 2.704,-1.21 2.704,-2.703 l 0,-6.928 6.927,0 c 1.493,0 2.704,-1.21 2.704,-2.703 0,-1.493 -1.21,-2.704 -2.704,-2.704 l -6.927,0 0,-6.927 c 0,-1.493 -1.21,-2.704 -2.704,-2.704 -1.493,0 -2.703,1.21 -2.703,2.704 l 0,6.927 -6.928,0 c -1.493,0 -2.703,1.21 -2.703,2.704 0,1.494 1.21,2.703 2.703,2.703 z"
       inkscape:connector-curvature="0"
       style="fill:#ffffff" /><path
       id="path4815"
       d="m 58.369,34.117 19.262,0 c 1.493,0 2.703,-1.21 2.703,-2.703 0,-1.493 -1.21,-2.704 -2.703,-2.704 l -19.262,0 c -1.493,0 -2.703,1.21 -2.703,2.704 0,1.494 1.21,2.703 2.703,2.703 z"
       inkscape:connector-curvature="0"
       style="fill:#ffffff" /><path
       id="path4817"
       d="m 35.8225,67.4135 4.898,-4.898 c 1.056,-1.056 1.056,-2.767 0,-3.823 -1.055,-1.056 -2.769,-1.056 -3.823,0 l -4.898,4.898 -4.898,-4.898 c -1.055,-1.056 -2.768,-1.056 -3.823,0 -1.056,1.057 -1.056,2.768 0,3.823 l 4.899,4.898 -4.899,4.898 c -1.056,1.056 -1.056,2.767 0,3.823 0.527,0.527 1.22,0.792 1.912,0.792 0.691,0 1.384,-0.265 1.911,-0.792 l 4.898,-4.898 4.898,4.898 c 0.527,0.527 1.22,0.792 1.912,0.792 0.692,0 1.384,-0.265 1.912,-0.792 1.056,-1.057 1.056,-2.768 0,-3.823 l -4.899,-4.898 z"
       inkscape:connector-curvature="0"
       style="fill:#ffffff" /><g
       id="g4837"
       transform="translate(-5.777,-5.536)"
       style="fill:#ffffff"><path
         inkscape:connector-curvature="0"
         d="m 83.408,65.203 -19.262,0 c -1.493,0 -2.703,1.211 -2.703,2.703 0,1.493 1.21,2.703 2.703,2.703 l 19.262,0 c 1.493,0 2.703,-1.21 2.703,-2.703 0,-1.492 -1.21,-2.703 -2.703,-2.703 z"
         id="path4819"
         style="fill:#ffffff" /><path
         inkscape:connector-curvature="0"
         d="m 83.408,75.289 -19.262,0 c -1.493,0 -2.703,1.211 -2.703,2.703 0,1.493 1.21,2.704 2.703,2.704 l 19.262,0 c 1.493,0 2.703,-1.211 2.703,-2.704 0,-1.492 -1.21,-2.703 -2.703,-2.703 z"
         id="path4821"
         style="fill:#ffffff" /></g></g></svg>