<?xml version="1.0" encoding="UTF-8" standalone="no"?>
<svg
   xmlns:dc="http://purl.org/dc/elements/1.1/"
   xmlns:cc="http://creativecommons.org/ns#"
   xmlns:rdf="http://www.w3.org/1999/02/22-rdf-syntax-ns#"
   xmlns:svg="http://www.w3.org/2000/svg"
   xmlns="http://www.w3.org/2000/svg"
   xmlns:sodipodi="http://sodipodi.sourceforge.net/DTD/sodipodi-0.dtd"
   xmlns:inkscape="http://www.inkscape.org/namespaces/inkscape"
   version="1.1"
   x="0px"
   y="0px"
   viewBox="0 0 96.171875 96.173828"
   enable-background="new 0 0 100 100"
   xml:space="preserve"
   id="svg2"
   inkscape:version="0.91 r13725"
   sodipodi:docname="convert.svg"
   width="96.171875"
   height="96.173828"><metadata
     id="metadata20"><rdf:RDF><cc:Work
         rdf:about=""><dc:format>image/svg+xml</dc:format><dc:type
           rdf:resource="http://purl.org/dc/dcmitype/StillImage" /><dc:title></dc:title></cc:Work></rdf:RDF></metadata><defs
     id="defs18"><inkscape:perspective
       sodipodi:type="inkscape:persp3d"
       inkscape:vp_x="0 : 48.086914 : 1"
       inkscape:vp_y="0 : 1000 : 0"
       inkscape:vp_z="96.171875 : 48.086914 : 1"
       inkscape:persp3d-origin="48.085938 : 32.057943 : 1"
       id="perspective5022" /><inkscape:path-effect
       effect="spiro"
       id="path-effect4828"
       is_visible="true" /><inkscape:path-effect
       effect="spiro"
       id="path-effect4824"
       is_visible="true" /><marker
       inkscape:stockid="Arrow1Lstart"
       orient="auto"
       refY="0.0"
       refX="0.0"
       id="Arrow1Lstart"
       style="overflow:visible"
       inkscape:isstock="true"><path
         id="path4150"
         d="M 0.0,0.0 L 5.0,-5.0 L -12.5,0.0 L 5.0,5.0 L 0.0,0.0 z "
         style="fill-rule:evenodd;stroke:#000000;stroke-width:1pt;stroke-opacity:1;fill:#000000;fill-opacity:1"
         transform="scale(0.8) translate(12.5,0)" /></marker></defs><sodipodi:namedview
     pagecolor="#59ffff"
     bordercolor="#666666"
     borderopacity="1"
     objecttolerance="10"
     gridtolerance="10"
     guidetolerance="10"
     inkscape:pageopacity="0"
     inkscape:pageshadow="2"
     inkscape:window-width="1324"
     inkscape:window-height="1046"
     id="namedview16"
     showgrid="false"
     inkscape:zoom="3.1063817"
     inkscape:cx="55.765031"
     inkscape:cy="7.8024772"
     inkscape:window-x="367"
     inkscape:window-y="31"
     inkscape:window-maximized="0"
     inkscape:current-layer="svg2"
     fit-margin-top="0"
     fit-margin-left="0"
     fit-margin-right="0"
     fit-margin-bottom="0" /><path
     d="M 10.365235,0 C 4.6492342,0 0,4.6501872 0,10.367187 L 0,85.80664 c 0,5.716 4.6492342,10.367188 10.365235,10.367188 l 75.441405,0 c 5.716,0 10.365235,-4.651188 10.365235,-10.367188 l 0,-75.439453 C 96.171875,4.6501872 91.52264,0 85.80664,0 Z m 0,5.40625 75.441405,0 c 2.735,0 4.958985,2.2239839 4.958985,4.958984 l 0,32.835937 0.002,0 0,16.804688 -0.002,0 0,25.800781 c 0,2.735 -2.223985,4.960938 -4.958985,4.960938 l -75.441405,0 c -2.7340008,0 -4.958985,-2.225938 -4.958985,-4.960938 l 0,-75.441406 c 0,-2.7350001 2.2249842,-4.958984 4.958985,-4.958984 z"
     id="path4"
     inkscape:connector-curvature="0"
     sodipodi:nodetypes="sssssssssccsccccsccssc"
     style="fill:#ffffff" /><circle
     r="11.89585"
     cy="25.708351"
     cx="53.261406"
     id="circle4156"
     style="fill:none;fill-opacity:1;stroke:#ffffff;stroke-width:4.83121157;stroke-miterlimit:4;stroke-dasharray:none;stroke-opacity:1" /><path
     style="fill:none;fill-rule:evenodd;stroke:#ffffff;stroke-width:5;stroke-linecap:round;stroke-linejoin:miter;stroke-miterlimit:4;stroke-dasharray:none;stroke-opacity:1"
     d="M 22.79261,69.45077 C 7.4076166,59.233005 14.261054,40.593167 27.779589,37.145591"
     id="path4871"
     inkscape:connector-curvature="0"
     sodipodi:nodetypes="cc" /><g
     style="fill:#ffffff;fill-opacity:1"
     transform="matrix(-0.51497055,-0.85720787,0.85720787,-0.51497055,30.51178,112.44775)"
     id="g4252"><g
       transform="matrix(-0.70710678,0.70710678,-0.70710678,-0.70710678,143.19199,7.037116)"
       id="g4240"
       style="fill:#ffffff;fill-opacity:1"><path
         sodipodi:nodetypes="sssssss"
         inkscape:connector-curvature="0"
         d="m 68.369,34.117 9.262,0 c 1.493,0 2.703,-1.21 2.703,-2.703 0,-1.493 -1.21,-2.704 -2.703,-2.704 l -9.262,0 c -1.493,0 -2.703,1.21 -2.703,2.704 0,1.494 1.21,2.703 2.703,2.703 z"
         id="path4242"
         style="fill:#ffffff;fill-opacity:1" /><path
         id="path4244"
         d="m 68.369,34.117 9.262,0 c 1.493,0 2.703,-1.21 2.703,-2.703 0,-1.493 -1.21,-2.704 -2.703,-2.704 l -9.262,0 c -1.493,0 -2.703,1.21 -2.703,2.704 0,1.494 1.21,2.703 2.703,2.703 z"
         inkscape:connector-curvature="0"
         sodipodi:nodetypes="sssssss"
         style="fill:#ffffff;fill-opacity:1" /></g><g
       style="fill:#ffffff;fill-opacity:1"
       id="g4246"
       transform="matrix(0.70710678,0.70710678,0.70710678,-0.70710678,-11.020116,7.037116)"><path
         style="fill:#ffffff;fill-opacity:1"
         id="path4248"
         d="m 68.369,34.117 9.262,0 c 1.493,0 2.703,-1.21 2.703,-2.703 0,-1.493 -1.21,-2.704 -2.703,-2.704 l -9.262,0 c -1.493,0 -2.703,1.21 -2.703,2.704 0,1.494 1.21,2.703 2.703,2.703 z"
         inkscape:connector-curvature="0"
         sodipodi:nodetypes="sssssss" /><path
         style="fill:#ffffff;fill-opacity:1"
         sodipodi:nodetypes="sssssss"
         inkscape:connector-curvature="0"
         d="m 68.369,34.117 9.262,0 c 1.493,0 2.703,-1.21 2.703,-2.703 0,-1.493 -1.21,-2.704 -2.703,-2.704 l -9.262,0 c -1.493,0 -2.703,1.21 -2.703,2.704 0,1.494 1.21,2.703 2.703,2.703 z"
         id="path4250" /></g></g><path
     sodipodi:nodetypes="cc"
     inkscape:connector-curvature="0"
     id="path4998"
     d="M 73.589519,30.343836 C 88.974512,40.561601 82.121075,59.201439 68.60254,62.649015"
     style="fill:none;fill-rule:evenodd;stroke:#ffffff;stroke-width:5;stroke-linecap:round;stroke-linejoin:miter;stroke-miterlimit:4;stroke-dasharray:none;stroke-opacity:1" /><g
     id="g5004"
     transform="matrix(0.51497055,0.85720787,-0.85720787,0.51497055,65.87035,-12.65315)"
     style="fill:#ffffff"><g
       style="fill:#ffffff"
       id="g5006"
       transform="matrix(-0.70710678,0.70710678,-0.70710678,-0.70710678,143.19199,7.037116)"><path
         style="fill:#ffffff"
         id="path5008"
         d="m 68.369,34.117 9.262,0 c 1.493,0 2.703,-1.21 2.703,-2.703 0,-1.493 -1.21,-2.704 -2.703,-2.704 l -9.262,0 c -1.493,0 -2.703,1.21 -2.703,2.704 0,1.494 1.21,2.703 2.703,2.703 z"
         inkscape:connector-curvature="0"
         sodipodi:nodetypes="sssssss" /><path
         style="fill:#ffffff"
         sodipodi:nodetypes="sssssss"
         inkscape:connector-curvature="0"
         d="m 68.369,34.117 9.262,0 c 1.493,0 2.703,-1.21 2.703,-2.703 0,-1.493 -1.21,-2.704 -2.703,-2.704 l -9.262,0 c -1.493,0 -2.703,1.21 -2.703,2.704 0,1.494 1.21,2.703 2.703,2.703 z"
         id="path5010" /></g><g
       transform="matrix(0.70710678,0.70710678,0.70710678,-0.70710678,-11.020116,7.037116)"
       id="g5012"
       style="fill:#ffffff"><path
         sodipodi:nodetypes="sssssss"
         inkscape:connector-curvature="0"
         d="m 68.369,34.117 9.262,0 c 1.493,0 2.703,-1.21 2.703,-2.703 0,-1.493 -1.21,-2.704 -2.703,-2.704 l -9.262,0 c -1.493,0 -2.703,1.21 -2.703,2.704 0,1.494 1.21,2.703 2.703,2.703 z"
         id="path5014"
         style="fill:#ffffff" /><path
         id="path5016"
         d="m 68.369,34.117 9.262,0 c 1.493,0 2.703,-1.21 2.703,-2.703 0,-1.493 -1.21,-2.704 -2.703,-2.704 l -9.262,0 c -1.493,0 -2.703,1.21 -2.703,2.704 0,1.494 1.21,2.703 2.703,2.703 z"
         inkscape:connector-curvature="0"
         sodipodi:nodetypes="sssssss"
         style="fill:#ffffff" /></g></g><path
     sodipodi:type="star"
     style="fill:none;fill-opacity:1;stroke:#ffffff;stroke-width:5.18892574;stroke-linecap:round;stroke-linejoin:round;stroke-miterlimit:4;stroke-dasharray:none;stroke-opacity:1"
     id="path5028"
     sodipodi:sides="3"
     sodipodi:cx="53.261406"
     sodipodi:cy="27.733006"
     sodipodi:r1="16.099115"
     sodipodi:r2="8.0495577"
     sodipodi:arg1="-1.5707963"
     sodipodi:arg2="-0.52359878"
     inkscape:flatsided="true"
     inkscape:rounded="0"
     inkscape:randomized="0"
     d="m 53.261406,11.63389 13.942243,24.148674 -27.884486,-10e-7 z"
     inkscape:transform-center-y="-3.8765361"
     transform="matrix(0.96401385,0,0,0.96316746,-6.7751114,47.468676)" /></svg>