<svg id="svg2" width="96.171875" height="96.173828" enable-background="new 0 0 100 100" version="1.1" viewBox="0 0 96.171875 96.173828" xml:space="preserve" xmlns="http://www.w3.org/2000/svg"><path id="path4" d="m10.365235 0c-5.7160008 0-10.365235 4.6501872-10.365235 10.367187v75.439453c0 5.716 4.6492342 10.367188 10.365235 10.367188h75.441405c5.716 0 10.365235-4.651188 10.365235-10.367188v-75.439453c0-5.7169998-4.649235-10.367187-10.365235-10.367187zm0 5.40625h75.441405c2.735 0 4.958985 2.2239839 4.958985 4.958984v32.835937h2e-3v16.804688h-2e-3v25.800781c0 2.735-2.223985 4.960938-4.958985 4.960938h-75.441405c-2.7340008 0-4.958985-2.225938-4.958985-4.960938v-75.441406c0-2.7350001 2.2249842-4.958984 4.958985-4.958984z" fill="#fff"/><circle id="circle4156" cx="53.261406" cy="25.708351" r="11.89585" fill="none" stroke="#fff" stroke-width="4.83121157"/><path id="path4871" d="m22.79261 69.45077c-15.3849934-10.217765-8.531556-28.857603 4.986979-32.305179" fill="none" stroke="#fff" stroke-linecap="round" stroke-width="5"/><g id="g4252" transform="matrix(-.51497055 -.85720787 .85720787 -.51497055 30.51178 112.44775)" fill="#fff"><g id="g4240" transform="matrix(-.70710678 .70710678 -.70710678 -.70710678 143.19199 7.037116)"><path id="path4242" d="m68.369 34.117h9.262c1.493 0 2.703-1.21 2.703-2.703s-1.21-2.704-2.703-2.704h-9.262c-1.493 0-2.703 1.21-2.703 2.704s1.21 2.703 2.703 2.703z"/><path id="path4244" d="m68.369 34.117h9.262c1.493 0 2.703-1.21 2.703-2.703s-1.21-2.704-2.703-2.704h-9.262c-1.493 0-2.703 1.21-2.703 2.704s1.21 2.703 2.703 2.703z"/></g><g id="g4246" transform="matrix(.70710678 .70710678 .70710678 -.70710678 -11.020116 7.037116)"><path id="path4248" d="m68.369 34.117h9.262c1.493 0 2.703-1.21 2.703-2.703s-1.21-2.704-2.703-2.704h-9.262c-1.493 0-2.703 1.21-2.703 2.704s1.21 2.703 2.703 2.703z"/><path id="path4250" d="m68.369 34.117h9.262c1.493 0 2.703-1.21 2.703-2.703s-1.21-2.704-2.703-2.704h-9.262c-1.493 0-2.703 1.21-2.703 2.704s1.21 2.703 2.703 2.703z"/></g></g><path id="path4998" d="m73.589519 30.343836c15.384993 10.217765 8.531556 28.857603-4.986979 32.305179" fill="none" stroke="#fff" stroke-linecap="round" stroke-width="5"/><g id="g5004" transform="matrix(.51497055 .85720787 -.85720787 .51497055 65.87035 -12.65315)" fill="#fff"><g id="g5006" transform="matrix(-.70710678 .70710678 -.70710678 -.70710678 143.19199 7.037116)"><path id="path5008" d="m68.369 34.117h9.262c1.493 0 2.703-1.21 2.703-2.703s-1.21-2.704-2.703-2.704h-9.262c-1.493 0-2.703 1.21-2.703 2.704s1.21 2.703 2.703 2.703z"/><path id="path5010" d="m68.369 34.117h9.262c1.493 0 2.703-1.21 2.703-2.703s-1.21-2.704-2.703-2.704h-9.262c-1.493 0-2.703 1.21-2.703 2.704s1.21 2.703 2.703 2.703z"/></g><g id="g5012" transform="matrix(.70710678 .70710678 .70710678 -.70710678 -11.020116 7.037116)"><path id="path5014" d="m68.369 34.117h9.262c1.493 0 2.703-1.21 2.703-2.703s-1.21-2.704-2.703-2.704h-9.262c-1.493 0-2.703 1.21-2.703 2.704s1.21 2.703 2.703 2.703z"/><path id="path5016" d="m68.369 34.117h9.262c1.493 0 2.703-1.21 2.703-2.703s-1.21-2.704-2.703-2.704h-9.262c-1.493 0-2.703 1.21-2.703 2.704s1.21 2.703 2.703 2.703z"/></g></g><path id="path5028" transform="matrix(.96401385 0 0 .96316746 -6.7751114 47.468676)" d="m53.261406 11.63389 13.942243 24.148674-27.884486-1e-6z" fill="none" stroke="#fff" stroke-linecap="round" stroke-linejoin="round" stroke-width="5.18892574"/></svg>
