<svg id="svg2" width="96.171875" height="96.173828" enable-background="new 0 0 100 100" version="1.1" viewBox="0 0 96.171875 96.173828" xml:space="preserve" xmlns="http://www.w3.org/2000/svg"><path id="path4148" d="m3.9609375 3.875v20.707031h88.2500005v-20.707031h-88.2500005zm34.8808595 4.2265625h2.205078v5.8828125c0 0.2475-0.014922 0.475547-0.044922 0.685547-0.022467 0.21-0.06497 0.391015-0.125 0.541016-0.0975 0.239999-0.231797 0.461562-0.404297 0.664062-0.165 0.195-0.360937 0.363359-0.585937 0.505859-0.225 0.135-0.476406 0.239454-0.753907 0.314453-0.27 0.0825-0.553515 0.125-0.853515 0.125-0.9075 0-1.646797-0.417499-2.216797-1.25l1.439453-1.472656c0.037533 0.255 0.12058 0.457422 0.248047 0.607422 0.1275 0.15 0.285156 0.224609 0.472656 0.22461 0.4125-1e-6 0.619141-0.326016 0.619141-0.978516v-5.8496095zm6.183594 0h2.408203l3.228515 8.4824215h-2.351562l-0.505859-1.474609h-3.150391l-0.505859 1.474609h-2.351563l3.228516-8.4824215zm6.613281 0h2.205078l4.072266 5.1855465v-5.1855465h2.193359v8.4824215h-2.193359l-4.072266-5.1875v5.1875h-2.205078v-8.4824215zm-5.408203 2.5078125l-0.990235 2.824219h1.980469l-0.990234-2.824219z" fill="#fff"/><path id="path4" d="m10.365235 0c-5.7160008 0-10.365235 4.6501872-10.365235 10.367187v75.439453c0 5.716 4.6492342 10.367188 10.365235 10.367188h75.441405c5.716 0 10.365235-4.651188 10.365235-10.367188v-75.439453c0-5.7169998-4.649235-10.367187-10.365235-10.367187zm0 5.40625h75.441405c2.735 0 4.958985 2.2239839 4.958985 4.958984v32.835937h2e-3v16.804688h-2e-3v25.800781c0 2.735-2.223985 4.960938-4.958985 4.960938h-75.441405c-2.7340008 0-4.958985-2.225938-4.958985-4.960938v-75.441406c0-2.7350001 2.2249842-4.958984 4.958985-4.958984z" fill="#fff"/><g id="g5960" transform="translate(21.760321,30.317642)" fill="#fff"><g id="text4135" fill="#fff" stroke-width="1px"><path id="path3338" d="m14.616398 17.896484h-4.562988l2.1875-3.725586h6.357421v26.386719h-3.981933v-22.661133z"/><path id="path3340" d="m32.765812 36.814941h9.82666v3.742676h-17.722168l9.160156-11.091308q1.350098-1.657715 2.25586-2.871094 0.922851-1.213379 1.401367-2.033692 0.974121-1.606445 0.974121-2.888183 0-1.845703-1.298828-3.093262-1.298828-1.247558-3.212891-1.247558-3.999023 0-4.580078 4.733886h-3.964844q0.957032-8.339843 8.425293-8.339843 3.605957 0 6.049805 2.290039 2.460938 2.290039 2.460938 5.673828 0 2.15332-1.14502 4.221191-0.581055 1.07666-1.708984 2.563477-1.11084 1.469726-2.819825 3.486328l-4.101562 4.853515z"/></g></g></svg>
