<?xml version="1.0" encoding="UTF-8" standalone="no"?>
<svg
   xmlns:dc="http://purl.org/dc/elements/1.1/"
   xmlns:cc="http://creativecommons.org/ns#"
   xmlns:rdf="http://www.w3.org/1999/02/22-rdf-syntax-ns#"
   xmlns:svg="http://www.w3.org/2000/svg"
   xmlns="http://www.w3.org/2000/svg"
   xmlns:sodipodi="http://sodipodi.sourceforge.net/DTD/sodipodi-0.dtd"
   xmlns:inkscape="http://www.inkscape.org/namespaces/inkscape"
   version="1.1"
   x="0px"
   y="0px"
   viewBox="0 0 96.171875 96.173828"
   enable-background="new 0 0 100 100"
   xml:space="preserve"
   id="svg2"
   inkscape:version="0.91 r13725"
   sodipodi:docname="decimal.svg"
   width="96.171875"
   height="96.173828"><metadata
     id="metadata20"><rdf:RDF><cc:Work
         rdf:about=""><dc:format>image/svg+xml</dc:format><dc:type
           rdf:resource="http://purl.org/dc/dcmitype/StillImage" /><dc:title></dc:title></cc:Work></rdf:RDF></metadata><defs
     id="defs18" /><sodipodi:namedview
     pagecolor="#68ffff"
     bordercolor="#666666"
     borderopacity="1"
     objecttolerance="10"
     gridtolerance="10"
     guidetolerance="10"
     inkscape:pageopacity="0"
     inkscape:pageshadow="2"
     inkscape:window-width="1146"
     inkscape:window-height="858"
     id="namedview16"
     showgrid="false"
     inkscape:zoom="2.8284271"
     inkscape:cx="33.067947"
     inkscape:cy="47.353254"
     inkscape:window-x="554"
     inkscape:window-y="114"
     inkscape:window-maximized="0"
     inkscape:current-layer="svg2"
     fit-margin-top="0"
     fit-margin-left="0"
     fit-margin-right="0"
     fit-margin-bottom="0" /><path
     d="M 10.365235,0 C 4.6492342,0 0,4.6501872 0,10.367187 L 0,85.80664 c 0,5.716 4.6492342,10.367188 10.365235,10.367188 l 75.441405,0 c 5.716,0 10.365235,-4.651188 10.365235,-10.367188 l 0,-75.439453 C 96.171875,4.6501872 91.52264,0 85.80664,0 Z m 0,5.40625 75.441405,0 c 2.735,0 4.958985,2.2239839 4.958985,4.958984 l 0,32.835937 0.002,0 0,16.804688 -0.002,0 0,25.800781 c 0,2.735 -2.223985,4.960938 -4.958985,4.960938 l -75.441405,0 c -2.7340008,0 -4.958985,-2.225938 -4.958985,-4.960938 l 0,-75.441406 c 0,-2.7350001 2.2249842,-4.958984 4.958985,-4.958984 z"
     id="path4"
     inkscape:connector-curvature="0"
     sodipodi:nodetypes="sssssssssccsccccsccssc"
     style="fill:#ffffff" /><g
     style="font-style:normal;font-weight:normal;font-size:40px;line-height:125%;font-family:sans-serif;text-align:center;letter-spacing:0px;word-spacing:0px;text-anchor:middle;fill:#ffffff;fill-opacity:1;stroke:none;stroke-width:1px;stroke-linecap:butt;stroke-linejoin:miter;stroke-opacity:1"
     id="text4135"><path
       d="m 20.964355,37.618896 -4.562988,0 2.1875,-3.725585 6.357422,0 0,26.386718 -3.981934,0 0,-22.661133 z"
       style="font-style:normal;font-variant:normal;font-weight:500;font-stretch:normal;font-size:35px;font-family:futura;-inkscape-font-specification:'futura Medium';text-align:center;text-anchor:middle;fill:#ffffff"
       id="path3336" /><path
       d="m 39.11377,56.537354 9.82666,0 0,3.742675 -17.722168,0 9.160156,-11.091308 q 1.350098,-1.657715 2.255859,-2.871094 0.922852,-1.213379 1.401368,-2.033691 0.974121,-1.606446 0.974121,-2.888184 0,-1.845703 -1.298829,-3.093262 -1.298828,-1.247558 -3.21289,-1.247558 -3.999024,0 -4.580078,4.733886 l -3.964844,0 q 0.957031,-8.339843 8.425293,-8.339843 3.605957,0 6.049805,2.290039 2.460937,2.290039 2.460937,5.673828 0,2.15332 -1.145019,4.221191 -0.581055,1.07666 -1.708985,2.563477 -1.11084,1.469726 -2.819824,3.486328 l -4.101562,4.853516 z"
       style="font-style:normal;font-variant:normal;font-weight:500;font-stretch:normal;font-size:35px;font-family:futura;-inkscape-font-specification:'futura Medium';text-align:center;text-anchor:middle;fill:#ffffff"
       id="path3338" /><path
       d="m 54.973145,58.365967 q 0,-0.957031 0.700683,-1.657715 0.700684,-0.700684 1.674805,-0.700684 0.974121,0 1.674804,0.700684 0.700684,0.700684 0.700684,1.674805 0,0.991211 -0.700684,1.691894 -0.683593,0.683594 -1.674804,0.683594 -1.008301,0 -1.691895,-0.683594 -0.683593,-0.683594 -0.683593,-1.708984 z"
       style="font-style:normal;font-variant:normal;font-weight:500;font-stretch:normal;font-size:35px;font-family:futura;-inkscape-font-specification:'futura Medium';text-align:center;text-anchor:middle;fill:#ffffff"
       id="path3340" /><path
       d="m 71.806641,48.026611 0,-3.400879 q 2.529296,0 3.400879,-0.563964 1.555175,-0.991211 1.555175,-3.178711 0,-1.691895 -1.127929,-2.751465 -1.11084,-1.07666 -2.888184,-1.07666 -1.657715,0 -2.563477,0.803222 -0.871582,0.820313 -1.298828,2.768555 l -3.964843,0 q 0.615234,-3.725586 2.529296,-5.45166 1.914063,-1.743164 5.349122,-1.743164 3.469238,0 5.656738,2.050781 2.1875,2.033691 2.1875,5.246582 0,3.623047 -2.871094,5.639648 3.28125,1.931153 3.28125,6.271973 0,3.554688 -2.392578,5.810547 -2.392578,2.255859 -6.135254,2.255859 -4.768066,0 -7.075195,-3.503418 -0.957032,-1.469726 -1.213379,-4.067382 l 3.845215,0 q 0.307617,1.914062 1.486816,2.939453 1.196289,1.008301 3.110352,1.008301 1.931152,0 3.1958,-1.281739 1.264649,-1.315918 1.264649,-3.332519 0,-2.666016 -1.896973,-3.793946 -1.11084,-0.649414 -3.435058,-0.649414 z"
       style="font-style:normal;font-variant:normal;font-weight:500;font-stretch:normal;font-size:35px;font-family:futura;-inkscape-font-specification:'futura Medium';text-align:center;text-anchor:middle;fill:#ffffff"
       id="path3342" /></g></svg>