<svg id="svg2" width="96.171875" height="96.173828" enable-background="new 0 0 100 100" version="1.1" viewBox="0 0 96.171875 96.173828" xml:space="preserve" xmlns="http://www.w3.org/2000/svg"><path id="path4" d="m10.365235 6.2499993e-8c-5.7160008 0-10.365235 4.65018724-10.365235 10.3671869v75.439453c0 5.716 4.6492342 10.367188 10.365235 10.367188h75.441405c5.716 0 10.365235-4.651188 10.365235-10.367188v-75.439453c0-5.7169997-4.649235-10.3671869-10.365235-10.3671869zm0 5.40625004h75.441405c2.735 0 4.958985 2.2239839 4.958985 4.9589839v32.835937h2e-3v16.804688h-2e-3v25.800781c0 2.735-2.223985 4.960938-4.958985 4.960938h-75.441405c-2.7340008 0-4.958985-2.225938-4.958985-4.960938v-75.441406c0-2.735 2.2249842-4.9589839 4.958985-4.9589839z" fill="#fff"/><path id="path4137" d="m39.835938 24.337891a2.50025 2.50025 0 1 0 0 5h25.488281l1.125 11.25h-20.035157c-11.861903 0-18.443344 7.542414-21.478515 14.640625-3.035172 7.09821-3.099609 14.074218-3.099609 14.074218a2.50025 2.50025 0 0 0 2.5 2.535157h47.5a2.50025 2.50025 0 0 0 2.488281 -2.75l-4.25-42.5a2.50025 2.50025 0 0 0 -2.488281 -2.25h-27.75zm6.578124 21.25h20.535157l2.123047 21.25h-41.982422c0.224566-2.26398 0.71922-5.610417 2.443359-9.642579 2.577035-6.026789 7.034298-11.607421 16.880859-11.607421z" color="#000000" color-rendering="auto" enable-background="accumulate" fill="#fff" fill-rule="evenodd" image-rendering="auto" shape-rendering="auto" solid-color="#000000" style="block-progression:tb;isolation:auto;mix-blend-mode:normal;text-decoration-color:#000000;text-decoration-line:none;text-decoration-style:solid;text-indent:0;text-transform:none;white-space:normal"/></svg>
