<svg id="svg2" width="96.171875" height="96.173828" enable-background="new 0 0 100 100" version="1.1" viewBox="0 0 96.171875 96.173828" xml:space="preserve" xmlns="http://www.w3.org/2000/svg"><path id="path4" d="m10.365235 0c-5.7160008 0-10.365235 4.6501872-10.365235 10.367187v75.439453c0 5.716 4.6492342 10.367188 10.365235 10.367188h75.441405c5.716 0 10.365235-4.651188 10.365235-10.367188v-75.439453c0-5.7169998-4.649235-10.367187-10.365235-10.367187zm0 5.40625h75.441405c2.735 0 4.958985 2.2239839 4.958985 4.958984v32.835937h2e-3v16.804688h-2e-3v25.800781c0 2.735-2.223985 4.960938-4.958985 4.960938h-75.441405c-2.7340008 0-4.958985-2.225938-4.958985-4.960938v-75.441406c0-2.7350001 2.2249842-4.958984 4.958985-4.958984z" fill="#fff"/><g id="text4135" fill="#fff" stroke-width="1px"><path id="path4136" d="m26.364746 37.618896h-4.562988l2.1875-3.725585h6.357422v26.386718h-3.981934v-22.661133z"/><path id="path4138" d="m44.51416 56.537354h9.82666v3.742675h-17.722168l9.160157-11.091308q1.350097-1.657715 2.255859-2.871094 0.922852-1.213379 1.401367-2.033691 0.974121-1.606446 0.974121-2.888184 0-1.845703-1.298828-3.093262-1.298828-1.247558-3.212891-1.247558-3.999023 0-4.580078 4.733886h-3.964843q0.957031-8.339843 8.425293-8.339843 3.605957 0 6.049804 2.290039 2.460938 2.290039 2.460938 5.673828 0 2.15332-1.14502 4.221191-0.581054 1.07666-1.708984 2.563477-1.11084 1.469726-2.819824 3.486328l-4.101563 4.853516z"/><path id="path4140" d="m66.40625 48.026611v-3.400879q2.529297 0 3.400879-0.563964 1.555176-0.991211 1.555176-3.178711 0-1.691895-1.12793-2.751465-1.11084-1.07666-2.888184-1.07666-1.657714 0-2.563476 0.803222-0.871582 0.820313-1.298828 2.768555h-3.964844q0.615234-3.725586 2.529297-5.45166 1.914062-1.743164 5.349121-1.743164 3.469238 0 5.656738 2.050781 2.1875 2.033691 2.1875 5.246582 0 3.623047-2.871094 5.639648 3.28125 1.931153 3.28125 6.271973 0 3.554688-2.392578 5.810547t-6.135254 2.255859q-4.768066 0-7.075195-3.503418-0.957031-1.469726-1.213379-4.067382h3.845215q0.307617 1.914062 1.486816 2.939453 1.19629 1.008301 3.110352 1.008301 1.931152 0 3.195801-1.281739 1.264648-1.315918 1.264648-3.332519 0-2.666016-1.896972-3.793946-1.11084-0.649414-3.435059-0.649414z"/></g></svg>
