<?xml version="1.0" encoding="UTF-8" standalone="no"?>
<svg
   xmlns:dc="http://purl.org/dc/elements/1.1/"
   xmlns:cc="http://creativecommons.org/ns#"
   xmlns:rdf="http://www.w3.org/1999/02/22-rdf-syntax-ns#"
   xmlns:svg="http://www.w3.org/2000/svg"
   xmlns="http://www.w3.org/2000/svg"
   xmlns:sodipodi="http://sodipodi.sourceforge.net/DTD/sodipodi-0.dtd"
   xmlns:inkscape="http://www.inkscape.org/namespaces/inkscape"
   version="1.1"
   x="0px"
   y="0px"
   viewBox="0 0 96.171875 96.173828"
   enable-background="new 0 0 100 100"
   xml:space="preserve"
   id="svg2"
   inkscape:version="0.91 r13725"
   sodipodi:docname="interval.svg"
   width="96.171875"
   height="96.173828"><metadata
     id="metadata20"><rdf:RDF><cc:Work
         rdf:about=""><dc:format>image/svg+xml</dc:format><dc:type
           rdf:resource="http://purl.org/dc/dcmitype/StillImage" /><dc:title></dc:title></cc:Work></rdf:RDF></metadata><defs
     id="defs18" /><sodipodi:namedview
     pagecolor="#5bffff"
     bordercolor="#666666"
     borderopacity="1"
     objecttolerance="10"
     gridtolerance="10"
     guidetolerance="10"
     inkscape:pageopacity="0"
     inkscape:pageshadow="2"
     inkscape:window-width="1540"
     inkscape:window-height="1105"
     id="namedview16"
     showgrid="false"
     inkscape:zoom="5.6568542"
     inkscape:cx="45.292448"
     inkscape:cy="34.136598"
     inkscape:window-x="388"
     inkscape:window-y="59"
     inkscape:window-maximized="0"
     inkscape:current-layer="g4184"
     fit-margin-top="0"
     fit-margin-left="0"
     fit-margin-right="0"
     fit-margin-bottom="0"
     showguides="false"><sodipodi:guide
       position="35.708892,94.045202"
       orientation="0,1"
       id="guide4161" /></sodipodi:namedview><path
     d="M 10.365235,0 C 4.6492342,0 0,4.6501872 0,10.367187 L 0,85.80664 c 0,5.716 4.6492342,10.367188 10.365235,10.367188 l 75.441405,0 c 5.716,0 10.365235,-4.651188 10.365235,-10.367188 l 0,-75.439453 C 96.171875,4.6501872 91.52264,0 85.80664,0 Z m 0,5.40625 75.441405,0 c 2.735,0 4.958985,2.2239839 4.958985,4.958984 l 0,32.835937 0.002,0 0,16.804688 -0.002,0 0,25.800781 c 0,2.735 -2.223985,4.960938 -4.958985,4.960938 l -75.441405,0 c -2.7340008,0 -4.958985,-2.225938 -4.958985,-4.960938 l 0,-75.441406 c 0,-2.7350001 2.2249842,-4.958984 4.958985,-4.958984 z"
     id="path4"
     inkscape:connector-curvature="0"
     sodipodi:nodetypes="sssssssssccsccccsccssc"
     style="fill:#ffffff" /><g
     id="g4870"
     transform="matrix(0,0.83183205,-0.83183205,0,89.3834,6.3258524)"><path
       style="color:#000000;font-style:normal;font-variant:normal;font-weight:normal;font-stretch:normal;font-size:medium;line-height:normal;font-family:sans-serif;text-indent:0;text-align:start;text-decoration:none;text-decoration-line:none;text-decoration-style:solid;text-decoration-color:#000000;letter-spacing:normal;word-spacing:normal;text-transform:none;direction:ltr;block-progression:tb;writing-mode:lr-tb;baseline-shift:baseline;text-anchor:start;white-space:normal;clip-rule:nonzero;display:inline;overflow:visible;visibility:visible;opacity:1;isolation:auto;mix-blend-mode:normal;color-interpolation:sRGB;color-interpolation-filters:linearRGB;solid-color:#000000;solid-opacity:1;fill:#ffffff;fill-opacity:1;fill-rule:nonzero;stroke:none;stroke-width:6.12503433;stroke-linecap:round;stroke-linejoin:round;stroke-miterlimit:4;stroke-dasharray:none;stroke-dashoffset:0;stroke-opacity:1;color-rendering:auto;image-rendering:auto;shape-rendering:auto;text-rendering:auto;enable-background:accumulate"
       d="m 11.094792,49.748786 c 0,0.0724 0.0043,0.143706 0.0047,0.216015 l 6.123532,0 c -4.63e-4,-0.07234 -0.0047,-0.14356 -0.0047,-0.216015 0,-18.297574 14.766677,-33.064253 33.064253,-33.064253 18.297575,0 33.0666,14.766679 33.066601,33.064253 0,12.439739 -6.829607,23.242065 -16.950067,28.887197 l 3.047668,5.275915 C 81.385653,77.187844 89.475057,64.398171 89.475057,49.748785 89.475056,28.140998 71.890366,10.558653 50.282578,10.558654 c -21.607792,0 -39.187786,17.582344 -39.187786,39.190132 z m 5.675067,18.633568 c -0.02727,0.588833 0.113393,1.191685 0.443769,1.73281 0.879003,1.443998 2.764232,1.90137 4.205232,1.021371 1.446001,-0.879998 1.900372,-2.765928 1.021371,-4.209928 -0.879003,-1.442999 -2.765927,-1.899022 -4.209927,-1.019023 -0.900627,0.550623 -1.414996,1.493385 -1.460445,2.47477 z m 13.68168,13.40227 c 0.09796,0.977031 0.666001,1.891342 1.596626,2.392591 1.489,0.804 3.340837,0.246267 4.141836,-1.239734 0.808001,-1.491999 0.250963,-3.34488 -1.235036,-4.14888 -1.49,-0.803 -3.350229,-0.24457 -4.15123,1.24443 -0.30075,0.55725 -0.410972,1.165373 -0.352196,1.751593 z m 16.781012,4.604388 c 0.09796,0.977031 0.663653,1.891342 1.594278,2.392591 1.489001,0.804001 3.343184,0.248615 4.144185,-1.237385 0.808,-1.491999 0.250962,-3.347228 -1.235037,-4.151228 -1.490001,-0.803 -3.350229,-0.244571 -4.151229,1.244429 -0.30075,0.55725 -0.410972,1.165375 -0.352197,1.751593 z"
       id="path4293"
       inkscape:connector-curvature="0" /><path
       inkscape:connector-curvature="0"
       d="m 12.556669,52.410645 c 1.444,0.88 3.33,0.423 4.209,-1.02 0.879,-1.444 0.424,-3.327 -1.022,-4.208 -1.441,-0.88 -3.325,-0.423 -4.204,1.021 -0.881,1.444 -0.424,3.327 1.017,4.207 z"
       id="path4887"
       style="fill:#ffffff" /><path
       style="fill:#ffffff"
       d="m 70.699001,81.305862 a 3.062,3.062 0 0 1 -3.062,3.062 3.062,3.062 0 0 1 -3.062,-3.062 3.062,3.062 0 0 1 3.062,-3.062 3.062,3.062 0 0 1 3.062,3.062 z"
       id="circle4854" /><path
       style="fill:#ffffff"
       d="m 70.699001,17.915001 a 3.062,3.062 0 0 1 -3.062,3.062 3.062,3.062 0 0 1 -3.062,-3.062 3.062,3.062 0 0 1 3.062,-3.062 3.062,3.062 0 0 1 3.062,3.062 z"
       id="circle4862" /><g
       id="g4184"
       transform="matrix(0,-1.2021657,1.2021657,0,-8.4503893,119.78274)" /></g></svg>