<svg id="svg2" width="96.171875" height="96.173828" enable-background="new 0 0 100 100" version="1.1" viewBox="0 0 96.171875 96.173828" xml:space="preserve" xmlns="http://www.w3.org/2000/svg"><path id="path4" d="m10.365235 0c-5.7160008 0-10.365235 4.6501872-10.365235 10.367187v75.439453c0 5.716 4.6492342 10.367188 10.365235 10.367188h75.441405c5.716 0 10.365235-4.651188 10.365235-10.367188v-75.439453c0-5.7169998-4.649235-10.367187-10.365235-10.367187zm0 5.40625h75.441405c2.735 0 4.958985 2.2239839 4.958985 4.958984v32.835937h2e-3v16.804688h-2e-3v25.800781c0 2.735-2.223985 4.960938-4.958985 4.960938h-75.441405c-2.7340008 0-4.958985-2.225938-4.958985-4.960938v-75.441406c0-2.7350001 2.2249842-4.958984 4.958985-4.958984z" fill="#fff"/><g id="g4870" transform="matrix(0 .83183205 -.83183205 0 89.3834 6.3258524)" fill="#fff"><path id="path4293" d="m11.094792 49.748786c0 0.0724 0.0043 0.143706 0.0047 0.216015h6.123532c-4.63e-4 -0.07234-0.0047-0.14356-0.0047-0.216015 0-18.297574 14.766677-33.064253 33.064253-33.064253 18.297575 0 33.0666 14.766679 33.066601 33.064253 0 12.439739-6.829607 23.242065-16.950067 28.887197l3.047668 5.275915c11.938874-6.724054 20.028278-19.513727 20.028278-34.163113-1e-6 -21.607787-17.584691-39.190132-39.192479-39.190131-21.607792 0-39.187786 17.582344-39.187786 39.190132zm5.675067 18.633568c-0.02727 0.588833 0.113393 1.191685 0.443769 1.73281 0.879003 1.443998 2.764232 1.90137 4.205232 1.021371 1.446001-0.879998 1.900372-2.765928 1.021371-4.209928-0.879003-1.442999-2.765927-1.899022-4.209927-1.019023-0.900627 0.550623-1.414996 1.493385-1.460445 2.47477zm13.68168 13.40227c0.09796 0.977031 0.666001 1.891342 1.596626 2.392591 1.489 0.804 3.340837 0.246267 4.141836-1.239734 0.808001-1.491999 0.250963-3.34488-1.235036-4.14888-1.49-0.803-3.350229-0.24457-4.15123 1.24443-0.30075 0.55725-0.410972 1.165373-0.352196 1.751593zm16.781012 4.604388c0.09796 0.977031 0.663653 1.891342 1.594278 2.392591 1.489001 0.804001 3.343184 0.248615 4.144185-1.237385 0.808-1.491999 0.250962-3.347228-1.235037-4.151228-1.490001-0.803-3.350229-0.244571-4.151229 1.244429-0.30075 0.55725-0.410972 1.165375-0.352197 1.751593z" color="#000000" color-rendering="auto" enable-background="accumulate" image-rendering="auto" shape-rendering="auto" solid-color="#000000" style="block-progression:tb;isolation:auto;mix-blend-mode:normal;text-decoration-color:#000000;text-decoration-line:none;text-decoration-style:solid;text-indent:0;text-transform:none;white-space:normal"/><path id="path4887" d="m12.556669 52.410645c1.444 0.88 3.33 0.423 4.209-1.02 0.879-1.444 0.424-3.327-1.022-4.208-1.441-0.88-3.325-0.423-4.204 1.021-0.881 1.444-0.424 3.327 1.017 4.207z"/><path id="circle4854" d="m70.699001 81.305862a3.062 3.062 0 0 1 -3.062 3.062 3.062 3.062 0 0 1 -3.062 -3.062 3.062 3.062 0 0 1 3.062 -3.062 3.062 3.062 0 0 1 3.062 3.062z"/><path id="circle4862" d="m70.699001 17.915001a3.062 3.062 0 0 1 -3.062 3.062 3.062 3.062 0 0 1 -3.062 -3.062 3.062 3.062 0 0 1 3.062 -3.062 3.062 3.062 0 0 1 3.062 3.062z"/></g></svg>
