<svg id="svg2" width="96.171875" height="96.173828" enable-background="new 0 0 100 100" version="1.1" viewBox="0 0 96.171875 96.173828" xml:space="preserve" xmlns="http://www.w3.org/2000/svg"><path id="path4" d="m10.365235 0c-5.7160008 0-10.365235 4.6501872-10.365235 10.367187v75.439453c0 5.716 4.6492342 10.367188 10.365235 10.367188h75.441405c5.716 0 10.365235-4.651188 10.365235-10.367188v-75.439453c0-5.7169998-4.649235-10.367187-10.365235-10.367187zm0 5.40625h75.441405c2.735 0 4.958985 2.2239839 4.958985 4.958984v32.835937h2e-3v16.804688h-2e-3v25.800781c0 2.735-2.223985 4.960938-4.958985 4.960938h-75.441405c-2.7340008 0-4.958985-2.225938-4.958985-4.960938v-75.441406c0-2.7350001 2.2249842-4.958984 4.958985-4.958984z" fill="#fff"/><g id="g4209" transform="matrix(1.1121336,0,0,1.1121336,22.280729,39.406422)" fill="#fff"><path id="path4151" d="m51.070269-10.998463c-0.621066 0.0398-1.225852 0.317806-1.668387 0.8219l-4.114767 4.6767507-4.676751-4.1147674c-1.007405-0.8869213-2.543886-0.7887203-3.429853 0.219524-0.886805 1.0091998-0.78872 2.545642 0.219525 3.4316084l4.678507 4.1130112-4.114768 4.6767512c-0.886863 1.0083024-0.788777 2.5429885 0.219525 3.4298514 0.503197 0.4425925 1.140512 0.6421648 1.761465 0.6023755 0.620056-0.039732 1.225795-0.3187036 1.668386-0.8218995l4.114769-4.6767511 4.676751 4.1147683c0.503196 0.4425916 1.14051 0.6404087 1.761464 0.6006185 0.620955-0.039789 1.226654-0.3186461 1.670143-0.8218995 0.886807-1.0091998 0.786964-2.543885-0.221281-3.4298514l-4.676751-4.1130122 4.113012-4.6767511c0.886863-1.0083024 0.788778-2.5447437-0.219524-3.431608-0.503702-0.443461-1.140399-0.640416-1.761465-0.600619z"/><path id="path4149" d="m9.0602957 0.27983049c-0.9647141 0-1.9294975 0.0694143-2.8942116 0.2072314-1.1025312 0-1.9299687 1.10325141-1.6543372 2.20578271 0.2756332 0.8268979 1.1032514 1.6525802 2.2057826 1.6525802h0.2757232c1.6537959-0.2756323 3.0317363-0.2756323 4.6855313 0 1.102531 0 2.205783-0.5500499 2.205783-1.6525802 0-1.1025313-0.827529-1.93015036-1.93006-2.20578271-0.964714-0.13781708-1.929497-0.2072314-2.8942113-0.2072314z"/><path id="path4147" d="m16.928056 1.5934649c-0.65409 0.043068-1.32209 0.4102979-1.666631 1.0993797-0.551265 1.1025303-0.275361 2.2042064 0.827168 2.755472 0.826898 0.5512647 1.654518 1.1030716 2.205783 1.6543372 0.551267 0.2756315 0.825504 0.5516253 1.101136 1.1028909s1.103071 0.8253217 1.654336 0.5496893c0.275633 0 0.82726-9.08e-5 1.102892-0.2757222 1.102531-0.5512656 1.102712-1.928575 0.551445-2.7554729-0.275631-0.5512647-0.827348-1.1030717-1.378614-1.6543364-1.10253-0.8268979-2.204385-1.6527618-3.306917-2.2040265-0.310087-0.2067243-0.698145-0.2980515-1.090598-0.2722111z"/><path id="path4145" d="m1.4717712 2.2011096c-0.2670191 0.0086132-0.54275489 0.0781956-0.81838725 0.2160118l-0.55144634 0.2757232c-1.65379501 0.8268979-3.03164571 1.9287539-4.40980831 3.3069174-0.8268989 0.826898-0.5511757 1.9285741 0.2757222 2.755472 0.2756324 0.2756324 0.8273476 0.5514455 1.3786141 0.5514455 0.5512656 0 1.1013155-0.2759039 1.6525811-0.8271677 1.10253034-1.1025312 2.2061433-1.9284842 3.3086736-2.4797498l0.2757231-0.2757231c0.8268971-0.5512647 1.3766773-1.6545171 0.8254126-2.2057827-0.4134495-0.826898-1.1360272-1.3429879-1.9370848-1.3171466z"/><path id="path4143" d="m46.548064 9.2539943c-0.94964-0.011306-1.793076 0.7423083-1.793076 1.7070227 0 0.826898-0.275813 1.378884-0.551447 2.205782-0.275632 0.826899 0.276085 2.204117 1.378614 2.47975h0.825413c0.826897 0 1.654427-0.551715 1.93006-1.378614 0.551265-1.10253 0.827079-1.928576 0.551446-2.755473 0-1.102531-0.827529-2.2057825-1.930061-2.2057825-0.137816-0.034454-0.275287-0.05107-0.410949-0.052685z"/><path id="path4141" d="m23.522573 9.3681469c-0.26702 0.00861-0.542754 0.07644-0.818388 0.2142558-1.102531 0.5512653-1.654156 1.6546983-1.102891 2.7572283l0.551446 0.827168c0.551265 1.378164 1.103161 2.755833 1.930059 3.858364 0.551264 0.826898 1.101405 1.102891 1.928305 1.102891 0.27563 0 0.551535-9e-5 0.827167-0.275722 1.102532-0.551267 1.378435-1.654699 0.827169-2.757229-0.551265-1.10253-1.103072-2.480111-1.654336-3.582641l-0.551447-0.827168c-0.413448-0.8268984-1.136026-1.3429875-1.937084-1.3171471z"/><path id="path4139" d="m-5.1648955 9.6438692c-0.8656586-0.02584-1.69348 0.4902498-1.9002042 1.3171478v0.275723c-0.2756333 0.826899-0.8255016 1.652941-1.1011348 2.755472l-0.5514455 1.654337c-0.5512656 0.826897 3.597e-4 2.205873 1.1028909 2.481505h0.8254125c0.826898 0 1.6544263-0.551716 1.9300595-1.378614l0.5514464-1.654337c0.2756314-0.826899 0.8272594-1.928665 1.1028909-3.031195 0.2756332-1.102531-0.2759939-2.2057822-1.1028909-2.2057822-0.2756333-0.137817-0.5684713-0.2056425-0.8570248-0.2142566z"/><path id="path4137" d="m43.515112 15.85378c-0.551264 0-1.103904 0.206489-1.517353 0.619937-1.10253 1.102531-2.204478 1.930241-3.582641 2.481506-1.102529 0.551264-1.654157 1.65294-1.102891 2.755472 0.275632 0.551266 1.103162 1.102891 1.93006 1.102891 0.275633 0 0.551535-0.275723 0.827168-0.275723 1.929429-0.551264 3.583091-1.930511 4.961255-3.308673 0.826897-0.826898 0.826897-1.928574 0-2.755473-0.41345-0.413448-0.964332-0.619937-1.515598-0.619937z"/><path id="path4212" d="m29.195087 18.184252c-0.664856-0.04845-1.288559 0.25416-1.805369 0.770971-0.8269 0.826898-0.551176 2.204206 0.275722 2.755472 1.378164 0.826897 3.031737 1.654428 4.685532 1.93006 0.551264 0.275632 1.103072 0.275722 1.654337 0.275722 1.102531 0 2.203938-0.827529 1.928304-1.930059 0-1.102531-0.825773-2.205783-1.928304-2.205783h-0.827168c-1.10253 0-1.930331-0.54987-2.757229-1.101135-0.413448-0.310086-0.826911-0.466177-1.225825-0.495248z"/></g></svg>
