<?xml version="1.0" encoding="UTF-8" standalone="no"?>
<svg
   xmlns:dc="http://purl.org/dc/elements/1.1/"
   xmlns:cc="http://creativecommons.org/ns#"
   xmlns:rdf="http://www.w3.org/1999/02/22-rdf-syntax-ns#"
   xmlns:svg="http://www.w3.org/2000/svg"
   xmlns="http://www.w3.org/2000/svg"
   xmlns:sodipodi="http://sodipodi.sourceforge.net/DTD/sodipodi-0.dtd"
   xmlns:inkscape="http://www.inkscape.org/namespaces/inkscape"
   version="1.1"
   x="0px"
   y="0px"
   viewBox="0 0 96.171875 96.173828"
   enable-background="new 0 0 100 100"
   xml:space="preserve"
   id="svg2"
   inkscape:version="0.91 r13725"
   sodipodi:docname="map.svg"
   width="96.171875"
   height="96.173828"><metadata
     id="metadata20"><rdf:RDF><cc:Work
         rdf:about=""><dc:format>image/svg+xml</dc:format><dc:type
           rdf:resource="http://purl.org/dc/dcmitype/StillImage" /><dc:title></dc:title></cc:Work></rdf:RDF></metadata><defs
     id="defs18" /><sodipodi:namedview
     pagecolor="#85ffff"
     bordercolor="#666666"
     borderopacity="1"
     objecttolerance="10"
     gridtolerance="10"
     guidetolerance="10"
     inkscape:pageopacity="0"
     inkscape:pageshadow="2"
     inkscape:window-width="1128"
     inkscape:window-height="1143"
     id="namedview16"
     showgrid="false"
     inkscape:zoom="1"
     inkscape:cx="-247.30996"
     inkscape:cy="67.065499"
     inkscape:window-x="327"
     inkscape:window-y="14"
     inkscape:window-maximized="0"
     inkscape:current-layer="svg2"
     fit-margin-top="0"
     fit-margin-left="0"
     fit-margin-right="0"
     fit-margin-bottom="0" /><path
     d="M 10.365235,0 C 4.6492342,0 0,4.6501872 0,10.367187 L 0,85.80664 c 0,5.716 4.6492342,10.367188 10.365235,10.367188 l 75.441405,0 c 5.716,0 10.365235,-4.651188 10.365235,-10.367188 l 0,-75.439453 C 96.171875,4.6501872 91.52264,0 85.80664,0 Z m 0,5.40625 75.441405,0 c 2.735,0 4.958985,2.2239839 4.958985,4.958984 l 0,32.835937 0.002,0 0,16.804688 -0.002,0 0,25.800781 c 0,2.735 -2.223985,4.960938 -4.958985,4.960938 l -75.441405,0 c -2.7340008,0 -4.958985,-2.225938 -4.958985,-4.960938 l 0,-75.441406 c 0,-2.7350001 2.2249842,-4.958984 4.958985,-4.958984 z"
     id="path4"
     inkscape:connector-curvature="0"
     sodipodi:nodetypes="sssssssssccsccccsccssc"
     style="fill:#ffffff" /><g
     id="g4209"
     transform="matrix(1.1121336,0,0,1.1121336,22.280729,39.406422)"><path
       style="fill:#ffffff"
       d="m 51.070269,-10.998463 c -0.621066,0.0398 -1.225852,0.317806 -1.668387,0.8219 l -4.114767,4.6767507 -4.676751,-4.1147674 c -1.007405,-0.8869213 -2.543886,-0.7887203 -3.429853,0.219524 -0.886805,1.0091998 -0.78872,2.545642 0.219525,3.4316084 l 4.678507,4.1130112 -4.114768,4.6767512 C 37.076912,3.8346175 37.174998,5.3693036 38.1833,6.2561665 38.686497,6.698759 39.323812,6.8983313 39.944765,6.858542 40.564821,6.81881 41.17056,6.5398384 41.613151,6.0366425 l 4.114769,-4.6767511 4.676751,4.1147683 c 0.503196,0.4425916 1.14051,0.6404087 1.761464,0.6006185 0.620955,-0.039789 1.226654,-0.3186461 1.670143,-0.8218995 0.886807,-1.0091998 0.786964,-2.543885 -0.221281,-3.4298514 l -4.676751,-4.1130122 4.113012,-4.6767511 c 0.886863,-1.0083024 0.788778,-2.5447437 -0.219524,-3.431608 -0.503702,-0.443461 -1.140399,-0.640416 -1.761465,-0.600619 z"
       id="path4151"
       inkscape:connector-curvature="0" /><path
       style="fill:#ffffff"
       d="m 9.0602957,0.27983049 c -0.9647141,0 -1.9294975,0.0694143 -2.8942116,0.2072314 -1.1025312,0 -1.9299687,1.10325141 -1.6543372,2.20578271 0.2756332,0.8268979 1.1032514,1.6525802 2.2057826,1.6525802 l 0.2757232,0 c 1.6537959,-0.2756323 3.0317363,-0.2756323 4.6855313,0 1.102531,0 2.205783,-0.5500499 2.205783,-1.6525802 0,-1.1025313 -0.827529,-1.93015036 -1.93006,-2.20578271 C 10.989793,0.34924481 10.02501,0.27983049 9.0602957,0.27983049 Z"
       id="path4149" /><path
       style="fill:#ffffff"
       d="m 16.928056,1.5934649 c -0.65409,0.043068 -1.32209,0.4102979 -1.666631,1.0993797 -0.551265,1.1025303 -0.275361,2.2042064 0.827168,2.755472 0.826898,0.5512647 1.654518,1.1030716 2.205783,1.6543372 0.551267,0.2756315 0.825504,0.5516253 1.101136,1.1028909 0.275632,0.5512656 1.103071,0.8253217 1.654336,0.5496893 0.275633,0 0.82726,-9.08e-5 1.102892,-0.2757222 1.102531,-0.5512656 1.102712,-1.928575 0.551445,-2.7554729 C 22.428554,5.1727742 21.876837,4.6209672 21.325571,4.0697025 20.223041,3.2428046 19.121186,2.4169407 18.018654,1.865676 17.708567,1.6589517 17.320509,1.5676245 16.928056,1.5934649 Z"
       id="path4147" /><path
       style="fill:#ffffff"
       d="M 1.4717712,2.2011096 C 1.2047521,2.2097228 0.92901631,2.2793052 0.65338395,2.4171214 L 0.10193761,2.6928446 C -1.5518574,3.5197425 -2.9297081,4.6215985 -4.3078707,5.999762 c -0.8268989,0.826898 -0.5511757,1.9285741 0.2757222,2.755472 0.2756324,0.2756324 0.8273476,0.5514455 1.3786141,0.5514455 0.5512656,0 1.1013155,-0.2759039 1.6525811,-0.8271677 C 0.10157704,7.3769806 1.20519,6.5510276 2.3077203,5.999762 L 2.5834434,5.7240389 C 3.4103405,5.1727742 3.9601207,4.0695218 3.408856,3.5182562 2.9954065,2.6913582 2.2728288,2.1752683 1.4717712,2.2011096 Z"
       id="path4145" /><path
       style="fill:#ffffff"
       d="m 46.548064,9.2539943 c -0.94964,-0.011306 -1.793076,0.7423083 -1.793076,1.7070227 0,0.826898 -0.275813,1.378884 -0.551447,2.205782 -0.275632,0.826899 0.276085,2.204117 1.378614,2.47975 l 0.825413,0 c 0.826897,0 1.654427,-0.551715 1.93006,-1.378614 0.551265,-1.10253 0.827079,-1.928576 0.551446,-2.755473 0,-1.102531 -0.827529,-2.2057825 -1.930061,-2.2057825 -0.137816,-0.034454 -0.275287,-0.05107 -0.410949,-0.052685 z"
       id="path4143" /><path
       style="fill:#ffffff"
       d="m 23.522573,9.3681469 c -0.26702,0.00861 -0.542754,0.07644 -0.818388,0.2142558 -1.102531,0.5512653 -1.654156,1.6546983 -1.102891,2.7572283 l 0.551446,0.827168 c 0.551265,1.378164 1.103161,2.755833 1.930059,3.858364 0.551264,0.826898 1.101405,1.102891 1.928305,1.102891 0.27563,0 0.551535,-9e-5 0.827167,-0.275722 1.102532,-0.551267 1.378435,-1.654699 0.827169,-2.757229 -0.551265,-1.10253 -1.103072,-2.480111 -1.654336,-3.582641 L 25.459657,10.685294 C 25.046209,9.8583956 24.323631,9.3423065 23.522573,9.3681469 Z"
       id="path4141" /><path
       style="fill:#ffffff"
       d="m -5.1648955,9.6438692 c -0.8656586,-0.02584 -1.69348,0.4902498 -1.9002042,1.3171478 l 0,0.275723 c -0.2756333,0.826899 -0.8255016,1.652941 -1.1011348,2.755472 L -8.71768,15.646549 c -0.5512656,0.826897 3.597e-4,2.205873 1.1028909,2.481505 l 0.8254125,0 c 0.826898,0 1.6544263,-0.551716 1.9300595,-1.378614 l 0.5514464,-1.654337 c 0.2756314,-0.826899 0.8272594,-1.928665 1.1028909,-3.031195 C -2.9293466,10.961377 -3.4809737,9.8581258 -4.3078707,9.8581258 -4.583504,9.7203088 -4.876342,9.6524833 -5.1648955,9.6438692 Z"
       id="path4139" /><path
       style="fill:#ffffff"
       d="m 43.515112,15.85378 c -0.551264,0 -1.103904,0.206489 -1.517353,0.619937 -1.10253,1.102531 -2.204478,1.930241 -3.582641,2.481506 -1.102529,0.551264 -1.654157,1.65294 -1.102891,2.755472 0.275632,0.551266 1.103162,1.102891 1.93006,1.102891 0.275633,0 0.551535,-0.275723 0.827168,-0.275723 1.929429,-0.551264 3.583091,-1.930511 4.961255,-3.308673 0.826897,-0.826898 0.826897,-1.928574 0,-2.755473 -0.41345,-0.413448 -0.964332,-0.619937 -1.515598,-0.619937 z"
       id="path4137" /><path
       style="fill:#ffffff"
       d="m 29.195087,18.184252 c -0.664856,-0.04845 -1.288559,0.25416 -1.805369,0.770971 -0.8269,0.826898 -0.551176,2.204206 0.275722,2.755472 1.378164,0.826897 3.031737,1.654428 4.685532,1.93006 0.551264,0.275632 1.103072,0.275722 1.654337,0.275722 1.102531,0 2.203938,-0.827529 1.928304,-1.930059 0,-1.102531 -0.825773,-2.205783 -1.928304,-2.205783 l -0.827168,0 c -1.10253,0 -1.930331,-0.54987 -2.757229,-1.101135 -0.413448,-0.310086 -0.826911,-0.466177 -1.225825,-0.495248 z"
       id="path4212" /></g></svg>