<?xml version="1.0" encoding="UTF-8" standalone="no"?>
<svg
   xmlns:dc="http://purl.org/dc/elements/1.1/"
   xmlns:cc="http://creativecommons.org/ns#"
   xmlns:rdf="http://www.w3.org/1999/02/22-rdf-syntax-ns#"
   xmlns:svg="http://www.w3.org/2000/svg"
   xmlns="http://www.w3.org/2000/svg"
   xmlns:sodipodi="http://sodipodi.sourceforge.net/DTD/sodipodi-0.dtd"
   xmlns:inkscape="http://www.inkscape.org/namespaces/inkscape"
   version="1.1"
   x="0px"
   y="0px"
   viewBox="0 0 96.171875 96.173828"
   enable-background="new 0 0 100 100"
   xml:space="preserve"
   id="svg2"
   inkscape:version="0.91 r13725"
   sodipodi:docname="nest.svg"
   width="96.171875"
   height="96.173828"
   inkscape:export-filename="/Users/beckyconning/Downloads/Icons/nest copy.png"
   inkscape:export-xdpi="934.09003"
   inkscape:export-ydpi="934.09003"><metadata
     id="metadata20"><rdf:RDF><cc:Work
         rdf:about=""><dc:format>image/svg+xml</dc:format><dc:type
           rdf:resource="http://purl.org/dc/dcmitype/StillImage" /><dc:title></dc:title></cc:Work></rdf:RDF></metadata><defs
     id="defs18" /><sodipodi:namedview
     pagecolor="#6affff"
     bordercolor="#666666"
     borderopacity="1"
     objecttolerance="10"
     gridtolerance="10"
     guidetolerance="10"
     inkscape:pageopacity="0"
     inkscape:pageshadow="2"
     inkscape:window-width="1324"
     inkscape:window-height="1046"
     id="namedview16"
     showgrid="false"
     inkscape:zoom="5.6568542"
     inkscape:cx="22.586264"
     inkscape:cy="37.885252"
     inkscape:window-x="367"
     inkscape:window-y="31"
     inkscape:window-maximized="0"
     inkscape:current-layer="svg2"
     fit-margin-top="0"
     fit-margin-left="0"
     fit-margin-right="0"
     fit-margin-bottom="0"
     showguides="false" /><path
     d="M 10.365235,0 C 4.6492342,0 0,4.6501872 0,10.367187 L 0,85.80664 c 0,5.716 4.6492342,10.367188 10.365235,10.367188 l 75.441405,0 c 5.716,0 10.365235,-4.651188 10.365235,-10.367188 l 0,-75.439453 C 96.171875,4.6501872 91.52264,0 85.80664,0 Z m 0,5.40625 75.441405,0 c 2.735,0 4.958985,2.2239839 4.958985,4.958984 l 0,32.835937 0.002,0 0,16.804688 -0.002,0 0,25.800781 c 0,2.735 -2.223985,4.960938 -4.958985,4.960938 l -75.441405,0 c -2.7340008,0 -4.958985,-2.225938 -4.958985,-4.960938 l 0,-75.441406 c 0,-2.7350001 2.2249842,-4.958984 4.958985,-4.958984 z"
     id="path4"
     inkscape:connector-curvature="0"
     sodipodi:nodetypes="sssssssssccsccccsccssc"
     style="fill:#ffffff" /><path
     style="color:#000000;font-style:normal;font-variant:normal;font-weight:normal;font-stretch:normal;font-size:medium;line-height:normal;font-family:sans-serif;text-indent:0;text-align:start;text-decoration:none;text-decoration-line:none;text-decoration-style:solid;text-decoration-color:#000000;letter-spacing:normal;word-spacing:normal;text-transform:none;direction:ltr;block-progression:tb;writing-mode:lr-tb;baseline-shift:baseline;text-anchor:start;white-space:normal;clip-rule:nonzero;display:inline;overflow:visible;visibility:visible;opacity:1;isolation:auto;mix-blend-mode:normal;color-interpolation:sRGB;color-interpolation-filters:linearRGB;solid-color:#000000;solid-opacity:1;fill:#ffffff;fill-opacity:1;fill-rule:nonzero;stroke:none;stroke-width:5;stroke-linecap:round;stroke-linejoin:round;stroke-miterlimit:4;stroke-dasharray:none;stroke-dashoffset:0;stroke-opacity:1;color-rendering:auto;image-rendering:auto;shape-rendering:auto;text-rendering:auto;enable-background:accumulate"
     d="m 30.056641,39.080078 a 2.50025,2.50025 0 0 0 -0.669922,0.07422 c -3.626369,0.855151 -6.443039,1.12647 -8.896485,2.96875 -1.226722,0.92114 -2.185397,2.299178 -2.705078,3.900391 -0.519681,1.601212 -0.699219,3.421661 -0.699218,5.689453 0,4.879068 1.742346,11.753706 6.482421,17.683593 4.740075,5.929888 12.638574,10.691407 24.142579,10.691407 12.33258,0 20.174682,-4.803917 24.724609,-10.775391 4.549927,-5.971474 5.952991,-12.881845 6.621094,-17.21875 0.262237,-1.702285 0.416738,-3.017784 0.232421,-4.361328 -0.184316,-1.343545 -0.943187,-2.71923 -1.9375,-3.554688 -1.988624,-1.670915 -4.191606,-2.142193 -8.013671,-4.072265 a 2.5007459,2.5007459 0 1 0 -2.253907,4.464843 c 4.099016,2.069928 6.582176,3.041808 7.050782,3.435547 0.234302,0.19687 0.146594,0.0084 0.201172,0.40625 0.05458,0.397835 0.01706,1.376518 -0.220704,2.919922 -0.624747,4.055475 -1.949113,10.083241 -5.658203,14.951172 -3.70909,4.867932 -9.657593,8.804688 -20.746093,8.804688 -10.167076,0 -16.331674,-3.929686 -20.236329,-8.814453 C 23.569954,61.38867 22.085938,55.3252 22.085938,51.712891 c 0,-1.977898 0.18899,-3.326631 0.455078,-4.146485 0.266087,-0.819854 0.511779,-1.115375 0.951172,-1.445312 0.878784,-0.659875 3.248257,-1.204761 7.042968,-2.09961 a 2.50025,2.50025 0 0 0 -0.478515,-4.941406 z"
     id="path4161"
     inkscape:connector-curvature="0" /><path
     style="color:#000000;font-style:normal;font-variant:normal;font-weight:normal;font-stretch:normal;font-size:medium;line-height:normal;font-family:sans-serif;text-indent:0;text-align:start;text-decoration:none;text-decoration-line:none;text-decoration-style:solid;text-decoration-color:#000000;letter-spacing:normal;word-spacing:normal;text-transform:none;direction:ltr;block-progression:tb;writing-mode:lr-tb;baseline-shift:baseline;text-anchor:start;white-space:normal;clip-rule:nonzero;display:inline;overflow:visible;visibility:visible;opacity:1;isolation:auto;mix-blend-mode:normal;color-interpolation:sRGB;color-interpolation-filters:linearRGB;solid-color:#000000;solid-opacity:1;fill:#ffffff;fill-opacity:1;fill-rule:nonzero;stroke:none;stroke-width:5;stroke-linecap:round;stroke-linejoin:round;stroke-miterlimit:4;stroke-dasharray:none;stroke-dashoffset:0;stroke-opacity:1;color-rendering:auto;image-rendering:auto;shape-rendering:auto;text-rendering:auto;enable-background:accumulate"
     d="m 31.105469,38.832031 a 2.50025,2.50025 0 0 0 -0.421875,0.04492 c -3.571905,0.640276 -6.693459,1.314038 -9.25,3.021485 C 18.877053,43.605884 17.25,46.640929 17.25,50.337891 c 0,2.301146 1.07278,4.432 2.697266,6.115234 1.624486,1.683234 3.80474,3.031253 6.433593,4.142578 5.257708,2.22265 12.373737,3.492188 20.744141,3.492188 8.379031,0 15.637305,-1.324765 21.162109,-3.53711 5.524805,-2.212345 9.611242,-5.281304 10.644532,-9.634765 0.402979,-1.697834 -0.03335,-3.486317 -0.888672,-4.740235 -0.855319,-1.253918 -1.986817,-2.105905 -3.154297,-2.84375 -2.33496,-1.475689 -4.999958,-2.551277 -6.681641,-3.609375 a 2.50025,2.50025 0 1 0 -2.664062,4.230469 c 2.291682,1.441903 4.939629,2.509459 6.673828,3.605469 0.867099,0.548005 1.460532,1.089399 1.695312,1.433594 0.234781,0.344194 0.253271,0.35881 0.15625,0.767578 -0.401546,1.691795 -2.890526,4.247096 -7.638671,6.148437 -4.748146,1.901341 -11.460354,3.179688 -19.304688,3.179688 -7.852961,0 -14.422923,-1.248607 -18.796875,-3.097657 C 26.141149,55.06571 24.518347,53.989097 23.544922,52.980469 22.571496,51.97184 22.25,51.143346 22.25,50.337891 c 0,-2.516241 0.57332,-3.354497 1.960938,-4.28125 1.387617,-0.926753 3.954008,-1.648089 7.355468,-2.257813 a 2.50025,2.50025 0 0 0 -0.460937,-4.966797 z"
     id="path4156"
     inkscape:connector-curvature="0" /><path
     style="color:#000000;font-style:normal;font-variant:normal;font-weight:normal;font-stretch:normal;font-size:medium;line-height:normal;font-family:sans-serif;text-indent:0;text-align:start;text-decoration:none;text-decoration-line:none;text-decoration-style:solid;text-decoration-color:#000000;letter-spacing:normal;word-spacing:normal;text-transform:none;direction:ltr;block-progression:tb;writing-mode:lr-tb;baseline-shift:baseline;text-anchor:start;white-space:normal;clip-rule:nonzero;display:inline;overflow:visible;visibility:visible;opacity:1;isolation:auto;mix-blend-mode:normal;color-interpolation:sRGB;color-interpolation-filters:linearRGB;solid-color:#000000;solid-opacity:1;fill:#ffffff;fill-opacity:1;fill-rule:evenodd;stroke:none;stroke-width:5;stroke-linecap:round;stroke-linejoin:round;stroke-miterlimit:4;stroke-dasharray:none;stroke-dashoffset:0;stroke-opacity:1;color-rendering:auto;image-rendering:auto;shape-rendering:auto;text-rendering:auto;enable-background:accumulate"
     d="m 48.351562,16.087891 c -3.689111,0.08235 -7.175707,2.021456 -10.208984,4.884765 -3.033277,2.863309 -5.649575,6.736502 -7.427734,11.1875 -3.556319,8.901997 -3.652913,20.375443 4.107422,29.769532 a 2.50025,2.50025 0 1 0 3.855468,-3.183594 c -6.489665,-7.855911 -6.35569,-17.132465 -3.320312,-24.730469 1.517689,-3.799002 3.787745,-7.113309 6.216797,-9.40625 2.429051,-2.292941 4.97827,-3.478838 6.888672,-3.521484 3.845084,-0.08584 10.188373,4.775734 13.291015,12.21289 3.102643,7.437157 3.282779,16.820355 -3.640625,25.47461 a 2.500458,2.500458 0 1 0 3.904297,3.125 C 70.094175,51.804645 70.045694,40.187843 66.369141,31.375 62.692587,22.562157 55.705504,15.923726 48.351562,16.087891 Z"
     id="path4170"
     inkscape:connector-curvature="0" /><path
     style="color:#000000;font-style:normal;font-variant:normal;font-weight:normal;font-stretch:normal;font-size:medium;line-height:normal;font-family:sans-serif;text-indent:0;text-align:start;text-decoration:none;text-decoration-line:none;text-decoration-style:solid;text-decoration-color:#000000;letter-spacing:normal;word-spacing:normal;text-transform:none;direction:ltr;block-progression:tb;writing-mode:lr-tb;baseline-shift:baseline;text-anchor:start;white-space:normal;clip-rule:nonzero;display:inline;overflow:visible;visibility:visible;opacity:1;isolation:auto;mix-blend-mode:normal;color-interpolation:sRGB;color-interpolation-filters:linearRGB;solid-color:#000000;solid-opacity:1;fill:#ffffff;fill-opacity:1;fill-rule:evenodd;stroke:none;stroke-width:5;stroke-linecap:round;stroke-linejoin:round;stroke-miterlimit:4;stroke-dasharray:none;stroke-dashoffset:0;stroke-opacity:1;color-rendering:auto;image-rendering:auto;shape-rendering:auto;text-rendering:auto;enable-background:accumulate"
     d="m 28.595703,56.648438 a 2.50025,2.50025 0 0 0 -1.853515,4.015624 c 0,0 3.251392,4.316098 10.322265,8.669922 7.070873,4.353825 18.112772,8.930596 34.003906,10.083985 a 2.5007459,2.5007459 0 1 0 0.363282,-4.988281 C 56.322775,73.333076 46.114674,69.034847 39.685547,65.076172 33.25642,61.117497 30.757812,57.683594 30.757812,57.683594 a 2.50025,2.50025 0 0 0 -2.162109,-1.035156 z"
     id="path4203"
     inkscape:connector-curvature="0" /><path
     style="color:#000000;font-style:normal;font-variant:normal;font-weight:normal;font-stretch:normal;font-size:medium;line-height:normal;font-family:sans-serif;text-indent:0;text-align:start;text-decoration:none;text-decoration-line:none;text-decoration-style:solid;text-decoration-color:#000000;letter-spacing:normal;word-spacing:normal;text-transform:none;direction:ltr;block-progression:tb;writing-mode:lr-tb;baseline-shift:baseline;text-anchor:start;white-space:normal;clip-rule:nonzero;display:inline;overflow:visible;visibility:visible;opacity:1;isolation:auto;mix-blend-mode:normal;color-interpolation:sRGB;color-interpolation-filters:linearRGB;solid-color:#000000;solid-opacity:1;fill:#ffffff;fill-opacity:1;fill-rule:evenodd;stroke:none;stroke-width:5;stroke-linecap:round;stroke-linejoin:round;stroke-miterlimit:4;stroke-dasharray:none;stroke-dashoffset:0;stroke-opacity:1;color-rendering:auto;image-rendering:auto;shape-rendering:auto;text-rendering:auto;enable-background:accumulate"
     d="m 75.035156,34.570312 a 2.50025,2.50025 0 0 0 -2.125,3.583985 c 2.913134,6.258425 1.449219,10.722656 1.449219,10.722656 a 2.5008788,2.5008788 0 1 0 4.78125,1.46875 c 0,0 1.916852,-6.538351 -1.697266,-14.302734 a 2.50025,2.50025 0 0 0 -2.408203,-1.472657 z"
     id="path4207"
     inkscape:connector-curvature="0" /></svg>