<svg id="svg2" width="96.171875" height="96.173828" enable-background="new 0 0 100 100" version="1.1" viewBox="0 0 96.171875 96.173828" xml:space="preserve" xmlns="http://www.w3.org/2000/svg"><path id="path4" d="m10.365235 0c-5.7160008 0-10.365235 4.6501872-10.365235 10.367187v75.439453c0 5.716 4.6492342 10.367188 10.365235 10.367188h75.441405c5.716 0 10.365235-4.651188 10.365235-10.367188v-75.439453c0-5.7169998-4.649235-10.367187-10.365235-10.367187zm0 5.40625h75.441405c2.735 0 4.958985 2.2239839 4.958985 4.958984v32.835937h2e-3v16.804688h-2e-3v25.800781c0 2.735-2.223985 4.960938-4.958985 4.960938h-75.441405c-2.7340008 0-4.958985-2.225938-4.958985-4.960938v-75.441406c0-2.7350001 2.2249842-4.958984 4.958985-4.958984z" fill="#fff"/><path id="path4161" d="m30.056641 39.080078a2.50025 2.50025 0 0 0 -0.669922 0.07422c-3.626369 0.855151-6.443039 1.12647-8.896485 2.96875-1.226722 0.92114-2.185397 2.299178-2.705078 3.900391-0.519681 1.601212-0.699219 3.421661-0.699218 5.689453 0 4.879068 1.742346 11.753706 6.482421 17.683593 4.740075 5.929888 12.638574 10.691407 24.142579 10.691407 12.33258 0 20.174682-4.803917 24.724609-10.775391s5.952991-12.881845 6.621094-17.21875c0.262237-1.702285 0.416738-3.017784 0.232421-4.361328-0.184316-1.343545-0.943187-2.71923-1.9375-3.554688-1.988624-1.670915-4.191606-2.142193-8.013671-4.072265a2.5007459 2.5007459 0 1 0 -2.253907 4.464843c4.099016 2.069928 6.582176 3.041808 7.050782 3.435547 0.234302 0.19687 0.146594 0.0084 0.201172 0.40625 0.05458 0.397835 0.01706 1.376518-0.220704 2.919922-0.624747 4.055475-1.949113 10.083241-5.658203 14.951172-3.70909 4.867932-9.657593 8.804688-20.746093 8.804688-10.167076 0-16.331674-3.929686-20.236329-8.814453-3.904655-4.884769-5.388671-10.948239-5.388671-14.560548 0-1.977898 0.18899-3.326631 0.455078-4.146485 0.266087-0.819854 0.511779-1.115375 0.951172-1.445312 0.878784-0.659875 3.248257-1.204761 7.042968-2.09961a2.50025 2.50025 0 0 0 -0.478515 -4.941406z" color="#000000" color-rendering="auto" enable-background="accumulate" fill="#fff" image-rendering="auto" shape-rendering="auto" solid-color="#000000" style="block-progression:tb;isolation:auto;mix-blend-mode:normal;text-decoration-color:#000000;text-decoration-line:none;text-decoration-style:solid;text-indent:0;text-transform:none;white-space:normal"/><path id="path4156" d="m31.105469 38.832031a2.50025 2.50025 0 0 0 -0.421875 0.04492c-3.571905 0.640276-6.693459 1.314038-9.25 3.021485-2.556541 1.707448-4.183594 4.742493-4.183594 8.439455 0 2.301146 1.07278 4.432 2.697266 6.115234s3.80474 3.031253 6.433593 4.142578c5.257708 2.22265 12.373737 3.492188 20.744141 3.492188 8.379031 0 15.637305-1.324765 21.162109-3.53711 5.524805-2.212345 9.611242-5.281304 10.644532-9.634765 0.402979-1.697834-0.03335-3.486317-0.888672-4.740235-0.855319-1.253918-1.986817-2.105905-3.154297-2.84375-2.33496-1.475689-4.999958-2.551277-6.681641-3.609375a2.50025 2.50025 0 1 0 -2.664062 4.230469c2.291682 1.441903 4.939629 2.509459 6.673828 3.605469 0.867099 0.548005 1.460532 1.089399 1.695312 1.433594 0.234781 0.344194 0.253271 0.35881 0.15625 0.767578-0.401546 1.691795-2.890526 4.247096-7.638671 6.148437-4.748146 1.901341-11.460354 3.179688-19.304688 3.179688-7.852961 0-14.422923-1.248607-18.796875-3.097657-2.186976-0.924524-3.809778-2.001137-4.783203-3.009765-0.973426-1.008629-1.294922-1.837123-1.294922-2.642578 0-2.516241 0.57332-3.354497 1.960938-4.28125 1.387617-0.926753 3.954008-1.648089 7.355468-2.257813a2.50025 2.50025 0 0 0 -0.460937 -4.966797z" color="#000000" color-rendering="auto" enable-background="accumulate" fill="#fff" image-rendering="auto" shape-rendering="auto" solid-color="#000000" style="block-progression:tb;isolation:auto;mix-blend-mode:normal;text-decoration-color:#000000;text-decoration-line:none;text-decoration-style:solid;text-indent:0;text-transform:none;white-space:normal"/><path id="path4170" d="m48.351562 16.087891c-3.689111 0.08235-7.175707 2.021456-10.208984 4.884765s-5.649575 6.736502-7.427734 11.1875c-3.556319 8.901997-3.652913 20.375443 4.107422 29.769532a2.50025 2.50025 0 1 0 3.855468 -3.183594c-6.489665-7.855911-6.35569-17.132465-3.320312-24.730469 1.517689-3.799002 3.787745-7.113309 6.216797-9.40625 2.429051-2.292941 4.97827-3.478838 6.888672-3.521484 3.845084-0.08584 10.188373 4.775734 13.291015 12.21289 3.102643 7.437157 3.282779 16.820355-3.640625 25.47461a2.500458 2.500458 0 1 0 3.904297 3.125c8.076597-10.095746 8.028116-21.712548 4.351563-30.525391-3.676554-8.812843-10.663637-15.451274-18.017579-15.287109z" color="#000000" color-rendering="auto" enable-background="accumulate" fill="#fff" fill-rule="evenodd" image-rendering="auto" shape-rendering="auto" solid-color="#000000" style="block-progression:tb;isolation:auto;mix-blend-mode:normal;text-decoration-color:#000000;text-decoration-line:none;text-decoration-style:solid;text-indent:0;text-transform:none;white-space:normal"/><path id="path4203" d="m28.595703 56.648438a2.50025 2.50025 0 0 0 -1.853515 4.015624s3.251392 4.316098 10.322265 8.669922c7.070873 4.353825 18.112772 8.930596 34.003906 10.083985a2.5007459 2.5007459 0 1 0 0.363282 -4.988281c-15.108866-1.096612-25.316967-5.394841-31.746094-9.353516s-8.927735-7.392578-8.927735-7.392578a2.50025 2.50025 0 0 0 -2.162109 -1.035156z" color="#000000" color-rendering="auto" enable-background="accumulate" fill="#fff" fill-rule="evenodd" image-rendering="auto" shape-rendering="auto" solid-color="#000000" style="block-progression:tb;isolation:auto;mix-blend-mode:normal;text-decoration-color:#000000;text-decoration-line:none;text-decoration-style:solid;text-indent:0;text-transform:none;white-space:normal"/><path id="path4207" d="m75.035156 34.570312a2.50025 2.50025 0 0 0 -2.125 3.583985c2.913134 6.258425 1.449219 10.722656 1.449219 10.722656a2.5008788 2.5008788 0 1 0 4.78125 1.46875s1.916852-6.538351-1.697266-14.302734a2.50025 2.50025 0 0 0 -2.408203 -1.472657z" color="#000000" color-rendering="auto" enable-background="accumulate" fill="#fff" fill-rule="evenodd" image-rendering="auto" shape-rendering="auto" solid-color="#000000" style="block-progression:tb;isolation:auto;mix-blend-mode:normal;text-decoration-color:#000000;text-decoration-line:none;text-decoration-style:solid;text-indent:0;text-transform:none;white-space:normal"/></svg>
