<svg id="svg2" width="96.171875" height="96.173828" enable-background="new 0 0 100 100" version="1.1" viewBox="0 0 96.171875 96.173828" xml:space="preserve" xmlns="http://www.w3.org/2000/svg"><path id="path4" d="m10.365235 0c-5.7160008 0-10.365235 4.6501872-10.365235 10.367187v75.439453c0 5.716 4.6492342 10.367188 10.365235 10.367188h75.441405c5.716 0 10.365235-4.651188 10.365235-10.367188v-75.439453c0-5.7169998-4.649235-10.367187-10.365235-10.367187zm0 5.40625h75.441405c2.735 0 4.958985 2.2239839 4.958985 4.958984v32.835937h2e-3v16.804688h-2e-3v25.800781c0 2.735-2.223985 4.960938-4.958985 4.960938h-75.441405c-2.7340008 0-4.958985-2.225938-4.958985-4.960938v-75.441406c0-2.7350001 2.2249842-4.958984 4.958985-4.958984z" fill="#fff"/><g id="g4209" transform="matrix(.65280316 0 0 .65280316 33.745828 42.140376)" stroke-miterlimit="5" stroke-width="7.65927665"><path id="path4157" d="m21.966797-13.480469c-12.4303288 1e-6 -22.5898438 10.1595153-22.5898439 22.589844-1.3e-7 12.430329 10.159515 22.589843 22.5898439 22.589844 12.430329 0 22.589844-10.159515 22.589844-22.589844 0-12.4303289-10.159515-22.589844-22.589844-22.589844zm0 7.6601565c8.290948 0 14.929687 6.63873888 14.929687 14.9296875 0 8.290949-6.638738 14.929688-14.929687 14.929687-8.290949 0-14.9296877-6.638738-14.9296876-14.929687 0-8.29094849 6.6387386-14.9296873 14.9296876-14.9296875z" color="#000000" color-rendering="auto" enable-background="accumulate" fill="#fff" image-rendering="auto" shape-rendering="auto" solid-color="#000000" style="block-progression:tb;isolation:auto;mix-blend-mode:normal;text-decoration-color:#000000;text-decoration-line:none;text-decoration-style:solid;text-indent:0;text-transform:none;white-space:normal"/></g><path id="path4163" d="m61.332031 32.269531a2.50025 2.50025 0 0 0 -1.71875 0.75586l-26.589843 26.58789a2.50025 2.50025 0 1 0 3.535156 3.535157l26.589844-26.587891a2.50025 2.50025 0 0 0 -1.816407 -4.291016z" color="#000000" color-rendering="auto" enable-background="accumulate" fill="#fff" fill-rule="evenodd" image-rendering="auto" shape-rendering="auto" solid-color="#000000" style="block-progression:tb;isolation:auto;mix-blend-mode:normal;text-decoration-color:#000000;text-decoration-line:none;text-decoration-style:solid;text-indent:0;text-transform:none;white-space:normal"/></svg>
