<svg id="svg2" width="96.171875" height="96.173828" enable-background="new 0 0 100 100" version="1.1" viewBox="0 0 96.171875 96.173828" xml:space="preserve" xmlns="http://www.w3.org/2000/svg"><path id="path4" d="m10.365235 0c-5.7160008 0-10.365235 4.6501872-10.365235 10.367187v75.439453c0 5.716 4.6492342 10.367188 10.365235 10.367188h75.441405c5.716 0 10.365235-4.651188 10.365235-10.367188v-75.439453c0-5.7169998-4.649235-10.367187-10.365235-10.367187zm0 5.40625h75.441405c2.735 0 4.958985 2.2239839 4.958985 4.958984v32.835937h2e-3v16.804688h-2e-3v25.800781c0 2.735-2.223985 4.960938-4.958985 4.960938h-75.441405c-2.7340008 0-4.958985-2.225938-4.958985-4.960938v-75.441406c0-2.7350001 2.2249842-4.958984 4.958985-4.958984z" fill="#fff"/><path id="polygon4390" d="m48.148438 17.359375a2.50025 2.50025 0 0 0 -1.314454 0.333984l-24.378906 14.105469a2.50025 2.50025 0 0 0 -1.248047 2.164063v28.210937a2.50025 2.50025 0 0 0 1.246094 2.164063l24.380859 14.105468a2.50025 2.50025 0 0 0 2.503907 0l24.380859-14.101562a2.50025 2.50025 0 0 0 1.248047 -2.164063v-28.21289a2.50025 2.50025 0 0 0 -1.246094 -2.16211l-24.382812-14.109375a2.50025 2.50025 0 0 0 -1.189453 -0.333984zm-0.0625 5.386719 21.880859 12.662109v25.328125l-21.880859 12.65625-21.878907-12.660156v-25.328125l21.878907-12.658203z" color="#000000" color-rendering="auto" enable-background="accumulate" fill="#fff" image-rendering="auto" shape-rendering="auto" solid-color="#000000" style="block-progression:tb;isolation:auto;mix-blend-mode:normal;text-decoration-color:#000000;text-decoration-line:none;text-decoration-style:solid;text-indent:0;text-transform:none;white-space:normal"/><path id="polyline4392" d="m23.769531 31.449219a2.50025 2.50025 0 0 0 -1.316406 4.679687l24.380859 14.105469a2.50025 2.50025 0 0 0 2.503907 0l24.380859-14.105469a2.50025 2.50025 0 1 0 -2.503906 -4.328125l-23.128906 13.38086-23.13086-13.38086a2.50025 2.50025 0 0 0 -1.185547 -0.351562z" color="#000000" color-rendering="auto" enable-background="accumulate" fill="#fff" image-rendering="auto" shape-rendering="auto" solid-color="#000000" style="block-progression:tb;isolation:auto;mix-blend-mode:normal;text-decoration-color:#000000;text-decoration-line:none;text-decoration-style:solid;text-indent:0;text-transform:none;white-space:normal"/><path id="line4394" d="m48.048828 45.535156a2.50025 2.50025 0 0 0 -2.46289 2.535156v28.208985a2.50025 2.50025 0 1 0 5 0v-28.208985a2.50025 2.50025 0 0 0 -2.53711 -2.535156z" color="#000000" color-rendering="auto" enable-background="accumulate" fill="#fff" image-rendering="auto" shape-rendering="auto" solid-color="#000000" style="block-progression:tb;isolation:auto;mix-blend-mode:normal;text-decoration-color:#000000;text-decoration-line:none;text-decoration-style:solid;text-indent:0;text-transform:none;white-space:normal"/><text id="text4241" x="-27.25" y="60.423828" fill="#000000" font-family="sans-serif" font-size="15px" letter-spacing="0px" stroke-width="1px" word-spacing="0px" style="line-height:125%" xml:space="preserve"><tspan id="tspan4243" x="-27.25" y="60.423828"/></text>
</svg>
