<?xml version="1.0" encoding="UTF-8" standalone="no"?>
<svg
   xmlns:dc="http://purl.org/dc/elements/1.1/"
   xmlns:cc="http://creativecommons.org/ns#"
   xmlns:rdf="http://www.w3.org/1999/02/22-rdf-syntax-ns#"
   xmlns:svg="http://www.w3.org/2000/svg"
   xmlns="http://www.w3.org/2000/svg"
   xmlns:sodipodi="http://sodipodi.sourceforge.net/DTD/sodipodi-0.dtd"
   xmlns:inkscape="http://www.inkscape.org/namespaces/inkscape"
   version="1.1"
   x="0px"
   y="0px"
   viewBox="0 0 96.171875 96.173828"
   enable-background="new 0 0 100 100"
   xml:space="preserve"
   id="svg2"
   inkscape:version="0.91 r13725"
   sodipodi:docname="object-id.svg"
   width="96.171875"
   height="96.173828"><metadata
     id="metadata20"><rdf:RDF><cc:Work
         rdf:about=""><dc:format>image/svg+xml</dc:format><dc:type
           rdf:resource="http://purl.org/dc/dcmitype/StillImage" /><dc:title></dc:title></cc:Work></rdf:RDF></metadata><defs
     id="defs18"><inkscape:perspective
       sodipodi:type="inkscape:persp3d"
       inkscape:vp_x="0 : 48.086914 : 1"
       inkscape:vp_y="0 : 1000 : 0"
       inkscape:vp_z="96.171875 : 48.086914 : 1"
       inkscape:persp3d-origin="48.085938 : 32.057943 : 1"
       id="perspective4240" /></defs><sodipodi:namedview
     pagecolor="#56ffff"
     bordercolor="#666666"
     borderopacity="1"
     objecttolerance="10"
     gridtolerance="10"
     guidetolerance="10"
     inkscape:pageopacity="0"
     inkscape:pageshadow="2"
     inkscape:window-width="1324"
     inkscape:window-height="1046"
     id="namedview16"
     showgrid="false"
     inkscape:zoom="4"
     inkscape:cx="21.439863"
     inkscape:cy="26.031746"
     inkscape:window-x="242"
     inkscape:window-y="55"
     inkscape:window-maximized="0"
     inkscape:current-layer="svg2"
     fit-margin-top="0"
     fit-margin-left="0"
     fit-margin-right="0"
     fit-margin-bottom="0" /><path
     d="M 10.365235,0 C 4.6492342,0 0,4.6501872 0,10.367187 L 0,85.80664 c 0,5.716 4.6492342,10.367188 10.365235,10.367188 l 75.441405,0 c 5.716,0 10.365235,-4.651188 10.365235,-10.367188 l 0,-75.439453 C 96.171875,4.6501872 91.52264,0 85.80664,0 Z m 0,5.40625 75.441405,0 c 2.735,0 4.958985,2.2239839 4.958985,4.958984 l 0,32.835937 0.002,0 0,16.804688 -0.002,0 0,25.800781 c 0,2.735 -2.223985,4.960938 -4.958985,4.960938 l -75.441405,0 c -2.7340008,0 -4.958985,-2.225938 -4.958985,-4.960938 l 0,-75.441406 c 0,-2.7350001 2.2249842,-4.958984 4.958985,-4.958984 z"
     id="path4"
     inkscape:connector-curvature="0"
     sodipodi:nodetypes="sssssssssccsccccsccssc"
     style="fill:#ffffff" /><path
     style="color:#000000;font-style:normal;font-variant:normal;font-weight:normal;font-stretch:normal;font-size:medium;line-height:normal;font-family:sans-serif;text-indent:0;text-align:start;text-decoration:none;text-decoration-line:none;text-decoration-style:solid;text-decoration-color:#000000;letter-spacing:normal;word-spacing:normal;text-transform:none;direction:ltr;block-progression:tb;writing-mode:lr-tb;baseline-shift:baseline;text-anchor:start;white-space:normal;clip-rule:nonzero;display:inline;overflow:visible;visibility:visible;opacity:1;isolation:auto;mix-blend-mode:normal;color-interpolation:sRGB;color-interpolation-filters:linearRGB;solid-color:#000000;solid-opacity:1;fill:#ffffff;fill-opacity:1;fill-rule:nonzero;stroke:none;stroke-width:5;stroke-linecap:round;stroke-linejoin:round;stroke-miterlimit:4;stroke-dasharray:none;stroke-dashoffset:0;stroke-opacity:1;color-rendering:auto;image-rendering:auto;shape-rendering:auto;text-rendering:auto;enable-background:accumulate"
     d="m 48.148438,17.359375 a 2.50025,2.50025 0 0 0 -1.314454,0.333984 L 22.455078,31.798828 a 2.50025,2.50025 0 0 0 -1.248047,2.164063 l 0,28.210937 a 2.50025,2.50025 0 0 0 1.246094,2.164063 l 24.380859,14.105468 a 2.50025,2.50025 0 0 0 2.503907,0 L 73.71875,64.341797 a 2.50025,2.50025 0 0 0 1.248047,-2.164063 l 0,-28.21289 a 2.50025,2.50025 0 0 0 -1.246094,-2.16211 L 49.337891,17.693359 a 2.50025,2.50025 0 0 0 -1.189453,-0.333984 z m -0.0625,5.386719 21.880859,12.662109 0,25.328125 -21.880859,12.65625 -21.878907,-12.660156 0,-25.328125 21.878907,-12.658203 z"
     id="polygon4390"
     inkscape:connector-curvature="0" /><path
     style="color:#000000;font-style:normal;font-variant:normal;font-weight:normal;font-stretch:normal;font-size:medium;line-height:normal;font-family:sans-serif;text-indent:0;text-align:start;text-decoration:none;text-decoration-line:none;text-decoration-style:solid;text-decoration-color:#000000;letter-spacing:normal;word-spacing:normal;text-transform:none;direction:ltr;block-progression:tb;writing-mode:lr-tb;baseline-shift:baseline;text-anchor:start;white-space:normal;clip-rule:nonzero;display:inline;overflow:visible;visibility:visible;opacity:1;isolation:auto;mix-blend-mode:normal;color-interpolation:sRGB;color-interpolation-filters:linearRGB;solid-color:#000000;solid-opacity:1;fill:#ffffff;fill-opacity:1;fill-rule:nonzero;stroke:none;stroke-width:5;stroke-linecap:round;stroke-linejoin:round;stroke-miterlimit:4;stroke-dasharray:none;stroke-dashoffset:0;stroke-opacity:1;color-rendering:auto;image-rendering:auto;shape-rendering:auto;text-rendering:auto;enable-background:accumulate"
     d="m 23.769531,31.449219 a 2.50025,2.50025 0 0 0 -1.316406,4.679687 l 24.380859,14.105469 a 2.50025,2.50025 0 0 0 2.503907,0 L 73.71875,36.128906 a 2.50025,2.50025 0 1 0 -2.503906,-4.328125 l -23.128906,13.38086 -23.13086,-13.38086 a 2.50025,2.50025 0 0 0 -1.185547,-0.351562 z"
     id="polyline4392"
     inkscape:connector-curvature="0" /><path
     style="color:#000000;font-style:normal;font-variant:normal;font-weight:normal;font-stretch:normal;font-size:medium;line-height:normal;font-family:sans-serif;text-indent:0;text-align:start;text-decoration:none;text-decoration-line:none;text-decoration-style:solid;text-decoration-color:#000000;letter-spacing:normal;word-spacing:normal;text-transform:none;direction:ltr;block-progression:tb;writing-mode:lr-tb;baseline-shift:baseline;text-anchor:start;white-space:normal;clip-rule:nonzero;display:inline;overflow:visible;visibility:visible;opacity:1;isolation:auto;mix-blend-mode:normal;color-interpolation:sRGB;color-interpolation-filters:linearRGB;solid-color:#000000;solid-opacity:1;fill:#ffffff;fill-opacity:1;fill-rule:nonzero;stroke:none;stroke-width:5;stroke-linecap:round;stroke-linejoin:round;stroke-miterlimit:4;stroke-dasharray:none;stroke-dashoffset:0;stroke-opacity:1;color-rendering:auto;image-rendering:auto;shape-rendering:auto;text-rendering:auto;enable-background:accumulate"
     d="m 48.048828,45.535156 a 2.50025,2.50025 0 0 0 -2.46289,2.535156 l 0,28.208985 a 2.50025,2.50025 0 1 0 5,0 l 0,-28.208985 a 2.50025,2.50025 0 0 0 -2.53711,-2.535156 z"
     id="line4394"
     inkscape:connector-curvature="0" /><text
     xml:space="preserve"
     style="font-style:normal;font-weight:normal;font-size:15px;line-height:125%;font-family:sans-serif;letter-spacing:0px;word-spacing:0px;fill:#000000;fill-opacity:1;stroke:none;stroke-width:1px;stroke-linecap:butt;stroke-linejoin:miter;stroke-opacity:1"
     x="-27.25"
     y="60.423828"
     id="text4241"
     sodipodi:linespacing="125%"><tspan
       sodipodi:role="line"
       id="tspan4243"
       x="-27.25"
       y="60.423828" /></text>
</svg>