<svg id="svg2" width="96.171875" height="96.173828" enable-background="new 0 0 100 100" version="1.1" viewBox="0 0 96.171875 96.173828" xml:space="preserve" xmlns="http://www.w3.org/2000/svg"><path id="path4" d="m10.365235 0c-5.7160008 0-10.365235 4.6501872-10.365235 10.367187v75.439453c0 5.716 4.6492342 10.367188 10.365235 10.367188h75.441405c5.716 0 10.365235-4.651188 10.365235-10.367188v-75.439453c0-5.7169998-4.649235-10.367187-10.365235-10.367187zm0 5.40625h75.441405c2.735 0 4.958985 2.2239839 4.958985 4.958984v32.835937h2e-3v16.804688h-2e-3v25.800781c0 2.735-2.223985 4.960938-4.958985 4.960938h-75.441405c-2.7340008 0-4.958985-2.225938-4.958985-4.960938v-75.441406c0-2.7350001 2.2249842-4.958984 4.958985-4.958984z" fill="#fff"/><path id="path4137" d="m44.136719 18.8125a2.50025 2.50025 0 0 0 -0.484375 0.05469l-18.681641 3.970703a2.50025 2.50025 0 0 0 -1.425781 0.84375 2.50025 2.50025 0 0 0 -0.853516 1.435547l-3.970703 18.68164a2.50025 2.50025 0 0 0 0.685547 2.292969l39.451172 39.175781a2.50025 2.50025 0 0 0 3.529297 -0.0059l22.867187-22.867149a2.50025 2.50025 0 0 0 0 -3.535156l-39.3125-39.314453a2.50025 2.50025 0 0 0 -1.804687 -0.732422zm-0.771485 5.228516 36.585938 36.585937-19.337891 19.337891-36.716797-36.458985 3.410157-16.052734 16.058593-3.412109z" color="#000000" color-rendering="auto" enable-background="accumulate" fill="#fff" fill-rule="evenodd" image-rendering="auto" shape-rendering="auto" solid-color="#000000" style="block-progression:tb;isolation:auto;mix-blend-mode:normal;text-decoration-color:#000000;text-decoration-line:none;text-decoration-style:solid;text-indent:0;text-transform:none;white-space:normal"/><path id="path4141" d="m42.235819 35.178562c-1.902763-1.902763-5.060581-1.902763-6.963344 0s-1.904144 5.061963-0.0014 6.964726c1.902763 1.902763 5.063344 1.902763 6.966107 0s1.901382-5.061963-0.0014-6.964726zm-3.465099 3.465099c0.03023 0.03023 0.03162 0.0043 0.0014 0.03453-0.03023 0.03023-0.0057 0.03023-0.03591 0-0.03023-0.03023-0.03023-0.0057 0-0.03591 0.03023-0.03023 0.0043-0.02885 0.03453 0.0014z" color="#000000" color-rendering="auto" enable-background="accumulate" fill="#fff" image-rendering="auto" shape-rendering="auto" solid-color="#000000" style="block-progression:tb;isolation:auto;mix-blend-mode:normal;text-decoration-color:#000000;text-decoration-line:none;text-decoration-style:solid;text-indent:0;text-transform:none;white-space:normal"/><path id="path4157" d="m51.453125 42.224609a2.50025 2.50025 0 0 0 -1.740234 4.294922l16.669921 16.669922a2.5004237 2.5004237 0 0 0 3.53711 -3.535156l-16.671875-16.671875a2.50025 2.50025 0 0 0 -1.794922 -0.757813z" color="#000000" color-rendering="auto" enable-background="accumulate" fill="#fff" fill-rule="evenodd" image-rendering="auto" shape-rendering="auto" solid-color="#000000" style="block-progression:tb;isolation:auto;mix-blend-mode:normal;text-decoration-color:#000000;text-decoration-line:none;text-decoration-style:solid;text-indent:0;text-transform:none;white-space:normal"/><path id="path4159" d="m44.578125 49.099609a2.50025 2.50025 0 0 0 -1.740234 4.294922l8.625 8.625a2.5004234 2.5004234 0 1 0 3.535156 -3.537109l-8.625-8.625a2.50025 2.50025 0 0 0 -1.794922 -0.757813z" color="#000000" color-rendering="auto" enable-background="accumulate" fill="#fff" fill-rule="evenodd" image-rendering="auto" shape-rendering="auto" solid-color="#000000" style="block-progression:tb;isolation:auto;mix-blend-mode:normal;text-decoration-color:#000000;text-decoration-line:none;text-decoration-style:solid;text-indent:0;text-transform:none;white-space:normal"/><path id="path4174" d="m19.052734 10.195312c-2.047658 0.107253-4.118432 0.895776-5.673828 2.451172-2.91074 2.910741-3.6932633 7.176806-2.904297 11.332032 0.788967 4.155226 3.084391 8.383219 6.654297 11.953125s7.797899 5.86533 11.953125 6.654297c4.155226 0.788966 8.421291 0.0064 11.332031-2.904297a2.50025 2.50025 0 1 0 -3.535156 -3.535157c-1.507538 1.507538-3.872366 2.09561-6.865234 1.527344s-6.43017-2.357904-9.34961-5.277344c-2.919439-2.919439-4.709077-6.356741-5.277343-9.349609s0.01981-5.357697 1.527343-6.865234c0.653744-0.653744 1.344672-0.936891 2.400391-0.992188 1.05572-0.0553 2.450141 0.209789 4.001953 0.830078 3.103624 1.240579 6.756855 3.856464 9.8125 6.91211a2.50025 2.50025 0 1 0 3.535156 -3.535157c-3.4337-3.4337-7.447717-6.402878-11.492187-8.019531-2.022235-0.808327-4.071482-1.288893-6.119141-1.181641z" color="#000000" color-rendering="auto" enable-background="accumulate" fill="#fff" image-rendering="auto" shape-rendering="auto" solid-color="#000000" style="block-progression:tb;isolation:auto;mix-blend-mode:normal;text-decoration-color:#000000;text-decoration-line:none;text-decoration-style:solid;text-indent:0;text-transform:none;white-space:normal"/></svg>
