<svg id="svg2" width="96.171875" height="96.173828" enable-background="new 0 0 100 100" version="1.1" viewBox="0 0 96.171875 96.173828" xml:space="preserve" xmlns="http://www.w3.org/2000/svg"><path id="path4" d="m10.365235 0c-5.7160008 0-10.365235 4.6501872-10.365235 10.367187v75.439453c0 5.716 4.6492342 10.367188 10.365235 10.367188h75.441405c5.716 0 10.365235-4.651188 10.365235-10.367188v-75.439453c0-5.7169998-4.649235-10.367187-10.365235-10.367187zm0 5.40625h75.441405c2.735 0 4.958985 2.2239839 4.958985 4.958984v32.835937h2e-3v16.804688h-2e-3v25.800781c0 2.735-2.223985 4.960938-4.958985 4.960938h-75.441405c-2.7340008 0-4.958985-2.225938-4.958985-4.960938v-75.441406c0-2.7350001 2.2249842-4.958984 4.958985-4.958984z" fill="#fff"/><g id="text4135" fill="#fff" stroke-width="1px"><path id="path4136" d="m33.251953 43.634521h3.862305v16.645508h-3.862305v-1.743164q-2.375488 2.22168-5.109863 2.22168-3.452149 0-5.708008-2.495117-2.23877-2.546387-2.23877-6.357422 0-3.742676 2.23877-6.237793t5.605469-2.495117q2.905273 0 5.212402 2.392578v-1.931153zm-9.125976 8.271485q0 2.392578 1.281738 3.896484 1.315918 1.520996 3.31543 1.520996 2.13623 0 3.452148-1.469726 1.315918-1.520996 1.315918-3.862305t-1.315918-3.862305q-1.315918-1.486816-3.417969-1.486816-1.982422 0-3.315429 1.503906-1.315918 1.520996-1.315918 3.759766z"/><path id="path4138" d="m45.881348 31.415283v14.150391q2.307129-2.392578 5.229492-2.392578 3.366699 0 5.605469 2.512207 2.238769 2.495117 2.238769 6.220703 0 3.845215-2.255859 6.357422-2.23877 2.495117-5.656739 2.495117-2.888183 0-5.161132-2.22168v1.743164h-3.845215v-28.864746h3.845215zm9.143066 20.661621q0-2.392578-1.298828-3.896484-1.315918-1.538086-3.29834-1.538086-2.119141 0-3.452148 1.486816-1.315918 1.469727-1.315918 3.828125 0 2.426758 1.298828 3.879395 1.298828 1.486816 3.417969 1.486816 1.999511 0 3.315429-1.486816 1.333008-1.503906 1.333008-3.759766z"/><path id="path4140" d="m75.976562 44.352295v5.109863q-1.315917-1.606445-2.358398-2.20459-1.025391-0.615234-2.409668-0.615234-2.17041 0-3.605957 1.520996t-1.435547 3.811035q0 2.341309 1.384278 3.845215 1.401367 1.503906 3.571777 1.503906 1.384277 0 2.443848-0.598144 1.02539-0.581055 2.409667-2.25586v5.075684q-2.341308 1.213379-4.682617 1.213379-3.862304 0-6.459961-2.495117-2.597656-2.512207-2.597656-6.237793t2.631836-6.289063q2.631836-2.563476 6.459961-2.563476 2.460937 0 4.648437 1.179199z"/></g></svg>
