<?xml version="1.0" encoding="UTF-8" standalone="no"?>
<svg
   xmlns:dc="http://purl.org/dc/elements/1.1/"
   xmlns:cc="http://creativecommons.org/ns#"
   xmlns:rdf="http://www.w3.org/1999/02/22-rdf-syntax-ns#"
   xmlns:svg="http://www.w3.org/2000/svg"
   xmlns="http://www.w3.org/2000/svg"
   xmlns:sodipodi="http://sodipodi.sourceforge.net/DTD/sodipodi-0.dtd"
   xmlns:inkscape="http://www.inkscape.org/namespaces/inkscape"
   version="1.1"
   x="0px"
   y="0px"
   viewBox="0 0 96.171875 96.173828"
   enable-background="new 0 0 100 100"
   xml:space="preserve"
   id="svg2"
   inkscape:version="0.91 r13725"
   sodipodi:docname="string.svg"
   width="96.171875"
   height="96.173828"><metadata
     id="metadata20"><rdf:RDF><cc:Work
         rdf:about=""><dc:format>image/svg+xml</dc:format><dc:type
           rdf:resource="http://purl.org/dc/dcmitype/StillImage" /><dc:title></dc:title></cc:Work></rdf:RDF></metadata><defs
     id="defs18" /><sodipodi:namedview
     pagecolor="#ffffff"
     bordercolor="#666666"
     borderopacity="1"
     objecttolerance="10"
     gridtolerance="10"
     guidetolerance="10"
     inkscape:pageopacity="0"
     inkscape:pageshadow="2"
     inkscape:window-width="1146"
     inkscape:window-height="858"
     id="namedview16"
     showgrid="false"
     inkscape:zoom="2"
     inkscape:cx="-105.40625"
     inkscape:cy="42.466393"
     inkscape:window-x="512"
     inkscape:window-y="118"
     inkscape:window-maximized="0"
     inkscape:current-layer="svg2"
     fit-margin-top="0"
     fit-margin-left="0"
     fit-margin-right="0"
     fit-margin-bottom="0" /><path
     d="M 10.365235,0 C 4.6492342,0 0,4.6501872 0,10.367187 L 0,85.80664 c 0,5.716 4.6492342,10.367188 10.365235,10.367188 l 75.441405,0 c 5.716,0 10.365235,-4.651188 10.365235,-10.367188 l 0,-75.439453 C 96.171875,4.6501872 91.52264,0 85.80664,0 Z m 0,5.40625 75.441405,0 c 2.735,0 4.958985,2.2239839 4.958985,4.958984 l 0,32.835937 0.002,0 0,16.804688 -0.002,0 0,25.800781 c 0,2.735 -2.223985,4.960938 -4.958985,4.960938 l -75.441405,0 c -2.7340008,0 -4.958985,-2.225938 -4.958985,-4.960938 l 0,-75.441406 c 0,-2.7350001 2.2249842,-4.958984 4.958985,-4.958984 z"
     id="path4"
     inkscape:connector-curvature="0"
     sodipodi:nodetypes="sssssssssccsccccsccssc"
     style="fill:#ffffff" /><g
     style="font-style:normal;font-weight:normal;font-size:40px;line-height:125%;font-family:sans-serif;text-align:center;letter-spacing:0px;word-spacing:0px;text-anchor:middle;fill:#ffffff;fill-opacity:1;stroke:none;stroke-width:1px;stroke-linecap:butt;stroke-linejoin:miter;stroke-opacity:1"
     id="text4135"><path
       d="m 33.251953,43.634521 3.862305,0 0,16.645508 -3.862305,0 0,-1.743164 q -2.375488,2.22168 -5.109863,2.22168 -3.452149,0 -5.708008,-2.495117 -2.23877,-2.546387 -2.23877,-6.357422 0,-3.742676 2.23877,-6.237793 2.23877,-2.495117 5.605469,-2.495117 2.905273,0 5.212402,2.392578 l 0,-1.931153 z m -9.125976,8.271485 q 0,2.392578 1.281738,3.896484 1.315918,1.520996 3.31543,1.520996 2.13623,0 3.452148,-1.469726 1.315918,-1.520996 1.315918,-3.862305 0,-2.341309 -1.315918,-3.862305 -1.315918,-1.486816 -3.417969,-1.486816 -1.982422,0 -3.315429,1.503906 -1.315918,1.520996 -1.315918,3.759766 z"
       style="font-style:normal;font-variant:normal;font-weight:500;font-stretch:normal;font-size:35px;font-family:futura;-inkscape-font-specification:'futura Medium';text-align:center;text-anchor:middle;fill:#ffffff"
       id="path4136" /><path
       d="m 45.881348,31.415283 0,14.150391 q 2.307129,-2.392578 5.229492,-2.392578 3.366699,0 5.605469,2.512207 2.238769,2.495117 2.238769,6.220703 0,3.845215 -2.255859,6.357422 -2.23877,2.495117 -5.656739,2.495117 -2.888183,0 -5.161132,-2.22168 l 0,1.743164 -3.845215,0 0,-28.864746 3.845215,0 z m 9.143066,20.661621 q 0,-2.392578 -1.298828,-3.896484 -1.315918,-1.538086 -3.29834,-1.538086 -2.119141,0 -3.452148,1.486816 -1.315918,1.469727 -1.315918,3.828125 0,2.426758 1.298828,3.879395 1.298828,1.486816 3.417969,1.486816 1.999511,0 3.315429,-1.486816 1.333008,-1.503906 1.333008,-3.759766 z"
       style="font-style:normal;font-variant:normal;font-weight:500;font-stretch:normal;font-size:35px;font-family:futura;-inkscape-font-specification:'futura Medium';text-align:center;text-anchor:middle;fill:#ffffff"
       id="path4138" /><path
       d="m 75.976562,44.352295 0,5.109863 q -1.315917,-1.606445 -2.358398,-2.20459 -1.025391,-0.615234 -2.409668,-0.615234 -2.17041,0 -3.605957,1.520996 -1.435547,1.520996 -1.435547,3.811035 0,2.341309 1.384278,3.845215 1.401367,1.503906 3.571777,1.503906 1.384277,0 2.443848,-0.598144 1.02539,-0.581055 2.409667,-2.25586 l 0,5.075684 q -2.341308,1.213379 -4.682617,1.213379 -3.862304,0 -6.459961,-2.495117 -2.597656,-2.512207 -2.597656,-6.237793 0,-3.725586 2.631836,-6.289063 2.631836,-2.563476 6.459961,-2.563476 2.460937,0 4.648437,1.179199 z"
       style="font-style:normal;font-variant:normal;font-weight:500;font-stretch:normal;font-size:35px;font-family:futura;-inkscape-font-specification:'futura Medium';text-align:center;text-anchor:middle;fill:#ffffff"
       id="path4140" /></g></svg>