<?xml version="1.0" encoding="UTF-8" standalone="no"?>
<svg
   xmlns:dc="http://purl.org/dc/elements/1.1/"
   xmlns:cc="http://creativecommons.org/ns#"
   xmlns:rdf="http://www.w3.org/1999/02/22-rdf-syntax-ns#"
   xmlns:svg="http://www.w3.org/2000/svg"
   xmlns="http://www.w3.org/2000/svg"
   xmlns:sodipodi="http://sodipodi.sourceforge.net/DTD/sodipodi-0.dtd"
   xmlns:inkscape="http://www.inkscape.org/namespaces/inkscape"
   version="1.1"
   x="0px"
   y="0px"
   viewBox="0 0 96.171875 96.173828"
   enable-background="new 0 0 100 100"
   xml:space="preserve"
   id="svg2"
   inkscape:version="0.91 r13725"
   sodipodi:docname="time.svg"
   width="96.171875"
   height="96.173828"><metadata
     id="metadata20"><rdf:RDF><cc:Work
         rdf:about=""><dc:format>image/svg+xml</dc:format><dc:type
           rdf:resource="http://purl.org/dc/dcmitype/StillImage" /><dc:title /></cc:Work></rdf:RDF></metadata><defs
     id="defs18" /><sodipodi:namedview
     pagecolor="#ffffff"
     bordercolor="#666666"
     borderopacity="1"
     objecttolerance="10"
     gridtolerance="10"
     guidetolerance="10"
     inkscape:pageopacity="0"
     inkscape:pageshadow="2"
     inkscape:window-width="1243"
     inkscape:window-height="849"
     id="namedview16"
     showgrid="false"
     inkscape:zoom="2.0000001"
     inkscape:cx="-60.351767"
     inkscape:cy="18.119994"
     inkscape:window-x="387"
     inkscape:window-y="56"
     inkscape:window-maximized="0"
     inkscape:current-layer="svg2"
     fit-margin-top="0"
     fit-margin-left="0"
     fit-margin-right="0"
     fit-margin-bottom="0" /><path
     d="M 10.365235,0 C 4.6492342,0 0,4.6501872 0,10.367187 L 0,85.80664 c 0,5.716 4.6492342,10.367188 10.365235,10.367188 l 75.441405,0 c 5.716,0 10.365235,-4.651188 10.365235,-10.367188 l 0,-75.439453 C 96.171875,4.6501872 91.52264,0 85.80664,0 Z m 0,5.40625 75.441405,0 c 2.735,0 4.958985,2.2239839 4.958985,4.958984 l 0,32.835937 0.002,0 0,16.804688 -0.002,0 0,25.800781 c 0,2.735 -2.223985,4.960938 -4.958985,4.960938 l -75.441405,0 c -2.7340008,0 -4.958985,-2.225938 -4.958985,-4.960938 l 0,-75.441406 c 0,-2.7350001 2.2249842,-4.958984 4.958985,-4.958984 z"
     id="path4"
     inkscape:connector-curvature="0"
     sodipodi:nodetypes="sssssssssccsccccsccssc"
     style="fill:#ffffff" /><g
     id="g4870"
     transform="matrix(0,0.83183205,-0.83183205,0,89.3834,6.3258524)"
     style="fill:#ffffff"><path
       inkscape:connector-curvature="0"
       d="m 84.949541,52.256409 c 1.444,0.879 3.328,0.423 4.207,-1.019 0.879,-1.444 0.424,-3.329 -1.017,-4.208 -1.447,-0.88 -3.331,-0.423 -4.21,1.021 -0.878,1.443 -0.423,3.326 1.02,4.206 z"
       id="path4891"
       style="fill:#ffffff" /><path
       inkscape:connector-curvature="0"
       d="m 47.504912,84.534778 c 0.801,-1.489 2.66,-2.047 4.15,-1.244 1.486,0.804 2.045,2.658 1.237,4.15 -0.801,1.486 -2.655,2.042 -4.144,1.238 -1.489,-0.802 -2.045,-2.658 -1.243,-4.144 z"
       id="path4889"
       style="fill:#ffffff" /><path
       inkscape:connector-curvature="0"
       d="m 12.268783,52.257276 c 1.444,0.88 3.33,0.423 4.209,-1.02 0.879,-1.444 0.424,-3.327 -1.022,-4.208 -1.441,-0.88 -3.325,-0.423 -4.204,1.021 -0.881,1.444 -0.424,3.327 1.017,4.207 z"
       id="path4887"
       style="fill:#ffffff" /><path
       inkscape:connector-curvature="0"
       d="m 47.50752,14.757685 c 0.801,1.488 2.66,2.046 4.15,1.244 1.486,-0.805 2.045,-2.658 1.237,-4.15 -0.801,-1.486 -2.655,-2.042 -4.144,-1.237 -1.489,0.8 -2.045,2.657 -1.243,4.143 z"
       id="path4885"
       style="fill:#ffffff" /><path
       id="path4838"
       d="m 48.938,46.583 -12.479,0 c -1.69,0 -3.062,1.371 -3.062,3.062 0,1.691 1.371,3.062 3.062,3.062 l 13.738,0 0.008,0 c 0.415,0 0.811,-0.086 1.173,-0.238 0.317,-0.132 0.605,-0.336 0.873,-0.579 0.036,-0.033 0.084,-0.043 0.119,-0.079 l 12.649,-12.65 c 0.598,-0.599 0.897,-1.381 0.897,-2.165 0,-0.783 -0.299,-1.566 -0.897,-2.165 -1.195,-1.196 -3.133,-1.196 -4.329,0 L 48.938,46.583 Z"
       inkscape:connector-curvature="0"
       style="fill:#ffffff" /><path
       id="path4848"
       d="m 18.151,33.491 c 1.444,0.88 3.33,0.423 4.209,-1.02 0.879,-1.444 0.424,-3.327 -1.022,-4.208 -1.441,-0.88 -3.325,-0.423 -4.204,1.021 -0.881,1.444 -0.424,3.327 1.017,4.207 z"
       inkscape:connector-curvature="0"
       style="fill:#ffffff" /><path
       id="path4850"
       d="m 79.713,71.027 c 1.444,0.879 3.328,0.423 4.207,-1.019 0.879,-1.444 0.424,-3.329 -1.017,-4.208 -1.447,-0.88 -3.331,-0.423 -4.21,1.021 -0.878,1.443 -0.423,3.326 1.02,4.206 z"
       inkscape:connector-curvature="0"
       style="fill:#ffffff" /><path
       id="path4852"
       d="m 30.724,19.366 c 0.801,1.488 2.66,2.046 4.15,1.244 1.486,-0.805 2.045,-2.658 1.237,-4.15 -0.801,-1.486 -2.655,-2.042 -4.144,-1.237 -1.489,0.8 -2.045,2.657 -1.243,4.143 z"
       inkscape:connector-curvature="0"
       style="fill:#ffffff" /><circle
       id="circle4854"
       r="3.062"
       cy="81.380997"
       cx="67.637001"
       style="fill:#ffffff" /><path
       id="path4856"
       d="m 18.151,65.805 c 1.444,-0.88 3.33,-0.423 4.209,1.02 0.879,1.444 0.424,3.328 -1.022,4.208 -1.441,0.88 -3.325,0.423 -4.204,-1.021 -0.881,-1.443 -0.424,-3.326 1.017,-4.207 z"
       inkscape:connector-curvature="0"
       style="fill:#ffffff" /><path
       id="path4858"
       d="m 79.713,28.268 c 1.444,-0.879 3.328,-0.423 4.207,1.02 0.879,1.444 0.424,3.329 -1.017,4.208 -1.447,0.881 -3.331,0.423 -4.21,-1.021 -0.878,-1.443 -0.423,-3.327 1.02,-4.207 z"
       inkscape:connector-curvature="0"
       style="fill:#ffffff" /><path
       id="path4860"
       d="m 30.724,79.93 c 0.801,-1.489 2.66,-2.047 4.15,-1.244 1.486,0.804 2.045,2.658 1.237,4.15 -0.801,1.486 -2.655,2.042 -4.144,1.238 -1.489,-0.802 -2.045,-2.658 -1.243,-4.144 z"
       inkscape:connector-curvature="0"
       style="fill:#ffffff" /><circle
       id="circle4862"
       r="3.062"
       cy="17.915001"
       cx="67.637001"
       style="fill:#ffffff" /></g></svg>