<svg xmlns="http://www.w3.org/2000/svg" viewBox="0 0 24 30" enable-background="new 0 0 24 24" x="0px" y="0px"><path d="M22 11.7v.1l-10.2 10.2-9.8-9.8 10.2-10.2h9.8v9.7zm1.4-11.1c-.4-.4-.9-.6-1.4-.6h-9.6c-.8 0-1.2.2-1.6.6l-10.2 10.2c-.8.8-.8 2.1 0 2.9l9.8 9.8c.4.4.9.6 1.4.6s1-.2 1.4-.6l10.2-10.2c.4-.4.6-1 .6-1.5v-9.8c0-.5-.2-1-.6-1.4z"/><circle cx="18.5" cy="5.5" r="1.5"/><path d="M10.3 15.7c.2.2.5.3.7.3s.5-.1.7-.3l4-4c.4-.4.4-1 0-1.4-.4-.4-1-.4-1.4 0l-4 4c-.4.4-.4 1 0 1.4zM8.3 13.7c.2.2.4.3.7.3s.5-.1.7-.3l4-4c.4-.4.4-1 0-1.4-.4-.4-1-.4-1.4 0l-4 4c-.4.4-.4 1 0 1.4z"/><text x="0" y="39" fill="#000000" font-size="5px" font-weight="bold" font-family="'Helvetica Neue', Helvetica, Arial-Unicode, Arial, Sans-serif">Created by ✦ Shmidt Sergey ✦</text><text x="0" y="44" fill="#000000" font-size="5px" font-weight="bold" font-family="'Helvetica Neue', Helvetica, Arial-Unicode, Arial, Sans-serif">from the Noun Project</text></svg>