<svg xmlns="http://www.w3.org/2000/svg" viewBox="0 0 24 30" enable-background="new 0 0 24 24" x="0px" y="0px"><g><path d="M13 23.586c-.534 0-1.037-.208-1.414-.586l-1.293-1.293c-.391-.391-.391-1.023 0-1.414.39-.391 1.023-.391 1.414 0l1.293 1.293 9-9v-6.586c-.553 0-.999-.447-.999-1 0-.553.447-1 1-1 1.103 0 1.999.897 1.999 2v6.586c0 .534-.208 1.036-.586 1.414l-9 9c-.378.378-.88.586-1.414.586zM8.582 20c-.537 0-1.042-.21-1.421-.59l-6.573-6.572c-.379-.379-.588-.883-.588-1.42s.209-1.041.588-1.42l9.411-9.411c.378-.379.882-.587 1.417-.587h6.58c1.105 0 2.004.899 2.004 2.004v6.58c0 .536-.209 1.04-.588 1.418l-9.41 9.409c-.378.38-.883.589-1.42.589zm2.834-18l-9.414 9.412 6.574 6.585.003.003 9.42-9.413.001-6.583-6.584-.004z"/><circle cx="15" cy="5" r="1"/><path d="M7 12c-.256 0-.512-.098-.707-.293-.391-.391-.391-1.023 0-1.414l5-5c.391-.391 1.023-.391 1.414 0s.391 1.023 0 1.414l-5 5c-.195.195-.451.293-.707.293zM9 14c-.256 0-.512-.098-.707-.293-.391-.391-.391-1.023 0-1.414l5-5c.391-.391 1.023-.391 1.414 0s.391 1.023 0 1.414l-5 5c-.195.195-.451.293-.707.293z"/></g><text x="0" y="39" fill="#000000" font-size="5px" font-weight="bold" font-family="'Helvetica Neue', Helvetica, Arial-Unicode, Arial, Sans-serif">Created by ✦ Shmidt Sergey ✦</text><text x="0" y="44" fill="#000000" font-size="5px" font-weight="bold" font-family="'Helvetica Neue', Helvetica, Arial-Unicode, Arial, Sans-serif">from the Noun Project</text></svg>