<svg id="svg2" width="10mm" height="10mm" version="1.1" viewBox="0 0 35.433072 35.43307" xmlns="http://www.w3.org/2000/svg">
 <g id="layer1" transform="translate(0,-1016.9292)">
  <g id="text3336" transform="translate(1.0714286,-24.285714)" font-family="sans-serif" font-size="40px" letter-spacing="0px" stroke-width="1px" word-spacing="0px" style="line-height:125%">
   <text id="text4220" x="4.8091693" y="716.64795" fill="#333333" font-family="sans-serif" font-size="40px" letter-spacing="0px" word-spacing="0px" style="line-height:125%" xml:space="preserve"><tspan id="tspan4222" x="4.8091693" y="716.64795">v</tspan></text>
   <g id="text4466" transform="matrix(.79907713 0 0 .79907713 3.3443828 212.76359)" fill="#fff">
    <path id="path4471" d="m25.824794 1065.8162h-3.632812v-2.3047q-1.445313 1.5234-2.773438 2.1289-1.308593 0.5859-2.832031 0.5859-1.464844 0-2.636719-0.5273-1.171875-0.5274-2.8125-2.0899v10.2539h-3.6718747v-29.8632h3.6718747v16.3671q0.625 0.7618 2.167969 1.5625 1.542969 0.8008 3.320313 0.8008 1.816406 0 3.144531-0.6445 1.328125-0.6641 2.382812-1.8359v-16.25h3.671875v21.8164z" fill="#fff"/>
   </g>
  </g>
 </g>
</svg>
