<svg width="500" height="500" xmlns="http://www.w3.org/2000/svg">
 <g>
  <title>Layer 1</title>
  <path id="svg_1" transform="rotate(90 79.1666718 210.636353)" d="m-130.83331 158.212108h28.636362v43.686872h95.454541v-69.898995h219.545445v69.898995h47.727271v-43.686872h28.636362v104.848492h-28.636362v-43.686872h-47.727271v69.898995h-219.545445v-69.898995h-95.454541v43.686872h-28.636362v-104.848492zm152.727266 0v104.848492h76.363633v-104.848492h-76.363633zm104.999996 0v104.848492h57.272725v-104.848492h-57.272725z" fill="#333"/>
  <path id="svg_2" transform="rotate(-90 250.666687 311.833344)" d="m63.500035 259.409092h25.522724v43.68687h85.075745v-69.89899h195.674214v69.89899h42.537873v-43.68687h25.522724v104.8485h-25.522724v-43.68688h-42.537873v69.899h-195.674214v-69.899h-85.075745v43.68688h-25.522724v-104.8485zm136.121192 0v104.8485h68.060596v-104.8485h-68.060596zm93.58332 0v104.8485h51.045447v-104.8485h-51.045447z" fill="#333"/>
  <path id="svg_5" transform="rotate(90 422 209.320984)" d="m212.000005 156.896749h28.63637v43.68687h95.45454v-69.899h219.54544v69.899h47.72727v-43.68687h28.63637v104.84849h-28.63637v-43.68687h-47.72727v69.89899h-219.54544v-69.89899h-95.45454v43.68687h-28.63637v-104.84849zm152.72727 0v104.84849h76.36363v-104.84849h-76.36363zm104.99999 0v104.84849h57.27273v-104.84849h-57.27273z" fill="#333"/>
 </g>
</svg>
