<?xml version="1.0"?>
<svg width="500" height="500" xmlns="http://www.w3.org/2000/svg" xmlns:svg="http://www.w3.org/2000/svg">
 <g>
  <title>Layer 1</title>
  <path transform="rotate(90 79.16667175292967,210.63635253906253) " fill="#333333" id="svg_1" d="m-130.83331,158.212108l28.636362,0l0,43.686872l95.454541,0l0,-69.898995l219.545445,0l0,69.898995l47.727271,0l0,-43.686872l28.636362,0l0,104.848492l-28.636362,0l0,-43.686872l-47.727271,0l0,69.898995l-219.545445,0l0,-69.898995l-95.454541,0l0,43.686872l-28.636362,0l0,-104.848492zm152.727266,0l0,104.848492l76.363633,0l0,-104.848492l-76.363633,0zm104.999996,0l0,104.848492l57.272725,0l0,-104.848492l-57.272725,0z"/>
  <path id="svg_2" transform="rotate(-90 250.66668701171878,311.8333435058594) " fill="#333333" d="m63.500035,259.409092l25.522724,0l0,43.68687l85.075745,0l0,-69.89899l195.674214,0l0,69.89899l42.537873,0l0,-43.68687l25.522724,0l0,104.8485l-25.522724,0l0,-43.68688l-42.537873,0l0,69.899l-195.674214,0l0,-69.899l-85.075745,0l0,43.68688l-25.522724,0l0,-104.8485zm136.121192,0l0,104.8485l68.060596,0l0,-104.8485l-68.060596,0zm93.58332,0l0,104.8485l51.045447,0l0,-104.8485l-51.045447,0z"/>
  <path id="svg_5" transform="rotate(90 422.00000000000006,209.32098388671878) " fill="#333333" d="m212.000005,156.896749l28.63637,0l0,43.68687l95.45454,0l0,-69.899l219.54544,0l0,69.899l47.72727,0l0,-43.68687l28.63637,0l0,104.84849l-28.63637,0l0,-43.68687l-47.72727,0l0,69.89899l-219.54544,0l0,-69.89899l-95.45454,0l0,43.68687l-28.63637,0l0,-104.84849zm152.72727,0l0,104.84849l76.36363,0l0,-104.84849l-76.36363,0zm104.99999,0l0,104.84849l57.27273,0l0,-104.84849l-57.27273,0z"/>
 </g>
</svg>
