<svg id="Layer_1" width="512px" height="512px" enable-background="new 0 0 512 512" version="1.1" viewBox="0 0 512 512" xml:space="preserve" xmlns="http://www.w3.org/2000/svg"><rect id="rect4714" y="480" width="512" height="32" fill="#fff" stroke="#fff"/><rect id="rect4716" y="448" width="32" height="64" fill="#fff" stroke="#fff"/><rect id="rect4716-3" x="64" y="448" width="32" height="64" fill="#fff" stroke="#fff"/><rect id="rect4716-1" x="128" y="448" width="32" height="64" fill="#fff" stroke="#fff"/><rect id="rect4716-39" x="192" y="448" width="32" height="64" fill="#fff" stroke="#fff"/><rect id="rect4716-9" x="256" y="448" width="32" height="64" fill="#fff" stroke="#fff"/><rect id="rect4716-3-4" x="320" y="448" width="32" height="64" fill="#fff" stroke="#fff"/><rect id="rect4716-1-7" x="384" y="448" width="32" height="64" fill="#fff" stroke="#fff"/><rect id="rect4716-39-7" x="448" y="448" width="32" height="64" fill="#fff" stroke="#fff"/><g id="g5384" transform="matrix(1,0,0,1.438498,-3.2302839,43.425658)" fill="#fff" stroke="#fff"><rect id="rect5262" x="36" y="64" width="64" height="128"/><rect id="rect5264" x="60" y="17.545742" width="16" height="48.454258"/><rect id="rect5264-4" x="60" y="191.54575" width="16" height="48.454258"/></g><g id="g5389" transform="matrix(1 0 0 .80150648 -3.2302839 92.501933)" fill="#fff" stroke="#fff"><rect id="rect5262-5" x="127.89906" y="85.402283" width="64" height="167.96211" stroke-width="4"/><rect id="rect5264-0" x="151.89905" y="23.418129" width="16" height="63.581871"/><rect id="rect5264-4-5" x="151.89905" y="252.7683" width="16" height="63.581871"/></g><g id="g5394" transform="matrix(1 0 0 .53480731 -8.0757097 119.28335)" fill="#fff" stroke="#fff"><rect id="rect5262-5-0" x="234.49841" y="111.41868" width="64" height="191.11447" stroke-width="4.26678848"/><rect id="rect5264-0-8" x="258.49841" y="-55.750973" width="16" height="168.98759"/><rect id="rect5264-4-5-1" x="258.49841" y="301.85483" width="16" height="72.346169"/></g><g id="g5399" transform="matrix(1,0,0,1.2040072,-3.2302839,-55.963131)" fill="#fff" stroke="#fff"><rect id="rect5262-5-9" x="326.56149" y="127.10174" width="64" height="167.96211" stroke-width="4"/><rect id="rect5264-0-0" x="350.56149" y="65.117584" width="16" height="63.581871"/><rect id="rect5264-4-5-2" x="350.56149" y="294.46774" width="16" height="42.11832"/></g><g id="g5409" transform="translate(-3.2302839,6.5831657)" fill="#fff" stroke="#fff"><rect id="rect5262-5-90" x="420.23972" y="114.77554" width="64" height="213.34073" stroke-width="4.50807571"/><rect id="rect5264-0-01" x="444.23972" y="36.045029" width="16" height="80.759895"/><rect id="rect5264-4-5-7" x="444.23972" y="327.3591" width="16" height="80.759895"/></g></svg>
