<?xml version="1.0" encoding="UTF-8" standalone="no"?>
<svg
   xmlns:dc="http://purl.org/dc/elements/1.1/"
   xmlns:cc="http://creativecommons.org/ns#"
   xmlns:rdf="http://www.w3.org/1999/02/22-rdf-syntax-ns#"
   xmlns:svg="http://www.w3.org/2000/svg"
   xmlns="http://www.w3.org/2000/svg"
   xmlns:xlink="http://www.w3.org/1999/xlink"
   xmlns:sodipodi="http://sodipodi.sourceforge.net/DTD/sodipodi-0.dtd"
   xmlns:inkscape="http://www.inkscape.org/namespaces/inkscape"
   height="1024"
   width="1024"
   id="svg3446"
   version="1.1"
   inkscape:version="0.91 r13725"
   sodipodi:docname="circle-question-focused.svg">
  <metadata
     id="metadata3454">
    <rdf:RDF>
      <cc:Work
         rdf:about="">
        <dc:format>image/svg+xml</dc:format>
        <dc:type
           rdf:resource="http://purl.org/dc/dcmitype/StillImage" />
      </cc:Work>
    </rdf:RDF>
  </metadata>
  <defs
     id="defs3452">
    <linearGradient
       id="linearGradient4299">
      <stop
         style="stop-color:#ffffff;stop-opacity:1;"
         offset="0"
         id="stop4301" />
    </linearGradient>
    <linearGradient
       inkscape:collect="always"
       xlink:href="#linearGradient4299"
       id="linearGradient4303"
       x1="131.94395"
       y1="510.8917"
       x2="892.48976"
       y2="510.8917"
       gradientUnits="userSpaceOnUse"
       gradientTransform="matrix(1.0911274,0,0,1.0911274,-46.676551,-46.556271)" />
  </defs>
  <sodipodi:namedview
     pagecolor="#ffffff"
     bordercolor="#666666"
     borderopacity="1"
     objecttolerance="10"
     gridtolerance="10"
     guidetolerance="10"
     inkscape:pageopacity="0"
     inkscape:pageshadow="2"
     inkscape:window-width="1280"
     inkscape:window-height="751"
     id="namedview3450"
     showgrid="false"
     inkscape:zoom="0.23046875"
     inkscape:cx="-193.08475"
     inkscape:cy="512"
     inkscape:window-x="0"
     inkscape:window-y="0"
     inkscape:window-maximized="1"
     inkscape:current-layer="svg3446" />
  <path
     d="M 512,0 C 229,0 0,229 0,512 c 0,283 229,512 512,512 283,0 512,-229 512,-512 C 1024,229 795,0 512,0 Z m 0,896 C 300,896 128,724 128,512 128,300 300,128 512,128 c 212,0 384,172 384,384 0,212 -172,384 -384,384 z"
     id="path3448"
     style="fill:#ffffff"
     inkscape:connector-curvature="0"
     sodipodi:nodetypes="ssssssssss" />
  <path
     style="opacity:1;fill:#ffffff;fill-opacity:1;fill-rule:nonzero"
     d="M 433.46441,885.77814 C 288.17891,854.7955 168.97548,735.17594 138.05753,589.34003 c -9.08517,-42.85352 -7.83432,-120.8367 2.63899,-164.52539 9.5402,-39.79634 34.51057,-96.80197 56.23104,-128.37159 112.92758,-164.13461 330.88528,-213.424875 506.5184,-114.54712 39.26849,22.10732 103.07059,82.7919 129.13681,122.82691 69.26106,106.37773 79.74057,249.58398 26.66956,364.44918 -52.10624,112.77716 -151.65145,191.96594 -272.65584,216.89939 -41.3735,8.52515 -112.41813,8.38908 -153.13208,-0.29332 l 0,5e-5 z m 145.35593,-181.56119 0,-67.25424 -67.25424,0 -67.25424,0 0,64.36157 c 0,35.3989 1.3017,65.66331 2.89266,67.25424 1.59096,1.59097 31.85537,2.89267 67.25424,2.89267 l 64.36158,0 0,-67.25424 z m 26.99494,-138.2006 c 38.75293,-17.25966 65.90551,-42.11329 82.2006,-75.24094 13.48999,-27.42495 14.46231,-32.33853 14.41879,-72.86462 -0.0434,-38.52032 -1.3476,-45.93064 -11.49917,-65.2374 -14.05762,-26.73549 -47.12119,-58.33168 -76.75423,-73.34788 -102.05679,-51.71608 -212.55784,-17.58501 -272.86486,84.28127 -10.77507,18.20048 -22.83505,57.57304 -22.83505,74.55024 l 0,12.22942 65.00208,0 65.00207,0 2.82187,-11.9322 c 7.31548,-30.93337 41.81959,-56.35653 69.4513,-51.17279 20.16236,3.78248 43.84758,25.56017 49.94958,45.92677 9.41785,31.43396 -6.38112,50.2641 -68.357,81.47201 -25.1076,12.64292 -53.70041,36.15576 -53.70041,44.15968 0,2.00767 -1.18517,6.73885 -2.63372,10.51368 -2.3343,6.08312 5.29731,6.86336 67.13052,6.86336 63.84797,0 71.70652,-0.86506 92.66763,-10.2006 z"
     id="path3456"
     inkscape:connector-curvature="0" />
  <path
     style="opacity:1;fill:#ffffff;fill-opacity:1;fill-rule:nonzero"
     d="M 433.46441,885.77814 C 300.95334,857.51969 193.14653,760.26533 149.12435,629.27017 c -12.51923,-37.25303 -14.42672,-49.1973 -16.25507,-101.78572 -1.76427,-50.74536 -0.66998,-65.64471 7.3798,-100.48032 32.27054,-139.65148 137.66133,-247.58602 278.73775,-285.46548 49.54642,-13.30337 137.49566,-13.31637 186.72857,-0.0276 72.5372,19.57899 131.40401,54.87 184.15273,110.40068 68.70068,72.32394 103.31843,160.31694 102.83468,261.38996 -0.87309,182.41294 -126.87083,335.73081 -306.37698,372.80886 -41.08817,8.48696 -112.23041,8.33228 -152.86142,-0.33237 l 0,-4e-5 z m 145.35593,-181.56119 0,-67.25424 -67.25424,0 -67.25424,0 0,64.36157 c 0,35.3989 1.3017,65.66331 2.89266,67.25424 1.59096,1.59097 31.85537,2.89267 67.25424,2.89267 l 64.36158,0 0,-67.25424 z m 36.48872,-143.16141 c 33.70596,-17.07808 61.17259,-44.34911 75.53905,-75.00119 10.06019,-21.46419 11.63325,-30.39433 11.63325,-66.04079 0,-36.36415 -1.43148,-44.13539 -12.15072,-65.96388 -21.78707,-44.36677 -76.05582,-83.16471 -132.80612,-94.94603 -87.14046,-18.09028 -177.06579,28.41456 -218.85564,113.1811 -9.04715,18.35124 -17.21053,42.47616 -18.71983,55.32203 l -2.67646,22.77966 65.34438,0 65.34437,0 2.95603,-13.45874 c 3.80552,-17.32638 32.02451,-45.55208 49.34446,-49.35618 42.45384,-9.32443 87.11854,42.64091 68.16053,79.30167 -7.99189,15.45463 -20.73028,25.07085 -58.06936,43.8367 -35.30693,17.74452 -61.70215,41.46796 -61.70215,55.4565 l 0,10.63459 70.50847,-1.37676 c 68.418,-1.33593 71.26871,-1.76193 96.14974,-14.36868 z"
     id="path3458"
     inkscape:connector-curvature="0" />
  <path
     style="opacity:1;fill:#ffffff;fill-opacity:1;fill-rule:nonzero"
     d="M 434.00166,885.85715 C 299.82539,857.08375 191.49401,759.3259 148.57003,628.28475 c -11.60707,-35.43483 -13.79772,-49.45369 -15.60784,-99.88107 -1.57453,-43.86435 -0.34464,-67.17612 4.87597,-92.42032 29.23996,-141.38946 137.91833,-256.20527 278.50453,-294.23263 48.61756,-13.15063 141.35748,-13.28516 189.37271,-0.27472 186.38518,50.50391 307.98583,226.49825 285.2998,412.91852 -6.42846,52.82502 -17.56069,88.89247 -41.35294,133.97979 -55.27161,104.74214 -151.4374,176.61536 -265.51326,198.4417 -40.69774,7.78674 -111.47236,7.33479 -150.14734,-0.95887 z m 144.81868,-181.6402 0,-67.25424 -67.25424,0 -67.25424,0 0,60.39088 c 0,33.215 1.18518,63.47941 2.63372,67.25424 2.23847,5.83337 12.33144,6.86336 67.25424,6.86336 l 64.62052,0 0,-67.25424 z m 33.5406,-143.19226 c 34.94799,-17.48377 66.50416,-48.55584 80.5586,-79.32282 13.18031,-28.85334 13.37695,-94.15364 0.36864,-122.43407 -33.81456,-73.51394 -138.66649,-120.16993 -220.77293,-98.23738 -47.39152,12.65938 -91.19869,44.13745 -118.66413,85.26727 -17.6594,26.44517 -35.36976,73.36183 -35.36976,93.69834 l 0,10.39041 64.73999,0 64.73999,0 2.68822,-12.2394 c 4.18009,-19.03183 26.72649,-43.32538 45.40257,-48.92087 44.53601,-13.34331 92.57626,38.57286 72.18374,78.0076 -7.35063,14.21457 -20.40007,23.7458 -68.21095,49.82084 -30.78372,16.78879 -51.37407,37.15598 -51.37407,50.8173 0,7.872 3.77923,8.34504 66.67126,8.34504 l 66.67128,0 30.36755,-15.19226 z"
     id="path3460"
     inkscape:connector-curvature="0" />
  <path
     style="opacity:1;fill:#ffffff;fill-opacity:1;fill-rule:nonzero"
     d="M 435.6339,886.47151 C 289.32889,857.02847 168.6112,736.93258 138.42543,590.79389 130.24841,551.2064 130.11954,470.36909 138.17288,432.37306 153.5621,359.76594 195.74042,286.2419 252.62425,232.86469 365.43617,127.00711 534.19517,100.18559 673.16779,166.02608 c 41.58017,19.69928 66.50108,37.08343 102.47533,71.484 79.43315,75.95839 117.26887,166.03041 116.76056,277.96111 -0.3059,67.3818 -9.66287,106.36101 -40.10019,167.05084 -54.98719,109.6406 -155.25359,184.6062 -275.36479,205.8805 -34.33856,6.08212 -106.37885,5.09761 -141.3048,-1.93102 z m 143.18644,-182.25456 0,-67.25424 -67.25424,0 -67.25424,0 0,60.43583 c 0,49.15638 1.27256,61.70841 6.81841,67.25424 5.54584,5.54587 18.09787,6.81841 67.25424,6.81841 l 60.43583,0 0,-67.25424 z m 29.2657,-140.82551 c 35.36419,-16.7301 67.44576,-47.1248 82.05941,-77.74474 10.02353,-21.00227 11.68636,-30.1714 11.90244,-65.63314 0.21374,-35.07705 -1.31575,-44.45365 -10.2626,-62.91525 -27.14477,-56.01244 -105.432,-101.96611 -173.71071,-101.96611 -84.3467,0 -167.37421,65.31189 -192.67923,151.56719 -3.8027,12.96196 -6.91399,28.09416 -6.91399,33.62712 l 0,10.05993 64.39793,0 64.39794,0 5.0794,-16.95351 c 5.91347,-19.73741 28.88112,-41.68302 48.02469,-45.88766 18.8961,-4.15028 41.12825,4.49827 56.46453,21.96533 22.46792,25.58953 22.85413,49.53868 1.14212,70.82312 -6.4405,6.31367 -28.93211,21.07707 -49.98135,32.80755 -39.5842,22.05979 -59.35577,40.29071 -59.35577,54.73064 0,7.8694 3.77137,8.34487 66.16949,8.34161 64.28364,-0.003 66.94174,-0.36881 93.2657,-12.82208 z"
     id="path3462"
     inkscape:connector-curvature="0" />
  <path
     style="opacity:1;fill:#ffffff;fill-opacity:1;fill-rule:nonzero;stroke:url(#linearGradient4303);stroke-width:1.0911274"
     d="M 434.97474,922.89756 C 398.52845,916.35005 336.21506,892.33815 301.09932,871.30991 204.98625,813.75488 132.00041,715.75665 106.91338,610.57612 95.33454,562.03038 93.976151,472.9244 104.08766,425.21781 126.54805,319.24857 205.45079,208.37642 296.53065,154.80176 416.73405,84.09614 565.07086,76.437757 687.83526,134.59933 c 45.36926,21.49442 72.56115,40.46275 111.81364,77.99815 86.72339,82.92971 128.27257,181.77774 127.48353,303.29098 -0.47565,73.24891 -10.67802,115.80438 -43.69882,182.27375 -51.25884,103.18162 -138.39933,177.10224 -251.19961,213.0907 -34.12501,10.88744 -50.31769,13.08224 -106.52362,14.4385 -36.45475,0.87965 -77.28579,-0.37732 -90.73564,-2.79385 z m 149.91543,-201.06343 0,-73.38295 -73.38294,0 -73.38294,0 0,56.22081 c 0,65.67621 2.93029,84.55632 13.56285,87.38616 4.25803,1.13331 35.97063,2.30768 70.47245,2.60972 l 62.73058,0.5492 0,-73.38294 z m 37.1847,-156.07193 c 39.37501,-21.80948 65.04981,-47.17503 81.43129,-80.45053 13.4199,-27.25969 14.80755,-34.2701 14.80755,-74.80895 0,-39.05099 -1.59985,-47.88776 -12.59985,-69.59522 C 669.68695,269.81188 566.7038,220.32951 486.0011,235.33776 395.5709,252.15503 316.51038,333.12019 303.08262,422.66298 l -3.33057,22.20973 70.80392,0 70.80391,0 5.54227,-18.49844 c 9.89752,-33.03499 52.18733,-59.35059 80.78937,-50.27265 14.42527,4.5784 37.53922,25.23586 45.53275,40.69362 16.40378,31.72144 2.66953,57.10363 -46.02543,85.05925 -68.83471,39.51781 -88.74245,57.27997 -82.48257,73.59298 2.521,6.56962 12.61318,7.34549 77.45427,5.95453 72.38691,-1.55283 75.29292,-2.00776 99.90433,-15.6398 z"
     id="path3464"
     inkscape:connector-curvature="0" />
</svg>
