<?xml version="1.0" encoding="utf-8"?>
<svg version="1.0" xmlns="http://www.w3.org/2000/svg" xmlns:xlink="http://www.w3.org/1999/xlink" width="120px" height="120px">
  <circle fill="none" stroke="#999" stroke-width="16" cx="60" cy="60" r="50"/>
	<path fill="#999" d="M60,71.314L30.764,100.55C38.987,106.489,49.081,110,60,110s21.013-3.511,29.236-9.449L60,71.314z"/>
	<path fill="#999" d="M60,48.686L89.236,19.45C81.013,13.51,70.919,10,60,10s-21.013,3.511-29.236,9.45L60,48.686z"/>
	<path fill="#999" d="M100.55,30.764L71.314,60l29.236,29.236C106.489,81.013,110,70.919,110,60S106.489,38.987,100.55,30.764z" />
	<path fill="#999" d="M48.686,60L19.45,30.764C13.511,38.987,10,49.081,10,60s3.51,21.013,9.45,29.236L48.686,60z"/>
</svg>
