<svg id="Layer_1" width="512px" height="512px" enable-background="new 0 0 512 512" version="1.1" viewBox="0 0 512 512" xml:space="preserve" xmlns="http://www.w3.org/2000/svg"><text id="text3420" y="735.45764" fill="#333333" font-family="sans-serif" font-size="180px" letter-spacing="0px" stroke-width="1px" word-spacing="0px" style="line-height:125%" xml:space="preserve"><tspan id="tspan3422" x="0" y="735.45764">  </tspan></text>
<text id="text4319" x="264.67798" y="360.13559" fill="#333333" font-family="sans-serif" font-size="180px" letter-spacing="0px" stroke-width="1px" word-spacing="0px" style="line-height:125%" xml:space="preserve"><tspan id="tspan4321" x="264.67798" y="360.13559"/></text>
<g id="text4323" transform="matrix(.99087081 0 0 1.2998622 0 -73.726844)" fill="#fff" stroke-width="1px"><path id="path4508" d="m56.336284 306.82117q-27.524622 0-42.022323-17.64937-14.4977021-17.64938-14.4977021-50.21668 0-16.17859 4.41234399-28.78529 4.412344-12.6067 12.1864741-21.22128 7.984241-8.82468 18.699934-13.23703 10.925804-4.62245 23.742613-4.62245 6.933683 0 12.396585 1.26067 5.673014 1.05056 9.875246 2.52134t6.933683 3.15167q2.941563 1.68089 4.412344 2.52134l-6.723571 20.59094q-4.832568-3.15168-11.766251-5.25279-6.723572-2.31123-15.54826-2.31123-6.093237 0-11.976362 2.31123-5.673014 2.10111-10.295469 7.35391-4.412344 5.04267-7.353907 13.65725-2.731451 8.61458-2.731451 21.43139 0 22.27183 7.564018 34.24819 7.77413 11.76625 25.213395 11.76625 10.085357 0 16.598817-2.31123 6.723572-2.31123 10.715693-4.62245l6.51346 20.38082q-5.462902 3.36179-14.917925 6.30335-9.244911 2.73145-21.431385 2.73145z"/><path id="path4510" d="m123.99223 319.42787q3.782-0.84045 7.56401-1.47078 3.99212-0.63034 7.35391-1.89101 3.5719-1.26067 6.30335-3.57189 2.73145-2.31123 4.41234-6.30335-7.98424-0.84045-12.39658-6.30335-4.41235-5.4629-4.41235-12.18647 0-8.19436 5.25279-13.44715 5.46291-5.25279 13.65726-5.25279 8.82469 0 13.65725 5.88313 5.04268 5.88312 5.04268 15.96848 0 7.35391-2.31123 14.70781-2.31122 7.35391-7.56401 13.65726-5.04268 6.30335-13.23704 10.9258-8.19435 4.62246-19.9606 6.09324l-3.36178-16.80893zm46.64477-95.60079q0 9.24491-5.67301 14.07748t-13.02692 4.83257q-3.78201 0-7.14379-1.26067-3.36179-1.26067-6.09324-3.5719-2.52134-2.52134-4.20223-5.88312-1.47079-3.5719-1.47079-8.19436 0-4.41234 1.47079-7.77413 1.68089-3.57189 4.20223-5.88312 2.73145-2.31123 6.09324-3.5719 3.36178-1.26067 7.14379-1.26067 7.35391 0 13.02692 4.83257t5.67301 13.65725z"/><path id="path4512" d="m253.00076 285.17968q6.51346 0 10.71569-1.26067 4.41235-1.47078 6.93368-3.78201 2.52134-2.52134 3.36179-5.4629 1.05056-3.15168 1.05056-6.30335 0-3.99212-2.31123-7.1438-2.31123-3.15167-5.88312-5.4629-3.5719-2.52134-7.98425-4.41234-4.41234-2.10112-8.82468-3.78201-5.88313-2.10112-12.18648-4.83257t-11.55614-6.93368q-5.04268-4.20224-8.40446-10.29547-3.36179-6.30335-3.36179-15.54826 0-18.27971 11.76625-28.57518 11.97637-10.29547 32.77742-10.29547 11.97636 0 20.80105 2.73145 9.0348 2.73145 15.12803 6.09324l-7.56402 19.9606q-5.25279-2.94156-11.76625-5.04268-6.30335-2.10112-14.70781-2.10112-20.59094 0-20.59094 14.91793 0 3.78201 2.10112 6.72357 2.10111 2.73145 5.25279 5.04268 3.36178 2.10112 7.3539 3.78201 4.20224 1.68089 8.19436 3.15167 6.09323 2.31123 12.6067 5.25279 6.72357 2.73145 12.18647 7.56402 5.67301 4.62246 9.24491 11.76625 3.5719 6.93369 3.5719 17.64938 0 18.27971-11.97636 28.36507-11.76626 9.87524-35.92909 9.87524-16.1786 0-25.84373-3.36178-9.66513-3.5719-14.4977-6.51346l7.56402-21.01117q5.67301 3.36179 13.44714 6.30335 7.98424 2.94157 19.33027 2.94157z"/><path id="path4514" d="m334.10384 319.42787q3.782-0.84045 7.56401-1.47078 3.99212-0.63034 7.35391-1.89101 3.5719-1.26067 6.30335-3.57189 2.73145-2.31123 4.41234-6.30335-7.98424-0.84045-12.39658-6.30335-4.41235-5.4629-4.41235-12.18647 0-8.19436 5.25279-13.44715 5.46291-5.25279 13.65726-5.25279 8.82469 0 13.65725 5.88313 5.04268 5.88312 5.04268 15.96848 0 7.35391-2.31122 14.70781-2.31123 7.35391-7.56402 13.65726-5.04268 6.30335-13.23703 10.9258-8.19436 4.62246-19.96061 6.09324l-3.36178-16.80893zm46.64477-95.60079q0 9.24491-5.67301 14.07748t-13.02692 4.83257q-3.78201 0-7.14379-1.26067-3.36179-1.26067-6.09324-3.5719-2.52134-2.52134-4.20223-5.88312-1.47078-3.5719-1.47078-8.19436 0-4.41234 1.47078-7.77413 1.68089-3.57189 4.20223-5.88312 2.73145-2.31123 6.09324-3.5719 3.36178-1.26067 7.14379-1.26067 7.35391 0 13.02692 4.83257t5.67301 13.65725z"/><path id="path4516" d="m453.44724 304.08972q-5.04268-14.4977-10.71569-32.77741t-10.71569-36.34931q-5.04268-18.27971-9.0348-34.45831-3.99212-16.17859-5.88313-26.47406h27.31451q1.26067 10.08536 3.78201 23.5325 2.52134 13.23703 5.4629 27.52462 3.15168 14.07748 6.51346 27.94485 3.5719 13.65725 6.93369 24.58306 3.36178-10.71569 6.72357-24.37295 3.36179-13.86737 6.30335-27.94485 2.94156-14.28759 5.4629-27.73473t4.20223-23.5325h27.1044q-2.52134 12.6067-6.30335 28.15496-3.5719 15.54826-8.40446 32.77741-4.62246 17.01904-10.29547 34.87853-5.67302 17.64937-11.76625 34.24819h-26.68418z"/></g></svg>
