<?xml version="1.0"?>
<svg width="512" height="512" xmlns="http://www.w3.org/2000/svg" xmlns:svg="http://www.w3.org/2000/svg">
 <g>
  <title>Layer 1</title>
  <path stroke="null" fill="#333333" id="svg_2" d="m438.523158,164.809521l-369.447189,0l57.361841,93.467779l253.107681,0l58.977668,-93.467779l-0.000001,0z"/>
  <path stroke="null" fill="#333333" id="svg_3" d="m445.769554,143.193509l56.829696,-83.257172c0.871936,-1.035266 1.590001,-2.125019 2.205485,-3.269261l1.436129,-2.125019c3.898066,-9.807782 -0.410323,-21.086731 -9.591293,-25.173307c-2.359356,-1.089754 -4.872582,-1.580143 -7.283228,-1.525655l-0.205161,0l-466.024022,0l-0.359032,0l-0.205161,0c-9.745164,0.381414 -17.541296,8.827004 -17.541296,19.288638c0,5.884669 2.513227,11.115486 6.411292,14.657185l54.213889,81.404591l380.112704,0l0,0l-0.000002,0z"/>
  <path stroke="null" fill="#333333" id="svg_4" d="m173.93641,390.444166l61.412965,93.11609c0.793932,2.050354 1.914777,3.850665 3.175727,5.400933c1.681267,2.550441 4.063063,4.700812 7.005281,5.951028c8.406337,3.800657 18.073625,-0.400069 21.576266,-9.351616l64.401885,-95.116436l-157.572125,0l0,0l0.000001,0.000001z"/>
  <path stroke="null" id="svg_5" fill="#333333" d="m375.933458,281.957493l-246.18792,0l38.224119,83.986299l168.662947,0l39.300855,-83.986299l-0.000001,0z"/>
 </g>
</svg>
