<svg width="512" height="512" xmlns="http://www.w3.org/2000/svg">
 <g>
  <title>Layer 1</title>
  <path id="svg_2" d="m438.523158 164.809521h-369.447189l57.361841 93.467779h253.107681l58.977668-93.467779h-1e-6z" fill="#333" stroke="null"/>
  <path id="svg_3" d="m445.769554 143.193509l56.829696-83.257172c0.871936-1.035266 1.590001-2.125019 2.205485-3.269261l1.436129-2.125019c3.898066-9.807782-0.410323-21.086731-9.591293-25.173307-2.359356-1.089754-4.872582-1.580143-7.283228-1.525655h-0.205161-466.024022-0.359032-0.205161c-9.745164 0.381414-17.541296 8.827004-17.541296 19.288638 0 5.884669 2.513227 11.115486 6.411292 14.657185l54.213889 81.404591h380.112704-2e-6z" fill="#333" stroke="null"/>
  <path id="svg_4" d="m173.93641 390.444166l61.412965 93.11609c0.793932 2.050354 1.914777 3.850665 3.175727 5.400933 1.681267 2.550441 4.063063 4.700812 7.005281 5.951028 8.406337 3.800657 18.073625-0.400069 21.576266-9.351616l64.401885-95.116436h-157.572125l1e-6 1e-6z" fill="#333" stroke="null"/>
  <path id="svg_5" d="m375.933458 281.957493h-246.18792l38.224119 83.986299h168.662947l39.300855-83.986299h-1e-6z" fill="#333" stroke="null"/>
 </g>
</svg>
