<svg id="svg3336" width="512" height="512" version="1.1" xmlns="http://www.w3.org/2000/svg">
 <path id="path3365" d="m257.61523 20.996094a230.9653 230.9653 0 0 0 -217.037105 151.970706 230.9653 230.9653 0 0 0 68.576175 255.92578l148.04882-176.43946-0.39648-0.4707-124.71289 148.20508a194.01938 193.46861 0 0 1 -57.605469 -214.37695 194.01938 193.46861 0 0 1 182.318359 -127.296878 194.01938 193.46861 0 0 1 182.32031 127.296878 194.01938 193.46861 0 0 1 -57.33203 214.14453l24.28125 28.9375a230.9653 230.9653 0 0 0 68.57617 -255.92578 230.9653 230.9653 0 0 0 -217.03711 -151.970706zm124.17969 378.958986l-124.17969-147.99219-0.41211 0.49023 124.31836 147.73438a194.01938 193.46861 0 0 0 0.27344 -0.23242z" fill="#fff" fill-opacity=".73333335"/>
 <circle id="path3388" cx="257.21136" cy="253.17349" r="16.555204" fill="#fff"/>
 <path id="path3390" transform="matrix(.14590329 0 0 1.4386782 218.90891 -88.684152)" d="m264.07573 88.025233 42.91799 72.937377 42.91798 72.93737-84.62461 0.69938-84.62462 0.69938 41.70663-73.63676z" fill="#fff"/>
 <path id="path3392" d="M 259.23028,187.35647 256,185.74132" fill="none" stroke="#333" stroke-width="1px"/>
</svg>
