<?xml version="1.0"?>
<svg width="500" height="500" xmlns="http://www.w3.org/2000/svg" xmlns:svg="http://www.w3.org/2000/svg">
 <!-- Created with SVG-edit - http://svg-edit.googlecode.com/ -->
 <g>
  <title>Layer 1</title>
  <rect fill="#ffffff" stroke-width="2" x="42.138086" y="10.247815" width="77.431888" height="77.137354" id="svg_1" stroke="#ffffff"/>
  <rect fill="#ffffff" stroke-width="2" x="136.34688" y="10.247815" width="77.431888" height="77.137354" id="svg_3" stroke="#ffffff"/>
  <rect fill="#ffffff" stroke-width="2" x="230.555675" y="10.247815" width="77.431888" height="77.137354" id="svg_4" stroke="#ffffff"/>
  <rect fill="#ffffff" stroke-width="2" x="324.76447" y="10.247815" width="77.431888" height="77.137354" id="svg_5" stroke="#ffffff"/>
  <rect fill="#ffffff" stroke-width="2" x="418.973264" y="10.247815" width="77.431888" height="77.137354" id="svg_6" stroke="#ffffff"/>
  <rect fill="#ffffff" stroke-width="2" x="42.222477" y="102.812638" width="77.431888" height="77.137354" id="svg_9" stroke="#ffffff"/>
  <rect fill="none" stroke-width="2" x="136.431271" y="102.812638" width="77.431888" height="77.137354" stroke-opacity="0" id="svg_10" stroke="#333333"/>
  <rect fill="#ffffff" stroke-width="2" x="230.640066" y="102.812638" width="77.431888" height="77.137354" id="svg_11" stroke="#ffffff"/>
  <rect fill="none" stroke-width="2" x="324.84886" y="102.812638" width="77.431888" height="77.137354" stroke-opacity="0" id="svg_12" stroke="#333333"/>
  <rect fill="#ffffff" stroke-width="2" x="419.057655" y="102.812638" width="77.431888" height="77.137354" id="svg_14" stroke="#ffffff"/>
  <rect fill="#ffffff" stroke-width="2" x="42.180281" y="195.37746" width="77.431888" height="77.137354" id="svg_16" stroke="#ffffff"/>
  <rect fill="none" stroke-width="2" x="136.389076" y="195.37746" width="77.431888" height="77.137354" stroke-opacity="0" id="svg_17" stroke="#333333"/>
  <rect fill="none" stroke-width="2" x="230.59787" y="195.37746" width="77.431888" height="77.137354" stroke-opacity="0" id="svg_18" stroke="#333333"/>
  <rect fill="none" stroke-width="2" x="324.806665" y="195.37746" width="77.431888" height="77.137354" stroke-opacity="0" id="svg_19" stroke="#333333"/>
  <rect fill="#ffffff" stroke-width="2" x="419.01546" y="195.37746" width="77.431888" height="77.137354" id="svg_20" stroke="#ffffff"/>
  <rect fill="#ffffff" stroke-width="2" x="41.49282" y="288.942211" width="77.431888" height="77.137354" id="svg_21" stroke="#ffffff"/>
  <rect fill="none" stroke-width="2" x="135.701615" y="288.942211" width="77.431888" height="77.137354" stroke-opacity="0" id="svg_22" stroke="#333333"/>
  <rect fill="#ffffff" stroke-width="2" x="229.910409" y="288.942211" width="77.431888" height="77.137354" id="svg_23" stroke="#ffffff"/>
  <rect fill="none" stroke-width="2" x="324.119204" y="288.942211" width="77.431888" height="77.137354" stroke-opacity="0" id="svg_24" stroke="#333333"/>
  <rect fill="#ffffff" stroke-width="2" x="418.327998" y="288.942211" width="77.431888" height="77.137354" id="svg_25" stroke="#ffffff"/>
  <rect fill="#ffffff" stroke-width="2" x="42.138086" y="380.507104" width="77.431888" height="77.137354" id="svg_26" stroke="#ffffff"/>
  <rect fill="#ffffff" stroke-width="2" x="136.34688" y="380.507104" width="77.431888" height="77.137354" id="svg_27" stroke="#ffffff"/>
  <rect fill="#ffffff" stroke-width="2" x="230.555675" y="380.507104" width="77.431888" height="77.137354" id="svg_28" stroke="#ffffff"/>
  <rect fill="#ffffff" stroke-width="2" x="324.76447" y="380.507104" width="77.431888" height="77.137354" id="svg_29" stroke="#ffffff"/>
  <rect fill="#ffffff" stroke-width="2" x="418.973264" y="380.507104" width="77.431888" height="77.137354" id="svg_30" stroke="#ffffff"/>
  <rect fill="#ffffff" stroke-width="2" stroke-dasharray="null" stroke-linejoin="null" stroke-linecap="null" x="1.111111" y="1.333324" width="26.666667" height="496.000009" id="svg_33" stroke="#ffffff"/>
  <rect fill="#ffffff" stroke-width="2" stroke-dasharray="null" stroke-linejoin="null" stroke-linecap="null" x="238.008221" y="236.855971" width="26.666667" height="496.000009" stroke="#ffffff" id="svg_34" transform="rotate(90 251.34155273437497,484.85595703125006) "/>
 </g>
</svg>
