<?xml version="1.0" encoding="UTF-8" standalone="no"?>
<!-- Generator: Adobe Illustrator 16.0.0, SVG Export Plug-In . SVG Version: 6.00 Build 0)  -->

<svg
   xmlns:dc="http://purl.org/dc/elements/1.1/"
   xmlns:cc="http://creativecommons.org/ns#"
   xmlns:rdf="http://www.w3.org/1999/02/22-rdf-syntax-ns#"
   xmlns:svg="http://www.w3.org/2000/svg"
   xmlns="http://www.w3.org/2000/svg"
   xmlns:sodipodi="http://sodipodi.sourceforge.net/DTD/sodipodi-0.dtd"
   xmlns:inkscape="http://www.inkscape.org/namespaces/inkscape"
   version="1.1"
   id="Layer_1"
   x="0px"
   y="0px"
   width="512px"
   height="512px"
   viewBox="0 0 512 512"
   enable-background="new 0 0 512 512"
   xml:space="preserve"
   inkscape:version="0.91 r13725"
   sodipodi:docname="json.svg"><metadata
     id="metadata3412"><rdf:RDF><cc:Work
         rdf:about=""><dc:format>image/svg+xml</dc:format><dc:type
           rdf:resource="http://purl.org/dc/dcmitype/StillImage" /><dc:title></dc:title></cc:Work></rdf:RDF></metadata><defs
     id="defs3410" /><sodipodi:namedview
     pagecolor="#333333"
     bordercolor="#666666"
     borderopacity="1"
     objecttolerance="10"
     gridtolerance="10"
     guidetolerance="10"
     inkscape:pageopacity="0"
     inkscape:pageshadow="2"
     inkscape:window-width="1280"
     inkscape:window-height="752"
     id="namedview3408"
     showgrid="false"
     inkscape:zoom="0.4609375"
     inkscape:cx="582.50847"
     inkscape:cy="254.19642"
     inkscape:window-x="0"
     inkscape:window-y="0"
     inkscape:window-maximized="1"
     inkscape:current-layer="Layer_1" /><g
     transform="scale(1.061704,0.94188211)"
     style="font-style:normal;font-weight:normal;font-size:309.01672363px;line-height:125%;font-family:sans-serif;letter-spacing:0px;word-spacing:0px;fill:#ffffff;fill-opacity:1;stroke:none;stroke-width:1px;stroke-linecap:butt;stroke-linejoin:miter;stroke-opacity:1"
     id="text3416"><path
       d="m 53.050828,274.70046 q 32.446753,6.00866 46.266666,26.4381 14.420776,20.42943 14.420776,58.88484 l 0,67.89784 q 0,25.23636 7.21039,36.65281 7.21039,11.41645 26.4381,11.41645 l 55.88051,0 0,57.68312 -62.49004,0 q -54.077918,0 -75.10822,-23.43377 -20.429437,-23.43377 -20.429437,-67.89783 l 0,-88.32727 q 0,-25.23637 -7.811255,-37.85455 -7.811255,-13.21904 -26.438095,-13.21904 l -32.446752,0 0,-57.68312 32.446752,0 q 18.62684,0 26.438095,-12.61818 7.811255,-13.21905 7.811255,-37.85455 l 0,-88.92813 q 0,-44.46407 20.429437,-67.897836 21.030302,-23.433765 75.10822,-23.433765 l 62.49004,0 0,57.683115 -55.88051,0 q -19.22771,0 -26.4381,11.41645 -7.21039,10.815584 -7.21039,36.652816 l 0,67.89783 q 0,38.45541 -14.420776,58.88485 -13.819913,20.42943 -46.266666,27.63982 z"
       style="font-style:normal;font-variant:normal;font-weight:bold;font-stretch:normal;font-size:600.86578369px;line-height:125%;font-family:'Ubuntu Mono';-inkscape-font-specification:'Ubuntu Mono, Bold';text-align:start;writing-mode:lr-tb;text-anchor:start"
       id="path4350" /><path
       d="M 429.19281,273.49873 Q 396.74606,267.49007 382.32528,247.06064 367.9045,226.6312 367.9045,188.17579 l 0,-67.89783 q 0,-25.236366 -7.21039,-36.652816 -7.21039,-11.41645 -26.43809,-11.41645 l -55.27966,0 0,-57.683115 61.88918,0 q 27.03896,0 45.06493,6.008658 18.62684,6.008658 29.44243,17.425107 11.41645,11.41645 16.22337,28.841558 4.80693,16.824242 4.80693,39.056278 l 0,88.32727 q 0,25.23636 7.81125,38.45541 7.81126,12.61818 26.4381,12.61818 l 33.04762,0 0,57.68312 -33.04762,0 q -18.62684,0 -26.4381,13.21904 -7.81125,12.61818 -7.81125,37.25368 l 0,88.92814 q 0,22.23203 -4.80693,39.05627 -4.80692,17.42511 -16.22337,28.84156 -10.81559,11.41645 -29.44243,17.42511 -18.02597,6.00866 -45.06493,6.00866 l -61.88918,0 0,-57.68312 55.27966,0 q 19.2277,0 26.43809,-11.41645 7.21039,-10.81558 7.21039,-36.65281 l 0,-67.89784 q 0,-38.45541 14.42078,-58.88484 14.42078,-20.42944 46.86753,-27.63983 z"
       style="font-style:normal;font-variant:normal;font-weight:bold;font-stretch:normal;font-size:600.86578369px;line-height:125%;font-family:'Ubuntu Mono';-inkscape-font-specification:'Ubuntu Mono, Bold';text-align:start;writing-mode:lr-tb;text-anchor:start"
       id="path4352" /></g><g
     style="font-style:normal;font-weight:normal;font-size:180px;line-height:125%;font-family:sans-serif;letter-spacing:0px;word-spacing:0px;fill:#333333;fill-opacity:1;stroke:none;stroke-width:1px;stroke-linecap:butt;stroke-linejoin:miter;stroke-opacity:1"
     id="text3420" /><g
     style="font-style:normal;font-weight:normal;font-size:180px;line-height:125%;font-family:sans-serif;letter-spacing:0px;word-spacing:0px;fill:#333333;fill-opacity:1;stroke:none;stroke-width:1px;stroke-linecap:butt;stroke-linejoin:miter;stroke-opacity:1"
     id="text4319" /><g
     transform="scale(0.99087081,1.0092133)"
     style="font-style:normal;font-variant:normal;font-weight:normal;font-stretch:normal;font-size:240.50219727px;line-height:125%;font-family:'Ubuntu Mono';-inkscape-font-specification:'Ubuntu Mono, Normal';text-align:start;letter-spacing:0px;word-spacing:0px;writing-mode:lr-tb;text-anchor:start;fill:#333333;fill-opacity:1;stroke:none;stroke-width:1px;stroke-linecap:butt;stroke-linejoin:miter;stroke-opacity:1"
     id="text4323"><path
       d="m 235.39064,308.01642 q 0,13.70862 -3.36703,22.84771 -3.36703,9.37958 -9.37959,14.91113 -5.77205,5.77205 -13.94913,8.17708 -7.93657,2.40502 -17.31615,2.40502 -11.54411,0 -21.4047,-2.88603 -9.86059,-2.88602 -18.99967,-7.45557 l 9.13908,-25.01222 q 6.01255,3.36703 14.43013,6.25305 8.65808,3.12653 15.63264,3.12653 7.45557,0 11.54411,-4.56954 4.08854,-4.32904 4.08854,-16.35415 l 0,-82.49225 -45.69542,0 0,-24.53123 75.27719,0 0,105.58047 z M 231.7831,169.96816 q 0,8.65807 -5.53155,13.70862 -5.53155,5.05055 -13.22762,5.05055 -7.69607,0 -13.22762,-5.05055 -5.29105,-5.05055 -5.29105,-13.70862 0,-8.89859 5.29105,-13.94913 5.53155,-5.05055 13.22762,-5.05055 7.69607,0 13.22762,5.05055 5.53155,5.05054 5.53155,13.94913 z"
       style="font-style:normal;font-variant:normal;font-weight:bold;font-stretch:normal;font-size:240.50219727px;line-height:125%;font-family:'Ubuntu Mono';-inkscape-font-specification:'Ubuntu Mono, Bold';text-align:start;writing-mode:lr-tb;text-anchor:start;opacity:1;fill:#ffffff;fill-opacity:1"
       id="path4357" /><path
       d="m 314.27536,293.10528 q 10.8226,0 16.59465,-1.44301 5.77205,-1.68352 5.77205,-6.49356 0,-3.12653 -1.92402,-5.29105 -1.68351,-2.16452 -5.05054,-3.60753 -3.12653,-1.68352 -7.45557,-3.12653 -4.08854,-1.44302 -8.65808,-2.88603 -6.49356,-1.92402 -13.22762,-4.32904 -6.73406,-2.64552 -12.26561,-6.49356 -5.53155,-3.84803 -9.13909,-9.62008 -3.60753,-6.01256 -3.60753,-14.91114 0,-7.21507 2.64553,-13.46812 2.88602,-6.49356 8.65808,-11.30361 6.01255,-5.05054 15.15163,-7.69607 9.13909,-2.88602 21.8857,-2.88602 11.0631,0 20.44269,1.68351 9.62009,1.68352 16.59465,4.81005 l -4.56954,25.01222 q -4.08854,-1.20251 -12.74662,-3.84803 -8.65808,-2.88603 -19.48067,-2.88603 -11.30361,0 -15.39214,2.88603 -3.84804,2.64552 -3.84804,5.77205 0,2.64553 1.68352,4.81005 1.92401,1.92401 4.81004,3.60753 3.12653,1.68351 6.97456,3.36703 4.08854,1.44301 8.65808,2.88603 6.49356,2.16452 13.46813,4.81004 6.97456,2.64552 12.50611,6.73406 5.77205,3.84804 9.37959,10.10109 3.60753,6.01256 3.60753,14.91114 0,6.97456 -2.64553,13.22762 -2.64552,6.25306 -8.89858,10.8226 -6.01255,4.56954 -15.87314,7.21506 -9.86059,2.64553 -24.29072,2.64553 -14.67064,0 -25.01223,-3.36703 -10.3416,-3.36703 -16.59465,-6.01256 l 4.56954,-24.77172 q 8.41757,3.36703 17.79716,6.25305 9.62009,2.88603 19.48068,2.88603 z"
       style="font-style:normal;font-variant:normal;font-weight:bold;font-stretch:normal;font-size:240.50219727px;line-height:125%;font-family:'Ubuntu Mono';-inkscape-font-specification:'Ubuntu Mono, Bold';text-align:start;writing-mode:lr-tb;text-anchor:start;opacity:1;fill:#ffffff;fill-opacity:1"
       id="path4359" /></g></svg>
