<svg id="Layer_1" width="512px" height="512px" enable-background="new 0 0 512 512" version="1.1" viewBox="0 0 512 512" xml:space="preserve" xmlns="http://www.w3.org/2000/svg"><g id="text3416" transform="scale(1.061704 .94188211)" fill="#fff" stroke-width="1px"><path id="path4350" d="m53.050828 274.70046q32.446753 6.00866 46.266666 26.4381 14.420776 20.42943 14.420776 58.88484v67.89784q0 25.23636 7.21039 36.65281t26.4381 11.41645h55.88051v57.68312h-62.49004q-54.077918 0-75.10822-23.43377-20.429437-23.43377-20.429437-67.89783v-88.32727q0-25.23637-7.811255-37.85455-7.811255-13.21904-26.438095-13.21904h-32.446752v-57.68312h32.446752q18.62684 0 26.438095-12.61818 7.811255-13.21905 7.811255-37.85455v-88.92813q0-44.46407 20.429437-67.897836 21.030302-23.433765 75.10822-23.433765h62.49004v57.683115h-55.88051q-19.22771 0-26.4381 11.41645-7.21039 10.815584-7.21039 36.652816v67.89783q0 38.45541-14.420776 58.88485-13.819913 20.42943-46.266666 27.63982z"/><path id="path4352" d="m429.19281 273.49873q-32.44675-6.00866-46.86753-26.43809-14.42078-20.42944-14.42078-58.88485v-67.89783q0-25.236366-7.21039-36.652816t-26.43809-11.41645h-55.27966v-57.683115h61.88918q27.03896 0 45.06493 6.008658 18.62684 6.008658 29.44243 17.425107 11.41645 11.41645 16.22337 28.841558 4.80693 16.824242 4.80693 39.056278v88.32727q0 25.23636 7.81125 38.45541 7.81126 12.61818 26.4381 12.61818h33.04762v57.68312h-33.04762q-18.62684 0-26.4381 13.21904-7.81125 12.61818-7.81125 37.25368v88.92814q0 22.23203-4.80693 39.05627-4.80692 17.42511-16.22337 28.84156-10.81559 11.41645-29.44243 17.42511-18.02597 6.00866-45.06493 6.00866h-61.88918v-57.68312h55.27966q19.2277 0 26.43809-11.41645 7.21039-10.81558 7.21039-36.65281v-67.89784q0-38.45541 14.42078-58.88484 14.42078-20.42944 46.86753-27.63983z"/></g><g id="text4323" transform="scale(.99087081 1.0092133)" fill="#fff" stroke-width="1px"><path id="path4357" d="m235.39064 308.01642q0 13.70862-3.36703 22.84771-3.36703 9.37958-9.37959 14.91113-5.77205 5.77205-13.94913 8.17708-7.93657 2.40502-17.31615 2.40502-11.54411 0-21.4047-2.88603-9.86059-2.88602-18.99967-7.45557l9.13908-25.01222q6.01255 3.36703 14.43013 6.25305 8.65808 3.12653 15.63264 3.12653 7.45557 0 11.54411-4.56954 4.08854-4.32904 4.08854-16.35415v-82.49225h-45.69542v-24.53123h75.27719v105.58047zm-3.60754-138.04826q0 8.65807-5.53155 13.70862t-13.22762 5.05055-13.22762-5.05055q-5.29105-5.05055-5.29105-13.70862 0-8.89859 5.29105-13.94913 5.53155-5.05055 13.22762-5.05055t13.22762 5.05055q5.53155 5.05054 5.53155 13.94913z"/><path id="path4359" d="m314.27536 293.10528q10.8226 0 16.59465-1.44301 5.77205-1.68352 5.77205-6.49356 0-3.12653-1.92402-5.29105-1.68351-2.16452-5.05054-3.60753-3.12653-1.68352-7.45557-3.12653-4.08854-1.44302-8.65808-2.88603-6.49356-1.92402-13.22762-4.32904-6.73406-2.64552-12.26561-6.49356-5.53155-3.84803-9.13909-9.62008-3.60753-6.01256-3.60753-14.91114 0-7.21507 2.64553-13.46812 2.88602-6.49356 8.65808-11.30361 6.01255-5.05054 15.15163-7.69607 9.13909-2.88602 21.8857-2.88602 11.0631 0 20.44269 1.68351 9.62009 1.68352 16.59465 4.81005l-4.56954 25.01222q-4.08854-1.20251-12.74662-3.84803-8.65808-2.88603-19.48067-2.88603-11.30361 0-15.39214 2.88603-3.84804 2.64552-3.84804 5.77205 0 2.64553 1.68352 4.81005 1.92401 1.92401 4.81004 3.60753 3.12653 1.68351 6.97456 3.36703 4.08854 1.44301 8.65808 2.88603 6.49356 2.16452 13.46813 4.81004 6.97456 2.64552 12.50611 6.73406 5.77205 3.84804 9.37959 10.10109 3.60753 6.01256 3.60753 14.91114 0 6.97456-2.64553 13.22762-2.64552 6.25306-8.89858 10.8226-6.01255 4.56954-15.87314 7.21506-9.86059 2.64553-24.29072 2.64553-14.67064 0-25.01223-3.36703-10.3416-3.36703-16.59465-6.01256l4.56954-24.77172q8.41757 3.36703 17.79716 6.25305 9.62009 2.88603 19.48068 2.88603z"/></g></svg>
