<!DOCTYPE svg  PUBLIC '-//W3C//DTD SVG 1.1//EN'  'http://www.w3.org/Graphics/SVG/1.1/DTD/svg11.dtd'>
<svg id="Layer_1" enable-background="new 0 0 944.8 212" version="1.1" viewBox="0 0 944.8 212" xml:space="preserve" xmlns="http://www.w3.org/2000/svg">
<polygon points="336.4 81.7 305.6 212 327.4 212 347.1 128.7 347.1 128.7 366.8 212 388.5 212 357.7 81.7" fill="#fff"/>
<polygon points="501.7 81.7 481.8 166 461.8 81.7 440.6 81.7 409.8 212 431.5 212 451.2 128.7 451.2 128.7 470.9 212 470.9 212 492.6 212 492.7 212 512.4 128.7 532 212 553.8 212 523 81.7" fill="#fff"/>
<path d="m222.7 174.8v-93.1h-21.3v93.1c0 20.5 18.5 37.2 41.3 37.2h41.7v-19.2h-41.7c-11.1 0-20-8.1-20-18z" fill="#fff"/>
<path d="m139.1 137.3h-0.6c-11 0-20-8.1-20-18v-0.4c0-10 9-18 20-18v0.1h32.5v-19.3h-32.5v-0.1c-22.7 0-41.1 16.6-41.2 37v0.7c0.1 20.4 18.4 37 41.1 37.1h0.6c11 0 20 8.1 20 18v0.4c0 10-9 18-20 18h-33.1v19.2h33.1c22.7 0 41.1-16.5 41.2-36.9v-0.9c-0.2-20.4-18.5-36.8-41.1-36.9z" fill="#fff"/>
<path d="m636.7 174.8c0 10-9 18-20 18h-20.4v-92h20.4c11 0 20 8.1 20 18h21.3c0-20.5-18.5-37.2-41.3-37.2h-41.6v130.4h41.7c22.8 0 41.3-16.6 41.3-37.2v-55.9h-21.3v55.9z" fill="#FF8500"/>
<polygon points="770.6 100.8 801.4 100.8 801.4 212 822.7 212 822.7 100.8 853.5 100.8 853.5 81.6 770.6 81.6" fill="#FF8500"/>
<polygon points="710.1 81.7 679.2 212 701 212 720.7 128.7 720.7 128.7 740.4 212 762.1 212 731.3 81.7" fill="#FF8500"/>
<polygon points="923.1 212 944.8 212 914 81.7 892.7 81.7 861.9 212 883.7 212 903.4 128.7 903.4 128.7" fill="#FF8500"/>
<path d="m99.8 29.5c5.1 9.7 0.2 28.9 0.2 28.9s-15.1-20.7-25.6-25.3c1.8 3.3 7.1 21.9 7.1 21.9s-50.4-29-81.5-55c27.8 25 61.6 75.7 61.6 75.7s-10.9-1.5-23.6-1.5c3.8 1.9 8.3 5.2 12.8 9.2 2.7 3.2 5.2 7.3 6.7 12.6 4.7 16.8 20.8 15.8 20.8 15.8l1.3-8.5c3.8-15.6 15-28.3 29.8-34.1l5.6-1.9c0-0.1-5.2-24-15.2-37.8z" fill="#FF8500"/>
</svg>
