<?xml version="1.0" encoding="UTF-8" standalone="no"?>
<!-- Generator: Adobe Illustrator 18.1.1, SVG Export Plug-In . SVG Version: 6.00 Build 0)  -->

<svg
   xmlns:dc="http://purl.org/dc/elements/1.1/"
   xmlns:cc="http://creativecommons.org/ns#"
   xmlns:rdf="http://www.w3.org/1999/02/22-rdf-syntax-ns#"
   xmlns:svg="http://www.w3.org/2000/svg"
   xmlns="http://www.w3.org/2000/svg"
   xmlns:sodipodi="http://sodipodi.sourceforge.net/DTD/sodipodi-0.dtd"
   xmlns:inkscape="http://www.inkscape.org/namespaces/inkscape"
   version="1.1"
   id="Layer_1"
   x="0px"
   y="0px"
   viewBox="0 0 1041.8001 212.5"
   enable-background="new 0 0 944.8 212"
   xml:space="preserve"
   inkscape:version="0.91 r13725"
   sodipodi:docname="logo-center.svg"
   width="1041.8"
   height="212.5"><metadata
     id="metadata25"><rdf:RDF><cc:Work
         rdf:about=""><dc:format>image/svg+xml</dc:format><dc:type
           rdf:resource="http://purl.org/dc/dcmitype/StillImage" /><dc:title></dc:title></cc:Work></rdf:RDF></metadata><defs
     id="defs23" /><sodipodi:namedview
     pagecolor="#ffffff"
     bordercolor="#666666"
     borderopacity="1"
     objecttolerance="10"
     gridtolerance="10"
     guidetolerance="10"
     inkscape:pageopacity="0"
     inkscape:pageshadow="2"
     inkscape:window-width="1088"
     inkscape:window-height="500"
     id="namedview21"
     showgrid="false"
     inkscape:zoom="0.65622355"
     inkscape:cx="342.87415"
     inkscape:cy="57.918461"
     inkscape:window-x="0"
     inkscape:window-y="0"
     inkscape:window-maximized="0"
     inkscape:current-layer="Layer_1"
     fit-margin-right="97"
     fit-margin-top="0"
     fit-margin-left="0"
     fit-margin-bottom="0" /><polygon
     points="347.1,128.7 347.1,128.7 366.8,212 388.5,212 357.7,81.7 336.4,81.7 305.6,212 327.4,212 "
     id="polygon3"
     style="fill:#ffffff" /><polygon
     points="440.6,81.7 409.8,212 431.5,212 451.2,128.7 451.2,128.7 470.9,212 470.9,212 492.6,212 492.7,212 512.4,128.7 532,212 553.8,212 523,81.7 501.7,81.7 481.8,166 461.8,81.7 "
     id="polygon5"
     style="fill:#ffffff" /><path
     d="m 222.7,174.8 0,-93.1 -21.3,0 0,93.1 c 0,20.5 18.5,37.2 41.3,37.2 l 41.7,0 0,-19.2 -41.7,0 c -11.1,0 -20,-8.1 -20,-18 z"
     id="path7"
     inkscape:connector-curvature="0"
     style="fill:#ffffff" /><path
     d="m 139.1,137.3 0,0 -0.6,0 c -11,0 -20,-8.1 -20,-18 l 0,-0.4 c 0,-10 9,-18 20,-18 l 0,0.1 32.5,0 0,-19.3 -32.5,0 0,-0.1 c -22.7,0 -41.1,16.6 -41.2,37 l 0,0 0,0.7 0,0 c 0.1,20.4 18.4,37 41.1,37.1 l 0,0 0.6,0 c 11,0 20,8.1 20,18 l 0,0.4 c 0,10 -9,18 -20,18 l -33.1,0 0,19.2 33.1,0 c 22.7,0 41.1,-16.5 41.2,-36.9 l 0,0 0,-0.9 0,0 C 180,153.8 161.7,137.4 139.1,137.3 Z"
     id="path9"
     style="fill:#ffffff"
     inkscape:connector-curvature="0" /><path
     d="m 636.7,174.8 0,0 c 0,10 -9,18 -20,18 l -20.4,0 0,-92 20.4,0 c 11,0 20,8.1 20,18 l 21.3,0 C 658,98.3 639.5,81.6 616.7,81.6 l -41.6,0 0,0.1 0,19.1 0,92 0,19.2 21.3,0 20.4,0 c 22.8,0 41.3,-16.6 41.3,-37.2 l 0,-55.9 -21.3,0 0,55.9 z"
     id="path11"
     inkscape:connector-curvature="0"
     style="fill:#ff8500" /><polygon
     points="822.7,212 822.7,100.8 853.5,100.8 853.5,81.6 770.6,81.6 770.6,100.8 801.4,100.8 801.4,212 "
     id="polygon13"
     style="fill:#ff8500" /><polygon
     points="720.7,128.7 720.7,128.7 740.4,212 762.1,212 731.3,81.7 710.1,81.7 679.2,212 701,212 "
     id="polygon15"
     style="fill:#ff8500" /><polygon
     points="892.7,81.7 861.9,212 883.7,212 903.4,128.7 903.4,128.7 923.1,212 944.8,212 914,81.7 "
     id="polygon17"
     style="fill:#ff8500" /><path
     d="m 99.8,29.5 c 5.1,9.7 0.2,28.9 0.2,28.9 0,0 -15.1,-20.7 -25.6,-25.3 1.8,3.3 7.1,21.9 7.1,21.9 0,0 -50.4,-29 -81.5,-55 27.8,25 61.6,75.7 61.6,75.7 0,0 -10.9,-1.5 -23.6,-1.5 3.8,1.9 8.3,5.2 12.8,9.2 2.7,3.2 5.2,7.3 6.7,12.6 4.7,16.8 20.8,15.8 20.8,15.8 l 1.3,-8.5 C 83.4,87.7 94.6,75 109.4,69.2 l 5.6,-1.9 c 0,-0.1 -5.2,-24 -15.2,-37.8 z"
     id="path19"
     inkscape:connector-curvature="0"
     style="fill:#ff8500" /></svg>