<?xml version="1.0" encoding="UTF-8" standalone="no"?>
<svg
   xmlns:dc="http://purl.org/dc/elements/1.1/"
   xmlns:cc="http://creativecommons.org/ns#"
   xmlns:rdf="http://www.w3.org/1999/02/22-rdf-syntax-ns#"
   xmlns:svg="http://www.w3.org/2000/svg"
   xmlns="http://www.w3.org/2000/svg"
   version="1.1"
   id="svg3336"
   height="512"
   width="512">
  <metadata
     id="metadata4145">
    <rdf:RDF>
      <cc:Work
         rdf:about="">
        <dc:format>image/svg+xml</dc:format>
        <dc:type
           rdf:resource="http://purl.org/dc/dcmitype/StillImage" />
        <dc:title></dc:title>
      </cc:Work>
    </rdf:RDF>
  </metadata>
  <defs
     id="defs4143" />
  <g
     id="flowRoot4147"
     style="font-style:normal;font-weight:normal;font-size:40px;line-height:125%;font-family:sans-serif;letter-spacing:0px;word-spacing:0px;fill:#333333;fill-opacity:1;stroke:none;stroke-width:1px;stroke-linecap:butt;stroke-linejoin:miter;stroke-opacity:1"
     transform="matrix(1.7400194,0,0,1.7400194,-150.00714,-315.57852)">
    <path
       id="path4183"
       style="font-style:normal;font-variant:normal;font-weight:bold;font-stretch:normal;font-size:180px;font-family:'Ubuntu Mono';-inkscape-font-specification:'Ubuntu Mono Bold';fill:#333333"
       d="m 149.0168,261.3332 q -3.24,4.14 -6.66,8.82 -3.42,4.68 -6.84,9.9 -3.24,5.04 -6.3,10.26 -3.06,5.22 -5.4,10.26 l 25.2,0 0,-39.24 z m 22.14,-27.72 0,66.96 12.06,0 0,18.18 -12.06,0 0,26.28 -22.14,0 0,-26.28 -46.44,0 0,-16.2 q 3.42,-7.02 8.82,-15.84 5.4,-9 11.88,-18.36 6.48,-9.36 13.68,-18.36 7.2,-9.18 14.4,-16.38 l 19.8,0 z" />
    <path
       id="path4185"
       style="font-style:normal;font-variant:normal;font-weight:bold;font-stretch:normal;font-size:180px;font-family:'Ubuntu Mono';-inkscape-font-specification:'Ubuntu Mono Bold';fill:#333333"
       d="m 265.8368,262.9532 q 0,5.76 -2.16,11.16 -2.16,5.22 -5.76,10.26 -3.6,5.04 -8.1,9.72 -4.5,4.68 -9.18,9 -2.34,2.16 -5.4,5.22 -3.06,2.88 -5.76,6.12 -2.7,3.06 -4.68,6.3 -1.8,3.24 -1.8,5.94 l 47.88,0 0,18.36 -72.72,0 q -0.54,-1.8 -0.54,-4.5 0.18,-2.7 0.18,-3.78 0,-9 3.24,-16.56 3.42,-7.56 8.46,-13.86 5.22,-6.48 10.98,-11.88 5.94,-5.58 10.98,-10.62 5.22,-5.04 8.46,-9.72 3.42,-4.68 3.42,-9.54 0,-6.84 -4.14,-10.44 -4.14,-3.78 -10.44,-3.78 -5.22,0 -10.98,2.52 -5.76,2.52 -11.34,8.46 l -10.98,-15.48 q 7.2,-7.56 16.56,-11.16 9.54,-3.6 18.9,-3.6 6.84,0 13.14,1.98 6.3,1.98 11.16,5.94 4.86,3.96 7.74,10.08 2.88,5.94 2.88,13.86 z" />
    <path
       id="path4187"
       style="font-style:normal;font-variant:normal;font-weight:bold;font-stretch:normal;font-size:180px;font-family:'Ubuntu Mono';-inkscape-font-specification:'Ubuntu Mono Bold';fill:#333333"
       d="m 294.0968,345.0332 -16.02,0 73.26,-111.42 16.02,0 -73.26,111.42 z m 31.32,-25.56 q 0,-13.68 5.4,-20.7 5.4,-7.2 14.76,-7.2 9.54,0 14.94,7.2 5.4,7.02 5.4,20.7 0,13.68 -5.4,20.88 -5.4,7.02 -14.94,7.02 -9.36,0 -14.76,-7.02 -5.4,-7.2 -5.4,-20.88 z m 26.1,0 q 0,-7.56 -1.8,-10.8 -1.8,-3.24 -4.32,-3.24 -2.52,0 -4.14,3.24 -1.44,3.24 -1.44,10.8 0,7.56 1.44,10.62 1.62,3.06 4.14,3.06 2.52,0 4.32,-3.06 1.8,-3.06 1.8,-10.62 z m -72,-60.48 q 0,-13.68 5.4,-20.7 5.4,-7.2 14.58,-7.2 9.72,0 15.12,7.2 5.4,7.02 5.4,20.7 0,13.68 -5.4,20.88 -5.4,7.2 -15.12,7.2 -9.18,0 -14.58,-7.2 -5.4,-7.2 -5.4,-20.88 z m 25.92,0 q 0,-7.56 -1.8,-10.62 -1.8,-3.24 -4.14,-3.24 -2.52,0 -4.14,3.24 -1.62,3.06 -1.62,10.62 0,7.56 1.62,10.62 1.62,3.06 4.14,3.06 2.34,0 4.14,-3.06 1.8,-3.06 1.8,-10.62 z" />
  </g>
  <flowRoot
     style="fill:#333333;stroke:none;stroke-opacity:1;stroke-width:1px;stroke-linejoin:miter;stroke-linecap:butt;fill-opacity:1;font-family:sans-serif;font-style:normal;font-weight:normal;font-size:40px;line-height:125%;letter-spacing:0px;word-spacing:0px;"
     id="flowRoot4155"
     xml:space="preserve"><flowRegion
       id="flowRegion4157"><rect
         style="fill:#333333;"
         y="317.84677"
         x="31.97818"
         height="131.33894"
         width="455.68906"
         id="rect4159" /></flowRegion><flowPara
       id="flowPara4161"></flowPara></flowRoot>  <g
     id="text4163"
     style="font-style:normal;font-weight:normal;font-size:120.8276062px;line-height:125%;font-family:sans-serif;letter-spacing:0px;word-spacing:0px;fill:#333333;fill-opacity:1;stroke:none;stroke-width:1px;stroke-linecap:butt;stroke-linejoin:miter;stroke-opacity:1">
    <path
       id="path4168"
       style="font-style:normal;font-variant:normal;font-weight:normal;font-stretch:normal;font-family:Ubuntu;-inkscape-font-specification:Ubuntu;fill:#333333"
       d="m 29.467798,323.83902 q 3.866484,-0.96662 10.149519,-2.05407 6.403864,-1.08744 14.740968,-1.08744 6.041381,0 10.149519,1.69158 4.108139,1.57076 6.887174,4.71228 0.845793,-0.60414 2.658207,-1.69159 1.812414,-1.08745 4.470622,-2.05407 2.658207,-1.08745 5.920552,-1.81241 3.262346,-0.84579 7.008001,-0.84579 7.249657,0 11.84111,2.17489 4.59144,2.05407 7.12882,5.92055 2.65821,3.86649 3.50401,9.1829 0.96662,5.31642 0.96662,11.59945 l 0,35.28166 -11.23697,0 0,-32.8651 q 0,-5.55807 -0.60414,-9.54539 -0.48331,-3.98731 -2.05407,-6.64551 -1.44993,-2.65821 -4.108137,-3.86649 -2.53738,-1.3291 -6.645519,-1.3291 -5.678897,0 -9.424553,1.57076 -3.624828,1.44993 -4.953932,2.65821 0.966621,3.14151 1.449932,6.88717 0.48331,3.74565 0.48331,7.85379 l 0,35.28166 -11.236967,0 0,-32.8651 q 0,-5.55807 -0.604138,-9.54539 -0.604138,-3.98731 -2.174897,-6.64551 -1.449932,-2.65821 -4.108139,-3.86649 -2.53738,-1.3291 -6.524691,-1.3291 -1.691586,0 -3.624828,0.12083 -1.933242,0.12082 -3.745656,0.36248 -1.691586,0.12083 -3.141517,0.36248 -1.449932,0.24166 -1.933242,0.36248 l 0,53.04332 -11.236968,0 0,-61.01794 z" />
    <path
       id="path4170"
       style="font-style:normal;font-variant:normal;font-weight:normal;font-stretch:normal;font-family:Ubuntu;-inkscape-font-specification:Ubuntu;fill:#333333"
       d="m 130.03601,353.56261 q 0,-8.3371 2.41655,-14.49931 2.41655,-6.28303 6.40387,-10.39117 3.98731,-4.10814 9.18289,-6.16221 5.19559,-2.05407 10.63283,-2.05407 12.6869,0 19.45325,7.97462 6.76634,7.8538 6.76634,24.0447 0,0.72496 0,1.93324 0,1.08745 -0.12082,2.05407 l -43.01463,0 q 0.72496,9.78703 5.6789,14.86179 4.95393,5.07476 15.46593,5.07476 5.92055,0 9.90786,-0.96662 4.10814,-1.08745 6.16221,-2.05407 l 1.57076,9.42455 q -2.05407,1.08745 -7.24966,2.29573 -5.07476,1.20828 -11.59945,1.20828 -8.21627,0 -14.25765,-2.41656 -5.92056,-2.53738 -9.78704,-6.88717 -3.86648,-4.34979 -5.79973,-10.27035 -1.81241,-6.04138 -1.81241,-13.17021 z m 43.13546,-6.1622 q 0.12082,-7.61214 -3.86649,-12.44525 -3.86648,-4.95393 -10.75365,-4.95393 -3.86649,0 -6.88718,1.57076 -2.89986,1.44993 -4.95393,3.86648 -2.05407,2.41656 -3.26235,5.55807 -1.08744,3.14152 -1.44993,6.40387 l 31.17353,0 z" />
    <path
       id="path4172"
       style="font-style:normal;font-variant:normal;font-weight:normal;font-stretch:normal;font-family:Ubuntu;-inkscape-font-specification:Ubuntu;fill:#333333"
       d="m 222.29922,376.76151 q 3.98731,0 7.008,-0.12082 3.14152,-0.24166 5.19559,-0.72497 l 0,-18.72828 q -1.20828,-0.60414 -3.98731,-0.96662 -2.65821,-0.48331 -6.52469,-0.48331 -2.53738,0 -5.43724,0.36248 -2.77904,0.36249 -5.19559,1.57076 -2.29572,1.08745 -3.86648,3.14152 -1.57076,1.93324 -1.57076,5.19559 0,6.04138 3.86648,8.45793 3.86648,2.29572 10.512,2.29572 z m -0.96662,-56.30566 q 6.76635,0 11.3578,1.81241 4.71227,1.69159 7.49131,4.95394 2.89986,3.14151 4.10814,7.61214 1.20827,4.34979 1.20827,9.6662 l 0,39.26898 q -1.44993,0.24165 -4.10814,0.72496 -2.53738,0.36248 -5.79972,0.72497 -3.26235,0.36248 -7.12883,0.60413 -3.74566,0.36249 -7.49131,0.36249 -5.31642,0 -9.78704,-1.08745 -4.47062,-1.08745 -7.73296,-3.38317 -3.26235,-2.41656 -5.07476,-6.28304 -1.81242,-3.86648 -1.81242,-9.30372 0,-5.19559 2.05407,-8.94125 2.1749,-3.74565 5.79973,-6.04138 3.62483,-2.29572 8.45793,-3.38317 4.8331,-1.08745 10.14952,-1.08745 1.69158,0 3.504,0.24166 1.81241,0.12082 3.38317,0.48331 1.69159,0.24165 2.89986,0.48331 1.20828,0.24165 1.69159,0.36248 l 0,-3.14152 q 0,-2.77903 -0.60414,-5.43724 -0.60414,-2.77904 -2.17489,-4.8331 -1.57076,-2.1749 -4.3498,-3.38318 -2.65821,-1.3291 -7.008,-1.3291 -5.55807,0 -9.78704,0.84579 -4.10813,0.72497 -6.1622,1.57076 l -1.32911,-9.30373 q 2.1749,-0.96662 7.24966,-1.81241 5.07476,-0.96662 10.99531,-0.96662 z" />
    <path
       id="path4174"
       style="font-style:normal;font-variant:normal;font-weight:normal;font-stretch:normal;font-family:Ubuntu;-inkscape-font-specification:Ubuntu;fill:#333333"
       d="m 278.66341,376.76151 q 6.88717,0 10.14952,-1.81241 3.38317,-1.81241 3.38317,-5.79972 0,-4.10814 -3.26234,-6.5247 -3.26235,-2.41655 -10.75366,-5.43724 -3.62483,-1.44993 -7.008,-2.89986 -3.26235,-1.57076 -5.6789,-3.62483 -2.41655,-2.05407 -3.86648,-4.95393 -1.44993,-2.89986 -1.44993,-7.12883 0,-8.3371 6.1622,-13.17021 6.16221,-4.95393 16.79504,-4.95393 2.65821,0 5.31641,0.36248 2.65821,0.24166 4.95394,0.72497 2.29572,0.36248 3.98731,0.84579 1.81241,0.48331 2.77903,0.84579 l -2.05407,9.66621 q -1.81241,-0.96662 -5.67889,-1.93324 -3.86649,-1.08745 -9.30373,-1.08745 -4.71228,0 -8.21628,1.93324 -3.504,1.81242 -3.504,5.79973 0,2.05407 0.72497,3.62483 0.84579,1.57076 2.41655,2.89986 1.69159,1.20828 4.10814,2.29573 2.41655,1.08744 5.79972,2.29572 4.47063,1.69159 7.97463,3.38317 3.504,1.57076 5.92055,3.74566 2.53738,2.1749 3.86648,5.31641 1.32911,3.02069 1.32911,7.49131 0,8.69959 -6.5247,13.17021 -6.40386,4.47063 -18.36579,4.47063 -8.33711,0 -13.04938,-1.44994 -4.71228,-1.3291 -6.40387,-2.05407 l 2.05407,-9.6662 q 1.93325,0.72496 6.16221,2.17489 4.22897,1.44993 11.23697,1.44993 z" />
    <path
       id="path4176"
       style="font-style:normal;font-variant:normal;font-weight:normal;font-stretch:normal;font-family:Ubuntu;-inkscape-font-specification:Ubuntu;fill:#333333"
       d="m 367.87193,383.04455 q -3.86649,0.96662 -10.27035,2.05407 -6.28303,1.08745 -14.62014,1.08745 -7.24966,0 -12.20359,-2.05407 -4.95393,-2.1749 -7.97462,-6.04138 -3.02069,-3.86649 -4.34979,-9.06207 -1.32911,-5.31642 -1.32911,-11.72028 l 0,-35.28166 11.23697,0 0,32.86511 q 0,11.47862 3.62483,16.43255 3.62483,4.95393 12.20359,4.95393 1.81241,0 3.74565,-0.12082 1.93324,-0.12083 3.62483,-0.24166 1.69159,-0.24165 3.02069,-0.36248 1.44993,-0.24166 2.05407,-0.48331 l 0,-53.04332 11.23697,0 0,61.01794 z" />
    <path
       id="path4178"
       style="font-style:normal;font-variant:normal;font-weight:normal;font-stretch:normal;font-family:Ubuntu;-inkscape-font-specification:Ubuntu;fill:#333333"
       d="m 410.4297,320.69751 q 1.44993,0 3.26234,0.24165 1.93325,0.12083 3.74566,0.48331 1.81241,0.24166 3.26235,0.60414 1.57075,0.24165 2.29572,0.48331 l -1.93324,9.78704 q -1.3291,-0.48332 -4.47062,-1.08745 -3.02069,-0.72497 -7.8538,-0.72497 -3.14151,0 -6.28303,0.72497 -3.02069,0.60413 -3.98731,0.84579 l 0,52.80166 -11.23697,0 0,-60.17214 q 3.98731,-1.44994 9.90786,-2.65821 5.92056,-1.3291 13.29104,-1.3291 z" />
    <path
       id="path4180"
       style="font-style:normal;font-variant:normal;font-weight:normal;font-stretch:normal;font-family:Ubuntu;-inkscape-font-specification:Ubuntu;fill:#333333"
       d="m 430.45309,353.56261 q 0,-8.3371 2.41655,-14.49931 2.41655,-6.28303 6.40386,-10.39117 3.98731,-4.10814 9.1829,-6.16221 5.19559,-2.05407 10.63283,-2.05407 12.6869,0 19.45324,7.97462 6.76635,7.8538 6.76635,24.0447 0,0.72496 0,1.93324 0,1.08745 -0.12083,2.05407 l -43.01463,0 q 0.72497,9.78703 5.6789,14.86179 4.95393,5.07476 15.46594,5.07476 5.92055,0 9.90786,-0.96662 4.10814,-1.08745 6.16221,-2.05407 l 1.57076,9.42455 q -2.05407,1.08745 -7.24966,2.29573 -5.07476,1.20828 -11.59945,1.20828 -8.21628,0 -14.25766,-2.41656 -5.92055,-2.53738 -9.78703,-6.88717 -3.86649,-4.34979 -5.79973,-10.27035 -1.81241,-6.04138 -1.81241,-13.17021 z m 43.13545,-6.1622 q 0.12083,-7.61214 -3.86648,-12.44525 -3.86649,-4.95393 -10.75366,-4.95393 -3.86648,0 -6.88717,1.57076 -2.89986,1.44993 -4.95393,3.86648 -2.05407,2.41656 -3.26235,5.55807 -1.08745,3.14152 -1.44993,6.40387 l 31.17352,0 z" />
  </g>
</svg>
