<!DOCTYPE svg  PUBLIC '-//W3C//DTD SVG 1.1//EN'  'http://www.w3.org/Graphics/SVG/1.1/DTD/svg11.dtd'>
<svg id="Layer_1" width="512px" height="512px" enable-background="new 0 0 512 512" version="1.1" viewBox="0 0 512 512" xml:space="preserve" xmlns="http://www.w3.org/2000/svg">
<path d="m242.563 263.594l127.625 221.063c-34.313 17.094-72.844 26.938-113.781 26.938-141.375 0-256-114.625-256-256 0-135.969 106.094-246.875 240-255.188v255.188c-1e-3 2.749 0.718 5.499 2.156 7.999zm269.031-24h-239.188v-239.188c128.563 7.969 231.219 110.625 239.188 239.188zm-207.188-32h170.5c-18.594-84.969-85.531-151.906-170.5-170.5v170.5zm93.563 261.219c64.781-43.094 108.531-114.907 113.625-197.219h-227.469l113.844 197.219z" fill="#888" stroke="#888"/>
</svg>
