<?xml version="1.0" encoding="utf-8"?>
<!-- Generator: Adobe Illustrator 16.0.0, SVG Export Plug-In . SVG Version: 6.00 Build 0)  -->
<!DOCTYPE svg PUBLIC "-//W3C//DTD SVG 1.1//EN" "http://www.w3.org/Graphics/SVG/1.1/DTD/svg11.dtd">
<svg version="1.1"
     id="Layer_1"
     xmlns="http://www.w3.org/2000/svg"
     xmlns:xlink="http://www.w3.org/1999/xlink"
     x="0px"
     y="0px"
     width="512px"
     height="512px"
     viewBox="0 0 512 512"
     enable-background="new 0 0 512 512"
     xml:space="preserve">
  <path d="M242.563,263.594l127.625,221.063c-34.313,17.094-72.844,26.938-113.781,26.938c-141.375,0-256-114.625-256-256
        c0-135.969,106.094-246.875,240-255.188v255.188C240.406,258.344,241.125,261.094,242.563,263.594z M511.594,239.594H272.406V0.406
        C400.969,8.375,503.625,111.031,511.594,239.594z M304.406,207.594h170.5c-18.594-84.969-85.531-151.906-170.5-170.5V207.594z
        M397.969,468.813C462.75,425.719,506.5,353.906,511.594,271.594H284.125L397.969,468.813z"
        fill="#333333"
        stroke="#333333"/>
</svg>
