<svg id="Layer_1" width="512px" height="512px" enable-background="new 0 0 512 512" version="1.1" viewBox="0 0 512 512" xml:space="preserve" xmlns="http://www.w3.org/2000/svg"><rect id="rect4714" y="480" width="512" height="32" fill="#333"/><rect id="rect4716" y="448" width="32" height="64" fill="#333"/><rect id="rect4716-3" x="64" y="448" width="32" height="64" fill="#333"/><rect id="rect4716-1" x="128" y="448" width="32" height="64" fill="#333"/><rect id="rect4716-39" x="192" y="448" width="32" height="64" fill="#333"/><rect id="rect4716-9" x="256" y="448" width="32" height="64" fill="#333"/><rect id="rect4716-3-4" x="320" y="448" width="32" height="64" fill="#333"/><rect id="rect4716-1-7" x="384" y="448" width="32" height="64" fill="#333"/><rect id="rect4716-39-7" x="448" y="448" width="32" height="64" fill="#333"/><circle id="path4769" cx="43.305992" cy="353.61514" r="32" fill="#333"/><circle id="path4769-0" cx="155.306" cy="353.61514" r="48" fill="#333"/><circle id="path4769-0-2" cx="339.306" cy="353.61514" r="16" fill="#333"/><circle id="path4769-0-25" cx="451.306" cy="353.61514" r="48" fill="#333"/><circle id="path4769-0-6" cx="144" cy="208" r="35.078865" fill="#333"/><circle id="path4769-0-2-7" cx="328" cy="208" r="16" fill="#333"/><circle id="path4769-0-25-5" cx="440" cy="208" r="48" fill="#333"/><circle id="path4769-01-4" cx="44.807571" cy="83.987381" r="32" fill="#333"/><circle id="path4769-0-6-2" cx="204.92114" cy="79.305992" r="64" fill="#333"/><circle id="path4769-0-2-7-9" cx="340.80759" cy="83.987381" r="16" fill="#333"/><circle id="path4769-0-25-5-8" cx="452.80759" cy="83.987381" r="38.309147" fill="#333"/><circle id="path4769-0-2-7-9-1" cx="108.21451" cy="83.987381" r="16" fill="#333"/><circle id="path4769-0-2-7-5" cx="32.302834" cy="208" r="16" fill="#333"/><circle id="path4769-0-2-7-0" cx="226.11986" cy="208" r="16" fill="#333"/><circle id="path4769-0-2-7-06" cx="281.0347" cy="208" r="11.154574" fill="#333"/></svg>
