<?xml version="1.0" encoding="UTF-8" standalone="no"?>
<svg
   xmlns:svg="http://www.w3.org/2000/svg"
   xmlns="http://www.w3.org/2000/svg"
   width="512"
   height="512">
  <rect
     style="fill:#333333;stroke:none"
     id="rect3364"
     width="36"
     height="220"
     x="168.33899"
     y="38.508472" />
  <rect
     style="fill:#333333;stroke:none"
     id="rect3366"
     width="36"
     height="200"
     x="168.33897"
     y="274.33899" />
  <rect
     style="fill:#333333;stroke:none"
     id="rect3370"
     width="52"
     height="440"
     x="30.372877"
     y="35.118633" />
  <rect
     style="fill:#333333;stroke:none"
     id="rect3372"
     width="36"
     height="108.47458"
     x="295.05084"
     y="34.711864" />
  <rect
     style="fill:#333333;stroke:none"
     id="rect3374"
     width="36"
     height="125.83051"
     x="292.88138"
     y="164.88136" />
  <rect
     style="fill:#333333;stroke:none"
     id="rect3376"
     width="36"
     height="153.49152"
     x="292.88135"
     y="318.91525" />
  <rect
     style="fill:#333333;stroke:none"
     id="rect3378"
     width="36"
     height="84.610168"
     x="418.71185"
     y="36.881355" />
  <rect
     style="fill:#333333;stroke:none"
     id="rect3380"
     width="36"
     height="78.101692"
     x="416.54239"
     y="145.35593" />
  <rect
     style="fill:#333333;stroke:none"
     id="rect3382"
     width="36"
     height="60.745762"
     x="412.20337"
     y="251.66101" />
  <rect
     style="fill:#333333;stroke:none"
     id="rect3384"
     width="36"
     height="130.16949"
     x="414.37289"
     y="338.44067" />
  <path
     style="fill:#333333;fill-rule:evenodd;stroke:none;stroke-width:1px;stroke-linecap:butt;stroke-linejoin:miter;stroke-opacity:1;fill-opacity:0.4"
     d="m 82.983051,36.881355 87.322029,2.711865 -0.54237,218.57627 -87.864405,8.13559 z"
     id="path3386"/>

  <path
     style="fill:#333333;fill-opacity:0.7473684;fill-rule:evenodd;stroke:none;stroke-width:1px;stroke-linecap:butt;stroke-linejoin:miter;stroke-opacity:1;fill-opacity:0.2"
     d="m 78.156206,266.08043 92.148884,8.08906 0.13559,200.1356 -89.491527,0.67796 z"
     id="path3390" />
  <path
     style="fill:#333333;fill-opacity:0.7473684;fill-rule:evenodd;stroke:none;stroke-width:1px;stroke-linecap:butt;stroke-linejoin:miter;fill-opacity:0.2"
     d="m 203.38983,38.508474 93.28814,-3.79661 -1.08475,108.338986 -92.47458,19.11864 z"
     id="path3392" />
  <path
     style="fill:#333333;fill-opacity:0.7473684;fill-rule:evenodd;stroke:none;stroke-width:1px;stroke-linecap:butt;stroke-linejoin:miter;fill-opacity:0.2"
     d="m 203.93221,161.62712 91.9322,3.38983 -2.57628,125.69492 -90.98305,-32.81356 z"
     id="path3394" />

  <path
     style="fill:#333333;fill-opacity:0.7473684;fill-rule:evenodd;stroke:none;stroke-width:1px;stroke-linecap:butt;stroke-linejoin:miter;fill-opacity:0.2"
     d="m 203.11865,274.71186 91.66101,45.01695 0.27119,152.67797 -92.74576,1.62712 z"
     id="path3396" />
  <path
     style="fill:#333333;fill-opacity:0.7473684;fill-rule:evenodd;stroke:none;stroke-width:1px;stroke-linecap:butt;stroke-linejoin:miter;fill-opacity:0.2"
     d="m 330.71187,34.983051 90.16948,2.033897 -1.49152,84.203392 -89.22034,21.96611 z"
     id="path3398" />

  <path
     style="fill:#333333;fill-opacity:0.7473684;fill-rule:evenodd;stroke:none;stroke-width:1px;stroke-linecap:butt;stroke-linejoin:miter;fill-opacity:0.2"
     d="m 328.27118,165.15254 88.67797,-19.66102 0.94915,77.69492 -89.22033,11.66102 z"
     id="path3400" />
  <path
     style="fill:#333333;fill-opacity:0.7473684;fill-rule:evenodd;stroke:none;stroke-width:1px;stroke-linecap:butt;stroke-linejoin:miter;fill-opacity:0.2"
     d="m 327.86441,235.38983 85.83051,16.27119 -1.08475,60.61017 -86.1017,-21.9661 z"
     id="path3402" />
  <path
     style="fill:#333333;fill-opacity:0.7473684;fill-rule:evenodd;stroke:none;stroke-width:1px;stroke-linecap:butt;stroke-linejoin:miter;fill-opacity:0.2"
     d="m 327.86441,318.77966 86.91525,19.9322 1.22034,129.89831 -89.08474,3.7966 z"
     id="path3404" />
</svg>
