<svg width="512" height="512" xmlns="http://www.w3.org/2000/svg">
 <rect id="rect3364" x="168.33899" y="38.508472" width="36" height="220" fill="#333"/>
 <rect id="rect3366" x="168.33897" y="274.33899" width="36" height="200" fill="#333"/>
 <rect id="rect3370" x="30.372877" y="35.118633" width="52" height="440" fill="#333"/>
 <rect id="rect3372" x="295.05084" y="34.711864" width="36" height="108.47458" fill="#333"/>
 <rect id="rect3374" x="292.88138" y="164.88136" width="36" height="125.83051" fill="#333"/>
 <rect id="rect3376" x="292.88135" y="318.91525" width="36" height="153.49152" fill="#333"/>
 <rect id="rect3378" x="418.71185" y="36.881355" width="36" height="84.610168" fill="#333"/>
 <rect id="rect3380" x="416.54239" y="145.35593" width="36" height="78.101692" fill="#333"/>
 <rect id="rect3382" x="412.20337" y="251.66101" width="36" height="60.745762" fill="#333"/>
 <rect id="rect3384" x="414.37289" y="338.44067" width="36" height="130.16949" fill="#333"/>
 <path id="path3386" d="m82.983051 36.881355 87.322029 2.711865-0.54237 218.57627-87.864405 8.13559z" fill="#333" fill-opacity=".4" fill-rule="evenodd"/>
 <path id="path3390" d="m78.156206 266.08043 92.148884 8.08906 0.13559 200.1356-89.491527 0.67796z" fill="#333" fill-opacity=".2" fill-rule="evenodd"/>
 <path id="path3392" d="m203.38983 38.508474 93.28814-3.79661-1.08475 108.338986-92.47458 19.11864z" fill="#333" fill-opacity=".2" fill-rule="evenodd"/>
 <path id="path3394" d="m203.93221 161.62712 91.9322 3.38983-2.57628 125.69492-90.98305-32.81356z" fill="#333" fill-opacity=".2" fill-rule="evenodd"/>
 <path id="path3396" d="m203.11865 274.71186 91.66101 45.01695 0.27119 152.67797-92.74576 1.62712z" fill="#333" fill-opacity=".2" fill-rule="evenodd"/>
 <path id="path3398" d="m330.71187 34.983051 90.16948 2.033897-1.49152 84.203392-89.22034 21.96611z" fill="#333" fill-opacity=".2" fill-rule="evenodd"/>
 <path id="path3400" d="m328.27118 165.15254 88.67797-19.66102 0.94915 77.69492-89.22033 11.66102z" fill="#333" fill-opacity=".2" fill-rule="evenodd"/>
 <path id="path3402" d="m327.86441 235.38983 85.83051 16.27119-1.08475 60.61017-86.1017-21.9661z" fill="#333" fill-opacity=".2" fill-rule="evenodd"/>
 <path id="path3404" d="m327.86441 318.77966 86.91525 19.9322 1.22034 129.89831-89.08474 3.7966z" fill="#333" fill-opacity=".2" fill-rule="evenodd"/>
</svg>
