<?xml version="1.0" encoding="UTF-8" standalone="no"?>
<!-- Generator: Adobe Illustrator 16.0.0, SVG Export Plug-In . SVG Version: 6.00 Build 0)  -->

<svg
   xmlns:dc="http://purl.org/dc/elements/1.1/"
   xmlns:cc="http://creativecommons.org/ns#"
   xmlns:rdf="http://www.w3.org/1999/02/22-rdf-syntax-ns#"
   xmlns:svg="http://www.w3.org/2000/svg"
   xmlns="http://www.w3.org/2000/svg"
   xmlns:sodipodi="http://sodipodi.sourceforge.net/DTD/sodipodi-0.dtd"
   xmlns:inkscape="http://www.inkscape.org/namespaces/inkscape"
   version="1.1"
   id="Layer_1"
   x="0px"
   y="0px"
   width="367.85837"
   height="346.28925"
   viewBox="0 0 367.85837 346.28925"
   enable-background="new 0 0 400 400"
   xml:space="preserve"
   inkscape:version="0.91 r13725"
   sodipodi:docname="heatmap.svg"><metadata
     id="metadata101"><rdf:RDF><cc:Work
         rdf:about=""><dc:format>image/svg+xml</dc:format><dc:type
           rdf:resource="http://purl.org/dc/dcmitype/StillImage" /><dc:title></dc:title></cc:Work></rdf:RDF></metadata><defs
     id="defs99"><filter
       inkscape:collect="always"
       style="color-interpolation-filters:sRGB"
       id="filter7145"
       x="-0.011129476"
       width="1.022259"
       y="-0.01301826"
       height="1.0260365"><feGaussianBlur
         inkscape:collect="always"
         stdDeviation="0.86678227"
         id="feGaussianBlur7147" /></filter></defs><sodipodi:namedview
     pagecolor="#ffffff"
     bordercolor="#666666"
     borderopacity="1"
     objecttolerance="10"
     gridtolerance="10"
     guidetolerance="10"
     inkscape:pageopacity="0"
     inkscape:pageshadow="2"
     inkscape:window-width="1536"
     inkscape:window-height="801"
     id="namedview97"
     showgrid="false"
     fit-margin-top="0"
     fit-margin-left="0"
     fit-margin-right="0"
     fit-margin-bottom="0"
     inkscape:zoom="0.834386"
     inkscape:cx="80.117459"
     inkscape:cy="139.76876"
     inkscape:window-x="-8"
     inkscape:window-y="-8"
     inkscape:window-maximized="1"
     inkscape:current-layer="Layer_1" /><g
     id="g85"
     transform="translate(-25.994625,-21.845)"
     style="fill:#333333"><path
       d="m 212.338,214.682 -12.226,12.227 -9.495,9.494 -6.863,6.862 c -0.011,-0.044 -0.021,-0.076 -0.021,-0.076 0,0 -2.259,2.769 -6.391,1.66 0,0 0,0.023 0,0.037 l -17.64,-4.727 c -4.391,-1.179 -5.715,-5.671 -5.733,-5.731 l -4.74,-17.692 c -0.839,-3.141 0.553,-5.193 1.272,-6.002 l 7.223,-7.223 9.494,-9.494 12.306,-12.306 c 2.927,-2.926 -0.312,-4.452 -0.42,-4.503 -17.071,-4.231 -35.869,0.309 -49.213,13.651 -13.062,13.062 -17.685,31.353 -13.9,48.134 l -0.005,-0.001 c 0,0 1,4.635 -3.958,9.593 L 32.104,328.51 c -8.146,8.146 -8.146,21.354 10e-4,29.501 l 4.013,4.013 c 8.148,8.147 21.355,8.147 29.501,0 l 80.973,-80.972 c 3.729,-3.138 7.074,-3.115 8.138,-3.008 16.891,3.949 35.372,-0.641 48.539,-13.809 13.352,-13.351 17.889,-32.162 13.645,-49.24 -0.228,-0.416 -1.827,-3.063 -4.576,-0.313 z M 54.391,350.323 c -2.923,2.923 -7.663,2.923 -10.584,0 -2.924,-2.923 -2.924,-7.662 0,-10.585 2.921,-2.923 7.661,-2.923 10.584,0 2.923,2.922 2.923,7.662 0,10.585 z"
       id="path87"
       inkscape:connector-curvature="0"
       style="fill:#ffffff;fill-opacity:1" /><path
       d="m 390.354,186.458 -187.263,0 c -0.929,0 -1.818,0.369 -2.475,1.025 l -11.523,11.523 -17.388,-4.66 -15.938,15.939 5.833,21.77 21.77,5.834 15.938,-15.938 -4.916,-18.347 10.147,-10.147 185.814,0 c 1.933,0 3.5,-1.567 3.5,-3.5 0,-1.933 -1.566,-3.499 -3.499,-3.499 z m -212.817,40.271 c -5.858,0 -10.61,-4.75 -10.61,-10.61 0,-5.859 4.752,-10.609 10.61,-10.609 5.86,0 10.61,4.75 10.61,10.609 0,5.86 -4.75,10.609 -10.61,10.61 z"
       id="path89"
       inkscape:connector-curvature="0"
       style="fill:#ffffff;fill-opacity:1" /></g><path
     style="opacity:0.98000004;fill:#ffffff;fill-opacity:0.80000001;stroke:none;stroke-width:0.80699998;stroke-linecap:round;stroke-linejoin:round;stroke-miterlimit:4;stroke-dasharray:none;stroke-opacity:1;filter:url(#filter7145)"
     d="m 319.19664,9.044042 a 46,46 0 0 0 -45.61524,40.386719 63.864407,63.864407 0 0 0 -31.43555,-8.318359 63.864407,63.864407 0 0 0 -63.86523,63.863278 63.864407,63.864407 0 0 0 63.86523,63.86525 63.864407,63.864407 0 0 0 63.86329,-63.86525 63.864407,63.864407 0 0 0 -0.33594,-5.968747 46,46 0 0 0 13.52344,2.037107 46,46 0 0 0 46,-45.999998 46,46 0 0 0 -46,-46 z"
     id="path7061"
     inkscape:connector-curvature="0" /><circle
     style="opacity:0.98000004;fill:#ffffff;fill-opacity:0.80000001;stroke:none;stroke-width:0.80699998;stroke-linecap:round;stroke-linejoin:round;stroke-miterlimit:4;stroke-dasharray:none;stroke-opacity:1"
     id="path7061-4"
     cx="307.84042"
     cy="71.484306"
     r="16" /><path
     style="opacity:0.98000004;fill:#ffffff;fill-opacity:0.80000001;stroke:none;stroke-width:0.80699998;stroke-linecap:round;stroke-linejoin:round;stroke-miterlimit:4;stroke-dasharray:none;stroke-opacity:1"
     d="m 234.21385,73.925299 a 27.118643,20.338984 0 0 0 -27.11914,20.337891 27.118643,20.338984 0 0 0 15.31836,18.28515 27.118643,20.338984 0 0 0 -1.75977,7.13867 27.118643,20.338984 0 0 0 27.11914,20.33985 27.118643,20.338984 0 0 0 27.11914,-20.33985 27.118643,20.338984 0 0 0 -15.32031,-18.28319 27.118643,20.338984 0 0 0 1.75977,-7.14063 27.118643,20.338984 0 0 0 -27.11719,-20.337891 z"
     id="path7061-4-5"
     inkscape:connector-curvature="0" /><rect
     style="opacity:0.955;fill:none;fill-opacity:0.8;stroke:#ffffff;stroke-width:6.27881622;stroke-linecap:round;stroke-linejoin:miter;stroke-miterlimit:4;stroke-dasharray:none;stroke-opacity:1"
     id="rect7127"
     width="184.46693"
     height="159.86572"
     x="178.80757"
     y="7.2399759" /><path
     style="fill:none;fill-rule:evenodd;stroke:#ffffff;stroke-width:4;stroke-linecap:butt;stroke-linejoin:miter;stroke-opacity:1;stroke-miterlimit:4;stroke-dasharray:none;opacity:0.955"
     d="m 292.4306,9.5146599 -15.58032,67.1152201 14.38184,86.291 0,4.79394"
     id="path7135"
     inkscape:connector-curvature="0" /><path
     style="fill:none;fill-rule:evenodd;stroke:#ffffff;stroke-width:4;stroke-linecap:butt;stroke-linejoin:miter;stroke-opacity:1;stroke-miterlimit:4;stroke-dasharray:none;opacity:0.955"
     d="m 275.6518,79.026852 -94.6804,3.595458 0,0"
     id="path7137"
     inkscape:connector-curvature="0" /><path
     style="fill:none;fill-rule:evenodd;stroke:#ffffff;stroke-width:4;stroke-linecap:butt;stroke-linejoin:miter;stroke-opacity:1;stroke-miterlimit:4;stroke-dasharray:none;opacity:0.955"
     d="m 278.04877,79.026852 82.69554,16.778805"
     id="path7139"
     inkscape:connector-curvature="0" /></svg>