<svg xmlns:x="http://ns.adobe.com/Extensibility/1.0/" xmlns:i="http://ns.adobe.com/AdobeIllustrator/10.0/" xmlns:graph="http://ns.adobe.com/Graphs/1.0/" xmlns="http://www.w3.org/2000/svg" xmlns:xlink="http://www.w3.org/1999/xlink" version="1.1" x="0px" y="0px" viewBox="0 0 64 80" enable-background="new 0 0 64 64" xml:space="preserve"><metadata><sfw xmlns="http://ns.adobe.com/SaveForWeb/1.0/"><slices/><sliceSourceBounds y="-8160" x="-8165" width="16389" height="16384" bottomLeftOrigin="true"/></sfw></metadata><g><path d="M44.909,14.221c-0.668-0.341-1.475-0.277-2.084,0.165L22.001,29.53V16.003c0-1.104-0.896-2-2-2s-2,0.896-2,2v32   c0,1.104,0.896,2,2,2s2-0.896,2-2V34.476L42.825,49.62c0.349,0.254,0.762,0.383,1.177,0.383c0.31,0,0.621-0.072,0.907-0.218   c0.671-0.342,1.093-1.03,1.093-1.782v-32C46.002,15.25,45.58,14.562,44.909,14.221z M42.002,44.075l-16.6-12.072l16.6-12.073   V44.075z"/></g><text x="0" y="79" fill="#000000" font-size="5px" font-weight="bold" font-family="'Helvetica Neue', Helvetica, Arial-Unicode, Arial, Sans-serif">Created by Ralf Schmitzer</text><text x="0" y="84" fill="#000000" font-size="5px" font-weight="bold" font-family="'Helvetica Neue', Helvetica, Arial-Unicode, Arial, Sans-serif">from the Noun Project</text></svg>