<svg xmlns:x="http://ns.adobe.com/Extensibility/1.0/" xmlns:i="http://ns.adobe.com/AdobeIllustrator/10.0/" xmlns:graph="http://ns.adobe.com/Graphs/1.0/" xmlns="http://www.w3.org/2000/svg" xmlns:xlink="http://www.w3.org/1999/xlink" version="1.1" x="0px" y="0px" viewBox="0 0 64 80" enable-background="new 0 0 64 64" xml:space="preserve"><metadata><sfw xmlns="http://ns.adobe.com/SaveForWeb/1.0/"><slices/><sliceSourceBounds y="-8160" x="-8165" width="16389" height="16384" bottomLeftOrigin="true"/></sfw></metadata><g><path d="M56.907,14.218c-0.669-0.341-1.475-0.278-2.084,0.165L34,29.527V16c0-0.752-0.422-1.441-1.092-1.782   c-0.67-0.34-1.476-0.277-2.084,0.165l-22,16C8.306,30.759,8,31.36,8,32s0.306,1.241,0.824,1.617l22,16   C31.172,49.871,31.585,50,32,50c0.31,0,0.621-0.072,0.908-0.218C33.578,49.44,34,48.752,34,48V34.473l20.823,15.145   C55.172,49.871,55.585,50,56,50c0.31,0,0.621-0.072,0.907-0.218C57.578,49.44,58,48.752,58,48V16   C58,15.248,57.578,14.559,56.907,14.218z M30,44.072L13.4,32L30,19.928V44.072z M54,44.072L37.4,32L54,19.928V44.072z"/></g><text x="0" y="79" fill="#000000" font-size="5px" font-weight="bold" font-family="'Helvetica Neue', Helvetica, Arial-Unicode, Arial, Sans-serif">Created by Ralf Schmitzer</text><text x="0" y="84" fill="#000000" font-size="5px" font-weight="bold" font-family="'Helvetica Neue', Helvetica, Arial-Unicode, Arial, Sans-serif">from the Noun Project</text></svg>