<svg xmlns:x="http://ns.adobe.com/Extensibility/1.0/" xmlns:i="http://ns.adobe.com/AdobeIllustrator/10.0/" xmlns:graph="http://ns.adobe.com/Graphs/1.0/" xmlns="http://www.w3.org/2000/svg" xmlns:xlink="http://www.w3.org/1999/xlink" version="1.1" x="0px" y="0px" viewBox="0 0 64 80" enable-background="new 0 0 64 64" xml:space="preserve"><metadata><sfw xmlns="http://ns.adobe.com/SaveForWeb/1.0/"><slices/><sliceSourceBounds y="-8160" x="-8165" width="16389" height="16384" bottomLeftOrigin="true"/></sfw></metadata><g><path d="M55.177,30.382l-22-16c-0.609-0.443-1.415-0.505-2.084-0.165C30.422,14.559,30,15.248,30,16v13.527L9.176,14.382   c-0.608-0.443-1.414-0.505-2.084-0.165C6.422,14.559,6,15.248,6,16v32c0,0.752,0.422,1.44,1.092,1.782C7.379,49.928,7.69,50,8,50   c0.415,0,0.828-0.129,1.176-0.383L30,34.473V48c0,0.752,0.422,1.44,1.092,1.782C31.379,49.928,31.69,50,32,50   c0.415,0,0.828-0.129,1.177-0.383l22-16C55.693,33.241,56,32.64,56,32S55.693,30.759,55.177,30.382z M10,44.072V19.928L26.6,32   L10,44.072z M34,44.072V19.928L50.6,32L34,44.072z"/></g><text x="0" y="79" fill="#000000" font-size="5px" font-weight="bold" font-family="'Helvetica Neue', Helvetica, Arial-Unicode, Arial, Sans-serif">Created by Ralf Schmitzer</text><text x="0" y="84" fill="#000000" font-size="5px" font-weight="bold" font-family="'Helvetica Neue', Helvetica, Arial-Unicode, Arial, Sans-serif">from the Noun Project</text></svg>