<svg xmlns:x="http://ns.adobe.com/Extensibility/1.0/" xmlns:i="http://ns.adobe.com/AdobeIllustrator/10.0/" xmlns:graph="http://ns.adobe.com/Graphs/1.0/" xmlns="http://www.w3.org/2000/svg" xmlns:xlink="http://www.w3.org/1999/xlink" version="1.1" x="0px" y="0px" viewBox="0 0 64 80" enable-background="new 0 0 64 64" xml:space="preserve"><metadata><sfw xmlns="http://ns.adobe.com/SaveForWeb/1.0/"><slices/><sliceSourceBounds y="-8160" x="-8165" width="16389" height="16384" bottomLeftOrigin="true"/></sfw></metadata><g><path d="M44,14c-1.104,0-2,0.896-2,2v13.526L21.176,14.382c-0.609-0.443-1.414-0.505-2.084-0.165C18.422,14.559,18,15.248,18,16v32   c0,0.752,0.422,1.44,1.092,1.782C19.379,49.928,19.69,50,20,50c0.415,0,0.828-0.129,1.176-0.383L42,34.473V48c0,1.104,0.896,2,2,2   s2-0.896,2-2V16C46,14.896,45.104,14,44,14z M22,44.072V19.928L38.6,32L22,44.072z"/></g><text x="0" y="79" fill="#000000" font-size="5px" font-weight="bold" font-family="'Helvetica Neue', Helvetica, Arial-Unicode, Arial, Sans-serif">Created by Ralf Schmitzer</text><text x="0" y="84" fill="#000000" font-size="5px" font-weight="bold" font-family="'Helvetica Neue', Helvetica, Arial-Unicode, Arial, Sans-serif">from the Noun Project</text></svg>