<svg xmlns="http://www.w3.org/2000/svg" xmlns:xlink="http://www.w3.org/1999/xlink" version="1.1" x="0px" y="0px" viewBox="0 0 24 30" style="enable-background:new 0 0 24 24;" xml:space="preserve"><path d="M15.172,18.387c-0.217-0.217-0.569-0.217-0.786,0l-1.831,1.83v-6.301c0-0.307-0.249-0.556-0.556-0.556  c-0.307,0-0.556,0.249-0.556,0.556v6.301l-1.831-1.83c-0.217-0.217-0.569-0.217-0.786,0c-0.217,0.217-0.217,0.569,0,0.786  l2.779,2.779c0.108,0.109,0.251,0.163,0.393,0.163c0.142,0,0.285-0.054,0.393-0.163l2.779-2.779  C15.389,18.956,15.389,18.604,15.172,18.387z"/><path d="M18.092,7.473C17.825,4.347,15.194,1.884,12,1.884c-3.372,0-6.115,2.743-6.115,6.115c0,0.278,0.02,0.559,0.06,0.839  C5.879,8.834,5.813,8.833,5.746,8.833c-2.222,0-4.03,1.808-4.03,4.03c0,2.222,1.808,4.03,4.03,4.03h3.474  c0.307,0,0.556-0.249,0.556-0.556s-0.249-0.556-0.556-0.556H5.746c-1.609,0-2.918-1.309-2.918-2.918s1.309-2.918,2.918-2.918  c0.25,0,0.507,0.035,0.764,0.105c0.193,0.053,0.4-0.003,0.541-0.146c0.141-0.142,0.194-0.349,0.14-0.542  C7.062,8.908,6.997,8.45,6.997,7.999c0-2.758,2.244-5.003,5.003-5.003c2.759,0,5.003,2.244,5.003,5.003  c0,0.307,0.249,0.556,0.556,0.556c1.992,0,3.613,1.621,3.613,3.613c0,1.992-1.621,3.613-3.613,3.613h-2.779  c-0.307,0-0.556,0.249-0.556,0.556s0.249,0.556,0.556,0.556h2.779c2.605,0,4.725-2.12,4.725-4.725  C22.284,9.743,20.447,7.739,18.092,7.473z"/><text x="0" y="39" fill="#000000" font-size="5px" font-weight="bold" font-family="'Helvetica Neue', Helvetica, Arial-Unicode, Arial, Sans-serif">Created by Storm Icons</text><text x="0" y="44" fill="#000000" font-size="5px" font-weight="bold" font-family="'Helvetica Neue', Helvetica, Arial-Unicode, Arial, Sans-serif">from the Noun Project</text></svg>