<svg xmlns="http://www.w3.org/2000/svg" xmlns:xlink="http://www.w3.org/1999/xlink" viewBox="0 0 100 125" version="1.1" x="0px" y="0px"><title>Menu 3</title><desc>Created with Sketch.</desc><g stroke="none" stroke-width="1" fill-rule="evenodd"><g fill-rule="nonzero"><path d="M26,67.5 C26,66.6657972 26.6726805,66 27.502474,66 L72.497526,66 C73.3214569,66 74,66.6715729 74,67.5 C74,68.3342028 73.3273195,69 72.497526,69 L27.502474,69 C26.6785431,69 26,68.3284271 26,67.5 Z M26,50.5 C26,49.6657972 26.6726805,49 27.502474,49 L72.497526,49 C73.3214569,49 74,49.6715729 74,50.5 C74,51.3342028 73.3273195,52 72.497526,52 L27.502474,52 C26.6785431,52 26,51.3284271 26,50.5 Z M26,33.5 C26,32.6657972 26.6726805,32 27.502474,32 L72.497526,32 C73.3214569,32 74,32.6715729 74,33.5 C74,34.3342028 73.3273195,35 72.497526,35 L27.502474,35 C26.6785431,35 26,34.3284271 26,33.5 Z"/></g></g><text x="0" y="115" font-size="5px" font-weight="bold" font-family="'Helvetica Neue', Helvetica, Arial-Unicode, Arial, Sans-serif">Created by Landan Lloyd</text><text x="0" y="120" font-size="5px" font-weight="bold" font-family="'Helvetica Neue', Helvetica, Arial-Unicode, Arial, Sans-serif">from the Noun Project</text></svg>
