<?xml version="1.0" encoding="UTF-8" standalone="no"?>
<!-- Generator: Adobe Illustrator 16.0.0, SVG Export Plug-In . SVG Version: 6.00 Build 0)  -->

<svg
   xmlns:dc="http://purl.org/dc/elements/1.1/"
   xmlns:cc="http://creativecommons.org/ns#"
   xmlns:rdf="http://www.w3.org/1999/02/22-rdf-syntax-ns#"
   xmlns:svg="http://www.w3.org/2000/svg"
   xmlns="http://www.w3.org/2000/svg"
   xmlns:sodipodi="http://sodipodi.sourceforge.net/DTD/sodipodi-0.dtd"
   xmlns:inkscape="http://www.inkscape.org/namespaces/inkscape"
   version="1.1"
   id="Layer_1"
   x="0px"
   y="0px"
   width="367.85837"
   height="346.28925"
   viewBox="0 0 367.85837 346.28925"
   enable-background="new 0 0 400 400"
   xml:space="preserve"
   inkscape:version="0.91 r13725"
   sodipodi:docname="boxplot.svg"><metadata
     id="metadata101"><rdf:RDF><cc:Work
         rdf:about=""><dc:format>image/svg+xml</dc:format><dc:type
           rdf:resource="http://purl.org/dc/dcmitype/StillImage" /><dc:title></dc:title></cc:Work></rdf:RDF></metadata><defs
     id="defs99" /><sodipodi:namedview
     pagecolor="#ffffff"
     bordercolor="#666666"
     borderopacity="1"
     objecttolerance="10"
     gridtolerance="10"
     guidetolerance="10"
     inkscape:pageopacity="0"
     inkscape:pageshadow="2"
     inkscape:window-width="1536"
     inkscape:window-height="801"
     id="namedview97"
     showgrid="false"
     fit-margin-top="0"
     fit-margin-left="0"
     fit-margin-right="0"
     fit-margin-bottom="0"
     inkscape:zoom="0.59"
     inkscape:cx="-331.07937"
     inkscape:cy="168.13425"
     inkscape:window-x="-8"
     inkscape:window-y="-8"
     inkscape:window-maximized="1"
     inkscape:current-layer="Layer_1" /><g
     id="g85"
     transform="translate(-25.994625,-21.845)"
     style="fill:#333333"><path
       d="m 212.338,214.682 -12.226,12.227 -9.495,9.494 -6.863,6.862 c -0.011,-0.044 -0.021,-0.076 -0.021,-0.076 0,0 -2.259,2.769 -6.391,1.66 0,0 0,0.023 0,0.037 l -17.64,-4.727 c -4.391,-1.179 -5.715,-5.671 -5.733,-5.731 l -4.74,-17.692 c -0.839,-3.141 0.553,-5.193 1.272,-6.002 l 7.223,-7.223 9.494,-9.494 12.306,-12.306 c 2.927,-2.926 -0.312,-4.452 -0.42,-4.503 -17.071,-4.231 -35.869,0.309 -49.213,13.651 -13.062,13.062 -17.685,31.353 -13.9,48.134 l -0.005,-0.001 c 0,0 1,4.635 -3.958,9.593 L 32.104,328.51 c -8.146,8.146 -8.146,21.354 10e-4,29.501 l 4.013,4.013 c 8.148,8.147 21.355,8.147 29.501,0 l 80.973,-80.972 c 3.729,-3.138 7.074,-3.115 8.138,-3.008 16.891,3.949 35.372,-0.641 48.539,-13.809 13.352,-13.351 17.889,-32.162 13.645,-49.24 -0.228,-0.416 -1.827,-3.063 -4.576,-0.313 z M 54.391,350.323 c -2.923,2.923 -7.663,2.923 -10.584,0 -2.924,-2.923 -2.924,-7.662 0,-10.585 2.921,-2.923 7.661,-2.923 10.584,0 2.923,2.922 2.923,7.662 0,10.585 z"
       id="path87"
       inkscape:connector-curvature="0"
       style="fill:#333333" /><path
       d="m 390.354,186.458 -187.263,0 c -0.929,0 -1.818,0.369 -2.475,1.025 l -11.523,11.523 -17.388,-4.66 -15.938,15.939 5.833,21.77 21.77,5.834 15.938,-15.938 -4.916,-18.347 10.147,-10.147 185.814,0 c 1.933,0 3.5,-1.567 3.5,-3.5 0,-1.933 -1.566,-3.499 -3.499,-3.499 z m -212.817,40.271 c -5.858,0 -10.61,-4.75 -10.61,-10.61 0,-5.859 4.752,-10.609 10.61,-10.609 5.86,0 10.61,4.75 10.61,10.609 0,5.86 -4.75,10.609 -10.61,10.61 z"
       id="path89"
       inkscape:connector-curvature="0"
       style="fill:#333333" /></g><g
     transform="matrix(0.31220042,0,0,0.31220042,205.71361,6.4424425)"
     id="g12449"
     style="fill:#333333"><title
       id="title12451">Layer 1</title><path
       style="fill:#333333"
       inkscape:connector-curvature="0"
       transform="matrix(0,1,-1,0,289.80302,131.46968)"
       id="svg_1"
       d="m -130.83331,158.21211 28.63636,0 0,43.68687 95.454543,0 0,-69.899 219.545447,0 0,69.899 47.72727,0 0,-43.68687 28.63636,0 0,104.84849 -28.63636,0 0,-43.68687 -47.72727,0 0,69.89899 -219.545447,0 0,-69.89899 -95.454543,0 0,43.68687 -28.63636,0 0,-104.84849 z m 152.727266,0 0,104.84849 76.363633,0 0,-104.84849 -76.363633,0 z m 104.999994,0 0,104.84849 57.27273,0 0,-104.84849 -57.27273,0 z" /><path
       style="fill:#333333"
       inkscape:connector-curvature="0"
       id="svg_2"
       transform="matrix(0,-1,1,0,-61.166656,562.50003)"
       d="m 63.500035,259.40909 25.522724,0 0,43.68687 85.075741,0 0,-69.89899 195.67422,0 0,69.89899 42.53787,0 0,-43.68687 25.52272,0 0,104.8485 -25.52272,0 0,-43.68688 -42.53787,0 0,69.899 -195.67422,0 0,-69.899 -85.075741,0 0,43.68688 -25.522724,0 0,-104.8485 z m 136.121195,0 0,104.8485 68.06059,0 0,-104.8485 -68.06059,0 z m 93.58332,0 0,104.8485 51.04544,0 0,-104.8485 -51.04544,0 z" /><path
       style="fill:#333333"
       inkscape:connector-curvature="0"
       id="svg_5"
       transform="matrix(0,1,-1,0,631.32098,-212.67902)"
       d="m 212,156.89675 28.63637,0 0,43.68687 95.45454,0 0,-69.899 219.54544,0 0,69.899 47.72727,0 0,-43.68687 28.63637,0 0,104.84849 -28.63637,0 0,-43.68687 -47.72727,0 0,69.89899 -219.54544,0 0,-69.89899 -95.45454,0 0,43.68687 -28.63637,0 0,-104.84849 z m 152.72727,0 0,104.84849 76.36363,0 0,-104.84849 -76.36363,0 z m 104.99999,0 0,104.84849 57.27274,0 0,-104.84849 -57.27274,0 z" /></g></svg>
