<?xml version="1.0" encoding="UTF-8" standalone="no"?>
<!-- Generator: Adobe Illustrator 16.0.0, SVG Export Plug-In . SVG Version: 6.00 Build 0)  -->

<svg
   xmlns:dc="http://purl.org/dc/elements/1.1/"
   xmlns:cc="http://creativecommons.org/ns#"
   xmlns:rdf="http://www.w3.org/1999/02/22-rdf-syntax-ns#"
   xmlns:svg="http://www.w3.org/2000/svg"
   xmlns="http://www.w3.org/2000/svg"
   xmlns:sodipodi="http://sodipodi.sourceforge.net/DTD/sodipodi-0.dtd"
   xmlns:inkscape="http://www.inkscape.org/namespaces/inkscape"
   version="1.1"
   id="Layer_1"
   x="0px"
   y="0px"
   width="367.85837"
   height="346.28925"
   viewBox="0 0 367.85837 346.28925"
   enable-background="new 0 0 400 400"
   xml:space="preserve"
   inkscape:version="0.91 r13725"
   sodipodi:docname="candlestick.svg"><metadata
     id="metadata101"><rdf:RDF><cc:Work
         rdf:about=""><dc:format>image/svg+xml</dc:format><dc:type
           rdf:resource="http://purl.org/dc/dcmitype/StillImage" /><dc:title></dc:title></cc:Work></rdf:RDF></metadata><defs
     id="defs99" /><sodipodi:namedview
     pagecolor="#ffffff"
     bordercolor="#666666"
     borderopacity="1"
     objecttolerance="10"
     gridtolerance="10"
     guidetolerance="10"
     inkscape:pageopacity="0"
     inkscape:pageshadow="2"
     inkscape:window-width="1536"
     inkscape:window-height="801"
     id="namedview97"
     showgrid="false"
     fit-margin-top="0"
     fit-margin-left="0"
     fit-margin-right="0"
     fit-margin-bottom="0"
     inkscape:zoom="0.834386"
     inkscape:cx="180.4871"
     inkscape:cy="4.3028755"
     inkscape:window-x="-8"
     inkscape:window-y="-8"
     inkscape:window-maximized="1"
     inkscape:current-layer="Layer_1" /><g
     id="g85"
     transform="translate(-25.994625,-21.845)"
     style="fill:#333333"><path
       d="m 212.338,214.682 -12.226,12.227 -9.495,9.494 -6.863,6.862 c -0.011,-0.044 -0.021,-0.076 -0.021,-0.076 0,0 -2.259,2.769 -6.391,1.66 0,0 0,0.023 0,0.037 l -17.64,-4.727 c -4.391,-1.179 -5.715,-5.671 -5.733,-5.731 l -4.74,-17.692 c -0.839,-3.141 0.553,-5.193 1.272,-6.002 l 7.223,-7.223 9.494,-9.494 12.306,-12.306 c 2.927,-2.926 -0.312,-4.452 -0.42,-4.503 -17.071,-4.231 -35.869,0.309 -49.213,13.651 -13.062,13.062 -17.685,31.353 -13.9,48.134 l -0.005,-0.001 c 0,0 1,4.635 -3.958,9.593 L 32.104,328.51 c -8.146,8.146 -8.146,21.354 10e-4,29.501 l 4.013,4.013 c 8.148,8.147 21.355,8.147 29.501,0 l 80.973,-80.972 c 3.729,-3.138 7.074,-3.115 8.138,-3.008 16.891,3.949 35.372,-0.641 48.539,-13.809 13.352,-13.351 17.889,-32.162 13.645,-49.24 -0.228,-0.416 -1.827,-3.063 -4.576,-0.313 z M 54.391,350.323 c -2.923,2.923 -7.663,2.923 -10.584,0 -2.924,-2.923 -2.924,-7.662 0,-10.585 2.921,-2.923 7.661,-2.923 10.584,0 2.923,2.922 2.923,7.662 0,10.585 z"
       id="path87"
       inkscape:connector-curvature="0"
       style="fill:#333333" /><path
       d="m 390.354,186.458 -187.263,0 c -0.929,0 -1.818,0.369 -2.475,1.025 l -11.523,11.523 -17.388,-4.66 -15.938,15.939 5.833,21.77 21.77,5.834 15.938,-15.938 -4.916,-18.347 10.147,-10.147 185.814,0 c 1.933,0 3.5,-1.567 3.5,-3.5 0,-1.933 -1.566,-3.499 -3.499,-3.499 z m -212.817,40.271 c -5.858,0 -10.61,-4.75 -10.61,-10.61 0,-5.859 4.752,-10.609 10.61,-10.609 5.86,0 10.61,4.75 10.61,10.609 0,5.86 -4.75,10.609 -10.61,10.61 z"
       id="path89"
       inkscape:connector-curvature="0"
       style="fill:#333333" /></g><flowRoot
     transform="matrix(0.41369793,0,0,0.41369793,156.16242,-12.567033)"
     style="font-style:normal;font-weight:normal;font-size:40px;line-height:125%;font-family:sans-serif;letter-spacing:0px;word-spacing:0px;fill:#333333;fill-opacity:1;stroke:none;stroke-width:1px;stroke-linecap:butt;stroke-linejoin:miter;stroke-opacity:1;"
     id="flowRoot4155"
     xml:space="preserve"><flowRegion
       id="flowRegion4157"><rect
         style="fill:#333333;"
         y="317.84677"
         x="31.97818"
         height="131.33894"
         width="455.68906"
         id="rect4159" /></flowRegion><flowPara
       id="flowPara4161" /></flowRoot><g
     id="g6666"
     transform="matrix(0.3359375,0,0,0.3359375,109.94013,-26.342958)"><rect
       y="550.68042"
       x="244.96718"
       height="32"
       width="512"
       id="rect4714"
       style="fill:#333333;fill-opacity:1;stroke:none" /><rect
       y="518.68042"
       x="244.96718"
       height="64"
       width="32"
       id="rect4716"
       style="fill:#333333;fill-opacity:1;stroke:none" /><rect
       y="518.68042"
       x="308.96716"
       height="64"
       width="32"
       id="rect4716-3"
       style="fill:#333333;fill-opacity:1;stroke:none" /><rect
       y="518.68042"
       x="372.96716"
       height="64"
       width="32"
       id="rect4716-1"
       style="fill:#333333;fill-opacity:1;stroke:none" /><rect
       y="518.68042"
       x="436.96716"
       height="64"
       width="32"
       id="rect4716-39"
       style="fill:#333333;fill-opacity:1;stroke:none" /><rect
       y="518.68042"
       x="500.96716"
       height="64"
       width="32"
       id="rect4716-9"
       style="fill:#333333;fill-opacity:1;stroke:none" /><rect
       y="518.68042"
       x="564.96716"
       height="64"
       width="32"
       id="rect4716-3-4"
       style="fill:#333333;fill-opacity:1;stroke:none" /><rect
       y="518.68042"
       x="628.96716"
       height="64"
       width="32"
       id="rect4716-1-7"
       style="fill:#333333;fill-opacity:1;stroke:none" /><rect
       y="518.68042"
       x="692.96716"
       height="64"
       width="32"
       id="rect4716-39-7"
       style="fill:#333333;fill-opacity:1;stroke:none" /><g
       transform="matrix(1,0,0,1.438498,241.73689,114.10604)"
       id="g5384"><rect
         style="fill:#333333;fill-opacity:1;stroke:none"
         id="rect5262"
         width="64"
         height="128"
         x="36"
         y="64" /><rect
         style="fill:#333333;fill-opacity:1;stroke:none"
         id="rect5264"
         width="16"
         height="48.454258"
         x="60"
         y="17.545742" /><rect
         style="fill:#333333;fill-opacity:1;stroke:none"
         id="rect5264-4"
         width="16"
         height="48.454258"
         x="60"
         y="191.54575" /></g><g
       transform="matrix(1,0,0,0.80150648,241.73689,163.18232)"
       id="g5389"><rect
         style="fill:none;fill-opacity:1;stroke:#333333;stroke-width:4;stroke-miterlimit:4;stroke-dasharray:none;stroke-opacity:1"
         id="rect5262-5"
         width="64"
         height="167.96211"
         x="127.89906"
         y="85.402283" /><rect
         style="fill:#333333;fill-opacity:1;stroke:none"
         id="rect5264-0"
         width="16"
         height="63.581871"
         x="151.89905"
         y="23.418129" /><rect
         style="fill:#333333;fill-opacity:1;stroke:none"
         id="rect5264-4-5"
         width="16"
         height="63.581871"
         x="151.89905"
         y="252.7683" /></g><g
       transform="matrix(1,0,0,0.53480731,236.89147,189.96374)"
       id="g5394"><rect
         style="fill:#333333;fill-opacity:1;stroke:#333333;stroke-width:4.26678848;stroke-miterlimit:4;stroke-dasharray:none;stroke-opacity:1"
         id="rect5262-5-0"
         width="64"
         height="191.11447"
         x="234.49841"
         y="111.41868" /><rect
         style="fill:#333333;fill-opacity:1;stroke:none"
         id="rect5264-0-8"
         width="16"
         height="168.98759"
         x="258.49841"
         y="-55.750973" /><rect
         style="fill:#333333;fill-opacity:1;stroke:none"
         id="rect5264-4-5-1"
         width="16"
         height="72.346169"
         x="258.49841"
         y="301.85483" /></g><rect
       style="fill:none;fill-opacity:1;stroke:#333333;stroke-width:4.38909054;stroke-miterlimit:4;stroke-dasharray:none;stroke-opacity:1"
       id="rect5262-5-9"
       width="64"
       height="202.2276"
       x="568.2984"
       y="167.74866" /><rect
       style="fill:#333333;fill-opacity:1;stroke:none"
       id="rect5264-0-0"
       width="16"
       height="76.553032"
       x="592.2984"
       y="93.119293" /><rect
       style="fill:#333333;fill-opacity:1;stroke:none"
       id="rect5264-4-5-2"
       width="16"
       height="50.710762"
       x="592.2984"
       y="369.25854" /><g
       transform="translate(241.73689,77.263551)"
       id="g5409"><rect
         style="fill:#333333;fill-opacity:1;stroke:#333333;stroke-width:4.50807571;stroke-miterlimit:4;stroke-dasharray:none;stroke-opacity:1"
         id="rect5262-5-90"
         width="64"
         height="213.34073"
         x="420.23972"
         y="114.77554" /><rect
         style="fill:#333333;fill-opacity:1;stroke:none"
         id="rect5264-0-01"
         width="16"
         height="80.759895"
         x="444.23972"
         y="36.045029" /><rect
         style="fill:#333333;fill-opacity:1;stroke:none"
         id="rect5264-4-5-7"
         width="16"
         height="80.759895"
         x="444.23972"
         y="327.3591" /></g></g></svg>
