<?xml version="1.0" encoding="UTF-8" standalone="no"?>
<!-- Generator: Adobe Illustrator 16.0.0, SVG Export Plug-In . SVG Version: 6.00 Build 0)  -->

<svg
   xmlns:dc="http://purl.org/dc/elements/1.1/"
   xmlns:cc="http://creativecommons.org/ns#"
   xmlns:rdf="http://www.w3.org/1999/02/22-rdf-syntax-ns#"
   xmlns:svg="http://www.w3.org/2000/svg"
   xmlns="http://www.w3.org/2000/svg"
   xmlns:sodipodi="http://sodipodi.sourceforge.net/DTD/sodipodi-0.dtd"
   xmlns:inkscape="http://www.inkscape.org/namespaces/inkscape"
   version="1.1"
   id="Layer_1"
   x="0px"
   y="0px"
   width="367.85837"
   height="346.28925"
   viewBox="0 0 367.85837 346.28925"
   enable-background="new 0 0 400 400"
   xml:space="preserve"
   inkscape:version="0.91 r13725"
   sodipodi:docname="graph.svg"><metadata
     id="metadata101"><rdf:RDF><cc:Work
         rdf:about=""><dc:format>image/svg+xml</dc:format><dc:type
           rdf:resource="http://purl.org/dc/dcmitype/StillImage" /><dc:title></dc:title></cc:Work></rdf:RDF></metadata><defs
     id="defs99" /><sodipodi:namedview
     pagecolor="#ffffff"
     bordercolor="#666666"
     borderopacity="1"
     objecttolerance="10"
     gridtolerance="10"
     guidetolerance="10"
     inkscape:pageopacity="0"
     inkscape:pageshadow="2"
     inkscape:window-width="1536"
     inkscape:window-height="801"
     id="namedview97"
     showgrid="false"
     fit-margin-top="0"
     fit-margin-left="0"
     fit-margin-right="0"
     fit-margin-bottom="0"
     inkscape:zoom="0.59"
     inkscape:cx="-331.07937"
     inkscape:cy="168.13425"
     inkscape:window-x="-8"
     inkscape:window-y="-8"
     inkscape:window-maximized="1"
     inkscape:current-layer="Layer_1" /><g
     id="g85"
     transform="translate(-25.994625,-21.845)"
     style="fill:#333333"><path
       d="m 212.338,214.682 -12.226,12.227 -9.495,9.494 -6.863,6.862 c -0.011,-0.044 -0.021,-0.076 -0.021,-0.076 0,0 -2.259,2.769 -6.391,1.66 0,0 0,0.023 0,0.037 l -17.64,-4.727 c -4.391,-1.179 -5.715,-5.671 -5.733,-5.731 l -4.74,-17.692 c -0.839,-3.141 0.553,-5.193 1.272,-6.002 l 7.223,-7.223 9.494,-9.494 12.306,-12.306 c 2.927,-2.926 -0.312,-4.452 -0.42,-4.503 -17.071,-4.231 -35.869,0.309 -49.213,13.651 -13.062,13.062 -17.685,31.353 -13.9,48.134 l -0.005,-0.001 c 0,0 1,4.635 -3.958,9.593 L 32.104,328.51 c -8.146,8.146 -8.146,21.354 10e-4,29.501 l 4.013,4.013 c 8.148,8.147 21.355,8.147 29.501,0 l 80.973,-80.972 c 3.729,-3.138 7.074,-3.115 8.138,-3.008 16.891,3.949 35.372,-0.641 48.539,-13.809 13.352,-13.351 17.889,-32.162 13.645,-49.24 -0.228,-0.416 -1.827,-3.063 -4.576,-0.313 z M 54.391,350.323 c -2.923,2.923 -7.663,2.923 -10.584,0 -2.924,-2.923 -2.924,-7.662 0,-10.585 2.921,-2.923 7.661,-2.923 10.584,0 2.923,2.922 2.923,7.662 0,10.585 z"
       id="path87"
       inkscape:connector-curvature="0"
       style="fill:#333333" /><path
       d="m 390.354,186.458 -187.263,0 c -0.929,0 -1.818,0.369 -2.475,1.025 l -11.523,11.523 -17.388,-4.66 -15.938,15.939 5.833,21.77 21.77,5.834 15.938,-15.938 -4.916,-18.347 10.147,-10.147 185.814,0 c 1.933,0 3.5,-1.567 3.5,-3.5 0,-1.933 -1.566,-3.499 -3.499,-3.499 z m -212.817,40.271 c -5.858,0 -10.61,-4.75 -10.61,-10.61 0,-5.859 4.752,-10.609 10.61,-10.609 5.86,0 10.61,4.75 10.61,10.609 0,5.86 -4.75,10.609 -10.61,10.61 z"
       id="path89"
       inkscape:connector-curvature="0"
       style="fill:#333333" /></g><g
     transform="matrix(0.34078792,0,0,0.34078792,197.08411,-4.0001027)"
     id="g9927"
     style="fill:#333333"><circle
       style="fill:#333333;fill-opacity:1"
       id="path4168"
       cx="278.77966"
       cy="296.13559"
       r="92.203392" /><circle
       style="fill:#333333;fill-opacity:1"
       id="path4170"
       cx="114.98305"
       cy="373.15256"
       r="49.898304" /><circle
       style="fill:#333333;fill-opacity:1"
       id="path4172"
       cx="417.62711"
       cy="417.62711"
       r="33.627117" /><circle
       style="fill:#333333;fill-opacity:1"
       id="path4174"
       cx="158.37288"
       cy="145.35593"
       r="43.389832" /><circle
       style="fill:#333333;fill-opacity:1"
       id="path4176"
       cx="316.74576"
       cy="95.457626"
       r="32.542374" /><circle
       style="fill:#333333;fill-opacity:1"
       id="path4178"
       cx="74.847458"
       cy="57.491524"
       r="29.288136" /><circle
       style="fill:#333333;fill-opacity:1"
       id="path4180"
       cx="468.61017"
       cy="349.28815"
       r="19.525423" /><circle
       style="fill:#333333;fill-opacity:1"
       id="path4182"
       cx="210.44067"
       cy="462.10168"
       r="23.864407" /><circle
       style="fill:#333333;fill-opacity:1"
       id="path4184"
       cx="441.49152"
       cy="218.03391"
       r="35.796612" /><rect
       style="fill:#333333;fill-opacity:1"
       id="rect4207"
       width="26.033897"
       height="104.13559"
       x="26.913984"
       y="239.76898"
       transform="matrix(0.80269254,-0.59639306,0.59639306,0.80269254,0,0)" /><rect
       style="fill:#333333;fill-opacity:1"
       id="rect4207-4"
       width="26.033897"
       height="104.13559"
       x="-67.867439"
       y="472.82718"
       transform="matrix(0.63877528,-0.76939336,0.76939336,0.63877528,0,0)" /><rect
       style="fill:#333333;fill-opacity:1"
       id="rect4207-6"
       width="26.033897"
       height="104.13559"
       x="-399.83987"
       y="-5.2506361"
       transform="matrix(-0.38758595,-0.92183357,0.92183357,-0.38758595,0,0)" /><rect
       style="fill:#333333;fill-opacity:1"
       id="rect4207-9"
       width="26.033897"
       height="104.13559"
       x="379.25781"
       y="-282.46582"
       transform="matrix(0.44838975,0.89383815,-0.89383815,0.44838975,0,0)" /><rect
       style="fill:#333333;fill-opacity:0.50196078"
       id="rect4207-5"
       width="22.762363"
       height="93.707253"
       x="6.2988791"
       y="115.3349"
       transform="matrix(0.05447599,-0.99851508,0.68963215,0.72415986,0,0)" /><rect
       style="fill:#333333;fill-opacity:0.50196078"
       id="rect4207-5-9"
       width="34.024372"
       height="140.51636"
       x="-365.06281"
       y="-160.13791"
       transform="matrix(-0.96303968,-0.26935956,0.96550946,-0.26036796,0,0)" /><rect
       style="fill:#333333;fill-opacity:0.50196078"
       id="rect4207-5-91"
       width="22.762363"
       height="93.707253"
       x="-243.78989"
       y="216.88268"
       transform="matrix(0.05447599,-0.99851508,0.68963215,0.72415986,0,0)" /><rect
       style="fill:#333333;fill-opacity:0.50196078"
       id="rect4207-5-91-9"
       width="22.762363"
       height="93.707253"
       x="-814.73718"
       y="-668.93787"
       ry="11.713407"
       transform="matrix(-0.98610246,0.1661383,0.55503094,-0.8318297,0,0)" /></g></svg>
