<?xml version="1.0" encoding="UTF-8" standalone="no"?>
<!-- Generator: Adobe Illustrator 16.0.0, SVG Export Plug-In . SVG Version: 6.00 Build 0)  -->

<svg
   xmlns:dc="http://purl.org/dc/elements/1.1/"
   xmlns:cc="http://creativecommons.org/ns#"
   xmlns:rdf="http://www.w3.org/1999/02/22-rdf-syntax-ns#"
   xmlns:svg="http://www.w3.org/2000/svg"
   xmlns="http://www.w3.org/2000/svg"
   xmlns:sodipodi="http://sodipodi.sourceforge.net/DTD/sodipodi-0.dtd"
   xmlns:inkscape="http://www.inkscape.org/namespaces/inkscape"
   version="1.1"
   id="Layer_1"
   x="0px"
   y="0px"
   width="367.85837"
   height="346.28925"
   viewBox="0 0 367.85837 346.28925"
   enable-background="new 0 0 400 400"
   xml:space="preserve"
   inkscape:version="0.91 r13725"
   sodipodi:docname="line.svg"><metadata
     id="metadata101"><rdf:RDF><cc:Work
         rdf:about=""><dc:format>image/svg+xml</dc:format><dc:type
           rdf:resource="http://purl.org/dc/dcmitype/StillImage" /><dc:title></dc:title></cc:Work></rdf:RDF></metadata><defs
     id="defs99" /><sodipodi:namedview
     pagecolor="#ffffff"
     bordercolor="#666666"
     borderopacity="1"
     objecttolerance="10"
     gridtolerance="10"
     guidetolerance="10"
     inkscape:pageopacity="0"
     inkscape:pageshadow="2"
     inkscape:window-width="1536"
     inkscape:window-height="801"
     id="namedview97"
     showgrid="false"
     fit-margin-top="0"
     fit-margin-left="0"
     fit-margin-right="0"
     fit-margin-bottom="0"
     inkscape:zoom="0.59"
     inkscape:cx="-331.07937"
     inkscape:cy="168.13425"
     inkscape:window-x="-8"
     inkscape:window-y="-8"
     inkscape:window-maximized="1"
     inkscape:current-layer="g85" /><g
     id="g85"
     transform="translate(-25.994625,-21.845)"><path
       d="m 212.338,214.682 -12.226,12.227 -9.495,9.494 -6.863,6.862 c -0.011,-0.044 -0.021,-0.076 -0.021,-0.076 0,0 -2.259,2.769 -6.391,1.66 0,0 0,0.023 0,0.037 l -17.64,-4.727 c -4.391,-1.179 -5.715,-5.671 -5.733,-5.731 l -4.74,-17.692 c -0.839,-3.141 0.553,-5.193 1.272,-6.002 l 7.223,-7.223 9.494,-9.494 12.306,-12.306 c 2.927,-2.926 -0.312,-4.452 -0.42,-4.503 -17.071,-4.231 -35.869,0.309 -49.213,13.651 -13.062,13.062 -17.685,31.353 -13.9,48.134 l -0.005,-0.001 c 0,0 1,4.635 -3.958,9.593 L 32.104,328.51 c -8.146,8.146 -8.146,21.354 10e-4,29.501 l 4.013,4.013 c 8.148,8.147 21.355,8.147 29.501,0 l 80.973,-80.972 c 3.729,-3.138 7.074,-3.115 8.138,-3.008 16.891,3.949 35.372,-0.641 48.539,-13.809 13.352,-13.351 17.889,-32.162 13.645,-49.24 -0.228,-0.416 -1.827,-3.063 -4.576,-0.313 z M 54.391,350.323 c -2.923,2.923 -7.663,2.923 -10.584,0 -2.924,-2.923 -2.924,-7.662 0,-10.585 2.921,-2.923 7.661,-2.923 10.584,0 2.923,2.922 2.923,7.662 0,10.585 z"
       id="path87"
       inkscape:connector-curvature="0"
       style="fill:#000000" /><path
       d="m 390.354,186.458 -187.263,0 c -0.929,0 -1.818,0.369 -2.475,1.025 l -11.523,11.523 -17.388,-4.66 -15.938,15.939 5.833,21.77 21.77,5.834 15.938,-15.938 -4.916,-18.347 10.147,-10.147 185.814,0 c 1.933,0 3.5,-1.567 3.5,-3.5 0,-1.933 -1.566,-3.499 -3.499,-3.499 z m -212.817,40.271 c -5.858,0 -10.61,-4.75 -10.61,-10.61 0,-5.859 4.752,-10.609 10.61,-10.609 5.86,0 10.61,4.75 10.61,10.609 0,5.86 -4.75,10.609 -10.61,10.61 z"
       id="path89"
       inkscape:connector-curvature="0"
       style="fill:#000000" /><path
       inkscape:connector-curvature="0"
       style="fill:#000000;stroke:#000000;stroke-width:0.30287114"
       d="m 242.04979,175.8079 145.37815,0 0,9.69187 -155.07002,0 0,-155.07002 9.69187,0 0,29.075628 9.69188,0 0,9.691876 -9.69188,0 0,19.383753 9.69188,0 0,9.691876 -9.69188,0 0,19.383757 9.69188,0 0,9.69187 -9.69188,0 0,19.38376 9.69188,0 0,9.69187 -9.69188,0 0,19.38376 z m 19.38376,-43.61345 c 0,-8.02608 6.50688,-14.53781 14.53781,-14.53781 1.50951,0 2.93421,0.29348 4.30652,0.71932 l 12.67334,-16.90415 c -1.53828,-2.299703 -2.44205,-5.072791 -2.44205,-8.044865 0,-8.026085 6.51173,-14.537814 14.53782,-14.537814 8.02608,0 14.53781,6.511729 14.53781,14.537814 0,1.514355 -0.29348,2.934215 -0.72416,4.306524 l 16.8993,12.673341 c 2.30939,-1.53343 5.07309,-2.44205 8.05455,-2.44205 0.60574,0 1.17363,0.10419 1.76059,0.17991 l 16.86598,-33.722889 c -2.51776,-2.612263 -4.08876,-6.152221 -4.08876,-10.070465 0,-8.026084 6.51173,-14.537814 14.53782,-14.537814 8.02609,0 14.53782,6.51173 14.53782,14.537814 0,8.026085 -6.51173,14.537815 -14.53782,14.537815 -0.60574,0 -1.17363,-0.104188 -1.76059,-0.179906 l -16.8566,33.722885 c 2.51777,2.61227 4.07937,6.15222 4.07937,10.07047 0,8.02608 -6.51172,14.53781 -14.53781,14.53781 -8.02608,0 -14.53781,-6.51173 -14.53781,-14.53781 0,-1.50497 0.29348,-2.93422 0.71932,-4.30653 l -16.89931,-12.67334 c -2.30454,1.53344 -5.07309,2.44205 -8.0497,2.44205 -1.50951,0 -2.93422,-0.29348 -4.30168,-0.71932 l -12.67789,16.89446 c 1.53798,2.30939 2.44175,5.07309 2.44175,8.05455 0,8.02609 -6.50688,14.53782 -14.53781,14.53782 -8.03093,0 -14.53782,-6.51173 -14.53782,-14.53782 z M 368.04418,64.351316 c 0,2.678593 2.16735,4.845938 4.84594,4.845938 2.67859,0 4.84594,-2.167345 4.84594,-4.845938 0,-2.678592 -2.16735,-4.845938 -4.84594,-4.845938 -2.67859,0 -4.84594,2.167346 -4.84594,4.845938 z m -29.07563,58.151264 c 0,2.67859 2.16735,4.84593 4.84594,4.84593 2.67859,0 4.84594,-2.16734 4.84594,-4.84593 0,-2.6786 -2.16735,-4.84594 -4.84594,-4.84594 -2.67859,0 -4.84594,2.16734 -4.84594,4.84594 z m -38.7675,-29.075635 c 0,2.678592 2.16734,4.845938 4.84594,4.845938 2.67859,0 4.84593,-2.167346 4.84593,-4.845938 0,-2.678593 -2.16734,-4.845938 -4.84593,-4.845938 -2.6786,0 -4.84594,2.167345 -4.84594,4.845938 z m -29.07563,38.767505 c 0,2.6786 2.16735,4.84594 4.84594,4.84594 2.67859,0 4.84594,-2.16734 4.84594,-4.84594 0,-2.67859 -2.16735,-4.84594 -4.84594,-4.84594 -2.67859,0 -4.84594,2.16735 -4.84594,4.84594 z"
       id="path6942" /></g></svg>