<?xml version="1.0" encoding="UTF-8" standalone="no"?>
<!-- Generator: Adobe Illustrator 16.0.0, SVG Export Plug-In . SVG Version: 6.00 Build 0)  -->

<svg
   xmlns:dc="http://purl.org/dc/elements/1.1/"
   xmlns:cc="http://creativecommons.org/ns#"
   xmlns:rdf="http://www.w3.org/1999/02/22-rdf-syntax-ns#"
   xmlns:svg="http://www.w3.org/2000/svg"
   xmlns="http://www.w3.org/2000/svg"
   xmlns:sodipodi="http://sodipodi.sourceforge.net/DTD/sodipodi-0.dtd"
   xmlns:inkscape="http://www.inkscape.org/namespaces/inkscape"
   version="1.1"
   id="Layer_1"
   x="0px"
   y="0px"
   width="367.85837"
   height="346.28925"
   viewBox="0 0 367.85837 346.28925"
   enable-background="new 0 0 400 400"
   xml:space="preserve"
   inkscape:version="0.91 r13725"
   sodipodi:docname="radar.svg"><metadata
     id="metadata101"><rdf:RDF><cc:Work
         rdf:about=""><dc:format>image/svg+xml</dc:format><dc:type
           rdf:resource="http://purl.org/dc/dcmitype/StillImage" /><dc:title></dc:title></cc:Work></rdf:RDF></metadata><defs
     id="defs99" /><sodipodi:namedview
     pagecolor="#ffffff"
     bordercolor="#666666"
     borderopacity="1"
     objecttolerance="10"
     gridtolerance="10"
     guidetolerance="10"
     inkscape:pageopacity="0"
     inkscape:pageshadow="2"
     inkscape:window-width="1536"
     inkscape:window-height="801"
     id="namedview97"
     showgrid="false"
     fit-margin-top="0"
     fit-margin-left="0"
     fit-margin-right="0"
     fit-margin-bottom="0"
     inkscape:zoom="0.59"
     inkscape:cx="-6.6806576"
     inkscape:cy="397.03359"
     inkscape:window-x="-8"
     inkscape:window-y="-8"
     inkscape:window-maximized="1"
     inkscape:current-layer="Layer_1" /><g
     id="g85"
     transform="translate(-25.994625,-21.845)"
     style="fill:#000000"><path
       d="m 212.338,214.682 -12.226,12.227 -9.495,9.494 -6.863,6.862 c -0.011,-0.044 -0.021,-0.076 -0.021,-0.076 0,0 -2.259,2.769 -6.391,1.66 0,0 0,0.023 0,0.037 l -17.64,-4.727 c -4.391,-1.179 -5.715,-5.671 -5.733,-5.731 l -4.74,-17.692 c -0.839,-3.141 0.553,-5.193 1.272,-6.002 l 7.223,-7.223 9.494,-9.494 12.306,-12.306 c 2.927,-2.926 -0.312,-4.452 -0.42,-4.503 -17.071,-4.231 -35.869,0.309 -49.213,13.651 -13.062,13.062 -17.685,31.353 -13.9,48.134 l -0.005,-0.001 c 0,0 1,4.635 -3.958,9.593 L 32.104,328.51 c -8.146,8.146 -8.146,21.354 10e-4,29.501 l 4.013,4.013 c 8.148,8.147 21.355,8.147 29.501,0 l 80.973,-80.972 c 3.729,-3.138 7.074,-3.115 8.138,-3.008 16.891,3.949 35.372,-0.641 48.539,-13.809 13.352,-13.351 17.889,-32.162 13.645,-49.24 -0.228,-0.416 -1.827,-3.063 -4.576,-0.313 z M 54.391,350.323 c -2.923,2.923 -7.663,2.923 -10.584,0 -2.924,-2.923 -2.924,-7.662 0,-10.585 2.921,-2.923 7.661,-2.923 10.584,0 2.923,2.922 2.923,7.662 0,10.585 z"
       id="path87"
       inkscape:connector-curvature="0"
       style="fill:#000000" /><path
       d="m 390.354,186.458 -187.263,0 c -0.929,0 -1.818,0.369 -2.475,1.025 l -11.523,11.523 -17.388,-4.66 -15.938,15.939 5.833,21.77 21.77,5.834 15.938,-15.938 -4.916,-18.347 10.147,-10.147 185.814,0 c 1.933,0 3.5,-1.567 3.5,-3.5 0,-1.933 -1.566,-3.499 -3.499,-3.499 z m -212.817,40.271 c -5.858,0 -10.61,-4.75 -10.61,-10.61 0,-5.859 4.752,-10.609 10.61,-10.609 5.86,0 10.61,4.75 10.61,10.609 0,5.86 -4.75,10.609 -10.61,10.61 z"
       id="path89"
       inkscape:connector-curvature="0"
       style="fill:#000000" /></g><g
     transform="matrix(0.30794293,0,0,0.30794293,181.39057,-9.9447666)"
     id="g20416"><title
       id="title20418">Layer 1</title><g
       id="svg_1"
       stroke="null"><circle
         style="fill:#000000;stroke:#000000;stroke-dasharray:none"
         stroke-linejoin="null"
         stroke-linecap="null"
         cx="300.5"
         cy="302.33624"
         r="35"
         id="svg_2" /><polygon
         style="fill:none;stroke:#000000;stroke-width:40"
         points="433.50894,536.14014 167.491,536.14014 34.48204,302.84647 167.491,69.552773 433.50894,69.552773 566.51788,302.84647 566.51788,302.84647 "
         id="svg_16" /><line
         style="fill:none;stroke:#000000;stroke-width:25;stroke-dasharray:none"
         stroke-linejoin="null"
         stroke-linecap="null"
         x1="43.806171"
         y1="302.88632"
         x2="557.25104"
         y2="302.88632"
         id="svg_4" /><line
         style="fill:none;stroke:#000000;stroke-width:25;stroke-dasharray:none"
         stroke-linejoin="null"
         stroke-linecap="null"
         x1="428.02594"
         y1="81.757797"
         x2="169.69014"
         y2="532.81598"
         id="svg_5" /><line
         style="fill:none;stroke:#000000;stroke-width:25;stroke-dasharray:none"
         stroke-linejoin="null"
         stroke-linecap="null"
         x1="172.97406"
         y1="78.457382"
         x2="431.30988"
         y2="531.71582"
         id="svg_8" /><line
         style="fill:none;stroke:#000000;stroke-width:30;stroke-dasharray:none"
         stroke-linejoin="null"
         stroke-linecap="null"
         x1="370.00986"
         y1="188.47157"
         x2="239.7473"
         y2="200.57312"
         id="svg_10" /><line
         style="fill:none;stroke:#000000;stroke-width:30;stroke-dasharray:none"
         stroke-linejoin="null"
         stroke-linecap="null"
         x1="239.7473"
         y1="200.57312"
         x2="134.66156"
         y2="305.08661"
         id="svg_11" /><line
         style="fill:none;stroke:#000000;stroke-width:30;stroke-dasharray:none"
         stroke-linejoin="null"
         stroke-linecap="null"
         x1="138.43199"
         y1="304.71988"
         x2="214.32726"
         y2="453.36127"
         id="svg_18" /><line
         style="fill:none;stroke:#000000;stroke-width:30;stroke-dasharray:none"
         stroke-linejoin="null"
         stroke-linecap="null"
         x1="214.32726"
         y1="453.36127"
         x2="338.87332"
         y2="375.12897"
         id="svg_19" /><line
         style="fill:none;stroke:#000000;stroke-width:30;stroke-dasharray:none"
         stroke-linejoin="null"
         stroke-linecap="null"
         x1="338.87332"
         y1="375.12897"
         x2="490.66385"
         y2="306.67569"
         id="svg_20" /><line
         style="fill:none;stroke:#000000;stroke-width:30;stroke-dasharray:none"
         stroke-linejoin="null"
         stroke-linecap="null"
         x1="490.66385"
         y1="306.67569"
         x2="368.06381"
         y2="191.28304"
         id="svg_21" /><circle
         style="fill:#000000;stroke:#000000;stroke-dasharray:none"
         stroke-linejoin="null"
         stroke-linecap="null"
         cx="482.39322"
         cy="302.76407"
         r="35"
         id="svg_22" /><circle
         style="fill:#000000;stroke:#000000;stroke-dasharray:none"
         stroke-linejoin="null"
         stroke-linecap="null"
         cx="366.60428"
         cy="192.74989"
         r="35"
         id="svg_23" /><circle
         style="fill:#000000;stroke:#000000;stroke-dasharray:none"
         stroke-linejoin="null"
         stroke-linecap="null"
         cx="342.76538"
         cy="373.17316"
         r="35"
         id="svg_24" /><circle
         style="fill:#000000;stroke:#000000;stroke-dasharray:none"
         stroke-linejoin="null"
         stroke-linecap="null"
         cx="243.03122"
         cy="202.03998"
         r="35"
         id="svg_25" /><circle
         style="fill:#000000;stroke:#000000;stroke-dasharray:none"
         stroke-linejoin="null"
         stroke-linecap="null"
         cx="213.84074"
         cy="449.9386"
         r="35"
         id="svg_26" /><circle
         style="fill:#000000;stroke:#000000;stroke-dasharray:none"
         stroke-linejoin="null"
         stroke-linecap="null"
         cx="140.86453"
         cy="303.25305"
         r="35"
         id="svg_27" /></g></g></svg>