<?xml version="1.0" encoding="UTF-8" standalone="no"?>
<!-- Created with Inkscape (http://www.inkscape.org/) -->

<svg
   xmlns:dc="http://purl.org/dc/elements/1.1/"
   xmlns:cc="http://creativecommons.org/ns#"
   xmlns:rdf="http://www.w3.org/1999/02/22-rdf-syntax-ns#"
   xmlns:svg="http://www.w3.org/2000/svg"
   xmlns="http://www.w3.org/2000/svg"
   xmlns:sodipodi="http://sodipodi.sourceforge.net/DTD/sodipodi-0.dtd"
   xmlns:inkscape="http://www.inkscape.org/namespaces/inkscape"
   width="256"
   height="256"
   viewBox="0 0 256 256"
   id="svg2"
   version="1.1"
   inkscape:version="0.91 r13725"
   sodipodi:docname="marker.svg">
  <defs
     id="defs4" />
  <sodipodi:namedview
     id="base"
     pagecolor="#ffffff"
     bordercolor="#666666"
     borderopacity="1.0"
     inkscape:pageopacity="0.0"
     inkscape:pageshadow="2"
     inkscape:zoom="0.98994949"
     inkscape:cx="95.327497"
     inkscape:cy="255.99634"
     inkscape:document-units="px"
     inkscape:current-layer="layer1"
     showgrid="false"
     units="px"
     inkscape:window-width="1536"
     inkscape:window-height="801"
     inkscape:window-x="-8"
     inkscape:window-y="-8"
     inkscape:window-maximized="1" />
  <metadata
     id="metadata7">
    <rdf:RDF>
      <cc:Work
         rdf:about="">
        <dc:format>image/svg+xml</dc:format>
        <dc:type
           rdf:resource="http://purl.org/dc/dcmitype/StillImage" />
        <dc:title></dc:title>
      </cc:Work>
    </rdf:RDF>
  </metadata>
  <g
     inkscape:label="Layer 1"
     inkscape:groupmode="layer"
     id="layer1"
     transform="translate(0,-796.36216)">
    <g
       id="g4688"
       transform="matrix(1.1874914,0,0,1.1789475,-19.998399,-142.50704)"
       style="fill:#ffffff;fill-opacity:1">
      <path
         style="opacity:0.98000004;fill:#ffffff;fill-opacity:1;stroke:none;stroke-width:0.80699998;stroke-linecap:round;stroke-linejoin:round;stroke-miterlimit:4;stroke-dasharray:none;stroke-opacity:1"
         d="M 128,0 C 80.503187,0 41.751409,38.608354 42,86.232422 42.25334,134.76628 126.27539,256 126.27539,256 126.27539,256 213.93023,145.08717 214,86.232422 214.05645,38.607738 175.49681,0 128,0 Z m 0,22 a 64,64 0 0 1 64,64 64,64 0 0 1 -64,64 64,64 0 0 1 -64,-64 64,64 0 0 1 64,-64 z"
         transform="matrix(0.74418605,0,0,0.7421874,32.744186,796.36218)"
         id="path4684"
         inkscape:connector-curvature="0" />
    </g>
    <path
       style="opacity:0.98000004;fill:#ffffff;fill-opacity:1;stroke:none;stroke-width:0.80699998;stroke-linecap:round;stroke-linejoin:round;stroke-miterlimit:4;stroke-dasharray:none;stroke-opacity:1"
       d="m 132,988.3622 a 96,31.999977 0 0 0 -96,32 96,31.999977 0 0 0 96,32 96,31.999977 0 0 0 96,-32 96,31.999977 0 0 0 -96,-32 z m 0,7.99999 a 72,23.999983 0 0 1 72,24.00001 72,23.999983 0 0 1 -72,24 72,23.999983 0 0 1 -72,-24 72,23.999983 0 0 1 72,-24.00001 z"
       id="path4145"
       inkscape:connector-curvature="0" />
  </g>
</svg>
