<svg xmlns="http://www.w3.org/2000/svg" xmlns:xlink="http://www.w3.org/1999/xlink" version="1.1" x="0px" y="0px" viewBox="0 0 100 125" style="enable-background:new 0 0 100 100;" xml:space="preserve"><g><path d="M41.9,50c0-1.9-1.6-3.5-3.5-3.5H19l3.6-3.6c1.3-1.3,1.3-3.5,0-4.9c-1.3-1.3-3.5-1.3-4.9,0L5.8,50l12.1,12.1   c0.6,0.6,1.5,1,2.5,1c0.9,0,1.7-0.3,2.5-1c1.3-1.3,1.3-3.5,0-4.9l-3.6-3.6h19.2C40.3,53.5,41.9,51.9,41.9,50z"/><path d="M77.2,62.1c0.6,0.6,1.5,1,2.5,1s1.7-0.3,2.5-1L94.2,50L82.2,37.9c-1.3-1.3-3.5-1.3-4.9,0   c-0.6,0.6-1,1.5-1,2.5c0,0.9,0.3,1.7,1,2.5l3.6,3.6H61.6c-1.9,0-3.5,1.6-3.5,3.5c0,1.9,1.6,3.5,3.5,3.5H81l-3.6,3.6   C75.9,58.4,75.9,60.6,77.2,62.1z"/><path d="M50,94.2l12.1-12.1c0.6-0.6,1-1.5,1-2.5s-0.3-1.7-1-2.5c-1.3-1.3-3.5-1.3-4.9,0l-3.6,3.6V61.6   c0-1.9-1.6-3.5-3.5-3.5c-1.9,0-3.5,1.6-3.5,3.5V81l-3.6-3.6c-1.3-1.3-3.6-1.3-4.9,0c-1.3,1.3-1.3,3.5,0,4.9L50,94.2z"/><path d="M50,41.9c1.9,0,3.5-1.6,3.5-3.5V19l3.6,3.6c1.3,1.3,3.5,1.3,4.9,0c0.6-0.6,1-1.5,1-2.5c0-0.9-0.3-1.7-1-2.5   L50,5.8L37.9,17.8c-1.3,1.3-1.3,3.5,0,4.9c1.3,1.3,3.5,1.3,4.9,0l3.6-3.6v19.2C46.5,40.3,48.1,41.9,50,41.9z"/></g><text x="0" y="115" fill="#000000" font-size="5px" font-weight="bold" font-family="'Helvetica Neue', Helvetica, Arial-Unicode, Arial, Sans-serif">Created by Focus</text><text x="0" y="120" fill="#000000" font-size="5px" font-weight="bold" font-family="'Helvetica Neue', Helvetica, Arial-Unicode, Arial, Sans-serif">from the Noun Project</text></svg>