<svg xmlns:dc="http://purl.org/dc/elements/1.1/" xmlns:cc="http://creativecommons.org/ns#" xmlns:rdf="http://www.w3.org/1999/02/22-rdf-syntax-ns#" xmlns:svg="http://www.w3.org/2000/svg" xmlns="http://www.w3.org/2000/svg" xmlns:sodipodi="http://sodipodi.sourceforge.net/DTD/sodipodi-0.dtd" xmlns:inkscape="http://www.inkscape.org/namespaces/inkscape" version="1.1" x="0px" y="0px" viewBox="0 0 100 125"><g transform="translate(0,-952.36218)"><path style="text-indent:0;text-transform:none;direction:ltr;block-progression:tb;baseline-shift:baseline;color:#000000;enable-background:accumulate;" d="m 43.4375,957.47434 a 3.0003,2.9965655 0 0 0 -2.5,1.93509 l -3.03125,8.05246 -27.90625,0 a 3.0003,2.9965655 0 0 0 -3,2.99627 l 0,45.94274 a 3.0003,2.9965655 0 0 0 3,2.9963 l 25.15625,0 -6.0625,24.2198 a 3.0003,2.9965655 0 1 0 5.8125,1.4669 l 6.4375,-25.6867 5.65625,0 0,17.9776 a 3.0003,2.9965655 0 1 0 6,0 l 0,-17.9776 5.65625,0 6.4375,25.6867 a 3.0003,2.9965655 0 1 0 5.8125,-1.4669 l -6.0625,-24.2198 25.15625,0 a 3.0003,2.9965655 0 0 0 3,-2.9963 l 0,-45.94274 a 3.0003,2.9965655 0 0 0 -2.6875,-2.99627 3.0003,2.9965655 0 0 0 -0.3125,0 l -27.90625,0 -3.03125,-8.05246 A 3.0003,2.9965655 0 0 0 56.25,957.47434 l -6.25,0 -6.25,0 a 3.0003,2.9965655 0 0 0 -0.3125,0 z m 2.375,5.99253 4.1875,0 4.1875,0 1.5,3.99502 -11.375,0 1.5,-3.99502 z M 13,973.45442 l 74,0 0,39.95018 -74,0 0,-39.95018 z" fill="#000000" fill-opacity="1" stroke="none" marker="none" visibility="visible" display="inline" overflow="visible"/></g><text x="0" y="115" fill="#000000" font-size="5px" font-weight="bold" font-family="'Helvetica Neue', Helvetica, Arial-Unicode, Arial, Sans-serif">Created by Jaohuarye</text><text x="0" y="120" fill="#000000" font-size="5px" font-weight="bold" font-family="'Helvetica Neue', Helvetica, Arial-Unicode, Arial, Sans-serif">from the Noun Project</text></svg>