<svg xmlns:dc="http://purl.org/dc/elements/1.1/" xmlns:cc="http://creativecommons.org/ns#" xmlns:rdf="http://www.w3.org/1999/02/22-rdf-syntax-ns#" xmlns:svg="http://www.w3.org/2000/svg" xmlns="http://www.w3.org/2000/svg" xmlns:sodipodi="http://sodipodi.sourceforge.net/DTD/sodipodi-0.dtd" xmlns:inkscape="http://www.inkscape.org/namespaces/inkscape" version="1.1" x="0px" y="0px" viewBox="0 0 100 125"><g transform="translate(0,-952.36218)"><path style="text-indent:0;text-transform:none;direction:ltr;block-progression:tb;baseline-shift:baseline;color:#000000;enable-background:accumulate;" d="m 43.5625,958.45643 a 2.0001998,1.9980597 0 0 0 -1.6875,1.27988 l -3.28125,8.70942 -28.59375,0 a 2.0001998,1.9980597 0 0 0 -2,1.99786 l 0,45.95081 a 2.0001998,1.9980597 0 0 0 2,1.9978 l 26.4375,0 -6.375,25.4728 a 2.0002,1.9980599 0 1 0 3.875,0.9677 l 6.625,-26.4405 7.4375,0 0,18.9797 a 2.0002,1.9980599 0 1 0 4,0 l 0,-18.9797 7.4375,0 6.625,26.4405 a 2.0002,1.9980599 0 1 0 3.875,-0.9677 l -6.375,-25.4728 26.4375,0 a 2.0001998,1.9980597 0 0 0 2,-1.9978 l 0,-45.95081 a 2.0001998,1.9980597 0 0 0 -1.8125,-1.99786 2.0001998,1.9980597 0 0 0 -0.1875,0 l -28.59375,0 -3.28125,-8.70942 a 2.0001998,1.9980597 0 0 0 -1.875,-1.27988 l -6.25,0 -6.25,0 a 2.0001998,1.9980597 0 0 0 -0.1875,0 z m 1.5625,3.99572 4.875,0 4.875,0 2.25,5.99358 -14.25,0 2.25,-5.99358 z m -33.125,9.9893 76,0 0,41.95505 -76,0 0,-41.95505 z" fill="#000000" fill-opacity="1" stroke="none" marker="none" visibility="visible" display="inline" overflow="visible"/></g><text x="0" y="115" fill="#000000" font-size="5px" font-weight="bold" font-family="'Helvetica Neue', Helvetica, Arial-Unicode, Arial, Sans-serif">Created by Jaohuarye</text><text x="0" y="120" fill="#000000" font-size="5px" font-weight="bold" font-family="'Helvetica Neue', Helvetica, Arial-Unicode, Arial, Sans-serif">from the Noun Project</text></svg>