<svg xmlns:dc="http://purl.org/dc/elements/1.1/" xmlns:cc="http://creativecommons.org/ns#" xmlns:rdf="http://www.w3.org/1999/02/22-rdf-syntax-ns#" xmlns:svg="http://www.w3.org/2000/svg" xmlns="http://www.w3.org/2000/svg" xmlns:sodipodi="http://sodipodi.sourceforge.net/DTD/sodipodi-0.dtd" xmlns:inkscape="http://www.inkscape.org/namespaces/inkscape" version="1.1" x="0px" y="0px" viewBox="0 0 100 125"><g transform="translate(0,-952.36218)"><path style="font-size:medium;font-style:normal;font-variant:normal;font-weight:normal;font-stretch:normal;text-indent:0;text-align:start;text-decoration:none;line-height:normal;letter-spacing:normal;word-spacing:normal;text-transform:none;direction:ltr;block-progression:tb;writing-mode:lr-tb;text-anchor:start;baseline-shift:baseline;opacity:1;color:#000000;fill:#000000;fill-opacity:1;stroke:none;stroke-width:6;marker:none;visibility:visible;display:inline;overflow:visible;enable-background:accumulate;font-family:Sans;-inkscape-font-specification:Sans" d="M 29.59375 5 A 3.0003 3.0003 0 0 0 27.71875 6.03125 L 10.71875 26.03125 A 3.0031315 3.0031315 0 1 0 15.28125 29.9375 L 27 16.15625 L 27 82 C 26.97759 83.5849 28.414904 85.0625 30 85.0625 C 31.585096 85.0625 33.022415 83.5849 33 82 L 33 16.15625 L 44.71875 29.9375 A 3.0031315 3.0031315 0 1 0 49.28125 26.03125 L 32.28125 6.03125 A 3.0003 3.0003 0 0 0 29.59375 5 z M 69.96875 14.9375 C 68.387393 14.9538 66.967131 16.4189 67 18 L 67 83.8125 L 55.28125 70.03125 A 3.0003 3.0003 0 0 0 52.625 68.96875 A 3.0003 3.0003 0 0 0 50.71875 73.9375 L 67.71875 93.9375 A 3.0003 3.0003 0 0 0 72.28125 93.9375 L 89.28125 73.9375 A 3.0031478 3.0031478 0 1 0 84.71875 70.03125 L 73 83.8125 L 73 18 C 73.03331 16.39807 71.570938 14.92063 69.96875 14.9375 z " transform="translate(0,952.36218)"/></g><text x="0" y="115" fill="#000000" font-size="5px" font-weight="bold" font-family="'Helvetica Neue', Helvetica, Arial-Unicode, Arial, Sans-serif">Created by Icons Bazaar</text><text x="0" y="120" fill="#000000" font-size="5px" font-weight="bold" font-family="'Helvetica Neue', Helvetica, Arial-Unicode, Arial, Sans-serif">from the Noun Project</text></svg>