<svg xmlns:dc="http://purl.org/dc/elements/1.1/" xmlns:cc="http://creativecommons.org/ns#" xmlns:rdf="http://www.w3.org/1999/02/22-rdf-syntax-ns#" xmlns:svg="http://www.w3.org/2000/svg" xmlns="http://www.w3.org/2000/svg" xmlns:sodipodi="http://sodipodi.sourceforge.net/DTD/sodipodi-0.dtd" xmlns:inkscape="http://www.inkscape.org/namespaces/inkscape" version="1.1" x="0px" y="0px" viewBox="0 0 100 125"><g transform="translate(0,-952.36218)"><path style="font-size:medium;font-style:normal;font-variant:normal;font-weight:normal;font-stretch:normal;text-indent:0;text-align:start;text-decoration:none;line-height:normal;letter-spacing:normal;word-spacing:normal;text-transform:none;direction:ltr;block-progression:tb;writing-mode:lr-tb;text-anchor:start;baseline-shift:baseline;opacity:1;color:#000000;fill:#000000;fill-opacity:1;stroke:none;stroke-width:6.00000047999999970;marker:none;visibility:visible;display:inline;overflow:visible;enable-background:accumulate;font-family:Sans;-inkscape-font-specification:Sans" d="M 32.46875 5 C 28.911567 5 26 7.96381 26 11.5 L 26 13 L 22.59375 13 C 18.974761 13 16 16.02464 16 19.625 L 16 88.375 C 16 91.9753 18.974701 95 22.59375 95 L 69.40625 95 C 73.025299 95 76 91.9753 76 88.375 L 76 85 L 77.53125 85 C 81.088517 85 84 82.00485 84 78.46875 L 84 23.84375 A 3.0003002 3.0003002 0 0 0 83.125 21.75 L 67.53125 5.875 A 3.0003002 3.0003002 0 0 0 65.40625 5 L 32.46875 5 z M 32.46875 11 L 61 11 L 61 25 A 3.0003002 3.0003002 0 0 0 64 28 L 78 28 L 78 78.46875 C 78 78.83675 77.815063 79 77.53125 79 L 32.46875 79 C 32.184952 79 32 78.83675 32 78.46875 L 32 11.5 C 32 11.13181 32.184869 11 32.46875 11 z M 67 13.875 L 75 22 L 67 22 L 67 13.875 z M 22.59375 19 L 26 19 L 26 78.46875 C 26 82.00485 28.911484 85 32.46875 85 L 70 85 L 70 88.375 C 70 88.7845 69.775997 89 69.40625 89 L 22.59375 89 C 22.224003 89 22 88.7845 22 88.375 L 22 19.625 C 22 19.21544 22.223943 19 22.59375 19 z " transform="translate(0,952.36218)"/></g><text x="0" y="115" fill="#000000" font-size="5px" font-weight="bold" font-family="'Helvetica Neue', Helvetica, Arial-Unicode, Arial, Sans-serif">Created by cathy moser</text><text x="0" y="120" fill="#000000" font-size="5px" font-weight="bold" font-family="'Helvetica Neue', Helvetica, Arial-Unicode, Arial, Sans-serif">from the Noun Project</text></svg>