<svg xmlns:dc="http://purl.org/dc/elements/1.1/" xmlns:cc="http://creativecommons.org/ns#" xmlns:rdf="http://www.w3.org/1999/02/22-rdf-syntax-ns#" xmlns:svg="http://www.w3.org/2000/svg" xmlns="http://www.w3.org/2000/svg" xmlns:sodipodi="http://sodipodi.sourceforge.net/DTD/sodipodi-0.dtd" xmlns:inkscape="http://www.inkscape.org/namespaces/inkscape" version="1.1" x="0px" y="0px" viewBox="0 0 100 125"><g transform="translate(0,-952.36218)"><path style="font-size:medium;font-style:normal;font-variant:normal;font-weight:normal;font-stretch:normal;text-indent:0;text-align:start;text-decoration:none;line-height:normal;letter-spacing:normal;word-spacing:normal;text-transform:none;direction:ltr;block-progression:tb;writing-mode:lr-tb;text-anchor:start;baseline-shift:baseline;opacity:1;color:#000000;fill:#000000;fill-opacity:1;stroke:none;stroke-width:6;marker:none;visibility:visible;display:inline;overflow:visible;enable-background:accumulate;font-family:Sans;-inkscape-font-specification:Sans" d="M 24 5 C 20.173892 5 17 8.17389 17 12 L 17 88 C 17 91.8261 20.173892 95 24 95 L 76 95 C 79.826108 95 83 91.8261 83 88 L 83 26 A 3.0003 3.0003 0 0 0 82.125 23.875 L 64.125 5.875 A 3.0003 3.0003 0 0 0 62 5 L 24 5 z M 24 11 L 58 11 L 58 27 A 3.0003 3.0003 0 0 0 61 30 L 77 30 L 77 88 C 77 88.6059 76.60589 89 76 89 L 24 89 C 23.39411 89 23 88.6059 23 88 L 23 12 C 23 11.39411 23.39411 11 24 11 z M 64 14.25 L 73.75 24 L 64 24 L 64 14.25 z " transform="translate(0,952.36218)"/></g><text x="0" y="115" fill="#000000" font-size="5px" font-weight="bold" font-family="'Helvetica Neue', Helvetica, Arial-Unicode, Arial, Sans-serif">Created by cathy moser</text><text x="0" y="120" fill="#000000" font-size="5px" font-weight="bold" font-family="'Helvetica Neue', Helvetica, Arial-Unicode, Arial, Sans-serif">from the Noun Project</text></svg>