<svg xmlns:dc="http://purl.org/dc/elements/1.1/" xmlns:cc="http://creativecommons.org/ns#" xmlns:rdf="http://www.w3.org/1999/02/22-rdf-syntax-ns#" xmlns:svg="http://www.w3.org/2000/svg" xmlns="http://www.w3.org/2000/svg" xmlns:sodipodi="http://sodipodi.sourceforge.net/DTD/sodipodi-0.dtd" xmlns:inkscape="http://www.inkscape.org/namespaces/inkscape" version="1.1" x="0px" y="0px" viewBox="0 0 100 125"><g transform="translate(0,-952.36218)"><path style="font-size:medium;font-style:normal;font-variant:normal;font-weight:normal;font-stretch:normal;text-indent:0;text-align:start;text-decoration:none;line-height:normal;letter-spacing:normal;word-spacing:normal;text-transform:none;direction:ltr;block-progression:tb;writing-mode:lr-tb;text-anchor:start;baseline-shift:baseline;opacity:1;color:#000000;fill:#000000;fill-opacity:1;stroke:none;stroke-width:5.99999952000000030;marker:none;visibility:visible;display:inline;overflow:visible;enable-background:accumulate;font-family:Sans;-inkscape-font-specification:Sans" d="M 77 9 C 67.094409 9 59 17.09441 59 27 C 59 28.31758 59.165863 29.605046 59.4375 30.84375 L 38.09375 40.25 C 34.880154 35.292192 29.319736 32 23 32 C 13.094409 32 5 40.09439 5 50 C 5 59.9056 13.094409 68 23 68 C 29.319736 68 34.880154 64.707803 38.09375 59.75 L 59.4375 69.125 C 59.161607 70.372885 59 71.671847 59 73 C 59 82.9056 67.094409 91 77 91 C 86.905591 91 95 82.9056 95 73 C 95 63.0944 86.905591 55 77 55 C 70.542074 55 64.895954 58.454014 61.71875 63.59375 L 40.46875 54.25 C 40.80168 52.88619 41 51.463083 41 50 C 41 48.526344 40.80636 47.091545 40.46875 45.71875 L 61.6875 36.40625 C 64.863068 41.553535 70.536366 45 77 45 C 86.905591 45 95 36.90559 95 27 C 95 17.09441 86.905591 9 77 9 z M 77 15 C 83.662951 15 89 20.33705 89 27 C 89 33.66295 83.662951 39 77 39 C 70.337049 39 65 33.66295 65 27 C 65 20.33705 70.337049 15 77 15 z M 23 38 C 29.662951 38 35 43.33703 35 50 C 35 56.6629 29.662951 62 23 62 C 16.337049 62 11 56.6629 11 50 C 11 43.33703 16.337049 38 23 38 z M 77 61 C 83.662951 61 89 66.337 89 73 C 89 79.663 83.662951 85 77 85 C 70.337049 85 65 79.663 65 73 C 65 66.337 70.337049 61 77 61 z " transform="translate(0,952.36218)"/></g><text x="0" y="115" fill="#000000" font-size="5px" font-weight="bold" font-family="'Helvetica Neue', Helvetica, Arial-Unicode, Arial, Sans-serif">Created by cathy moser</text><text x="0" y="120" fill="#000000" font-size="5px" font-weight="bold" font-family="'Helvetica Neue', Helvetica, Arial-Unicode, Arial, Sans-serif">from the Noun Project</text></svg>