<svg xmlns:dc="http://purl.org/dc/elements/1.1/" xmlns:cc="http://creativecommons.org/ns#" xmlns:rdf="http://www.w3.org/1999/02/22-rdf-syntax-ns#" xmlns:svg="http://www.w3.org/2000/svg" xmlns="http://www.w3.org/2000/svg" xmlns:sodipodi="http://sodipodi.sourceforge.net/DTD/sodipodi-0.dtd" xmlns:inkscape="http://www.inkscape.org/namespaces/inkscape" version="1.1" x="0px" y="0px" viewBox="0 0 100 125"><g transform="translate(0,-952.36218)"><path style="font-size:medium;font-style:normal;font-variant:normal;font-weight:normal;font-stretch:normal;text-indent:0;text-align:start;text-decoration:none;line-height:normal;letter-spacing:normal;word-spacing:normal;text-transform:none;direction:ltr;block-progression:tb;writing-mode:lr-tb;text-anchor:start;baseline-shift:baseline;opacity:1;color:#000000;fill:#000000;fill-opacity:1;stroke:none;stroke-width:6;marker:none;visibility:visible;display:inline;overflow:visible;enable-background:accumulate;font-family:Sans;-inkscape-font-specification:Sans" d="M 39.6875 5 A 3.0040663 3.0040663 0 1 0 40 11 L 60 11 A 3.0003 3.0003 0 1 0 60 5 L 40 5 A 3.0003 3.0003 0 0 0 39.6875 5 z M 22 15 C 18.173893 15 15 18.17389 15 22 L 15 28 C 15 31.164361 17.178366 33.873136 20.09375 34.71875 L 22 92.09375 A 3.0003 3.0003 0 0 0 25 95 L 75 95 A 3.0003 3.0003 0 0 0 78 92.09375 L 79.90625 34.71875 C 82.821634 33.873136 85 31.164361 85 28 L 85 22 C 85 18.17389 81.826107 15 78 15 L 22 15 z M 22 21 L 78 21 C 78.60589 21 79 21.39411 79 22 L 79 28 C 79 28.60589 78.60589 29 78 29 L 23.59375 29 A 3.0003 3.0003 0 0 0 22.84375 28.9375 A 3.0003 3.0003 0 0 0 22.375 29 L 22 29 C 21.39411 29 21 28.60589 21 28 L 21 22 C 21 21.39411 21.39411 21 22 21 z M 26.09375 35 L 73.90625 35 L 72.09375 89 L 27.90625 89 L 26.09375 35 z M 49.96875 41.9375 A 3.0003 3.0003 0 0 0 47 45 L 47 79 A 3.0003 3.0003 0 1 0 53 79 L 53 45 A 3.0003 3.0003 0 0 0 49.96875 41.9375 z M 37.96875 49.9375 A 3.0003 3.0003 0 0 0 35 53 L 35 71 A 3.0003 3.0003 0 1 0 41 71 L 41 53 A 3.0003 3.0003 0 0 0 37.96875 49.9375 z M 61.96875 49.9375 A 3.0003 3.0003 0 0 0 59 53 L 59 71 A 3.0003 3.0003 0 1 0 65 71 L 65 53 A 3.0003 3.0003 0 0 0 61.96875 49.9375 z " transform="translate(0,952.36218)"/></g><text x="0" y="115" fill="#000000" font-size="5px" font-weight="bold" font-family="'Helvetica Neue', Helvetica, Arial-Unicode, Arial, Sans-serif">Created by cathy moser</text><text x="0" y="120" fill="#000000" font-size="5px" font-weight="bold" font-family="'Helvetica Neue', Helvetica, Arial-Unicode, Arial, Sans-serif">from the Noun Project</text></svg>