<svg xmlns:dc="http://purl.org/dc/elements/1.1/" xmlns:cc="http://creativecommons.org/ns#" xmlns:rdf="http://www.w3.org/1999/02/22-rdf-syntax-ns#" xmlns:svg="http://www.w3.org/2000/svg" xmlns="http://www.w3.org/2000/svg" xmlns:sodipodi="http://sodipodi.sourceforge.net/DTD/sodipodi-0.dtd" xmlns:inkscape="http://www.inkscape.org/namespaces/inkscape" version="1.1" x="0px" y="0px" viewBox="0 0 100 125"><g transform="translate(0,-952.36218)"><path style="font-size:medium;font-style:normal;font-variant:normal;font-weight:normal;font-stretch:normal;text-indent:0;text-align:start;text-decoration:none;line-height:normal;letter-spacing:normal;word-spacing:normal;text-transform:none;direction:ltr;block-progression:tb;writing-mode:lr-tb;text-anchor:start;baseline-shift:baseline;opacity:1;color:#000000;fill:#000000;fill-opacity:1;stroke:none;stroke-width:5.99999952000000030;marker:none;visibility:visible;display:inline;overflow:visible;enable-background:accumulate;font-family:Sans;-inkscape-font-specification:Sans" d="M 57 10 C 38.810137 10 24 24.81014 24 43 C 24 48.830588 25.55182 54.302863 28.21875 59.0625 L 12.0625 75.21875 C 9.3571803 77.92405 9.356992 82.4198 12.0625 85.125 L 14.875 87.9375 C 17.580242 90.6426 22.076064 90.6427 24.78125 87.9375 L 40.9375 71.78125 C 45.697135 74.448188 51.169398 76 57 76 C 75.189863 76 90 61.18982 90 43 C 90 24.81014 75.189863 10 57 10 z M 57 16 C 71.947222 16 84 28.05278 84 43 C 84 57.94722 71.947222 70 57 70 C 42.052778 70 30 57.94722 30 43 C 30 28.05278 42.052778 16 57 16 z M 43.6875 40 A 3.0040663 3.0040663 0 1 0 44 46 L 70 46 A 3.0002998 3.0002998 0 1 0 70 40 L 44 40 A 3.0002998 3.0002998 0 0 0 43.6875 40 z M 31.6875 64.09375 C 32.967568 65.62754 34.372462 67.032429 35.90625 68.3125 L 20.53125 83.6875 C 20.102644 84.1161 19.553726 84.1162 19.125 83.6875 L 16.3125 80.875 C 15.884042 80.4466 15.883924 79.89735 16.3125 79.46875 L 31.6875 64.09375 z " transform="translate(0,952.36218)"/></g><text x="0" y="115" fill="#000000" font-size="5px" font-weight="bold" font-family="'Helvetica Neue', Helvetica, Arial-Unicode, Arial, Sans-serif">Created by cathy moser</text><text x="0" y="120" fill="#000000" font-size="5px" font-weight="bold" font-family="'Helvetica Neue', Helvetica, Arial-Unicode, Arial, Sans-serif">from the Noun Project</text></svg>