<?xml version="1.0" encoding="UTF-8" standalone="no"?>
<!-- Generator: Adobe Illustrator 16.0.0, SVG Export Plug-In . SVG Version: 6.00 Build 0)  -->

<svg
   xmlns:dc="http://purl.org/dc/elements/1.1/"
   xmlns:cc="http://creativecommons.org/ns#"
   xmlns:rdf="http://www.w3.org/1999/02/22-rdf-syntax-ns#"
   xmlns:svg="http://www.w3.org/2000/svg"
   xmlns="http://www.w3.org/2000/svg"
   xmlns:sodipodi="http://sodipodi.sourceforge.net/DTD/sodipodi-0.dtd"
   xmlns:inkscape="http://www.inkscape.org/namespaces/inkscape"
   version="1.1"
   id="Layer_1"
   x="0px"
   y="0px"
   width="367.85837"
   height="346.28925"
   viewBox="0 0 367.85837 346.28925"
   enable-background="new 0 0 400 400"
   xml:space="preserve"
   inkscape:version="0.91 r13725"
   sodipodi:docname="funnel.svg"><metadata
     id="metadata101"><rdf:RDF><cc:Work
         rdf:about=""><dc:format>image/svg+xml</dc:format><dc:type
           rdf:resource="http://purl.org/dc/dcmitype/StillImage" /><dc:title /></cc:Work></rdf:RDF></metadata><defs
     id="defs99" /><sodipodi:namedview
     pagecolor="#ffffff"
     bordercolor="#666666"
     borderopacity="1"
     objecttolerance="10"
     gridtolerance="10"
     guidetolerance="10"
     inkscape:pageopacity="0"
     inkscape:pageshadow="2"
     inkscape:window-width="1536"
     inkscape:window-height="801"
     id="namedview97"
     showgrid="false"
     fit-margin-top="0"
     fit-margin-left="0"
     fit-margin-right="0"
     fit-margin-bottom="0"
     inkscape:zoom="0.59"
     inkscape:cx="-78.536993"
     inkscape:cy="168.13425"
     inkscape:window-x="-8"
     inkscape:window-y="-8"
     inkscape:window-maximized="1"
     inkscape:current-layer="Layer_1" /><g
     id="g85"
     transform="translate(-25.994625,-21.845)"
     style="fill:#ffffff"><path
       d="m 212.338,214.682 -12.226,12.227 -9.495,9.494 -6.863,6.862 c -0.011,-0.044 -0.021,-0.076 -0.021,-0.076 0,0 -2.259,2.769 -6.391,1.66 0,0 0,0.023 0,0.037 l -17.64,-4.727 c -4.391,-1.179 -5.715,-5.671 -5.733,-5.731 l -4.74,-17.692 c -0.839,-3.141 0.553,-5.193 1.272,-6.002 l 7.223,-7.223 9.494,-9.494 12.306,-12.306 c 2.927,-2.926 -0.312,-4.452 -0.42,-4.503 -17.071,-4.231 -35.869,0.309 -49.213,13.651 -13.062,13.062 -17.685,31.353 -13.9,48.134 l -0.005,-0.001 c 0,0 1,4.635 -3.958,9.593 L 32.104,328.51 c -8.146,8.146 -8.146,21.354 10e-4,29.501 l 4.013,4.013 c 8.148,8.147 21.355,8.147 29.501,0 l 80.973,-80.972 c 3.729,-3.138 7.074,-3.115 8.138,-3.008 16.891,3.949 35.372,-0.641 48.539,-13.809 13.352,-13.351 17.889,-32.162 13.645,-49.24 -0.228,-0.416 -1.827,-3.063 -4.576,-0.313 z M 54.391,350.323 c -2.923,2.923 -7.663,2.923 -10.584,0 -2.924,-2.923 -2.924,-7.662 0,-10.585 2.921,-2.923 7.661,-2.923 10.584,0 2.923,2.922 2.923,7.662 0,10.585 z"
       id="path87"
       inkscape:connector-curvature="0"
       style="fill:#ffffff" /><path
       d="m 390.354,186.458 -187.263,0 c -0.929,0 -1.818,0.369 -2.475,1.025 l -11.523,11.523 -17.388,-4.66 -15.938,15.939 5.833,21.77 21.77,5.834 15.938,-15.938 -4.916,-18.347 10.147,-10.147 185.814,0 c 1.933,0 3.5,-1.567 3.5,-3.5 0,-1.933 -1.566,-3.499 -3.499,-3.499 z m -212.817,40.271 c -5.858,0 -10.61,-4.75 -10.61,-10.61 0,-5.859 4.752,-10.609 10.61,-10.609 5.86,0 10.61,4.75 10.61,10.609 0,5.86 -4.75,10.609 -10.61,10.61 z"
       id="path89"
       inkscape:connector-curvature="0"
       style="fill:#ffffff" /></g><g
     transform="matrix(0.33299591,0,0,0.33299591,194.45904,-1.6930744)"
     id="g9341"
     style="fill:#ffffff"><title
       id="title9343">Layer 1</title><path
       style="fill:#ffffff"
       inkscape:connector-curvature="0"
       stroke="null"
       id="svg_2"
       d="m 438.52316,164.80952 -369.447191,0 57.361841,93.46778 253.10768,0 58.97767,-93.46778 0,0 z" /><path
       style="fill:#ffffff"
       inkscape:connector-curvature="0"
       stroke="null"
       id="svg_3"
       d="m 445.76955,143.19351 56.8297,-83.257173 c 0.87194,-1.035266 1.59,-2.125019 2.20549,-3.269261 l 1.43612,-2.125019 c 3.89807,-9.807782 -0.41032,-21.086731 -9.59129,-25.173307 -2.35935,-1.089754 -4.87258,-1.580143 -7.28323,-1.525655 l -0.20516,0 -466.02402,0 -0.359032,0 -0.205161,0 c -9.745164,0.381414 -17.541296,8.827004 -17.541296,19.288638 0,5.884669 2.513227,11.115486 6.411292,14.657185 l 54.213889,81.404592 380.112708,0 0,0 -1e-5,0 z" /><path
       style="fill:#ffffff"
       inkscape:connector-curvature="0"
       stroke="null"
       id="svg_4"
       d="m 173.93641,390.44417 61.41296,93.11609 c 0.79394,2.05035 1.91478,3.85066 3.17573,5.40093 1.68127,2.55044 4.06306,4.70081 7.00528,5.95103 8.40634,3.80065 18.07363,-0.40007 21.57627,-9.35162 l 64.40188,-95.11644 -157.57212,0 0,0 0,10e-6 z" /><path
       style="fill:#ffffff"
       inkscape:connector-curvature="0"
       stroke="null"
       id="svg_5"
       d="m 375.93346,281.95749 -246.18792,0 38.22412,83.9863 168.66294,0 39.30086,-83.9863 0,0 z" /></g></svg>