<?xml version="1.0" encoding="UTF-8" standalone="no"?>
<!-- Generator: Adobe Illustrator 16.0.0, SVG Export Plug-In . SVG Version: 6.00 Build 0)  -->

<svg
   xmlns:dc="http://purl.org/dc/elements/1.1/"
   xmlns:cc="http://creativecommons.org/ns#"
   xmlns:rdf="http://www.w3.org/1999/02/22-rdf-syntax-ns#"
   xmlns:svg="http://www.w3.org/2000/svg"
   xmlns="http://www.w3.org/2000/svg"
   xmlns:sodipodi="http://sodipodi.sourceforge.net/DTD/sodipodi-0.dtd"
   xmlns:inkscape="http://www.inkscape.org/namespaces/inkscape"
   version="1.1"
   id="Layer_1"
   x="0px"
   y="0px"
   width="367.85837"
   height="346.28925"
   viewBox="0 0 367.85837 346.28925"
   enable-background="new 0 0 400 400"
   xml:space="preserve"
   inkscape:version="0.91 r13725"
   sodipodi:docname="sankey.svg"><metadata
     id="metadata101"><rdf:RDF><cc:Work
         rdf:about=""><dc:format>image/svg+xml</dc:format><dc:type
           rdf:resource="http://purl.org/dc/dcmitype/StillImage" /><dc:title /></cc:Work></rdf:RDF></metadata><defs
     id="defs99" /><sodipodi:namedview
     pagecolor="#ffffff"
     bordercolor="#666666"
     borderopacity="1"
     objecttolerance="10"
     gridtolerance="10"
     guidetolerance="10"
     inkscape:pageopacity="0"
     inkscape:pageshadow="2"
     inkscape:window-width="1536"
     inkscape:window-height="801"
     id="namedview97"
     showgrid="false"
     fit-margin-top="0"
     fit-margin-left="0"
     fit-margin-right="0"
     fit-margin-bottom="0"
     inkscape:zoom="0.59"
     inkscape:cx="-78.536993"
     inkscape:cy="168.13425"
     inkscape:window-x="-8"
     inkscape:window-y="-8"
     inkscape:window-maximized="1"
     inkscape:current-layer="Layer_1" /><g
     id="g85"
     transform="translate(-25.994625,-21.845)"
     style="fill:#ffffff"><path
       d="m 212.338,214.682 -12.226,12.227 -9.495,9.494 -6.863,6.862 c -0.011,-0.044 -0.021,-0.076 -0.021,-0.076 0,0 -2.259,2.769 -6.391,1.66 0,0 0,0.023 0,0.037 l -17.64,-4.727 c -4.391,-1.179 -5.715,-5.671 -5.733,-5.731 l -4.74,-17.692 c -0.839,-3.141 0.553,-5.193 1.272,-6.002 l 7.223,-7.223 9.494,-9.494 12.306,-12.306 c 2.927,-2.926 -0.312,-4.452 -0.42,-4.503 -17.071,-4.231 -35.869,0.309 -49.213,13.651 -13.062,13.062 -17.685,31.353 -13.9,48.134 l -0.005,-0.001 c 0,0 1,4.635 -3.958,9.593 L 32.104,328.51 c -8.146,8.146 -8.146,21.354 10e-4,29.501 l 4.013,4.013 c 8.148,8.147 21.355,8.147 29.501,0 l 80.973,-80.972 c 3.729,-3.138 7.074,-3.115 8.138,-3.008 16.891,3.949 35.372,-0.641 48.539,-13.809 13.352,-13.351 17.889,-32.162 13.645,-49.24 -0.228,-0.416 -1.827,-3.063 -4.576,-0.313 z M 54.391,350.323 c -2.923,2.923 -7.663,2.923 -10.584,0 -2.924,-2.923 -2.924,-7.662 0,-10.585 2.921,-2.923 7.661,-2.923 10.584,0 2.923,2.922 2.923,7.662 0,10.585 z"
       id="path87"
       inkscape:connector-curvature="0"
       style="fill:#ffffff" /><path
       d="m 390.354,186.458 -187.263,0 c -0.929,0 -1.818,0.369 -2.475,1.025 l -11.523,11.523 -17.388,-4.66 -15.938,15.939 5.833,21.77 21.77,5.834 15.938,-15.938 -4.916,-18.347 10.147,-10.147 185.814,0 c 1.933,0 3.5,-1.567 3.5,-3.5 0,-1.933 -1.566,-3.499 -3.499,-3.499 z m -212.817,40.271 c -5.858,0 -10.61,-4.75 -10.61,-10.61 0,-5.859 4.752,-10.609 10.61,-10.609 5.86,0 10.61,4.75 10.61,10.609 0,5.86 -4.75,10.609 -10.61,10.61 z"
       id="path89"
       inkscape:connector-curvature="0"
       style="fill:#ffffff" /></g><rect
     style="fill:#ffffff;stroke:none"
     id="rect3364"
     width="12.751847"
     height="77.927956"
     x="260.42938"
     y="5.0577984" /><rect
     style="fill:#ffffff;stroke:none"
     id="rect3366"
     width="12.751847"
     height="70.843597"
     x="260.42938"
     y="88.593201" /><rect
     style="fill:#ffffff;stroke:none"
     id="rect3370"
     width="18.419336"
     height="155.85591"
     x="211.55933"
     y="3.8570535" /><rect
     style="fill:#ffffff;stroke:none"
     id="rect3372"
     width="12.751847"
     height="38.423649"
     x="305.31305"
     y="3.71298" /><rect
     style="fill:#ffffff;stroke:none"
     id="rect3374"
     width="12.751847"
     height="44.57143"
     x="304.54456"
     y="49.821346" /><rect
     style="fill:#ffffff;stroke:none"
     id="rect3376"
     width="12.751847"
     height="54.369457"
     x="304.54456"
     y="104.38293" /><rect
     style="fill:#ffffff;stroke:none"
     id="rect3378"
     width="12.751847"
     height="29.970444"
     x="349.11597"
     y="4.4814434" /><rect
     style="fill:#ffffff;stroke:none"
     id="rect3380"
     width="12.751847"
     height="27.665024"
     x="348.34753"
     y="42.905087" /><rect
     style="fill:#ffffff;stroke:none"
     id="rect3382"
     width="12.751847"
     height="21.517242"
     x="346.81055"
     y="80.560272" /><rect
     style="fill:#ffffff;stroke:none"
     id="rect3384"
     width="12.751847"
     height="46.108376"
     x="347.57904"
     y="111.29919" /><path
     inkscape:connector-curvature="0"
     style="fill:#ffffff;fill-opacity:0.4;fill-rule:evenodd;stroke:none;stroke-width:1px;stroke-linecap:butt;stroke-linejoin:miter;stroke-opacity:1"
     d="m 230.19479,4.481441 30.93103,0.96059 -0.19211,77.42365 -31.12315,2.88177 z"
     id="path3386" /><path
     inkscape:connector-curvature="0"
     style="fill:#ffffff;fill-opacity:0.2;fill-rule:evenodd;stroke:none;stroke-width:1px;stroke-linecap:butt;stroke-linejoin:miter;stroke-opacity:1"
     d="m 228.48504,85.667881 32.64079,2.86529 0.048,70.891629 -31.69951,0.24014 z"
     id="path3390" /><path
     inkscape:connector-curvature="0"
     style="fill:#ffffff;fill-opacity:0.2;fill-rule:evenodd;stroke:none;stroke-width:1px;stroke-linecap:butt;stroke-linejoin:miter"
     d="m 272.84504,5.057801 33.04434,-1.34483 -0.38424,38.37562 -32.75616,6.77216 z"
     id="path3392" /><path
     inkscape:connector-curvature="0"
     style="fill:#ffffff;fill-opacity:0.2;fill-rule:evenodd;stroke:none;stroke-width:1px;stroke-linecap:butt;stroke-linejoin:miter"
     d="m 273.03716,48.668641 32.56404,1.20074 -0.91257,44.5234 -32.22783,-11.62316 z"
     id="path3394" /><path
     inkscape:connector-curvature="0"
     style="fill:#ffffff;fill-opacity:0.2;fill-rule:evenodd;stroke:none;stroke-width:1px;stroke-linecap:butt;stroke-linejoin:miter"
     d="m 272.74898,88.725291 32.46798,15.945809 0.0961,54.08128 -32.85222,0.57636 z"
     id="path3396" /><path
     inkscape:connector-curvature="0"
     style="fill:#ffffff;fill-opacity:0.2;fill-rule:evenodd;stroke:none;stroke-width:1px;stroke-linecap:butt;stroke-linejoin:miter"
     d="m 317.94479,3.809031 31.93966,0.72044 -0.52833,29.82636 -31.60345,7.78079 z"
     id="path3398" /><path
     inkscape:connector-curvature="0"
     style="fill:#ffffff;fill-opacity:0.2;fill-rule:evenodd;stroke:none;stroke-width:1px;stroke-linecap:butt;stroke-linejoin:miter"
     d="m 317.08026,49.917401 31.41133,-6.96428 0.33621,27.52094 -31.60345,4.13054 z"
     id="path3400" /><path
     inkscape:connector-curvature="0"
     style="fill:#ffffff;fill-opacity:0.2;fill-rule:evenodd;stroke:none;stroke-width:1px;stroke-linecap:butt;stroke-linejoin:miter"
     d="m 316.93617,74.796721 30.40271,5.76354 -0.38423,21.469219 -30.49878,-7.780789 z"
     id="path3402" /><path
     inkscape:connector-curvature="0"
     style="fill:#ffffff;fill-opacity:0.2;fill-rule:evenodd;stroke:none;stroke-width:1px;stroke-linecap:butt;stroke-linejoin:miter"
     d="m 316.93617,104.33489 30.78695,7.06035 0.43226,46.01232 -31.55541,1.34482 z"
     id="path3404" /></svg>